0
SECTION
2
HEADER
9
$INSUNITS
70
4
9
$ACADVER
1
AC1014
9
$HANDSEED
5
FFFF
0
ENDSEC
0
SECTION
2
TABLES
0
TABLE
2
VPORT
5
8
100
AcDbSymbolTable
0
ENDTAB
0
TABLE
2
LTYPE
5
5
100
AcDbSymbolTable
0
LTYPE
5
14
100
AcDbSymbolTableRecord
100
AcDbLinetypeTableRecord
2
BYBLOCK
70
0
0
LTYPE
5
15
100
AcDbSymbolTableRecord
100
AcDbLinetypeTableRecord
2
BYLAYER
70
0
0
LTYPE
5
16
100
AcDbSymbolTableRecord
100
AcDbLinetypeTableRecord
2
DASHED
70
0
3
Dashed __ __ __ __ __ __ __ __ __ __ __ __ __ _
72
65
73
2
40
0.75
49
0.5
74
0
49
-0.25
74
0
0
ENDTAB
0
TABLE
2
LAYER
5
2
100
AcDbSymbolTable
70
3
0
LAYER
5
50
100
AcDbSymbolTableRecord
100
AcDbLayerTableRecord
2
1
70
0
62
7
6
DASHED
0
LAYER
5
51
100
AcDbSymbolTableRecord
100
AcDbLayerTableRecord
2
0
70
0
62
7
6
CONTINUOUS
0
ENDTAB
0
TABLE
2
STYLE
5
3
100
AcDbSymbolTable
70
1
0
STYLE
5
11
100
AcDbSymbolTableRecord
100
AcDbTextStyleTableRecord
2
STANDARD
70
0
0
ENDTAB
0
TABLE
2
VIEW
5
6
100
AcDbSymbolTable
70
0
0
ENDTAB
0
TABLE
2
UCS
5
7
100
AcDbSymbolTable
70
0
0
ENDTAB
0
TABLE
2
APPID
5
9
100
AcDbSymbolTable
70
2
0
APPID
5
12
100
AcDbSymbolTableRecord
100
AcDbRegAppTableRecord
2
ACAD
70
0
0
ENDTAB
0
TABLE
2
DIMSTYLE
5
A
100
AcDbSymbolTable
70
1
0
ENDTAB
0
TABLE
2
BLOCK_RECORD
5
1
100
AcDbSymbolTable
70
1
0
BLOCK_RECORD
5
1F
100
AcDbSymbolTableRecord
100
AcDbBlockTableRecord
2
*MODEL_SPACE
0
BLOCK_RECORD
5
1B
100
AcDbSymbolTableRecord
100
AcDbBlockTableRecord
2
*PAPER_SPACE
0
ENDTAB
0
ENDSEC
0
SECTION
2
BLOCKS
0
BLOCK
5
20
100
AcDbEntity
100
AcDbBlockBegin
2
*MODEL_SPACE
0
ENDBLK
5
21
100
AcDbEntity
100
AcDbBlockEnd
0
BLOCK
5
1C
100
AcDbEntity
100
AcDbBlockBegin
2
*PAPER_SPACE
0
ENDBLK
5
1D
100
AcDbEntity
100
AcDbBlockEnd
0
ENDSEC
0
SECTION
2
ENTITIES
0
LWPOLYLINE
5
100
100
AcDbEntity
8
0
100
AcDbPolyline
90
12
70
1
43
0.0
10
-202.62900000000002
20
45.670749999999991
10
-202.62900000000002
20
45.586999999999989
42
0.41421356237309503
10
-201.429
20
44.386999999999979
10
-59.843999999999923
20
44.387
42
0.41421356237309892
10
-55.843999999999909
20
48.386999999999993
10
-55.843999999999944
20
143.637
42
0.41421356237309503
10
-59.843999999999944
20
147.63700000000003
10
-250.34399999999994
20
147.63700000000003
42
0.41421356237309503
10
-254.34399999999997
20
143.637
10
-254.34399999999994
20
50.870749999999987
42
0.41421356237309503
10
-250.34399999999994
20
46.870750000000001
10
-203.82900000000004
20
46.870750000000008
42
-0.41421356237309725
0
LWPOLYLINE
5
101
100
AcDbEntity
8
0
100
AcDbPolyline
90
8
70
1
43
0.0
10
-120.01899999999995
20
69.962000000000003
42
0.41421356237310542
10
-119.51899999999995
20
70.462000000000003
10
-119.51899999999995
20
83.461999999999989
42
0.41421356237309503
10
-120.01899999999995
20
83.962000000000003
10
-133.01899999999995
20
83.962000000000003
42
0.41421356237310542
10
-133.51899999999995
20
83.461999999999989
10
-133.51899999999995
20
70.462000000000003
42
0.41421356237310542
10
-133.01899999999995
20
69.962000000000003
0
LWPOLYLINE
5
102
100
AcDbEntity
8
0
100
AcDbPolyline
90
8
70
1
43
0.0
10
-62.86899999999995
20
69.962000000000003
42
0.41421356237309503
10
-62.36899999999995
20
70.462000000000003
10
-62.36899999999995
20
83.461999999999989
42
0.41421356237308982
10
-62.86899999999995
20
83.962000000000003
10
-75.868999999999943
20
83.962000000000003
42
0.41421356237310542
10
-76.368999999999943
20
83.461999999999989
10
-76.368999999999943
20
70.462000000000003
42
0.41421356237310542
10
-75.868999999999943
20
69.962000000000003
0
LWPOLYLINE
5
103
100
AcDbEntity
8
0
100
AcDbPolyline
90
8
70
1
43
0.0
10
-172.40649999999994
20
127.11199999999998
42
0.4142135623730222
10
-171.90649999999999
20
127.61199999999999
10
-171.90649999999994
20
140.61199999999999
42
0.41421356237310542
10
-172.40649999999994
20
141.11199999999999
10
-185.40649999999997
20
141.11199999999999
42
0.41421356237313667
10
-185.90649999999997
20
140.61199999999999
10
-185.90649999999997
20
127.61199999999999
42
0.41421356237313667
10
-185.40649999999997
20
127.11199999999998
0
LWPOLYLINE
5
104
100
AcDbEntity
8
0
100
AcDbPolyline
90
8
70
1
43
0.0
10
-234.31899999999996
20
127.11199999999998
42
0.4142135623730534
10
-233.81899999999996
20
127.61199999999999
10
-233.81899999999996
20
140.61199999999999
42
0.41421356237313667
10
-234.31899999999996
20
141.11199999999999
10
-247.31899999999993
20
141.11199999999999
42
0.41421356237313667
10
-247.81899999999993
20
140.61199999999999
10
-247.81899999999993
20
127.61199999999999
42
0.41421356237313667
10
-247.31899999999993
20
127.11199999999998
0
LWPOLYLINE
5
105
100
AcDbEntity
8
0
100
AcDbPolyline
90
8
70
1
43
0.0
10
-215.26899999999998
20
108.06200000000001
42
0.4142135623730222
10
-214.76900000000001
20
108.56200000000001
10
-214.76899999999998
20
121.562
42
0.4142135623730846
10
-215.26899999999998
20
122.06199999999998
10
-228.26899999999995
20
122.06199999999998
42
0.41421356237304302
10
-228.76899999999995
20
121.562
10
-228.76899999999995
20
108.56200000000001
42
0.41421356237310542
10
-228.26899999999995
20
108.06200000000001
0
LWPOLYLINE
5
106
100
AcDbEntity
8
0
100
AcDbPolyline
90
8
70
1
43
0.0
10
-110.49399999999994
20
89.012
42
0.41421356237309503
10
-109.99399999999994
20
89.512
10
-109.99399999999994
20
102.512
42
0.41421356237309503
10
-110.49399999999994
20
103.01200000000001
10
-123.49399999999996
20
103.01200000000001
42
0.41421356237309503
10
-123.99399999999994
20
102.512
10
-123.99399999999997
20
89.512
42
0.41421356237309503
10
-123.49399999999996
20
89.012
0
LWPOLYLINE
5
107
100
AcDbEntity
8
0
100
AcDbPolyline
90
8
70
1
43
0.0
10
-100.96899999999994
20
127.11199999999998
42
0.41421356237309503
10
-100.46899999999994
20
127.61199999999999
10
-100.46899999999994
20
140.61199999999999
42
0.41421356237309503
10
-100.96899999999994
20
141.11199999999999
10
-113.96899999999995
20
141.11199999999999
42
0.41421356237309503
10
-114.46899999999997
20
140.61199999999999
10
-114.46899999999997
20
127.61199999999999
42
0.41421356237309503
10
-113.96899999999995
20
127.11199999999999
0
LWPOLYLINE
5
108
100
AcDbEntity
8
0
100
AcDbPolyline
90
8
70
1
43
0.0
10
-81.918999999999954
20
108.06200000000001
42
0.41421356237310542
10
-81.418999999999954
20
108.56200000000001
10
-81.418999999999954
20
121.562
42
0.41421356237309503
10
-81.918999999999954
20
122.06199999999998
10
-94.91899999999994
20
122.06199999999998
42
0.41421356237310542
10
-95.418999999999954
20
121.562
10
-95.418999999999954
20
108.56200000000001
42
0.41421356237309503
10
-94.91899999999994
20
108.06200000000001
0
LWPOLYLINE
5
109
100
AcDbEntity
8
0
100
AcDbPolyline
90
8
70
1
43
0.0
10
-247.81899999999993
20
70.462000000000003
42
0.41421356237313667
10
-247.31899999999993
20
69.962000000000003
10
-234.31899999999996
20
69.962000000000003
42
0.41421356237307422
10
-233.81899999999996
20
70.462000000000003
10
-233.81899999999996
20
83.461999999999989
42
0.41421356237313667
10
-234.31899999999996
20
83.962000000000003
10
-247.31899999999993
20
83.962000000000003
42
0.4142135623730534
10
-247.81899999999993
20
83.461999999999989
0
LWPOLYLINE
5
110
100
AcDbEntity
8
0
100
AcDbPolyline
90
8
70
1
43
0.0
10
-100.96899999999994
20
50.912000000000006
42
0.41421356237308982
10
-100.46899999999994
20
51.412000000000006
10
-100.46899999999994
20
64.412000000000006
42
0.41421356237310542
10
-100.96899999999994
20
64.912000000000006
10
-113.96899999999995
20
64.912000000000006
42
0.41421356237310542
10
-114.46899999999997
20
64.412000000000006
10
-114.46899999999997
20
51.412000000000006
42
0.41421356237308982
10
-113.96899999999995
20
50.912000000000006
0
LWPOLYLINE
5
111
100
AcDbEntity
8
0
100
AcDbPolyline
90
8
70
1
43
0.0
10
-158.11899999999994
20
108.06200000000001
42
0.41421356237309503
10
-157.61899999999994
20
108.56200000000001
10
-157.61899999999994
20
121.562
42
0.41421356237307422
10
-158.11899999999994
20
122.06200000000001
10
-171.11899999999994
20
122.06199999999998
42
0.41421356237307422
10
-171.61899999999997
20
121.562
10
-171.61899999999997
20
108.56200000000001
42
0.41421356237313667
10
-171.11899999999994
20
108.06200000000001
0
LWPOLYLINE
5
112
100
AcDbEntity
8
0
100
AcDbPolyline
90
8
70
1
43
0.0
10
-158.11899999999994
20
50.912000000000006
42
0.41421356237308982
10
-157.61899999999994
20
51.412000000000006
10
-157.61899999999994
20
64.412000000000006
42
0.41421356237310025
10
-158.11899999999994
20
64.912000000000006
10
-171.11899999999994
20
64.912000000000006
42
0.41421356237307422
10
-171.61899999999997
20
64.412000000000006
10
-171.61899999999997
20
51.412000000000006
42
0.41421356237313145
10
-171.11899999999994
20
50.911999999999999
0
LWPOLYLINE
5
113
100
AcDbEntity
8
0
100
AcDbPolyline
90
8
70
1
43
0.0
10
-148.59399999999994
20
89.012
42
0.41421356237309503
10
-148.09399999999994
20
89.512
10
-148.09399999999994
20
102.512
42
0.41421356237309503
10
-148.59399999999994
20
103.01200000000001
10
-161.59399999999994
20
103.01200000000001
42
0.4142135623730534
10
-162.09399999999994
20
102.512
10
-162.09399999999994
20
89.512
42
0.41421356237313667
10
-161.59399999999994
20
89.012
0
LWPOLYLINE
5
114
100
AcDbEntity
8
0
100
AcDbPolyline
90
8
70
1
43
0.0
10
-139.06899999999993
20
69.962000000000003
42
0.41421356237310542
10
-138.56899999999993
20
70.462000000000003
10
-138.56899999999993
20
83.461999999999989
42
0.41421356237309503
10
-139.06899999999993
20
83.962000000000003
10
-152.06899999999993
20
83.962000000000003
42
0.41421356237309503
10
-152.56899999999996
20
83.461999999999989
10
-152.56899999999996
20
70.462000000000003
42
0.41421356237310025
10
-152.06899999999993
20
69.962000000000003
0
LWPOLYLINE
5
115
100
AcDbEntity
8
0
100
AcDbPolyline
90
8
70
1
43
0.0
10
-62.36899999999995
20
121.562
10
-62.36899999999995
20
108.56200000000001
42
-0.41421356237308982
10
-62.86899999999995
20
108.06200000000001
10
-75.868999999999943
20
108.06200000000001
42
-0.41421356237310542
10
-76.368999999999943
20
108.56200000000001
10
-76.368999999999957
20
121.562
42
-0.41421356237310542
10
-75.868999999999943
20
122.06199999999998
10
-62.86899999999995
20
122.06200000000001
42
-0.414213562373069
0
LWPOLYLINE
5
116
100
AcDbEntity
8
0
100
AcDbPolyline
90
8
70
1
43
0.0
10
-234.31899999999996
20
50.912000000000006
42
0.41421356237307422
10
-233.8189999999999
20
51.412000000000006
10
-233.81899999999996
20
64.412000000000006
42
0.41421356237313667
10
-234.31899999999996
20
64.912000000000006
10
-247.31899999999993
20
64.912000000000006
42
0.41421356237307422
10
-247.81899999999993
20
64.412000000000006
10
-247.81899999999993
20
51.412000000000006
42
0.41421356237313145
10
-247.31899999999993
20
50.911999999999999
0
LWPOLYLINE
5
117
100
AcDbEntity
8
0
100
AcDbPolyline
90
8
70
1
43
0.0
10
-177.16899999999995
20
50.912000000000006
42
0.4142135623730222
10
-176.66899999999998
20
51.412000000000006
10
-176.66899999999995
20
64.412000000000006
42
0.41421356237312623
10
-177.16899999999995
20
64.912000000000006
10
-190.16899999999993
20
64.912000000000006
42
0.4142135623730222
10
-190.66899999999993
20
64.412000000000006
10
-190.66899999999993
20
51.412000000000006
42
0.41421356237312101
10
-190.16899999999993
20
50.912000000000006
0
LWPOLYLINE
5
118
100
AcDbEntity
8
0
100
AcDbPolyline
90
8
70
1
43
0.0
10
-196.21899999999997
20
108.06200000000001
42
0.4142135623730222
10
-195.71899999999999
20
108.56200000000001
10
-195.71899999999997
20
121.562
42
0.4142135623730846
10
-196.21899999999997
20
122.06200000000001
10
-209.21899999999994
20
122.06199999999998
42
0.41421356237304302
10
-209.71899999999994
20
121.562
10
-209.71899999999994
20
108.56200000000001
42
0.41421356237310542
10
-209.21899999999994
20
108.06200000000001
0
LWPOLYLINE
5
119
100
AcDbEntity
8
0
100
AcDbPolyline
90
8
70
1
43
0.0
10
-104.94399999999996
20
89.512
42
0.41421356237309503
10
-104.44399999999995
20
89.012
10
-91.443999999999932
20
89.012
42
0.41421356237309503
10
-90.943999999999946
20
89.512
10
-90.943999999999932
20
102.512
42
0.41421356237309503
10
-91.443999999999932
20
103.01200000000001
10
-104.44399999999995
20
103.01200000000001
42
0.41421356237309503
10
-104.94399999999996
20
102.512
0
LWPOLYLINE
5
120
100
AcDbEntity
8
0
100
AcDbPolyline
90
8
70
1
43
0.0
10
-177.16899999999995
20
108.06200000000001
42
0.4142135623730222
10
-176.66899999999998
20
108.56200000000001
10
-176.66899999999995
20
121.562
42
0.4142135623730846
10
-177.16899999999995
20
122.06200000000001
10
-190.16899999999993
20
122.06199999999998
42
0.41421356237304302
10
-190.66899999999993
20
121.562
10
-190.66899999999993
20
108.56200000000001
42
0.41421356237310542
10
-190.16899999999993
20
108.06200000000001
0
LWPOLYLINE
5
121
100
AcDbEntity
8
0
100
AcDbPolyline
90
8
70
1
43
0.0
10
-129.54399999999995
20
89.012
42
0.41421356237309503
10
-129.04399999999995
20
89.512
10
-129.04399999999995
20
102.512
42
0.41421356237309503
10
-129.54399999999995
20
103.01200000000001
10
-142.54399999999998
20
103.01200000000001
42
0.41421356237309503
10
-143.04399999999993
20
102.512
10
-143.04399999999998
20
89.512
42
0.41421356237309503
10
-142.54399999999998
20
89.012
0
LWPOLYLINE
5
122
100
AcDbEntity
8
0
100
AcDbPolyline
90
8
70
1
43
0.0
10
-186.69399999999996
20
89.012
42
0.4142135623730222
10
-186.19399999999999
20
89.512
10
-186.19399999999996
20
102.512
42
0.41421356237310542
10
-186.69399999999996
20
103.01200000000001
10
-199.69399999999993
20
103.01200000000001
42
0.4142135623730222
10
-200.19399999999993
20
102.512
10
-200.19399999999993
20
89.512
42
0.41421356237310542
10
-199.69399999999993
20
89.012
0
LWPOLYLINE
5
123
100
AcDbEntity
8
0
100
AcDbPolyline
90
8
70
1
43
0.0
10
-234.31899999999996
20
108.06200000000001
42
0.4142135623730534
10
-233.81899999999996
20
108.56200000000001
10
-233.81899999999996
20
121.562
42
0.41421356237309503
10
-234.31899999999996
20
122.06200000000001
10
-247.31899999999993
20
122.06199999999998
42
0.41421356237307422
10
-247.81899999999993
20
121.562
10
-247.81899999999993
20
108.56200000000001
42
0.41421356237313667
10
-247.31899999999993
20
108.06200000000001
0
LWPOLYLINE
5
124
100
AcDbEntity
8
0
100
AcDbPolyline
90
7
70
1
43
0.0
10
-62.36899999999995
20
50.912000000000006
10
-75.868999999999943
20
50.912000000000006
42
-0.41421356237309503
10
-76.368999999999943
20
51.412000000000006
10
-76.368999999999943
20
64.412000000000006
42
-0.41421356237310542
10
-75.868999999999943
20
64.912000000000006
10
-62.86899999999995
20
64.912000000000006
42
-0.41421356237309503
10
-62.36899999999995
20
64.412000000000006
0
LWPOLYLINE
5
125
100
AcDbEntity
8
0
100
AcDbPolyline
90
8
70
1
43
0.0
10
-224.79399999999995
20
89.012
42
0.4142135623730534
10
-224.29399999999993
20
89.512
10
-224.29399999999993
20
102.512
42
0.41421356237313667
10
-224.79399999999995
20
103.01200000000001
10
-237.79399999999993
20
103.01200000000001
42
0.4142135623730534
10
-238.29399999999993
20
102.512
10
-238.29399999999993
20
89.512
42
0.41421356237313667
10
-237.79399999999993
20
89.012
0
LWPOLYLINE
5
126
100
AcDbEntity
8
0
100
AcDbPolyline
90
8
70
1
43
0.0
10
-100.96899999999994
20
108.06200000000001
42
0.41421356237309503
10
-100.46899999999994
20
108.56200000000001
10
-100.46899999999994
20
121.562
42
0.41421356237310542
10
-100.96899999999994
20
122.06199999999998
10
-113.96899999999995
20
122.06199999999998
42
0.41421356237310542
10
-114.46899999999997
20
121.562
10
-114.46899999999997
20
108.56200000000001
42
0.41421356237309503
10
-113.96899999999995
20
108.06200000000001
0
LWPOLYLINE
5
127
100
AcDbEntity
8
0
100
AcDbPolyline
90
8
70
1
43
0.0
10
-215.26899999999998
20
50.912000000000006
42
0.4142135623730222
10
-214.76900000000001
20
51.412000000000006
10
-214.76899999999998
20
64.412000000000006
42
0.41421356237312623
10
-215.26899999999998
20
64.912000000000006
10
-228.26899999999995
20
64.912000000000006
42
0.4142135623730222
10
-228.76899999999995
20
64.412000000000006
10
-228.76899999999995
20
51.412000000000006
42
0.41421356237312101
10
-228.26899999999995
20
50.911999999999999
0
LWPOLYLINE
5
128
100
AcDbEntity
8
0
100
AcDbPolyline
90
8
70
1
43
0.0
10
-139.06899999999993
20
108.06200000000001
42
0.41421356237309503
10
-138.56899999999993
20
108.56200000000001
10
-138.56899999999993
20
121.562
42
0.41421356237310542
10
-139.06899999999993
20
122.06199999999998
10
-152.06899999999993
20
122.06199999999998
42
0.41421356237310542
10
-152.56899999999996
20
121.562
10
-152.56899999999996
20
108.56200000000001
42
0.41421356237309503
10
-152.06899999999993
20
108.06200000000001
0
LWPOLYLINE
5
129
100
AcDbEntity
8
0
100
AcDbPolyline
90
8
70
1
43
0.0
10
-119.51899999999995
20
121.562
10
-119.51899999999995
20
108.56200000000001
42
-0.41421356237309503
10
-120.01899999999995
20
108.06200000000001
10
-133.01899999999995
20
108.06200000000001
42
-0.41421356237310542
10
-133.51899999999995
20
108.56200000000001
10
-133.51899999999995
20
121.562
42
-0.41421356237309503
10
-133.01899999999995
20
122.06199999999998
10
-120.01899999999995
20
122.06199999999998
42
-0.41421356237310542
0
LWPOLYLINE
5
130
100
AcDbEntity
8
0
100
AcDbPolyline
90
8
70
1
43
0.0
10
-196.21899999999997
20
127.11199999999998
42
0.4142135623730222
10
-195.71899999999999
20
127.61199999999999
10
-195.71899999999997
20
140.61199999999999
42
0.41421356237310542
10
-196.21899999999997
20
141.11199999999999
10
-209.21899999999994
20
141.11199999999999
42
0.41421356237310542
10
-209.71899999999994
20
140.61199999999999
10
-209.71899999999994
20
127.61199999999999
42
0.41421356237310542
10
-209.21899999999994
20
127.11199999999999
0
LWPOLYLINE
5
131
100
AcDbEntity
8
0
100
AcDbPolyline
90
8
70
1
43
0.0
10
-196.21899999999997
20
69.962000000000003
42
0.4142135623730222
10
-195.71899999999999
20
70.462000000000003
10
-195.71899999999997
20
83.461999999999989
42
0.41421356237310542
10
-196.21899999999997
20
83.962000000000003
10
-209.21899999999994
20
83.962000000000003
42
0.4142135623730222
10
-209.71899999999994
20
83.461999999999989
10
-209.71899999999994
20
70.462000000000003
42
0.41421356237312623
10
-209.21899999999994
20
69.962000000000003
0
LWPOLYLINE
5
132
100
AcDbEntity
8
0
100
AcDbPolyline
90
8
70
1
43
0.0
10
-81.918999999999954
20
69.962000000000003
42
0.41421356237310542
10
-81.418999999999954
20
70.462000000000003
10
-81.418999999999954
20
83.461999999999989
42
0.41421356237310542
10
-81.918999999999954
20
83.962000000000003
10
-94.91899999999994
20
83.962000000000003
42
0.41421356237309503
10
-95.418999999999954
20
83.461999999999989
10
-95.418999999999954
20
70.462000000000003
42
0.41421356237310542
10
-94.91899999999994
20
69.962000000000003
0
LWPOLYLINE
5
133
100
AcDbEntity
8
0
100
AcDbPolyline
90
8
70
1
43
0.0
10
-81.918999999999954
20
127.11199999999998
42
0.41421356237310542
10
-81.418999999999954
20
127.61199999999999
10
-81.418999999999954
20
140.61199999999999
42
0.41421356237310542
10
-81.918999999999954
20
141.11199999999999
10
-94.91899999999994
20
141.11199999999999
42
0.41421356237309503
10
-95.418999999999954
20
140.61199999999999
10
-95.418999999999954
20
127.61199999999999
42
0.41421356237309503
10
-94.91899999999994
20
127.11199999999999
0
LWPOLYLINE
5
134
100
AcDbEntity
8
0
100
AcDbPolyline
90
8
70
1
43
0.0
10
-205.74399999999997
20
89.012
42
0.4142135623730222
10
-205.244
20
89.512
10
-205.24399999999997
20
102.512
42
0.41421356237310542
10
-205.74399999999997
20
103.01200000000001
10
-218.74399999999994
20
103.01200000000001
42
0.4142135623730222
10
-219.24399999999994
20
102.512
10
-219.24399999999994
20
89.512
42
0.41421356237310542
10
-218.74399999999994
20
89.012
0
LWPOLYLINE
5
135
100
AcDbEntity
8
0
100
AcDbPolyline
90
8
70
1
43
0.0
10
-167.64399999999995
20
89.012
42
0.4142135623730222
10
-167.14399999999998
20
89.512
10
-167.14399999999995
20
102.512
42
0.41421356237310542
10
-167.64399999999995
20
103.01200000000001
10
-180.64399999999995
20
103.01200000000001
42
0.4142135623730534
10
-181.14399999999992
20
102.512
10
-181.14399999999995
20
89.512
42
0.41421356237313667
10
-180.64399999999995
20
89.012
0
LWPOLYLINE
5
136
100
AcDbEntity
8
0
100
AcDbPolyline
90
8
70
1
43
0.0
10
-148.59399999999994
20
127.11199999999998
42
0.41421356237309503
10
-148.09399999999994
20
127.61199999999999
10
-148.09399999999994
20
140.61199999999999
42
0.41421356237309503
10
-148.59399999999994
20
141.11199999999999
10
-161.59399999999994
20
141.11199999999999
42
0.41421356237313667
10
-162.09399999999994
20
140.61199999999999
10
-162.09399999999994
20
127.61199999999999
42
0.41421356237313667
10
-161.59399999999994
20
127.11199999999998
0
LWPOLYLINE
5
137
100
AcDbEntity
8
0
100
AcDbPolyline
90
8
70
1
43
0.0
10
-72.393999999999949
20
89.012
42
0.41421356237310542
10
-71.893999999999949
20
89.512
10
-71.893999999999949
20
102.512
42
0.41421356237310542
10
-72.393999999999949
20
103.01200000000001
10
-85.393999999999949
20
103.01200000000001
42
0.41421356237310542
10
-85.893999999999949
20
102.512
10
-85.893999999999949
20
89.512
42
0.41421356237310542
10
-85.393999999999949
20
89.012
0
LWPOLYLINE
5
138
100
AcDbEntity
8
0
100
AcDbPolyline
90
8
70
1
43
0.0
10
-120.01899999999995
20
50.912000000000006
42
0.41421356237308982
10
-119.51899999999995
20
51.412000000000006
10
-119.51899999999995
20
64.412000000000006
42
0.41421356237310542
10
-120.01899999999995
20
64.912000000000006
10
-133.01899999999995
20
64.912000000000006
42
0.41421356237307422
10
-133.51899999999995
20
64.412000000000006
10
-133.51899999999995
20
51.412000000000006
42
0.41421356237310025
10
-133.01899999999995
20
50.912000000000006
0
LWPOLYLINE
5
139
100
AcDbEntity
8
0
100
AcDbPolyline
90
8
70
1
43
0.0
10
-62.86899999999995
20
127.11199999999998
42
0.41421356237308982
10
-62.36899999999995
20
127.61199999999999
10
-62.36899999999995
20
140.61199999999999
42
0.41421356237308982
10
-62.86899999999995
20
141.11199999999999
10
-75.868999999999943
20
141.11199999999999
42
0.41421356237310025
10
-76.368999999999957
20
140.61199999999999
10
-76.368999999999943
20
127.61199999999999
42
0.41421356237310542
10
-75.868999999999943
20
127.11199999999999
0
LWPOLYLINE
5
140
100
AcDbEntity
8
0
100
AcDbPolyline
90
8
70
1
43
0.0
10
-196.21899999999997
20
50.912000000000006
42
0.4142135623730222
10
-195.71899999999999
20
51.412000000000006
10
-195.71899999999997
20
64.412000000000006
42
0.41421356237312623
10
-196.21899999999997
20
64.912000000000006
10
-209.21899999999994
20
64.912000000000006
42
0.4142135623730222
10
-209.71899999999994
20
64.412000000000006
10
-209.71899999999994
20
51.412000000000006
42
0.41421356237312101
10
-209.21899999999994
20
50.911999999999999
0
LWPOLYLINE
5
141
100
AcDbEntity
8
0
100
AcDbPolyline
90
8
70
1
43
0.0
10
-124.78149999999997
20
127.11199999999998
42
0.41421356237309503
10
-124.28149999999995
20
127.61199999999999
10
-124.28149999999995
20
140.61199999999999
42
0.41421356237309503
10
-124.78149999999997
20
141.11199999999999
10
-137.78149999999994
20
141.11199999999999
42
0.41421356237307422
10
-138.28149999999997
20
140.61199999999999
10
-138.28149999999994
20
127.61199999999999
42
0.41421356237310542
10
-137.78149999999994
20
127.11199999999999
0
LWPOLYLINE
5
142
100
AcDbEntity
8
0
100
AcDbPolyline
90
8
70
1
43
0.0
10
-177.16899999999995
20
69.962000000000003
42
0.4142135623730222
10
-176.66899999999998
20
70.462000000000003
10
-176.66899999999995
20
83.461999999999989
42
0.41421356237310542
10
-177.16899999999995
20
83.962000000000003
10
-190.16899999999993
20
83.962000000000003
42
0.4142135623730222
10
-190.66899999999993
20
83.461999999999989
10
-190.66899999999993
20
70.462000000000003
42
0.41421356237312623
10
-190.16899999999993
20
69.962000000000003
0
LWPOLYLINE
5
143
100
AcDbEntity
8
0
100
AcDbPolyline
90
8
70
1
43
0.0
10
-215.26899999999998
20
127.11199999999998
42
0.4142135623730222
10
-214.76900000000001
20
127.61199999999999
10
-214.76899999999998
20
140.61199999999999
42
0.41421356237310542
10
-215.26899999999998
20
141.11199999999999
10
-228.26899999999995
20
141.11199999999999
42
0.41421356237310542
10
-228.76899999999995
20
140.61199999999999
10
-228.76899999999995
20
127.61199999999999
42
0.41421356237310542
10
-228.26899999999995
20
127.11199999999998
0
LWPOLYLINE
5
144
100
AcDbEntity
8
0
100
AcDbPolyline
90
8
70
1
43
0.0
10
-157.61899999999994
20
83.461999999999989
10
-157.61899999999994
20
70.462000000000003
42
-0.41421356237310542
10
-158.11899999999994
20
69.962000000000003
10
-171.11899999999994
20
69.962000000000003
42
-0.41421356237313667
10
-171.61899999999997
20
70.462000000000003
10
-171.61899999999997
20
83.461999999999989
42
-0.4142135623730534
10
-171.11899999999994
20
83.962000000000003
10
-158.11899999999994
20
83.962000000000003
42
-0.41421356237309503
0
LWPOLYLINE
5
145
100
AcDbEntity
8
0
100
AcDbPolyline
90
8
70
1
43
0.0
10
-100.96899999999994
20
69.962000000000003
42
0.41421356237310542
10
-100.46899999999994
20
70.462000000000003
10
-100.46899999999994
20
83.461999999999989
42
0.41421356237309503
10
-100.96899999999994
20
83.962000000000003
10
-113.96899999999995
20
83.962000000000003
42
0.41421356237309503
10
-114.46899999999997
20
83.461999999999989
10
-114.46899999999997
20
70.462000000000003
42
0.41421356237310542
10
-113.96899999999995
20
69.962000000000003
0
LWPOLYLINE
5
146
100
AcDbEntity
8
0
100
AcDbPolyline
90
8
70
1
43
0.0
10
-81.918999999999954
20
50.912000000000006
42
0.414213562373069
10
-81.41899999999994
20
51.412000000000006
10
-81.418999999999954
20
64.412000000000006
42
0.41421356237310542
10
-81.918999999999954
20
64.912000000000006
10
-94.91899999999994
20
64.912000000000006
42
0.41421356237310542
10
-95.418999999999954
20
64.412000000000006
10
-95.418999999999954
20
51.412000000000006
42
0.41421356237308982
10
-94.91899999999994
20
50.912000000000006
0
LWPOLYLINE
5
147
100
AcDbEntity
8
0
100
AcDbPolyline
90
8
70
1
43
0.0
10
-215.26899999999998
20
69.962000000000003
42
0.4142135623730222
10
-214.76900000000001
20
70.462000000000003
10
-214.76899999999998
20
83.461999999999989
42
0.41421356237310542
10
-215.26899999999998
20
83.962000000000003
10
-228.26899999999995
20
83.962000000000003
42
0.4142135623730222
10
-228.76899999999995
20
83.461999999999989
10
-228.76899999999995
20
70.462000000000003
42
0.41421356237312623
10
-228.26899999999995
20
69.962000000000003
0
LWPOLYLINE
5
148
100
AcDbEntity
8
0
100
AcDbPolyline
90
8
70
1
43
0.0
10
-139.06899999999993
20
50.912000000000006
42
0.41421356237308982
10
-138.56899999999993
20
51.412000000000006
10
-138.56899999999993
20
64.412000000000006
42
0.41421356237310542
10
-139.06899999999993
20
64.912000000000006
10
-152.06899999999993
20
64.912000000000006
42
0.41421356237310542
10
-152.56899999999996
20
64.412000000000006
10
-152.56899999999996
20
51.412000000000006
42
0.41421356237309503
10
-152.06899999999993
20
50.911999999999999
0
ENDSEC
0
SECTION
2
OBJECTS
0
DICTIONARY
5
C
100
AcDbDictionary
3
ACAD_GROUP
350
D
3
ACAD_MLINESTYLE
350
17
0
DICTIONARY
5
D
100
AcDbDictionary
0
DICTIONARY
5
1A
330
C
100
AcDbDictionary
0
DICTIONARY
5
17
100
AcDbDictionary
0
ENDSEC
0
EOF
