0
SECTION
2
HEADER
9
$INSUNITS
70
4
9
$ACADVER
1
AC1014
9
$HANDSEED
5
FFFF
0
ENDSEC
0
SECTION
2
TABLES
0
TABLE
2
VPORT
5
8
100
AcDbSymbolTable
0
ENDTAB
0
TABLE
2
LTYPE
5
5
100
AcDbSymbolTable
0
LTYPE
5
14
100
AcDbSymbolTableRecord
100
AcDbLinetypeTableRecord
2
BYBLOCK
70
0
0
LTYPE
5
15
100
AcDbSymbolTableRecord
100
AcDbLinetypeTableRecord
2
BYLAYER
70
0
0
LTYPE
5
16
100
AcDbSymbolTableRecord
100
AcDbLinetypeTableRecord
2
DASHED
70
0
3
Dashed __ __ __ __ __ __ __ __ __ __ __ __ __ _
72
65
73
2
40
0.75
49
0.5
74
0
49
-0.25
74
0
0
ENDTAB
0
TABLE
2
LAYER
5
2
100
AcDbSymbolTable
70
3
0
LAYER
5
50
100
AcDbSymbolTableRecord
100
AcDbLayerTableRecord
2
1
70
0
62
7
6
DASHED
0
LAYER
5
51
100
AcDbSymbolTableRecord
100
AcDbLayerTableRecord
2
0
70
0
62
7
6
CONTINUOUS
0
ENDTAB
0
TABLE
2
STYLE
5
3
100
AcDbSymbolTable
70
1
0
STYLE
5
11
100
AcDbSymbolTableRecord
100
AcDbTextStyleTableRecord
2
STANDARD
70
0
0
ENDTAB
0
TABLE
2
VIEW
5
6
100
AcDbSymbolTable
70
0
0
ENDTAB
0
TABLE
2
UCS
5
7
100
AcDbSymbolTable
70
0
0
ENDTAB
0
TABLE
2
APPID
5
9
100
AcDbSymbolTable
70
2
0
APPID
5
12
100
AcDbSymbolTableRecord
100
AcDbRegAppTableRecord
2
ACAD
70
0
0
ENDTAB
0
TABLE
2
DIMSTYLE
5
A
100
AcDbSymbolTable
70
1
0
ENDTAB
0
TABLE
2
BLOCK_RECORD
5
1
100
AcDbSymbolTable
70
1
0
BLOCK_RECORD
5
1F
100
AcDbSymbolTableRecord
100
AcDbBlockTableRecord
2
*MODEL_SPACE
0
BLOCK_RECORD
5
1B
100
AcDbSymbolTableRecord
100
AcDbBlockTableRecord
2
*PAPER_SPACE
0
ENDTAB
0
ENDSEC
0
SECTION
2
BLOCKS
0
BLOCK
5
20
100
AcDbEntity
100
AcDbBlockBegin
2
*MODEL_SPACE
0
ENDBLK
5
21
100
AcDbEntity
100
AcDbBlockEnd
0
BLOCK
5
1C
100
AcDbEntity
100
AcDbBlockBegin
2
*PAPER_SPACE
0
ENDBLK
5
1D
100
AcDbEntity
100
AcDbBlockEnd
0
ENDSEC
0
SECTION
2
ENTITIES
0
LWPOLYLINE
5
100
100
AcDbEntity
8
0
100
AcDbPolyline
90
8
70
1
43
0.0
10
-112.09135608550358
20
100.65545728199081
42
0.41421356237325113
10
-111.99135608550358
20
100.55545728199081
10
-98.191356085503571
20
100.55545728199078
42
0.41421356237309503
10
-98.091356085503563
20
100.65545728199078
10
-98.091356085503577
20
114.45545728199079
42
0.41421356237319906
10
-98.191356085503571
20
114.55545728199078
10
-111.99135608550358
20
114.55545728199078
42
0.41421356237335516
10
-112.09135608550361
20
114.4554572819908
0
LWPOLYLINE
5
101
100
AcDbEntity
8
0
100
AcDbPolyline
90
8
70
1
43
0.0
10
-178.76635608550362
20
81.605457281990795
42
0.41421356237278284
10
-178.66635608550359
20
81.5054572819908
10
-164.86635608550361
20
81.505457281990786
42
0.41421356237325113
10
-164.76635608550362
20
81.605457281990795
10
-164.76635608550362
20
95.405457281990792
42
0.41421356237299095
10
-164.86635608550358
20
95.5054572819908
10
-178.66635608550359
20
95.5054572819908
42
0.41421356237273083
10
-178.76635608550367
20
95.405457281990792
0
LWPOLYLINE
5
102
100
AcDbEntity
8
0
100
AcDbPolyline
90
8
70
1
43
0.0
10
-207.34135608550363
20
100.65545728199081
42
0.41421356237278284
10
-207.24135608550364
20
100.55545728199081
10
-193.4413560855036
20
100.55545728199081
42
0.41421356237299095
10
-193.34135608550361
20
100.65545728199082
10
-193.34135608550358
20
114.45545728199082
42
0.41421356237278284
10
-193.4413560855036
20
114.55545728199083
10
-207.24135608550364
20
114.55545728199083
42
0.41421356237288692
10
-207.34135608550363
20
114.4554572819908
0
LWPOLYLINE
5
103
100
AcDbEntity
8
0
100
AcDbPolyline
90
8
70
1
43
0.0
10
-226.39135608550365
20
100.65545728199082
42
0.41421356237314705
10
-226.29135608550365
20
100.55545728199078
10
-212.49135608550364
20
100.55545728199081
42
0.41421356237304302
10
-212.39135608550362
20
100.65545728199082
10
-212.39135608550362
20
114.45545728199082
42
0.41421356237299095
10
-212.49135608550364
20
114.55545728199081
10
-226.29135608550365
20
114.55545728199083
42
0.41421356237278284
10
-226.39135608550365
20
114.45545728199082
0
LWPOLYLINE
5
104
100
AcDbEntity
8
0
100
AcDbPolyline
90
8
70
1
43
0.0
10
-150.1913560855036
20
62.555457281990776
42
0.41421356237304302
10
-150.09135608550361
20
62.455457281990775
10
-136.29135608550359
20
62.455457281990775
42
0.41421356237309503
10
-136.1913560855036
20
62.555457281990776
10
-136.1913560855036
20
76.35545728199078
42
0.41421356237304302
10
-136.29135608550359
20
76.455457281990789
10
-150.09135608550361
20
76.455457281990789
42
0.41421356237309503
10
-150.1913560855036
20
76.35545728199078
0
LWPOLYLINE
5
105
100
AcDbEntity
8
0
100
AcDbPolyline
90
8
70
1
43
0.0
10
-93.041356085503566
20
100.65545728199081
42
0.41421356237325113
10
-92.941356085503571
20
100.55545728199081
10
-79.14135608550356
20
100.55545728199078
42
0.41421356237319906
10
-79.041356085503566
20
100.65545728199075
10
-79.041356085503566
20
114.45545728199079
42
0.41421356237317308
10
-79.14135608550356
20
114.55545728199077
10
-92.941356085503571
20
114.55545728199078
42
0.41421356237335516
10
-93.041356085503594
20
114.4554572819908
0
LWPOLYLINE
5
106
100
AcDbEntity
8
0
100
AcDbPolyline
90
8
70
1
43
0.0
10
-159.71635608550363
20
81.605457281990795
42
0.41421356237335516
10
-159.61635608550358
20
81.505457281990772
10
-145.81635608550357
20
81.505457281990786
42
0.41421356237319906
10
-145.71635608550358
20
81.605457281990795
10
-145.71635608550358
20
95.405457281990792
42
0.41421356237325113
10
-145.8163560855036
20
95.505457281990815
10
-159.61635608550364
20
95.5054572819908
42
0.41421356237325113
10
-159.71635608550361
20
95.405457281990792
0
LWPOLYLINE
5
107
100
AcDbEntity
8
0
100
AcDbPolyline
90
8
70
1
43
0.0
10
-73.991356085503554
20
100.65545728199078
42
0.41421356237317308
10
-73.89135608550356
20
100.55545728199078
10
-60.091356085503556
20
100.55545728199078
42
0.41421356237312101
10
-59.991356085503568
20
100.65545728199076
10
-59.991356085503554
20
114.45545728199079
42
0.41421356237309503
10
-60.091356085503556
20
114.55545728199078
10
-73.89135608550356
20
114.55545728199078
42
0.41421356237309503
10
-73.991356085503554
20
114.45545728199079
0
LWPOLYLINE
5
108
100
AcDbEntity
8
0
100
AcDbPolyline
90
8
70
1
43
0.0
10
-83.253856085503571
20
81.605457281990766
42
0.41421356237314705
10
-83.153856085503577
20
81.505457281990758
10
-64.853856085503566
20
81.505457281990772
42
0.41421356237312101
10
-64.753856085503571
20
81.605457281990752
10
-64.753856085503557
20
95.405457281990778
42
0.41421356237314705
10
-64.853856085503566
20
95.505457281990772
10
-83.153856085503577
20
95.505457281990772
42
0.41421356237319906
10
-83.253856085503571
20
95.405457281990778
0
LWPOLYLINE
5
109
100
AcDbEntity
8
0
100
AcDbPolyline
90
8
70
1
43
0.0
10
-245.44135608550366
20
62.555457281990797
42
0.41421356237314705
10
-245.34135608550366
20
62.455457281990761
10
-231.54135608550362
20
62.455457281990796
42
0.41421356237299095
10
-231.44135608550357
20
62.555457281990797
10
-231.4413560855036
20
76.355457281990795
42
0.41421356237314705
10
-231.54135608550362
20
76.455457281990832
10
-245.34135608550366
20
76.455457281990803
42
0.41421356237299095
10
-245.44135608550368
20
76.355457281990795
0
LWPOLYLINE
5
110
100
AcDbEntity
8
0
100
AcDbPolyline
90
8
70
1
43
0.0
10
-188.29135608550362
20
62.555457281990783
42
0.41421356237278284
10
-188.19135608550363
20
62.455457281990803
10
-174.39135608550362
20
62.455457281990789
42
0.41421356237299095
10
-174.29135608550359
20
62.555457281990776
10
-174.29135608550359
20
76.35545728199078
42
0.41421356237299095
10
-174.39135608550362
20
76.455457281990775
10
-188.19135608550363
20
76.455457281990789
42
0.41421356237299095
10
-188.29135608550365
20
76.355457281990795
0
LWPOLYLINE
5
111
100
AcDbEntity
8
0
100
AcDbPolyline
90
8
70
1
43
0.0
10
-61.753856085503557
20
81.605457281990766
42
0.41421356237317308
10
-61.653856085503556
20
81.505457281990772
10
-60.353856085503558
20
81.505457281990772
42
0.41421356237319906
10
-60.253856085503571
20
81.605457281990738
10
-60.253856085503557
20
95.405457281990778
42
0.41421356237314705
10
-60.353856085503558
20
95.505457281990758
10
-61.653856085503556
20
95.505457281990772
42
0.41421356237309503
10
-61.753856085503557
20
95.405457281990778
0
LWPOLYLINE
5
112
100
AcDbEntity
8
0
100
AcDbPolyline
90
8
70
1
43
0.0
10
-241.94135608550366
20
120.70545728199082
42
0.41421356237309503
10
-241.84135608550363
20
120.60545728199081
10
-235.04135608550365
20
120.60545728199082
42
0.41421356237278284
10
-234.94135608550363
20
120.70545728199082
10
-234.94135608550363
20
135.50545728199083
42
0.41421356237309503
10
-235.04135608550365
20
135.60545728199085
10
-241.84135608550363
20
135.60545728199082
42
0.41421356237278284
10
-241.94135608550366
20
135.50545728199083
0
LWPOLYLINE
5
113
100
AcDbEntity
8
0
100
AcDbPolyline
90
8
70
1
43
0.0
10
-245.17885608550364
20
81.605457281990809
42
0.41421356237335516
10
-245.07885608550367
20
81.5054572819908
10
-243.77885608550366
20
81.5054572819908
42
0.41421356237273083
10
-243.67885608550358
20
81.605457281990809
10
-243.67885608550364
20
95.405457281990806
42
0.41421356237309503
10
-243.77885608550366
20
95.505457281990829
10
-245.07885608550365
20
95.505457281990815
42
0.41421356237325113
10
-245.17885608550364
20
95.405457281990806
0
LWPOLYLINE
5
114
100
AcDbEntity
8
0
100
AcDbPolyline
90
8
70
1
43
0.0
10
-188.29135608550362
20
100.65545728199081
42
0.41421356237278284
10
-188.19135608550363
20
100.55545728199081
10
-174.39135608550362
20
100.55545728199081
42
0.41421356237304302
10
-174.29135608550359
20
100.65545728199082
10
-174.29135608550359
20
114.45545728199082
42
0.41421356237299095
10
-174.39135608550362
20
114.55545728199081
10
-188.19135608550363
20
114.55545728199083
42
0.41421356237288692
10
-188.29135608550362
20
114.4554572819908
0
LWPOLYLINE
5
115
100
AcDbEntity
8
0
100
AcDbPolyline
90
8
70
1
43
0.0
10
-102.56635608550356
20
81.605457281990766
42
0.41421356237335516
10
-102.46635608550358
20
81.505457281990772
10
-88.666356085503566
20
81.505457281990772
42
0.41421356237325113
10
-88.5663560855036
20
81.605457281990766
10
-88.566356085503571
20
95.405457281990778
42
0.41421356237304302
10
-88.666356085503551
20
95.505457281990772
10
-102.46635608550356
20
95.505457281990772
42
0.41421356237304302
10
-102.56635608550356
20
95.405457281990792
0
LWPOLYLINE
5
116
100
AcDbEntity
8
0
100
AcDbPolyline
90
8
70
1
43
0.0
10
-207.34135608550363
20
62.555457281990783
42
0.41421356237278284
10
-207.24135608550364
20
62.455457281990803
10
-193.4413560855036
20
62.455457281990789
42
0.41421356237299095
10
-193.34135608550355
20
62.555457281990783
10
-193.34135608550358
20
76.355457281990795
42
0.41421356237278284
10
-193.4413560855036
20
76.455457281990761
10
-207.24135608550364
20
76.455457281990789
42
0.41421356237299095
10
-207.34135608550366
20
76.355457281990795
0
LWPOLYLINE
5
117
100
AcDbEntity
8
0
100
AcDbPolyline
90
8
70
1
43
0.0
10
-73.991356085503554
20
119.70545728199077
42
0.41421356237309503
10
-73.89135608550356
20
119.60545728199078
10
-60.091356085503556
20
119.60545728199079
42
0.41421356237301699
10
-59.991356085503575
20
119.70545728199079
10
-59.991356085503554
20
133.50545728199077
42
0.41421356237319906
10
-60.091356085503548
20
133.60545728199079
10
-73.89135608550356
20
133.60545728199079
42
0.41421356237327711
10
-73.991356085503568
20
133.50545728199077
0
LWPOLYLINE
5
118
100
AcDbEntity
8
0
100
AcDbPolyline
90
8
70
1
43
0.0
10
-93.041356085503566
20
62.555457281990769
42
0.41421356237319906
10
-92.941356085503614
20
62.455457281990768
10
-79.14135608550356
20
62.455457281990768
42
0.41421356237304302
10
-79.04135608550358
20
62.555457281990755
10
-79.041356085503566
20
76.355457281990766
42
0.41421356237304302
10
-79.14135608550356
20
76.455457281990761
10
-92.941356085503571
20
76.455457281990761
42
0.41421356237327711
10
-93.041356085503566
20
76.35545728199078
0
LWPOLYLINE
5
119
100
AcDbEntity
8
0
100
AcDbPolyline
90
8
70
1
43
0.0
10
-240.67885608550367
20
81.605457281990809
42
0.41421356237314705
10
-240.57885608550365
20
81.505457281990772
10
-222.27885608550363
20
81.5054572819908
42
0.41421356237304302
10
-222.17885608550361
20
81.605457281990809
10
-222.17885608550361
20
95.405457281990806
42
0.41421356237309503
10
-222.27885608550361
20
95.505457281990815
10
-240.57885608550365
20
95.505457281990815
42
0.41421356237278284
10
-240.67885608550367
20
95.405457281990806
0
LWPOLYLINE
5
120
100
AcDbEntity
8
0
100
AcDbPolyline
90
8
70
1
43
0.0
10
-112.09135608550358
20
62.555457281990769
42
0.41421356237319906
10
-111.99135608550363
20
62.455457281990768
10
-98.191356085503571
20
62.455457281990768
42
0.41421356237314705
10
-98.091356085503605
20
62.555457281990769
10
-98.091356085503577
20
76.35545728199078
42
0.414213562373069
10
-98.191356085503571
20
76.455457281990789
10
-111.99135608550358
20
76.455457281990775
42
0.41421356237330315
10
-112.09135608550358
20
76.35545728199078
0
LWPOLYLINE
5
121
100
AcDbEntity
8
0
100
AcDbPolyline
90
8
70
1
43
0.0
10
-121.61635608550357
20
81.605457281990795
42
0.41421356237304302
10
-121.51635608550359
20
81.505457281990786
10
-107.71635608550358
20
81.505457281990772
42
0.41421356237325113
10
-107.61635608550361
20
81.605457281990766
10
-107.61635608550358
20
95.405457281990778
42
0.41421356237304302
10
-107.71635608550356
20
95.505457281990772
10
-121.51635608550357
20
95.5054572819908
42
0.41421356237325113
10
-121.61635608550355
20
95.405457281990792
0
LWPOLYLINE
5
122
100
AcDbEntity
8
0
100
AcDbPolyline
90
8
70
1
43
0.0
10
-226.39135608550365
20
62.555457281990797
42
0.41421356237314705
10
-226.29135608550365
20
62.455457281990761
10
-212.49135608550364
20
62.455457281990796
42
0.41421356237301699
10
-212.39135608550362
20
62.555457281990783
10
-212.39135608550362
20
76.355457281990795
42
0.41421356237301699
10
-212.49135608550364
20
76.455457281990789
10
-226.29135608550365
20
76.455457281990803
42
0.41421356237299095
10
-226.39135608550367
20
76.355457281990795
0
LWPOLYLINE
5
123
100
AcDbEntity
8
0
100
AcDbPolyline
90
8
70
1
43
0.0
10
-112.09135608550358
20
119.70545728199079
42
0.41421356237330315
10
-111.99135608550358
20
119.60545728199079
10
-98.191356085503571
20
119.60545728199079
42
0.41421356237325113
10
-98.091356085503605
20
119.70545728199079
10
-98.091356085503577
20
133.5054572819908
42
0.41421356237319906
10
-98.191356085503571
20
133.60545728199079
10
-111.99135608550358
20
133.60545728199079
42
0.41421356237314705
10
-112.09135608550361
20
133.5054572819908
0
LWPOLYLINE
5
124
100
AcDbEntity
8
0
100
AcDbPolyline
90
8
70
1
43
0.0
10
-146.69135608550357
20
120.7054572819908
42
0.41421356237314705
10
-146.59135608550358
20
120.60545728199079
10
-139.79135608550359
20
120.60545728199081
42
0.41421356237319906
10
-139.6913560855036
20
120.70545728199082
10
-139.69135608550357
20
135.50545728199083
42
0.41421356237319906
10
-139.79135608550359
20
135.60545728199082
10
-146.59135608550358
20
135.60545728199082
42
0.41421356237314705
10
-146.69135608550357
20
135.5054572819908
0
LWPOLYLINE
5
125
100
AcDbEntity
8
0
100
AcDbPolyline
90
8
70
1
43
0.0
10
-150.1913560855036
20
100.65545728199081
42
0.41421356237304302
10
-150.09135608550361
20
100.5554572819908
10
-136.29135608550359
20
100.5554572819908
42
0.41421356237319906
10
-136.1913560855036
20
100.65545728199081
10
-136.1913560855036
20
114.4554572819908
42
0.41421356237335516
10
-136.29135608550359
20
114.55545728199083
10
-150.09135608550361
20
114.55545728199081
42
0.41421356237325113
10
-150.19135608550357
20
114.4554572819908
0
LWPOLYLINE
5
126
100
AcDbEntity
8
0
100
AcDbPolyline
90
8
70
1
43
0.0
10
-140.66635608550359
20
81.605457281990795
42
0.41421356237319906
10
-140.56635608550357
20
81.505457281990786
10
-126.76635608550357
20
81.505457281990786
42
0.41421356237314705
10
-126.66635608550357
20
81.605457281990795
10
-126.66635608550358
20
95.405457281990792
42
0.41421356237330315
10
-126.76635608550357
20
95.5054572819908
10
-140.56635608550357
20
95.5054572819908
42
0.41421356237325113
10
-140.66635608550357
20
95.405457281990792
0
LWPOLYLINE
5
127
100
AcDbEntity
8
0
100
AcDbPolyline
90
8
70
1
43
0.0
10
-245.44135608550366
20
100.65545728199082
42
0.41421356237314705
10
-245.34135608550366
20
100.55545728199078
10
-231.54135608550362
20
100.55545728199081
42
0.41421356237273083
10
-231.44135608550357
20
100.65545728199082
10
-231.4413560855036
20
114.45545728199082
42
0.41421356237309503
10
-231.54135608550362
20
114.55545728199084
10
-245.34135608550366
20
114.55545728199083
42
0.41421356237278284
10
-245.44135608550366
20
114.45545728199082
0
LWPOLYLINE
5
128
100
AcDbEntity
8
0
100
AcDbPolyline
90
8
70
1
43
0.0
10
-169.24135608550361
20
62.555457281990776
42
0.41421356237291296
10
-169.14135608550362
20
62.455457281990824
10
-155.34135608550361
20
62.455457281990775
42
0.41421356237309503
10
-155.24135608550361
20
62.555457281990776
10
-155.24135608550361
20
76.35545728199078
42
0.41421356237309503
10
-155.34135608550361
20
76.455457281990789
10
-169.14135608550362
20
76.455457281990789
42
0.41421356237299095
10
-169.24135608550364
20
76.355457281990795
0
LWPOLYLINE
5
129
100
AcDbEntity
8
0
100
AcDbPolyline
90
8
70
1
43
0.0
10
-169.24135608550361
20
100.65545728199081
42
0.41421356237278284
10
-169.14135608550362
20
100.55545728199081
10
-155.34135608550361
20
100.5554572819908
42
0.41421356237319906
10
-155.24135608550361
20
100.65545728199081
10
-155.24135608550361
20
114.4554572819908
42
0.41421356237314705
10
-155.34135608550361
20
114.55545728199083
10
-169.14135608550362
20
114.55545728199081
42
0.41421356237273083
10
-169.24135608550364
20
114.4554572819908
0
LWPOLYLINE
5
130
100
AcDbEntity
8
0
100
AcDbPolyline
90
8
70
1
43
0.0
10
-73.991356085503554
20
62.555457281990755
42
0.41421356237304302
10
-73.89135608550356
20
62.455457281990761
10
-60.091356085503556
20
62.455457281990761
42
0.41421356237304302
10
-59.991356085503554
20
62.555457281990755
10
-59.991356085503554
20
76.355457281990766
42
0.41421356237304302
10
-60.091356085503556
20
76.455457281990761
10
-73.89135608550356
20
76.455457281990761
42
0.41421356237304302
10
-73.991356085503554
20
76.355457281990766
0
LWPOLYLINE
5
131
100
AcDbEntity
8
0
100
AcDbPolyline
90
8
70
1
43
0.0
10
-216.76635608550362
20
95.505457281990815
42
0.41421356237278284
10
-216.8663560855037
20
95.405457281990806
10
-216.86635608550364
20
81.605457281990795
42
0.41421356237283491
10
-216.7663560855037
20
81.505457281990786
10
-202.96635608550363
20
81.505457281990786
42
0.41421356237325113
10
-202.86635608550364
20
81.605457281990795
10
-202.86635608550364
20
95.405457281990806
42
0.41421356237293894
10
-202.96635608550361
20
95.5054572819908
0
LWPOLYLINE
5
132
100
AcDbEntity
8
0
100
AcDbPolyline
90
8
70
1
43
0.0
10
-197.81635608550363
20
119.70545728199082
42
0.41421356237278284
10
-197.71635608550361
20
119.60545728199082
10
-173.91635608550362
20
119.60545728199081
42
0.41421356237330315
10
-173.81635608550363
20
119.70545728199083
10
-173.81635608550357
20
133.50545728199083
42
0.41421356237278284
10
-173.91635608550359
20
133.60545728199082
10
-197.71635608550361
20
133.60545728199082
42
0.41421356237288692
10
-197.81635608550363
20
133.50545728199083
0
LWPOLYLINE
5
133
100
AcDbEntity
8
0
100
AcDbPolyline
90
8
70
1
43
0.0
10
-93.041356085503566
20
119.70545728199079
42
0.41421356237330315
10
-92.941356085503571
20
119.60545728199079
10
-79.14135608550356
20
119.60545728199079
42
0.41421356237330315
10
-79.041356085503566
20
119.70545728199079
10
-79.041356085503566
20
133.5054572819908
42
0.41421356237317308
10
-79.14135608550356
20
133.60545728199077
10
-92.941356085503571
20
133.60545728199079
42
0.41421356237314705
10
-93.041356085503594
20
133.5054572819908
0
LWPOLYLINE
5
134
100
AcDbEntity
8
0
100
AcDbPolyline
90
8
70
1
43
0.0
10
-131.14135608550359
20
62.555457281990776
42
0.41421356237312101
10
-131.04135608550362
20
62.455457281990789
10
-117.24135608550358
20
62.455457281990768
42
0.41421356237314705
10
-117.14135608550362
20
62.555457281990769
10
-117.14135608550359
20
76.35545728199078
42
0.414213562373069
10
-117.24135608550358
20
76.455457281990789
10
-131.04135608550359
20
76.455457281990775
42
0.41421356237325113
10
-131.14135608550359
20
76.35545728199078
0
LWPOLYLINE
5
135
100
AcDbEntity
8
0
100
AcDbPolyline
90
8
70
1
43
0.0
10
-197.81635608550363
20
81.605457281990795
42
0.41421356237278284
10
-197.71635608550361
20
81.5054572819908
10
-183.91635608550362
20
81.5054572819908
42
0.41421356237304302
10
-183.81635608550363
20
81.605457281990809
10
-183.81635608550363
20
95.405457281990806
42
0.41421356237299095
10
-183.91635608550362
20
95.5054572819908
10
-197.71635608550361
20
95.505457281990815
42
0.41421356237288692
10
-197.81635608550363
20
95.405457281990792
0
LWPOLYLINE
5
136
100
AcDbEntity
8
0
100
AcDbPolyline
90
8
70
1
43
0.0
10
-131.14135608550359
20
119.70545728199082
42
0.41421356237325113
10
-131.04135608550359
20
119.60545728199082
10
-117.24135608550358
20
119.60545728199079
42
0.41421356237325113
10
-117.14135608550362
20
119.70545728199079
10
-117.14135608550359
20
133.5054572819908
42
0.41421356237319906
10
-117.24135608550358
20
133.60545728199079
10
-131.04135608550359
20
133.60545728199082
42
0.41421356237330315
10
-131.14135608550359
20
133.50545728199083
0
LWPOLYLINE
5
137
100
AcDbEntity
8
0
100
AcDbPolyline
90
8
70
1
43
0.0
10
-131.14135608550359
20
100.65545728199081
42
0.41421356237325113
10
-131.04135608550359
20
100.55545728199081
10
-117.24135608550358
20
100.55545728199078
42
0.41421356237309503
10
-117.14135608550357
20
100.65545728199078
10
-117.14135608550359
20
114.45545728199079
42
0.41421356237319906
10
-117.24135608550358
20
114.55545728199078
10
-131.04135608550359
20
114.55545728199081
42
0.41421356237330315
10
-131.14135608550359
20
114.4554572819908
0
LWPOLYLINE
5
138
100
AcDbEntity
8
0
100
AcDbPolyline
90
11
70
1
43
0.0
10
-60.02651285068869
20
56.968526925950471
42
0.40107692201942363
10
-54.442067278352269
20
62.824701763990795
10
-54.44206676362225
20
137.13989006825247
10
-54.445847085697508
20
137.39030051660802
42
0.40107692202761297
10
-60.302021923738103
20
142.97474608911722
10
-245.10721022800143
20
142.97474660387223
10
-245.35762067558622
20
142.97096628180864
42
0.40107692206501272
10
-250.9420662488873
20
137.11479144376943
10
-250.94206676362313
20
62.822246603872216
42
0.41421375646059821
10
-245.08456542747467
20
56.964746603871788
10
-60.276923299241432
20
56.964746603872229
0
ENDSEC
0
SECTION
2
OBJECTS
0
DICTIONARY
5
C
100
AcDbDictionary
3
ACAD_GROUP
350
D
3
ACAD_MLINESTYLE
350
17
0
DICTIONARY
5
D
100
AcDbDictionary
0
DICTIONARY
5
1A
330
C
100
AcDbDictionary
0
DICTIONARY
5
17
100
AcDbDictionary
0
ENDSEC
0
EOF
