%TF.GenerationSoftware,KiCad,Pcbnew,8.0.6*%
%TF.CreationDate,2024-11-21T10:17:36-07:00*%
%TF.ProjectId,newk-tabesque48,6e65776b-2d74-4616-9265-737175653438,rev?*%
%TF.SameCoordinates,Original*%
%TF.FileFunction,Copper,L1,Top*%
%TF.FilePolarity,Positive*%
%FSLAX46Y46*%
G04 Gerber Fmt 4.6, Leading zero omitted, Abs format (unit mm)*
G04 Created by KiCad (PCBNEW 8.0.6) date 2024-11-21 10:17:36*
%MOMM*%
%LPD*%
G01*
G04 APERTURE LIST*
G04 Aperture macros list*
%AMRoundRect*
0 Rectangle with rounded corners*
0 $1 Rounding radius*
0 $2 $3 $4 $5 $6 $7 $8 $9 X,Y pos of 4 corners*
0 Add a 4 corners polygon primitive as box body*
4,1,4,$2,$3,$4,$5,$6,$7,$8,$9,$2,$3,0*
0 Add four circle primitives for the rounded corners*
1,1,$1+$1,$2,$3*
1,1,$1+$1,$4,$5*
1,1,$1+$1,$6,$7*
1,1,$1+$1,$8,$9*
0 Add four rect primitives between the rounded corners*
20,1,$1+$1,$2,$3,$4,$5,0*
20,1,$1+$1,$4,$5,$6,$7,0*
20,1,$1+$1,$6,$7,$8,$9,0*
20,1,$1+$1,$8,$9,$2,$3,0*%
G04 Aperture macros list end*
%TA.AperFunction,ComponentPad*%
%ADD10C,1.397000*%
%TD*%
%TA.AperFunction,ComponentPad*%
%ADD11C,1.800000*%
%TD*%
%TA.AperFunction,ComponentPad*%
%ADD12RoundRect,0.450000X-0.450000X0.450000X-0.450000X-0.450000X0.450000X-0.450000X0.450000X0.450000X0*%
%TD*%
%TA.AperFunction,ComponentPad*%
%ADD13C,3.300000*%
%TD*%
%TA.AperFunction,Conductor*%
%ADD14C,0.200000*%
%TD*%
G04 APERTURE END LIST*
D10*
%TO.P,SW1,1,1*%
%TO.N,RST*%
X206629000Y-37846000D03*
X214249000Y-37846000D03*
%TO.P,SW1,2,2*%
%TO.N,GND*%
X206629000Y-42926000D03*
X214249000Y-42926000D03*
%TD*%
D11*
%TO.P,U1,1,D3-TX*%
%TO.N,unconnected-(U1-D3-TX-Pad1)*%
X245681500Y-44100750D03*
%TO.P,U1,2,D2-RX*%
%TO.N,unconnected-(U1-D2-RX-Pad2)*%
X243141500Y-44100750D03*
D12*
%TO.P,U1,3,GND*%
%TO.N,GND*%
X240601500Y-44100750D03*
%TO.P,U1,4,GND*%
X238061500Y-44100750D03*
D11*
%TO.P,U1,5,D1*%
%TO.N,/col_tmo*%
X235521500Y-44100750D03*
%TO.P,U1,6,D0*%
%TO.N,/row4*%
X232981500Y-44100750D03*
%TO.P,U1,7,D4*%
%TO.N,/row3*%
X230441500Y-44100750D03*
%TO.P,U1,8,C6*%
%TO.N,/row2*%
X227901500Y-44100750D03*
%TO.P,U1,9,D7*%
%TO.N,/row1*%
X225361500Y-44100750D03*
%TO.P,U1,10,E6*%
%TO.N,/row0*%
X222821500Y-44100750D03*
%TO.P,U1,11,B4*%
%TO.N,/col0*%
X220281500Y-44100750D03*
%TO.P,U1,12,B5*%
%TO.N,/col1*%
X217741500Y-44100750D03*
%TO.P,U1,13,B0*%
%TO.N,unconnected-(U1-B0-Pad13)*%
X245681500Y-28860750D03*
D12*
%TO.P,U1,14,GND*%
%TO.N,GND*%
X243141500Y-28860750D03*
D11*
%TO.P,U1,15,RST*%
%TO.N,RST*%
X240601500Y-28860750D03*
%TO.P,U1,16,VCC*%
%TO.N,VCC*%
X238061500Y-28860750D03*
%TO.P,U1,17,F4*%
%TO.N,/col2*%
X235521500Y-28860750D03*
%TO.P,U1,18,F5*%
%TO.N,/col3*%
X232981500Y-28860750D03*
%TO.P,U1,19,F6*%
%TO.N,/col4*%
X230441500Y-28860750D03*
%TO.P,U1,20,F7*%
%TO.N,/col5*%
X227901500Y-28860750D03*
%TO.P,U1,21,B1*%
%TO.N,/col6*%
X225361500Y-28860750D03*
%TO.P,U1,22,B3*%
%TO.N,/col7*%
X222821500Y-28860750D03*
%TO.P,U1,23,B2*%
%TO.N,/col8*%
X220281500Y-28860750D03*
%TO.P,U1,24,B6*%
%TO.N,/col9*%
X217741500Y-28860750D03*
%TD*%
D13*
%TO.P,MX33,1,1*%
%TO.N,Net-(D33-A)*%
X179959000Y-112522000D03*
%TO.P,MX33,2,2*%
%TO.N,/col3*%
X186309000Y-109982000D03*
%TD*%
%TO.P,MX31,1,1*%
%TO.N,Net-(D31-A)*%
X218059000Y-112522000D03*
%TO.P,MX31,2,2*%
%TO.N,/col1*%
X224409000Y-109982000D03*
%TD*%
%TO.P,MX44,1,1*%
%TO.N,Net-(D44-A)*%
X151384000Y-131572000D03*
%TO.P,MX44,2,2*%
%TO.N,/col4*%
X157734000Y-129032000D03*
%TD*%
%TO.P,MX4,1,1*%
%TO.N,Net-(D4-A)*%
X179959000Y-55372000D03*
%TO.P,MX4,2,2*%
%TO.N,/col3*%
X186309000Y-52832000D03*
%TD*%
%TO.P,MX12,1,1*%
%TO.N,Net-(D12-A)*%
X218059000Y-74422000D03*
%TO.P,MX12,2,2*%
%TO.N,/col1*%
X224409000Y-71882000D03*
%TD*%
%TO.P,MX37,1,1*%
%TO.N,Net-(D37-A)*%
X103759000Y-112522000D03*
%TO.P,MX37,2,2*%
%TO.N,/col7*%
X110109000Y-109982000D03*
%TD*%
%TO.P,MX20,1,1*%
%TO.N,Net-(D20-A)*%
X65659000Y-74422000D03*
%TO.P,MX20,2,2*%
%TO.N,/col9*%
X72009000Y-71882000D03*
%TD*%
%TO.P,MX39,1,1*%
%TO.N,Net-(D39-A)*%
X65659000Y-112522000D03*
%TO.P,MX39,2,2*%
%TO.N,/col9*%
X72009000Y-109982000D03*
%TD*%
%TO.P,MX3,1,1*%
%TO.N,Net-(D3-A)*%
X199009000Y-55372000D03*
%TO.P,MX3,2,2*%
%TO.N,/col2*%
X205359000Y-52832000D03*
%TD*%
%TO.P,MX13,1,1*%
%TO.N,Net-(D13-A)*%
X199009000Y-74422000D03*
%TO.P,MX13,2,2*%
%TO.N,/col2*%
X205359000Y-71882000D03*
%TD*%
%TO.P,MX2,1,1*%
%TO.N,Net-(D2-A)*%
X218059000Y-55372000D03*
%TO.P,MX2,2,2*%
%TO.N,/col1*%
X224409000Y-52832000D03*
%TD*%
%TO.P,MX7,1,1*%
%TO.N,Net-(D7-A)*%
X122809000Y-55372000D03*
%TO.P,MX7,2,2*%
%TO.N,/col6*%
X129159000Y-52832000D03*
%TD*%
%TO.P,MX1,1,1*%
%TO.N,Net-(D1-A)*%
X237109000Y-55372000D03*
%TO.P,MX1,2,2*%
%TO.N,/col0*%
X243459000Y-52832000D03*
%TD*%
%TO.P,MX19,1,1*%
%TO.N,Net-(D19-A)*%
X84709000Y-74422000D03*
%TO.P,MX19,2,2*%
%TO.N,/col8*%
X91059000Y-71882000D03*
%TD*%
%TO.P,MX40,1,1*%
%TO.N,Net-(D40-A)*%
X237109000Y-131572000D03*
%TO.P,MX40,2,2*%
%TO.N,/col0*%
X243459000Y-129032000D03*
%TD*%
%TO.P,MX36,1,1*%
%TO.N,Net-(D36-A)*%
X122809000Y-112522000D03*
%TO.P,MX36,2,2*%
%TO.N,/col6*%
X129159000Y-109982000D03*
%TD*%
%TO.P,MX46,1,1*%
%TO.N,Net-(D46-A)*%
X103759000Y-131572000D03*
%TO.P,MX46,2,2*%
%TO.N,/col6*%
X110109000Y-129032000D03*
%TD*%
%TO.P,MX16,1,1*%
%TO.N,Net-(D16-A)*%
X141859000Y-74422000D03*
%TO.P,MX16,2,2*%
%TO.N,/col5*%
X148209000Y-71882000D03*
%TD*%
%TO.P,MX41,1,1*%
%TO.N,Net-(D41-A)*%
X218059000Y-131572000D03*
%TO.P,MX41,2,2*%
%TO.N,/col1*%
X224409000Y-129032000D03*
%TD*%
%TO.P,MX17,1,1*%
%TO.N,Net-(D17-A)*%
X122809000Y-74422000D03*
%TO.P,MX17,2,2*%
%TO.N,/col6*%
X129159000Y-71882000D03*
%TD*%
%TO.P,MX9,1,1*%
%TO.N,Net-(D9-A)*%
X84709000Y-55372000D03*
%TO.P,MX9,2,2*%
%TO.N,/col8*%
X91059000Y-52832000D03*
%TD*%
%TO.P,MX25,1,1*%
%TO.N,Net-(D25-A)*%
X151384000Y-93472000D03*
%TO.P,MX25,2,2*%
%TO.N,/col4*%
X157734000Y-90932000D03*
%TD*%
%TO.P,MX10,1,1*%
%TO.N,Net-(D10-A)*%
X65659000Y-55372000D03*
%TO.P,MX10,2,2*%
%TO.N,/col9*%
X72009000Y-52832000D03*
%TD*%
%TO.P,MX5,1,1*%
%TO.N,Net-(D5-A)*%
X160909000Y-55372000D03*
%TO.P,MX5,2,2*%
%TO.N,/col4*%
X167259000Y-52832000D03*
%TD*%
%TO.P,MX23,1,1*%
%TO.N,Net-(D23-A)*%
X189484000Y-93472000D03*
%TO.P,MX23,2,2*%
%TO.N,/col2*%
X195834000Y-90932000D03*
%TD*%
%TO.P,MX24,1,1*%
%TO.N,Net-(D24-A)*%
X170434000Y-93472000D03*
%TO.P,MX24,2,2*%
%TO.N,/col3*%
X176784000Y-90932000D03*
%TD*%
%TO.P,MX27,1,1*%
%TO.N,Net-(D27-A)*%
X113284000Y-93472000D03*
%TO.P,MX27,2,2*%
%TO.N,/col6*%
X119634000Y-90932000D03*
%TD*%
%TO.P,MX47,1,1*%
%TO.N,Net-(D47-A)*%
X84709000Y-131572000D03*
%TO.P,MX47,2,2*%
%TO.N,/col7*%
X91059000Y-129032000D03*
%TD*%
%TO.P,MX30,1,1*%
%TO.N,Net-(D30-A)*%
X237109000Y-112522000D03*
%TO.P,MX30,2,2*%
%TO.N,/col0*%
X243459000Y-109982000D03*
%TD*%
%TO.P,MX14,1,1*%
%TO.N,Net-(D14-A)*%
X179959000Y-74422000D03*
%TO.P,MX14,2,2*%
%TO.N,/col3*%
X186309000Y-71882000D03*
%TD*%
%TO.P,MX11,1,1*%
%TO.N,Net-(D11-A)*%
X237109000Y-74422000D03*
%TO.P,MX11,2,2*%
%TO.N,/col0*%
X243459000Y-71882000D03*
%TD*%
%TO.P,MX22,1,1*%
%TO.N,Net-(D22-A)*%
X208534000Y-93472000D03*
%TO.P,MX22,2,2*%
%TO.N,/col1*%
X214884000Y-90932000D03*
%TD*%
%TO.P,MX15,1,1*%
%TO.N,Net-(D15-A)*%
X160909000Y-74422000D03*
%TO.P,MX15,2,2*%
%TO.N,/col4*%
X167259000Y-71882000D03*
%TD*%
%TO.P,MX43,1,1*%
%TO.N,Net-(D43-A)*%
X175434000Y-131572000D03*
%TO.P,MX43,2,2*%
%TO.N,/col3*%
X181784000Y-129032000D03*
%TD*%
%TO.P,MX35,1,1*%
%TO.N,Net-(D35-A)*%
X141859000Y-112522000D03*
%TO.P,MX35,2,2*%
%TO.N,/col5*%
X148209000Y-109982000D03*
%TD*%
%TO.P,MX29,1,1*%
%TO.N,Net-(D29-A)*%
X75184000Y-93472000D03*
%TO.P,MX29,2,2*%
%TO.N,/col8*%
X81534000Y-90932000D03*
%TD*%
%TO.P,MX34,1,1*%
%TO.N,Net-(D34-A)*%
X160909000Y-112522000D03*
%TO.P,MX34,2,2*%
%TO.N,/col4*%
X167259000Y-109982000D03*
%TD*%
%TO.P,MX8,1,1*%
%TO.N,Net-(D8-A)*%
X103759000Y-55372000D03*
%TO.P,MX8,2,2*%
%TO.N,/col7*%
X110109000Y-52832000D03*
%TD*%
%TO.P,MX26,1,1*%
%TO.N,Net-(D26-A)*%
X132334000Y-93472000D03*
%TO.P,MX26,2,2*%
%TO.N,/col5*%
X138684000Y-90932000D03*
%TD*%
%TO.P,MX48,1,1*%
%TO.N,Net-(D48-A)*%
X65659000Y-131572000D03*
%TO.P,MX48,2,2*%
%TO.N,/col8*%
X72009000Y-129032000D03*
%TD*%
%TO.P,MX6,1,1*%
%TO.N,Net-(D6-A)*%
X141859000Y-55372000D03*
%TO.P,MX6,2,2*%
%TO.N,/col5*%
X148209000Y-52832000D03*
%TD*%
%TO.P,MX28,1,1*%
%TO.N,Net-(D28-A)*%
X94234000Y-93472000D03*
%TO.P,MX28,2,2*%
%TO.N,/col7*%
X100584000Y-90932000D03*
%TD*%
%TO.P,MX38,1,1*%
%TO.N,Net-(D38-A)*%
X84709000Y-112522000D03*
%TO.P,MX38,2,2*%
%TO.N,/col8*%
X91059000Y-109982000D03*
%TD*%
%TO.P,MX18,1,1*%
%TO.N,Net-(D18-A)*%
X103759000Y-74422000D03*
%TO.P,MX18,2,2*%
%TO.N,/col7*%
X110109000Y-71882000D03*
%TD*%
%TO.P,MX45,1,1*%
%TO.N,Net-(D45-A)*%
X127571500Y-131572000D03*
%TO.P,MX45,2,2*%
%TO.N,/col5*%
X133921500Y-129032000D03*
%TD*%
%TO.P,MX32,1,1*%
%TO.N,Net-(D32-A)*%
X199009000Y-112522000D03*
%TO.P,MX32,2,2*%
%TO.N,/col2*%
X205359000Y-109982000D03*
%TD*%
%TO.P,MX21,1,1*%
%TO.N,Net-(D21-A)*%
X227584000Y-93472000D03*
%TO.P,MX21,2,2*%
%TO.N,/col0*%
X233934000Y-90932000D03*
%TD*%
%TO.P,MX42,1,1*%
%TO.N,Net-(D42-A)*%
X199009000Y-131572000D03*
%TO.P,MX42,2,2*%
%TO.N,/col2*%
X205359000Y-129032000D03*
%TD*%
D14*
%TO.N,/col0*%
X233934000Y-90932000D02*
X243459000Y-100457000D01*
X223266000Y-46990000D02*
X237617000Y-46990000D01*
X237617000Y-46990000D02*
X243459000Y-52832000D01*
X220376750Y-44100750D02*
X223266000Y-46990000D01*
X243459000Y-81407000D02*
X233934000Y-90932000D01*
X243459000Y-52832000D02*
X243459000Y-71882000D01*
X243459000Y-71882000D02*
X243459000Y-81407000D01*
X243459000Y-100457000D02*
X243459000Y-109982000D01*
X220281500Y-44100750D02*
X220376750Y-44100750D01*
X243459000Y-109982000D02*
X243459000Y-129032000D01*
%TO.N,/col1*%
X217741500Y-44196000D02*
X224409000Y-50863500D01*
X224409000Y-109982000D02*
X224409000Y-100457000D01*
X217741500Y-44100750D02*
X217741500Y-44196000D01*
X224409000Y-71882000D02*
X224409000Y-52832000D01*
X224409000Y-129032000D02*
X224409000Y-109982000D01*
X214884000Y-90932000D02*
X214884000Y-80632225D01*
X224409000Y-100457000D02*
X214884000Y-90932000D01*
X224409000Y-50863500D02*
X224409000Y-52832000D01*
X214884000Y-80632225D02*
X223634225Y-71882000D01*
X223634225Y-71882000D02*
X224409000Y-71882000D01*
%TO.N,/col2*%
X205359000Y-109982000D02*
X205359000Y-129032000D01*
X195834000Y-100457000D02*
X205359000Y-109982000D01*
X195834000Y-90932000D02*
X195834000Y-100457000D01*
X205359000Y-81407000D02*
X195834000Y-90932000D01*
X205359000Y-71882000D02*
X205359000Y-81407000D01*
X205359000Y-52832000D02*
X205359000Y-71882000D01*
%TO.N,/col3*%
X181784000Y-129032000D02*
X180134000Y-127382000D01*
X186309000Y-109982000D02*
X186309000Y-100457000D01*
X186309000Y-100457000D02*
X176784000Y-90932000D01*
X186309000Y-77769588D02*
X186309000Y-71882000D01*
X176784000Y-87294588D02*
X186309000Y-77769588D01*
X176784000Y-90932000D02*
X176784000Y-87294588D01*
X186309000Y-71882000D02*
X186309000Y-52832000D01*
X185534225Y-109982000D02*
X186309000Y-109982000D01*
X180134000Y-115382225D02*
X185534225Y-109982000D01*
X180134000Y-127382000D02*
X180134000Y-115382225D01*
%TO.N,/col4*%
X157734000Y-90932000D02*
X157734000Y-100457000D01*
X157734000Y-87261775D02*
X157734000Y-90932000D01*
X167259000Y-119507000D02*
X157734000Y-129032000D01*
X167259000Y-71882000D02*
X167259000Y-77736775D01*
X167259000Y-109982000D02*
X167259000Y-119507000D01*
X157734000Y-100457000D02*
X167259000Y-109982000D01*
X167259000Y-77736775D02*
X157734000Y-87261775D01*
X167259000Y-52832000D02*
X167259000Y-71882000D01*
%TO.N,/col5*%
X135013775Y-129032000D02*
X133921500Y-129032000D01*
X138684000Y-100457000D02*
X148209000Y-109982000D01*
X148209000Y-115836775D02*
X135013775Y-129032000D01*
X148209000Y-109982000D02*
X148209000Y-115836775D01*
X138684000Y-90932000D02*
X138684000Y-100457000D01*
X148209000Y-52832000D02*
X148209000Y-71882000D01*
X148209000Y-71882000D02*
X148209000Y-81407000D01*
X148209000Y-81407000D02*
X138684000Y-90932000D01*
%TO.N,/col6*%
X110109000Y-129032000D02*
X110109000Y-128257225D01*
X129159000Y-77736775D02*
X129159000Y-71882000D01*
X119634000Y-90932000D02*
X119888000Y-90932000D01*
X119888000Y-87007775D02*
X129159000Y-77736775D01*
X129159000Y-100457000D02*
X119634000Y-90932000D01*
X110109000Y-128257225D02*
X128384225Y-109982000D01*
X129159000Y-109982000D02*
X129159000Y-100457000D01*
X129159000Y-71882000D02*
X129159000Y-52832000D01*
X119888000Y-90932000D02*
X119888000Y-87007775D01*
X128384225Y-109982000D02*
X129159000Y-109982000D01*
%TO.N,/col7*%
X110109000Y-71882000D02*
X110109000Y-81407000D01*
X100584000Y-90932000D02*
X100584000Y-100457000D01*
X110109000Y-109982000D02*
X109334225Y-109982000D01*
X109334225Y-109982000D02*
X91059000Y-128257225D01*
X110109000Y-52832000D02*
X110109000Y-71882000D01*
X110109000Y-81407000D02*
X100584000Y-90932000D01*
X100584000Y-100457000D02*
X110109000Y-109982000D01*
X91059000Y-128257225D02*
X91059000Y-129032000D01*
%TO.N,/col8*%
X72009000Y-128257225D02*
X90284225Y-109982000D01*
X91059000Y-100457000D02*
X81534000Y-90932000D01*
X91059000Y-109982000D02*
X91059000Y-100457000D01*
X81534000Y-90932000D02*
X81534000Y-80632225D01*
X81534000Y-80632225D02*
X90284225Y-71882000D01*
X72009000Y-129032000D02*
X72009000Y-128257225D01*
X91059000Y-71882000D02*
X91059000Y-52832000D01*
X90284225Y-71882000D02*
X91059000Y-71882000D01*
X90284225Y-109982000D02*
X91059000Y-109982000D01*
%TO.N,/col9*%
X72009000Y-71882000D02*
X72009000Y-109982000D01*
X72009000Y-52832000D02*
X72009000Y-71882000D01*
%TO.N,RST*%
X206629000Y-37846000D02*
X214249000Y-37846000D01*
X231616250Y-37846000D02*
X240601500Y-28860750D01*
X214249000Y-37846000D02*
X231616250Y-37846000D01*
%TO.N,GND*%
X231781935Y-38246000D02*
X231800935Y-38227000D01*
X240601500Y-43243500D02*
X239268000Y-41910000D01*
X239268000Y-37973000D02*
X239268000Y-32734250D01*
X238061500Y-43116500D02*
X239268000Y-41910000D01*
X206629000Y-42926000D02*
X214249000Y-42926000D01*
X218929000Y-38246000D02*
X231781935Y-38246000D01*
X240601500Y-44100750D02*
X240601500Y-43243500D01*
X239268000Y-41910000D02*
X239268000Y-37973000D01*
X214249000Y-42926000D02*
X218929000Y-38246000D01*
X231800935Y-38227000D02*
X239268000Y-38227000D01*
X238061500Y-44100750D02*
X238061500Y-43116500D01*
X239268000Y-32734250D02*
X243141500Y-28860750D01*
%TD*%
M02*
