%TF.GenerationSoftware,KiCad,Pcbnew,8.0.6*%
%TF.CreationDate,2024-11-21T10:17:36-07:00*%
%TF.ProjectId,newk-tabesque48,6e65776b-2d74-4616-9265-737175653438,rev?*%
%TF.SameCoordinates,Original*%
%TF.FileFunction,Paste,Bot*%
%TF.FilePolarity,Positive*%
%FSLAX46Y46*%
G04 Gerber Fmt 4.6, Leading zero omitted, Abs format (unit mm)*
G04 Created by KiCad (PCBNEW 8.0.6) date 2024-11-21 10:17:36*
%MOMM*%
%LPD*%
G01*
G04 APERTURE LIST*
G04 Aperture macros list*
%AMRoundRect*
0 Rectangle with rounded corners*
0 $1 Rounding radius*
0 $2 $3 $4 $5 $6 $7 $8 $9 X,Y pos of 4 corners*
0 Add a 4 corners polygon primitive as box body*
4,1,4,$2,$3,$4,$5,$6,$7,$8,$9,$2,$3,0*
0 Add four circle primitives for the rounded corners*
1,1,$1+$1,$2,$3*
1,1,$1+$1,$4,$5*
1,1,$1+$1,$6,$7*
1,1,$1+$1,$8,$9*
0 Add four rect primitives between the rounded corners*
20,1,$1+$1,$2,$3,$4,$5,0*
20,1,$1+$1,$4,$5,$6,$7,0*
20,1,$1+$1,$6,$7,$8,$9,0*
20,1,$1+$1,$8,$9,$2,$3,0*%
G04 Aperture macros list end*
%ADD10RoundRect,0.250000X1.025000X1.000000X-1.025000X1.000000X-1.025000X-1.000000X1.025000X-1.000000X0*%
%ADD11RoundRect,0.225000X0.225000X0.375000X-0.225000X0.375000X-0.225000X-0.375000X0.225000X-0.375000X0*%
G04 APERTURE END LIST*
D10*
%TO.C,MX33*%
X176409000Y-112522000D03*
X189859000Y-109982000D03*
%TD*%
%TO.C,MX31*%
X214509000Y-112522000D03*
X227959000Y-109982000D03*
%TD*%
%TO.C,MX44*%
X147834000Y-131572000D03*
X161284000Y-129032000D03*
%TD*%
%TO.C,MX4*%
X176409000Y-55372000D03*
X189859000Y-52832000D03*
%TD*%
%TO.C,MX12*%
X214509000Y-74422000D03*
X227959000Y-71882000D03*
%TD*%
%TO.C,MX37*%
X100209000Y-112522000D03*
X113659000Y-109982000D03*
%TD*%
%TO.C,MX20*%
X62109000Y-74422000D03*
X75559000Y-71882000D03*
%TD*%
%TO.C,MX39*%
X62109000Y-112522000D03*
X75559000Y-109982000D03*
%TD*%
%TO.C,MX3*%
X195459000Y-55372000D03*
X208909000Y-52832000D03*
%TD*%
%TO.C,MX13*%
X195459000Y-74422000D03*
X208909000Y-71882000D03*
%TD*%
D11*
%TO.C,D32*%
X204469000Y-123793250D03*
X201169000Y-123793250D03*
%TD*%
%TO.C,D31*%
X223519000Y-123793250D03*
X220219000Y-123793250D03*
%TD*%
D10*
%TO.C,MX2*%
X214509000Y-55372000D03*
X227959000Y-52832000D03*
%TD*%
D11*
%TO.C,D47*%
X90169000Y-142843250D03*
X86869000Y-142843250D03*
%TD*%
D10*
%TO.C,MX7*%
X119259000Y-55372000D03*
X132709000Y-52832000D03*
%TD*%
D11*
%TO.C,D36*%
X128269000Y-123793250D03*
X124969000Y-123793250D03*
%TD*%
%TO.C,D15*%
X166431500Y-85693250D03*
X163131500Y-85693250D03*
%TD*%
D10*
%TO.C,MX1*%
X233559000Y-55372000D03*
X247009000Y-52832000D03*
%TD*%
%TO.C,MX19*%
X81159000Y-74422000D03*
X94609000Y-71882000D03*
%TD*%
D11*
%TO.C,D6*%
X147319000Y-66643250D03*
X144019000Y-66643250D03*
%TD*%
%TO.C,D5*%
X166431500Y-66643250D03*
X163131500Y-66643250D03*
%TD*%
D10*
%TO.C,MX40*%
X233559000Y-131572000D03*
X247009000Y-129032000D03*
%TD*%
%TO.C,MX36*%
X119259000Y-112522000D03*
X132709000Y-109982000D03*
%TD*%
%TO.C,MX46*%
X100209000Y-131572000D03*
X113659000Y-129032000D03*
%TD*%
%TO.C,MX16*%
X138309000Y-74422000D03*
X151759000Y-71882000D03*
%TD*%
%TO.C,MX41*%
X214509000Y-131572000D03*
X227959000Y-129032000D03*
%TD*%
%TO.C,MX17*%
X119259000Y-74422000D03*
X132709000Y-71882000D03*
%TD*%
D11*
%TO.C,D9*%
X90231500Y-66643250D03*
X86931500Y-66643250D03*
%TD*%
D10*
%TO.C,MX9*%
X81159000Y-55372000D03*
X94609000Y-52832000D03*
%TD*%
D11*
%TO.C,D43*%
X180656500Y-142843250D03*
X177356500Y-142843250D03*
%TD*%
D10*
%TO.C,MX25*%
X147834000Y-93472000D03*
X161284000Y-90932000D03*
%TD*%
D11*
%TO.C,D39*%
X71119000Y-123793250D03*
X67819000Y-123793250D03*
%TD*%
D10*
%TO.C,MX10*%
X62109000Y-55372000D03*
X75559000Y-52832000D03*
%TD*%
D11*
%TO.C,D19*%
X90169000Y-85693250D03*
X86869000Y-85693250D03*
%TD*%
%TO.C,D42*%
X204469000Y-142843250D03*
X201169000Y-142843250D03*
%TD*%
%TO.C,D4*%
X185419000Y-66643250D03*
X182119000Y-66643250D03*
%TD*%
D10*
%TO.C,MX5*%
X157359000Y-55372000D03*
X170809000Y-52832000D03*
%TD*%
%TO.C,MX23*%
X185934000Y-93472000D03*
X199384000Y-90932000D03*
%TD*%
D11*
%TO.C,D24*%
X175894000Y-104743250D03*
X172594000Y-104743250D03*
%TD*%
%TO.C,D12*%
X223519000Y-85693250D03*
X220219000Y-85693250D03*
%TD*%
%TO.C,D17*%
X128269000Y-85693250D03*
X124969000Y-85693250D03*
%TD*%
%TO.C,D8*%
X109219000Y-66643250D03*
X105919000Y-66643250D03*
%TD*%
D10*
%TO.C,MX24*%
X166884000Y-93472000D03*
X180334000Y-90932000D03*
%TD*%
%TO.C,MX27*%
X109734000Y-93472000D03*
X123184000Y-90932000D03*
%TD*%
D11*
%TO.C,D13*%
X204469000Y-85693250D03*
X201169000Y-85693250D03*
%TD*%
%TO.C,D7*%
X128331500Y-66643250D03*
X125031500Y-66643250D03*
%TD*%
%TO.C,D30*%
X242631500Y-123793250D03*
X239331500Y-123793250D03*
%TD*%
%TO.C,D2*%
X223519000Y-66643250D03*
X220219000Y-66643250D03*
%TD*%
%TO.C,D1*%
X242569000Y-66643250D03*
X239269000Y-66643250D03*
%TD*%
%TO.C,D41*%
X223456500Y-142843250D03*
X220156500Y-142843250D03*
%TD*%
D10*
%TO.C,MX47*%
X81159000Y-131572000D03*
X94609000Y-129032000D03*
%TD*%
%TO.C,MX30*%
X233559000Y-112522000D03*
X247009000Y-109982000D03*
%TD*%
%TO.C,MX14*%
X176409000Y-74422000D03*
X189859000Y-71882000D03*
%TD*%
D11*
%TO.C,D35*%
X147319000Y-123793250D03*
X144019000Y-123793250D03*
%TD*%
D10*
%TO.C,MX11*%
X233559000Y-74422000D03*
X247009000Y-71882000D03*
%TD*%
%TO.C,MX22*%
X204984000Y-93472000D03*
X218434000Y-90932000D03*
%TD*%
D11*
%TO.C,D38*%
X90169000Y-123793250D03*
X86869000Y-123793250D03*
%TD*%
%TO.C,D48*%
X71119000Y-142843250D03*
X67819000Y-142843250D03*
%TD*%
D10*
%TO.C,MX15*%
X157359000Y-74422000D03*
X170809000Y-71882000D03*
%TD*%
%TO.C,MX43*%
X171884000Y-131572000D03*
X185334000Y-129032000D03*
%TD*%
%TO.C,MX35*%
X138309000Y-112522000D03*
X151759000Y-109982000D03*
%TD*%
D11*
%TO.C,D16*%
X147319000Y-85693250D03*
X144019000Y-85693250D03*
%TD*%
%TO.C,D37*%
X109219000Y-123793250D03*
X105919000Y-123793250D03*
%TD*%
%TO.C,D34*%
X166369000Y-123793250D03*
X163069000Y-123793250D03*
%TD*%
%TO.C,D44*%
X156844000Y-142843250D03*
X153544000Y-142843250D03*
%TD*%
%TO.C,D29*%
X80644000Y-104743250D03*
X77344000Y-104743250D03*
%TD*%
%TO.C,D40*%
X242569000Y-142843250D03*
X239269000Y-142843250D03*
%TD*%
%TO.C,D20*%
X71181500Y-85693250D03*
X67881500Y-85693250D03*
%TD*%
D10*
%TO.C,MX29*%
X71634000Y-93472000D03*
X85084000Y-90932000D03*
%TD*%
D11*
%TO.C,D23*%
X194944000Y-104743250D03*
X191644000Y-104743250D03*
%TD*%
D10*
%TO.C,MX34*%
X157359000Y-112522000D03*
X170809000Y-109982000D03*
%TD*%
D11*
%TO.C,D21*%
X233044000Y-104743250D03*
X229744000Y-104743250D03*
%TD*%
D10*
%TO.C,MX8*%
X100209000Y-55372000D03*
X113659000Y-52832000D03*
%TD*%
D11*
%TO.C,D18*%
X109219000Y-85693250D03*
X105919000Y-85693250D03*
%TD*%
%TO.C,D25*%
X156844000Y-104425750D03*
X153544000Y-104425750D03*
%TD*%
%TO.C,D26*%
X137794000Y-104637000D03*
X134494000Y-104637000D03*
%TD*%
D10*
%TO.C,MX26*%
X128784000Y-93472000D03*
X142234000Y-90932000D03*
%TD*%
D11*
%TO.C,D27*%
X118744000Y-104743250D03*
X115444000Y-104743250D03*
%TD*%
D10*
%TO.C,MX48*%
X62109000Y-131572000D03*
X75559000Y-129032000D03*
%TD*%
%TO.C,MX6*%
X138309000Y-55372000D03*
X151759000Y-52832000D03*
%TD*%
%TO.C,MX28*%
X90684000Y-93472000D03*
X104134000Y-90932000D03*
%TD*%
%TO.C,MX38*%
X81159000Y-112522000D03*
X94609000Y-109982000D03*
%TD*%
D11*
%TO.C,D45*%
X133031500Y-142843250D03*
X129731500Y-142843250D03*
%TD*%
%TO.C,D3*%
X204469000Y-66643250D03*
X201169000Y-66643250D03*
%TD*%
D10*
%TO.C,MX18*%
X100209000Y-74422000D03*
X113659000Y-71882000D03*
%TD*%
D11*
%TO.C,D33*%
X185419000Y-123793250D03*
X182119000Y-123793250D03*
%TD*%
%TO.C,D10*%
X71119000Y-66643250D03*
X67819000Y-66643250D03*
%TD*%
%TO.C,D46*%
X109219000Y-142843250D03*
X105919000Y-142843250D03*
%TD*%
%TO.C,D22*%
X213994000Y-104743250D03*
X210694000Y-104743250D03*
%TD*%
D10*
%TO.C,MX45*%
X124021500Y-131572000D03*
X137471500Y-129032000D03*
%TD*%
D11*
%TO.C,D28*%
X99756500Y-104743250D03*
X96456500Y-104743250D03*
%TD*%
D10*
%TO.C,MX32*%
X195459000Y-112522000D03*
X208909000Y-109982000D03*
%TD*%
%TO.C,MX21*%
X224034000Y-93472000D03*
X237484000Y-90932000D03*
%TD*%
D11*
%TO.C,D11*%
X242569000Y-85693250D03*
X239269000Y-85693250D03*
%TD*%
D10*
%TO.C,MX42*%
X195459000Y-131572000D03*
X208909000Y-129032000D03*
%TD*%
D11*
%TO.C,D14*%
X185419000Y-85693250D03*
X182119000Y-85693250D03*
%TD*%
M02*
