%TF.GenerationSoftware,KiCad,Pcbnew,8.0.6*%
%TF.CreationDate,2024-12-01T20:27:01-07:00*%
%TF.ProjectId,newk-tabesque48,6e65776b-2d74-4616-9265-737175653438,rev?*%
%TF.SameCoordinates,Original*%
%TF.FileFunction,Legend,Top*%
%TF.FilePolarity,Positive*%
%FSLAX46Y46*%
G04 Gerber Fmt 4.6, Leading zero omitted, Abs format (unit mm)*
G04 Created by KiCad (PCBNEW 8.0.6) date 2024-12-01 20:27:01*
%MOMM*%
%LPD*%
G01*
G04 APERTURE LIST*
%ADD10C,1.500000*%
%ADD11C,0.800000*%
%ADD12C,0.150000*%
%ADD13C,0.120000*%
G04 APERTURE END LIST*
D10*
X66897893Y-59377818D02*
X66897893Y-52377818D01*
X69576464Y-59377818D02*
X69576464Y-55711151D01*
X69576464Y-55711151D02*
X69278845Y-55044485D01*
X69278845Y-55044485D02*
X68683607Y-54711151D01*
X68683607Y-54711151D02*
X67790750Y-54711151D01*
X67790750Y-54711151D02*
X67195512Y-55044485D01*
X67195512Y-55044485D02*
X66897893Y-55377818D01*
X74933607Y-59044485D02*
X74338369Y-59377818D01*
X74338369Y-59377818D02*
X73147893Y-59377818D01*
X73147893Y-59377818D02*
X72552655Y-59044485D01*
X72552655Y-59044485D02*
X72255036Y-58377818D01*
X72255036Y-58377818D02*
X72255036Y-55711151D01*
X72255036Y-55711151D02*
X72552655Y-55044485D01*
X72552655Y-55044485D02*
X73147893Y-54711151D01*
X73147893Y-54711151D02*
X74338369Y-54711151D01*
X74338369Y-54711151D02*
X74933607Y-55044485D01*
X74933607Y-55044485D02*
X75231226Y-55711151D01*
X75231226Y-55711151D02*
X75231226Y-56377818D01*
X75231226Y-56377818D02*
X72255036Y-57044485D01*
X77909798Y-59377818D02*
X77909798Y-54711151D01*
X77909798Y-56044485D02*
X78207417Y-55377818D01*
X78207417Y-55377818D02*
X78505036Y-55044485D01*
X78505036Y-55044485D02*
X79100274Y-54711151D01*
X79100274Y-54711151D02*
X79695512Y-54711151D01*
X84159798Y-59044485D02*
X83564560Y-59377818D01*
X83564560Y-59377818D02*
X82374084Y-59377818D01*
X82374084Y-59377818D02*
X81778846Y-59044485D01*
X81778846Y-59044485D02*
X81481227Y-58377818D01*
X81481227Y-58377818D02*
X81481227Y-55711151D01*
X81481227Y-55711151D02*
X81778846Y-55044485D01*
X81778846Y-55044485D02*
X82374084Y-54711151D01*
X82374084Y-54711151D02*
X83564560Y-54711151D01*
X83564560Y-54711151D02*
X84159798Y-55044485D01*
X84159798Y-55044485D02*
X84457417Y-55711151D01*
X84457417Y-55711151D02*
X84457417Y-56377818D01*
X84457417Y-56377818D02*
X81481227Y-57044485D01*
X87433608Y-52377818D02*
X86838370Y-53711151D01*
X89814560Y-59044485D02*
X90409798Y-59377818D01*
X90409798Y-59377818D02*
X91600274Y-59377818D01*
X91600274Y-59377818D02*
X92195512Y-59044485D01*
X92195512Y-59044485D02*
X92493131Y-58377818D01*
X92493131Y-58377818D02*
X92493131Y-58044485D01*
X92493131Y-58044485D02*
X92195512Y-57377818D01*
X92195512Y-57377818D02*
X91600274Y-57044485D01*
X91600274Y-57044485D02*
X90707417Y-57044485D01*
X90707417Y-57044485D02*
X90112179Y-56711151D01*
X90112179Y-56711151D02*
X89814560Y-56044485D01*
X89814560Y-56044485D02*
X89814560Y-55711151D01*
X89814560Y-55711151D02*
X90112179Y-55044485D01*
X90112179Y-55044485D02*
X90707417Y-54711151D01*
X90707417Y-54711151D02*
X91600274Y-54711151D01*
X91600274Y-54711151D02*
X92195512Y-55044485D01*
X99635989Y-59044485D02*
X100231227Y-59377818D01*
X100231227Y-59377818D02*
X101421703Y-59377818D01*
X101421703Y-59377818D02*
X102016941Y-59044485D01*
X102016941Y-59044485D02*
X102314560Y-58377818D01*
X102314560Y-58377818D02*
X102314560Y-58044485D01*
X102314560Y-58044485D02*
X102016941Y-57377818D01*
X102016941Y-57377818D02*
X101421703Y-57044485D01*
X101421703Y-57044485D02*
X100528846Y-57044485D01*
X100528846Y-57044485D02*
X99933608Y-56711151D01*
X99933608Y-56711151D02*
X99635989Y-56044485D01*
X99635989Y-56044485D02*
X99635989Y-55711151D01*
X99635989Y-55711151D02*
X99933608Y-55044485D01*
X99933608Y-55044485D02*
X100528846Y-54711151D01*
X100528846Y-54711151D02*
X101421703Y-54711151D01*
X101421703Y-54711151D02*
X102016941Y-55044485D01*
X105885989Y-59377818D02*
X105290751Y-59044485D01*
X105290751Y-59044485D02*
X104993132Y-58711151D01*
X104993132Y-58711151D02*
X104695513Y-58044485D01*
X104695513Y-58044485D02*
X104695513Y-56044485D01*
X104695513Y-56044485D02*
X104993132Y-55377818D01*
X104993132Y-55377818D02*
X105290751Y-55044485D01*
X105290751Y-55044485D02*
X105885989Y-54711151D01*
X105885989Y-54711151D02*
X106778846Y-54711151D01*
X106778846Y-54711151D02*
X107374084Y-55044485D01*
X107374084Y-55044485D02*
X107671703Y-55377818D01*
X107671703Y-55377818D02*
X107969322Y-56044485D01*
X107969322Y-56044485D02*
X107969322Y-58044485D01*
X107969322Y-58044485D02*
X107671703Y-58711151D01*
X107671703Y-58711151D02*
X107374084Y-59044485D01*
X107374084Y-59044485D02*
X106778846Y-59377818D01*
X106778846Y-59377818D02*
X105885989Y-59377818D01*
X110647894Y-59377818D02*
X110647894Y-54711151D01*
X110647894Y-55377818D02*
X110945513Y-55044485D01*
X110945513Y-55044485D02*
X111540751Y-54711151D01*
X111540751Y-54711151D02*
X112433608Y-54711151D01*
X112433608Y-54711151D02*
X113028846Y-55044485D01*
X113028846Y-55044485D02*
X113326465Y-55711151D01*
X113326465Y-55711151D02*
X113326465Y-59377818D01*
X113326465Y-55711151D02*
X113624084Y-55044485D01*
X113624084Y-55044485D02*
X114219322Y-54711151D01*
X114219322Y-54711151D02*
X115112179Y-54711151D01*
X115112179Y-54711151D02*
X115707418Y-55044485D01*
X115707418Y-55044485D02*
X116005037Y-55711151D01*
X116005037Y-55711151D02*
X116005037Y-59377818D01*
X121362179Y-59044485D02*
X120766941Y-59377818D01*
X120766941Y-59377818D02*
X119576465Y-59377818D01*
X119576465Y-59377818D02*
X118981227Y-59044485D01*
X118981227Y-59044485D02*
X118683608Y-58377818D01*
X118683608Y-58377818D02*
X118683608Y-55711151D01*
X118683608Y-55711151D02*
X118981227Y-55044485D01*
X118981227Y-55044485D02*
X119576465Y-54711151D01*
X119576465Y-54711151D02*
X120766941Y-54711151D01*
X120766941Y-54711151D02*
X121362179Y-55044485D01*
X121362179Y-55044485D02*
X121659798Y-55711151D01*
X121659798Y-55711151D02*
X121659798Y-56377818D01*
X121659798Y-56377818D02*
X118683608Y-57044485D01*
X129100275Y-59377818D02*
X129100275Y-52377818D01*
X129695513Y-56711151D02*
X131481227Y-59377818D01*
X131481227Y-54711151D02*
X129100275Y-57377818D01*
X136540751Y-59044485D02*
X135945513Y-59377818D01*
X135945513Y-59377818D02*
X134755037Y-59377818D01*
X134755037Y-59377818D02*
X134159799Y-59044485D01*
X134159799Y-59044485D02*
X133862180Y-58377818D01*
X133862180Y-58377818D02*
X133862180Y-55711151D01*
X133862180Y-55711151D02*
X134159799Y-55044485D01*
X134159799Y-55044485D02*
X134755037Y-54711151D01*
X134755037Y-54711151D02*
X135945513Y-54711151D01*
X135945513Y-54711151D02*
X136540751Y-55044485D01*
X136540751Y-55044485D02*
X136838370Y-55711151D01*
X136838370Y-55711151D02*
X136838370Y-56377818D01*
X136838370Y-56377818D02*
X133862180Y-57044485D01*
X138921704Y-54711151D02*
X140409799Y-59377818D01*
X141897894Y-54711151D02*
X140409799Y-59377818D01*
X140409799Y-59377818D02*
X139814561Y-61044485D01*
X139814561Y-61044485D02*
X139516942Y-61377818D01*
X139516942Y-61377818D02*
X138921704Y-61711151D01*
X143981228Y-59044485D02*
X144576466Y-59377818D01*
X144576466Y-59377818D02*
X145766942Y-59377818D01*
X145766942Y-59377818D02*
X146362180Y-59044485D01*
X146362180Y-59044485D02*
X146659799Y-58377818D01*
X146659799Y-58377818D02*
X146659799Y-58044485D01*
X146659799Y-58044485D02*
X146362180Y-57377818D01*
X146362180Y-57377818D02*
X145766942Y-57044485D01*
X145766942Y-57044485D02*
X144874085Y-57044485D01*
X144874085Y-57044485D02*
X144278847Y-56711151D01*
X144278847Y-56711151D02*
X143981228Y-56044485D01*
X143981228Y-56044485D02*
X143981228Y-55711151D01*
X143981228Y-55711151D02*
X144278847Y-55044485D01*
X144278847Y-55044485D02*
X144874085Y-54711151D01*
X144874085Y-54711151D02*
X145766942Y-54711151D01*
X145766942Y-54711151D02*
X146362180Y-55044485D01*
X153207419Y-54711151D02*
X155588371Y-54711151D01*
X154100276Y-52377818D02*
X154100276Y-58377818D01*
X154100276Y-58377818D02*
X154397895Y-59044485D01*
X154397895Y-59044485D02*
X154993133Y-59377818D01*
X154993133Y-59377818D02*
X155588371Y-59377818D01*
X158564562Y-59377818D02*
X157969324Y-59044485D01*
X157969324Y-59044485D02*
X157671705Y-58711151D01*
X157671705Y-58711151D02*
X157374086Y-58044485D01*
X157374086Y-58044485D02*
X157374086Y-56044485D01*
X157374086Y-56044485D02*
X157671705Y-55377818D01*
X157671705Y-55377818D02*
X157969324Y-55044485D01*
X157969324Y-55044485D02*
X158564562Y-54711151D01*
X158564562Y-54711151D02*
X159457419Y-54711151D01*
X159457419Y-54711151D02*
X160052657Y-55044485D01*
X160052657Y-55044485D02*
X160350276Y-55377818D01*
X160350276Y-55377818D02*
X160647895Y-56044485D01*
X160647895Y-56044485D02*
X160647895Y-58044485D01*
X160647895Y-58044485D02*
X160350276Y-58711151D01*
X160350276Y-58711151D02*
X160052657Y-59044485D01*
X160052657Y-59044485D02*
X159457419Y-59377818D01*
X159457419Y-59377818D02*
X158564562Y-59377818D01*
X170766943Y-59044485D02*
X170171705Y-59377818D01*
X170171705Y-59377818D02*
X168981229Y-59377818D01*
X168981229Y-59377818D02*
X168385991Y-59044485D01*
X168385991Y-59044485D02*
X168088372Y-58711151D01*
X168088372Y-58711151D02*
X167790753Y-58044485D01*
X167790753Y-58044485D02*
X167790753Y-56044485D01*
X167790753Y-56044485D02*
X168088372Y-55377818D01*
X168088372Y-55377818D02*
X168385991Y-55044485D01*
X168385991Y-55044485D02*
X168981229Y-54711151D01*
X168981229Y-54711151D02*
X170171705Y-54711151D01*
X170171705Y-54711151D02*
X170766943Y-55044485D01*
X174338372Y-59377818D02*
X173743134Y-59044485D01*
X173743134Y-59044485D02*
X173445515Y-58711151D01*
X173445515Y-58711151D02*
X173147896Y-58044485D01*
X173147896Y-58044485D02*
X173147896Y-56044485D01*
X173147896Y-56044485D02*
X173445515Y-55377818D01*
X173445515Y-55377818D02*
X173743134Y-55044485D01*
X173743134Y-55044485D02*
X174338372Y-54711151D01*
X174338372Y-54711151D02*
X175231229Y-54711151D01*
X175231229Y-54711151D02*
X175826467Y-55044485D01*
X175826467Y-55044485D02*
X176124086Y-55377818D01*
X176124086Y-55377818D02*
X176421705Y-56044485D01*
X176421705Y-56044485D02*
X176421705Y-58044485D01*
X176421705Y-58044485D02*
X176124086Y-58711151D01*
X176124086Y-58711151D02*
X175826467Y-59044485D01*
X175826467Y-59044485D02*
X175231229Y-59377818D01*
X175231229Y-59377818D02*
X174338372Y-59377818D01*
X179100277Y-54711151D02*
X179100277Y-61711151D01*
X179100277Y-55044485D02*
X179695515Y-54711151D01*
X179695515Y-54711151D02*
X180885991Y-54711151D01*
X180885991Y-54711151D02*
X181481229Y-55044485D01*
X181481229Y-55044485D02*
X181778848Y-55377818D01*
X181778848Y-55377818D02*
X182076467Y-56044485D01*
X182076467Y-56044485D02*
X182076467Y-58044485D01*
X182076467Y-58044485D02*
X181778848Y-58711151D01*
X181778848Y-58711151D02*
X181481229Y-59044485D01*
X181481229Y-59044485D02*
X180885991Y-59377818D01*
X180885991Y-59377818D02*
X179695515Y-59377818D01*
X179695515Y-59377818D02*
X179100277Y-59044485D01*
X184159801Y-54711151D02*
X185647896Y-59377818D01*
X187135991Y-54711151D02*
X185647896Y-59377818D01*
X185647896Y-59377818D02*
X185052658Y-61044485D01*
X185052658Y-61044485D02*
X184755039Y-61377818D01*
X184755039Y-61377818D02*
X184159801Y-61711151D01*
X196957420Y-59377818D02*
X196957420Y-55711151D01*
X196957420Y-55711151D02*
X196659801Y-55044485D01*
X196659801Y-55044485D02*
X196064563Y-54711151D01*
X196064563Y-54711151D02*
X194874087Y-54711151D01*
X194874087Y-54711151D02*
X194278849Y-55044485D01*
X196957420Y-59044485D02*
X196362182Y-59377818D01*
X196362182Y-59377818D02*
X194874087Y-59377818D01*
X194874087Y-59377818D02*
X194278849Y-59044485D01*
X194278849Y-59044485D02*
X193981230Y-58377818D01*
X193981230Y-58377818D02*
X193981230Y-57711151D01*
X193981230Y-57711151D02*
X194278849Y-57044485D01*
X194278849Y-57044485D02*
X194874087Y-56711151D01*
X194874087Y-56711151D02*
X196362182Y-56711151D01*
X196362182Y-56711151D02*
X196957420Y-56377818D01*
X199933611Y-54711151D02*
X199933611Y-59377818D01*
X199933611Y-55377818D02*
X200231230Y-55044485D01*
X200231230Y-55044485D02*
X200826468Y-54711151D01*
X200826468Y-54711151D02*
X201719325Y-54711151D01*
X201719325Y-54711151D02*
X202314563Y-55044485D01*
X202314563Y-55044485D02*
X202612182Y-55711151D01*
X202612182Y-55711151D02*
X202612182Y-59377818D01*
X208266944Y-59377818D02*
X208266944Y-52377818D01*
X208266944Y-59044485D02*
X207671706Y-59377818D01*
X207671706Y-59377818D02*
X206481230Y-59377818D01*
X206481230Y-59377818D02*
X205885992Y-59044485D01*
X205885992Y-59044485D02*
X205588373Y-58711151D01*
X205588373Y-58711151D02*
X205290754Y-58044485D01*
X205290754Y-58044485D02*
X205290754Y-56044485D01*
X205290754Y-56044485D02*
X205588373Y-55377818D01*
X205588373Y-55377818D02*
X205885992Y-55044485D01*
X205885992Y-55044485D02*
X206481230Y-54711151D01*
X206481230Y-54711151D02*
X207671706Y-54711151D01*
X207671706Y-54711151D02*
X208266944Y-55044485D01*
X216005040Y-54711151D02*
X216005040Y-61711151D01*
X216005040Y-55044485D02*
X216600278Y-54711151D01*
X216600278Y-54711151D02*
X217790754Y-54711151D01*
X217790754Y-54711151D02*
X218385992Y-55044485D01*
X218385992Y-55044485D02*
X218683611Y-55377818D01*
X218683611Y-55377818D02*
X218981230Y-56044485D01*
X218981230Y-56044485D02*
X218981230Y-58044485D01*
X218981230Y-58044485D02*
X218683611Y-58711151D01*
X218683611Y-58711151D02*
X218385992Y-59044485D01*
X218385992Y-59044485D02*
X217790754Y-59377818D01*
X217790754Y-59377818D02*
X216600278Y-59377818D01*
X216600278Y-59377818D02*
X216005040Y-59044485D01*
X224338373Y-59377818D02*
X224338373Y-55711151D01*
X224338373Y-55711151D02*
X224040754Y-55044485D01*
X224040754Y-55044485D02*
X223445516Y-54711151D01*
X223445516Y-54711151D02*
X222255040Y-54711151D01*
X222255040Y-54711151D02*
X221659802Y-55044485D01*
X224338373Y-59044485D02*
X223743135Y-59377818D01*
X223743135Y-59377818D02*
X222255040Y-59377818D01*
X222255040Y-59377818D02*
X221659802Y-59044485D01*
X221659802Y-59044485D02*
X221362183Y-58377818D01*
X221362183Y-58377818D02*
X221362183Y-57711151D01*
X221362183Y-57711151D02*
X221659802Y-57044485D01*
X221659802Y-57044485D02*
X222255040Y-56711151D01*
X222255040Y-56711151D02*
X223743135Y-56711151D01*
X223743135Y-56711151D02*
X224338373Y-56377818D01*
X227016945Y-59044485D02*
X227612183Y-59377818D01*
X227612183Y-59377818D02*
X228802659Y-59377818D01*
X228802659Y-59377818D02*
X229397897Y-59044485D01*
X229397897Y-59044485D02*
X229695516Y-58377818D01*
X229695516Y-58377818D02*
X229695516Y-58044485D01*
X229695516Y-58044485D02*
X229397897Y-57377818D01*
X229397897Y-57377818D02*
X228802659Y-57044485D01*
X228802659Y-57044485D02*
X227909802Y-57044485D01*
X227909802Y-57044485D02*
X227314564Y-56711151D01*
X227314564Y-56711151D02*
X227016945Y-56044485D01*
X227016945Y-56044485D02*
X227016945Y-55711151D01*
X227016945Y-55711151D02*
X227314564Y-55044485D01*
X227314564Y-55044485D02*
X227909802Y-54711151D01*
X227909802Y-54711151D02*
X228802659Y-54711151D01*
X228802659Y-54711151D02*
X229397897Y-55044485D01*
X231481231Y-54711151D02*
X233862183Y-54711151D01*
X232374088Y-52377818D02*
X232374088Y-58377818D01*
X232374088Y-58377818D02*
X232671707Y-59044485D01*
X232671707Y-59044485D02*
X233266945Y-59377818D01*
X233266945Y-59377818D02*
X233862183Y-59377818D01*
X238326469Y-59044485D02*
X237731231Y-59377818D01*
X237731231Y-59377818D02*
X236540755Y-59377818D01*
X236540755Y-59377818D02*
X235945517Y-59044485D01*
X235945517Y-59044485D02*
X235647898Y-58377818D01*
X235647898Y-58377818D02*
X235647898Y-55711151D01*
X235647898Y-55711151D02*
X235945517Y-55044485D01*
X235945517Y-55044485D02*
X236540755Y-54711151D01*
X236540755Y-54711151D02*
X237731231Y-54711151D01*
X237731231Y-54711151D02*
X238326469Y-55044485D01*
X238326469Y-55044485D02*
X238624088Y-55711151D01*
X238624088Y-55711151D02*
X238624088Y-56377818D01*
X238624088Y-56377818D02*
X235647898Y-57044485D01*
X72255037Y-70314093D02*
X72850275Y-70647426D01*
X72850275Y-70647426D02*
X74040751Y-70647426D01*
X74040751Y-70647426D02*
X74635989Y-70314093D01*
X74635989Y-70314093D02*
X74933608Y-69647426D01*
X74933608Y-69647426D02*
X74933608Y-69314093D01*
X74933608Y-69314093D02*
X74635989Y-68647426D01*
X74635989Y-68647426D02*
X74040751Y-68314093D01*
X74040751Y-68314093D02*
X73147894Y-68314093D01*
X73147894Y-68314093D02*
X72552656Y-67980759D01*
X72552656Y-67980759D02*
X72255037Y-67314093D01*
X72255037Y-67314093D02*
X72255037Y-66980759D01*
X72255037Y-66980759D02*
X72552656Y-66314093D01*
X72552656Y-66314093D02*
X73147894Y-65980759D01*
X73147894Y-65980759D02*
X74040751Y-65980759D01*
X74040751Y-65980759D02*
X74635989Y-66314093D01*
X77612180Y-70647426D02*
X77612180Y-65980759D01*
X77612180Y-63647426D02*
X77314561Y-63980759D01*
X77314561Y-63980759D02*
X77612180Y-64314093D01*
X77612180Y-64314093D02*
X77909799Y-63980759D01*
X77909799Y-63980759D02*
X77612180Y-63647426D01*
X77612180Y-63647426D02*
X77612180Y-64314093D01*
X80588370Y-65980759D02*
X80588370Y-70647426D01*
X80588370Y-66647426D02*
X80885989Y-66314093D01*
X80885989Y-66314093D02*
X81481227Y-65980759D01*
X81481227Y-65980759D02*
X82374084Y-65980759D01*
X82374084Y-65980759D02*
X82969322Y-66314093D01*
X82969322Y-66314093D02*
X83266941Y-66980759D01*
X83266941Y-66980759D02*
X83266941Y-70647426D01*
X88921703Y-70314093D02*
X88326465Y-70647426D01*
X88326465Y-70647426D02*
X87135989Y-70647426D01*
X87135989Y-70647426D02*
X86540751Y-70314093D01*
X86540751Y-70314093D02*
X86243132Y-69980759D01*
X86243132Y-69980759D02*
X85945513Y-69314093D01*
X85945513Y-69314093D02*
X85945513Y-67314093D01*
X85945513Y-67314093D02*
X86243132Y-66647426D01*
X86243132Y-66647426D02*
X86540751Y-66314093D01*
X86540751Y-66314093D02*
X87135989Y-65980759D01*
X87135989Y-65980759D02*
X88326465Y-65980759D01*
X88326465Y-65980759D02*
X88921703Y-66314093D01*
X93981227Y-70314093D02*
X93385989Y-70647426D01*
X93385989Y-70647426D02*
X92195513Y-70647426D01*
X92195513Y-70647426D02*
X91600275Y-70314093D01*
X91600275Y-70314093D02*
X91302656Y-69647426D01*
X91302656Y-69647426D02*
X91302656Y-66980759D01*
X91302656Y-66980759D02*
X91600275Y-66314093D01*
X91600275Y-66314093D02*
X92195513Y-65980759D01*
X92195513Y-65980759D02*
X93385989Y-65980759D01*
X93385989Y-65980759D02*
X93981227Y-66314093D01*
X93981227Y-66314093D02*
X94278846Y-66980759D01*
X94278846Y-66980759D02*
X94278846Y-67647426D01*
X94278846Y-67647426D02*
X91302656Y-68314093D01*
X100826466Y-65980759D02*
X103207418Y-65980759D01*
X101719323Y-63647426D02*
X101719323Y-69647426D01*
X101719323Y-69647426D02*
X102016942Y-70314093D01*
X102016942Y-70314093D02*
X102612180Y-70647426D01*
X102612180Y-70647426D02*
X103207418Y-70647426D01*
X105290752Y-70647426D02*
X105290752Y-63647426D01*
X107969323Y-70647426D02*
X107969323Y-66980759D01*
X107969323Y-66980759D02*
X107671704Y-66314093D01*
X107671704Y-66314093D02*
X107076466Y-65980759D01*
X107076466Y-65980759D02*
X106183609Y-65980759D01*
X106183609Y-65980759D02*
X105588371Y-66314093D01*
X105588371Y-66314093D02*
X105290752Y-66647426D01*
X113326466Y-70314093D02*
X112731228Y-70647426D01*
X112731228Y-70647426D02*
X111540752Y-70647426D01*
X111540752Y-70647426D02*
X110945514Y-70314093D01*
X110945514Y-70314093D02*
X110647895Y-69647426D01*
X110647895Y-69647426D02*
X110647895Y-66980759D01*
X110647895Y-66980759D02*
X110945514Y-66314093D01*
X110945514Y-66314093D02*
X111540752Y-65980759D01*
X111540752Y-65980759D02*
X112731228Y-65980759D01*
X112731228Y-65980759D02*
X113326466Y-66314093D01*
X113326466Y-66314093D02*
X113624085Y-66980759D01*
X113624085Y-66980759D02*
X113624085Y-67647426D01*
X113624085Y-67647426D02*
X110647895Y-68314093D01*
X115707419Y-65980759D02*
X117195514Y-70647426D01*
X118683609Y-65980759D02*
X117195514Y-70647426D01*
X117195514Y-70647426D02*
X116600276Y-72314093D01*
X116600276Y-72314093D02*
X116302657Y-72647426D01*
X116302657Y-72647426D02*
X115707419Y-72980759D01*
X121362181Y-63647426D02*
X120766943Y-64980759D01*
X124040752Y-70647426D02*
X124040752Y-65980759D01*
X124040752Y-67314093D02*
X124338371Y-66647426D01*
X124338371Y-66647426D02*
X124635990Y-66314093D01*
X124635990Y-66314093D02*
X125231228Y-65980759D01*
X125231228Y-65980759D02*
X125826466Y-65980759D01*
X130290752Y-70314093D02*
X129695514Y-70647426D01*
X129695514Y-70647426D02*
X128505038Y-70647426D01*
X128505038Y-70647426D02*
X127909800Y-70314093D01*
X127909800Y-70314093D02*
X127612181Y-69647426D01*
X127612181Y-69647426D02*
X127612181Y-66980759D01*
X127612181Y-66980759D02*
X127909800Y-66314093D01*
X127909800Y-66314093D02*
X128505038Y-65980759D01*
X128505038Y-65980759D02*
X129695514Y-65980759D01*
X129695514Y-65980759D02*
X130290752Y-66314093D01*
X130290752Y-66314093D02*
X130588371Y-66980759D01*
X130588371Y-66980759D02*
X130588371Y-67647426D01*
X130588371Y-67647426D02*
X127612181Y-68314093D01*
X138028848Y-65980759D02*
X138028848Y-70647426D01*
X138028848Y-66647426D02*
X138326467Y-66314093D01*
X138326467Y-66314093D02*
X138921705Y-65980759D01*
X138921705Y-65980759D02*
X139814562Y-65980759D01*
X139814562Y-65980759D02*
X140409800Y-66314093D01*
X140409800Y-66314093D02*
X140707419Y-66980759D01*
X140707419Y-66980759D02*
X140707419Y-70647426D01*
X144576467Y-70647426D02*
X143981229Y-70314093D01*
X143981229Y-70314093D02*
X143683610Y-69980759D01*
X143683610Y-69980759D02*
X143385991Y-69314093D01*
X143385991Y-69314093D02*
X143385991Y-67314093D01*
X143385991Y-67314093D02*
X143683610Y-66647426D01*
X143683610Y-66647426D02*
X143981229Y-66314093D01*
X143981229Y-66314093D02*
X144576467Y-65980759D01*
X144576467Y-65980759D02*
X145469324Y-65980759D01*
X145469324Y-65980759D02*
X146064562Y-66314093D01*
X146064562Y-66314093D02*
X146362181Y-66647426D01*
X146362181Y-66647426D02*
X146659800Y-67314093D01*
X146659800Y-67314093D02*
X146659800Y-69314093D01*
X146659800Y-69314093D02*
X146362181Y-69980759D01*
X146362181Y-69980759D02*
X146064562Y-70314093D01*
X146064562Y-70314093D02*
X145469324Y-70647426D01*
X145469324Y-70647426D02*
X144576467Y-70647426D01*
X148445515Y-65980759D02*
X150826467Y-65980759D01*
X149338372Y-63647426D02*
X149338372Y-69647426D01*
X149338372Y-69647426D02*
X149635991Y-70314093D01*
X149635991Y-70314093D02*
X150231229Y-70647426D01*
X150231229Y-70647426D02*
X150826467Y-70647426D01*
X158564563Y-70647426D02*
X157969325Y-70314093D01*
X157969325Y-70314093D02*
X157671706Y-69980759D01*
X157671706Y-69980759D02*
X157374087Y-69314093D01*
X157374087Y-69314093D02*
X157374087Y-67314093D01*
X157374087Y-67314093D02*
X157671706Y-66647426D01*
X157671706Y-66647426D02*
X157969325Y-66314093D01*
X157969325Y-66314093D02*
X158564563Y-65980759D01*
X158564563Y-65980759D02*
X159457420Y-65980759D01*
X159457420Y-65980759D02*
X160052658Y-66314093D01*
X160052658Y-66314093D02*
X160350277Y-66647426D01*
X160350277Y-66647426D02*
X160647896Y-67314093D01*
X160647896Y-67314093D02*
X160647896Y-69314093D01*
X160647896Y-69314093D02*
X160350277Y-69980759D01*
X160350277Y-69980759D02*
X160052658Y-70314093D01*
X160052658Y-70314093D02*
X159457420Y-70647426D01*
X159457420Y-70647426D02*
X158564563Y-70647426D01*
X163326468Y-65980759D02*
X163326468Y-70647426D01*
X163326468Y-66647426D02*
X163624087Y-66314093D01*
X163624087Y-66314093D02*
X164219325Y-65980759D01*
X164219325Y-65980759D02*
X165112182Y-65980759D01*
X165112182Y-65980759D02*
X165707420Y-66314093D01*
X165707420Y-66314093D02*
X166005039Y-66980759D01*
X166005039Y-66980759D02*
X166005039Y-70647426D01*
X172850278Y-65980759D02*
X175231230Y-65980759D01*
X173743135Y-63647426D02*
X173743135Y-69647426D01*
X173743135Y-69647426D02*
X174040754Y-70314093D01*
X174040754Y-70314093D02*
X174635992Y-70647426D01*
X174635992Y-70647426D02*
X175231230Y-70647426D01*
X177314564Y-70647426D02*
X177314564Y-63647426D01*
X179993135Y-70647426D02*
X179993135Y-66980759D01*
X179993135Y-66980759D02*
X179695516Y-66314093D01*
X179695516Y-66314093D02*
X179100278Y-65980759D01*
X179100278Y-65980759D02*
X178207421Y-65980759D01*
X178207421Y-65980759D02*
X177612183Y-66314093D01*
X177612183Y-66314093D02*
X177314564Y-66647426D01*
X182969326Y-70647426D02*
X182969326Y-65980759D01*
X182969326Y-63647426D02*
X182671707Y-63980759D01*
X182671707Y-63980759D02*
X182969326Y-64314093D01*
X182969326Y-64314093D02*
X183266945Y-63980759D01*
X183266945Y-63980759D02*
X182969326Y-63647426D01*
X182969326Y-63647426D02*
X182969326Y-64314093D01*
X185647897Y-70314093D02*
X186243135Y-70647426D01*
X186243135Y-70647426D02*
X187433611Y-70647426D01*
X187433611Y-70647426D02*
X188028849Y-70314093D01*
X188028849Y-70314093D02*
X188326468Y-69647426D01*
X188326468Y-69647426D02*
X188326468Y-69314093D01*
X188326468Y-69314093D02*
X188028849Y-68647426D01*
X188028849Y-68647426D02*
X187433611Y-68314093D01*
X187433611Y-68314093D02*
X186540754Y-68314093D01*
X186540754Y-68314093D02*
X185945516Y-67980759D01*
X185945516Y-67980759D02*
X185647897Y-67314093D01*
X185647897Y-67314093D02*
X185647897Y-66980759D01*
X185647897Y-66980759D02*
X185945516Y-66314093D01*
X185945516Y-66314093D02*
X186540754Y-65980759D01*
X186540754Y-65980759D02*
X187433611Y-65980759D01*
X187433611Y-65980759D02*
X188028849Y-66314093D01*
X195766945Y-70647426D02*
X195766945Y-63647426D01*
X196362183Y-67980759D02*
X198147897Y-70647426D01*
X198147897Y-65980759D02*
X195766945Y-68647426D01*
X203207421Y-70314093D02*
X202612183Y-70647426D01*
X202612183Y-70647426D02*
X201421707Y-70647426D01*
X201421707Y-70647426D02*
X200826469Y-70314093D01*
X200826469Y-70314093D02*
X200528850Y-69647426D01*
X200528850Y-69647426D02*
X200528850Y-66980759D01*
X200528850Y-66980759D02*
X200826469Y-66314093D01*
X200826469Y-66314093D02*
X201421707Y-65980759D01*
X201421707Y-65980759D02*
X202612183Y-65980759D01*
X202612183Y-65980759D02*
X203207421Y-66314093D01*
X203207421Y-66314093D02*
X203505040Y-66980759D01*
X203505040Y-66980759D02*
X203505040Y-67647426D01*
X203505040Y-67647426D02*
X200528850Y-68314093D01*
X205588374Y-65980759D02*
X207076469Y-70647426D01*
X208564564Y-65980759D02*
X207076469Y-70647426D01*
X207076469Y-70647426D02*
X206481231Y-72314093D01*
X206481231Y-72314093D02*
X206183612Y-72647426D01*
X206183612Y-72647426D02*
X205588374Y-72980759D01*
X210945517Y-70647426D02*
X210945517Y-63647426D01*
X210945517Y-66314093D02*
X211540755Y-65980759D01*
X211540755Y-65980759D02*
X212731231Y-65980759D01*
X212731231Y-65980759D02*
X213326469Y-66314093D01*
X213326469Y-66314093D02*
X213624088Y-66647426D01*
X213624088Y-66647426D02*
X213921707Y-67314093D01*
X213921707Y-67314093D02*
X213921707Y-69314093D01*
X213921707Y-69314093D02*
X213624088Y-69980759D01*
X213624088Y-69980759D02*
X213326469Y-70314093D01*
X213326469Y-70314093D02*
X212731231Y-70647426D01*
X212731231Y-70647426D02*
X211540755Y-70647426D01*
X211540755Y-70647426D02*
X210945517Y-70314093D01*
X217493136Y-70647426D02*
X216897898Y-70314093D01*
X216897898Y-70314093D02*
X216600279Y-69980759D01*
X216600279Y-69980759D02*
X216302660Y-69314093D01*
X216302660Y-69314093D02*
X216302660Y-67314093D01*
X216302660Y-67314093D02*
X216600279Y-66647426D01*
X216600279Y-66647426D02*
X216897898Y-66314093D01*
X216897898Y-66314093D02*
X217493136Y-65980759D01*
X217493136Y-65980759D02*
X218385993Y-65980759D01*
X218385993Y-65980759D02*
X218981231Y-66314093D01*
X218981231Y-66314093D02*
X219278850Y-66647426D01*
X219278850Y-66647426D02*
X219576469Y-67314093D01*
X219576469Y-67314093D02*
X219576469Y-69314093D01*
X219576469Y-69314093D02*
X219278850Y-69980759D01*
X219278850Y-69980759D02*
X218981231Y-70314093D01*
X218981231Y-70314093D02*
X218385993Y-70647426D01*
X218385993Y-70647426D02*
X217493136Y-70647426D01*
X224933612Y-70647426D02*
X224933612Y-66980759D01*
X224933612Y-66980759D02*
X224635993Y-66314093D01*
X224635993Y-66314093D02*
X224040755Y-65980759D01*
X224040755Y-65980759D02*
X222850279Y-65980759D01*
X222850279Y-65980759D02*
X222255041Y-66314093D01*
X224933612Y-70314093D02*
X224338374Y-70647426D01*
X224338374Y-70647426D02*
X222850279Y-70647426D01*
X222850279Y-70647426D02*
X222255041Y-70314093D01*
X222255041Y-70314093D02*
X221957422Y-69647426D01*
X221957422Y-69647426D02*
X221957422Y-68980759D01*
X221957422Y-68980759D02*
X222255041Y-68314093D01*
X222255041Y-68314093D02*
X222850279Y-67980759D01*
X222850279Y-67980759D02*
X224338374Y-67980759D01*
X224338374Y-67980759D02*
X224933612Y-67647426D01*
X227909803Y-70647426D02*
X227909803Y-65980759D01*
X227909803Y-67314093D02*
X228207422Y-66647426D01*
X228207422Y-66647426D02*
X228505041Y-66314093D01*
X228505041Y-66314093D02*
X229100279Y-65980759D01*
X229100279Y-65980759D02*
X229695517Y-65980759D01*
X234457422Y-70647426D02*
X234457422Y-63647426D01*
X234457422Y-70314093D02*
X233862184Y-70647426D01*
X233862184Y-70647426D02*
X232671708Y-70647426D01*
X232671708Y-70647426D02*
X232076470Y-70314093D01*
X232076470Y-70314093D02*
X231778851Y-69980759D01*
X231778851Y-69980759D02*
X231481232Y-69314093D01*
X231481232Y-69314093D02*
X231481232Y-67314093D01*
X231481232Y-67314093D02*
X231778851Y-66647426D01*
X231778851Y-66647426D02*
X232076470Y-66314093D01*
X232076470Y-66314093D02*
X232671708Y-65980759D01*
X232671708Y-65980759D02*
X233862184Y-65980759D01*
X233862184Y-65980759D02*
X234457422Y-66314093D01*
X237433613Y-69980759D02*
X237731232Y-70314093D01*
X237731232Y-70314093D02*
X237433613Y-70647426D01*
X237433613Y-70647426D02*
X237135994Y-70314093D01*
X237135994Y-70314093D02*
X237433613Y-69980759D01*
X237433613Y-69980759D02*
X237433613Y-70647426D01*
X237433613Y-66314093D02*
X237731232Y-66647426D01*
X237731232Y-66647426D02*
X237433613Y-66980759D01*
X237433613Y-66980759D02*
X237135994Y-66647426D01*
X237135994Y-66647426D02*
X237433613Y-66314093D01*
X237433613Y-66314093D02*
X237433613Y-66980759D01*
X68981227Y-77250367D02*
X71362179Y-77250367D01*
X69874084Y-74917034D02*
X69874084Y-80917034D01*
X69874084Y-80917034D02*
X70171703Y-81583701D01*
X70171703Y-81583701D02*
X70766941Y-81917034D01*
X70766941Y-81917034D02*
X71362179Y-81917034D01*
X76124084Y-81917034D02*
X76124084Y-78250367D01*
X76124084Y-78250367D02*
X75826465Y-77583701D01*
X75826465Y-77583701D02*
X75231227Y-77250367D01*
X75231227Y-77250367D02*
X74040751Y-77250367D01*
X74040751Y-77250367D02*
X73445513Y-77583701D01*
X76124084Y-81583701D02*
X75528846Y-81917034D01*
X75528846Y-81917034D02*
X74040751Y-81917034D01*
X74040751Y-81917034D02*
X73445513Y-81583701D01*
X73445513Y-81583701D02*
X73147894Y-80917034D01*
X73147894Y-80917034D02*
X73147894Y-80250367D01*
X73147894Y-80250367D02*
X73445513Y-79583701D01*
X73445513Y-79583701D02*
X74040751Y-79250367D01*
X74040751Y-79250367D02*
X75528846Y-79250367D01*
X75528846Y-79250367D02*
X76124084Y-78917034D01*
X79100275Y-81917034D02*
X79100275Y-74917034D01*
X79100275Y-77583701D02*
X79695513Y-77250367D01*
X79695513Y-77250367D02*
X80885989Y-77250367D01*
X80885989Y-77250367D02*
X81481227Y-77583701D01*
X81481227Y-77583701D02*
X81778846Y-77917034D01*
X81778846Y-77917034D02*
X82076465Y-78583701D01*
X82076465Y-78583701D02*
X82076465Y-80583701D01*
X82076465Y-80583701D02*
X81778846Y-81250367D01*
X81778846Y-81250367D02*
X81481227Y-81583701D01*
X81481227Y-81583701D02*
X80885989Y-81917034D01*
X80885989Y-81917034D02*
X79695513Y-81917034D01*
X79695513Y-81917034D02*
X79100275Y-81583701D01*
X91897894Y-81583701D02*
X91302656Y-81917034D01*
X91302656Y-81917034D02*
X90112180Y-81917034D01*
X90112180Y-81917034D02*
X89516942Y-81583701D01*
X89516942Y-81583701D02*
X89219323Y-80917034D01*
X89219323Y-80917034D02*
X89219323Y-78250367D01*
X89219323Y-78250367D02*
X89516942Y-77583701D01*
X89516942Y-77583701D02*
X90112180Y-77250367D01*
X90112180Y-77250367D02*
X91302656Y-77250367D01*
X91302656Y-77250367D02*
X91897894Y-77583701D01*
X91897894Y-77583701D02*
X92195513Y-78250367D01*
X92195513Y-78250367D02*
X92195513Y-78917034D01*
X92195513Y-78917034D02*
X89219323Y-79583701D01*
X94576466Y-81583701D02*
X95171704Y-81917034D01*
X95171704Y-81917034D02*
X96362180Y-81917034D01*
X96362180Y-81917034D02*
X96957418Y-81583701D01*
X96957418Y-81583701D02*
X97255037Y-80917034D01*
X97255037Y-80917034D02*
X97255037Y-80583701D01*
X97255037Y-80583701D02*
X96957418Y-79917034D01*
X96957418Y-79917034D02*
X96362180Y-79583701D01*
X96362180Y-79583701D02*
X95469323Y-79583701D01*
X95469323Y-79583701D02*
X94874085Y-79250367D01*
X94874085Y-79250367D02*
X94576466Y-78583701D01*
X94576466Y-78583701D02*
X94576466Y-78250367D01*
X94576466Y-78250367D02*
X94874085Y-77583701D01*
X94874085Y-77583701D02*
X95469323Y-77250367D01*
X95469323Y-77250367D02*
X96362180Y-77250367D01*
X96362180Y-77250367D02*
X96957418Y-77583701D01*
X102612180Y-81583701D02*
X102016942Y-81917034D01*
X102016942Y-81917034D02*
X100826466Y-81917034D01*
X100826466Y-81917034D02*
X100231228Y-81583701D01*
X100231228Y-81583701D02*
X99933609Y-81250367D01*
X99933609Y-81250367D02*
X99635990Y-80583701D01*
X99635990Y-80583701D02*
X99635990Y-78583701D01*
X99635990Y-78583701D02*
X99933609Y-77917034D01*
X99933609Y-77917034D02*
X100231228Y-77583701D01*
X100231228Y-77583701D02*
X100826466Y-77250367D01*
X100826466Y-77250367D02*
X102016942Y-77250367D01*
X102016942Y-77250367D02*
X102612180Y-77583701D01*
X110052657Y-81917034D02*
X110052657Y-74917034D01*
X110052657Y-77583701D02*
X110647895Y-77250367D01*
X110647895Y-77250367D02*
X111838371Y-77250367D01*
X111838371Y-77250367D02*
X112433609Y-77583701D01*
X112433609Y-77583701D02*
X112731228Y-77917034D01*
X112731228Y-77917034D02*
X113028847Y-78583701D01*
X113028847Y-78583701D02*
X113028847Y-80583701D01*
X113028847Y-80583701D02*
X112731228Y-81250367D01*
X112731228Y-81250367D02*
X112433609Y-81583701D01*
X112433609Y-81583701D02*
X111838371Y-81917034D01*
X111838371Y-81917034D02*
X110647895Y-81917034D01*
X110647895Y-81917034D02*
X110052657Y-81583701D01*
X118385990Y-81917034D02*
X118385990Y-78250367D01*
X118385990Y-78250367D02*
X118088371Y-77583701D01*
X118088371Y-77583701D02*
X117493133Y-77250367D01*
X117493133Y-77250367D02*
X116302657Y-77250367D01*
X116302657Y-77250367D02*
X115707419Y-77583701D01*
X118385990Y-81583701D02*
X117790752Y-81917034D01*
X117790752Y-81917034D02*
X116302657Y-81917034D01*
X116302657Y-81917034D02*
X115707419Y-81583701D01*
X115707419Y-81583701D02*
X115409800Y-80917034D01*
X115409800Y-80917034D02*
X115409800Y-80250367D01*
X115409800Y-80250367D02*
X115707419Y-79583701D01*
X115707419Y-79583701D02*
X116302657Y-79250367D01*
X116302657Y-79250367D02*
X117790752Y-79250367D01*
X117790752Y-79250367D02*
X118385990Y-78917034D01*
X124040752Y-81583701D02*
X123445514Y-81917034D01*
X123445514Y-81917034D02*
X122255038Y-81917034D01*
X122255038Y-81917034D02*
X121659800Y-81583701D01*
X121659800Y-81583701D02*
X121362181Y-81250367D01*
X121362181Y-81250367D02*
X121064562Y-80583701D01*
X121064562Y-80583701D02*
X121064562Y-78583701D01*
X121064562Y-78583701D02*
X121362181Y-77917034D01*
X121362181Y-77917034D02*
X121659800Y-77583701D01*
X121659800Y-77583701D02*
X122255038Y-77250367D01*
X122255038Y-77250367D02*
X123445514Y-77250367D01*
X123445514Y-77250367D02*
X124040752Y-77583701D01*
X126719324Y-81917034D02*
X126719324Y-74917034D01*
X127314562Y-79250367D02*
X129100276Y-81917034D01*
X129100276Y-77250367D02*
X126719324Y-79917034D01*
X131481229Y-81583701D02*
X132076467Y-81917034D01*
X132076467Y-81917034D02*
X133266943Y-81917034D01*
X133266943Y-81917034D02*
X133862181Y-81583701D01*
X133862181Y-81583701D02*
X134159800Y-80917034D01*
X134159800Y-80917034D02*
X134159800Y-80583701D01*
X134159800Y-80583701D02*
X133862181Y-79917034D01*
X133862181Y-79917034D02*
X133266943Y-79583701D01*
X133266943Y-79583701D02*
X132374086Y-79583701D01*
X132374086Y-79583701D02*
X131778848Y-79250367D01*
X131778848Y-79250367D02*
X131481229Y-78583701D01*
X131481229Y-78583701D02*
X131481229Y-78250367D01*
X131481229Y-78250367D02*
X131778848Y-77583701D01*
X131778848Y-77583701D02*
X132374086Y-77250367D01*
X132374086Y-77250367D02*
X133266943Y-77250367D01*
X133266943Y-77250367D02*
X133862181Y-77583701D01*
X136838372Y-77250367D02*
X136838372Y-84250367D01*
X136838372Y-77583701D02*
X137433610Y-77250367D01*
X137433610Y-77250367D02*
X138624086Y-77250367D01*
X138624086Y-77250367D02*
X139219324Y-77583701D01*
X139219324Y-77583701D02*
X139516943Y-77917034D01*
X139516943Y-77917034D02*
X139814562Y-78583701D01*
X139814562Y-78583701D02*
X139814562Y-80583701D01*
X139814562Y-80583701D02*
X139516943Y-81250367D01*
X139516943Y-81250367D02*
X139219324Y-81583701D01*
X139219324Y-81583701D02*
X138624086Y-81917034D01*
X138624086Y-81917034D02*
X137433610Y-81917034D01*
X137433610Y-81917034D02*
X136838372Y-81583701D01*
X145171705Y-81917034D02*
X145171705Y-78250367D01*
X145171705Y-78250367D02*
X144874086Y-77583701D01*
X144874086Y-77583701D02*
X144278848Y-77250367D01*
X144278848Y-77250367D02*
X143088372Y-77250367D01*
X143088372Y-77250367D02*
X142493134Y-77583701D01*
X145171705Y-81583701D02*
X144576467Y-81917034D01*
X144576467Y-81917034D02*
X143088372Y-81917034D01*
X143088372Y-81917034D02*
X142493134Y-81583701D01*
X142493134Y-81583701D02*
X142195515Y-80917034D01*
X142195515Y-80917034D02*
X142195515Y-80250367D01*
X142195515Y-80250367D02*
X142493134Y-79583701D01*
X142493134Y-79583701D02*
X143088372Y-79250367D01*
X143088372Y-79250367D02*
X144576467Y-79250367D01*
X144576467Y-79250367D02*
X145171705Y-78917034D01*
X150826467Y-81583701D02*
X150231229Y-81917034D01*
X150231229Y-81917034D02*
X149040753Y-81917034D01*
X149040753Y-81917034D02*
X148445515Y-81583701D01*
X148445515Y-81583701D02*
X148147896Y-81250367D01*
X148147896Y-81250367D02*
X147850277Y-80583701D01*
X147850277Y-80583701D02*
X147850277Y-78583701D01*
X147850277Y-78583701D02*
X148147896Y-77917034D01*
X148147896Y-77917034D02*
X148445515Y-77583701D01*
X148445515Y-77583701D02*
X149040753Y-77250367D01*
X149040753Y-77250367D02*
X150231229Y-77250367D01*
X150231229Y-77250367D02*
X150826467Y-77583701D01*
X155885991Y-81583701D02*
X155290753Y-81917034D01*
X155290753Y-81917034D02*
X154100277Y-81917034D01*
X154100277Y-81917034D02*
X153505039Y-81583701D01*
X153505039Y-81583701D02*
X153207420Y-80917034D01*
X153207420Y-80917034D02*
X153207420Y-78250367D01*
X153207420Y-78250367D02*
X153505039Y-77583701D01*
X153505039Y-77583701D02*
X154100277Y-77250367D01*
X154100277Y-77250367D02*
X155290753Y-77250367D01*
X155290753Y-77250367D02*
X155885991Y-77583701D01*
X155885991Y-77583701D02*
X156183610Y-78250367D01*
X156183610Y-78250367D02*
X156183610Y-78917034D01*
X156183610Y-78917034D02*
X153207420Y-79583701D01*
X166302658Y-81583701D02*
X165707420Y-81917034D01*
X165707420Y-81917034D02*
X164516944Y-81917034D01*
X164516944Y-81917034D02*
X163921706Y-81583701D01*
X163921706Y-81583701D02*
X163624087Y-81250367D01*
X163624087Y-81250367D02*
X163326468Y-80583701D01*
X163326468Y-80583701D02*
X163326468Y-78583701D01*
X163326468Y-78583701D02*
X163624087Y-77917034D01*
X163624087Y-77917034D02*
X163921706Y-77583701D01*
X163921706Y-77583701D02*
X164516944Y-77250367D01*
X164516944Y-77250367D02*
X165707420Y-77250367D01*
X165707420Y-77250367D02*
X166302658Y-77583701D01*
X171659801Y-81917034D02*
X171659801Y-78250367D01*
X171659801Y-78250367D02*
X171362182Y-77583701D01*
X171362182Y-77583701D02*
X170766944Y-77250367D01*
X170766944Y-77250367D02*
X169576468Y-77250367D01*
X169576468Y-77250367D02*
X168981230Y-77583701D01*
X171659801Y-81583701D02*
X171064563Y-81917034D01*
X171064563Y-81917034D02*
X169576468Y-81917034D01*
X169576468Y-81917034D02*
X168981230Y-81583701D01*
X168981230Y-81583701D02*
X168683611Y-80917034D01*
X168683611Y-80917034D02*
X168683611Y-80250367D01*
X168683611Y-80250367D02*
X168981230Y-79583701D01*
X168981230Y-79583701D02*
X169576468Y-79250367D01*
X169576468Y-79250367D02*
X171064563Y-79250367D01*
X171064563Y-79250367D02*
X171659801Y-78917034D01*
X174635992Y-77250367D02*
X174635992Y-84250367D01*
X174635992Y-77583701D02*
X175231230Y-77250367D01*
X175231230Y-77250367D02*
X176421706Y-77250367D01*
X176421706Y-77250367D02*
X177016944Y-77583701D01*
X177016944Y-77583701D02*
X177314563Y-77917034D01*
X177314563Y-77917034D02*
X177612182Y-78583701D01*
X177612182Y-78583701D02*
X177612182Y-80583701D01*
X177612182Y-80583701D02*
X177314563Y-81250367D01*
X177314563Y-81250367D02*
X177016944Y-81583701D01*
X177016944Y-81583701D02*
X176421706Y-81917034D01*
X176421706Y-81917034D02*
X175231230Y-81917034D01*
X175231230Y-81917034D02*
X174635992Y-81583701D01*
X179993135Y-81583701D02*
X180588373Y-81917034D01*
X180588373Y-81917034D02*
X181778849Y-81917034D01*
X181778849Y-81917034D02*
X182374087Y-81583701D01*
X182374087Y-81583701D02*
X182671706Y-80917034D01*
X182671706Y-80917034D02*
X182671706Y-80583701D01*
X182671706Y-80583701D02*
X182374087Y-79917034D01*
X182374087Y-79917034D02*
X181778849Y-79583701D01*
X181778849Y-79583701D02*
X180885992Y-79583701D01*
X180885992Y-79583701D02*
X180290754Y-79250367D01*
X180290754Y-79250367D02*
X179993135Y-78583701D01*
X179993135Y-78583701D02*
X179993135Y-78250367D01*
X179993135Y-78250367D02*
X180290754Y-77583701D01*
X180290754Y-77583701D02*
X180885992Y-77250367D01*
X180885992Y-77250367D02*
X181778849Y-77250367D01*
X181778849Y-77250367D02*
X182374087Y-77583701D01*
X186243135Y-81917034D02*
X185647897Y-81583701D01*
X185647897Y-81583701D02*
X185350278Y-80917034D01*
X185350278Y-80917034D02*
X185350278Y-74917034D01*
X189516945Y-81917034D02*
X188921707Y-81583701D01*
X188921707Y-81583701D02*
X188624088Y-81250367D01*
X188624088Y-81250367D02*
X188326469Y-80583701D01*
X188326469Y-80583701D02*
X188326469Y-78583701D01*
X188326469Y-78583701D02*
X188624088Y-77917034D01*
X188624088Y-77917034D02*
X188921707Y-77583701D01*
X188921707Y-77583701D02*
X189516945Y-77250367D01*
X189516945Y-77250367D02*
X190409802Y-77250367D01*
X190409802Y-77250367D02*
X191005040Y-77583701D01*
X191005040Y-77583701D02*
X191302659Y-77917034D01*
X191302659Y-77917034D02*
X191600278Y-78583701D01*
X191600278Y-78583701D02*
X191600278Y-80583701D01*
X191600278Y-80583701D02*
X191302659Y-81250367D01*
X191302659Y-81250367D02*
X191005040Y-81583701D01*
X191005040Y-81583701D02*
X190409802Y-81917034D01*
X190409802Y-81917034D02*
X189516945Y-81917034D01*
X196957421Y-81583701D02*
X196362183Y-81917034D01*
X196362183Y-81917034D02*
X195171707Y-81917034D01*
X195171707Y-81917034D02*
X194576469Y-81583701D01*
X194576469Y-81583701D02*
X194278850Y-81250367D01*
X194278850Y-81250367D02*
X193981231Y-80583701D01*
X193981231Y-80583701D02*
X193981231Y-78583701D01*
X193981231Y-78583701D02*
X194278850Y-77917034D01*
X194278850Y-77917034D02*
X194576469Y-77583701D01*
X194576469Y-77583701D02*
X195171707Y-77250367D01*
X195171707Y-77250367D02*
X196362183Y-77250367D01*
X196362183Y-77250367D02*
X196957421Y-77583701D01*
X199635993Y-81917034D02*
X199635993Y-74917034D01*
X200231231Y-79250367D02*
X202016945Y-81917034D01*
X202016945Y-77250367D02*
X199635993Y-79917034D01*
X208564565Y-74583701D02*
X209457422Y-75583701D01*
X215707422Y-79250367D02*
X216005041Y-78917034D01*
X216005041Y-78917034D02*
X216600279Y-78583701D01*
X216600279Y-78583701D02*
X217790755Y-79250367D01*
X217790755Y-79250367D02*
X218385993Y-78917034D01*
X218385993Y-78917034D02*
X218683612Y-78583701D01*
X225826470Y-79250367D02*
X230588375Y-79250367D01*
X236838375Y-82583701D02*
X241600279Y-82583701D01*
X71362180Y-89519975D02*
X76124085Y-89519975D01*
X76124085Y-91519975D02*
X71362180Y-91519975D01*
X83862180Y-90519975D02*
X88624085Y-90519975D01*
X86243132Y-93186642D02*
X86243132Y-87853309D01*
X98147894Y-95519975D02*
X96659799Y-95519975D01*
X96659799Y-95519975D02*
X96659799Y-85519975D01*
X96659799Y-85519975D02*
X98147894Y-85519975D01*
X107076466Y-95853309D02*
X106778847Y-95853309D01*
X106778847Y-95853309D02*
X106183609Y-95519975D01*
X106183609Y-95519975D02*
X105885990Y-94853309D01*
X105885990Y-94853309D02*
X105885990Y-91519975D01*
X105885990Y-91519975D02*
X105588371Y-90853309D01*
X105588371Y-90853309D02*
X104993133Y-90519975D01*
X104993133Y-90519975D02*
X105588371Y-90186642D01*
X105588371Y-90186642D02*
X105885990Y-89519975D01*
X105885990Y-89519975D02*
X105885990Y-86186642D01*
X105885990Y-86186642D02*
X106183609Y-85519975D01*
X106183609Y-85519975D02*
X106778847Y-85186642D01*
X106778847Y-85186642D02*
X107076466Y-85186642D01*
X113624086Y-95519975D02*
X115112181Y-95519975D01*
X115112181Y-95519975D02*
X115112181Y-85519975D01*
X115112181Y-85519975D02*
X113624086Y-85519975D01*
X122552658Y-95853309D02*
X122850277Y-95853309D01*
X122850277Y-95853309D02*
X123445515Y-95519975D01*
X123445515Y-95519975D02*
X123743134Y-94853309D01*
X123743134Y-94853309D02*
X123743134Y-91519975D01*
X123743134Y-91519975D02*
X124040753Y-90853309D01*
X124040753Y-90853309D02*
X124635991Y-90519975D01*
X124635991Y-90519975D02*
X124040753Y-90186642D01*
X124040753Y-90186642D02*
X123743134Y-89519975D01*
X123743134Y-89519975D02*
X123743134Y-86186642D01*
X123743134Y-86186642D02*
X123445515Y-85519975D01*
X123445515Y-85519975D02*
X122850277Y-85186642D01*
X122850277Y-85186642D02*
X122552658Y-85186642D01*
X132374087Y-92853309D02*
X132374087Y-93186642D01*
X132374087Y-93186642D02*
X132076468Y-93853309D01*
X132076468Y-93853309D02*
X131778849Y-94186642D01*
X132076468Y-88853309D02*
X132374087Y-89186642D01*
X132374087Y-89186642D02*
X132076468Y-89519975D01*
X132076468Y-89519975D02*
X131778849Y-89186642D01*
X131778849Y-89186642D02*
X132076468Y-88853309D01*
X132076468Y-88853309D02*
X132076468Y-89519975D01*
X139814563Y-92519975D02*
X140112182Y-92853309D01*
X140112182Y-92853309D02*
X139814563Y-93186642D01*
X139814563Y-93186642D02*
X139516944Y-92853309D01*
X139516944Y-92853309D02*
X139814563Y-92519975D01*
X139814563Y-92519975D02*
X139814563Y-93186642D01*
X139814563Y-88853309D02*
X140112182Y-89186642D01*
X140112182Y-89186642D02*
X139814563Y-89519975D01*
X139814563Y-89519975D02*
X139516944Y-89186642D01*
X139516944Y-89186642D02*
X139814563Y-88853309D01*
X139814563Y-88853309D02*
X139814563Y-89519975D01*
X147850277Y-86186642D02*
X147255039Y-87519975D01*
X154993134Y-86186642D02*
X154993134Y-87519975D01*
X157374086Y-86186642D02*
X157374086Y-87519975D01*
X162731229Y-85519975D02*
X168088372Y-94519975D01*
X175231230Y-95519975D02*
X175231230Y-85519975D01*
X184755040Y-92853309D02*
X184755040Y-93186642D01*
X184755040Y-93186642D02*
X184457421Y-93853309D01*
X184457421Y-93853309D02*
X184159802Y-94186642D01*
X196957421Y-88519975D02*
X192195516Y-90519975D01*
X192195516Y-90519975D02*
X196957421Y-92519975D01*
X204695516Y-92519975D02*
X204993135Y-92853309D01*
X204993135Y-92853309D02*
X204695516Y-93186642D01*
X204695516Y-93186642D02*
X204397897Y-92853309D01*
X204397897Y-92853309D02*
X204695516Y-92519975D01*
X204695516Y-92519975D02*
X204695516Y-93186642D01*
X212433611Y-88519975D02*
X217195516Y-90519975D01*
X217195516Y-90519975D02*
X212433611Y-92519975D01*
X229397896Y-85853309D02*
X224040754Y-94853309D01*
X237135992Y-92519975D02*
X237433611Y-92853309D01*
X237433611Y-92853309D02*
X237135992Y-93186642D01*
X237135992Y-93186642D02*
X236838373Y-92853309D01*
X236838373Y-92853309D02*
X237135992Y-92519975D01*
X237135992Y-92519975D02*
X237135992Y-93186642D01*
X235945516Y-86519975D02*
X236540754Y-86186642D01*
X236540754Y-86186642D02*
X238028849Y-86186642D01*
X238028849Y-86186642D02*
X238624087Y-86519975D01*
X238624087Y-86519975D02*
X238921706Y-87186642D01*
X238921706Y-87186642D02*
X238921706Y-87853309D01*
X238921706Y-87853309D02*
X238624087Y-88519975D01*
X238624087Y-88519975D02*
X238326468Y-88853309D01*
X238326468Y-88853309D02*
X237731230Y-89186642D01*
X237731230Y-89186642D02*
X237433611Y-89519975D01*
X237433611Y-89519975D02*
X237135992Y-90186642D01*
X237135992Y-90186642D02*
X237135992Y-90519975D01*
X73445511Y-99789583D02*
X75826463Y-99789583D01*
X74338368Y-104456250D02*
X74338368Y-98456250D01*
X74338368Y-98456250D02*
X74635987Y-97789583D01*
X74635987Y-97789583D02*
X75231225Y-97456250D01*
X75231225Y-97456250D02*
X75826463Y-97456250D01*
X81183606Y-104456250D02*
X77612178Y-104456250D01*
X79397892Y-104456250D02*
X79397892Y-97456250D01*
X79397892Y-97456250D02*
X78802654Y-98456250D01*
X78802654Y-98456250D02*
X78207416Y-99122917D01*
X78207416Y-99122917D02*
X77612178Y-99456250D01*
X87731226Y-99789583D02*
X90112178Y-99789583D01*
X88624083Y-104456250D02*
X88624083Y-98456250D01*
X88624083Y-98456250D02*
X88921702Y-97789583D01*
X88921702Y-97789583D02*
X89516940Y-97456250D01*
X89516940Y-97456250D02*
X90112178Y-97456250D01*
X91897893Y-98122917D02*
X92195512Y-97789583D01*
X92195512Y-97789583D02*
X92790750Y-97456250D01*
X92790750Y-97456250D02*
X94278845Y-97456250D01*
X94278845Y-97456250D02*
X94874083Y-97789583D01*
X94874083Y-97789583D02*
X95171702Y-98122917D01*
X95171702Y-98122917D02*
X95469321Y-98789583D01*
X95469321Y-98789583D02*
X95469321Y-99456250D01*
X95469321Y-99456250D02*
X95171702Y-100456250D01*
X95171702Y-100456250D02*
X91600274Y-104456250D01*
X91600274Y-104456250D02*
X95469321Y-104456250D01*
X102016941Y-99789583D02*
X104397893Y-99789583D01*
X102909798Y-104456250D02*
X102909798Y-98456250D01*
X102909798Y-98456250D02*
X103207417Y-97789583D01*
X103207417Y-97789583D02*
X103802655Y-97456250D01*
X103802655Y-97456250D02*
X104397893Y-97456250D01*
X105885989Y-97456250D02*
X109755036Y-97456250D01*
X109755036Y-97456250D02*
X107671703Y-100122917D01*
X107671703Y-100122917D02*
X108564560Y-100122917D01*
X108564560Y-100122917D02*
X109159798Y-100456250D01*
X109159798Y-100456250D02*
X109457417Y-100789583D01*
X109457417Y-100789583D02*
X109755036Y-101456250D01*
X109755036Y-101456250D02*
X109755036Y-103122917D01*
X109755036Y-103122917D02*
X109457417Y-103789583D01*
X109457417Y-103789583D02*
X109159798Y-104122917D01*
X109159798Y-104122917D02*
X108564560Y-104456250D01*
X108564560Y-104456250D02*
X106778846Y-104456250D01*
X106778846Y-104456250D02*
X106183608Y-104122917D01*
X106183608Y-104122917D02*
X105885989Y-103789583D01*
X116302656Y-99789583D02*
X118683608Y-99789583D01*
X117195513Y-104456250D02*
X117195513Y-98456250D01*
X117195513Y-98456250D02*
X117493132Y-97789583D01*
X117493132Y-97789583D02*
X118088370Y-97456250D01*
X118088370Y-97456250D02*
X118683608Y-97456250D01*
X123445513Y-99789583D02*
X123445513Y-104456250D01*
X121957418Y-97122917D02*
X120469323Y-102122917D01*
X120469323Y-102122917D02*
X124338370Y-102122917D01*
X130588371Y-99789583D02*
X132969323Y-99789583D01*
X131481228Y-104456250D02*
X131481228Y-98456250D01*
X131481228Y-98456250D02*
X131778847Y-97789583D01*
X131778847Y-97789583D02*
X132374085Y-97456250D01*
X132374085Y-97456250D02*
X132969323Y-97456250D01*
X138028847Y-97456250D02*
X135052657Y-97456250D01*
X135052657Y-97456250D02*
X134755038Y-100789583D01*
X134755038Y-100789583D02*
X135052657Y-100456250D01*
X135052657Y-100456250D02*
X135647895Y-100122917D01*
X135647895Y-100122917D02*
X137135990Y-100122917D01*
X137135990Y-100122917D02*
X137731228Y-100456250D01*
X137731228Y-100456250D02*
X138028847Y-100789583D01*
X138028847Y-100789583D02*
X138326466Y-101456250D01*
X138326466Y-101456250D02*
X138326466Y-103122917D01*
X138326466Y-103122917D02*
X138028847Y-103789583D01*
X138028847Y-103789583D02*
X137731228Y-104122917D01*
X137731228Y-104122917D02*
X137135990Y-104456250D01*
X137135990Y-104456250D02*
X135647895Y-104456250D01*
X135647895Y-104456250D02*
X135052657Y-104122917D01*
X135052657Y-104122917D02*
X134755038Y-103789583D01*
X144874086Y-99789583D02*
X147255038Y-99789583D01*
X145766943Y-104456250D02*
X145766943Y-98456250D01*
X145766943Y-98456250D02*
X146064562Y-97789583D01*
X146064562Y-97789583D02*
X146659800Y-97456250D01*
X146659800Y-97456250D02*
X147255038Y-97456250D01*
X152016943Y-97456250D02*
X150826467Y-97456250D01*
X150826467Y-97456250D02*
X150231229Y-97789583D01*
X150231229Y-97789583D02*
X149933610Y-98122917D01*
X149933610Y-98122917D02*
X149338372Y-99122917D01*
X149338372Y-99122917D02*
X149040753Y-100456250D01*
X149040753Y-100456250D02*
X149040753Y-103122917D01*
X149040753Y-103122917D02*
X149338372Y-103789583D01*
X149338372Y-103789583D02*
X149635991Y-104122917D01*
X149635991Y-104122917D02*
X150231229Y-104456250D01*
X150231229Y-104456250D02*
X151421705Y-104456250D01*
X151421705Y-104456250D02*
X152016943Y-104122917D01*
X152016943Y-104122917D02*
X152314562Y-103789583D01*
X152314562Y-103789583D02*
X152612181Y-103122917D01*
X152612181Y-103122917D02*
X152612181Y-101456250D01*
X152612181Y-101456250D02*
X152314562Y-100789583D01*
X152314562Y-100789583D02*
X152016943Y-100456250D01*
X152016943Y-100456250D02*
X151421705Y-100122917D01*
X151421705Y-100122917D02*
X150231229Y-100122917D01*
X150231229Y-100122917D02*
X149635991Y-100456250D01*
X149635991Y-100456250D02*
X149338372Y-100789583D01*
X149338372Y-100789583D02*
X149040753Y-101456250D01*
X159159801Y-99789583D02*
X161540753Y-99789583D01*
X160052658Y-104456250D02*
X160052658Y-98456250D01*
X160052658Y-98456250D02*
X160350277Y-97789583D01*
X160350277Y-97789583D02*
X160945515Y-97456250D01*
X160945515Y-97456250D02*
X161540753Y-97456250D01*
X163028849Y-97456250D02*
X167195515Y-97456250D01*
X167195515Y-97456250D02*
X164516944Y-104456250D01*
X173445516Y-99789583D02*
X175826468Y-99789583D01*
X174338373Y-104456250D02*
X174338373Y-98456250D01*
X174338373Y-98456250D02*
X174635992Y-97789583D01*
X174635992Y-97789583D02*
X175231230Y-97456250D01*
X175231230Y-97456250D02*
X175826468Y-97456250D01*
X178802659Y-100456250D02*
X178207421Y-100122917D01*
X178207421Y-100122917D02*
X177909802Y-99789583D01*
X177909802Y-99789583D02*
X177612183Y-99122917D01*
X177612183Y-99122917D02*
X177612183Y-98789583D01*
X177612183Y-98789583D02*
X177909802Y-98122917D01*
X177909802Y-98122917D02*
X178207421Y-97789583D01*
X178207421Y-97789583D02*
X178802659Y-97456250D01*
X178802659Y-97456250D02*
X179993135Y-97456250D01*
X179993135Y-97456250D02*
X180588373Y-97789583D01*
X180588373Y-97789583D02*
X180885992Y-98122917D01*
X180885992Y-98122917D02*
X181183611Y-98789583D01*
X181183611Y-98789583D02*
X181183611Y-99122917D01*
X181183611Y-99122917D02*
X180885992Y-99789583D01*
X180885992Y-99789583D02*
X180588373Y-100122917D01*
X180588373Y-100122917D02*
X179993135Y-100456250D01*
X179993135Y-100456250D02*
X178802659Y-100456250D01*
X178802659Y-100456250D02*
X178207421Y-100789583D01*
X178207421Y-100789583D02*
X177909802Y-101122917D01*
X177909802Y-101122917D02*
X177612183Y-101789583D01*
X177612183Y-101789583D02*
X177612183Y-103122917D01*
X177612183Y-103122917D02*
X177909802Y-103789583D01*
X177909802Y-103789583D02*
X178207421Y-104122917D01*
X178207421Y-104122917D02*
X178802659Y-104456250D01*
X178802659Y-104456250D02*
X179993135Y-104456250D01*
X179993135Y-104456250D02*
X180588373Y-104122917D01*
X180588373Y-104122917D02*
X180885992Y-103789583D01*
X180885992Y-103789583D02*
X181183611Y-103122917D01*
X181183611Y-103122917D02*
X181183611Y-101789583D01*
X181183611Y-101789583D02*
X180885992Y-101122917D01*
X180885992Y-101122917D02*
X180588373Y-100789583D01*
X180588373Y-100789583D02*
X179993135Y-100456250D01*
X187731231Y-99789583D02*
X190112183Y-99789583D01*
X188624088Y-104456250D02*
X188624088Y-98456250D01*
X188624088Y-98456250D02*
X188921707Y-97789583D01*
X188921707Y-97789583D02*
X189516945Y-97456250D01*
X189516945Y-97456250D02*
X190112183Y-97456250D01*
X192493136Y-104456250D02*
X193683612Y-104456250D01*
X193683612Y-104456250D02*
X194278850Y-104122917D01*
X194278850Y-104122917D02*
X194576469Y-103789583D01*
X194576469Y-103789583D02*
X195171707Y-102789583D01*
X195171707Y-102789583D02*
X195469326Y-101456250D01*
X195469326Y-101456250D02*
X195469326Y-98789583D01*
X195469326Y-98789583D02*
X195171707Y-98122917D01*
X195171707Y-98122917D02*
X194874088Y-97789583D01*
X194874088Y-97789583D02*
X194278850Y-97456250D01*
X194278850Y-97456250D02*
X193088374Y-97456250D01*
X193088374Y-97456250D02*
X192493136Y-97789583D01*
X192493136Y-97789583D02*
X192195517Y-98122917D01*
X192195517Y-98122917D02*
X191897898Y-98789583D01*
X191897898Y-98789583D02*
X191897898Y-100456250D01*
X191897898Y-100456250D02*
X192195517Y-101122917D01*
X192195517Y-101122917D02*
X192493136Y-101456250D01*
X192493136Y-101456250D02*
X193088374Y-101789583D01*
X193088374Y-101789583D02*
X194278850Y-101789583D01*
X194278850Y-101789583D02*
X194874088Y-101456250D01*
X194874088Y-101456250D02*
X195171707Y-101122917D01*
X195171707Y-101122917D02*
X195469326Y-100456250D01*
X202016946Y-99789583D02*
X204397898Y-99789583D01*
X202909803Y-104456250D02*
X202909803Y-98456250D01*
X202909803Y-98456250D02*
X203207422Y-97789583D01*
X203207422Y-97789583D02*
X203802660Y-97456250D01*
X203802660Y-97456250D02*
X204397898Y-97456250D01*
X209755041Y-104456250D02*
X206183613Y-104456250D01*
X207969327Y-104456250D02*
X207969327Y-97456250D01*
X207969327Y-97456250D02*
X207374089Y-98456250D01*
X207374089Y-98456250D02*
X206778851Y-99122917D01*
X206778851Y-99122917D02*
X206183613Y-99456250D01*
X213624089Y-97456250D02*
X214219327Y-97456250D01*
X214219327Y-97456250D02*
X214814565Y-97789583D01*
X214814565Y-97789583D02*
X215112184Y-98122917D01*
X215112184Y-98122917D02*
X215409803Y-98789583D01*
X215409803Y-98789583D02*
X215707422Y-100122917D01*
X215707422Y-100122917D02*
X215707422Y-101789583D01*
X215707422Y-101789583D02*
X215409803Y-103122917D01*
X215409803Y-103122917D02*
X215112184Y-103789583D01*
X215112184Y-103789583D02*
X214814565Y-104122917D01*
X214814565Y-104122917D02*
X214219327Y-104456250D01*
X214219327Y-104456250D02*
X213624089Y-104456250D01*
X213624089Y-104456250D02*
X213028851Y-104122917D01*
X213028851Y-104122917D02*
X212731232Y-103789583D01*
X212731232Y-103789583D02*
X212433613Y-103122917D01*
X212433613Y-103122917D02*
X212135994Y-101789583D01*
X212135994Y-101789583D02*
X212135994Y-100122917D01*
X212135994Y-100122917D02*
X212433613Y-98789583D01*
X212433613Y-98789583D02*
X212731232Y-98122917D01*
X212731232Y-98122917D02*
X213028851Y-97789583D01*
X213028851Y-97789583D02*
X213624089Y-97456250D01*
X222255042Y-99789583D02*
X224635994Y-99789583D01*
X223147899Y-104456250D02*
X223147899Y-98456250D01*
X223147899Y-98456250D02*
X223445518Y-97789583D01*
X223445518Y-97789583D02*
X224040756Y-97456250D01*
X224040756Y-97456250D02*
X224635994Y-97456250D01*
X229993137Y-104456250D02*
X226421709Y-104456250D01*
X228207423Y-104456250D02*
X228207423Y-97456250D01*
X228207423Y-97456250D02*
X227612185Y-98456250D01*
X227612185Y-98456250D02*
X227016947Y-99122917D01*
X227016947Y-99122917D02*
X226421709Y-99456250D01*
X235945518Y-104456250D02*
X232374090Y-104456250D01*
X234159804Y-104456250D02*
X234159804Y-97456250D01*
X234159804Y-97456250D02*
X233564566Y-98456250D01*
X233564566Y-98456250D02*
X232969328Y-99122917D01*
X232969328Y-99122917D02*
X232374090Y-99456250D01*
X73445512Y-111059191D02*
X75826464Y-111059191D01*
X74338369Y-115725858D02*
X74338369Y-109725858D01*
X74338369Y-109725858D02*
X74635988Y-109059191D01*
X74635988Y-109059191D02*
X75231226Y-108725858D01*
X75231226Y-108725858D02*
X75826464Y-108725858D01*
X81183607Y-115725858D02*
X77612179Y-115725858D01*
X79397893Y-115725858D02*
X79397893Y-108725858D01*
X79397893Y-108725858D02*
X78802655Y-109725858D01*
X78802655Y-109725858D02*
X78207417Y-110392525D01*
X78207417Y-110392525D02*
X77612179Y-110725858D01*
X83564560Y-109392525D02*
X83862179Y-109059191D01*
X83862179Y-109059191D02*
X84457417Y-108725858D01*
X84457417Y-108725858D02*
X85945512Y-108725858D01*
X85945512Y-108725858D02*
X86540750Y-109059191D01*
X86540750Y-109059191D02*
X86838369Y-109392525D01*
X86838369Y-109392525D02*
X87135988Y-110059191D01*
X87135988Y-110059191D02*
X87135988Y-110725858D01*
X87135988Y-110725858D02*
X86838369Y-111725858D01*
X86838369Y-111725858D02*
X83266941Y-115725858D01*
X83266941Y-115725858D02*
X87135988Y-115725858D01*
X98147893Y-115725858D02*
X96064560Y-112392525D01*
X94576465Y-115725858D02*
X94576465Y-108725858D01*
X94576465Y-108725858D02*
X96957417Y-108725858D01*
X96957417Y-108725858D02*
X97552655Y-109059191D01*
X97552655Y-109059191D02*
X97850274Y-109392525D01*
X97850274Y-109392525D02*
X98147893Y-110059191D01*
X98147893Y-110059191D02*
X98147893Y-111059191D01*
X98147893Y-111059191D02*
X97850274Y-111725858D01*
X97850274Y-111725858D02*
X97552655Y-112059191D01*
X97552655Y-112059191D02*
X96957417Y-112392525D01*
X96957417Y-112392525D02*
X94576465Y-112392525D01*
X100528846Y-115392525D02*
X101124084Y-115725858D01*
X101124084Y-115725858D02*
X102314560Y-115725858D01*
X102314560Y-115725858D02*
X102909798Y-115392525D01*
X102909798Y-115392525D02*
X103207417Y-114725858D01*
X103207417Y-114725858D02*
X103207417Y-114392525D01*
X103207417Y-114392525D02*
X102909798Y-113725858D01*
X102909798Y-113725858D02*
X102314560Y-113392525D01*
X102314560Y-113392525D02*
X101421703Y-113392525D01*
X101421703Y-113392525D02*
X100826465Y-113059191D01*
X100826465Y-113059191D02*
X100528846Y-112392525D01*
X100528846Y-112392525D02*
X100528846Y-112059191D01*
X100528846Y-112059191D02*
X100826465Y-111392525D01*
X100826465Y-111392525D02*
X101421703Y-111059191D01*
X101421703Y-111059191D02*
X102314560Y-111059191D01*
X102314560Y-111059191D02*
X102909798Y-111392525D01*
X105885989Y-115725858D02*
X105885989Y-108725858D01*
X108564560Y-115725858D02*
X108564560Y-112059191D01*
X108564560Y-112059191D02*
X108266941Y-111392525D01*
X108266941Y-111392525D02*
X107671703Y-111059191D01*
X107671703Y-111059191D02*
X106778846Y-111059191D01*
X106778846Y-111059191D02*
X106183608Y-111392525D01*
X106183608Y-111392525D02*
X105885989Y-111725858D01*
X111540751Y-115725858D02*
X111540751Y-111059191D01*
X111540751Y-108725858D02*
X111243132Y-109059191D01*
X111243132Y-109059191D02*
X111540751Y-109392525D01*
X111540751Y-109392525D02*
X111838370Y-109059191D01*
X111838370Y-109059191D02*
X111540751Y-108725858D01*
X111540751Y-108725858D02*
X111540751Y-109392525D01*
X113624084Y-111059191D02*
X116005036Y-111059191D01*
X114516941Y-115725858D02*
X114516941Y-109725858D01*
X114516941Y-109725858D02*
X114814560Y-109059191D01*
X114814560Y-109059191D02*
X115409798Y-108725858D01*
X115409798Y-108725858D02*
X116005036Y-108725858D01*
X117195513Y-111059191D02*
X119576465Y-111059191D01*
X118088370Y-108725858D02*
X118088370Y-114725858D01*
X118088370Y-114725858D02*
X118385989Y-115392525D01*
X118385989Y-115392525D02*
X118981227Y-115725858D01*
X118981227Y-115725858D02*
X119576465Y-115725858D01*
X129993132Y-115725858D02*
X127909799Y-112392525D01*
X126421704Y-115725858D02*
X126421704Y-108725858D01*
X126421704Y-108725858D02*
X128802656Y-108725858D01*
X128802656Y-108725858D02*
X129397894Y-109059191D01*
X129397894Y-109059191D02*
X129695513Y-109392525D01*
X129695513Y-109392525D02*
X129993132Y-110059191D01*
X129993132Y-110059191D02*
X129993132Y-111059191D01*
X129993132Y-111059191D02*
X129695513Y-111725858D01*
X129695513Y-111725858D02*
X129397894Y-112059191D01*
X129397894Y-112059191D02*
X128802656Y-112392525D01*
X128802656Y-112392525D02*
X126421704Y-112392525D01*
X135350275Y-115725858D02*
X135350275Y-112059191D01*
X135350275Y-112059191D02*
X135052656Y-111392525D01*
X135052656Y-111392525D02*
X134457418Y-111059191D01*
X134457418Y-111059191D02*
X133266942Y-111059191D01*
X133266942Y-111059191D02*
X132671704Y-111392525D01*
X135350275Y-115392525D02*
X134755037Y-115725858D01*
X134755037Y-115725858D02*
X133266942Y-115725858D01*
X133266942Y-115725858D02*
X132671704Y-115392525D01*
X132671704Y-115392525D02*
X132374085Y-114725858D01*
X132374085Y-114725858D02*
X132374085Y-114059191D01*
X132374085Y-114059191D02*
X132671704Y-113392525D01*
X132671704Y-113392525D02*
X133266942Y-113059191D01*
X133266942Y-113059191D02*
X134755037Y-113059191D01*
X134755037Y-113059191D02*
X135350275Y-112725858D01*
X139219323Y-115725858D02*
X138624085Y-115392525D01*
X138624085Y-115392525D02*
X138326466Y-114725858D01*
X138326466Y-114725858D02*
X138326466Y-108725858D01*
X140707419Y-111059191D02*
X143088371Y-111059191D01*
X141600276Y-108725858D02*
X141600276Y-114725858D01*
X141600276Y-114725858D02*
X141897895Y-115392525D01*
X141897895Y-115392525D02*
X142493133Y-115725858D01*
X142493133Y-115725858D02*
X143088371Y-115725858D01*
X153505038Y-115725858D02*
X151421705Y-112392525D01*
X149933610Y-115725858D02*
X149933610Y-108725858D01*
X149933610Y-108725858D02*
X152314562Y-108725858D01*
X152314562Y-108725858D02*
X152909800Y-109059191D01*
X152909800Y-109059191D02*
X153207419Y-109392525D01*
X153207419Y-109392525D02*
X153505038Y-110059191D01*
X153505038Y-110059191D02*
X153505038Y-111059191D01*
X153505038Y-111059191D02*
X153207419Y-111725858D01*
X153207419Y-111725858D02*
X152909800Y-112059191D01*
X152909800Y-112059191D02*
X152314562Y-112392525D01*
X152314562Y-112392525D02*
X149933610Y-112392525D01*
X155885991Y-115392525D02*
X156481229Y-115725858D01*
X156481229Y-115725858D02*
X157671705Y-115725858D01*
X157671705Y-115725858D02*
X158266943Y-115392525D01*
X158266943Y-115392525D02*
X158564562Y-114725858D01*
X158564562Y-114725858D02*
X158564562Y-114392525D01*
X158564562Y-114392525D02*
X158266943Y-113725858D01*
X158266943Y-113725858D02*
X157671705Y-113392525D01*
X157671705Y-113392525D02*
X156778848Y-113392525D01*
X156778848Y-113392525D02*
X156183610Y-113059191D01*
X156183610Y-113059191D02*
X155885991Y-112392525D01*
X155885991Y-112392525D02*
X155885991Y-112059191D01*
X155885991Y-112059191D02*
X156183610Y-111392525D01*
X156183610Y-111392525D02*
X156778848Y-111059191D01*
X156778848Y-111059191D02*
X157671705Y-111059191D01*
X157671705Y-111059191D02*
X158266943Y-111392525D01*
X163921705Y-111059191D02*
X163921705Y-115725858D01*
X161243134Y-111059191D02*
X161243134Y-114725858D01*
X161243134Y-114725858D02*
X161540753Y-115392525D01*
X161540753Y-115392525D02*
X162135991Y-115725858D01*
X162135991Y-115725858D02*
X163028848Y-115725858D01*
X163028848Y-115725858D02*
X163624086Y-115392525D01*
X163624086Y-115392525D02*
X163921705Y-115059191D01*
X166897896Y-111059191D02*
X166897896Y-118059191D01*
X166897896Y-111392525D02*
X167493134Y-111059191D01*
X167493134Y-111059191D02*
X168683610Y-111059191D01*
X168683610Y-111059191D02*
X169278848Y-111392525D01*
X169278848Y-111392525D02*
X169576467Y-111725858D01*
X169576467Y-111725858D02*
X169874086Y-112392525D01*
X169874086Y-112392525D02*
X169874086Y-114392525D01*
X169874086Y-114392525D02*
X169576467Y-115059191D01*
X169576467Y-115059191D02*
X169278848Y-115392525D01*
X169278848Y-115392525D02*
X168683610Y-115725858D01*
X168683610Y-115725858D02*
X167493134Y-115725858D01*
X167493134Y-115725858D02*
X166897896Y-115392525D01*
X174933610Y-115392525D02*
X174338372Y-115725858D01*
X174338372Y-115725858D02*
X173147896Y-115725858D01*
X173147896Y-115725858D02*
X172552658Y-115392525D01*
X172552658Y-115392525D02*
X172255039Y-114725858D01*
X172255039Y-114725858D02*
X172255039Y-112059191D01*
X172255039Y-112059191D02*
X172552658Y-111392525D01*
X172552658Y-111392525D02*
X173147896Y-111059191D01*
X173147896Y-111059191D02*
X174338372Y-111059191D01*
X174338372Y-111059191D02*
X174933610Y-111392525D01*
X174933610Y-111392525D02*
X175231229Y-112059191D01*
X175231229Y-112059191D02*
X175231229Y-112725858D01*
X175231229Y-112725858D02*
X172255039Y-113392525D01*
X177909801Y-115725858D02*
X177909801Y-111059191D01*
X177909801Y-112392525D02*
X178207420Y-111725858D01*
X178207420Y-111725858D02*
X178505039Y-111392525D01*
X178505039Y-111392525D02*
X179100277Y-111059191D01*
X179100277Y-111059191D02*
X179695515Y-111059191D01*
X186540754Y-115725858D02*
X186540754Y-111059191D01*
X186540754Y-111725858D02*
X186838373Y-111392525D01*
X186838373Y-111392525D02*
X187433611Y-111059191D01*
X187433611Y-111059191D02*
X188326468Y-111059191D01*
X188326468Y-111059191D02*
X188921706Y-111392525D01*
X188921706Y-111392525D02*
X189219325Y-112059191D01*
X189219325Y-112059191D02*
X189219325Y-115725858D01*
X189219325Y-112059191D02*
X189516944Y-111392525D01*
X189516944Y-111392525D02*
X190112182Y-111059191D01*
X190112182Y-111059191D02*
X191005039Y-111059191D01*
X191005039Y-111059191D02*
X191600278Y-111392525D01*
X191600278Y-111392525D02*
X191897897Y-112059191D01*
X191897897Y-112059191D02*
X191897897Y-115725858D01*
X197255039Y-115392525D02*
X196659801Y-115725858D01*
X196659801Y-115725858D02*
X195469325Y-115725858D01*
X195469325Y-115725858D02*
X194874087Y-115392525D01*
X194874087Y-115392525D02*
X194576468Y-114725858D01*
X194576468Y-114725858D02*
X194576468Y-112059191D01*
X194576468Y-112059191D02*
X194874087Y-111392525D01*
X194874087Y-111392525D02*
X195469325Y-111059191D01*
X195469325Y-111059191D02*
X196659801Y-111059191D01*
X196659801Y-111059191D02*
X197255039Y-111392525D01*
X197255039Y-111392525D02*
X197552658Y-112059191D01*
X197552658Y-112059191D02*
X197552658Y-112725858D01*
X197552658Y-112725858D02*
X194576468Y-113392525D01*
X200231230Y-111059191D02*
X200231230Y-115725858D01*
X200231230Y-111725858D02*
X200528849Y-111392525D01*
X200528849Y-111392525D02*
X201124087Y-111059191D01*
X201124087Y-111059191D02*
X202016944Y-111059191D01*
X202016944Y-111059191D02*
X202612182Y-111392525D01*
X202612182Y-111392525D02*
X202909801Y-112059191D01*
X202909801Y-112059191D02*
X202909801Y-115725858D01*
X208564563Y-111059191D02*
X208564563Y-115725858D01*
X205885992Y-111059191D02*
X205885992Y-114725858D01*
X205885992Y-114725858D02*
X206183611Y-115392525D01*
X206183611Y-115392525D02*
X206778849Y-115725858D01*
X206778849Y-115725858D02*
X207671706Y-115725858D01*
X207671706Y-115725858D02*
X208266944Y-115392525D01*
X208266944Y-115392525D02*
X208564563Y-115059191D01*
X219874087Y-115725858D02*
X217790754Y-112392525D01*
X216302659Y-115725858D02*
X216302659Y-108725858D01*
X216302659Y-108725858D02*
X218683611Y-108725858D01*
X218683611Y-108725858D02*
X219278849Y-109059191D01*
X219278849Y-109059191D02*
X219576468Y-109392525D01*
X219576468Y-109392525D02*
X219874087Y-110059191D01*
X219874087Y-110059191D02*
X219874087Y-111059191D01*
X219874087Y-111059191D02*
X219576468Y-111725858D01*
X219576468Y-111725858D02*
X219278849Y-112059191D01*
X219278849Y-112059191D02*
X218683611Y-112392525D01*
X218683611Y-112392525D02*
X216302659Y-112392525D01*
X225231230Y-115392525D02*
X224635992Y-115725858D01*
X224635992Y-115725858D02*
X223445516Y-115725858D01*
X223445516Y-115725858D02*
X222850278Y-115392525D01*
X222850278Y-115392525D02*
X222552659Y-115059191D01*
X222552659Y-115059191D02*
X222255040Y-114392525D01*
X222255040Y-114392525D02*
X222255040Y-112392525D01*
X222255040Y-112392525D02*
X222552659Y-111725858D01*
X222552659Y-111725858D02*
X222850278Y-111392525D01*
X222850278Y-111392525D02*
X223445516Y-111059191D01*
X223445516Y-111059191D02*
X224635992Y-111059191D01*
X224635992Y-111059191D02*
X225231230Y-111392525D01*
X227016945Y-111059191D02*
X229397897Y-111059191D01*
X227909802Y-108725858D02*
X227909802Y-114725858D01*
X227909802Y-114725858D02*
X228207421Y-115392525D01*
X228207421Y-115392525D02*
X228802659Y-115725858D01*
X228802659Y-115725858D02*
X229397897Y-115725858D01*
X231481231Y-115725858D02*
X231481231Y-111059191D01*
X231481231Y-112392525D02*
X231778850Y-111725858D01*
X231778850Y-111725858D02*
X232076469Y-111392525D01*
X232076469Y-111392525D02*
X232671707Y-111059191D01*
X232671707Y-111059191D02*
X233266945Y-111059191D01*
X236243136Y-115725858D02*
X235647898Y-115392525D01*
X235647898Y-115392525D02*
X235350279Y-114725858D01*
X235350279Y-114725858D02*
X235350279Y-108725858D01*
X79100274Y-122328799D02*
X79100274Y-129328799D01*
X79100274Y-122662133D02*
X79695512Y-122328799D01*
X79695512Y-122328799D02*
X80885988Y-122328799D01*
X80885988Y-122328799D02*
X81481226Y-122662133D01*
X81481226Y-122662133D02*
X81778845Y-122995466D01*
X81778845Y-122995466D02*
X82076464Y-123662133D01*
X82076464Y-123662133D02*
X82076464Y-125662133D01*
X82076464Y-125662133D02*
X81778845Y-126328799D01*
X81778845Y-126328799D02*
X81481226Y-126662133D01*
X81481226Y-126662133D02*
X80885988Y-126995466D01*
X80885988Y-126995466D02*
X79695512Y-126995466D01*
X79695512Y-126995466D02*
X79100274Y-126662133D01*
X84755036Y-126995466D02*
X84755036Y-122328799D01*
X84755036Y-123662133D02*
X85052655Y-122995466D01*
X85052655Y-122995466D02*
X85350274Y-122662133D01*
X85350274Y-122662133D02*
X85945512Y-122328799D01*
X85945512Y-122328799D02*
X86540750Y-122328799D01*
X88624084Y-126995466D02*
X88624084Y-122328799D01*
X88624084Y-119995466D02*
X88326465Y-120328799D01*
X88326465Y-120328799D02*
X88624084Y-120662133D01*
X88624084Y-120662133D02*
X88921703Y-120328799D01*
X88921703Y-120328799D02*
X88624084Y-119995466D01*
X88624084Y-119995466D02*
X88624084Y-120662133D01*
X91600274Y-122328799D02*
X91600274Y-126995466D01*
X91600274Y-122995466D02*
X91897893Y-122662133D01*
X91897893Y-122662133D02*
X92493131Y-122328799D01*
X92493131Y-122328799D02*
X93385988Y-122328799D01*
X93385988Y-122328799D02*
X93981226Y-122662133D01*
X93981226Y-122662133D02*
X94278845Y-123328799D01*
X94278845Y-123328799D02*
X94278845Y-126995466D01*
X96362179Y-122328799D02*
X98743131Y-122328799D01*
X97255036Y-119995466D02*
X97255036Y-125995466D01*
X97255036Y-125995466D02*
X97552655Y-126662133D01*
X97552655Y-126662133D02*
X98147893Y-126995466D01*
X98147893Y-126995466D02*
X98743131Y-126995466D01*
X100528846Y-126662133D02*
X101124084Y-126995466D01*
X101124084Y-126995466D02*
X102314560Y-126995466D01*
X102314560Y-126995466D02*
X102909798Y-126662133D01*
X102909798Y-126662133D02*
X103207417Y-125995466D01*
X103207417Y-125995466D02*
X103207417Y-125662133D01*
X103207417Y-125662133D02*
X102909798Y-124995466D01*
X102909798Y-124995466D02*
X102314560Y-124662133D01*
X102314560Y-124662133D02*
X101421703Y-124662133D01*
X101421703Y-124662133D02*
X100826465Y-124328799D01*
X100826465Y-124328799D02*
X100528846Y-123662133D01*
X100528846Y-123662133D02*
X100528846Y-123328799D01*
X100528846Y-123328799D02*
X100826465Y-122662133D01*
X100826465Y-122662133D02*
X101421703Y-122328799D01*
X101421703Y-122328799D02*
X102314560Y-122328799D01*
X102314560Y-122328799D02*
X102909798Y-122662133D01*
X108564560Y-126662133D02*
X107969322Y-126995466D01*
X107969322Y-126995466D02*
X106778846Y-126995466D01*
X106778846Y-126995466D02*
X106183608Y-126662133D01*
X106183608Y-126662133D02*
X105885989Y-126328799D01*
X105885989Y-126328799D02*
X105588370Y-125662133D01*
X105588370Y-125662133D02*
X105588370Y-123662133D01*
X105588370Y-123662133D02*
X105885989Y-122995466D01*
X105885989Y-122995466D02*
X106183608Y-122662133D01*
X106183608Y-122662133D02*
X106778846Y-122328799D01*
X106778846Y-122328799D02*
X107969322Y-122328799D01*
X107969322Y-122328799D02*
X108564560Y-122662133D01*
X111243132Y-126995466D02*
X111243132Y-122328799D01*
X111243132Y-123662133D02*
X111540751Y-122995466D01*
X111540751Y-122995466D02*
X111838370Y-122662133D01*
X111838370Y-122662133D02*
X112433608Y-122328799D01*
X112433608Y-122328799D02*
X113028846Y-122328799D01*
X119576466Y-126662133D02*
X120171704Y-126995466D01*
X120171704Y-126995466D02*
X121362180Y-126995466D01*
X121362180Y-126995466D02*
X121957418Y-126662133D01*
X121957418Y-126662133D02*
X122255037Y-125995466D01*
X122255037Y-125995466D02*
X122255037Y-125662133D01*
X122255037Y-125662133D02*
X121957418Y-124995466D01*
X121957418Y-124995466D02*
X121362180Y-124662133D01*
X121362180Y-124662133D02*
X120469323Y-124662133D01*
X120469323Y-124662133D02*
X119874085Y-124328799D01*
X119874085Y-124328799D02*
X119576466Y-123662133D01*
X119576466Y-123662133D02*
X119576466Y-123328799D01*
X119576466Y-123328799D02*
X119874085Y-122662133D01*
X119874085Y-122662133D02*
X120469323Y-122328799D01*
X120469323Y-122328799D02*
X121362180Y-122328799D01*
X121362180Y-122328799D02*
X121957418Y-122662133D01*
X127612180Y-126662133D02*
X127016942Y-126995466D01*
X127016942Y-126995466D02*
X125826466Y-126995466D01*
X125826466Y-126995466D02*
X125231228Y-126662133D01*
X125231228Y-126662133D02*
X124933609Y-126328799D01*
X124933609Y-126328799D02*
X124635990Y-125662133D01*
X124635990Y-125662133D02*
X124635990Y-123662133D01*
X124635990Y-123662133D02*
X124933609Y-122995466D01*
X124933609Y-122995466D02*
X125231228Y-122662133D01*
X125231228Y-122662133D02*
X125826466Y-122328799D01*
X125826466Y-122328799D02*
X127016942Y-122328799D01*
X127016942Y-122328799D02*
X127612180Y-122662133D01*
X130290752Y-126995466D02*
X130290752Y-122328799D01*
X130290752Y-123662133D02*
X130588371Y-122995466D01*
X130588371Y-122995466D02*
X130885990Y-122662133D01*
X130885990Y-122662133D02*
X131481228Y-122328799D01*
X131481228Y-122328799D02*
X132076466Y-122328799D01*
X135052657Y-126995466D02*
X134457419Y-126662133D01*
X134457419Y-126662133D02*
X134159800Y-126328799D01*
X134159800Y-126328799D02*
X133862181Y-125662133D01*
X133862181Y-125662133D02*
X133862181Y-123662133D01*
X133862181Y-123662133D02*
X134159800Y-122995466D01*
X134159800Y-122995466D02*
X134457419Y-122662133D01*
X134457419Y-122662133D02*
X135052657Y-122328799D01*
X135052657Y-122328799D02*
X135945514Y-122328799D01*
X135945514Y-122328799D02*
X136540752Y-122662133D01*
X136540752Y-122662133D02*
X136838371Y-122995466D01*
X136838371Y-122995466D02*
X137135990Y-123662133D01*
X137135990Y-123662133D02*
X137135990Y-125662133D01*
X137135990Y-125662133D02*
X136838371Y-126328799D01*
X136838371Y-126328799D02*
X136540752Y-126662133D01*
X136540752Y-126662133D02*
X135945514Y-126995466D01*
X135945514Y-126995466D02*
X135052657Y-126995466D01*
X140707419Y-126995466D02*
X140112181Y-126662133D01*
X140112181Y-126662133D02*
X139814562Y-125995466D01*
X139814562Y-125995466D02*
X139814562Y-119995466D01*
X143981229Y-126995466D02*
X143385991Y-126662133D01*
X143385991Y-126662133D02*
X143088372Y-125995466D01*
X143088372Y-125995466D02*
X143088372Y-119995466D01*
X152016944Y-126995466D02*
X151421706Y-126662133D01*
X151421706Y-126662133D02*
X151124087Y-125995466D01*
X151124087Y-125995466D02*
X151124087Y-119995466D01*
X155290754Y-126995466D02*
X154695516Y-126662133D01*
X154695516Y-126662133D02*
X154397897Y-126328799D01*
X154397897Y-126328799D02*
X154100278Y-125662133D01*
X154100278Y-125662133D02*
X154100278Y-123662133D01*
X154100278Y-123662133D02*
X154397897Y-122995466D01*
X154397897Y-122995466D02*
X154695516Y-122662133D01*
X154695516Y-122662133D02*
X155290754Y-122328799D01*
X155290754Y-122328799D02*
X156183611Y-122328799D01*
X156183611Y-122328799D02*
X156778849Y-122662133D01*
X156778849Y-122662133D02*
X157076468Y-122995466D01*
X157076468Y-122995466D02*
X157374087Y-123662133D01*
X157374087Y-123662133D02*
X157374087Y-125662133D01*
X157374087Y-125662133D02*
X157076468Y-126328799D01*
X157076468Y-126328799D02*
X156778849Y-126662133D01*
X156778849Y-126662133D02*
X156183611Y-126995466D01*
X156183611Y-126995466D02*
X155290754Y-126995466D01*
X162731230Y-126662133D02*
X162135992Y-126995466D01*
X162135992Y-126995466D02*
X160945516Y-126995466D01*
X160945516Y-126995466D02*
X160350278Y-126662133D01*
X160350278Y-126662133D02*
X160052659Y-126328799D01*
X160052659Y-126328799D02*
X159755040Y-125662133D01*
X159755040Y-125662133D02*
X159755040Y-123662133D01*
X159755040Y-123662133D02*
X160052659Y-122995466D01*
X160052659Y-122995466D02*
X160350278Y-122662133D01*
X160350278Y-122662133D02*
X160945516Y-122328799D01*
X160945516Y-122328799D02*
X162135992Y-122328799D01*
X162135992Y-122328799D02*
X162731230Y-122662133D01*
X165409802Y-126995466D02*
X165409802Y-119995466D01*
X166005040Y-124328799D02*
X167790754Y-126995466D01*
X167790754Y-122328799D02*
X165409802Y-124995466D01*
X175231231Y-122328799D02*
X175231231Y-129328799D01*
X175231231Y-122662133D02*
X175826469Y-122328799D01*
X175826469Y-122328799D02*
X177016945Y-122328799D01*
X177016945Y-122328799D02*
X177612183Y-122662133D01*
X177612183Y-122662133D02*
X177909802Y-122995466D01*
X177909802Y-122995466D02*
X178207421Y-123662133D01*
X178207421Y-123662133D02*
X178207421Y-125662133D01*
X178207421Y-125662133D02*
X177909802Y-126328799D01*
X177909802Y-126328799D02*
X177612183Y-126662133D01*
X177612183Y-126662133D02*
X177016945Y-126995466D01*
X177016945Y-126995466D02*
X175826469Y-126995466D01*
X175826469Y-126995466D02*
X175231231Y-126662133D01*
X183564564Y-126995466D02*
X183564564Y-123328799D01*
X183564564Y-123328799D02*
X183266945Y-122662133D01*
X183266945Y-122662133D02*
X182671707Y-122328799D01*
X182671707Y-122328799D02*
X181481231Y-122328799D01*
X181481231Y-122328799D02*
X180885993Y-122662133D01*
X183564564Y-126662133D02*
X182969326Y-126995466D01*
X182969326Y-126995466D02*
X181481231Y-126995466D01*
X181481231Y-126995466D02*
X180885993Y-126662133D01*
X180885993Y-126662133D02*
X180588374Y-125995466D01*
X180588374Y-125995466D02*
X180588374Y-125328799D01*
X180588374Y-125328799D02*
X180885993Y-124662133D01*
X180885993Y-124662133D02*
X181481231Y-124328799D01*
X181481231Y-124328799D02*
X182969326Y-124328799D01*
X182969326Y-124328799D02*
X183564564Y-123995466D01*
X189219326Y-122328799D02*
X189219326Y-126995466D01*
X186540755Y-122328799D02*
X186540755Y-125995466D01*
X186540755Y-125995466D02*
X186838374Y-126662133D01*
X186838374Y-126662133D02*
X187433612Y-126995466D01*
X187433612Y-126995466D02*
X188326469Y-126995466D01*
X188326469Y-126995466D02*
X188921707Y-126662133D01*
X188921707Y-126662133D02*
X189219326Y-126328799D01*
X191897898Y-126662133D02*
X192493136Y-126995466D01*
X192493136Y-126995466D02*
X193683612Y-126995466D01*
X193683612Y-126995466D02*
X194278850Y-126662133D01*
X194278850Y-126662133D02*
X194576469Y-125995466D01*
X194576469Y-125995466D02*
X194576469Y-125662133D01*
X194576469Y-125662133D02*
X194278850Y-124995466D01*
X194278850Y-124995466D02*
X193683612Y-124662133D01*
X193683612Y-124662133D02*
X192790755Y-124662133D01*
X192790755Y-124662133D02*
X192195517Y-124328799D01*
X192195517Y-124328799D02*
X191897898Y-123662133D01*
X191897898Y-123662133D02*
X191897898Y-123328799D01*
X191897898Y-123328799D02*
X192195517Y-122662133D01*
X192195517Y-122662133D02*
X192790755Y-122328799D01*
X192790755Y-122328799D02*
X193683612Y-122328799D01*
X193683612Y-122328799D02*
X194278850Y-122662133D01*
X199635993Y-126662133D02*
X199040755Y-126995466D01*
X199040755Y-126995466D02*
X197850279Y-126995466D01*
X197850279Y-126995466D02*
X197255041Y-126662133D01*
X197255041Y-126662133D02*
X196957422Y-125995466D01*
X196957422Y-125995466D02*
X196957422Y-123328799D01*
X196957422Y-123328799D02*
X197255041Y-122662133D01*
X197255041Y-122662133D02*
X197850279Y-122328799D01*
X197850279Y-122328799D02*
X199040755Y-122328799D01*
X199040755Y-122328799D02*
X199635993Y-122662133D01*
X199635993Y-122662133D02*
X199933612Y-123328799D01*
X199933612Y-123328799D02*
X199933612Y-123995466D01*
X199933612Y-123995466D02*
X196957422Y-124662133D01*
X207374089Y-126995466D02*
X207374089Y-122328799D01*
X207374089Y-119995466D02*
X207076470Y-120328799D01*
X207076470Y-120328799D02*
X207374089Y-120662133D01*
X207374089Y-120662133D02*
X207671708Y-120328799D01*
X207671708Y-120328799D02*
X207374089Y-119995466D01*
X207374089Y-119995466D02*
X207374089Y-120662133D01*
X210350279Y-122328799D02*
X210350279Y-126995466D01*
X210350279Y-122995466D02*
X210647898Y-122662133D01*
X210647898Y-122662133D02*
X211243136Y-122328799D01*
X211243136Y-122328799D02*
X212135993Y-122328799D01*
X212135993Y-122328799D02*
X212731231Y-122662133D01*
X212731231Y-122662133D02*
X213028850Y-123328799D01*
X213028850Y-123328799D02*
X213028850Y-126995466D01*
X215707422Y-126662133D02*
X216302660Y-126995466D01*
X216302660Y-126995466D02*
X217493136Y-126995466D01*
X217493136Y-126995466D02*
X218088374Y-126662133D01*
X218088374Y-126662133D02*
X218385993Y-125995466D01*
X218385993Y-125995466D02*
X218385993Y-125662133D01*
X218385993Y-125662133D02*
X218088374Y-124995466D01*
X218088374Y-124995466D02*
X217493136Y-124662133D01*
X217493136Y-124662133D02*
X216600279Y-124662133D01*
X216600279Y-124662133D02*
X216005041Y-124328799D01*
X216005041Y-124328799D02*
X215707422Y-123662133D01*
X215707422Y-123662133D02*
X215707422Y-123328799D01*
X215707422Y-123328799D02*
X216005041Y-122662133D01*
X216005041Y-122662133D02*
X216600279Y-122328799D01*
X216600279Y-122328799D02*
X217493136Y-122328799D01*
X217493136Y-122328799D02*
X218088374Y-122662133D01*
X223445517Y-126662133D02*
X222850279Y-126995466D01*
X222850279Y-126995466D02*
X221659803Y-126995466D01*
X221659803Y-126995466D02*
X221064565Y-126662133D01*
X221064565Y-126662133D02*
X220766946Y-125995466D01*
X220766946Y-125995466D02*
X220766946Y-123328799D01*
X220766946Y-123328799D02*
X221064565Y-122662133D01*
X221064565Y-122662133D02*
X221659803Y-122328799D01*
X221659803Y-122328799D02*
X222850279Y-122328799D01*
X222850279Y-122328799D02*
X223445517Y-122662133D01*
X223445517Y-122662133D02*
X223743136Y-123328799D01*
X223743136Y-123328799D02*
X223743136Y-123995466D01*
X223743136Y-123995466D02*
X220766946Y-124662133D01*
X226421708Y-126995466D02*
X226421708Y-122328799D01*
X226421708Y-123662133D02*
X226719327Y-122995466D01*
X226719327Y-122995466D02*
X227016946Y-122662133D01*
X227016946Y-122662133D02*
X227612184Y-122328799D01*
X227612184Y-122328799D02*
X228207422Y-122328799D01*
X229397899Y-122328799D02*
X231778851Y-122328799D01*
X230290756Y-119995466D02*
X230290756Y-125995466D01*
X230290756Y-125995466D02*
X230588375Y-126662133D01*
X230588375Y-126662133D02*
X231183613Y-126995466D01*
X231183613Y-126995466D02*
X231778851Y-126995466D01*
X61243132Y-138265074D02*
X61243132Y-131265074D01*
X63921703Y-138265074D02*
X63921703Y-134598407D01*
X63921703Y-134598407D02*
X63624084Y-133931741D01*
X63624084Y-133931741D02*
X63028846Y-133598407D01*
X63028846Y-133598407D02*
X62135989Y-133598407D01*
X62135989Y-133598407D02*
X61540751Y-133931741D01*
X61540751Y-133931741D02*
X61243132Y-134265074D01*
X67790751Y-138265074D02*
X67195513Y-137931741D01*
X67195513Y-137931741D02*
X66897894Y-137598407D01*
X66897894Y-137598407D02*
X66600275Y-136931741D01*
X66600275Y-136931741D02*
X66600275Y-134931741D01*
X66600275Y-134931741D02*
X66897894Y-134265074D01*
X66897894Y-134265074D02*
X67195513Y-133931741D01*
X67195513Y-133931741D02*
X67790751Y-133598407D01*
X67790751Y-133598407D02*
X68683608Y-133598407D01*
X68683608Y-133598407D02*
X69278846Y-133931741D01*
X69278846Y-133931741D02*
X69576465Y-134265074D01*
X69576465Y-134265074D02*
X69874084Y-134931741D01*
X69874084Y-134931741D02*
X69874084Y-136931741D01*
X69874084Y-136931741D02*
X69576465Y-137598407D01*
X69576465Y-137598407D02*
X69278846Y-137931741D01*
X69278846Y-137931741D02*
X68683608Y-138265074D01*
X68683608Y-138265074D02*
X67790751Y-138265074D01*
X72552656Y-138265074D02*
X72552656Y-133598407D01*
X72552656Y-134265074D02*
X72850275Y-133931741D01*
X72850275Y-133931741D02*
X73445513Y-133598407D01*
X73445513Y-133598407D02*
X74338370Y-133598407D01*
X74338370Y-133598407D02*
X74933608Y-133931741D01*
X74933608Y-133931741D02*
X75231227Y-134598407D01*
X75231227Y-134598407D02*
X75231227Y-138265074D01*
X75231227Y-134598407D02*
X75528846Y-133931741D01*
X75528846Y-133931741D02*
X76124084Y-133598407D01*
X76124084Y-133598407D02*
X77016941Y-133598407D01*
X77016941Y-133598407D02*
X77612180Y-133931741D01*
X77612180Y-133931741D02*
X77909799Y-134598407D01*
X77909799Y-134598407D02*
X77909799Y-138265074D01*
X83266941Y-137931741D02*
X82671703Y-138265074D01*
X82671703Y-138265074D02*
X81481227Y-138265074D01*
X81481227Y-138265074D02*
X80885989Y-137931741D01*
X80885989Y-137931741D02*
X80588370Y-137265074D01*
X80588370Y-137265074D02*
X80588370Y-134598407D01*
X80588370Y-134598407D02*
X80885989Y-133931741D01*
X80885989Y-133931741D02*
X81481227Y-133598407D01*
X81481227Y-133598407D02*
X82671703Y-133598407D01*
X82671703Y-133598407D02*
X83266941Y-133931741D01*
X83266941Y-133931741D02*
X83564560Y-134598407D01*
X83564560Y-134598407D02*
X83564560Y-135265074D01*
X83564560Y-135265074D02*
X80588370Y-135931741D01*
X91005037Y-133598407D02*
X91005037Y-140598407D01*
X91005037Y-133931741D02*
X91600275Y-133598407D01*
X91600275Y-133598407D02*
X92790751Y-133598407D01*
X92790751Y-133598407D02*
X93385989Y-133931741D01*
X93385989Y-133931741D02*
X93683608Y-134265074D01*
X93683608Y-134265074D02*
X93981227Y-134931741D01*
X93981227Y-134931741D02*
X93981227Y-136931741D01*
X93981227Y-136931741D02*
X93683608Y-137598407D01*
X93683608Y-137598407D02*
X93385989Y-137931741D01*
X93385989Y-137931741D02*
X92790751Y-138265074D01*
X92790751Y-138265074D02*
X91600275Y-138265074D01*
X91600275Y-138265074D02*
X91005037Y-137931741D01*
X99338370Y-133598407D02*
X99338370Y-139265074D01*
X99338370Y-139265074D02*
X99040751Y-139931741D01*
X99040751Y-139931741D02*
X98743132Y-140265074D01*
X98743132Y-140265074D02*
X98147894Y-140598407D01*
X98147894Y-140598407D02*
X97255037Y-140598407D01*
X97255037Y-140598407D02*
X96659799Y-140265074D01*
X99338370Y-137931741D02*
X98743132Y-138265074D01*
X98743132Y-138265074D02*
X97552656Y-138265074D01*
X97552656Y-138265074D02*
X96957418Y-137931741D01*
X96957418Y-137931741D02*
X96659799Y-137598407D01*
X96659799Y-137598407D02*
X96362180Y-136931741D01*
X96362180Y-136931741D02*
X96362180Y-134931741D01*
X96362180Y-134931741D02*
X96659799Y-134265074D01*
X96659799Y-134265074D02*
X96957418Y-133931741D01*
X96957418Y-133931741D02*
X97552656Y-133598407D01*
X97552656Y-133598407D02*
X98743132Y-133598407D01*
X98743132Y-133598407D02*
X99338370Y-133931741D01*
X104993132Y-133598407D02*
X104993132Y-138265074D01*
X102314561Y-133598407D02*
X102314561Y-137265074D01*
X102314561Y-137265074D02*
X102612180Y-137931741D01*
X102612180Y-137931741D02*
X103207418Y-138265074D01*
X103207418Y-138265074D02*
X104100275Y-138265074D01*
X104100275Y-138265074D02*
X104695513Y-137931741D01*
X104695513Y-137931741D02*
X104993132Y-137598407D01*
X107969323Y-133598407D02*
X107969323Y-140598407D01*
X107969323Y-133931741D02*
X108564561Y-133598407D01*
X108564561Y-133598407D02*
X109755037Y-133598407D01*
X109755037Y-133598407D02*
X110350275Y-133931741D01*
X110350275Y-133931741D02*
X110647894Y-134265074D01*
X110647894Y-134265074D02*
X110945513Y-134931741D01*
X110945513Y-134931741D02*
X110945513Y-136931741D01*
X110945513Y-136931741D02*
X110647894Y-137598407D01*
X110647894Y-137598407D02*
X110350275Y-137931741D01*
X110350275Y-137931741D02*
X109755037Y-138265074D01*
X109755037Y-138265074D02*
X108564561Y-138265074D01*
X108564561Y-138265074D02*
X107969323Y-137931741D01*
X121064561Y-138265074D02*
X121064561Y-131265074D01*
X121064561Y-137931741D02*
X120469323Y-138265074D01*
X120469323Y-138265074D02*
X119278847Y-138265074D01*
X119278847Y-138265074D02*
X118683609Y-137931741D01*
X118683609Y-137931741D02*
X118385990Y-137598407D01*
X118385990Y-137598407D02*
X118088371Y-136931741D01*
X118088371Y-136931741D02*
X118088371Y-134931741D01*
X118088371Y-134931741D02*
X118385990Y-134265074D01*
X118385990Y-134265074D02*
X118683609Y-133931741D01*
X118683609Y-133931741D02*
X119278847Y-133598407D01*
X119278847Y-133598407D02*
X120469323Y-133598407D01*
X120469323Y-133598407D02*
X121064561Y-133931741D01*
X126421704Y-137931741D02*
X125826466Y-138265074D01*
X125826466Y-138265074D02*
X124635990Y-138265074D01*
X124635990Y-138265074D02*
X124040752Y-137931741D01*
X124040752Y-137931741D02*
X123743133Y-137265074D01*
X123743133Y-137265074D02*
X123743133Y-134598407D01*
X123743133Y-134598407D02*
X124040752Y-133931741D01*
X124040752Y-133931741D02*
X124635990Y-133598407D01*
X124635990Y-133598407D02*
X125826466Y-133598407D01*
X125826466Y-133598407D02*
X126421704Y-133931741D01*
X126421704Y-133931741D02*
X126719323Y-134598407D01*
X126719323Y-134598407D02*
X126719323Y-135265074D01*
X126719323Y-135265074D02*
X123743133Y-135931741D01*
X130290752Y-138265074D02*
X129695514Y-137931741D01*
X129695514Y-137931741D02*
X129397895Y-137265074D01*
X129397895Y-137265074D02*
X129397895Y-131265074D01*
X135052657Y-137931741D02*
X134457419Y-138265074D01*
X134457419Y-138265074D02*
X133266943Y-138265074D01*
X133266943Y-138265074D02*
X132671705Y-137931741D01*
X132671705Y-137931741D02*
X132374086Y-137265074D01*
X132374086Y-137265074D02*
X132374086Y-134598407D01*
X132374086Y-134598407D02*
X132671705Y-133931741D01*
X132671705Y-133931741D02*
X133266943Y-133598407D01*
X133266943Y-133598407D02*
X134457419Y-133598407D01*
X134457419Y-133598407D02*
X135052657Y-133931741D01*
X135052657Y-133931741D02*
X135350276Y-134598407D01*
X135350276Y-134598407D02*
X135350276Y-135265074D01*
X135350276Y-135265074D02*
X132374086Y-135931741D01*
X137135991Y-133598407D02*
X139516943Y-133598407D01*
X138028848Y-131265074D02*
X138028848Y-137265074D01*
X138028848Y-137265074D02*
X138326467Y-137931741D01*
X138326467Y-137931741D02*
X138921705Y-138265074D01*
X138921705Y-138265074D02*
X139516943Y-138265074D01*
X143981229Y-137931741D02*
X143385991Y-138265074D01*
X143385991Y-138265074D02*
X142195515Y-138265074D01*
X142195515Y-138265074D02*
X141600277Y-137931741D01*
X141600277Y-137931741D02*
X141302658Y-137265074D01*
X141302658Y-137265074D02*
X141302658Y-134598407D01*
X141302658Y-134598407D02*
X141600277Y-133931741D01*
X141600277Y-133931741D02*
X142195515Y-133598407D01*
X142195515Y-133598407D02*
X143385991Y-133598407D01*
X143385991Y-133598407D02*
X143981229Y-133931741D01*
X143981229Y-133931741D02*
X144278848Y-134598407D01*
X144278848Y-134598407D02*
X144278848Y-135265074D01*
X144278848Y-135265074D02*
X141302658Y-135931741D01*
X154100277Y-137931741D02*
X153505039Y-138265074D01*
X153505039Y-138265074D02*
X152314563Y-138265074D01*
X152314563Y-138265074D02*
X151719325Y-137931741D01*
X151719325Y-137931741D02*
X151421706Y-137265074D01*
X151421706Y-137265074D02*
X151421706Y-134598407D01*
X151421706Y-134598407D02*
X151719325Y-133931741D01*
X151719325Y-133931741D02*
X152314563Y-133598407D01*
X152314563Y-133598407D02*
X153505039Y-133598407D01*
X153505039Y-133598407D02*
X154100277Y-133931741D01*
X154100277Y-133931741D02*
X154397896Y-134598407D01*
X154397896Y-134598407D02*
X154397896Y-135265074D01*
X154397896Y-135265074D02*
X151421706Y-135931741D01*
X157076468Y-133598407D02*
X157076468Y-138265074D01*
X157076468Y-134265074D02*
X157374087Y-133931741D01*
X157374087Y-133931741D02*
X157969325Y-133598407D01*
X157969325Y-133598407D02*
X158862182Y-133598407D01*
X158862182Y-133598407D02*
X159457420Y-133931741D01*
X159457420Y-133931741D02*
X159755039Y-134598407D01*
X159755039Y-134598407D02*
X159755039Y-138265074D01*
X165409801Y-138265074D02*
X165409801Y-131265074D01*
X165409801Y-137931741D02*
X164814563Y-138265074D01*
X164814563Y-138265074D02*
X163624087Y-138265074D01*
X163624087Y-138265074D02*
X163028849Y-137931741D01*
X163028849Y-137931741D02*
X162731230Y-137598407D01*
X162731230Y-137598407D02*
X162433611Y-136931741D01*
X162433611Y-136931741D02*
X162433611Y-134931741D01*
X162433611Y-134931741D02*
X162731230Y-134265074D01*
X162731230Y-134265074D02*
X163028849Y-133931741D01*
X163028849Y-133931741D02*
X163624087Y-133598407D01*
X163624087Y-133598407D02*
X164814563Y-133598407D01*
X164814563Y-133598407D02*
X165409801Y-133931741D01*
X173147897Y-133598407D02*
X173147897Y-140598407D01*
X173147897Y-133931741D02*
X173743135Y-133598407D01*
X173743135Y-133598407D02*
X174933611Y-133598407D01*
X174933611Y-133598407D02*
X175528849Y-133931741D01*
X175528849Y-133931741D02*
X175826468Y-134265074D01*
X175826468Y-134265074D02*
X176124087Y-134931741D01*
X176124087Y-134931741D02*
X176124087Y-136931741D01*
X176124087Y-136931741D02*
X175826468Y-137598407D01*
X175826468Y-137598407D02*
X175528849Y-137931741D01*
X175528849Y-137931741D02*
X174933611Y-138265074D01*
X174933611Y-138265074D02*
X173743135Y-138265074D01*
X173743135Y-138265074D02*
X173147897Y-137931741D01*
X181481230Y-133598407D02*
X181481230Y-139265074D01*
X181481230Y-139265074D02*
X181183611Y-139931741D01*
X181183611Y-139931741D02*
X180885992Y-140265074D01*
X180885992Y-140265074D02*
X180290754Y-140598407D01*
X180290754Y-140598407D02*
X179397897Y-140598407D01*
X179397897Y-140598407D02*
X178802659Y-140265074D01*
X181481230Y-137931741D02*
X180885992Y-138265074D01*
X180885992Y-138265074D02*
X179695516Y-138265074D01*
X179695516Y-138265074D02*
X179100278Y-137931741D01*
X179100278Y-137931741D02*
X178802659Y-137598407D01*
X178802659Y-137598407D02*
X178505040Y-136931741D01*
X178505040Y-136931741D02*
X178505040Y-134931741D01*
X178505040Y-134931741D02*
X178802659Y-134265074D01*
X178802659Y-134265074D02*
X179100278Y-133931741D01*
X179100278Y-133931741D02*
X179695516Y-133598407D01*
X179695516Y-133598407D02*
X180885992Y-133598407D01*
X180885992Y-133598407D02*
X181481230Y-133931741D01*
X187135992Y-138265074D02*
X187135992Y-131265074D01*
X187135992Y-137931741D02*
X186540754Y-138265074D01*
X186540754Y-138265074D02*
X185350278Y-138265074D01*
X185350278Y-138265074D02*
X184755040Y-137931741D01*
X184755040Y-137931741D02*
X184457421Y-137598407D01*
X184457421Y-137598407D02*
X184159802Y-136931741D01*
X184159802Y-136931741D02*
X184159802Y-134931741D01*
X184159802Y-134931741D02*
X184457421Y-134265074D01*
X184457421Y-134265074D02*
X184755040Y-133931741D01*
X184755040Y-133931741D02*
X185350278Y-133598407D01*
X185350278Y-133598407D02*
X186540754Y-133598407D01*
X186540754Y-133598407D02*
X187135992Y-133931741D01*
X191005040Y-138265074D02*
X190409802Y-137931741D01*
X190409802Y-137931741D02*
X190112183Y-137598407D01*
X190112183Y-137598407D02*
X189814564Y-136931741D01*
X189814564Y-136931741D02*
X189814564Y-134931741D01*
X189814564Y-134931741D02*
X190112183Y-134265074D01*
X190112183Y-134265074D02*
X190409802Y-133931741D01*
X190409802Y-133931741D02*
X191005040Y-133598407D01*
X191005040Y-133598407D02*
X191897897Y-133598407D01*
X191897897Y-133598407D02*
X192493135Y-133931741D01*
X192493135Y-133931741D02*
X192790754Y-134265074D01*
X192790754Y-134265074D02*
X193088373Y-134931741D01*
X193088373Y-134931741D02*
X193088373Y-136931741D01*
X193088373Y-136931741D02*
X192790754Y-137598407D01*
X192790754Y-137598407D02*
X192493135Y-137931741D01*
X192493135Y-137931741D02*
X191897897Y-138265074D01*
X191897897Y-138265074D02*
X191005040Y-138265074D01*
X195171707Y-133598407D02*
X196362183Y-138265074D01*
X196362183Y-138265074D02*
X197552659Y-134931741D01*
X197552659Y-134931741D02*
X198743135Y-138265074D01*
X198743135Y-138265074D02*
X199933611Y-133598407D01*
X202314564Y-133598407D02*
X202314564Y-138265074D01*
X202314564Y-134265074D02*
X202612183Y-133931741D01*
X202612183Y-133931741D02*
X203207421Y-133598407D01*
X203207421Y-133598407D02*
X204100278Y-133598407D01*
X204100278Y-133598407D02*
X204695516Y-133931741D01*
X204695516Y-133931741D02*
X204993135Y-134598407D01*
X204993135Y-134598407D02*
X204993135Y-138265074D01*
X212731231Y-133598407D02*
X212731231Y-138265074D01*
X212731231Y-134265074D02*
X213028850Y-133931741D01*
X213028850Y-133931741D02*
X213624088Y-133598407D01*
X213624088Y-133598407D02*
X214516945Y-133598407D01*
X214516945Y-133598407D02*
X215112183Y-133931741D01*
X215112183Y-133931741D02*
X215409802Y-134598407D01*
X215409802Y-134598407D02*
X215409802Y-138265074D01*
X221064564Y-133598407D02*
X221064564Y-138265074D01*
X218385993Y-133598407D02*
X218385993Y-137265074D01*
X218385993Y-137265074D02*
X218683612Y-137931741D01*
X218683612Y-137931741D02*
X219278850Y-138265074D01*
X219278850Y-138265074D02*
X220171707Y-138265074D01*
X220171707Y-138265074D02*
X220766945Y-137931741D01*
X220766945Y-137931741D02*
X221064564Y-137598407D01*
X224040755Y-138265074D02*
X224040755Y-133598407D01*
X224040755Y-134265074D02*
X224338374Y-133931741D01*
X224338374Y-133931741D02*
X224933612Y-133598407D01*
X224933612Y-133598407D02*
X225826469Y-133598407D01*
X225826469Y-133598407D02*
X226421707Y-133931741D01*
X226421707Y-133931741D02*
X226719326Y-134598407D01*
X226719326Y-134598407D02*
X226719326Y-138265074D01*
X226719326Y-134598407D02*
X227016945Y-133931741D01*
X227016945Y-133931741D02*
X227612183Y-133598407D01*
X227612183Y-133598407D02*
X228505040Y-133598407D01*
X228505040Y-133598407D02*
X229100279Y-133931741D01*
X229100279Y-133931741D02*
X229397898Y-134598407D01*
X229397898Y-134598407D02*
X229397898Y-138265074D01*
X233266945Y-138265074D02*
X232671707Y-137931741D01*
X232671707Y-137931741D02*
X232374088Y-137265074D01*
X232374088Y-137265074D02*
X232374088Y-131265074D01*
X236540755Y-138265074D02*
X235945517Y-137931741D01*
X235945517Y-137931741D02*
X235647898Y-137598407D01*
X235647898Y-137598407D02*
X235350279Y-136931741D01*
X235350279Y-136931741D02*
X235350279Y-134931741D01*
X235350279Y-134931741D02*
X235647898Y-134265074D01*
X235647898Y-134265074D02*
X235945517Y-133931741D01*
X235945517Y-133931741D02*
X236540755Y-133598407D01*
X236540755Y-133598407D02*
X237433612Y-133598407D01*
X237433612Y-133598407D02*
X238028850Y-133931741D01*
X238028850Y-133931741D02*
X238326469Y-134265074D01*
X238326469Y-134265074D02*
X238624088Y-134931741D01*
X238624088Y-134931741D02*
X238624088Y-136931741D01*
X238624088Y-136931741D02*
X238326469Y-137598407D01*
X238326469Y-137598407D02*
X238028850Y-137931741D01*
X238028850Y-137931741D02*
X237433612Y-138265074D01*
X237433612Y-138265074D02*
X236540755Y-138265074D01*
X243981231Y-137931741D02*
X243385993Y-138265074D01*
X243385993Y-138265074D02*
X242195517Y-138265074D01*
X242195517Y-138265074D02*
X241600279Y-137931741D01*
X241600279Y-137931741D02*
X241302660Y-137598407D01*
X241302660Y-137598407D02*
X241005041Y-136931741D01*
X241005041Y-136931741D02*
X241005041Y-134931741D01*
X241005041Y-134931741D02*
X241302660Y-134265074D01*
X241302660Y-134265074D02*
X241600279Y-133931741D01*
X241600279Y-133931741D02*
X242195517Y-133598407D01*
X242195517Y-133598407D02*
X243385993Y-133598407D01*
X243385993Y-133598407D02*
X243981231Y-133931741D01*
X246659803Y-138265074D02*
X246659803Y-131265074D01*
X247255041Y-135598407D02*
X249040755Y-138265074D01*
X249040755Y-133598407D02*
X246659803Y-136265074D01*
D11*
G36*
X221159153Y-36118081D02*
G01*
X221039474Y-36108311D01*
X220920650Y-36098542D01*
X220747739Y-36131338D01*
X220692405Y-36152275D01*
X220700044Y-36642767D01*
X220709060Y-37245531D01*
X220716740Y-37789754D01*
X220724462Y-38387708D01*
X220730097Y-38894190D01*
X220734480Y-39449592D01*
X220735148Y-39686469D01*
X220737712Y-40011312D01*
X220740277Y-40397216D01*
X220728015Y-40920144D01*
X220682715Y-41393483D01*
X220575425Y-41785679D01*
X220391498Y-41935946D01*
X220220016Y-41817340D01*
X220163253Y-41706357D01*
X220065637Y-41295681D01*
X220057252Y-41100635D01*
X220061099Y-40599632D01*
X220064091Y-40372792D01*
X220070515Y-39881720D01*
X220071784Y-39644948D01*
X220069113Y-39120742D01*
X220063603Y-38574916D01*
X220056716Y-38020098D01*
X220049703Y-37510814D01*
X220041355Y-36943369D01*
X220031671Y-36317764D01*
X220029042Y-36152275D01*
X219855359Y-36115030D01*
X219668267Y-36061278D01*
X219577681Y-36032596D01*
X219405877Y-35877404D01*
X219294779Y-35467021D01*
X219275919Y-35092261D01*
X219315311Y-34612710D01*
X219367388Y-34403496D01*
X219518209Y-34147843D01*
X219603327Y-34120175D01*
X219776374Y-34169634D01*
X219954027Y-34248555D01*
X220011945Y-34276490D01*
X220004251Y-33774571D01*
X219999977Y-33533992D01*
X219991685Y-33034656D01*
X219990574Y-32842785D01*
X220037039Y-32365586D01*
X220088881Y-32190656D01*
X220244220Y-31957042D01*
X220327384Y-31931759D01*
X220499289Y-32071249D01*
X220614935Y-32489720D01*
X220665985Y-33008073D01*
X220682655Y-33586700D01*
X220683002Y-33695192D01*
X220677873Y-34276490D01*
X220849537Y-34276490D01*
X220920650Y-34276490D01*
X221103615Y-34290916D01*
X221278033Y-34360740D01*
X221298494Y-34379072D01*
X221442750Y-34682544D01*
X221490647Y-35172234D01*
X221490835Y-35211940D01*
X221446390Y-35684731D01*
X221396802Y-35859184D01*
X221244438Y-36092798D01*
X221159153Y-36118081D01*
G37*
G36*
X223292912Y-34327667D02*
G01*
X223459408Y-34448500D01*
X223621245Y-34618022D01*
X223639928Y-34640412D01*
X223798877Y-34869084D01*
X223933699Y-35179826D01*
X224003239Y-35661347D01*
X223947674Y-36088772D01*
X223917541Y-36571457D01*
X223910061Y-36767767D01*
X223899692Y-37270688D01*
X223897238Y-37722757D01*
X223900347Y-38253431D01*
X223911513Y-38775195D01*
X223936892Y-39300317D01*
X223962207Y-39583887D01*
X224031851Y-40031765D01*
X224072482Y-40284864D01*
X224143007Y-40741598D01*
X224166516Y-40949205D01*
X224111698Y-41416777D01*
X224069063Y-41542715D01*
X223913518Y-41760890D01*
X223844237Y-41779630D01*
X223679064Y-41585658D01*
X223537647Y-41276139D01*
X223493749Y-41166581D01*
X223335147Y-41372775D01*
X223168952Y-41560375D01*
X223103937Y-41623315D01*
X222930439Y-41749711D01*
X222817562Y-41779630D01*
X222643762Y-41758164D01*
X222453825Y-41675732D01*
X222284204Y-41531476D01*
X222111991Y-41285039D01*
X221967429Y-40954452D01*
X221949035Y-40900356D01*
X221836117Y-40472764D01*
X221750933Y-39961490D01*
X221699993Y-39456652D01*
X221669429Y-38890333D01*
X221659916Y-38391982D01*
X222325169Y-38391982D01*
X222336439Y-38915959D01*
X222379716Y-39428869D01*
X222440574Y-39759742D01*
X222574123Y-40087574D01*
X222744525Y-40212462D01*
X222786788Y-40216476D01*
X222957997Y-40167396D01*
X223068888Y-40077258D01*
X223229573Y-39851715D01*
X223320214Y-39666930D01*
X223295811Y-39090106D01*
X223276457Y-38570470D01*
X223260258Y-38036506D01*
X223250160Y-37521574D01*
X223248407Y-37251368D01*
X223258665Y-36753113D01*
X223283496Y-36252405D01*
X223291149Y-36125408D01*
X223205664Y-36027711D01*
X223142405Y-35995960D01*
X222964730Y-36053147D01*
X222800038Y-36224708D01*
X222648329Y-36510644D01*
X222569656Y-36718919D01*
X222451471Y-37143550D01*
X222371965Y-37604118D01*
X222331138Y-38100620D01*
X222325169Y-38391982D01*
X221659916Y-38391982D01*
X221659524Y-38371436D01*
X221659241Y-38262533D01*
X221669676Y-37760428D01*
X221709747Y-37188442D01*
X221779871Y-36649772D01*
X221880049Y-36144418D01*
X221986488Y-35748740D01*
X222086666Y-35448856D01*
X222224615Y-35111114D01*
X222370786Y-34830616D01*
X222525181Y-34607363D01*
X222687799Y-34441354D01*
X222858639Y-34332590D01*
X223037703Y-34281070D01*
X223111631Y-34276490D01*
X223292912Y-34327667D01*
G37*
G36*
X224994768Y-30668422D02*
G01*
X225076433Y-31098929D01*
X225085479Y-31394424D01*
X225076931Y-31707055D01*
X225068382Y-32017244D01*
X225068382Y-34838249D01*
X225231885Y-34606051D01*
X225399249Y-34426990D01*
X225409467Y-34418151D01*
X225580238Y-34307617D01*
X225724907Y-34276490D01*
X225896186Y-34304516D01*
X226087726Y-34412135D01*
X226263999Y-34600470D01*
X226425004Y-34869518D01*
X226570743Y-35219282D01*
X226637887Y-35424431D01*
X226748283Y-35843489D01*
X226835838Y-36294661D01*
X226900553Y-36777947D01*
X226942427Y-37293347D01*
X226961461Y-37840861D01*
X226962730Y-38030503D01*
X226949446Y-38598110D01*
X226909596Y-39132229D01*
X226843178Y-39632860D01*
X226750193Y-40100003D01*
X226630641Y-40533658D01*
X226584886Y-40670768D01*
X226434229Y-41047608D01*
X226270769Y-41346481D01*
X226094506Y-41567387D01*
X225905441Y-41710326D01*
X225703573Y-41775299D01*
X225633438Y-41779630D01*
X225446687Y-41747173D01*
X225265345Y-41649800D01*
X225089413Y-41487512D01*
X224994010Y-41369302D01*
X224839015Y-41607439D01*
X224777733Y-41623315D01*
X224609938Y-41494615D01*
X224554618Y-41374187D01*
X224468064Y-40930428D01*
X224462294Y-40751368D01*
X224469133Y-40243343D01*
X224476819Y-39745870D01*
X224476826Y-39735318D01*
X224476826Y-37936748D01*
X225067105Y-37936748D01*
X225067346Y-38500148D01*
X225067821Y-39047965D01*
X225068382Y-39537481D01*
X225246140Y-39714581D01*
X225426360Y-39843381D01*
X225603582Y-39902414D01*
X225633438Y-39903845D01*
X225813574Y-39852087D01*
X225987233Y-39675590D01*
X226135235Y-39373838D01*
X226247662Y-38975455D01*
X226313421Y-38512424D01*
X226332705Y-38035387D01*
X226313715Y-37512772D01*
X226249681Y-37018352D01*
X226171994Y-36699379D01*
X226030182Y-36365988D01*
X225857355Y-36186469D01*
X225724907Y-36152275D01*
X225553136Y-36225739D01*
X225435968Y-36340342D01*
X225273880Y-36555152D01*
X225118819Y-36807304D01*
X225068382Y-36897216D01*
X225067280Y-37409029D01*
X225067105Y-37936748D01*
X224476826Y-37936748D01*
X224476826Y-31900007D01*
X224498540Y-31403536D01*
X224553763Y-31015848D01*
X224670663Y-30647652D01*
X224828170Y-30524920D01*
X224994768Y-30668422D01*
G37*
G36*
X228720629Y-34296943D02*
G01*
X228905531Y-34370407D01*
X229072587Y-34497298D01*
X229239195Y-34703915D01*
X229380759Y-34980673D01*
X229499970Y-35370240D01*
X229573768Y-35837965D01*
X229602152Y-36383848D01*
X229602507Y-36457579D01*
X229567556Y-36954560D01*
X229475126Y-37371300D01*
X229342545Y-37717815D01*
X229306728Y-37791145D01*
X229152264Y-38049746D01*
X228992928Y-38276005D01*
X228815307Y-38509562D01*
X228765608Y-38572722D01*
X227955211Y-39591214D01*
X228118166Y-39756078D01*
X228233892Y-39825688D01*
X228409777Y-39884306D01*
X228582961Y-39903540D01*
X228609171Y-39903845D01*
X228782609Y-39871194D01*
X228956918Y-39758328D01*
X229126288Y-39541059D01*
X229154565Y-39491075D01*
X229303973Y-39252287D01*
X229475134Y-39122268D01*
X229645770Y-39270464D01*
X229720850Y-39715053D01*
X229724750Y-39896518D01*
X229685514Y-40410239D01*
X229583107Y-40819157D01*
X229438718Y-41140146D01*
X229322971Y-41320454D01*
X229152375Y-41521344D01*
X228976543Y-41664836D01*
X228795475Y-41750932D01*
X228609171Y-41779630D01*
X228434745Y-41760489D01*
X228238877Y-41686987D01*
X228057676Y-41558359D01*
X227891140Y-41374605D01*
X227739271Y-41135724D01*
X227668836Y-40995611D01*
X227531713Y-40645561D01*
X227422960Y-40245709D01*
X227342577Y-39796054D01*
X227290565Y-39296596D01*
X227266923Y-38747336D01*
X227265347Y-38553182D01*
X227273152Y-38022801D01*
X227280167Y-37871745D01*
X227907339Y-37871745D01*
X228076990Y-37660274D01*
X228246140Y-37450235D01*
X228414789Y-37241627D01*
X228448459Y-37200077D01*
X228620702Y-36967228D01*
X228787498Y-36719837D01*
X228941083Y-36461481D01*
X228965643Y-36416057D01*
X228805619Y-36235738D01*
X228623622Y-36158715D01*
X228545057Y-36152275D01*
X228373803Y-36223220D01*
X228213359Y-36458304D01*
X228162084Y-36582143D01*
X228052129Y-36964993D01*
X227966544Y-37422147D01*
X227907339Y-37871745D01*
X227280167Y-37871745D01*
X227296569Y-37518537D01*
X227335596Y-37040391D01*
X227403036Y-36501092D01*
X227492956Y-35999402D01*
X227585061Y-35610056D01*
X227702244Y-35225874D01*
X227858841Y-34850809D01*
X228032870Y-34569510D01*
X228224330Y-34381977D01*
X228397195Y-34297327D01*
X228544202Y-34276490D01*
X228720629Y-34296943D01*
G37*
G36*
X231829391Y-36621221D02*
G01*
X231657189Y-36538475D01*
X231543016Y-36188912D01*
X231370884Y-36152848D01*
X231345546Y-36152275D01*
X231148867Y-36166615D01*
X230970838Y-36219592D01*
X230802983Y-36381711D01*
X230766812Y-36560161D01*
X230903054Y-36920419D01*
X231073356Y-37146344D01*
X231115591Y-37195192D01*
X231283038Y-37390195D01*
X231451120Y-37596645D01*
X231607251Y-37804824D01*
X231759293Y-38042715D01*
X231911884Y-38375343D01*
X232031436Y-38794437D01*
X232095810Y-39261057D01*
X232108072Y-39598542D01*
X232089664Y-40100499D01*
X232023547Y-40605471D01*
X231909344Y-41037170D01*
X231769972Y-41354800D01*
X231723389Y-41435248D01*
X231559365Y-41654303D01*
X231377603Y-41810771D01*
X231204010Y-41896340D01*
X231016836Y-41933990D01*
X230960863Y-41935946D01*
X230785419Y-41911023D01*
X230600792Y-41824870D01*
X230427017Y-41677180D01*
X230377001Y-41620872D01*
X230219174Y-41381667D01*
X230085303Y-41010962D01*
X230019425Y-40511173D01*
X230016254Y-40358137D01*
X230063517Y-39861585D01*
X230220128Y-39609938D01*
X230302629Y-39591214D01*
X230479209Y-39682806D01*
X230622343Y-39825688D01*
X230787112Y-39985972D01*
X230944621Y-40060161D01*
X231134939Y-40035968D01*
X231311352Y-39933765D01*
X231434670Y-39585683D01*
X231435305Y-39554578D01*
X231315662Y-39162346D01*
X231156580Y-38941383D01*
X231095929Y-38873140D01*
X230922822Y-38682202D01*
X230752467Y-38486137D01*
X230583447Y-38276301D01*
X230461631Y-38098891D01*
X230313154Y-37780154D01*
X230196825Y-37357346D01*
X230134187Y-36866533D01*
X230122255Y-36501542D01*
X230140257Y-35996790D01*
X230206764Y-35491042D01*
X230322277Y-35074821D01*
X230486795Y-34748124D01*
X230634310Y-34569581D01*
X230804265Y-34441354D01*
X230984970Y-34359208D01*
X231163627Y-34311123D01*
X231364223Y-34283646D01*
X231548145Y-34276490D01*
X231722720Y-34306722D01*
X231888850Y-34437490D01*
X231903763Y-34459672D01*
X232027828Y-34835675D01*
X232062610Y-35320268D01*
X232062765Y-35360928D01*
X232051597Y-35852000D01*
X231996900Y-36344302D01*
X231843749Y-36619991D01*
X231829391Y-36621221D01*
G37*
G36*
X233625431Y-41935946D02*
G01*
X233433300Y-41906064D01*
X233253130Y-41816419D01*
X233084922Y-41667011D01*
X232928674Y-41457840D01*
X232784388Y-41188906D01*
X232738951Y-41085981D01*
X232610543Y-40728919D01*
X232508703Y-40331843D01*
X232423466Y-39818014D01*
X232379188Y-39334242D01*
X232361476Y-38810455D01*
X232361107Y-38719267D01*
X232373039Y-38207932D01*
X232408832Y-37690585D01*
X232468488Y-37167228D01*
X232552006Y-36637860D01*
X232639833Y-36192129D01*
X232700483Y-35922687D01*
X232823743Y-35448441D01*
X232953098Y-35054575D01*
X233088546Y-34741091D01*
X233259129Y-34471011D01*
X233438487Y-34316680D01*
X233594656Y-34276490D01*
X233776754Y-34324687D01*
X233959478Y-34452152D01*
X234137920Y-34634983D01*
X234179373Y-34684376D01*
X234337591Y-34911863D01*
X234483914Y-35225984D01*
X234575514Y-35642969D01*
X234585427Y-35844529D01*
X234539265Y-36335457D01*
X234503361Y-36479561D01*
X234353193Y-36753966D01*
X234280246Y-36777537D01*
X234109916Y-36616031D01*
X234031484Y-36464906D01*
X233876346Y-36251193D01*
X233698831Y-36163266D01*
X233594656Y-36152275D01*
X233427035Y-36333196D01*
X233299893Y-36683961D01*
X233193731Y-37097495D01*
X233103224Y-37537590D01*
X233032313Y-37995839D01*
X232990090Y-38502922D01*
X232986858Y-38672861D01*
X233017049Y-39158747D01*
X233117094Y-39579226D01*
X233169795Y-39703566D01*
X233328439Y-39934447D01*
X233507436Y-40043097D01*
X233626285Y-40060161D01*
X233805163Y-39982003D01*
X233977252Y-39803400D01*
X234020371Y-39747530D01*
X234181771Y-39545114D01*
X234316149Y-39434899D01*
X234483503Y-39577478D01*
X234538410Y-39710893D01*
X234623431Y-40148012D01*
X234630734Y-40341040D01*
X234563296Y-40791112D01*
X234419641Y-41136773D01*
X234247255Y-41412958D01*
X234222116Y-41447460D01*
X234047620Y-41661173D01*
X233871492Y-41828612D01*
X233700856Y-41924020D01*
X233625431Y-41935946D01*
G37*
G36*
X236376051Y-34315817D02*
G01*
X236560700Y-34461108D01*
X236726532Y-34713456D01*
X236873548Y-35072860D01*
X236967039Y-35395122D01*
X237066300Y-35858394D01*
X237141181Y-36367715D01*
X237185961Y-36840925D01*
X237212828Y-37347968D01*
X237221784Y-37888842D01*
X237214501Y-38384018D01*
X237186531Y-38947532D01*
X237137584Y-39477558D01*
X237067660Y-39974096D01*
X236976759Y-40437146D01*
X236923442Y-40656113D01*
X236790075Y-41091056D01*
X236640660Y-41436011D01*
X236475196Y-41690978D01*
X236293684Y-41855956D01*
X236096124Y-41930946D01*
X236026704Y-41935946D01*
X235838198Y-41893520D01*
X235661636Y-41766245D01*
X235497019Y-41554118D01*
X235344347Y-41257141D01*
X235262468Y-41049344D01*
X235142756Y-40661971D01*
X235046485Y-40228917D01*
X234973656Y-39750182D01*
X234924268Y-39225766D01*
X234898322Y-38655669D01*
X234894883Y-38455485D01*
X234894969Y-38445715D01*
X235560811Y-38445715D01*
X235580104Y-38967675D01*
X235645160Y-39433072D01*
X235724087Y-39710893D01*
X235874450Y-39983417D01*
X236027559Y-40060161D01*
X236200182Y-39982556D01*
X236351534Y-39749743D01*
X236390870Y-39654718D01*
X236499343Y-39251946D01*
X236561894Y-38754377D01*
X236578082Y-38370000D01*
X236578470Y-37851824D01*
X236558405Y-37300918D01*
X236504189Y-36781825D01*
X236399382Y-36371998D01*
X236224806Y-36161797D01*
X236172029Y-36152275D01*
X235999356Y-36224260D01*
X235837570Y-36480307D01*
X235716088Y-36873862D01*
X235705280Y-36921640D01*
X235623029Y-37395953D01*
X235577882Y-37872227D01*
X235560952Y-38391433D01*
X235560811Y-38445715D01*
X234894969Y-38445715D01*
X234899892Y-37888393D01*
X234927741Y-37344829D01*
X234978431Y-36824792D01*
X235051961Y-36328283D01*
X235148332Y-35855301D01*
X235185532Y-35702868D01*
X235306839Y-35291949D01*
X235442087Y-34950677D01*
X235591277Y-34679052D01*
X235754408Y-34477075D01*
X235931480Y-34344745D01*
X236122494Y-34282062D01*
X236202803Y-34276490D01*
X236376051Y-34315817D01*
G37*
G36*
X239467475Y-38497006D02*
G01*
X239269310Y-38497006D01*
X239078261Y-38497006D01*
X238891275Y-38497006D01*
X238679036Y-38497006D01*
X238491063Y-38497006D01*
X238286927Y-38497006D01*
X238115022Y-38418772D01*
X238025343Y-38296727D01*
X237911475Y-37926738D01*
X237892842Y-37639714D01*
X237949905Y-37171584D01*
X238025343Y-36985143D01*
X238188908Y-36802068D01*
X238286927Y-36777537D01*
X238472995Y-36777537D01*
X238658558Y-36777537D01*
X238833575Y-36777537D01*
X238857112Y-36777537D01*
X239035081Y-36777537D01*
X239207069Y-36777537D01*
X239389893Y-36777537D01*
X239427297Y-36777537D01*
X239599202Y-36847184D01*
X239688881Y-36955834D01*
X239809508Y-37306826D01*
X239833351Y-37637272D01*
X239781900Y-38124536D01*
X239627546Y-38413964D01*
X239467475Y-38497006D01*
G37*
G36*
X242571004Y-30924856D02*
G01*
X242646662Y-31040272D01*
X242754461Y-31441785D01*
X242768906Y-31719267D01*
X242771470Y-36777537D01*
X242947716Y-36808974D01*
X243126019Y-36897063D01*
X243192056Y-36970489D01*
X243296086Y-37380416D01*
X243310026Y-37722757D01*
X243265146Y-38219791D01*
X243127088Y-38533643D01*
X242950615Y-38644840D01*
X242771470Y-38653322D01*
X242773875Y-39150661D01*
X242774249Y-39668151D01*
X242772592Y-40205790D01*
X242768906Y-40763580D01*
X242719378Y-41251303D01*
X242682566Y-41381515D01*
X242522762Y-41608202D01*
X242454321Y-41623315D01*
X242278810Y-41516282D01*
X242154856Y-41146292D01*
X242109549Y-40660020D01*
X242105542Y-40270210D01*
X242105542Y-38653322D01*
X241146401Y-38653322D01*
X240965480Y-38639392D01*
X240773251Y-38582804D01*
X240592330Y-38457439D01*
X240435532Y-38192779D01*
X240374471Y-37761836D01*
X240422087Y-37284179D01*
X240509537Y-36921640D01*
X240554438Y-36777537D01*
X241386613Y-36777537D01*
X242105542Y-36777537D01*
X242105542Y-33807544D01*
X242009161Y-34220047D01*
X241895049Y-34699183D01*
X241786410Y-35149362D01*
X241665458Y-35645815D01*
X241559831Y-36076293D01*
X241446323Y-36536385D01*
X241386613Y-36777537D01*
X240554438Y-36777537D01*
X240627429Y-36543286D01*
X240732653Y-36206009D01*
X240835809Y-35790719D01*
X240951655Y-35327650D01*
X241080190Y-34816801D01*
X241184918Y-34402309D01*
X241296784Y-33960940D01*
X241415788Y-33492695D01*
X241541929Y-32997573D01*
X241675208Y-32475576D01*
X241815624Y-31926702D01*
X241913201Y-31545855D01*
X242041312Y-31172335D01*
X242191628Y-30937156D01*
X242364151Y-30840318D01*
X242401320Y-30837551D01*
X242571004Y-30924856D01*
G37*
G36*
X245020386Y-30854975D02*
G01*
X245208800Y-30933972D01*
X245376959Y-31076339D01*
X245547542Y-31322525D01*
X245690555Y-31654965D01*
X245708735Y-31709498D01*
X245816072Y-32129290D01*
X245892741Y-32619302D01*
X245934670Y-33105665D01*
X245953118Y-33645790D01*
X245954077Y-33809986D01*
X245940973Y-34328964D01*
X245892564Y-34829385D01*
X245860898Y-35009219D01*
X245748272Y-35395733D01*
X245603792Y-35702878D01*
X245579652Y-35744390D01*
X245731467Y-36030347D01*
X245869378Y-36377534D01*
X245983669Y-36795254D01*
X246000239Y-36875234D01*
X246077325Y-37366630D01*
X246122293Y-37884341D01*
X246142849Y-38404540D01*
X246146418Y-38758346D01*
X246132293Y-39309267D01*
X246089918Y-39813475D01*
X246019292Y-40270973D01*
X245920417Y-40681759D01*
X245793291Y-41045833D01*
X245744638Y-41156811D01*
X245576492Y-41460400D01*
X245417129Y-41661270D01*
X245243701Y-41807358D01*
X245056209Y-41898663D01*
X244854651Y-41935185D01*
X244819691Y-41935946D01*
X244626388Y-41912332D01*
X244446549Y-41841492D01*
X244280174Y-41723426D01*
X244103086Y-41525992D01*
X243944324Y-41264278D01*
X243809285Y-40944024D01*
X243686380Y-40506364D01*
X243600782Y-39999749D01*
X243557104Y-39510624D01*
X243540835Y-38970838D01*
X243542246Y-38816965D01*
X244196505Y-38816965D01*
X244237050Y-39295595D01*
X244358973Y-39692031D01*
X244422186Y-39803706D01*
X244582420Y-39979017D01*
X244763925Y-40056154D01*
X244819691Y-40060161D01*
X244993866Y-40032225D01*
X245170113Y-39918738D01*
X245320780Y-39667321D01*
X245339440Y-39613196D01*
X245422146Y-39158294D01*
X245448746Y-38633122D01*
X245449715Y-38492122D01*
X245422307Y-38008635D01*
X245330754Y-37567803D01*
X245254809Y-37366162D01*
X245096375Y-37093612D01*
X244930108Y-36895863D01*
X244805158Y-36777537D01*
X244646744Y-36983769D01*
X244490049Y-37223957D01*
X244347814Y-37527362D01*
X244245311Y-37958179D01*
X244200531Y-38468914D01*
X244196505Y-38816965D01*
X243542246Y-38816965D01*
X243545497Y-38462545D01*
X243572850Y-37879666D01*
X243624120Y-37355104D01*
X243699307Y-36888861D01*
X243798412Y-36480934D01*
X243921435Y-36131326D01*
X244006728Y-35949554D01*
X243870827Y-35583821D01*
X243768305Y-35179053D01*
X243692010Y-34668662D01*
X243661015Y-34180246D01*
X243658187Y-33976071D01*
X244319604Y-33976071D01*
X244395897Y-34434020D01*
X244555581Y-34710033D01*
X244719613Y-34863789D01*
X244774384Y-34901752D01*
X244941520Y-34772494D01*
X245102981Y-34604665D01*
X245122308Y-34576909D01*
X245255711Y-34242873D01*
X245293278Y-33858835D01*
X245274231Y-33372949D01*
X245184973Y-32937090D01*
X245177873Y-32920942D01*
X245012945Y-32747599D01*
X244841062Y-32713336D01*
X244662285Y-32757729D01*
X244500964Y-32921737D01*
X244368323Y-33310176D01*
X244321039Y-33823162D01*
X244319604Y-33976071D01*
X243658187Y-33976071D01*
X243657950Y-33958974D01*
X243670632Y-33465957D01*
X243717487Y-32931792D01*
X243798866Y-32441807D01*
X243914770Y-31995999D01*
X244018696Y-31704613D01*
X244175834Y-31371772D01*
X244346551Y-31119107D01*
X244530850Y-30946618D01*
X244699629Y-30862583D01*
X244847901Y-30837551D01*
X245020386Y-30854975D01*
G37*
D12*
X209105667Y-36173200D02*
X209248524Y-36220819D01*
X209248524Y-36220819D02*
X209486619Y-36220819D01*
X209486619Y-36220819D02*
X209581857Y-36173200D01*
X209581857Y-36173200D02*
X209629476Y-36125580D01*
X209629476Y-36125580D02*
X209677095Y-36030342D01*
X209677095Y-36030342D02*
X209677095Y-35935104D01*
X209677095Y-35935104D02*
X209629476Y-35839866D01*
X209629476Y-35839866D02*
X209581857Y-35792247D01*
X209581857Y-35792247D02*
X209486619Y-35744628D01*
X209486619Y-35744628D02*
X209296143Y-35697009D01*
X209296143Y-35697009D02*
X209200905Y-35649390D01*
X209200905Y-35649390D02*
X209153286Y-35601771D01*
X209153286Y-35601771D02*
X209105667Y-35506533D01*
X209105667Y-35506533D02*
X209105667Y-35411295D01*
X209105667Y-35411295D02*
X209153286Y-35316057D01*
X209153286Y-35316057D02*
X209200905Y-35268438D01*
X209200905Y-35268438D02*
X209296143Y-35220819D01*
X209296143Y-35220819D02*
X209534238Y-35220819D01*
X209534238Y-35220819D02*
X209677095Y-35268438D01*
X210010429Y-35220819D02*
X210248524Y-36220819D01*
X210248524Y-36220819D02*
X210439000Y-35506533D01*
X210439000Y-35506533D02*
X210629476Y-36220819D01*
X210629476Y-36220819D02*
X210867572Y-35220819D01*
X211772333Y-36220819D02*
X211200905Y-36220819D01*
X211486619Y-36220819D02*
X211486619Y-35220819D01*
X211486619Y-35220819D02*
X211391381Y-35363676D01*
X211391381Y-35363676D02*
X211296143Y-35458914D01*
X211296143Y-35458914D02*
X211200905Y-35506533D01*
X215856680Y-28718845D02*
X215047157Y-28718845D01*
X215047157Y-28718845D02*
X214951919Y-28766464D01*
X214951919Y-28766464D02*
X214904300Y-28814083D01*
X214904300Y-28814083D02*
X214856680Y-28909321D01*
X214856680Y-28909321D02*
X214856680Y-29099797D01*
X214856680Y-29099797D02*
X214904300Y-29195035D01*
X214904300Y-29195035D02*
X214951919Y-29242654D01*
X214951919Y-29242654D02*
X215047157Y-29290273D01*
X215047157Y-29290273D02*
X215856680Y-29290273D01*
X214856680Y-30290273D02*
X214856680Y-29718845D01*
X214856680Y-30004559D02*
X215856680Y-30004559D01*
X215856680Y-30004559D02*
X215713823Y-29909321D01*
X215713823Y-29909321D02*
X215618585Y-29814083D01*
X215618585Y-29814083D02*
X215570966Y-29718845D01*
X247921319Y-43815035D02*
X247921319Y-44386463D01*
X247921319Y-44100749D02*
X246921319Y-44100749D01*
X246921319Y-44100749D02*
X247064176Y-44195987D01*
X247064176Y-44195987D02*
X247159414Y-44291225D01*
X247159414Y-44291225D02*
X247207033Y-44386463D01*
X249041680Y-35218845D02*
X248232157Y-35218845D01*
X248232157Y-35218845D02*
X248136919Y-35266464D01*
X248136919Y-35266464D02*
X248089300Y-35314083D01*
X248089300Y-35314083D02*
X248041680Y-35409321D01*
X248041680Y-35409321D02*
X248041680Y-35599797D01*
X248041680Y-35599797D02*
X248089300Y-35695035D01*
X248089300Y-35695035D02*
X248136919Y-35742654D01*
X248136919Y-35742654D02*
X248232157Y-35790273D01*
X248232157Y-35790273D02*
X249041680Y-35790273D01*
X248089300Y-36218845D02*
X248041680Y-36361702D01*
X248041680Y-36361702D02*
X248041680Y-36599797D01*
X248041680Y-36599797D02*
X248089300Y-36695035D01*
X248089300Y-36695035D02*
X248136919Y-36742654D01*
X248136919Y-36742654D02*
X248232157Y-36790273D01*
X248232157Y-36790273D02*
X248327395Y-36790273D01*
X248327395Y-36790273D02*
X248422633Y-36742654D01*
X248422633Y-36742654D02*
X248470252Y-36695035D01*
X248470252Y-36695035D02*
X248517871Y-36599797D01*
X248517871Y-36599797D02*
X248565490Y-36409321D01*
X248565490Y-36409321D02*
X248613109Y-36314083D01*
X248613109Y-36314083D02*
X248660728Y-36266464D01*
X248660728Y-36266464D02*
X248755966Y-36218845D01*
X248755966Y-36218845D02*
X248851204Y-36218845D01*
X248851204Y-36218845D02*
X248946442Y-36266464D01*
X248946442Y-36266464D02*
X248994061Y-36314083D01*
X248994061Y-36314083D02*
X249041680Y-36409321D01*
X249041680Y-36409321D02*
X249041680Y-36647416D01*
X249041680Y-36647416D02*
X248994061Y-36790273D01*
X248565490Y-37552178D02*
X248517871Y-37695035D01*
X248517871Y-37695035D02*
X248470252Y-37742654D01*
X248470252Y-37742654D02*
X248375014Y-37790273D01*
X248375014Y-37790273D02*
X248232157Y-37790273D01*
X248232157Y-37790273D02*
X248136919Y-37742654D01*
X248136919Y-37742654D02*
X248089300Y-37695035D01*
X248089300Y-37695035D02*
X248041680Y-37599797D01*
X248041680Y-37599797D02*
X248041680Y-37218845D01*
X248041680Y-37218845D02*
X249041680Y-37218845D01*
X249041680Y-37218845D02*
X249041680Y-37552178D01*
X249041680Y-37552178D02*
X248994061Y-37647416D01*
X248994061Y-37647416D02*
X248946442Y-37695035D01*
X248946442Y-37695035D02*
X248851204Y-37742654D01*
X248851204Y-37742654D02*
X248755966Y-37742654D01*
X248755966Y-37742654D02*
X248660728Y-37695035D01*
X248660728Y-37695035D02*
X248613109Y-37647416D01*
X248613109Y-37647416D02*
X248565490Y-37552178D01*
X248565490Y-37552178D02*
X248565490Y-37218845D01*
X247308347Y-33195036D02*
X247308347Y-33575988D01*
X247641680Y-33337893D02*
X246784538Y-33337893D01*
X246784538Y-33337893D02*
X246689300Y-33385512D01*
X246689300Y-33385512D02*
X246641680Y-33480750D01*
X246641680Y-33480750D02*
X246641680Y-33575988D01*
X246641680Y-34052179D02*
X246689300Y-33956941D01*
X246689300Y-33956941D02*
X246736919Y-33909322D01*
X246736919Y-33909322D02*
X246832157Y-33861703D01*
X246832157Y-33861703D02*
X247117871Y-33861703D01*
X247117871Y-33861703D02*
X247213109Y-33909322D01*
X247213109Y-33909322D02*
X247260728Y-33956941D01*
X247260728Y-33956941D02*
X247308347Y-34052179D01*
X247308347Y-34052179D02*
X247308347Y-34195036D01*
X247308347Y-34195036D02*
X247260728Y-34290274D01*
X247260728Y-34290274D02*
X247213109Y-34337893D01*
X247213109Y-34337893D02*
X247117871Y-34385512D01*
X247117871Y-34385512D02*
X246832157Y-34385512D01*
X246832157Y-34385512D02*
X246736919Y-34337893D01*
X246736919Y-34337893D02*
X246689300Y-34290274D01*
X246689300Y-34290274D02*
X246641680Y-34195036D01*
X246641680Y-34195036D02*
X246641680Y-34052179D01*
X247308347Y-34718846D02*
X246641680Y-34909322D01*
X246641680Y-34909322D02*
X247117871Y-35099798D01*
X247117871Y-35099798D02*
X246641680Y-35290274D01*
X246641680Y-35290274D02*
X247308347Y-35480750D01*
X246736919Y-35861703D02*
X246689300Y-35909322D01*
X246689300Y-35909322D02*
X246641680Y-35861703D01*
X246641680Y-35861703D02*
X246689300Y-35814084D01*
X246689300Y-35814084D02*
X246736919Y-35861703D01*
X246736919Y-35861703D02*
X246641680Y-35861703D01*
X246641680Y-37099798D02*
X247641680Y-37099798D01*
X247641680Y-37099798D02*
X247641680Y-37480750D01*
X247641680Y-37480750D02*
X247594061Y-37575988D01*
X247594061Y-37575988D02*
X247546442Y-37623607D01*
X247546442Y-37623607D02*
X247451204Y-37671226D01*
X247451204Y-37671226D02*
X247308347Y-37671226D01*
X247308347Y-37671226D02*
X247213109Y-37623607D01*
X247213109Y-37623607D02*
X247165490Y-37575988D01*
X247165490Y-37575988D02*
X247117871Y-37480750D01*
X247117871Y-37480750D02*
X247117871Y-37099798D01*
X246736919Y-38671226D02*
X246689300Y-38623607D01*
X246689300Y-38623607D02*
X246641680Y-38480750D01*
X246641680Y-38480750D02*
X246641680Y-38385512D01*
X246641680Y-38385512D02*
X246689300Y-38242655D01*
X246689300Y-38242655D02*
X246784538Y-38147417D01*
X246784538Y-38147417D02*
X246879776Y-38099798D01*
X246879776Y-38099798D02*
X247070252Y-38052179D01*
X247070252Y-38052179D02*
X247213109Y-38052179D01*
X247213109Y-38052179D02*
X247403585Y-38099798D01*
X247403585Y-38099798D02*
X247498823Y-38147417D01*
X247498823Y-38147417D02*
X247594061Y-38242655D01*
X247594061Y-38242655D02*
X247641680Y-38385512D01*
X247641680Y-38385512D02*
X247641680Y-38480750D01*
X247641680Y-38480750D02*
X247594061Y-38623607D01*
X247594061Y-38623607D02*
X247546442Y-38671226D01*
X247165490Y-39433131D02*
X247117871Y-39575988D01*
X247117871Y-39575988D02*
X247070252Y-39623607D01*
X247070252Y-39623607D02*
X246975014Y-39671226D01*
X246975014Y-39671226D02*
X246832157Y-39671226D01*
X246832157Y-39671226D02*
X246736919Y-39623607D01*
X246736919Y-39623607D02*
X246689300Y-39575988D01*
X246689300Y-39575988D02*
X246641680Y-39480750D01*
X246641680Y-39480750D02*
X246641680Y-39099798D01*
X246641680Y-39099798D02*
X247641680Y-39099798D01*
X247641680Y-39099798D02*
X247641680Y-39433131D01*
X247641680Y-39433131D02*
X247594061Y-39528369D01*
X247594061Y-39528369D02*
X247546442Y-39575988D01*
X247546442Y-39575988D02*
X247451204Y-39623607D01*
X247451204Y-39623607D02*
X247355966Y-39623607D01*
X247355966Y-39623607D02*
X247260728Y-39575988D01*
X247260728Y-39575988D02*
X247213109Y-39528369D01*
X247213109Y-39528369D02*
X247165490Y-39433131D01*
X247165490Y-39433131D02*
X247165490Y-39099798D01*
D13*
%TO.C,SW1*%
X206629000Y-36576000D02*
X206629000Y-36876000D01*
X206629000Y-36576000D02*
X214249000Y-36576000D01*
X206629000Y-38816000D02*
X206629000Y-41956000D01*
X206629000Y-43896000D02*
X206629000Y-44196000D01*
X214249000Y-36576000D02*
X214249000Y-36876000D01*
X214249000Y-38816000D02*
X214249000Y-41956000D01*
X214249000Y-43896000D02*
X214249000Y-44196000D01*
X214249000Y-44196000D02*
X206629000Y-44196000D01*
X212979000Y-40386000D02*
G75*
G02*
X207899000Y-40386000I-2540000J0D01*
G01*
X207899000Y-40386000D02*
G75*
G02*
X212979000Y-40386000I2540000J0D01*
G01*
D12*
%TO.C,U1*%
X245911500Y-32930750D02*
X249491500Y-32930750D01*
X245911500Y-40030750D02*
X245911500Y-32930750D01*
X245911500Y-40030750D02*
X249491500Y-40030750D01*
X249491500Y-27590750D02*
X216471500Y-27590750D01*
X216471500Y-45370750D01*
X249491500Y-45370750D01*
X249491500Y-27590750D01*
%TD*%
M02*
