M48
; DRILL file {KiCad 8.0.6} date 2024-11-22T09:07:57-0700
; FORMAT={-:-/ absolute / inch / decimal}
; #@! TF.CreationDate,2024-11-22T09:07:57-07:00
; #@! TF.GenerationSoftware,Kicad,Pcbnew,8.0.6
; #@! TF.FileFunction,Plated,1,2,PTH
FMAT,2
INCH
; #@! TA.AperFunction,Plated,PTH,ComponentDrill
T1C0.0320
; #@! TA.AperFunction,Plated,PTH,ComponentDrill
T2C0.0394
; #@! TA.AperFunction,Plated,PTH,ComponentDrill
T3C0.1181
%
G90
G05
T1
X8.135Y-1.49
X8.135Y-1.69
X8.435Y-1.49
X8.435Y-1.69
T2
X8.5725Y-1.1362
X8.5725Y-1.7363
X8.6725Y-1.1362
X8.6725Y-1.7363
X8.7725Y-1.1362
X8.7725Y-1.7363
X8.8725Y-1.1362
X8.8725Y-1.7363
X8.9725Y-1.1362
X8.9725Y-1.7363
X9.0725Y-1.1362
X9.0725Y-1.7363
X9.1725Y-1.1362
X9.1725Y-1.7363
X9.2725Y-1.1362
X9.2725Y-1.7363
X9.3725Y-1.1362
X9.3725Y-1.7363
X9.4725Y-1.1362
X9.4725Y-1.7363
X9.5725Y-1.1362
X9.5725Y-1.7363
X9.6725Y-1.1362
X9.6725Y-1.7363
T3
X2.585Y-2.18
X2.585Y-2.93
X2.585Y-4.43
X2.585Y-5.18
X2.835Y-2.08
X2.835Y-2.83
X2.835Y-4.33
X2.835Y-5.08
X2.96Y-3.68
X3.21Y-3.58
X3.335Y-2.18
X3.335Y-2.93
X3.335Y-4.43
X3.335Y-5.18
X3.585Y-2.08
X3.585Y-2.83
X3.585Y-4.33
X3.585Y-5.08
X3.71Y-3.68
X3.96Y-3.58
X4.085Y-2.18
X4.085Y-2.93
X4.085Y-4.43
X4.085Y-5.18
X4.335Y-2.08
X4.335Y-2.83
X4.335Y-4.33
X4.335Y-5.08
X4.46Y-3.68
X4.71Y-3.58
X4.835Y-2.18
X4.835Y-2.93
X4.835Y-4.43
X5.0225Y-5.18
X5.085Y-2.08
X5.085Y-2.83
X5.085Y-4.33
X5.21Y-3.68
X5.2725Y-5.08
X5.46Y-3.58
X5.585Y-2.18
X5.585Y-2.93
X5.585Y-4.43
X5.835Y-2.08
X5.835Y-2.83
X5.835Y-4.33
X5.96Y-3.68
X5.96Y-5.18
X6.21Y-3.58
X6.21Y-5.08
X6.335Y-2.18
X6.335Y-2.93
X6.335Y-4.43
X6.585Y-2.08
X6.585Y-2.83
X6.585Y-4.33
X6.71Y-3.68
X6.9069Y-5.18
X6.96Y-3.58
X7.085Y-2.18
X7.085Y-2.93
X7.085Y-4.43
X7.1569Y-5.08
X7.335Y-2.08
X7.335Y-2.83
X7.335Y-4.33
X7.46Y-3.68
X7.71Y-3.58
X7.835Y-2.18
X7.835Y-2.93
X7.835Y-4.43
X7.835Y-5.18
X8.085Y-2.08
X8.085Y-2.83
X8.085Y-4.33
X8.085Y-5.08
X8.21Y-3.68
X8.46Y-3.58
X8.585Y-2.18
X8.585Y-2.93
X8.585Y-4.43
X8.585Y-5.18
X8.835Y-2.08
X8.835Y-2.83
X8.835Y-4.33
X8.835Y-5.08
X8.96Y-3.68
X9.21Y-3.58
X9.335Y-2.18
X9.335Y-2.93
X9.335Y-4.43
X9.335Y-5.18
X9.585Y-2.08
X9.585Y-2.83
X9.585Y-4.33
X9.585Y-5.08
M30
