%TF.GenerationSoftware,KiCad,Pcbnew,8.0.6*%
%TF.CreationDate,2024-11-21T10:17:36-07:00*%
%TF.ProjectId,newk-tabesque48,6e65776b-2d74-4616-9265-737175653438,rev?*%
%TF.SameCoordinates,Original*%
%TF.FileFunction,Legend,Top*%
%TF.FilePolarity,Positive*%
%FSLAX46Y46*%
G04 Gerber Fmt 4.6, Leading zero omitted, Abs format (unit mm)*
G04 Created by KiCad (PCBNEW 8.0.6) date 2024-11-21 10:17:36*
%MOMM*%
%LPD*%
G01*
G04 APERTURE LIST*
%ADD10C,0.150000*%
%ADD11C,0.120000*%
G04 APERTURE END LIST*
D10*
X209105667Y-36173200D02*
X209248524Y-36220819D01*
X209248524Y-36220819D02*
X209486619Y-36220819D01*
X209486619Y-36220819D02*
X209581857Y-36173200D01*
X209581857Y-36173200D02*
X209629476Y-36125580D01*
X209629476Y-36125580D02*
X209677095Y-36030342D01*
X209677095Y-36030342D02*
X209677095Y-35935104D01*
X209677095Y-35935104D02*
X209629476Y-35839866D01*
X209629476Y-35839866D02*
X209581857Y-35792247D01*
X209581857Y-35792247D02*
X209486619Y-35744628D01*
X209486619Y-35744628D02*
X209296143Y-35697009D01*
X209296143Y-35697009D02*
X209200905Y-35649390D01*
X209200905Y-35649390D02*
X209153286Y-35601771D01*
X209153286Y-35601771D02*
X209105667Y-35506533D01*
X209105667Y-35506533D02*
X209105667Y-35411295D01*
X209105667Y-35411295D02*
X209153286Y-35316057D01*
X209153286Y-35316057D02*
X209200905Y-35268438D01*
X209200905Y-35268438D02*
X209296143Y-35220819D01*
X209296143Y-35220819D02*
X209534238Y-35220819D01*
X209534238Y-35220819D02*
X209677095Y-35268438D01*
X210010429Y-35220819D02*
X210248524Y-36220819D01*
X210248524Y-36220819D02*
X210439000Y-35506533D01*
X210439000Y-35506533D02*
X210629476Y-36220819D01*
X210629476Y-36220819D02*
X210867572Y-35220819D01*
X211772333Y-36220819D02*
X211200905Y-36220819D01*
X211486619Y-36220819D02*
X211486619Y-35220819D01*
X211486619Y-35220819D02*
X211391381Y-35363676D01*
X211391381Y-35363676D02*
X211296143Y-35458914D01*
X211296143Y-35458914D02*
X211200905Y-35506533D01*
X215856680Y-28718845D02*
X215047157Y-28718845D01*
X215047157Y-28718845D02*
X214951919Y-28766464D01*
X214951919Y-28766464D02*
X214904300Y-28814083D01*
X214904300Y-28814083D02*
X214856680Y-28909321D01*
X214856680Y-28909321D02*
X214856680Y-29099797D01*
X214856680Y-29099797D02*
X214904300Y-29195035D01*
X214904300Y-29195035D02*
X214951919Y-29242654D01*
X214951919Y-29242654D02*
X215047157Y-29290273D01*
X215047157Y-29290273D02*
X215856680Y-29290273D01*
X214856680Y-30290273D02*
X214856680Y-29718845D01*
X214856680Y-30004559D02*
X215856680Y-30004559D01*
X215856680Y-30004559D02*
X215713823Y-29909321D01*
X215713823Y-29909321D02*
X215618585Y-29814083D01*
X215618585Y-29814083D02*
X215570966Y-29718845D01*
X247921319Y-43815035D02*
X247921319Y-44386463D01*
X247921319Y-44100749D02*
X246921319Y-44100749D01*
X246921319Y-44100749D02*
X247064176Y-44195987D01*
X247064176Y-44195987D02*
X247159414Y-44291225D01*
X247159414Y-44291225D02*
X247207033Y-44386463D01*
X249041680Y-35218845D02*
X248232157Y-35218845D01*
X248232157Y-35218845D02*
X248136919Y-35266464D01*
X248136919Y-35266464D02*
X248089300Y-35314083D01*
X248089300Y-35314083D02*
X248041680Y-35409321D01*
X248041680Y-35409321D02*
X248041680Y-35599797D01*
X248041680Y-35599797D02*
X248089300Y-35695035D01*
X248089300Y-35695035D02*
X248136919Y-35742654D01*
X248136919Y-35742654D02*
X248232157Y-35790273D01*
X248232157Y-35790273D02*
X249041680Y-35790273D01*
X248089300Y-36218845D02*
X248041680Y-36361702D01*
X248041680Y-36361702D02*
X248041680Y-36599797D01*
X248041680Y-36599797D02*
X248089300Y-36695035D01*
X248089300Y-36695035D02*
X248136919Y-36742654D01*
X248136919Y-36742654D02*
X248232157Y-36790273D01*
X248232157Y-36790273D02*
X248327395Y-36790273D01*
X248327395Y-36790273D02*
X248422633Y-36742654D01*
X248422633Y-36742654D02*
X248470252Y-36695035D01*
X248470252Y-36695035D02*
X248517871Y-36599797D01*
X248517871Y-36599797D02*
X248565490Y-36409321D01*
X248565490Y-36409321D02*
X248613109Y-36314083D01*
X248613109Y-36314083D02*
X248660728Y-36266464D01*
X248660728Y-36266464D02*
X248755966Y-36218845D01*
X248755966Y-36218845D02*
X248851204Y-36218845D01*
X248851204Y-36218845D02*
X248946442Y-36266464D01*
X248946442Y-36266464D02*
X248994061Y-36314083D01*
X248994061Y-36314083D02*
X249041680Y-36409321D01*
X249041680Y-36409321D02*
X249041680Y-36647416D01*
X249041680Y-36647416D02*
X248994061Y-36790273D01*
X248565490Y-37552178D02*
X248517871Y-37695035D01*
X248517871Y-37695035D02*
X248470252Y-37742654D01*
X248470252Y-37742654D02*
X248375014Y-37790273D01*
X248375014Y-37790273D02*
X248232157Y-37790273D01*
X248232157Y-37790273D02*
X248136919Y-37742654D01*
X248136919Y-37742654D02*
X248089300Y-37695035D01*
X248089300Y-37695035D02*
X248041680Y-37599797D01*
X248041680Y-37599797D02*
X248041680Y-37218845D01*
X248041680Y-37218845D02*
X249041680Y-37218845D01*
X249041680Y-37218845D02*
X249041680Y-37552178D01*
X249041680Y-37552178D02*
X248994061Y-37647416D01*
X248994061Y-37647416D02*
X248946442Y-37695035D01*
X248946442Y-37695035D02*
X248851204Y-37742654D01*
X248851204Y-37742654D02*
X248755966Y-37742654D01*
X248755966Y-37742654D02*
X248660728Y-37695035D01*
X248660728Y-37695035D02*
X248613109Y-37647416D01*
X248613109Y-37647416D02*
X248565490Y-37552178D01*
X248565490Y-37552178D02*
X248565490Y-37218845D01*
X247308347Y-33195036D02*
X247308347Y-33575988D01*
X247641680Y-33337893D02*
X246784538Y-33337893D01*
X246784538Y-33337893D02*
X246689300Y-33385512D01*
X246689300Y-33385512D02*
X246641680Y-33480750D01*
X246641680Y-33480750D02*
X246641680Y-33575988D01*
X246641680Y-34052179D02*
X246689300Y-33956941D01*
X246689300Y-33956941D02*
X246736919Y-33909322D01*
X246736919Y-33909322D02*
X246832157Y-33861703D01*
X246832157Y-33861703D02*
X247117871Y-33861703D01*
X247117871Y-33861703D02*
X247213109Y-33909322D01*
X247213109Y-33909322D02*
X247260728Y-33956941D01*
X247260728Y-33956941D02*
X247308347Y-34052179D01*
X247308347Y-34052179D02*
X247308347Y-34195036D01*
X247308347Y-34195036D02*
X247260728Y-34290274D01*
X247260728Y-34290274D02*
X247213109Y-34337893D01*
X247213109Y-34337893D02*
X247117871Y-34385512D01*
X247117871Y-34385512D02*
X246832157Y-34385512D01*
X246832157Y-34385512D02*
X246736919Y-34337893D01*
X246736919Y-34337893D02*
X246689300Y-34290274D01*
X246689300Y-34290274D02*
X246641680Y-34195036D01*
X246641680Y-34195036D02*
X246641680Y-34052179D01*
X247308347Y-34718846D02*
X246641680Y-34909322D01*
X246641680Y-34909322D02*
X247117871Y-35099798D01*
X247117871Y-35099798D02*
X246641680Y-35290274D01*
X246641680Y-35290274D02*
X247308347Y-35480750D01*
X246736919Y-35861703D02*
X246689300Y-35909322D01*
X246689300Y-35909322D02*
X246641680Y-35861703D01*
X246641680Y-35861703D02*
X246689300Y-35814084D01*
X246689300Y-35814084D02*
X246736919Y-35861703D01*
X246736919Y-35861703D02*
X246641680Y-35861703D01*
X246641680Y-37099798D02*
X247641680Y-37099798D01*
X247641680Y-37099798D02*
X247641680Y-37480750D01*
X247641680Y-37480750D02*
X247594061Y-37575988D01*
X247594061Y-37575988D02*
X247546442Y-37623607D01*
X247546442Y-37623607D02*
X247451204Y-37671226D01*
X247451204Y-37671226D02*
X247308347Y-37671226D01*
X247308347Y-37671226D02*
X247213109Y-37623607D01*
X247213109Y-37623607D02*
X247165490Y-37575988D01*
X247165490Y-37575988D02*
X247117871Y-37480750D01*
X247117871Y-37480750D02*
X247117871Y-37099798D01*
X246736919Y-38671226D02*
X246689300Y-38623607D01*
X246689300Y-38623607D02*
X246641680Y-38480750D01*
X246641680Y-38480750D02*
X246641680Y-38385512D01*
X246641680Y-38385512D02*
X246689300Y-38242655D01*
X246689300Y-38242655D02*
X246784538Y-38147417D01*
X246784538Y-38147417D02*
X246879776Y-38099798D01*
X246879776Y-38099798D02*
X247070252Y-38052179D01*
X247070252Y-38052179D02*
X247213109Y-38052179D01*
X247213109Y-38052179D02*
X247403585Y-38099798D01*
X247403585Y-38099798D02*
X247498823Y-38147417D01*
X247498823Y-38147417D02*
X247594061Y-38242655D01*
X247594061Y-38242655D02*
X247641680Y-38385512D01*
X247641680Y-38385512D02*
X247641680Y-38480750D01*
X247641680Y-38480750D02*
X247594061Y-38623607D01*
X247594061Y-38623607D02*
X247546442Y-38671226D01*
X247165490Y-39433131D02*
X247117871Y-39575988D01*
X247117871Y-39575988D02*
X247070252Y-39623607D01*
X247070252Y-39623607D02*
X246975014Y-39671226D01*
X246975014Y-39671226D02*
X246832157Y-39671226D01*
X246832157Y-39671226D02*
X246736919Y-39623607D01*
X246736919Y-39623607D02*
X246689300Y-39575988D01*
X246689300Y-39575988D02*
X246641680Y-39480750D01*
X246641680Y-39480750D02*
X246641680Y-39099798D01*
X246641680Y-39099798D02*
X247641680Y-39099798D01*
X247641680Y-39099798D02*
X247641680Y-39433131D01*
X247641680Y-39433131D02*
X247594061Y-39528369D01*
X247594061Y-39528369D02*
X247546442Y-39575988D01*
X247546442Y-39575988D02*
X247451204Y-39623607D01*
X247451204Y-39623607D02*
X247355966Y-39623607D01*
X247355966Y-39623607D02*
X247260728Y-39575988D01*
X247260728Y-39575988D02*
X247213109Y-39528369D01*
X247213109Y-39528369D02*
X247165490Y-39433131D01*
X247165490Y-39433131D02*
X247165490Y-39099798D01*
D11*
%TO.C,SW1*%
X206629000Y-36576000D02*
X206629000Y-36876000D01*
X206629000Y-36576000D02*
X214249000Y-36576000D01*
X206629000Y-38816000D02*
X206629000Y-41956000D01*
X206629000Y-43896000D02*
X206629000Y-44196000D01*
X214249000Y-36576000D02*
X214249000Y-36876000D01*
X214249000Y-38816000D02*
X214249000Y-41956000D01*
X214249000Y-43896000D02*
X214249000Y-44196000D01*
X214249000Y-44196000D02*
X206629000Y-44196000D01*
X212979000Y-40386000D02*
G75*
G02*
X207899000Y-40386000I-2540000J0D01*
G01*
X207899000Y-40386000D02*
G75*
G02*
X212979000Y-40386000I2540000J0D01*
G01*
D10*
%TO.C,U1*%
X245911500Y-32930750D02*
X249491500Y-32930750D01*
X245911500Y-40030750D02*
X245911500Y-32930750D01*
X245911500Y-40030750D02*
X249491500Y-40030750D01*
X249491500Y-27590750D02*
X216471500Y-27590750D01*
X216471500Y-45370750D01*
X249491500Y-45370750D01*
X249491500Y-27590750D01*
%TD*%
M02*
