%TF.GenerationSoftware,KiCad,Pcbnew,8.0.6*%
%TF.CreationDate,2024-12-14T14:22:50-07:00*%
%TF.ProjectId,tabesco-48,74616265-7363-46f2-9d34-382e6b696361,rev?*%
%TF.SameCoordinates,Original*%
%TF.FileFunction,Copper,L2,Bot*%
%TF.FilePolarity,Positive*%
%FSLAX46Y46*%
G04 Gerber Fmt 4.6, Leading zero omitted, Abs format (unit mm)*
G04 Created by KiCad (PCBNEW 8.0.6) date 2024-12-14 14:22:50*
%MOMM*%
%LPD*%
G01*
G04 APERTURE LIST*
G04 Aperture macros list*
%AMRoundRect*
0 Rectangle with rounded corners*
0 $1 Rounding radius*
0 $2 $3 $4 $5 $6 $7 $8 $9 X,Y pos of 4 corners*
0 Add a 4 corners polygon primitive as box body*
4,1,4,$2,$3,$4,$5,$6,$7,$8,$9,$2,$3,0*
0 Add four circle primitives for the rounded corners*
1,1,$1+$1,$2,$3*
1,1,$1+$1,$4,$5*
1,1,$1+$1,$6,$7*
1,1,$1+$1,$8,$9*
0 Add four rect primitives between the rounded corners*
20,1,$1+$1,$2,$3,$4,$5,0*
20,1,$1+$1,$4,$5,$6,$7,0*
20,1,$1+$1,$6,$7,$8,$9,0*
20,1,$1+$1,$8,$9,$2,$3,0*%
G04 Aperture macros list end*
%TA.AperFunction,SMDPad,CuDef*%
%ADD10RoundRect,0.225000X0.375000X-0.225000X0.375000X0.225000X-0.375000X0.225000X-0.375000X-0.225000X0*%
%TD*%
%TA.AperFunction,ComponentPad*%
%ADD11C,3.300000*%
%TD*%
%TA.AperFunction,SMDPad,CuDef*%
%ADD12R,1.650000X2.500000*%
%TD*%
%TA.AperFunction,SMDPad,CuDef*%
%ADD13RoundRect,0.250000X1.025000X1.000000X-1.025000X1.000000X-1.025000X-1.000000X1.025000X-1.000000X0*%
%TD*%
%TA.AperFunction,SMDPad,CuDef*%
%ADD14RoundRect,0.250000X-1.025000X-1.000000X1.025000X-1.000000X1.025000X1.000000X-1.025000X1.000000X0*%
%TD*%
%TA.AperFunction,ComponentPad*%
%ADD15C,1.800000*%
%TD*%
%TA.AperFunction,ComponentPad*%
%ADD16RoundRect,0.450000X0.450000X-0.450000X0.450000X0.450000X-0.450000X0.450000X-0.450000X-0.450000X0*%
%TD*%
%TA.AperFunction,ViaPad*%
%ADD17C,0.600000*%
%TD*%
%TA.AperFunction,Conductor*%
%ADD18C,0.200000*%
%TD*%
G04 APERTURE END LIST*
D10*
%TO.P,D16,1,K*%
%TO.N,/row1*%
X151701500Y-69517000D03*
%TO.P,D16,2,A*%
%TO.N,Net-(D16-A)*%
X151701500Y-66217000D03*
%TD*%
%TO.P,D20,1,K*%
%TO.N,/row2*%
X46926500Y-88567000D03*
%TO.P,D20,2,A*%
%TO.N,Net-(D20-A)*%
X46926500Y-85267000D03*
%TD*%
%TO.P,D3,1,K*%
%TO.N,/row0*%
X85026500Y-50467000D03*
%TO.P,D3,2,A*%
%TO.N,Net-(D3-A)*%
X85026500Y-47167000D03*
%TD*%
%TO.P,D25,1,K*%
%TO.N,/row2*%
X142176500Y-88567000D03*
%TO.P,D25,2,A*%
%TO.N,Net-(D25-A)*%
X142176500Y-85267000D03*
%TD*%
%TO.P,D30,1,K*%
%TO.N,/row3*%
X46926500Y-107617000D03*
%TO.P,D30,2,A*%
%TO.N,Net-(D30-A)*%
X46926500Y-104317000D03*
%TD*%
%TO.P,D34,1,K*%
%TO.N,/row3*%
X161226500Y-107617000D03*
%TO.P,D34,2,A*%
%TO.N,Net-(D34-A)*%
X161226500Y-104317000D03*
%TD*%
D11*
%TO.P,MX4,1,1*%
%TO.N,Net-(D4-A)*%
X107626500Y-44309500D03*
D12*
X105801500Y-44309500D03*
D13*
X104076500Y-44309500D03*
%TO.P,MX4,2,2*%
%TO.N,/col3*%
X117526500Y-41769500D03*
D12*
X115776500Y-41769500D03*
D11*
X113976500Y-41769500D03*
%TD*%
D10*
%TO.P,D7,1,K*%
%TO.N,/row0*%
X161226500Y-50467000D03*
%TO.P,D7,2,A*%
%TO.N,Net-(D7-A)*%
X161226500Y-47167000D03*
%TD*%
D11*
%TO.P,MX2,1,1*%
%TO.N,Net-(D2-A)*%
X69526500Y-44309500D03*
D12*
X67701500Y-44309500D03*
D13*
X65976500Y-44309500D03*
%TO.P,MX2,2,2*%
%TO.N,/col1*%
X79426500Y-41769500D03*
D12*
X77676500Y-41769500D03*
D11*
X75876500Y-41769500D03*
%TD*%
D10*
%TO.P,D12,1,K*%
%TO.N,/row1*%
X75501500Y-69517000D03*
%TO.P,D12,2,A*%
%TO.N,Net-(D12-A)*%
X75501500Y-66217000D03*
%TD*%
%TO.P,D29,1,K*%
%TO.N,/row2*%
X218376500Y-88567000D03*
%TO.P,D29,2,A*%
%TO.N,Net-(D29-A)*%
X218376500Y-85267000D03*
%TD*%
D11*
%TO.P,MX13,1,1*%
%TO.N,Net-(D13-A)*%
X98101500Y-63359500D03*
D12*
X96276500Y-63359500D03*
D13*
X94551500Y-63359500D03*
%TO.P,MX13,2,2*%
%TO.N,/col2*%
X108001500Y-60819500D03*
D12*
X106251500Y-60819500D03*
D11*
X104451500Y-60819500D03*
%TD*%
D10*
%TO.P,D23,1,K*%
%TO.N,/row2*%
X104076500Y-88567000D03*
%TO.P,D23,2,A*%
%TO.N,Net-(D23-A)*%
X104076500Y-85267000D03*
%TD*%
D11*
%TO.P,MX21,1,1*%
%TO.N,Net-(D21-A)*%
X69526500Y-82409500D03*
D12*
X67701500Y-82409500D03*
D13*
X65976500Y-82409500D03*
%TO.P,MX21,2,2*%
%TO.N,/col1*%
X79426500Y-79869500D03*
D12*
X77676500Y-79869500D03*
D11*
X75876500Y-79869500D03*
%TD*%
D10*
%TO.P,D18,1,K*%
%TO.N,/row1*%
X189801500Y-69517000D03*
%TO.P,D18,2,A*%
%TO.N,Net-(D18-A)*%
X189801500Y-66217000D03*
%TD*%
D11*
%TO.P,MX15,1,1*%
%TO.N,Net-(D15-A)*%
X136201500Y-63359500D03*
D12*
X134376500Y-63359500D03*
D13*
X132651500Y-63359500D03*
%TO.P,MX15,2,2*%
%TO.N,/col4*%
X146101500Y-60819500D03*
D12*
X144351500Y-60819500D03*
D11*
X142551500Y-60819500D03*
%TD*%
%TO.P,MX11,1,1*%
%TO.N,Net-(D11-A)*%
X55239000Y-63359500D03*
D12*
X53414000Y-63359500D03*
D13*
X51689000Y-63359500D03*
%TO.P,MX11,2,2*%
%TO.N,/col0*%
X65139000Y-60819500D03*
D12*
X63389000Y-60819500D03*
D11*
X61589000Y-60819500D03*
%TD*%
%TO.P,MX19-2,1,1*%
%TO.N,/col8*%
X224784000Y-68439500D03*
D12*
X226609000Y-68439500D03*
D14*
X228334000Y-68439500D03*
%TO.P,MX19-2,2,2*%
%TO.N,Net-(D19-A)*%
X214884000Y-70979500D03*
D12*
X216634000Y-70979500D03*
D11*
X218434000Y-70979500D03*
%TD*%
%TO.P,MX24,1,1*%
%TO.N,Net-(D24-A)*%
X126676500Y-82409500D03*
D12*
X124851500Y-82409500D03*
D13*
X123126500Y-82409500D03*
%TO.P,MX24,2,2*%
%TO.N,/col4*%
X136576500Y-79869500D03*
D12*
X134826500Y-79869500D03*
D11*
X133026500Y-79869500D03*
%TD*%
%TO.P,MX8,1,1*%
%TO.N,Net-(D8-A)*%
X183826500Y-44309500D03*
D12*
X182001500Y-44309500D03*
D13*
X180276500Y-44309500D03*
%TO.P,MX8,2,2*%
%TO.N,/col7*%
X193726500Y-41769500D03*
D12*
X191976500Y-41769500D03*
D11*
X190176500Y-41769500D03*
%TD*%
%TO.P,MX3,1,1*%
%TO.N,Net-(D3-A)*%
X88576500Y-44309500D03*
D12*
X86751500Y-44309500D03*
D13*
X85026500Y-44309500D03*
%TO.P,MX3,2,2*%
%TO.N,/col2*%
X98476500Y-41769500D03*
D12*
X96726500Y-41769500D03*
D11*
X94926500Y-41769500D03*
%TD*%
%TO.P,MX29,1,1*%
%TO.N,Net-(D29-A)*%
X221926500Y-82409500D03*
D12*
X220101500Y-82409500D03*
D13*
X218376500Y-82409500D03*
%TO.P,MX29,2,2*%
%TO.N,/col9*%
X231826500Y-79869500D03*
D12*
X230076500Y-79869500D03*
D11*
X228276500Y-79869500D03*
%TD*%
%TO.P,MX17,1,1*%
%TO.N,Net-(D17-A)*%
X174301500Y-63359500D03*
D12*
X172476500Y-63359500D03*
D13*
X170751500Y-63359500D03*
%TO.P,MX17,2,2*%
%TO.N,/col6*%
X184201500Y-60819500D03*
D12*
X182451500Y-60819500D03*
D11*
X180651500Y-60819500D03*
%TD*%
D10*
%TO.P,D4,1,K*%
%TO.N,/row0*%
X104076500Y-50467000D03*
%TO.P,D4,2,A*%
%TO.N,Net-(D4-A)*%
X104076500Y-47167000D03*
%TD*%
%TO.P,D27,1,K*%
%TO.N,/row2*%
X180276500Y-88567000D03*
%TO.P,D27,2,A*%
%TO.N,Net-(D27-A)*%
X180276500Y-85267000D03*
%TD*%
D11*
%TO.P,MX11-2,1,1*%
%TO.N,/col0*%
X67621500Y-68439500D03*
D12*
X69446500Y-68439500D03*
D14*
X71171500Y-68439500D03*
%TO.P,MX11-2,2,2*%
%TO.N,Net-(D11-A)*%
X57721500Y-70979500D03*
D12*
X59471500Y-70979500D03*
D11*
X61271500Y-70979500D03*
%TD*%
%TO.P,MX32,1,1*%
%TO.N,Net-(D32-A)*%
X88576500Y-101459500D03*
D12*
X86751500Y-101459500D03*
D13*
X85026500Y-101459500D03*
%TO.P,MX32,2,2*%
%TO.N,/col2*%
X98476500Y-98919500D03*
D12*
X96726500Y-98919500D03*
D11*
X94926500Y-98919500D03*
%TD*%
%TO.P,MX28,1,1*%
%TO.N,Net-(D28-A)*%
X202876500Y-82409500D03*
D12*
X201051500Y-82409500D03*
D13*
X199326500Y-82409500D03*
%TO.P,MX28,2,2*%
%TO.N,/col8*%
X212776500Y-79869500D03*
D12*
X211026500Y-79869500D03*
D11*
X209226500Y-79869500D03*
%TD*%
D10*
%TO.P,D33,1,K*%
%TO.N,/row3*%
X104076500Y-107617000D03*
%TO.P,D33,2,A*%
%TO.N,Net-(D33-A)*%
X104076500Y-104317000D03*
%TD*%
D11*
%TO.P,MX1,1,1*%
%TO.N,Net-(D1-A)*%
X50476500Y-44309500D03*
D12*
X48651500Y-44309500D03*
D13*
X46926500Y-44309500D03*
%TO.P,MX1,2,2*%
%TO.N,/col0*%
X60376500Y-41769500D03*
D12*
X58626500Y-41769500D03*
D11*
X56826500Y-41769500D03*
%TD*%
%TO.P,MX27,1,1*%
%TO.N,Net-(D27-A)*%
X183826500Y-82409500D03*
D12*
X182001500Y-82409500D03*
D13*
X180276500Y-82409500D03*
%TO.P,MX27,2,2*%
%TO.N,/col7*%
X193726500Y-79869500D03*
D12*
X191976500Y-79869500D03*
D11*
X190176500Y-79869500D03*
%TD*%
D10*
%TO.P,D6,1,K*%
%TO.N,/row0*%
X142176500Y-50467000D03*
%TO.P,D6,2,A*%
%TO.N,Net-(D6-A)*%
X142176500Y-47167000D03*
%TD*%
D11*
%TO.P,MX14,1,1*%
%TO.N,Net-(D14-A)*%
X117151500Y-63359500D03*
D12*
X115326500Y-63359500D03*
D13*
X113601500Y-63359500D03*
%TO.P,MX14,2,2*%
%TO.N,/col3*%
X127051500Y-60819500D03*
D12*
X125301500Y-60819500D03*
D11*
X123501500Y-60819500D03*
%TD*%
D10*
%TO.P,D2,1,K*%
%TO.N,/row0*%
X65976500Y-50467000D03*
%TO.P,D2,2,A*%
%TO.N,Net-(D2-A)*%
X65976500Y-47167000D03*
%TD*%
%TO.P,D13,1,K*%
%TO.N,/row1*%
X94551500Y-69517000D03*
%TO.P,D13,2,A*%
%TO.N,Net-(D13-A)*%
X94551500Y-66217000D03*
%TD*%
D11*
%TO.P,MX5,1,1*%
%TO.N,Net-(D5-A)*%
X126676500Y-44309500D03*
D12*
X124851500Y-44309500D03*
D13*
X123126500Y-44309500D03*
%TO.P,MX5,2,2*%
%TO.N,/col4*%
X136576500Y-41769500D03*
D12*
X134826500Y-41769500D03*
D11*
X133026500Y-41769500D03*
%TD*%
%TO.P,MX18,1,1*%
%TO.N,Net-(D18-A)*%
X193351500Y-63359500D03*
D12*
X191526500Y-63359500D03*
D13*
X189801500Y-63359500D03*
%TO.P,MX18,2,2*%
%TO.N,/col7*%
X203251500Y-60819500D03*
D12*
X201501500Y-60819500D03*
D11*
X199701500Y-60819500D03*
%TD*%
%TO.P,MX23,1,1*%
%TO.N,Net-(D23-A)*%
X107626500Y-82409500D03*
D12*
X105801500Y-82409500D03*
D13*
X104076500Y-82409500D03*
%TO.P,MX23,2,2*%
%TO.N,/col3*%
X117526500Y-79869500D03*
D12*
X115776500Y-79869500D03*
D11*
X113976500Y-79869500D03*
%TD*%
%TO.P,MX34,1,1*%
%TO.N,Net-(D34-A)*%
X164776500Y-101459500D03*
D12*
X162951500Y-101459500D03*
D13*
X161226500Y-101459500D03*
%TO.P,MX34,2,2*%
%TO.N,/col6*%
X174676500Y-98919500D03*
D12*
X172926500Y-98919500D03*
D11*
X171126500Y-98919500D03*
%TD*%
D10*
%TO.P,D17,1,K*%
%TO.N,/row1*%
X170751500Y-69517000D03*
%TO.P,D17,2,A*%
%TO.N,Net-(D17-A)*%
X170751500Y-66217000D03*
%TD*%
%TO.P,D11,1,K*%
%TO.N,/row1*%
X51689000Y-69517000D03*
%TO.P,D11,2,A*%
%TO.N,Net-(D11-A)*%
X51689000Y-66217000D03*
%TD*%
%TO.P,D31,1,K*%
%TO.N,/row3*%
X65976500Y-107617000D03*
%TO.P,D31,2,A*%
%TO.N,Net-(D31-A)*%
X65976500Y-104317000D03*
%TD*%
D11*
%TO.P,MX33,1,1*%
%TO.N,Net-(D33-A)*%
X107626500Y-101459500D03*
D12*
X105801500Y-101459500D03*
D13*
X104076500Y-101459500D03*
%TO.P,MX33,2,2*%
%TO.N,/col3*%
X117526500Y-98919500D03*
D12*
X115776500Y-98919500D03*
D11*
X113976500Y-98919500D03*
%TD*%
%TO.P,MX25,1,1*%
%TO.N,Net-(D25-A)*%
X145726500Y-82409500D03*
D12*
X143901500Y-82409500D03*
D13*
X142176500Y-82409500D03*
%TO.P,MX25,2,2*%
%TO.N,/col5*%
X155626500Y-79869500D03*
D12*
X153876500Y-79869500D03*
D11*
X152076500Y-79869500D03*
%TD*%
D10*
%TO.P,D22,1,K*%
%TO.N,/row2*%
X85026500Y-88567000D03*
%TO.P,D22,2,A*%
%TO.N,Net-(D22-A)*%
X85026500Y-85267000D03*
%TD*%
D11*
%TO.P,MX7,1,1*%
%TO.N,Net-(D7-A)*%
X164776500Y-44309500D03*
D12*
X162951500Y-44309500D03*
D13*
X161226500Y-44309500D03*
%TO.P,MX7,2,2*%
%TO.N,/col6*%
X174676500Y-41769500D03*
D12*
X172926500Y-41769500D03*
D11*
X171126500Y-41769500D03*
%TD*%
D10*
%TO.P,D32,1,K*%
%TO.N,/row3*%
X85026500Y-107617000D03*
%TO.P,D32,2,A*%
%TO.N,Net-(D32-A)*%
X85026500Y-104317000D03*
%TD*%
%TO.P,D21,1,K*%
%TO.N,/row2*%
X65976500Y-88567000D03*
%TO.P,D21,2,A*%
%TO.N,Net-(D21-A)*%
X65976500Y-85267000D03*
%TD*%
D11*
%TO.P,MX16,1,1*%
%TO.N,Net-(D16-A)*%
X155251500Y-63359500D03*
D12*
X153426500Y-63359500D03*
D13*
X151701500Y-63359500D03*
%TO.P,MX16,2,2*%
%TO.N,/col5*%
X165151500Y-60819500D03*
D12*
X163401500Y-60819500D03*
D11*
X161601500Y-60819500D03*
%TD*%
D15*
%TO.P,U1,1,D3-TX*%
%TO.N,unconnected-(U1-D3-TX-Pad1)*%
X229146500Y-96399500D03*
%TO.P,U1,2,D2-RX*%
%TO.N,unconnected-(U1-D2-RX-Pad2)*%
X226606500Y-96399500D03*
D16*
%TO.P,U1,3,GND*%
%TO.N,GND*%
X224066500Y-96399500D03*
%TO.P,U1,4,GND*%
X221526500Y-96399500D03*
D15*
%TO.P,U1,5,D1*%
%TO.N,unconnected-(U1-D1-Pad5)*%
X218986500Y-96399500D03*
%TO.P,U1,6,D0*%
%TO.N,unconnected-(U1-D0-Pad6)*%
X216446500Y-96399500D03*
%TO.P,U1,7,D4*%
%TO.N,/row0*%
X213906500Y-96399500D03*
%TO.P,U1,8,C6*%
%TO.N,/row1*%
X211366500Y-96399500D03*
%TO.P,U1,9,D7*%
%TO.N,/col9*%
X208826500Y-96399500D03*
%TO.P,U1,10,E6*%
%TO.N,/row2*%
X206286500Y-96399500D03*
%TO.P,U1,11,B4*%
%TO.N,/col8*%
X203746500Y-96399500D03*
%TO.P,U1,12,B5*%
%TO.N,/row3*%
X201206500Y-96399500D03*
%TO.P,U1,13,B0*%
%TO.N,unconnected-(U1-B0-Pad13)*%
X229146500Y-111639500D03*
D16*
%TO.P,U1,14,GND*%
%TO.N,GND*%
X226606500Y-111639500D03*
D15*
%TO.P,U1,15,RST*%
%TO.N,RST*%
X224066500Y-111639500D03*
%TO.P,U1,16,VCC*%
%TO.N,VCC*%
X221526500Y-111639500D03*
%TO.P,U1,17,F4*%
%TO.N,/col0*%
X218986500Y-111639500D03*
%TO.P,U1,18,F5*%
%TO.N,/col1*%
X216446500Y-111639500D03*
%TO.P,U1,19,F6*%
%TO.N,/col2*%
X213906500Y-111639500D03*
%TO.P,U1,20,F7*%
%TO.N,/col3*%
X211366500Y-111639500D03*
%TO.P,U1,21,B1*%
%TO.N,/col7*%
X208826500Y-111639500D03*
%TO.P,U1,22,B3*%
%TO.N,/col6*%
X206286500Y-111639500D03*
%TO.P,U1,23,B2*%
%TO.N,/col5*%
X203746500Y-111639500D03*
%TO.P,U1,24,B6*%
%TO.N,/col4*%
X201206500Y-111639500D03*
%TD*%
D10*
%TO.P,D28,1,K*%
%TO.N,/row2*%
X199326500Y-88567000D03*
%TO.P,D28,2,A*%
%TO.N,Net-(D28-A)*%
X199326500Y-85267000D03*
%TD*%
D11*
%TO.P,MX12,1,1*%
%TO.N,Net-(D12-A)*%
X79051500Y-63359500D03*
D12*
X77226500Y-63359500D03*
D13*
X75501500Y-63359500D03*
%TO.P,MX12,2,2*%
%TO.N,/col1*%
X88951500Y-60819500D03*
D12*
X87201500Y-60819500D03*
D11*
X85401500Y-60819500D03*
%TD*%
D10*
%TO.P,D1,1,K*%
%TO.N,/row0*%
X46926500Y-50467000D03*
%TO.P,D1,2,A*%
%TO.N,Net-(D1-A)*%
X46926500Y-47167000D03*
%TD*%
%TO.P,D26,1,K*%
%TO.N,/row2*%
X161226500Y-88567000D03*
%TO.P,D26,2,A*%
%TO.N,Net-(D26-A)*%
X161226500Y-85267000D03*
%TD*%
%TO.P,D19,1,K*%
%TO.N,/row1*%
X208851500Y-69517000D03*
%TO.P,D19,2,A*%
%TO.N,Net-(D19-A)*%
X208851500Y-66217000D03*
%TD*%
D11*
%TO.P,MX31,1,1*%
%TO.N,Net-(D31-A)*%
X69526500Y-101459500D03*
D12*
X67701500Y-101459500D03*
D13*
X65976500Y-101459500D03*
%TO.P,MX31,2,2*%
%TO.N,/col1*%
X79426500Y-98919500D03*
D12*
X77676500Y-98919500D03*
D11*
X75876500Y-98919500D03*
%TD*%
%TO.P,MX10,1,1*%
%TO.N,Net-(D10-A)*%
X221926500Y-44309500D03*
D12*
X220101500Y-44309500D03*
D13*
X218376500Y-44309500D03*
%TO.P,MX10,2,2*%
%TO.N,/col9*%
X231826500Y-41769500D03*
D12*
X230076500Y-41769500D03*
D11*
X228276500Y-41769500D03*
%TD*%
D10*
%TO.P,D24,1,K*%
%TO.N,/row2*%
X123126500Y-88567000D03*
%TO.P,D24,2,A*%
%TO.N,Net-(D24-A)*%
X123126500Y-85267000D03*
%TD*%
D11*
%TO.P,MX34-2,1,1*%
%TO.N,Net-(D34-A)*%
X181921500Y-106539500D03*
D12*
X183746500Y-106539500D03*
D14*
X185471500Y-106539500D03*
%TO.P,MX34-2,2,2*%
%TO.N,/col6*%
X172021500Y-109079500D03*
D12*
X173771500Y-109079500D03*
D11*
X175571500Y-109079500D03*
%TD*%
D10*
%TO.P,D8,1,K*%
%TO.N,/row0*%
X180276500Y-50467000D03*
%TO.P,D8,2,A*%
%TO.N,Net-(D8-A)*%
X180276500Y-47167000D03*
%TD*%
%TO.P,D9,1,K*%
%TO.N,/row0*%
X199326500Y-50467000D03*
%TO.P,D9,2,A*%
%TO.N,Net-(D9-A)*%
X199326500Y-47167000D03*
%TD*%
D11*
%TO.P,MX6,1,1*%
%TO.N,Net-(D6-A)*%
X145726500Y-44309500D03*
D12*
X143901500Y-44309500D03*
D13*
X142176500Y-44309500D03*
%TO.P,MX6,2,2*%
%TO.N,/col5*%
X155626500Y-41769500D03*
D12*
X153876500Y-41769500D03*
D11*
X152076500Y-41769500D03*
%TD*%
%TO.P,MX20,1,1*%
%TO.N,Net-(D20-A)*%
X50476500Y-82409500D03*
D12*
X48651500Y-82409500D03*
D13*
X46926500Y-82409500D03*
%TO.P,MX20,2,2*%
%TO.N,/col0*%
X60376500Y-79869500D03*
D12*
X58626500Y-79869500D03*
D11*
X56826500Y-79869500D03*
%TD*%
D10*
%TO.P,D5,1,K*%
%TO.N,/row0*%
X123126500Y-50467000D03*
%TO.P,D5,2,A*%
%TO.N,Net-(D5-A)*%
X123126500Y-47167000D03*
%TD*%
D11*
%TO.P,MX30,1,1*%
%TO.N,Net-(D30-A)*%
X50476500Y-101459500D03*
D12*
X48651500Y-101459500D03*
D13*
X46926500Y-101459500D03*
%TO.P,MX30,2,2*%
%TO.N,/col0*%
X60376500Y-98919500D03*
D12*
X58626500Y-98919500D03*
D11*
X56826500Y-98919500D03*
%TD*%
D10*
%TO.P,D10,1,K*%
%TO.N,/row0*%
X218376500Y-50467000D03*
%TO.P,D10,2,A*%
%TO.N,Net-(D10-A)*%
X218376500Y-47167000D03*
%TD*%
D11*
%TO.P,MX19,1,1*%
%TO.N,Net-(D19-A)*%
X212401500Y-63359500D03*
D12*
X210576500Y-63359500D03*
D13*
X208851500Y-63359500D03*
%TO.P,MX19,2,2*%
%TO.N,/col8*%
X222301500Y-60819500D03*
D12*
X220551500Y-60819500D03*
D11*
X218751500Y-60819500D03*
%TD*%
%TO.P,MX22,1,1*%
%TO.N,Net-(D22-A)*%
X88576500Y-82409500D03*
D12*
X86751500Y-82409500D03*
D13*
X85026500Y-82409500D03*
%TO.P,MX22,2,2*%
%TO.N,/col2*%
X98476500Y-79869500D03*
D12*
X96726500Y-79869500D03*
D11*
X94926500Y-79869500D03*
%TD*%
D10*
%TO.P,D15,1,K*%
%TO.N,/row1*%
X132651500Y-69517000D03*
%TO.P,D15,2,A*%
%TO.N,Net-(D15-A)*%
X132651500Y-66217000D03*
%TD*%
D11*
%TO.P,MX26,1,1*%
%TO.N,Net-(D26-A)*%
X164776500Y-82409500D03*
D12*
X162951500Y-82409500D03*
D13*
X161226500Y-82409500D03*
%TO.P,MX26,2,2*%
%TO.N,/col6*%
X174676500Y-79869500D03*
D12*
X172926500Y-79869500D03*
D11*
X171126500Y-79869500D03*
%TD*%
D10*
%TO.P,D14,1,K*%
%TO.N,/row1*%
X113601500Y-69517000D03*
%TO.P,D14,2,A*%
%TO.N,Net-(D14-A)*%
X113601500Y-66217000D03*
%TD*%
D11*
%TO.P,MX9,1,1*%
%TO.N,Net-(D9-A)*%
X202876500Y-44309500D03*
D12*
X201051500Y-44309500D03*
D13*
X199326500Y-44309500D03*
%TO.P,MX9,2,2*%
%TO.N,/col8*%
X212776500Y-41769500D03*
D12*
X211026500Y-41769500D03*
D11*
X209226500Y-41769500D03*
%TD*%
D17*
%TO.N,/row3*%
X198725765Y-100690235D03*
X197023706Y-102382294D03*
%TD*%
D18*
%TO.N,/row0*%
X215546500Y-94759500D02*
X213906500Y-96399500D01*
X218376500Y-50467000D02*
X225026500Y-50467000D01*
X234311500Y-86044500D02*
X225596500Y-94759500D01*
X225596500Y-94759500D02*
X215546500Y-94759500D01*
X218376500Y-50467000D02*
X46926500Y-50467000D01*
X234311500Y-59752000D02*
X234311500Y-86044500D01*
X225026500Y-50467000D02*
X234311500Y-59752000D01*
%TO.N,Net-(D1-A)*%
X46926500Y-44309500D02*
X46926500Y-47167000D01*
%TO.N,Net-(D2-A)*%
X65976500Y-44309500D02*
X65976500Y-47167000D01*
%TO.N,Net-(D3-A)*%
X85026500Y-44309500D02*
X85026500Y-47167000D01*
%TO.N,Net-(D4-A)*%
X104076500Y-44309500D02*
X104076500Y-47167000D01*
%TO.N,Net-(D5-A)*%
X123126500Y-44309500D02*
X123126500Y-47167000D01*
%TO.N,Net-(D6-A)*%
X142176500Y-44309500D02*
X142176500Y-47167000D01*
%TO.N,Net-(D7-A)*%
X161226500Y-44309500D02*
X161226500Y-47167000D01*
%TO.N,Net-(D8-A)*%
X180276500Y-44309500D02*
X180276500Y-47167000D01*
%TO.N,Net-(D9-A)*%
X199326500Y-44309500D02*
X199326500Y-47167000D01*
%TO.N,Net-(D10-A)*%
X218376500Y-44309500D02*
X218376500Y-47167000D01*
%TO.N,Net-(D11-A)*%
X51689000Y-63359500D02*
X51689000Y-66217000D01*
X55239000Y-63359500D02*
X55906500Y-64027000D01*
X55906500Y-64027000D02*
X55906500Y-69164500D01*
X55906500Y-69164500D02*
X57721500Y-70979500D01*
%TO.N,/row1*%
X208851500Y-69517000D02*
X213386500Y-74052000D01*
X74169000Y-70849500D02*
X75501500Y-69517000D01*
X213386500Y-74052000D02*
X230411500Y-74052000D01*
X63226500Y-73609500D02*
X65986500Y-70849500D01*
X213406500Y-94359500D02*
X211366500Y-96399500D01*
X233911500Y-77552000D02*
X233911500Y-85878814D01*
X55781500Y-73609500D02*
X63226500Y-73609500D01*
X233911500Y-85878814D02*
X225430814Y-94359500D01*
X230411500Y-74052000D02*
X233911500Y-77552000D01*
X225430814Y-94359500D02*
X213406500Y-94359500D01*
X51689000Y-69517000D02*
X55781500Y-73609500D01*
X75501500Y-69517000D02*
X208851500Y-69517000D01*
X65986500Y-70849500D02*
X74169000Y-70849500D01*
%TO.N,Net-(D12-A)*%
X75501500Y-63359500D02*
X75501500Y-66217000D01*
%TO.N,Net-(D13-A)*%
X94551500Y-63359500D02*
X94551500Y-66217000D01*
%TO.N,Net-(D14-A)*%
X113601500Y-63359500D02*
X113601500Y-66217000D01*
%TO.N,Net-(D15-A)*%
X132651500Y-63359500D02*
X132651500Y-66217000D01*
%TO.N,Net-(D16-A)*%
X151701500Y-63359500D02*
X151701500Y-66217000D01*
%TO.N,Net-(D17-A)*%
X170751500Y-63359500D02*
X170751500Y-66217000D01*
%TO.N,Net-(D18-A)*%
X189801500Y-63359500D02*
X189801500Y-66217000D01*
%TO.N,Net-(D19-A)*%
X213046500Y-69142000D02*
X214884000Y-70979500D01*
X212401500Y-63359500D02*
X213046500Y-64004500D01*
X208851500Y-63359500D02*
X208851500Y-66217000D01*
X213046500Y-64004500D02*
X213046500Y-69142000D01*
%TO.N,Net-(D20-A)*%
X46926500Y-82409500D02*
X46926500Y-85267000D01*
%TO.N,Net-(D21-A)*%
X65976500Y-82409500D02*
X65976500Y-85267000D01*
%TO.N,/row2*%
X175166500Y-76449500D02*
X177506500Y-78789500D01*
X46926500Y-88567000D02*
X123126500Y-88567000D01*
X161226500Y-88567000D02*
X161692122Y-88567000D01*
X215376500Y-93559500D02*
X209126500Y-93559500D01*
X161692122Y-88567000D02*
X166192600Y-84066522D01*
X206156500Y-81899500D02*
X206156500Y-79239500D01*
X147156500Y-84187000D02*
X147156500Y-83737217D01*
X199326500Y-88567000D02*
X200979000Y-88567000D01*
X204292600Y-83763400D02*
X206156500Y-81899500D01*
X209126500Y-93559500D02*
X206286500Y-96399500D01*
X158376500Y-78769500D02*
X158376500Y-85717000D01*
X168066500Y-78849500D02*
X170466500Y-76449500D01*
X189246500Y-76959500D02*
X194356500Y-76959500D01*
X123126500Y-88567000D02*
X123726500Y-88567000D01*
X132336500Y-76959500D02*
X137526500Y-76959500D01*
X123726500Y-88567000D02*
X128206500Y-84087000D01*
X215596500Y-85787000D02*
X218376500Y-88567000D01*
X177506500Y-85797000D02*
X180276500Y-88567000D01*
X156536500Y-76929500D02*
X158376500Y-78769500D01*
X187166500Y-81859500D02*
X187166500Y-79039500D01*
X196466500Y-85707000D02*
X199326500Y-88567000D01*
X185242600Y-83783400D02*
X187166500Y-81859500D01*
X187166500Y-79039500D02*
X189246500Y-76959500D01*
X147156500Y-83737217D02*
X148876500Y-82017217D01*
X128206500Y-83637217D02*
X130226500Y-81617217D01*
X142176500Y-88567000D02*
X142776500Y-88567000D01*
X180876500Y-88567000D02*
X185242600Y-84200900D01*
X196466500Y-79069500D02*
X196466500Y-85707000D01*
X150996500Y-76929500D02*
X156536500Y-76929500D01*
X215596500Y-78899500D02*
X215596500Y-85787000D01*
X204292600Y-85253400D02*
X204292600Y-83763400D01*
X142776500Y-88567000D02*
X147156500Y-84187000D01*
X170466500Y-76449500D02*
X175166500Y-76449500D01*
X194356500Y-76959500D02*
X196466500Y-79069500D01*
X213766500Y-77069500D02*
X215596500Y-78899500D01*
X130226500Y-81617217D02*
X130226500Y-79069500D01*
X180276500Y-88567000D02*
X180876500Y-88567000D01*
X137526500Y-76959500D02*
X139126500Y-78559500D01*
X128206500Y-84087000D02*
X128206500Y-83637217D01*
X177506500Y-78789500D02*
X177506500Y-85797000D01*
X139126500Y-85517000D02*
X142176500Y-88567000D01*
X130226500Y-79069500D02*
X132336500Y-76959500D01*
X139126500Y-78559500D02*
X139126500Y-85517000D01*
X218376500Y-88567000D02*
X218376500Y-90559500D01*
X158376500Y-85717000D02*
X161226500Y-88567000D01*
X148876500Y-79049500D02*
X150996500Y-76929500D01*
X148876500Y-82017217D02*
X148876500Y-79049500D01*
X218376500Y-90559500D02*
X215376500Y-93559500D01*
X185242600Y-84200900D02*
X185242600Y-83783400D01*
X208326500Y-77069500D02*
X213766500Y-77069500D01*
X200979000Y-88567000D02*
X204292600Y-85253400D01*
X166192600Y-83751117D02*
X168066500Y-81877217D01*
X168066500Y-81877217D02*
X168066500Y-78849500D01*
X206156500Y-79239500D02*
X208326500Y-77069500D01*
X166192600Y-84066522D02*
X166192600Y-83751117D01*
%TO.N,Net-(D22-A)*%
X85026500Y-82409500D02*
X85026500Y-85267000D01*
%TO.N,Net-(D23-A)*%
X104076500Y-82409500D02*
X104076500Y-85267000D01*
%TO.N,Net-(D24-A)*%
X123126500Y-82409500D02*
X123126500Y-85267000D01*
%TO.N,Net-(D25-A)*%
X142176500Y-82409500D02*
X142176500Y-85267000D01*
%TO.N,Net-(D26-A)*%
X161226500Y-82409500D02*
X161226500Y-85267000D01*
%TO.N,Net-(D27-A)*%
X180276500Y-82409500D02*
X180276500Y-85267000D01*
%TO.N,Net-(D28-A)*%
X199326500Y-82409500D02*
X199326500Y-85267000D01*
%TO.N,Net-(D29-A)*%
X218376500Y-82409500D02*
X218376500Y-85267000D01*
%TO.N,Net-(D30-A)*%
X46926500Y-101459500D02*
X46926500Y-104317000D01*
%TO.N,/row3*%
X99746500Y-96349500D02*
X101436500Y-98039500D01*
X119036500Y-95929500D02*
X130724000Y-107617000D01*
X86169000Y-107617000D02*
X89992600Y-103793400D01*
X190496500Y-108919500D02*
X197023706Y-102392294D01*
X61356500Y-96429500D02*
X63326500Y-98399500D01*
X109042600Y-103463400D02*
X109042600Y-102801117D01*
X72756500Y-98269500D02*
X74886500Y-96139500D01*
X104076500Y-107617000D02*
X104889000Y-107617000D01*
X198725765Y-100690235D02*
X201206500Y-98209500D01*
X63326500Y-104967000D02*
X65976500Y-107617000D01*
X170086500Y-106839500D02*
X169309000Y-107617000D01*
X110936500Y-97969500D02*
X112976500Y-95929500D01*
X190496500Y-108919500D02*
X180236500Y-108919500D01*
X93686500Y-96349500D02*
X99746500Y-96349500D01*
X82116500Y-97939500D02*
X82116500Y-104707000D01*
X70942600Y-102803400D02*
X72756500Y-100989500D01*
X46926500Y-107617000D02*
X47526500Y-107617000D01*
X80316500Y-96139500D02*
X82116500Y-97939500D01*
X74886500Y-96139500D02*
X80316500Y-96139500D01*
X66576500Y-107617000D02*
X70942600Y-103250900D01*
X89992600Y-102801117D02*
X91846500Y-100947217D01*
X101436500Y-98039500D02*
X101436500Y-104977000D01*
X52080359Y-102613358D02*
X53676500Y-101017217D01*
X47526500Y-107617000D02*
X52080359Y-103063141D01*
X109042600Y-102801117D02*
X110936500Y-100907217D01*
X63326500Y-98399500D02*
X63326500Y-104967000D01*
X53676500Y-101017217D02*
X53676500Y-97909500D01*
X180236500Y-108919500D02*
X178156500Y-106839500D01*
X72756500Y-100989500D02*
X72756500Y-98269500D01*
X89992600Y-103793400D02*
X89992600Y-102801117D01*
X91846500Y-100947217D02*
X91846500Y-98189500D01*
X65976500Y-107617000D02*
X66576500Y-107617000D01*
X110936500Y-100907217D02*
X110936500Y-97969500D01*
X178156500Y-106839500D02*
X170086500Y-106839500D01*
X197023706Y-102392294D02*
X197023706Y-102382294D01*
X52080359Y-103063141D02*
X52080359Y-102613358D01*
X53676500Y-97909500D02*
X55156500Y-96429500D01*
X201206500Y-98209500D02*
X201206500Y-96399500D01*
X130724000Y-107617000D02*
X161226500Y-107617000D01*
X112976500Y-95929500D02*
X119036500Y-95929500D01*
X169309000Y-107617000D02*
X161226500Y-107617000D01*
X70942600Y-103250900D02*
X70942600Y-102803400D01*
X82116500Y-104707000D02*
X85026500Y-107617000D01*
X101436500Y-104977000D02*
X104076500Y-107617000D01*
X91846500Y-98189500D02*
X93686500Y-96349500D01*
X85026500Y-107617000D02*
X86169000Y-107617000D01*
X104889000Y-107617000D02*
X109042600Y-103463400D01*
X55156500Y-96429500D02*
X61356500Y-96429500D01*
%TO.N,Net-(D31-A)*%
X65976500Y-101459500D02*
X65976500Y-104317000D01*
%TO.N,/col0*%
X57286500Y-104549500D02*
X66956500Y-114219500D01*
X66956500Y-114219500D02*
X216406500Y-114219500D01*
X216406500Y-114219500D02*
X218986500Y-111639500D01*
X56826500Y-98919500D02*
X57286500Y-99379500D01*
X57286500Y-99379500D02*
X57286500Y-104549500D01*
%TO.N,/col1*%
X214266500Y-113819500D02*
X216446500Y-111639500D01*
X76356500Y-104609500D02*
X85566500Y-113819500D01*
X75876500Y-98919500D02*
X76356500Y-99399500D01*
X85566500Y-113819500D02*
X214266500Y-113819500D01*
X76356500Y-99399500D02*
X76356500Y-104609500D01*
%TO.N,/col2*%
X212126500Y-113419500D02*
X213906500Y-111639500D01*
X104736500Y-113419500D02*
X212126500Y-113419500D01*
X95376500Y-104059500D02*
X104736500Y-113419500D01*
X94926500Y-98919500D02*
X95376500Y-99369500D01*
X95376500Y-99369500D02*
X95376500Y-104059500D01*
%TO.N,/col3*%
X114456500Y-104089500D02*
X123386500Y-113019500D01*
X209986500Y-113019500D02*
X211366500Y-111639500D01*
X114456500Y-99399500D02*
X114456500Y-104089500D01*
X123386500Y-113019500D02*
X209986500Y-113019500D01*
X113976500Y-98919500D02*
X114456500Y-99399500D01*
%TO.N,/col4*%
X133616500Y-85449500D02*
X143716500Y-95549500D01*
X143716500Y-95549500D02*
X191039442Y-95549500D01*
X201206500Y-105716558D02*
X201206500Y-111639500D01*
X133616500Y-80459500D02*
X133616500Y-85449500D01*
X191039442Y-95549500D02*
X201206500Y-105716558D01*
X133026500Y-79869500D02*
X133616500Y-80459500D01*
%TO.N,/col5*%
X203746500Y-107690872D02*
X203746500Y-111639500D01*
X162216500Y-95149500D02*
X191205128Y-95149500D01*
X152826500Y-85759500D02*
X162216500Y-95149500D01*
X152826500Y-80619500D02*
X152826500Y-85759500D01*
X191205128Y-95149500D02*
X203746500Y-107690872D01*
X152076500Y-79869500D02*
X152826500Y-80619500D01*
%TO.N,/col6*%
X191370814Y-94749500D02*
X206286500Y-109665186D01*
X171536500Y-85269500D02*
X181016500Y-94749500D01*
X171126500Y-79869500D02*
X171536500Y-80279500D01*
X206286500Y-109665186D02*
X206286500Y-111639500D01*
X181016500Y-94749500D02*
X191370814Y-94749500D01*
X171536500Y-80279500D02*
X171536500Y-85269500D01*
%TO.N,/col7*%
X190726500Y-80419500D02*
X190726500Y-93539500D01*
X190176500Y-79869500D02*
X190726500Y-80419500D01*
X190726500Y-93539500D02*
X208826500Y-111639500D01*
%TO.N,/col8*%
X209226500Y-79869500D02*
X209636500Y-80279500D01*
X209636500Y-90509500D02*
X203746500Y-96399500D01*
X209636500Y-80279500D02*
X209636500Y-90509500D01*
X203016500Y-96399500D02*
X203206500Y-96399500D01*
%TO.N,/col9*%
X228666500Y-90558128D02*
X225265128Y-93959500D01*
X228666500Y-80259500D02*
X228666500Y-90558128D01*
X211266500Y-93959500D02*
X208826500Y-96399500D01*
X228276500Y-79869500D02*
X228666500Y-80259500D01*
X225265128Y-93959500D02*
X211266500Y-93959500D01*
%TO.N,Net-(D32-A)*%
X85026500Y-101459500D02*
X85026500Y-104317000D01*
%TO.N,Net-(D34-A)*%
X164776500Y-101459500D02*
X165116500Y-101119500D01*
X181146500Y-105764500D02*
X181921500Y-106539500D01*
X161226500Y-101459500D02*
X161226500Y-104317000D01*
X179856500Y-101119500D02*
X181146500Y-102409500D01*
X181146500Y-102409500D02*
X181146500Y-105764500D01*
X165116500Y-101119500D02*
X179856500Y-101119500D01*
%TO.N,Net-(D33-A)*%
X104076500Y-101459500D02*
X104076500Y-104317000D01*
%TD*%
M02*
