%TF.GenerationSoftware,KiCad,Pcbnew,8.0.6*%
%TF.CreationDate,2024-12-14T14:22:50-07:00*%
%TF.ProjectId,tabesco-48,74616265-7363-46f2-9d34-382e6b696361,rev?*%
%TF.SameCoordinates,Original*%
%TF.FileFunction,Legend,Bot*%
%TF.FilePolarity,Positive*%
%FSLAX46Y46*%
G04 Gerber Fmt 4.6, Leading zero omitted, Abs format (unit mm)*
G04 Created by KiCad (PCBNEW 8.0.6) date 2024-12-14 14:22:50*
%MOMM*%
%LPD*%
G01*
G04 APERTURE LIST*
%ADD10C,5.000000*%
%ADD11C,0.150000*%
%ADD12C,0.120000*%
G04 APERTURE END LIST*
D10*
G36*
X63430366Y-73585989D02*
G01*
X62643904Y-73527371D01*
X61863060Y-73468753D01*
X60726788Y-73665530D01*
X60363165Y-73791153D01*
X60413361Y-76734103D01*
X60472609Y-80350691D01*
X60523079Y-83616027D01*
X60573824Y-87203749D01*
X60610854Y-90242641D01*
X60639655Y-93575053D01*
X60644044Y-94996317D01*
X60660897Y-96945375D01*
X60677749Y-99260797D01*
X60597172Y-102398364D01*
X60299484Y-105238403D01*
X59594433Y-107591578D01*
X58385775Y-108493177D01*
X57258895Y-107781543D01*
X56885879Y-107115647D01*
X56244399Y-104651590D01*
X56189299Y-103481314D01*
X56214578Y-100475295D01*
X56234239Y-99114252D01*
X56276453Y-96167824D01*
X56284798Y-94747190D01*
X56267243Y-91601952D01*
X56231036Y-88326999D01*
X56185777Y-84998093D01*
X56139695Y-81942386D01*
X56084836Y-78537717D01*
X56021199Y-74784086D01*
X56003918Y-73791153D01*
X54862572Y-73567685D01*
X53633111Y-73245170D01*
X53037833Y-73073079D01*
X51908836Y-72141927D01*
X51178763Y-69679630D01*
X51054825Y-67431070D01*
X51313690Y-64553765D01*
X51655907Y-63298481D01*
X52647016Y-61764559D01*
X53206361Y-61598550D01*
X54343527Y-61895306D01*
X55510964Y-62368831D01*
X55891567Y-62536443D01*
X55841008Y-59524929D01*
X55812920Y-58081453D01*
X55758429Y-55085438D01*
X55751127Y-53934210D01*
X56056473Y-51071016D01*
X56397149Y-50021439D01*
X57417948Y-48619753D01*
X57964456Y-48468055D01*
X59094117Y-49304997D01*
X59854071Y-51815823D01*
X60189546Y-54925941D01*
X60299089Y-58397700D01*
X60301371Y-59048655D01*
X60267666Y-62536443D01*
X61395747Y-62536443D01*
X61863060Y-62536443D01*
X63065399Y-62622997D01*
X64211573Y-63041940D01*
X64346033Y-63151935D01*
X65294000Y-64972765D01*
X65608755Y-67910907D01*
X65609989Y-68149144D01*
X65317919Y-70985891D01*
X64992055Y-72032605D01*
X63990808Y-73434292D01*
X63430366Y-73585989D01*
G37*
G36*
X77452211Y-62843502D02*
G01*
X78546323Y-63568503D01*
X79609824Y-64585636D01*
X79732599Y-64719974D01*
X80777119Y-66092008D01*
X81663096Y-67956459D01*
X82120073Y-70845585D01*
X81754930Y-73410135D01*
X81556910Y-76306244D01*
X81507756Y-77484105D01*
X81439621Y-80501630D01*
X81423493Y-83214042D01*
X81443922Y-86398091D01*
X81517302Y-89528674D01*
X81684074Y-92679407D01*
X81850429Y-94380825D01*
X82308092Y-97068093D01*
X82575098Y-98586687D01*
X83038548Y-101327092D01*
X83193032Y-102572730D01*
X82832804Y-105378165D01*
X82552627Y-106133791D01*
X81530474Y-107442842D01*
X81075202Y-107555285D01*
X79989779Y-106391448D01*
X79060464Y-104534339D01*
X78771992Y-103876987D01*
X77729755Y-105114154D01*
X76637617Y-106239751D01*
X76210373Y-106617392D01*
X75070245Y-107375766D01*
X74328482Y-107555285D01*
X73186368Y-107426485D01*
X71938210Y-106931893D01*
X70823559Y-106066357D01*
X69691868Y-104587734D01*
X68741892Y-102604215D01*
X68621015Y-102279639D01*
X67878984Y-99714087D01*
X67319206Y-96646445D01*
X66984455Y-93617414D01*
X66783604Y-90219500D01*
X66721091Y-87229395D01*
X71092753Y-87229395D01*
X71166813Y-90373258D01*
X71451203Y-93450718D01*
X71851127Y-95435954D01*
X72728738Y-97402944D01*
X73848524Y-98152274D01*
X74126249Y-98176359D01*
X75251335Y-97881880D01*
X75980052Y-97341049D01*
X77035983Y-95987791D01*
X77631622Y-94879081D01*
X77471258Y-91418141D01*
X77344072Y-88300323D01*
X77237623Y-85096539D01*
X77171266Y-82006944D01*
X77159745Y-80385710D01*
X77227156Y-77396178D01*
X77390330Y-74391934D01*
X77440625Y-73629953D01*
X76878866Y-73043770D01*
X76463165Y-72853261D01*
X75295585Y-73196384D01*
X74213322Y-74225753D01*
X73216376Y-75941368D01*
X72699382Y-77191014D01*
X71922740Y-79738805D01*
X71400272Y-82502208D01*
X71131977Y-85481222D01*
X71092753Y-87229395D01*
X66721091Y-87229395D01*
X66718514Y-87106119D01*
X66716654Y-86452703D01*
X66785228Y-83440072D01*
X67048552Y-80008155D01*
X67509370Y-76776135D01*
X68167681Y-73744013D01*
X68867136Y-71369943D01*
X69525447Y-69570637D01*
X70431968Y-67544185D01*
X71392526Y-65861199D01*
X72407120Y-64521679D01*
X73475750Y-63525627D01*
X74598417Y-62873040D01*
X75775120Y-62563920D01*
X76260932Y-62536443D01*
X77452211Y-62843502D01*
G37*
G36*
X88635831Y-40888035D02*
G01*
X89172491Y-43471075D01*
X89231936Y-45244049D01*
X89175761Y-47119834D01*
X89119585Y-48980965D01*
X89119585Y-65906994D01*
X90194030Y-64513808D01*
X91293848Y-63439445D01*
X91361001Y-63386408D01*
X92483207Y-62723203D01*
X93433890Y-62536443D01*
X94559437Y-62704598D01*
X95818128Y-63350315D01*
X96976491Y-64480320D01*
X98034528Y-66094613D01*
X98992239Y-68193193D01*
X99433472Y-69424091D01*
X100158930Y-71938438D01*
X100734294Y-74645469D01*
X101159563Y-77545185D01*
X101434737Y-80637586D01*
X101559816Y-83922671D01*
X101568154Y-85060518D01*
X101480862Y-88466160D01*
X101218986Y-91670875D01*
X100782526Y-94674661D01*
X100171482Y-97477519D01*
X99385854Y-100079450D01*
X99085181Y-100902109D01*
X98095148Y-103163149D01*
X97020982Y-104956388D01*
X95862684Y-106281825D01*
X94620254Y-107139461D01*
X93293692Y-107529296D01*
X92832809Y-107555285D01*
X91605586Y-107360539D01*
X90413912Y-106776303D01*
X89257786Y-105802575D01*
X88630855Y-105093317D01*
X87612316Y-106522137D01*
X87209606Y-106617392D01*
X86106952Y-105845193D01*
X85743416Y-105122626D01*
X85174635Y-102460073D01*
X85136717Y-101385710D01*
X85181657Y-98337560D01*
X85232166Y-95352721D01*
X85232216Y-95289409D01*
X85232216Y-84497992D01*
X89111191Y-84497992D01*
X89112771Y-87878389D01*
X89115898Y-91165292D01*
X89119585Y-94102389D01*
X90287708Y-95164988D01*
X91472009Y-95937788D01*
X92636610Y-96291988D01*
X92832809Y-96300574D01*
X94016561Y-95990023D01*
X95157749Y-94931044D01*
X96130331Y-93120532D01*
X96869137Y-90730234D01*
X97301269Y-87952048D01*
X97427994Y-85089827D01*
X97303200Y-81954136D01*
X96882408Y-78987616D01*
X96371888Y-77073777D01*
X95439983Y-75073428D01*
X94304265Y-73996317D01*
X93433890Y-73791153D01*
X92305107Y-74231935D01*
X91535146Y-74919555D01*
X90470000Y-76208413D01*
X89451022Y-77721326D01*
X89119585Y-78260797D01*
X89112343Y-81331674D01*
X89111191Y-84497992D01*
X85232216Y-84497992D01*
X85232216Y-48277546D01*
X85374904Y-45298718D01*
X85737798Y-42972591D01*
X86506003Y-40763414D01*
X87541043Y-40027022D01*
X88635831Y-40888035D01*
G37*
G36*
X113120066Y-62659161D02*
G01*
X114335132Y-63099943D01*
X115432931Y-63861293D01*
X116527784Y-65100993D01*
X117458060Y-66761539D01*
X118241450Y-69098943D01*
X118726405Y-71905293D01*
X118912927Y-75180590D01*
X118915258Y-75622975D01*
X118685584Y-78604865D01*
X118078183Y-81105301D01*
X117206942Y-83184390D01*
X116971574Y-83624370D01*
X115956519Y-85175980D01*
X114909459Y-86533532D01*
X113742230Y-87934875D01*
X113415642Y-88313833D01*
X108090171Y-94424789D01*
X109161023Y-95413973D01*
X109921504Y-95831628D01*
X111077322Y-96183338D01*
X112215388Y-96298742D01*
X112387624Y-96300574D01*
X113527357Y-96104669D01*
X114672818Y-95427468D01*
X115785824Y-94123855D01*
X115971643Y-93823952D01*
X116953465Y-92391224D01*
X118078238Y-91611112D01*
X119199561Y-92500289D01*
X119692943Y-95167822D01*
X119718573Y-96256610D01*
X119460734Y-99338936D01*
X118787776Y-101792446D01*
X117838931Y-103718377D01*
X117078308Y-104800225D01*
X115957248Y-106005564D01*
X114801781Y-106866520D01*
X113611906Y-107383093D01*
X112387624Y-107555285D01*
X111241395Y-107440438D01*
X109954266Y-106999427D01*
X108763513Y-106227658D01*
X107669137Y-105125130D01*
X106671138Y-103691845D01*
X106208280Y-102851167D01*
X105307184Y-100750870D01*
X104592522Y-98351756D01*
X104064293Y-95653827D01*
X103722498Y-92657081D01*
X103567137Y-89361520D01*
X103556779Y-88196596D01*
X103608073Y-85014308D01*
X103654169Y-84107971D01*
X107775586Y-84107971D01*
X108890435Y-82839149D01*
X110001993Y-81578913D01*
X111110259Y-80327264D01*
X111331518Y-80077964D01*
X112463401Y-78680871D01*
X113559488Y-77196524D01*
X114568761Y-75646388D01*
X114730157Y-75373847D01*
X113678571Y-74291928D01*
X112482585Y-73829793D01*
X111966305Y-73791153D01*
X110840923Y-74216823D01*
X109786572Y-75627325D01*
X109449627Y-76370358D01*
X108727065Y-78667462D01*
X108164648Y-81410385D01*
X107775586Y-84107971D01*
X103654169Y-84107971D01*
X103761953Y-81988726D01*
X104018420Y-79119850D01*
X104461595Y-75884052D01*
X105052494Y-72873912D01*
X105657756Y-70537839D01*
X106427815Y-68232749D01*
X107456887Y-65982357D01*
X108600504Y-64294562D01*
X109858668Y-63169366D01*
X110994638Y-62661465D01*
X111960687Y-62536443D01*
X113120066Y-62659161D01*
G37*
G36*
X133549068Y-76604831D02*
G01*
X132417454Y-76108350D01*
X131667177Y-74010972D01*
X130536024Y-73794588D01*
X130369515Y-73791153D01*
X129077053Y-73877192D01*
X127907153Y-74195056D01*
X126804104Y-75167767D01*
X126566410Y-76238467D01*
X127461712Y-78400016D01*
X128580841Y-79755564D01*
X128858384Y-80048655D01*
X129958751Y-81218674D01*
X131063292Y-82457371D01*
X132089292Y-83706445D01*
X133088426Y-85133791D01*
X134091165Y-87129561D01*
X134876793Y-89644122D01*
X135299824Y-92443846D01*
X135380401Y-94468753D01*
X135259437Y-97480496D01*
X134824951Y-100510329D01*
X134074477Y-103100524D01*
X133158602Y-105006305D01*
X132852488Y-105488990D01*
X131774614Y-106803322D01*
X130580174Y-107742130D01*
X129439421Y-108255541D01*
X128209422Y-108481442D01*
X127841601Y-108493177D01*
X126688685Y-108343640D01*
X125475419Y-107826723D01*
X124333469Y-106940580D01*
X124004791Y-106602737D01*
X122967644Y-105167505D01*
X122087921Y-102943274D01*
X121655005Y-99944539D01*
X121634170Y-99026324D01*
X121944755Y-96047010D01*
X122973914Y-94537131D01*
X123516061Y-94424789D01*
X124676443Y-94974336D01*
X125617038Y-95831628D01*
X126699805Y-96793334D01*
X127734867Y-97238467D01*
X128985526Y-97093309D01*
X130144812Y-96480093D01*
X130955192Y-94391602D01*
X130959361Y-94204971D01*
X130173135Y-91851581D01*
X129127738Y-90525800D01*
X128729180Y-90116345D01*
X127591619Y-88970713D01*
X126472139Y-87794326D01*
X125361437Y-86535306D01*
X124560932Y-85470846D01*
X123585227Y-83558425D01*
X122820780Y-81021581D01*
X122409155Y-78076699D01*
X122330750Y-75886757D01*
X122449049Y-72858241D01*
X122886096Y-69823757D01*
X123645177Y-67326427D01*
X124726294Y-65366249D01*
X125695684Y-64294991D01*
X126812530Y-63525627D01*
X128000018Y-63032752D01*
X129174050Y-62744240D01*
X130492252Y-62579376D01*
X131700883Y-62536443D01*
X132848088Y-62717836D01*
X133939798Y-63502443D01*
X134037798Y-63635536D01*
X134853083Y-65891553D01*
X135081649Y-68799111D01*
X135082669Y-69043072D01*
X135009284Y-71989500D01*
X134649846Y-74943312D01*
X133643421Y-76597446D01*
X133549068Y-76604831D01*
G37*
G36*
X145351615Y-108493177D02*
G01*
X144089041Y-108313888D01*
X142905069Y-107776019D01*
X141799700Y-106879571D01*
X140772932Y-105624545D01*
X139824767Y-104010939D01*
X139526179Y-103393386D01*
X138682357Y-101251014D01*
X138013118Y-98868559D01*
X137452994Y-95785589D01*
X137162021Y-92882954D01*
X137045631Y-89740235D01*
X137043207Y-89193107D01*
X137121611Y-86125093D01*
X137356826Y-83021014D01*
X137748850Y-79880872D01*
X138297684Y-76704665D01*
X138874830Y-74030278D01*
X139273388Y-72413624D01*
X140083385Y-69568147D01*
X140933428Y-67204954D01*
X141823519Y-65324046D01*
X142944491Y-63703571D01*
X144123131Y-62777585D01*
X145149382Y-62536443D01*
X146346027Y-62825627D01*
X147546786Y-63590413D01*
X148719402Y-64687402D01*
X148991811Y-64983756D01*
X150031530Y-66348678D01*
X150993076Y-68233407D01*
X151595019Y-70735318D01*
X151660164Y-71944677D01*
X151356814Y-74890246D01*
X151120876Y-75754866D01*
X150134051Y-77401301D01*
X149654686Y-77542724D01*
X148535377Y-76573690D01*
X148019969Y-75666938D01*
X147000486Y-74384663D01*
X145833960Y-73857099D01*
X145149382Y-73791153D01*
X144047875Y-74876679D01*
X143212369Y-76981270D01*
X142514735Y-79462472D01*
X141919973Y-82103043D01*
X141453988Y-84852535D01*
X141176521Y-87895033D01*
X141155279Y-88914670D01*
X141353683Y-91829986D01*
X142011116Y-94352861D01*
X142357442Y-95098899D01*
X143399954Y-96484186D01*
X144576224Y-97136085D01*
X145357233Y-97238467D01*
X146532713Y-96769520D01*
X147663587Y-95697905D01*
X147946940Y-95362682D01*
X149007566Y-94148184D01*
X149890625Y-93486897D01*
X150990377Y-94342371D01*
X151351197Y-95142863D01*
X151909905Y-97765573D01*
X151957896Y-98923742D01*
X151514732Y-101624176D01*
X150570714Y-103698141D01*
X149437893Y-105355253D01*
X149272690Y-105562263D01*
X148126000Y-106844538D01*
X146968591Y-107849177D01*
X145847269Y-108421622D01*
X145351615Y-108493177D01*
G37*
G36*
X163427118Y-62772404D02*
G01*
X164640528Y-63644151D01*
X165730285Y-65158237D01*
X166696389Y-67314663D01*
X167310757Y-69248236D01*
X167963044Y-72027868D01*
X168455121Y-75083790D01*
X168749386Y-77923055D01*
X168925945Y-80965310D01*
X168984798Y-84210553D01*
X168936933Y-87181610D01*
X168753133Y-90562694D01*
X168431482Y-93742851D01*
X167971981Y-96722079D01*
X167374630Y-99500380D01*
X167024260Y-100814182D01*
X166147851Y-103423840D01*
X165165981Y-105493570D01*
X164078649Y-107023369D01*
X162885855Y-108013240D01*
X161587601Y-108463181D01*
X161131413Y-108493177D01*
X159892659Y-108238625D01*
X158732397Y-107474971D01*
X157650628Y-106202213D01*
X156647351Y-104420351D01*
X156109292Y-103173568D01*
X155322610Y-100849330D01*
X154689974Y-98251006D01*
X154211382Y-95378596D01*
X153886834Y-92232099D01*
X153716332Y-88811516D01*
X153693730Y-87610414D01*
X153694297Y-87551795D01*
X158069829Y-87551795D01*
X158196614Y-90683552D01*
X158624121Y-93475934D01*
X159142788Y-95142863D01*
X160130885Y-96778007D01*
X161137031Y-97238467D01*
X162271410Y-96772841D01*
X163266008Y-95375962D01*
X163524504Y-94805808D01*
X164237323Y-92389178D01*
X164648373Y-89403767D01*
X164754756Y-87097504D01*
X164757301Y-83988445D01*
X164625447Y-80683009D01*
X164269169Y-77568455D01*
X163580439Y-75109492D01*
X162433223Y-73848283D01*
X162086403Y-73791153D01*
X160951694Y-74223063D01*
X159888533Y-75759345D01*
X159090222Y-78120677D01*
X159019201Y-78407343D01*
X158478689Y-81253221D01*
X158182011Y-84110862D01*
X158070756Y-87226103D01*
X158069829Y-87551795D01*
X153694297Y-87551795D01*
X153726645Y-84207863D01*
X153909656Y-80946477D01*
X154242761Y-77826255D01*
X154725961Y-74847198D01*
X155359256Y-72009306D01*
X155603709Y-71094712D01*
X156400868Y-68629195D01*
X157289643Y-66581562D01*
X158270032Y-64951814D01*
X159342037Y-63739950D01*
X160505656Y-62945970D01*
X161760890Y-62569874D01*
X162288636Y-62536443D01*
X163427118Y-62772404D01*
G37*
G36*
X183742195Y-87859541D02*
G01*
X182439968Y-87859541D01*
X181184504Y-87859541D01*
X179955739Y-87859541D01*
X178561025Y-87859541D01*
X177325771Y-87859541D01*
X175984309Y-87859541D01*
X174854648Y-87390137D01*
X174265328Y-86657867D01*
X173517048Y-84437928D01*
X173394602Y-82715787D01*
X173769592Y-79907004D01*
X174265328Y-78788362D01*
X175340185Y-77689913D01*
X175984309Y-77542724D01*
X177207039Y-77542724D01*
X178426450Y-77542724D01*
X179576563Y-77542724D01*
X179731239Y-77542724D01*
X180900750Y-77542724D01*
X182030954Y-77542724D01*
X183232371Y-77542724D01*
X183478168Y-77542724D01*
X184607829Y-77960608D01*
X185197149Y-78612507D01*
X185989838Y-80718458D01*
X186146521Y-82701132D01*
X185808413Y-85624719D01*
X184794088Y-87361286D01*
X183742195Y-87859541D01*
G37*
G36*
X204061001Y-72237769D02*
G01*
X204998024Y-73900934D01*
X205912813Y-76273600D01*
X206598905Y-79057396D01*
X207056299Y-82252322D01*
X207262762Y-85228817D01*
X207313583Y-87815578D01*
X207229649Y-90965681D01*
X206977845Y-93931342D01*
X206558172Y-96712562D01*
X205970629Y-99309341D01*
X205215218Y-101721678D01*
X204926110Y-102484803D01*
X203996575Y-104526711D01*
X202994362Y-106146156D01*
X201919472Y-107343137D01*
X200771905Y-108117654D01*
X199551660Y-108469707D01*
X199128761Y-108493177D01*
X197890435Y-108316406D01*
X196714604Y-107786094D01*
X195601269Y-106902240D01*
X194550429Y-105664845D01*
X193593772Y-104088348D01*
X192679510Y-101958627D01*
X191956246Y-99479028D01*
X191423979Y-96649550D01*
X191370876Y-96271265D01*
X191247289Y-94322207D01*
X191554539Y-91482770D01*
X191960722Y-90277546D01*
X192962452Y-88941976D01*
X193477470Y-88797434D01*
X194566755Y-89644651D01*
X195072865Y-90966310D01*
X195753514Y-93453351D01*
X196241322Y-95069590D01*
X197276165Y-96552221D01*
X198449011Y-97162217D01*
X199134379Y-97238467D01*
X200291854Y-96849076D01*
X201326949Y-95680903D01*
X201763409Y-94879081D01*
X202535278Y-92632295D01*
X202882620Y-89820377D01*
X202892544Y-89207762D01*
X202763350Y-86206580D01*
X202267247Y-83181327D01*
X201399067Y-80784618D01*
X200391358Y-79267498D01*
X199125261Y-78186866D01*
X197926346Y-77636633D01*
X197600778Y-77542724D01*
X196476548Y-76833422D01*
X195549909Y-74809374D01*
X195275098Y-71871405D01*
X195620250Y-68920169D01*
X196558853Y-66888006D01*
X197078343Y-66288013D01*
X198250427Y-65638017D01*
X199418528Y-64977631D01*
X200476982Y-64368264D01*
X201561000Y-63200679D01*
X202083611Y-62199388D01*
X202621731Y-59583847D01*
X202639752Y-59019346D01*
X202306976Y-55928147D01*
X201372389Y-54124948D01*
X200229523Y-53363598D01*
X198960234Y-53157518D01*
X197833688Y-53606314D01*
X196706737Y-54826765D01*
X196252558Y-55502249D01*
X195214253Y-57020371D01*
X194247079Y-57846980D01*
X193136004Y-57029645D01*
X192713479Y-56117741D01*
X192145751Y-53518386D01*
X192084309Y-52190316D01*
X192522837Y-49289884D01*
X193456980Y-47065366D01*
X194419667Y-45511610D01*
X194741427Y-45068195D01*
X195869157Y-43683338D01*
X197006916Y-42598327D01*
X198108489Y-41980087D01*
X198595091Y-41902807D01*
X199889725Y-42048609D01*
X201085612Y-42486013D01*
X202182753Y-43215021D01*
X203337946Y-44434084D01*
X204358733Y-46050051D01*
X205289009Y-48237632D01*
X205990796Y-50799677D01*
X206464094Y-53736187D01*
X206708903Y-57047161D01*
X206746207Y-59107273D01*
X206666552Y-62148354D01*
X206397961Y-65094610D01*
X206072097Y-67050051D01*
X205417692Y-69489836D01*
X204540778Y-71474930D01*
X204061001Y-72237769D01*
G37*
G36*
X223775890Y-42426637D02*
G01*
X224273074Y-43119137D01*
X224981466Y-45528211D01*
X225076389Y-47193107D01*
X225093241Y-77542724D01*
X226251430Y-77731344D01*
X227423135Y-78259882D01*
X227857093Y-78700435D01*
X228540716Y-81159998D01*
X228632320Y-83214042D01*
X228337397Y-86196248D01*
X227430157Y-88079360D01*
X226270477Y-88746544D01*
X225093241Y-88797434D01*
X225109041Y-91781471D01*
X225111499Y-94886408D01*
X225100614Y-98112245D01*
X225076389Y-101458983D01*
X224750920Y-104385318D01*
X224509013Y-105166590D01*
X223458875Y-106526717D01*
X223009117Y-106617392D01*
X221855757Y-105975196D01*
X221041207Y-103755257D01*
X220743475Y-100837624D01*
X220717142Y-98498760D01*
X220717142Y-88797434D01*
X214414211Y-88797434D01*
X213225302Y-88713857D01*
X211962086Y-88374326D01*
X210773177Y-87622134D01*
X209742789Y-86034174D01*
X209341532Y-83448516D01*
X209654438Y-80582574D01*
X210229110Y-78407343D01*
X210524175Y-77542724D01*
X215992753Y-77542724D01*
X220717142Y-77542724D01*
X220717142Y-59722765D01*
X220083781Y-62197785D01*
X219333900Y-65072600D01*
X218619989Y-67773677D01*
X217825161Y-70752391D01*
X217131038Y-73335259D01*
X216385128Y-76095814D01*
X215992753Y-77542724D01*
X210524175Y-77542724D01*
X211003827Y-76137216D01*
X211695300Y-74113554D01*
X212373185Y-71621819D01*
X213134455Y-68843404D01*
X213979112Y-65778309D01*
X214667326Y-63291354D01*
X215402446Y-60643141D01*
X216184469Y-57833671D01*
X217013398Y-54862943D01*
X217889231Y-51730958D01*
X218811969Y-48437715D01*
X219453186Y-46152633D01*
X220295055Y-43911514D01*
X221282851Y-42500439D01*
X222416572Y-41919408D01*
X222660827Y-41902807D01*
X223775890Y-42426637D01*
G37*
D11*
X154156319Y-66652714D02*
X153156319Y-66652714D01*
X153156319Y-66652714D02*
X153156319Y-66890809D01*
X153156319Y-66890809D02*
X153203938Y-67033666D01*
X153203938Y-67033666D02*
X153299176Y-67128904D01*
X153299176Y-67128904D02*
X153394414Y-67176523D01*
X153394414Y-67176523D02*
X153584890Y-67224142D01*
X153584890Y-67224142D02*
X153727747Y-67224142D01*
X153727747Y-67224142D02*
X153918223Y-67176523D01*
X153918223Y-67176523D02*
X154013461Y-67128904D01*
X154013461Y-67128904D02*
X154108700Y-67033666D01*
X154108700Y-67033666D02*
X154156319Y-66890809D01*
X154156319Y-66890809D02*
X154156319Y-66652714D01*
X154156319Y-68176523D02*
X154156319Y-67605095D01*
X154156319Y-67890809D02*
X153156319Y-67890809D01*
X153156319Y-67890809D02*
X153299176Y-67795571D01*
X153299176Y-67795571D02*
X153394414Y-67700333D01*
X153394414Y-67700333D02*
X153442033Y-67605095D01*
X153156319Y-69033666D02*
X153156319Y-68843190D01*
X153156319Y-68843190D02*
X153203938Y-68747952D01*
X153203938Y-68747952D02*
X153251557Y-68700333D01*
X153251557Y-68700333D02*
X153394414Y-68605095D01*
X153394414Y-68605095D02*
X153584890Y-68557476D01*
X153584890Y-68557476D02*
X153965842Y-68557476D01*
X153965842Y-68557476D02*
X154061080Y-68605095D01*
X154061080Y-68605095D02*
X154108700Y-68652714D01*
X154108700Y-68652714D02*
X154156319Y-68747952D01*
X154156319Y-68747952D02*
X154156319Y-68938428D01*
X154156319Y-68938428D02*
X154108700Y-69033666D01*
X154108700Y-69033666D02*
X154061080Y-69081285D01*
X154061080Y-69081285D02*
X153965842Y-69128904D01*
X153965842Y-69128904D02*
X153727747Y-69128904D01*
X153727747Y-69128904D02*
X153632509Y-69081285D01*
X153632509Y-69081285D02*
X153584890Y-69033666D01*
X153584890Y-69033666D02*
X153537271Y-68938428D01*
X153537271Y-68938428D02*
X153537271Y-68747952D01*
X153537271Y-68747952D02*
X153584890Y-68652714D01*
X153584890Y-68652714D02*
X153632509Y-68605095D01*
X153632509Y-68605095D02*
X153727747Y-68557476D01*
X49381319Y-85702714D02*
X48381319Y-85702714D01*
X48381319Y-85702714D02*
X48381319Y-85940809D01*
X48381319Y-85940809D02*
X48428938Y-86083666D01*
X48428938Y-86083666D02*
X48524176Y-86178904D01*
X48524176Y-86178904D02*
X48619414Y-86226523D01*
X48619414Y-86226523D02*
X48809890Y-86274142D01*
X48809890Y-86274142D02*
X48952747Y-86274142D01*
X48952747Y-86274142D02*
X49143223Y-86226523D01*
X49143223Y-86226523D02*
X49238461Y-86178904D01*
X49238461Y-86178904D02*
X49333700Y-86083666D01*
X49333700Y-86083666D02*
X49381319Y-85940809D01*
X49381319Y-85940809D02*
X49381319Y-85702714D01*
X48476557Y-86655095D02*
X48428938Y-86702714D01*
X48428938Y-86702714D02*
X48381319Y-86797952D01*
X48381319Y-86797952D02*
X48381319Y-87036047D01*
X48381319Y-87036047D02*
X48428938Y-87131285D01*
X48428938Y-87131285D02*
X48476557Y-87178904D01*
X48476557Y-87178904D02*
X48571795Y-87226523D01*
X48571795Y-87226523D02*
X48667033Y-87226523D01*
X48667033Y-87226523D02*
X48809890Y-87178904D01*
X48809890Y-87178904D02*
X49381319Y-86607476D01*
X49381319Y-86607476D02*
X49381319Y-87226523D01*
X48381319Y-87845571D02*
X48381319Y-87940809D01*
X48381319Y-87940809D02*
X48428938Y-88036047D01*
X48428938Y-88036047D02*
X48476557Y-88083666D01*
X48476557Y-88083666D02*
X48571795Y-88131285D01*
X48571795Y-88131285D02*
X48762271Y-88178904D01*
X48762271Y-88178904D02*
X49000366Y-88178904D01*
X49000366Y-88178904D02*
X49190842Y-88131285D01*
X49190842Y-88131285D02*
X49286080Y-88083666D01*
X49286080Y-88083666D02*
X49333700Y-88036047D01*
X49333700Y-88036047D02*
X49381319Y-87940809D01*
X49381319Y-87940809D02*
X49381319Y-87845571D01*
X49381319Y-87845571D02*
X49333700Y-87750333D01*
X49333700Y-87750333D02*
X49286080Y-87702714D01*
X49286080Y-87702714D02*
X49190842Y-87655095D01*
X49190842Y-87655095D02*
X49000366Y-87607476D01*
X49000366Y-87607476D02*
X48762271Y-87607476D01*
X48762271Y-87607476D02*
X48571795Y-87655095D01*
X48571795Y-87655095D02*
X48476557Y-87702714D01*
X48476557Y-87702714D02*
X48428938Y-87750333D01*
X48428938Y-87750333D02*
X48381319Y-87845571D01*
X87481319Y-48078905D02*
X86481319Y-48078905D01*
X86481319Y-48078905D02*
X86481319Y-48317000D01*
X86481319Y-48317000D02*
X86528938Y-48459857D01*
X86528938Y-48459857D02*
X86624176Y-48555095D01*
X86624176Y-48555095D02*
X86719414Y-48602714D01*
X86719414Y-48602714D02*
X86909890Y-48650333D01*
X86909890Y-48650333D02*
X87052747Y-48650333D01*
X87052747Y-48650333D02*
X87243223Y-48602714D01*
X87243223Y-48602714D02*
X87338461Y-48555095D01*
X87338461Y-48555095D02*
X87433700Y-48459857D01*
X87433700Y-48459857D02*
X87481319Y-48317000D01*
X87481319Y-48317000D02*
X87481319Y-48078905D01*
X86481319Y-48983667D02*
X86481319Y-49602714D01*
X86481319Y-49602714D02*
X86862271Y-49269381D01*
X86862271Y-49269381D02*
X86862271Y-49412238D01*
X86862271Y-49412238D02*
X86909890Y-49507476D01*
X86909890Y-49507476D02*
X86957509Y-49555095D01*
X86957509Y-49555095D02*
X87052747Y-49602714D01*
X87052747Y-49602714D02*
X87290842Y-49602714D01*
X87290842Y-49602714D02*
X87386080Y-49555095D01*
X87386080Y-49555095D02*
X87433700Y-49507476D01*
X87433700Y-49507476D02*
X87481319Y-49412238D01*
X87481319Y-49412238D02*
X87481319Y-49126524D01*
X87481319Y-49126524D02*
X87433700Y-49031286D01*
X87433700Y-49031286D02*
X87386080Y-48983667D01*
X144631319Y-85702714D02*
X143631319Y-85702714D01*
X143631319Y-85702714D02*
X143631319Y-85940809D01*
X143631319Y-85940809D02*
X143678938Y-86083666D01*
X143678938Y-86083666D02*
X143774176Y-86178904D01*
X143774176Y-86178904D02*
X143869414Y-86226523D01*
X143869414Y-86226523D02*
X144059890Y-86274142D01*
X144059890Y-86274142D02*
X144202747Y-86274142D01*
X144202747Y-86274142D02*
X144393223Y-86226523D01*
X144393223Y-86226523D02*
X144488461Y-86178904D01*
X144488461Y-86178904D02*
X144583700Y-86083666D01*
X144583700Y-86083666D02*
X144631319Y-85940809D01*
X144631319Y-85940809D02*
X144631319Y-85702714D01*
X143726557Y-86655095D02*
X143678938Y-86702714D01*
X143678938Y-86702714D02*
X143631319Y-86797952D01*
X143631319Y-86797952D02*
X143631319Y-87036047D01*
X143631319Y-87036047D02*
X143678938Y-87131285D01*
X143678938Y-87131285D02*
X143726557Y-87178904D01*
X143726557Y-87178904D02*
X143821795Y-87226523D01*
X143821795Y-87226523D02*
X143917033Y-87226523D01*
X143917033Y-87226523D02*
X144059890Y-87178904D01*
X144059890Y-87178904D02*
X144631319Y-86607476D01*
X144631319Y-86607476D02*
X144631319Y-87226523D01*
X143631319Y-88131285D02*
X143631319Y-87655095D01*
X143631319Y-87655095D02*
X144107509Y-87607476D01*
X144107509Y-87607476D02*
X144059890Y-87655095D01*
X144059890Y-87655095D02*
X144012271Y-87750333D01*
X144012271Y-87750333D02*
X144012271Y-87988428D01*
X144012271Y-87988428D02*
X144059890Y-88083666D01*
X144059890Y-88083666D02*
X144107509Y-88131285D01*
X144107509Y-88131285D02*
X144202747Y-88178904D01*
X144202747Y-88178904D02*
X144440842Y-88178904D01*
X144440842Y-88178904D02*
X144536080Y-88131285D01*
X144536080Y-88131285D02*
X144583700Y-88083666D01*
X144583700Y-88083666D02*
X144631319Y-87988428D01*
X144631319Y-87988428D02*
X144631319Y-87750333D01*
X144631319Y-87750333D02*
X144583700Y-87655095D01*
X144583700Y-87655095D02*
X144536080Y-87607476D01*
X49381319Y-104752714D02*
X48381319Y-104752714D01*
X48381319Y-104752714D02*
X48381319Y-104990809D01*
X48381319Y-104990809D02*
X48428938Y-105133666D01*
X48428938Y-105133666D02*
X48524176Y-105228904D01*
X48524176Y-105228904D02*
X48619414Y-105276523D01*
X48619414Y-105276523D02*
X48809890Y-105324142D01*
X48809890Y-105324142D02*
X48952747Y-105324142D01*
X48952747Y-105324142D02*
X49143223Y-105276523D01*
X49143223Y-105276523D02*
X49238461Y-105228904D01*
X49238461Y-105228904D02*
X49333700Y-105133666D01*
X49333700Y-105133666D02*
X49381319Y-104990809D01*
X49381319Y-104990809D02*
X49381319Y-104752714D01*
X48381319Y-105657476D02*
X48381319Y-106276523D01*
X48381319Y-106276523D02*
X48762271Y-105943190D01*
X48762271Y-105943190D02*
X48762271Y-106086047D01*
X48762271Y-106086047D02*
X48809890Y-106181285D01*
X48809890Y-106181285D02*
X48857509Y-106228904D01*
X48857509Y-106228904D02*
X48952747Y-106276523D01*
X48952747Y-106276523D02*
X49190842Y-106276523D01*
X49190842Y-106276523D02*
X49286080Y-106228904D01*
X49286080Y-106228904D02*
X49333700Y-106181285D01*
X49333700Y-106181285D02*
X49381319Y-106086047D01*
X49381319Y-106086047D02*
X49381319Y-105800333D01*
X49381319Y-105800333D02*
X49333700Y-105705095D01*
X49333700Y-105705095D02*
X49286080Y-105657476D01*
X48381319Y-106895571D02*
X48381319Y-106990809D01*
X48381319Y-106990809D02*
X48428938Y-107086047D01*
X48428938Y-107086047D02*
X48476557Y-107133666D01*
X48476557Y-107133666D02*
X48571795Y-107181285D01*
X48571795Y-107181285D02*
X48762271Y-107228904D01*
X48762271Y-107228904D02*
X49000366Y-107228904D01*
X49000366Y-107228904D02*
X49190842Y-107181285D01*
X49190842Y-107181285D02*
X49286080Y-107133666D01*
X49286080Y-107133666D02*
X49333700Y-107086047D01*
X49333700Y-107086047D02*
X49381319Y-106990809D01*
X49381319Y-106990809D02*
X49381319Y-106895571D01*
X49381319Y-106895571D02*
X49333700Y-106800333D01*
X49333700Y-106800333D02*
X49286080Y-106752714D01*
X49286080Y-106752714D02*
X49190842Y-106705095D01*
X49190842Y-106705095D02*
X49000366Y-106657476D01*
X49000366Y-106657476D02*
X48762271Y-106657476D01*
X48762271Y-106657476D02*
X48571795Y-106705095D01*
X48571795Y-106705095D02*
X48476557Y-106752714D01*
X48476557Y-106752714D02*
X48428938Y-106800333D01*
X48428938Y-106800333D02*
X48381319Y-106895571D01*
X163681319Y-104752714D02*
X162681319Y-104752714D01*
X162681319Y-104752714D02*
X162681319Y-104990809D01*
X162681319Y-104990809D02*
X162728938Y-105133666D01*
X162728938Y-105133666D02*
X162824176Y-105228904D01*
X162824176Y-105228904D02*
X162919414Y-105276523D01*
X162919414Y-105276523D02*
X163109890Y-105324142D01*
X163109890Y-105324142D02*
X163252747Y-105324142D01*
X163252747Y-105324142D02*
X163443223Y-105276523D01*
X163443223Y-105276523D02*
X163538461Y-105228904D01*
X163538461Y-105228904D02*
X163633700Y-105133666D01*
X163633700Y-105133666D02*
X163681319Y-104990809D01*
X163681319Y-104990809D02*
X163681319Y-104752714D01*
X162681319Y-105657476D02*
X162681319Y-106276523D01*
X162681319Y-106276523D02*
X163062271Y-105943190D01*
X163062271Y-105943190D02*
X163062271Y-106086047D01*
X163062271Y-106086047D02*
X163109890Y-106181285D01*
X163109890Y-106181285D02*
X163157509Y-106228904D01*
X163157509Y-106228904D02*
X163252747Y-106276523D01*
X163252747Y-106276523D02*
X163490842Y-106276523D01*
X163490842Y-106276523D02*
X163586080Y-106228904D01*
X163586080Y-106228904D02*
X163633700Y-106181285D01*
X163633700Y-106181285D02*
X163681319Y-106086047D01*
X163681319Y-106086047D02*
X163681319Y-105800333D01*
X163681319Y-105800333D02*
X163633700Y-105705095D01*
X163633700Y-105705095D02*
X163586080Y-105657476D01*
X163014652Y-107133666D02*
X163681319Y-107133666D01*
X162633700Y-106895571D02*
X163347985Y-106657476D01*
X163347985Y-106657476D02*
X163347985Y-107276523D01*
X116972213Y-45554319D02*
X116972213Y-44554319D01*
X116972213Y-44554319D02*
X116638880Y-45268604D01*
X116638880Y-45268604D02*
X116305547Y-44554319D01*
X116305547Y-44554319D02*
X116305547Y-45554319D01*
X115924594Y-44554319D02*
X115257928Y-45554319D01*
X115257928Y-44554319D02*
X115924594Y-45554319D01*
X114448404Y-44887652D02*
X114448404Y-45554319D01*
X114686499Y-44506700D02*
X114924594Y-45220985D01*
X114924594Y-45220985D02*
X114305547Y-45220985D01*
X163681319Y-48078905D02*
X162681319Y-48078905D01*
X162681319Y-48078905D02*
X162681319Y-48317000D01*
X162681319Y-48317000D02*
X162728938Y-48459857D01*
X162728938Y-48459857D02*
X162824176Y-48555095D01*
X162824176Y-48555095D02*
X162919414Y-48602714D01*
X162919414Y-48602714D02*
X163109890Y-48650333D01*
X163109890Y-48650333D02*
X163252747Y-48650333D01*
X163252747Y-48650333D02*
X163443223Y-48602714D01*
X163443223Y-48602714D02*
X163538461Y-48555095D01*
X163538461Y-48555095D02*
X163633700Y-48459857D01*
X163633700Y-48459857D02*
X163681319Y-48317000D01*
X163681319Y-48317000D02*
X163681319Y-48078905D01*
X162681319Y-48983667D02*
X162681319Y-49650333D01*
X162681319Y-49650333D02*
X163681319Y-49221762D01*
X78872213Y-45554319D02*
X78872213Y-44554319D01*
X78872213Y-44554319D02*
X78538880Y-45268604D01*
X78538880Y-45268604D02*
X78205547Y-44554319D01*
X78205547Y-44554319D02*
X78205547Y-45554319D01*
X77824594Y-44554319D02*
X77157928Y-45554319D01*
X77157928Y-44554319D02*
X77824594Y-45554319D01*
X76824594Y-44649557D02*
X76776975Y-44601938D01*
X76776975Y-44601938D02*
X76681737Y-44554319D01*
X76681737Y-44554319D02*
X76443642Y-44554319D01*
X76443642Y-44554319D02*
X76348404Y-44601938D01*
X76348404Y-44601938D02*
X76300785Y-44649557D01*
X76300785Y-44649557D02*
X76253166Y-44744795D01*
X76253166Y-44744795D02*
X76253166Y-44840033D01*
X76253166Y-44840033D02*
X76300785Y-44982890D01*
X76300785Y-44982890D02*
X76872213Y-45554319D01*
X76872213Y-45554319D02*
X76253166Y-45554319D01*
X77956319Y-66652714D02*
X76956319Y-66652714D01*
X76956319Y-66652714D02*
X76956319Y-66890809D01*
X76956319Y-66890809D02*
X77003938Y-67033666D01*
X77003938Y-67033666D02*
X77099176Y-67128904D01*
X77099176Y-67128904D02*
X77194414Y-67176523D01*
X77194414Y-67176523D02*
X77384890Y-67224142D01*
X77384890Y-67224142D02*
X77527747Y-67224142D01*
X77527747Y-67224142D02*
X77718223Y-67176523D01*
X77718223Y-67176523D02*
X77813461Y-67128904D01*
X77813461Y-67128904D02*
X77908700Y-67033666D01*
X77908700Y-67033666D02*
X77956319Y-66890809D01*
X77956319Y-66890809D02*
X77956319Y-66652714D01*
X77956319Y-68176523D02*
X77956319Y-67605095D01*
X77956319Y-67890809D02*
X76956319Y-67890809D01*
X76956319Y-67890809D02*
X77099176Y-67795571D01*
X77099176Y-67795571D02*
X77194414Y-67700333D01*
X77194414Y-67700333D02*
X77242033Y-67605095D01*
X77051557Y-68557476D02*
X77003938Y-68605095D01*
X77003938Y-68605095D02*
X76956319Y-68700333D01*
X76956319Y-68700333D02*
X76956319Y-68938428D01*
X76956319Y-68938428D02*
X77003938Y-69033666D01*
X77003938Y-69033666D02*
X77051557Y-69081285D01*
X77051557Y-69081285D02*
X77146795Y-69128904D01*
X77146795Y-69128904D02*
X77242033Y-69128904D01*
X77242033Y-69128904D02*
X77384890Y-69081285D01*
X77384890Y-69081285D02*
X77956319Y-68509857D01*
X77956319Y-68509857D02*
X77956319Y-69128904D01*
X220831319Y-85702714D02*
X219831319Y-85702714D01*
X219831319Y-85702714D02*
X219831319Y-85940809D01*
X219831319Y-85940809D02*
X219878938Y-86083666D01*
X219878938Y-86083666D02*
X219974176Y-86178904D01*
X219974176Y-86178904D02*
X220069414Y-86226523D01*
X220069414Y-86226523D02*
X220259890Y-86274142D01*
X220259890Y-86274142D02*
X220402747Y-86274142D01*
X220402747Y-86274142D02*
X220593223Y-86226523D01*
X220593223Y-86226523D02*
X220688461Y-86178904D01*
X220688461Y-86178904D02*
X220783700Y-86083666D01*
X220783700Y-86083666D02*
X220831319Y-85940809D01*
X220831319Y-85940809D02*
X220831319Y-85702714D01*
X219926557Y-86655095D02*
X219878938Y-86702714D01*
X219878938Y-86702714D02*
X219831319Y-86797952D01*
X219831319Y-86797952D02*
X219831319Y-87036047D01*
X219831319Y-87036047D02*
X219878938Y-87131285D01*
X219878938Y-87131285D02*
X219926557Y-87178904D01*
X219926557Y-87178904D02*
X220021795Y-87226523D01*
X220021795Y-87226523D02*
X220117033Y-87226523D01*
X220117033Y-87226523D02*
X220259890Y-87178904D01*
X220259890Y-87178904D02*
X220831319Y-86607476D01*
X220831319Y-86607476D02*
X220831319Y-87226523D01*
X220831319Y-87702714D02*
X220831319Y-87893190D01*
X220831319Y-87893190D02*
X220783700Y-87988428D01*
X220783700Y-87988428D02*
X220736080Y-88036047D01*
X220736080Y-88036047D02*
X220593223Y-88131285D01*
X220593223Y-88131285D02*
X220402747Y-88178904D01*
X220402747Y-88178904D02*
X220021795Y-88178904D01*
X220021795Y-88178904D02*
X219926557Y-88131285D01*
X219926557Y-88131285D02*
X219878938Y-88083666D01*
X219878938Y-88083666D02*
X219831319Y-87988428D01*
X219831319Y-87988428D02*
X219831319Y-87797952D01*
X219831319Y-87797952D02*
X219878938Y-87702714D01*
X219878938Y-87702714D02*
X219926557Y-87655095D01*
X219926557Y-87655095D02*
X220021795Y-87607476D01*
X220021795Y-87607476D02*
X220259890Y-87607476D01*
X220259890Y-87607476D02*
X220355128Y-87655095D01*
X220355128Y-87655095D02*
X220402747Y-87702714D01*
X220402747Y-87702714D02*
X220450366Y-87797952D01*
X220450366Y-87797952D02*
X220450366Y-87988428D01*
X220450366Y-87988428D02*
X220402747Y-88083666D01*
X220402747Y-88083666D02*
X220355128Y-88131285D01*
X220355128Y-88131285D02*
X220259890Y-88178904D01*
X107923404Y-64604319D02*
X107923404Y-63604319D01*
X107923404Y-63604319D02*
X107590071Y-64318604D01*
X107590071Y-64318604D02*
X107256738Y-63604319D01*
X107256738Y-63604319D02*
X107256738Y-64604319D01*
X106875785Y-63604319D02*
X106209119Y-64604319D01*
X106209119Y-63604319D02*
X106875785Y-64604319D01*
X105304357Y-64604319D02*
X105875785Y-64604319D01*
X105590071Y-64604319D02*
X105590071Y-63604319D01*
X105590071Y-63604319D02*
X105685309Y-63747176D01*
X105685309Y-63747176D02*
X105780547Y-63842414D01*
X105780547Y-63842414D02*
X105875785Y-63890033D01*
X104971023Y-63604319D02*
X104351976Y-63604319D01*
X104351976Y-63604319D02*
X104685309Y-63985271D01*
X104685309Y-63985271D02*
X104542452Y-63985271D01*
X104542452Y-63985271D02*
X104447214Y-64032890D01*
X104447214Y-64032890D02*
X104399595Y-64080509D01*
X104399595Y-64080509D02*
X104351976Y-64175747D01*
X104351976Y-64175747D02*
X104351976Y-64413842D01*
X104351976Y-64413842D02*
X104399595Y-64509080D01*
X104399595Y-64509080D02*
X104447214Y-64556700D01*
X104447214Y-64556700D02*
X104542452Y-64604319D01*
X104542452Y-64604319D02*
X104828166Y-64604319D01*
X104828166Y-64604319D02*
X104923404Y-64556700D01*
X104923404Y-64556700D02*
X104971023Y-64509080D01*
X106531319Y-85702714D02*
X105531319Y-85702714D01*
X105531319Y-85702714D02*
X105531319Y-85940809D01*
X105531319Y-85940809D02*
X105578938Y-86083666D01*
X105578938Y-86083666D02*
X105674176Y-86178904D01*
X105674176Y-86178904D02*
X105769414Y-86226523D01*
X105769414Y-86226523D02*
X105959890Y-86274142D01*
X105959890Y-86274142D02*
X106102747Y-86274142D01*
X106102747Y-86274142D02*
X106293223Y-86226523D01*
X106293223Y-86226523D02*
X106388461Y-86178904D01*
X106388461Y-86178904D02*
X106483700Y-86083666D01*
X106483700Y-86083666D02*
X106531319Y-85940809D01*
X106531319Y-85940809D02*
X106531319Y-85702714D01*
X105626557Y-86655095D02*
X105578938Y-86702714D01*
X105578938Y-86702714D02*
X105531319Y-86797952D01*
X105531319Y-86797952D02*
X105531319Y-87036047D01*
X105531319Y-87036047D02*
X105578938Y-87131285D01*
X105578938Y-87131285D02*
X105626557Y-87178904D01*
X105626557Y-87178904D02*
X105721795Y-87226523D01*
X105721795Y-87226523D02*
X105817033Y-87226523D01*
X105817033Y-87226523D02*
X105959890Y-87178904D01*
X105959890Y-87178904D02*
X106531319Y-86607476D01*
X106531319Y-86607476D02*
X106531319Y-87226523D01*
X105531319Y-87559857D02*
X105531319Y-88178904D01*
X105531319Y-88178904D02*
X105912271Y-87845571D01*
X105912271Y-87845571D02*
X105912271Y-87988428D01*
X105912271Y-87988428D02*
X105959890Y-88083666D01*
X105959890Y-88083666D02*
X106007509Y-88131285D01*
X106007509Y-88131285D02*
X106102747Y-88178904D01*
X106102747Y-88178904D02*
X106340842Y-88178904D01*
X106340842Y-88178904D02*
X106436080Y-88131285D01*
X106436080Y-88131285D02*
X106483700Y-88083666D01*
X106483700Y-88083666D02*
X106531319Y-87988428D01*
X106531319Y-87988428D02*
X106531319Y-87702714D01*
X106531319Y-87702714D02*
X106483700Y-87607476D01*
X106483700Y-87607476D02*
X106436080Y-87559857D01*
X79348404Y-83654319D02*
X79348404Y-82654319D01*
X79348404Y-82654319D02*
X79015071Y-83368604D01*
X79015071Y-83368604D02*
X78681738Y-82654319D01*
X78681738Y-82654319D02*
X78681738Y-83654319D01*
X78300785Y-82654319D02*
X77634119Y-83654319D01*
X77634119Y-82654319D02*
X78300785Y-83654319D01*
X77300785Y-82749557D02*
X77253166Y-82701938D01*
X77253166Y-82701938D02*
X77157928Y-82654319D01*
X77157928Y-82654319D02*
X76919833Y-82654319D01*
X76919833Y-82654319D02*
X76824595Y-82701938D01*
X76824595Y-82701938D02*
X76776976Y-82749557D01*
X76776976Y-82749557D02*
X76729357Y-82844795D01*
X76729357Y-82844795D02*
X76729357Y-82940033D01*
X76729357Y-82940033D02*
X76776976Y-83082890D01*
X76776976Y-83082890D02*
X77348404Y-83654319D01*
X77348404Y-83654319D02*
X76729357Y-83654319D01*
X75776976Y-83654319D02*
X76348404Y-83654319D01*
X76062690Y-83654319D02*
X76062690Y-82654319D01*
X76062690Y-82654319D02*
X76157928Y-82797176D01*
X76157928Y-82797176D02*
X76253166Y-82892414D01*
X76253166Y-82892414D02*
X76348404Y-82940033D01*
X192256319Y-66652714D02*
X191256319Y-66652714D01*
X191256319Y-66652714D02*
X191256319Y-66890809D01*
X191256319Y-66890809D02*
X191303938Y-67033666D01*
X191303938Y-67033666D02*
X191399176Y-67128904D01*
X191399176Y-67128904D02*
X191494414Y-67176523D01*
X191494414Y-67176523D02*
X191684890Y-67224142D01*
X191684890Y-67224142D02*
X191827747Y-67224142D01*
X191827747Y-67224142D02*
X192018223Y-67176523D01*
X192018223Y-67176523D02*
X192113461Y-67128904D01*
X192113461Y-67128904D02*
X192208700Y-67033666D01*
X192208700Y-67033666D02*
X192256319Y-66890809D01*
X192256319Y-66890809D02*
X192256319Y-66652714D01*
X192256319Y-68176523D02*
X192256319Y-67605095D01*
X192256319Y-67890809D02*
X191256319Y-67890809D01*
X191256319Y-67890809D02*
X191399176Y-67795571D01*
X191399176Y-67795571D02*
X191494414Y-67700333D01*
X191494414Y-67700333D02*
X191542033Y-67605095D01*
X191684890Y-68747952D02*
X191637271Y-68652714D01*
X191637271Y-68652714D02*
X191589652Y-68605095D01*
X191589652Y-68605095D02*
X191494414Y-68557476D01*
X191494414Y-68557476D02*
X191446795Y-68557476D01*
X191446795Y-68557476D02*
X191351557Y-68605095D01*
X191351557Y-68605095D02*
X191303938Y-68652714D01*
X191303938Y-68652714D02*
X191256319Y-68747952D01*
X191256319Y-68747952D02*
X191256319Y-68938428D01*
X191256319Y-68938428D02*
X191303938Y-69033666D01*
X191303938Y-69033666D02*
X191351557Y-69081285D01*
X191351557Y-69081285D02*
X191446795Y-69128904D01*
X191446795Y-69128904D02*
X191494414Y-69128904D01*
X191494414Y-69128904D02*
X191589652Y-69081285D01*
X191589652Y-69081285D02*
X191637271Y-69033666D01*
X191637271Y-69033666D02*
X191684890Y-68938428D01*
X191684890Y-68938428D02*
X191684890Y-68747952D01*
X191684890Y-68747952D02*
X191732509Y-68652714D01*
X191732509Y-68652714D02*
X191780128Y-68605095D01*
X191780128Y-68605095D02*
X191875366Y-68557476D01*
X191875366Y-68557476D02*
X192065842Y-68557476D01*
X192065842Y-68557476D02*
X192161080Y-68605095D01*
X192161080Y-68605095D02*
X192208700Y-68652714D01*
X192208700Y-68652714D02*
X192256319Y-68747952D01*
X192256319Y-68747952D02*
X192256319Y-68938428D01*
X192256319Y-68938428D02*
X192208700Y-69033666D01*
X192208700Y-69033666D02*
X192161080Y-69081285D01*
X192161080Y-69081285D02*
X192065842Y-69128904D01*
X192065842Y-69128904D02*
X191875366Y-69128904D01*
X191875366Y-69128904D02*
X191780128Y-69081285D01*
X191780128Y-69081285D02*
X191732509Y-69033666D01*
X191732509Y-69033666D02*
X191684890Y-68938428D01*
X146023404Y-64604319D02*
X146023404Y-63604319D01*
X146023404Y-63604319D02*
X145690071Y-64318604D01*
X145690071Y-64318604D02*
X145356738Y-63604319D01*
X145356738Y-63604319D02*
X145356738Y-64604319D01*
X144975785Y-63604319D02*
X144309119Y-64604319D01*
X144309119Y-63604319D02*
X144975785Y-64604319D01*
X143404357Y-64604319D02*
X143975785Y-64604319D01*
X143690071Y-64604319D02*
X143690071Y-63604319D01*
X143690071Y-63604319D02*
X143785309Y-63747176D01*
X143785309Y-63747176D02*
X143880547Y-63842414D01*
X143880547Y-63842414D02*
X143975785Y-63890033D01*
X142499595Y-63604319D02*
X142975785Y-63604319D01*
X142975785Y-63604319D02*
X143023404Y-64080509D01*
X143023404Y-64080509D02*
X142975785Y-64032890D01*
X142975785Y-64032890D02*
X142880547Y-63985271D01*
X142880547Y-63985271D02*
X142642452Y-63985271D01*
X142642452Y-63985271D02*
X142547214Y-64032890D01*
X142547214Y-64032890D02*
X142499595Y-64080509D01*
X142499595Y-64080509D02*
X142451976Y-64175747D01*
X142451976Y-64175747D02*
X142451976Y-64413842D01*
X142451976Y-64413842D02*
X142499595Y-64509080D01*
X142499595Y-64509080D02*
X142547214Y-64556700D01*
X142547214Y-64556700D02*
X142642452Y-64604319D01*
X142642452Y-64604319D02*
X142880547Y-64604319D01*
X142880547Y-64604319D02*
X142975785Y-64556700D01*
X142975785Y-64556700D02*
X143023404Y-64509080D01*
X65060904Y-64604319D02*
X65060904Y-63604319D01*
X65060904Y-63604319D02*
X64727571Y-64318604D01*
X64727571Y-64318604D02*
X64394238Y-63604319D01*
X64394238Y-63604319D02*
X64394238Y-64604319D01*
X64013285Y-63604319D02*
X63346619Y-64604319D01*
X63346619Y-63604319D02*
X64013285Y-64604319D01*
X62441857Y-64604319D02*
X63013285Y-64604319D01*
X62727571Y-64604319D02*
X62727571Y-63604319D01*
X62727571Y-63604319D02*
X62822809Y-63747176D01*
X62822809Y-63747176D02*
X62918047Y-63842414D01*
X62918047Y-63842414D02*
X63013285Y-63890033D01*
X61489476Y-64604319D02*
X62060904Y-64604319D01*
X61775190Y-64604319D02*
X61775190Y-63604319D01*
X61775190Y-63604319D02*
X61870428Y-63747176D01*
X61870428Y-63747176D02*
X61965666Y-63842414D01*
X61965666Y-63842414D02*
X62060904Y-63890033D01*
X219581142Y-68104319D02*
X219581142Y-67104319D01*
X219581142Y-67104319D02*
X219247809Y-67818604D01*
X219247809Y-67818604D02*
X218914476Y-67104319D01*
X218914476Y-67104319D02*
X218914476Y-68104319D01*
X218533523Y-67104319D02*
X217866857Y-68104319D01*
X217866857Y-67104319D02*
X218533523Y-68104319D01*
X216962095Y-68104319D02*
X217533523Y-68104319D01*
X217247809Y-68104319D02*
X217247809Y-67104319D01*
X217247809Y-67104319D02*
X217343047Y-67247176D01*
X217343047Y-67247176D02*
X217438285Y-67342414D01*
X217438285Y-67342414D02*
X217533523Y-67390033D01*
X216485904Y-68104319D02*
X216295428Y-68104319D01*
X216295428Y-68104319D02*
X216200190Y-68056700D01*
X216200190Y-68056700D02*
X216152571Y-68009080D01*
X216152571Y-68009080D02*
X216057333Y-67866223D01*
X216057333Y-67866223D02*
X216009714Y-67675747D01*
X216009714Y-67675747D02*
X216009714Y-67294795D01*
X216009714Y-67294795D02*
X216057333Y-67199557D01*
X216057333Y-67199557D02*
X216104952Y-67151938D01*
X216104952Y-67151938D02*
X216200190Y-67104319D01*
X216200190Y-67104319D02*
X216390666Y-67104319D01*
X216390666Y-67104319D02*
X216485904Y-67151938D01*
X216485904Y-67151938D02*
X216533523Y-67199557D01*
X216533523Y-67199557D02*
X216581142Y-67294795D01*
X216581142Y-67294795D02*
X216581142Y-67532890D01*
X216581142Y-67532890D02*
X216533523Y-67628128D01*
X216533523Y-67628128D02*
X216485904Y-67675747D01*
X216485904Y-67675747D02*
X216390666Y-67723366D01*
X216390666Y-67723366D02*
X216200190Y-67723366D01*
X216200190Y-67723366D02*
X216104952Y-67675747D01*
X216104952Y-67675747D02*
X216057333Y-67628128D01*
X216057333Y-67628128D02*
X216009714Y-67532890D01*
X215581142Y-67723366D02*
X214819238Y-67723366D01*
X214390666Y-67199557D02*
X214343047Y-67151938D01*
X214343047Y-67151938D02*
X214247809Y-67104319D01*
X214247809Y-67104319D02*
X214009714Y-67104319D01*
X214009714Y-67104319D02*
X213914476Y-67151938D01*
X213914476Y-67151938D02*
X213866857Y-67199557D01*
X213866857Y-67199557D02*
X213819238Y-67294795D01*
X213819238Y-67294795D02*
X213819238Y-67390033D01*
X213819238Y-67390033D02*
X213866857Y-67532890D01*
X213866857Y-67532890D02*
X214438285Y-68104319D01*
X214438285Y-68104319D02*
X213819238Y-68104319D01*
X136498404Y-83654319D02*
X136498404Y-82654319D01*
X136498404Y-82654319D02*
X136165071Y-83368604D01*
X136165071Y-83368604D02*
X135831738Y-82654319D01*
X135831738Y-82654319D02*
X135831738Y-83654319D01*
X135450785Y-82654319D02*
X134784119Y-83654319D01*
X134784119Y-82654319D02*
X135450785Y-83654319D01*
X134450785Y-82749557D02*
X134403166Y-82701938D01*
X134403166Y-82701938D02*
X134307928Y-82654319D01*
X134307928Y-82654319D02*
X134069833Y-82654319D01*
X134069833Y-82654319D02*
X133974595Y-82701938D01*
X133974595Y-82701938D02*
X133926976Y-82749557D01*
X133926976Y-82749557D02*
X133879357Y-82844795D01*
X133879357Y-82844795D02*
X133879357Y-82940033D01*
X133879357Y-82940033D02*
X133926976Y-83082890D01*
X133926976Y-83082890D02*
X134498404Y-83654319D01*
X134498404Y-83654319D02*
X133879357Y-83654319D01*
X133022214Y-82987652D02*
X133022214Y-83654319D01*
X133260309Y-82606700D02*
X133498404Y-83320985D01*
X133498404Y-83320985D02*
X132879357Y-83320985D01*
X193172213Y-45554319D02*
X193172213Y-44554319D01*
X193172213Y-44554319D02*
X192838880Y-45268604D01*
X192838880Y-45268604D02*
X192505547Y-44554319D01*
X192505547Y-44554319D02*
X192505547Y-45554319D01*
X192124594Y-44554319D02*
X191457928Y-45554319D01*
X191457928Y-44554319D02*
X192124594Y-45554319D01*
X190934118Y-44982890D02*
X191029356Y-44935271D01*
X191029356Y-44935271D02*
X191076975Y-44887652D01*
X191076975Y-44887652D02*
X191124594Y-44792414D01*
X191124594Y-44792414D02*
X191124594Y-44744795D01*
X191124594Y-44744795D02*
X191076975Y-44649557D01*
X191076975Y-44649557D02*
X191029356Y-44601938D01*
X191029356Y-44601938D02*
X190934118Y-44554319D01*
X190934118Y-44554319D02*
X190743642Y-44554319D01*
X190743642Y-44554319D02*
X190648404Y-44601938D01*
X190648404Y-44601938D02*
X190600785Y-44649557D01*
X190600785Y-44649557D02*
X190553166Y-44744795D01*
X190553166Y-44744795D02*
X190553166Y-44792414D01*
X190553166Y-44792414D02*
X190600785Y-44887652D01*
X190600785Y-44887652D02*
X190648404Y-44935271D01*
X190648404Y-44935271D02*
X190743642Y-44982890D01*
X190743642Y-44982890D02*
X190934118Y-44982890D01*
X190934118Y-44982890D02*
X191029356Y-45030509D01*
X191029356Y-45030509D02*
X191076975Y-45078128D01*
X191076975Y-45078128D02*
X191124594Y-45173366D01*
X191124594Y-45173366D02*
X191124594Y-45363842D01*
X191124594Y-45363842D02*
X191076975Y-45459080D01*
X191076975Y-45459080D02*
X191029356Y-45506700D01*
X191029356Y-45506700D02*
X190934118Y-45554319D01*
X190934118Y-45554319D02*
X190743642Y-45554319D01*
X190743642Y-45554319D02*
X190648404Y-45506700D01*
X190648404Y-45506700D02*
X190600785Y-45459080D01*
X190600785Y-45459080D02*
X190553166Y-45363842D01*
X190553166Y-45363842D02*
X190553166Y-45173366D01*
X190553166Y-45173366D02*
X190600785Y-45078128D01*
X190600785Y-45078128D02*
X190648404Y-45030509D01*
X190648404Y-45030509D02*
X190743642Y-44982890D01*
X97922213Y-45554319D02*
X97922213Y-44554319D01*
X97922213Y-44554319D02*
X97588880Y-45268604D01*
X97588880Y-45268604D02*
X97255547Y-44554319D01*
X97255547Y-44554319D02*
X97255547Y-45554319D01*
X96874594Y-44554319D02*
X96207928Y-45554319D01*
X96207928Y-44554319D02*
X96874594Y-45554319D01*
X95922213Y-44554319D02*
X95303166Y-44554319D01*
X95303166Y-44554319D02*
X95636499Y-44935271D01*
X95636499Y-44935271D02*
X95493642Y-44935271D01*
X95493642Y-44935271D02*
X95398404Y-44982890D01*
X95398404Y-44982890D02*
X95350785Y-45030509D01*
X95350785Y-45030509D02*
X95303166Y-45125747D01*
X95303166Y-45125747D02*
X95303166Y-45363842D01*
X95303166Y-45363842D02*
X95350785Y-45459080D01*
X95350785Y-45459080D02*
X95398404Y-45506700D01*
X95398404Y-45506700D02*
X95493642Y-45554319D01*
X95493642Y-45554319D02*
X95779356Y-45554319D01*
X95779356Y-45554319D02*
X95874594Y-45506700D01*
X95874594Y-45506700D02*
X95922213Y-45459080D01*
X231748404Y-83654319D02*
X231748404Y-82654319D01*
X231748404Y-82654319D02*
X231415071Y-83368604D01*
X231415071Y-83368604D02*
X231081738Y-82654319D01*
X231081738Y-82654319D02*
X231081738Y-83654319D01*
X230700785Y-82654319D02*
X230034119Y-83654319D01*
X230034119Y-82654319D02*
X230700785Y-83654319D01*
X229700785Y-82749557D02*
X229653166Y-82701938D01*
X229653166Y-82701938D02*
X229557928Y-82654319D01*
X229557928Y-82654319D02*
X229319833Y-82654319D01*
X229319833Y-82654319D02*
X229224595Y-82701938D01*
X229224595Y-82701938D02*
X229176976Y-82749557D01*
X229176976Y-82749557D02*
X229129357Y-82844795D01*
X229129357Y-82844795D02*
X229129357Y-82940033D01*
X229129357Y-82940033D02*
X229176976Y-83082890D01*
X229176976Y-83082890D02*
X229748404Y-83654319D01*
X229748404Y-83654319D02*
X229129357Y-83654319D01*
X228653166Y-83654319D02*
X228462690Y-83654319D01*
X228462690Y-83654319D02*
X228367452Y-83606700D01*
X228367452Y-83606700D02*
X228319833Y-83559080D01*
X228319833Y-83559080D02*
X228224595Y-83416223D01*
X228224595Y-83416223D02*
X228176976Y-83225747D01*
X228176976Y-83225747D02*
X228176976Y-82844795D01*
X228176976Y-82844795D02*
X228224595Y-82749557D01*
X228224595Y-82749557D02*
X228272214Y-82701938D01*
X228272214Y-82701938D02*
X228367452Y-82654319D01*
X228367452Y-82654319D02*
X228557928Y-82654319D01*
X228557928Y-82654319D02*
X228653166Y-82701938D01*
X228653166Y-82701938D02*
X228700785Y-82749557D01*
X228700785Y-82749557D02*
X228748404Y-82844795D01*
X228748404Y-82844795D02*
X228748404Y-83082890D01*
X228748404Y-83082890D02*
X228700785Y-83178128D01*
X228700785Y-83178128D02*
X228653166Y-83225747D01*
X228653166Y-83225747D02*
X228557928Y-83273366D01*
X228557928Y-83273366D02*
X228367452Y-83273366D01*
X228367452Y-83273366D02*
X228272214Y-83225747D01*
X228272214Y-83225747D02*
X228224595Y-83178128D01*
X228224595Y-83178128D02*
X228176976Y-83082890D01*
X184123404Y-64604319D02*
X184123404Y-63604319D01*
X184123404Y-63604319D02*
X183790071Y-64318604D01*
X183790071Y-64318604D02*
X183456738Y-63604319D01*
X183456738Y-63604319D02*
X183456738Y-64604319D01*
X183075785Y-63604319D02*
X182409119Y-64604319D01*
X182409119Y-63604319D02*
X183075785Y-64604319D01*
X181504357Y-64604319D02*
X182075785Y-64604319D01*
X181790071Y-64604319D02*
X181790071Y-63604319D01*
X181790071Y-63604319D02*
X181885309Y-63747176D01*
X181885309Y-63747176D02*
X181980547Y-63842414D01*
X181980547Y-63842414D02*
X182075785Y-63890033D01*
X181171023Y-63604319D02*
X180504357Y-63604319D01*
X180504357Y-63604319D02*
X180932928Y-64604319D01*
X106531319Y-48078905D02*
X105531319Y-48078905D01*
X105531319Y-48078905D02*
X105531319Y-48317000D01*
X105531319Y-48317000D02*
X105578938Y-48459857D01*
X105578938Y-48459857D02*
X105674176Y-48555095D01*
X105674176Y-48555095D02*
X105769414Y-48602714D01*
X105769414Y-48602714D02*
X105959890Y-48650333D01*
X105959890Y-48650333D02*
X106102747Y-48650333D01*
X106102747Y-48650333D02*
X106293223Y-48602714D01*
X106293223Y-48602714D02*
X106388461Y-48555095D01*
X106388461Y-48555095D02*
X106483700Y-48459857D01*
X106483700Y-48459857D02*
X106531319Y-48317000D01*
X106531319Y-48317000D02*
X106531319Y-48078905D01*
X105864652Y-49507476D02*
X106531319Y-49507476D01*
X105483700Y-49269381D02*
X106197985Y-49031286D01*
X106197985Y-49031286D02*
X106197985Y-49650333D01*
X182731319Y-85702714D02*
X181731319Y-85702714D01*
X181731319Y-85702714D02*
X181731319Y-85940809D01*
X181731319Y-85940809D02*
X181778938Y-86083666D01*
X181778938Y-86083666D02*
X181874176Y-86178904D01*
X181874176Y-86178904D02*
X181969414Y-86226523D01*
X181969414Y-86226523D02*
X182159890Y-86274142D01*
X182159890Y-86274142D02*
X182302747Y-86274142D01*
X182302747Y-86274142D02*
X182493223Y-86226523D01*
X182493223Y-86226523D02*
X182588461Y-86178904D01*
X182588461Y-86178904D02*
X182683700Y-86083666D01*
X182683700Y-86083666D02*
X182731319Y-85940809D01*
X182731319Y-85940809D02*
X182731319Y-85702714D01*
X181826557Y-86655095D02*
X181778938Y-86702714D01*
X181778938Y-86702714D02*
X181731319Y-86797952D01*
X181731319Y-86797952D02*
X181731319Y-87036047D01*
X181731319Y-87036047D02*
X181778938Y-87131285D01*
X181778938Y-87131285D02*
X181826557Y-87178904D01*
X181826557Y-87178904D02*
X181921795Y-87226523D01*
X181921795Y-87226523D02*
X182017033Y-87226523D01*
X182017033Y-87226523D02*
X182159890Y-87178904D01*
X182159890Y-87178904D02*
X182731319Y-86607476D01*
X182731319Y-86607476D02*
X182731319Y-87226523D01*
X181731319Y-87559857D02*
X181731319Y-88226523D01*
X181731319Y-88226523D02*
X182731319Y-87797952D01*
X62418642Y-68104319D02*
X62418642Y-67104319D01*
X62418642Y-67104319D02*
X62085309Y-67818604D01*
X62085309Y-67818604D02*
X61751976Y-67104319D01*
X61751976Y-67104319D02*
X61751976Y-68104319D01*
X61371023Y-67104319D02*
X60704357Y-68104319D01*
X60704357Y-67104319D02*
X61371023Y-68104319D01*
X59799595Y-68104319D02*
X60371023Y-68104319D01*
X60085309Y-68104319D02*
X60085309Y-67104319D01*
X60085309Y-67104319D02*
X60180547Y-67247176D01*
X60180547Y-67247176D02*
X60275785Y-67342414D01*
X60275785Y-67342414D02*
X60371023Y-67390033D01*
X58847214Y-68104319D02*
X59418642Y-68104319D01*
X59132928Y-68104319D02*
X59132928Y-67104319D01*
X59132928Y-67104319D02*
X59228166Y-67247176D01*
X59228166Y-67247176D02*
X59323404Y-67342414D01*
X59323404Y-67342414D02*
X59418642Y-67390033D01*
X58418642Y-67723366D02*
X57656738Y-67723366D01*
X57228166Y-67199557D02*
X57180547Y-67151938D01*
X57180547Y-67151938D02*
X57085309Y-67104319D01*
X57085309Y-67104319D02*
X56847214Y-67104319D01*
X56847214Y-67104319D02*
X56751976Y-67151938D01*
X56751976Y-67151938D02*
X56704357Y-67199557D01*
X56704357Y-67199557D02*
X56656738Y-67294795D01*
X56656738Y-67294795D02*
X56656738Y-67390033D01*
X56656738Y-67390033D02*
X56704357Y-67532890D01*
X56704357Y-67532890D02*
X57275785Y-68104319D01*
X57275785Y-68104319D02*
X56656738Y-68104319D01*
X98398404Y-102704319D02*
X98398404Y-101704319D01*
X98398404Y-101704319D02*
X98065071Y-102418604D01*
X98065071Y-102418604D02*
X97731738Y-101704319D01*
X97731738Y-101704319D02*
X97731738Y-102704319D01*
X97350785Y-101704319D02*
X96684119Y-102704319D01*
X96684119Y-101704319D02*
X97350785Y-102704319D01*
X96398404Y-101704319D02*
X95779357Y-101704319D01*
X95779357Y-101704319D02*
X96112690Y-102085271D01*
X96112690Y-102085271D02*
X95969833Y-102085271D01*
X95969833Y-102085271D02*
X95874595Y-102132890D01*
X95874595Y-102132890D02*
X95826976Y-102180509D01*
X95826976Y-102180509D02*
X95779357Y-102275747D01*
X95779357Y-102275747D02*
X95779357Y-102513842D01*
X95779357Y-102513842D02*
X95826976Y-102609080D01*
X95826976Y-102609080D02*
X95874595Y-102656700D01*
X95874595Y-102656700D02*
X95969833Y-102704319D01*
X95969833Y-102704319D02*
X96255547Y-102704319D01*
X96255547Y-102704319D02*
X96350785Y-102656700D01*
X96350785Y-102656700D02*
X96398404Y-102609080D01*
X95398404Y-101799557D02*
X95350785Y-101751938D01*
X95350785Y-101751938D02*
X95255547Y-101704319D01*
X95255547Y-101704319D02*
X95017452Y-101704319D01*
X95017452Y-101704319D02*
X94922214Y-101751938D01*
X94922214Y-101751938D02*
X94874595Y-101799557D01*
X94874595Y-101799557D02*
X94826976Y-101894795D01*
X94826976Y-101894795D02*
X94826976Y-101990033D01*
X94826976Y-101990033D02*
X94874595Y-102132890D01*
X94874595Y-102132890D02*
X95446023Y-102704319D01*
X95446023Y-102704319D02*
X94826976Y-102704319D01*
X212698404Y-83654319D02*
X212698404Y-82654319D01*
X212698404Y-82654319D02*
X212365071Y-83368604D01*
X212365071Y-83368604D02*
X212031738Y-82654319D01*
X212031738Y-82654319D02*
X212031738Y-83654319D01*
X211650785Y-82654319D02*
X210984119Y-83654319D01*
X210984119Y-82654319D02*
X211650785Y-83654319D01*
X210650785Y-82749557D02*
X210603166Y-82701938D01*
X210603166Y-82701938D02*
X210507928Y-82654319D01*
X210507928Y-82654319D02*
X210269833Y-82654319D01*
X210269833Y-82654319D02*
X210174595Y-82701938D01*
X210174595Y-82701938D02*
X210126976Y-82749557D01*
X210126976Y-82749557D02*
X210079357Y-82844795D01*
X210079357Y-82844795D02*
X210079357Y-82940033D01*
X210079357Y-82940033D02*
X210126976Y-83082890D01*
X210126976Y-83082890D02*
X210698404Y-83654319D01*
X210698404Y-83654319D02*
X210079357Y-83654319D01*
X209507928Y-83082890D02*
X209603166Y-83035271D01*
X209603166Y-83035271D02*
X209650785Y-82987652D01*
X209650785Y-82987652D02*
X209698404Y-82892414D01*
X209698404Y-82892414D02*
X209698404Y-82844795D01*
X209698404Y-82844795D02*
X209650785Y-82749557D01*
X209650785Y-82749557D02*
X209603166Y-82701938D01*
X209603166Y-82701938D02*
X209507928Y-82654319D01*
X209507928Y-82654319D02*
X209317452Y-82654319D01*
X209317452Y-82654319D02*
X209222214Y-82701938D01*
X209222214Y-82701938D02*
X209174595Y-82749557D01*
X209174595Y-82749557D02*
X209126976Y-82844795D01*
X209126976Y-82844795D02*
X209126976Y-82892414D01*
X209126976Y-82892414D02*
X209174595Y-82987652D01*
X209174595Y-82987652D02*
X209222214Y-83035271D01*
X209222214Y-83035271D02*
X209317452Y-83082890D01*
X209317452Y-83082890D02*
X209507928Y-83082890D01*
X209507928Y-83082890D02*
X209603166Y-83130509D01*
X209603166Y-83130509D02*
X209650785Y-83178128D01*
X209650785Y-83178128D02*
X209698404Y-83273366D01*
X209698404Y-83273366D02*
X209698404Y-83463842D01*
X209698404Y-83463842D02*
X209650785Y-83559080D01*
X209650785Y-83559080D02*
X209603166Y-83606700D01*
X209603166Y-83606700D02*
X209507928Y-83654319D01*
X209507928Y-83654319D02*
X209317452Y-83654319D01*
X209317452Y-83654319D02*
X209222214Y-83606700D01*
X209222214Y-83606700D02*
X209174595Y-83559080D01*
X209174595Y-83559080D02*
X209126976Y-83463842D01*
X209126976Y-83463842D02*
X209126976Y-83273366D01*
X209126976Y-83273366D02*
X209174595Y-83178128D01*
X209174595Y-83178128D02*
X209222214Y-83130509D01*
X209222214Y-83130509D02*
X209317452Y-83082890D01*
X106531319Y-104752714D02*
X105531319Y-104752714D01*
X105531319Y-104752714D02*
X105531319Y-104990809D01*
X105531319Y-104990809D02*
X105578938Y-105133666D01*
X105578938Y-105133666D02*
X105674176Y-105228904D01*
X105674176Y-105228904D02*
X105769414Y-105276523D01*
X105769414Y-105276523D02*
X105959890Y-105324142D01*
X105959890Y-105324142D02*
X106102747Y-105324142D01*
X106102747Y-105324142D02*
X106293223Y-105276523D01*
X106293223Y-105276523D02*
X106388461Y-105228904D01*
X106388461Y-105228904D02*
X106483700Y-105133666D01*
X106483700Y-105133666D02*
X106531319Y-104990809D01*
X106531319Y-104990809D02*
X106531319Y-104752714D01*
X105531319Y-105657476D02*
X105531319Y-106276523D01*
X105531319Y-106276523D02*
X105912271Y-105943190D01*
X105912271Y-105943190D02*
X105912271Y-106086047D01*
X105912271Y-106086047D02*
X105959890Y-106181285D01*
X105959890Y-106181285D02*
X106007509Y-106228904D01*
X106007509Y-106228904D02*
X106102747Y-106276523D01*
X106102747Y-106276523D02*
X106340842Y-106276523D01*
X106340842Y-106276523D02*
X106436080Y-106228904D01*
X106436080Y-106228904D02*
X106483700Y-106181285D01*
X106483700Y-106181285D02*
X106531319Y-106086047D01*
X106531319Y-106086047D02*
X106531319Y-105800333D01*
X106531319Y-105800333D02*
X106483700Y-105705095D01*
X106483700Y-105705095D02*
X106436080Y-105657476D01*
X105531319Y-106609857D02*
X105531319Y-107228904D01*
X105531319Y-107228904D02*
X105912271Y-106895571D01*
X105912271Y-106895571D02*
X105912271Y-107038428D01*
X105912271Y-107038428D02*
X105959890Y-107133666D01*
X105959890Y-107133666D02*
X106007509Y-107181285D01*
X106007509Y-107181285D02*
X106102747Y-107228904D01*
X106102747Y-107228904D02*
X106340842Y-107228904D01*
X106340842Y-107228904D02*
X106436080Y-107181285D01*
X106436080Y-107181285D02*
X106483700Y-107133666D01*
X106483700Y-107133666D02*
X106531319Y-107038428D01*
X106531319Y-107038428D02*
X106531319Y-106752714D01*
X106531319Y-106752714D02*
X106483700Y-106657476D01*
X106483700Y-106657476D02*
X106436080Y-106609857D01*
X59822213Y-45554319D02*
X59822213Y-44554319D01*
X59822213Y-44554319D02*
X59488880Y-45268604D01*
X59488880Y-45268604D02*
X59155547Y-44554319D01*
X59155547Y-44554319D02*
X59155547Y-45554319D01*
X58774594Y-44554319D02*
X58107928Y-45554319D01*
X58107928Y-44554319D02*
X58774594Y-45554319D01*
X57203166Y-45554319D02*
X57774594Y-45554319D01*
X57488880Y-45554319D02*
X57488880Y-44554319D01*
X57488880Y-44554319D02*
X57584118Y-44697176D01*
X57584118Y-44697176D02*
X57679356Y-44792414D01*
X57679356Y-44792414D02*
X57774594Y-44840033D01*
X193648404Y-83654319D02*
X193648404Y-82654319D01*
X193648404Y-82654319D02*
X193315071Y-83368604D01*
X193315071Y-83368604D02*
X192981738Y-82654319D01*
X192981738Y-82654319D02*
X192981738Y-83654319D01*
X192600785Y-82654319D02*
X191934119Y-83654319D01*
X191934119Y-82654319D02*
X192600785Y-83654319D01*
X191600785Y-82749557D02*
X191553166Y-82701938D01*
X191553166Y-82701938D02*
X191457928Y-82654319D01*
X191457928Y-82654319D02*
X191219833Y-82654319D01*
X191219833Y-82654319D02*
X191124595Y-82701938D01*
X191124595Y-82701938D02*
X191076976Y-82749557D01*
X191076976Y-82749557D02*
X191029357Y-82844795D01*
X191029357Y-82844795D02*
X191029357Y-82940033D01*
X191029357Y-82940033D02*
X191076976Y-83082890D01*
X191076976Y-83082890D02*
X191648404Y-83654319D01*
X191648404Y-83654319D02*
X191029357Y-83654319D01*
X190696023Y-82654319D02*
X190029357Y-82654319D01*
X190029357Y-82654319D02*
X190457928Y-83654319D01*
X144631319Y-48078905D02*
X143631319Y-48078905D01*
X143631319Y-48078905D02*
X143631319Y-48317000D01*
X143631319Y-48317000D02*
X143678938Y-48459857D01*
X143678938Y-48459857D02*
X143774176Y-48555095D01*
X143774176Y-48555095D02*
X143869414Y-48602714D01*
X143869414Y-48602714D02*
X144059890Y-48650333D01*
X144059890Y-48650333D02*
X144202747Y-48650333D01*
X144202747Y-48650333D02*
X144393223Y-48602714D01*
X144393223Y-48602714D02*
X144488461Y-48555095D01*
X144488461Y-48555095D02*
X144583700Y-48459857D01*
X144583700Y-48459857D02*
X144631319Y-48317000D01*
X144631319Y-48317000D02*
X144631319Y-48078905D01*
X143631319Y-49507476D02*
X143631319Y-49317000D01*
X143631319Y-49317000D02*
X143678938Y-49221762D01*
X143678938Y-49221762D02*
X143726557Y-49174143D01*
X143726557Y-49174143D02*
X143869414Y-49078905D01*
X143869414Y-49078905D02*
X144059890Y-49031286D01*
X144059890Y-49031286D02*
X144440842Y-49031286D01*
X144440842Y-49031286D02*
X144536080Y-49078905D01*
X144536080Y-49078905D02*
X144583700Y-49126524D01*
X144583700Y-49126524D02*
X144631319Y-49221762D01*
X144631319Y-49221762D02*
X144631319Y-49412238D01*
X144631319Y-49412238D02*
X144583700Y-49507476D01*
X144583700Y-49507476D02*
X144536080Y-49555095D01*
X144536080Y-49555095D02*
X144440842Y-49602714D01*
X144440842Y-49602714D02*
X144202747Y-49602714D01*
X144202747Y-49602714D02*
X144107509Y-49555095D01*
X144107509Y-49555095D02*
X144059890Y-49507476D01*
X144059890Y-49507476D02*
X144012271Y-49412238D01*
X144012271Y-49412238D02*
X144012271Y-49221762D01*
X144012271Y-49221762D02*
X144059890Y-49126524D01*
X144059890Y-49126524D02*
X144107509Y-49078905D01*
X144107509Y-49078905D02*
X144202747Y-49031286D01*
X126973404Y-64604319D02*
X126973404Y-63604319D01*
X126973404Y-63604319D02*
X126640071Y-64318604D01*
X126640071Y-64318604D02*
X126306738Y-63604319D01*
X126306738Y-63604319D02*
X126306738Y-64604319D01*
X125925785Y-63604319D02*
X125259119Y-64604319D01*
X125259119Y-63604319D02*
X125925785Y-64604319D01*
X124354357Y-64604319D02*
X124925785Y-64604319D01*
X124640071Y-64604319D02*
X124640071Y-63604319D01*
X124640071Y-63604319D02*
X124735309Y-63747176D01*
X124735309Y-63747176D02*
X124830547Y-63842414D01*
X124830547Y-63842414D02*
X124925785Y-63890033D01*
X123497214Y-63937652D02*
X123497214Y-64604319D01*
X123735309Y-63556700D02*
X123973404Y-64270985D01*
X123973404Y-64270985D02*
X123354357Y-64270985D01*
X68431319Y-48078905D02*
X67431319Y-48078905D01*
X67431319Y-48078905D02*
X67431319Y-48317000D01*
X67431319Y-48317000D02*
X67478938Y-48459857D01*
X67478938Y-48459857D02*
X67574176Y-48555095D01*
X67574176Y-48555095D02*
X67669414Y-48602714D01*
X67669414Y-48602714D02*
X67859890Y-48650333D01*
X67859890Y-48650333D02*
X68002747Y-48650333D01*
X68002747Y-48650333D02*
X68193223Y-48602714D01*
X68193223Y-48602714D02*
X68288461Y-48555095D01*
X68288461Y-48555095D02*
X68383700Y-48459857D01*
X68383700Y-48459857D02*
X68431319Y-48317000D01*
X68431319Y-48317000D02*
X68431319Y-48078905D01*
X67526557Y-49031286D02*
X67478938Y-49078905D01*
X67478938Y-49078905D02*
X67431319Y-49174143D01*
X67431319Y-49174143D02*
X67431319Y-49412238D01*
X67431319Y-49412238D02*
X67478938Y-49507476D01*
X67478938Y-49507476D02*
X67526557Y-49555095D01*
X67526557Y-49555095D02*
X67621795Y-49602714D01*
X67621795Y-49602714D02*
X67717033Y-49602714D01*
X67717033Y-49602714D02*
X67859890Y-49555095D01*
X67859890Y-49555095D02*
X68431319Y-48983667D01*
X68431319Y-48983667D02*
X68431319Y-49602714D01*
X97006319Y-66652714D02*
X96006319Y-66652714D01*
X96006319Y-66652714D02*
X96006319Y-66890809D01*
X96006319Y-66890809D02*
X96053938Y-67033666D01*
X96053938Y-67033666D02*
X96149176Y-67128904D01*
X96149176Y-67128904D02*
X96244414Y-67176523D01*
X96244414Y-67176523D02*
X96434890Y-67224142D01*
X96434890Y-67224142D02*
X96577747Y-67224142D01*
X96577747Y-67224142D02*
X96768223Y-67176523D01*
X96768223Y-67176523D02*
X96863461Y-67128904D01*
X96863461Y-67128904D02*
X96958700Y-67033666D01*
X96958700Y-67033666D02*
X97006319Y-66890809D01*
X97006319Y-66890809D02*
X97006319Y-66652714D01*
X97006319Y-68176523D02*
X97006319Y-67605095D01*
X97006319Y-67890809D02*
X96006319Y-67890809D01*
X96006319Y-67890809D02*
X96149176Y-67795571D01*
X96149176Y-67795571D02*
X96244414Y-67700333D01*
X96244414Y-67700333D02*
X96292033Y-67605095D01*
X96006319Y-68509857D02*
X96006319Y-69128904D01*
X96006319Y-69128904D02*
X96387271Y-68795571D01*
X96387271Y-68795571D02*
X96387271Y-68938428D01*
X96387271Y-68938428D02*
X96434890Y-69033666D01*
X96434890Y-69033666D02*
X96482509Y-69081285D01*
X96482509Y-69081285D02*
X96577747Y-69128904D01*
X96577747Y-69128904D02*
X96815842Y-69128904D01*
X96815842Y-69128904D02*
X96911080Y-69081285D01*
X96911080Y-69081285D02*
X96958700Y-69033666D01*
X96958700Y-69033666D02*
X97006319Y-68938428D01*
X97006319Y-68938428D02*
X97006319Y-68652714D01*
X97006319Y-68652714D02*
X96958700Y-68557476D01*
X96958700Y-68557476D02*
X96911080Y-68509857D01*
X136022213Y-45554319D02*
X136022213Y-44554319D01*
X136022213Y-44554319D02*
X135688880Y-45268604D01*
X135688880Y-45268604D02*
X135355547Y-44554319D01*
X135355547Y-44554319D02*
X135355547Y-45554319D01*
X134974594Y-44554319D02*
X134307928Y-45554319D01*
X134307928Y-44554319D02*
X134974594Y-45554319D01*
X133450785Y-44554319D02*
X133926975Y-44554319D01*
X133926975Y-44554319D02*
X133974594Y-45030509D01*
X133974594Y-45030509D02*
X133926975Y-44982890D01*
X133926975Y-44982890D02*
X133831737Y-44935271D01*
X133831737Y-44935271D02*
X133593642Y-44935271D01*
X133593642Y-44935271D02*
X133498404Y-44982890D01*
X133498404Y-44982890D02*
X133450785Y-45030509D01*
X133450785Y-45030509D02*
X133403166Y-45125747D01*
X133403166Y-45125747D02*
X133403166Y-45363842D01*
X133403166Y-45363842D02*
X133450785Y-45459080D01*
X133450785Y-45459080D02*
X133498404Y-45506700D01*
X133498404Y-45506700D02*
X133593642Y-45554319D01*
X133593642Y-45554319D02*
X133831737Y-45554319D01*
X133831737Y-45554319D02*
X133926975Y-45506700D01*
X133926975Y-45506700D02*
X133974594Y-45459080D01*
X203173404Y-64604319D02*
X203173404Y-63604319D01*
X203173404Y-63604319D02*
X202840071Y-64318604D01*
X202840071Y-64318604D02*
X202506738Y-63604319D01*
X202506738Y-63604319D02*
X202506738Y-64604319D01*
X202125785Y-63604319D02*
X201459119Y-64604319D01*
X201459119Y-63604319D02*
X202125785Y-64604319D01*
X200554357Y-64604319D02*
X201125785Y-64604319D01*
X200840071Y-64604319D02*
X200840071Y-63604319D01*
X200840071Y-63604319D02*
X200935309Y-63747176D01*
X200935309Y-63747176D02*
X201030547Y-63842414D01*
X201030547Y-63842414D02*
X201125785Y-63890033D01*
X199982928Y-64032890D02*
X200078166Y-63985271D01*
X200078166Y-63985271D02*
X200125785Y-63937652D01*
X200125785Y-63937652D02*
X200173404Y-63842414D01*
X200173404Y-63842414D02*
X200173404Y-63794795D01*
X200173404Y-63794795D02*
X200125785Y-63699557D01*
X200125785Y-63699557D02*
X200078166Y-63651938D01*
X200078166Y-63651938D02*
X199982928Y-63604319D01*
X199982928Y-63604319D02*
X199792452Y-63604319D01*
X199792452Y-63604319D02*
X199697214Y-63651938D01*
X199697214Y-63651938D02*
X199649595Y-63699557D01*
X199649595Y-63699557D02*
X199601976Y-63794795D01*
X199601976Y-63794795D02*
X199601976Y-63842414D01*
X199601976Y-63842414D02*
X199649595Y-63937652D01*
X199649595Y-63937652D02*
X199697214Y-63985271D01*
X199697214Y-63985271D02*
X199792452Y-64032890D01*
X199792452Y-64032890D02*
X199982928Y-64032890D01*
X199982928Y-64032890D02*
X200078166Y-64080509D01*
X200078166Y-64080509D02*
X200125785Y-64128128D01*
X200125785Y-64128128D02*
X200173404Y-64223366D01*
X200173404Y-64223366D02*
X200173404Y-64413842D01*
X200173404Y-64413842D02*
X200125785Y-64509080D01*
X200125785Y-64509080D02*
X200078166Y-64556700D01*
X200078166Y-64556700D02*
X199982928Y-64604319D01*
X199982928Y-64604319D02*
X199792452Y-64604319D01*
X199792452Y-64604319D02*
X199697214Y-64556700D01*
X199697214Y-64556700D02*
X199649595Y-64509080D01*
X199649595Y-64509080D02*
X199601976Y-64413842D01*
X199601976Y-64413842D02*
X199601976Y-64223366D01*
X199601976Y-64223366D02*
X199649595Y-64128128D01*
X199649595Y-64128128D02*
X199697214Y-64080509D01*
X199697214Y-64080509D02*
X199792452Y-64032890D01*
X117448404Y-83654319D02*
X117448404Y-82654319D01*
X117448404Y-82654319D02*
X117115071Y-83368604D01*
X117115071Y-83368604D02*
X116781738Y-82654319D01*
X116781738Y-82654319D02*
X116781738Y-83654319D01*
X116400785Y-82654319D02*
X115734119Y-83654319D01*
X115734119Y-82654319D02*
X116400785Y-83654319D01*
X115400785Y-82749557D02*
X115353166Y-82701938D01*
X115353166Y-82701938D02*
X115257928Y-82654319D01*
X115257928Y-82654319D02*
X115019833Y-82654319D01*
X115019833Y-82654319D02*
X114924595Y-82701938D01*
X114924595Y-82701938D02*
X114876976Y-82749557D01*
X114876976Y-82749557D02*
X114829357Y-82844795D01*
X114829357Y-82844795D02*
X114829357Y-82940033D01*
X114829357Y-82940033D02*
X114876976Y-83082890D01*
X114876976Y-83082890D02*
X115448404Y-83654319D01*
X115448404Y-83654319D02*
X114829357Y-83654319D01*
X114496023Y-82654319D02*
X113876976Y-82654319D01*
X113876976Y-82654319D02*
X114210309Y-83035271D01*
X114210309Y-83035271D02*
X114067452Y-83035271D01*
X114067452Y-83035271D02*
X113972214Y-83082890D01*
X113972214Y-83082890D02*
X113924595Y-83130509D01*
X113924595Y-83130509D02*
X113876976Y-83225747D01*
X113876976Y-83225747D02*
X113876976Y-83463842D01*
X113876976Y-83463842D02*
X113924595Y-83559080D01*
X113924595Y-83559080D02*
X113972214Y-83606700D01*
X113972214Y-83606700D02*
X114067452Y-83654319D01*
X114067452Y-83654319D02*
X114353166Y-83654319D01*
X114353166Y-83654319D02*
X114448404Y-83606700D01*
X114448404Y-83606700D02*
X114496023Y-83559080D01*
X174598404Y-102704319D02*
X174598404Y-101704319D01*
X174598404Y-101704319D02*
X174265071Y-102418604D01*
X174265071Y-102418604D02*
X173931738Y-101704319D01*
X173931738Y-101704319D02*
X173931738Y-102704319D01*
X173550785Y-101704319D02*
X172884119Y-102704319D01*
X172884119Y-101704319D02*
X173550785Y-102704319D01*
X172598404Y-101704319D02*
X171979357Y-101704319D01*
X171979357Y-101704319D02*
X172312690Y-102085271D01*
X172312690Y-102085271D02*
X172169833Y-102085271D01*
X172169833Y-102085271D02*
X172074595Y-102132890D01*
X172074595Y-102132890D02*
X172026976Y-102180509D01*
X172026976Y-102180509D02*
X171979357Y-102275747D01*
X171979357Y-102275747D02*
X171979357Y-102513842D01*
X171979357Y-102513842D02*
X172026976Y-102609080D01*
X172026976Y-102609080D02*
X172074595Y-102656700D01*
X172074595Y-102656700D02*
X172169833Y-102704319D01*
X172169833Y-102704319D02*
X172455547Y-102704319D01*
X172455547Y-102704319D02*
X172550785Y-102656700D01*
X172550785Y-102656700D02*
X172598404Y-102609080D01*
X171122214Y-102037652D02*
X171122214Y-102704319D01*
X171360309Y-101656700D02*
X171598404Y-102370985D01*
X171598404Y-102370985D02*
X170979357Y-102370985D01*
X173206319Y-66652714D02*
X172206319Y-66652714D01*
X172206319Y-66652714D02*
X172206319Y-66890809D01*
X172206319Y-66890809D02*
X172253938Y-67033666D01*
X172253938Y-67033666D02*
X172349176Y-67128904D01*
X172349176Y-67128904D02*
X172444414Y-67176523D01*
X172444414Y-67176523D02*
X172634890Y-67224142D01*
X172634890Y-67224142D02*
X172777747Y-67224142D01*
X172777747Y-67224142D02*
X172968223Y-67176523D01*
X172968223Y-67176523D02*
X173063461Y-67128904D01*
X173063461Y-67128904D02*
X173158700Y-67033666D01*
X173158700Y-67033666D02*
X173206319Y-66890809D01*
X173206319Y-66890809D02*
X173206319Y-66652714D01*
X173206319Y-68176523D02*
X173206319Y-67605095D01*
X173206319Y-67890809D02*
X172206319Y-67890809D01*
X172206319Y-67890809D02*
X172349176Y-67795571D01*
X172349176Y-67795571D02*
X172444414Y-67700333D01*
X172444414Y-67700333D02*
X172492033Y-67605095D01*
X172206319Y-68509857D02*
X172206319Y-69176523D01*
X172206319Y-69176523D02*
X173206319Y-68747952D01*
X54143819Y-66652714D02*
X53143819Y-66652714D01*
X53143819Y-66652714D02*
X53143819Y-66890809D01*
X53143819Y-66890809D02*
X53191438Y-67033666D01*
X53191438Y-67033666D02*
X53286676Y-67128904D01*
X53286676Y-67128904D02*
X53381914Y-67176523D01*
X53381914Y-67176523D02*
X53572390Y-67224142D01*
X53572390Y-67224142D02*
X53715247Y-67224142D01*
X53715247Y-67224142D02*
X53905723Y-67176523D01*
X53905723Y-67176523D02*
X54000961Y-67128904D01*
X54000961Y-67128904D02*
X54096200Y-67033666D01*
X54096200Y-67033666D02*
X54143819Y-66890809D01*
X54143819Y-66890809D02*
X54143819Y-66652714D01*
X54143819Y-68176523D02*
X54143819Y-67605095D01*
X54143819Y-67890809D02*
X53143819Y-67890809D01*
X53143819Y-67890809D02*
X53286676Y-67795571D01*
X53286676Y-67795571D02*
X53381914Y-67700333D01*
X53381914Y-67700333D02*
X53429533Y-67605095D01*
X54143819Y-69128904D02*
X54143819Y-68557476D01*
X54143819Y-68843190D02*
X53143819Y-68843190D01*
X53143819Y-68843190D02*
X53286676Y-68747952D01*
X53286676Y-68747952D02*
X53381914Y-68652714D01*
X53381914Y-68652714D02*
X53429533Y-68557476D01*
X68431319Y-104752714D02*
X67431319Y-104752714D01*
X67431319Y-104752714D02*
X67431319Y-104990809D01*
X67431319Y-104990809D02*
X67478938Y-105133666D01*
X67478938Y-105133666D02*
X67574176Y-105228904D01*
X67574176Y-105228904D02*
X67669414Y-105276523D01*
X67669414Y-105276523D02*
X67859890Y-105324142D01*
X67859890Y-105324142D02*
X68002747Y-105324142D01*
X68002747Y-105324142D02*
X68193223Y-105276523D01*
X68193223Y-105276523D02*
X68288461Y-105228904D01*
X68288461Y-105228904D02*
X68383700Y-105133666D01*
X68383700Y-105133666D02*
X68431319Y-104990809D01*
X68431319Y-104990809D02*
X68431319Y-104752714D01*
X67431319Y-105657476D02*
X67431319Y-106276523D01*
X67431319Y-106276523D02*
X67812271Y-105943190D01*
X67812271Y-105943190D02*
X67812271Y-106086047D01*
X67812271Y-106086047D02*
X67859890Y-106181285D01*
X67859890Y-106181285D02*
X67907509Y-106228904D01*
X67907509Y-106228904D02*
X68002747Y-106276523D01*
X68002747Y-106276523D02*
X68240842Y-106276523D01*
X68240842Y-106276523D02*
X68336080Y-106228904D01*
X68336080Y-106228904D02*
X68383700Y-106181285D01*
X68383700Y-106181285D02*
X68431319Y-106086047D01*
X68431319Y-106086047D02*
X68431319Y-105800333D01*
X68431319Y-105800333D02*
X68383700Y-105705095D01*
X68383700Y-105705095D02*
X68336080Y-105657476D01*
X68431319Y-107228904D02*
X68431319Y-106657476D01*
X68431319Y-106943190D02*
X67431319Y-106943190D01*
X67431319Y-106943190D02*
X67574176Y-106847952D01*
X67574176Y-106847952D02*
X67669414Y-106752714D01*
X67669414Y-106752714D02*
X67717033Y-106657476D01*
X117448404Y-102704319D02*
X117448404Y-101704319D01*
X117448404Y-101704319D02*
X117115071Y-102418604D01*
X117115071Y-102418604D02*
X116781738Y-101704319D01*
X116781738Y-101704319D02*
X116781738Y-102704319D01*
X116400785Y-101704319D02*
X115734119Y-102704319D01*
X115734119Y-101704319D02*
X116400785Y-102704319D01*
X115448404Y-101704319D02*
X114829357Y-101704319D01*
X114829357Y-101704319D02*
X115162690Y-102085271D01*
X115162690Y-102085271D02*
X115019833Y-102085271D01*
X115019833Y-102085271D02*
X114924595Y-102132890D01*
X114924595Y-102132890D02*
X114876976Y-102180509D01*
X114876976Y-102180509D02*
X114829357Y-102275747D01*
X114829357Y-102275747D02*
X114829357Y-102513842D01*
X114829357Y-102513842D02*
X114876976Y-102609080D01*
X114876976Y-102609080D02*
X114924595Y-102656700D01*
X114924595Y-102656700D02*
X115019833Y-102704319D01*
X115019833Y-102704319D02*
X115305547Y-102704319D01*
X115305547Y-102704319D02*
X115400785Y-102656700D01*
X115400785Y-102656700D02*
X115448404Y-102609080D01*
X114496023Y-101704319D02*
X113876976Y-101704319D01*
X113876976Y-101704319D02*
X114210309Y-102085271D01*
X114210309Y-102085271D02*
X114067452Y-102085271D01*
X114067452Y-102085271D02*
X113972214Y-102132890D01*
X113972214Y-102132890D02*
X113924595Y-102180509D01*
X113924595Y-102180509D02*
X113876976Y-102275747D01*
X113876976Y-102275747D02*
X113876976Y-102513842D01*
X113876976Y-102513842D02*
X113924595Y-102609080D01*
X113924595Y-102609080D02*
X113972214Y-102656700D01*
X113972214Y-102656700D02*
X114067452Y-102704319D01*
X114067452Y-102704319D02*
X114353166Y-102704319D01*
X114353166Y-102704319D02*
X114448404Y-102656700D01*
X114448404Y-102656700D02*
X114496023Y-102609080D01*
X155548404Y-83654319D02*
X155548404Y-82654319D01*
X155548404Y-82654319D02*
X155215071Y-83368604D01*
X155215071Y-83368604D02*
X154881738Y-82654319D01*
X154881738Y-82654319D02*
X154881738Y-83654319D01*
X154500785Y-82654319D02*
X153834119Y-83654319D01*
X153834119Y-82654319D02*
X154500785Y-83654319D01*
X153500785Y-82749557D02*
X153453166Y-82701938D01*
X153453166Y-82701938D02*
X153357928Y-82654319D01*
X153357928Y-82654319D02*
X153119833Y-82654319D01*
X153119833Y-82654319D02*
X153024595Y-82701938D01*
X153024595Y-82701938D02*
X152976976Y-82749557D01*
X152976976Y-82749557D02*
X152929357Y-82844795D01*
X152929357Y-82844795D02*
X152929357Y-82940033D01*
X152929357Y-82940033D02*
X152976976Y-83082890D01*
X152976976Y-83082890D02*
X153548404Y-83654319D01*
X153548404Y-83654319D02*
X152929357Y-83654319D01*
X152024595Y-82654319D02*
X152500785Y-82654319D01*
X152500785Y-82654319D02*
X152548404Y-83130509D01*
X152548404Y-83130509D02*
X152500785Y-83082890D01*
X152500785Y-83082890D02*
X152405547Y-83035271D01*
X152405547Y-83035271D02*
X152167452Y-83035271D01*
X152167452Y-83035271D02*
X152072214Y-83082890D01*
X152072214Y-83082890D02*
X152024595Y-83130509D01*
X152024595Y-83130509D02*
X151976976Y-83225747D01*
X151976976Y-83225747D02*
X151976976Y-83463842D01*
X151976976Y-83463842D02*
X152024595Y-83559080D01*
X152024595Y-83559080D02*
X152072214Y-83606700D01*
X152072214Y-83606700D02*
X152167452Y-83654319D01*
X152167452Y-83654319D02*
X152405547Y-83654319D01*
X152405547Y-83654319D02*
X152500785Y-83606700D01*
X152500785Y-83606700D02*
X152548404Y-83559080D01*
X87481319Y-85702714D02*
X86481319Y-85702714D01*
X86481319Y-85702714D02*
X86481319Y-85940809D01*
X86481319Y-85940809D02*
X86528938Y-86083666D01*
X86528938Y-86083666D02*
X86624176Y-86178904D01*
X86624176Y-86178904D02*
X86719414Y-86226523D01*
X86719414Y-86226523D02*
X86909890Y-86274142D01*
X86909890Y-86274142D02*
X87052747Y-86274142D01*
X87052747Y-86274142D02*
X87243223Y-86226523D01*
X87243223Y-86226523D02*
X87338461Y-86178904D01*
X87338461Y-86178904D02*
X87433700Y-86083666D01*
X87433700Y-86083666D02*
X87481319Y-85940809D01*
X87481319Y-85940809D02*
X87481319Y-85702714D01*
X86576557Y-86655095D02*
X86528938Y-86702714D01*
X86528938Y-86702714D02*
X86481319Y-86797952D01*
X86481319Y-86797952D02*
X86481319Y-87036047D01*
X86481319Y-87036047D02*
X86528938Y-87131285D01*
X86528938Y-87131285D02*
X86576557Y-87178904D01*
X86576557Y-87178904D02*
X86671795Y-87226523D01*
X86671795Y-87226523D02*
X86767033Y-87226523D01*
X86767033Y-87226523D02*
X86909890Y-87178904D01*
X86909890Y-87178904D02*
X87481319Y-86607476D01*
X87481319Y-86607476D02*
X87481319Y-87226523D01*
X86576557Y-87607476D02*
X86528938Y-87655095D01*
X86528938Y-87655095D02*
X86481319Y-87750333D01*
X86481319Y-87750333D02*
X86481319Y-87988428D01*
X86481319Y-87988428D02*
X86528938Y-88083666D01*
X86528938Y-88083666D02*
X86576557Y-88131285D01*
X86576557Y-88131285D02*
X86671795Y-88178904D01*
X86671795Y-88178904D02*
X86767033Y-88178904D01*
X86767033Y-88178904D02*
X86909890Y-88131285D01*
X86909890Y-88131285D02*
X87481319Y-87559857D01*
X87481319Y-87559857D02*
X87481319Y-88178904D01*
X174122213Y-45554319D02*
X174122213Y-44554319D01*
X174122213Y-44554319D02*
X173788880Y-45268604D01*
X173788880Y-45268604D02*
X173455547Y-44554319D01*
X173455547Y-44554319D02*
X173455547Y-45554319D01*
X173074594Y-44554319D02*
X172407928Y-45554319D01*
X172407928Y-44554319D02*
X173074594Y-45554319D01*
X172122213Y-44554319D02*
X171455547Y-44554319D01*
X171455547Y-44554319D02*
X171884118Y-45554319D01*
X87481319Y-104752714D02*
X86481319Y-104752714D01*
X86481319Y-104752714D02*
X86481319Y-104990809D01*
X86481319Y-104990809D02*
X86528938Y-105133666D01*
X86528938Y-105133666D02*
X86624176Y-105228904D01*
X86624176Y-105228904D02*
X86719414Y-105276523D01*
X86719414Y-105276523D02*
X86909890Y-105324142D01*
X86909890Y-105324142D02*
X87052747Y-105324142D01*
X87052747Y-105324142D02*
X87243223Y-105276523D01*
X87243223Y-105276523D02*
X87338461Y-105228904D01*
X87338461Y-105228904D02*
X87433700Y-105133666D01*
X87433700Y-105133666D02*
X87481319Y-104990809D01*
X87481319Y-104990809D02*
X87481319Y-104752714D01*
X86481319Y-105657476D02*
X86481319Y-106276523D01*
X86481319Y-106276523D02*
X86862271Y-105943190D01*
X86862271Y-105943190D02*
X86862271Y-106086047D01*
X86862271Y-106086047D02*
X86909890Y-106181285D01*
X86909890Y-106181285D02*
X86957509Y-106228904D01*
X86957509Y-106228904D02*
X87052747Y-106276523D01*
X87052747Y-106276523D02*
X87290842Y-106276523D01*
X87290842Y-106276523D02*
X87386080Y-106228904D01*
X87386080Y-106228904D02*
X87433700Y-106181285D01*
X87433700Y-106181285D02*
X87481319Y-106086047D01*
X87481319Y-106086047D02*
X87481319Y-105800333D01*
X87481319Y-105800333D02*
X87433700Y-105705095D01*
X87433700Y-105705095D02*
X87386080Y-105657476D01*
X86576557Y-106657476D02*
X86528938Y-106705095D01*
X86528938Y-106705095D02*
X86481319Y-106800333D01*
X86481319Y-106800333D02*
X86481319Y-107038428D01*
X86481319Y-107038428D02*
X86528938Y-107133666D01*
X86528938Y-107133666D02*
X86576557Y-107181285D01*
X86576557Y-107181285D02*
X86671795Y-107228904D01*
X86671795Y-107228904D02*
X86767033Y-107228904D01*
X86767033Y-107228904D02*
X86909890Y-107181285D01*
X86909890Y-107181285D02*
X87481319Y-106609857D01*
X87481319Y-106609857D02*
X87481319Y-107228904D01*
X68431319Y-85702714D02*
X67431319Y-85702714D01*
X67431319Y-85702714D02*
X67431319Y-85940809D01*
X67431319Y-85940809D02*
X67478938Y-86083666D01*
X67478938Y-86083666D02*
X67574176Y-86178904D01*
X67574176Y-86178904D02*
X67669414Y-86226523D01*
X67669414Y-86226523D02*
X67859890Y-86274142D01*
X67859890Y-86274142D02*
X68002747Y-86274142D01*
X68002747Y-86274142D02*
X68193223Y-86226523D01*
X68193223Y-86226523D02*
X68288461Y-86178904D01*
X68288461Y-86178904D02*
X68383700Y-86083666D01*
X68383700Y-86083666D02*
X68431319Y-85940809D01*
X68431319Y-85940809D02*
X68431319Y-85702714D01*
X67526557Y-86655095D02*
X67478938Y-86702714D01*
X67478938Y-86702714D02*
X67431319Y-86797952D01*
X67431319Y-86797952D02*
X67431319Y-87036047D01*
X67431319Y-87036047D02*
X67478938Y-87131285D01*
X67478938Y-87131285D02*
X67526557Y-87178904D01*
X67526557Y-87178904D02*
X67621795Y-87226523D01*
X67621795Y-87226523D02*
X67717033Y-87226523D01*
X67717033Y-87226523D02*
X67859890Y-87178904D01*
X67859890Y-87178904D02*
X68431319Y-86607476D01*
X68431319Y-86607476D02*
X68431319Y-87226523D01*
X68431319Y-88178904D02*
X68431319Y-87607476D01*
X68431319Y-87893190D02*
X67431319Y-87893190D01*
X67431319Y-87893190D02*
X67574176Y-87797952D01*
X67574176Y-87797952D02*
X67669414Y-87702714D01*
X67669414Y-87702714D02*
X67717033Y-87607476D01*
X165073404Y-64604319D02*
X165073404Y-63604319D01*
X165073404Y-63604319D02*
X164740071Y-64318604D01*
X164740071Y-64318604D02*
X164406738Y-63604319D01*
X164406738Y-63604319D02*
X164406738Y-64604319D01*
X164025785Y-63604319D02*
X163359119Y-64604319D01*
X163359119Y-63604319D02*
X164025785Y-64604319D01*
X162454357Y-64604319D02*
X163025785Y-64604319D01*
X162740071Y-64604319D02*
X162740071Y-63604319D01*
X162740071Y-63604319D02*
X162835309Y-63747176D01*
X162835309Y-63747176D02*
X162930547Y-63842414D01*
X162930547Y-63842414D02*
X163025785Y-63890033D01*
X161597214Y-63604319D02*
X161787690Y-63604319D01*
X161787690Y-63604319D02*
X161882928Y-63651938D01*
X161882928Y-63651938D02*
X161930547Y-63699557D01*
X161930547Y-63699557D02*
X162025785Y-63842414D01*
X162025785Y-63842414D02*
X162073404Y-64032890D01*
X162073404Y-64032890D02*
X162073404Y-64413842D01*
X162073404Y-64413842D02*
X162025785Y-64509080D01*
X162025785Y-64509080D02*
X161978166Y-64556700D01*
X161978166Y-64556700D02*
X161882928Y-64604319D01*
X161882928Y-64604319D02*
X161692452Y-64604319D01*
X161692452Y-64604319D02*
X161597214Y-64556700D01*
X161597214Y-64556700D02*
X161549595Y-64509080D01*
X161549595Y-64509080D02*
X161501976Y-64413842D01*
X161501976Y-64413842D02*
X161501976Y-64175747D01*
X161501976Y-64175747D02*
X161549595Y-64080509D01*
X161549595Y-64080509D02*
X161597214Y-64032890D01*
X161597214Y-64032890D02*
X161692452Y-63985271D01*
X161692452Y-63985271D02*
X161882928Y-63985271D01*
X161882928Y-63985271D02*
X161978166Y-64032890D01*
X161978166Y-64032890D02*
X162025785Y-64080509D01*
X162025785Y-64080509D02*
X162073404Y-64175747D01*
X199321680Y-111781404D02*
X198512157Y-111781404D01*
X198512157Y-111781404D02*
X198416919Y-111733785D01*
X198416919Y-111733785D02*
X198369300Y-111686166D01*
X198369300Y-111686166D02*
X198321680Y-111590928D01*
X198321680Y-111590928D02*
X198321680Y-111400452D01*
X198321680Y-111400452D02*
X198369300Y-111305214D01*
X198369300Y-111305214D02*
X198416919Y-111257595D01*
X198416919Y-111257595D02*
X198512157Y-111209976D01*
X198512157Y-111209976D02*
X199321680Y-111209976D01*
X198321680Y-110209976D02*
X198321680Y-110781404D01*
X198321680Y-110495690D02*
X199321680Y-110495690D01*
X199321680Y-110495690D02*
X199178823Y-110590928D01*
X199178823Y-110590928D02*
X199083585Y-110686166D01*
X199083585Y-110686166D02*
X199035966Y-110781404D01*
X230773347Y-107305213D02*
X230773347Y-106924261D01*
X231106680Y-107162356D02*
X230249538Y-107162356D01*
X230249538Y-107162356D02*
X230154300Y-107114737D01*
X230154300Y-107114737D02*
X230106680Y-107019499D01*
X230106680Y-107019499D02*
X230106680Y-106924261D01*
X230106680Y-106448070D02*
X230154300Y-106543308D01*
X230154300Y-106543308D02*
X230201919Y-106590927D01*
X230201919Y-106590927D02*
X230297157Y-106638546D01*
X230297157Y-106638546D02*
X230582871Y-106638546D01*
X230582871Y-106638546D02*
X230678109Y-106590927D01*
X230678109Y-106590927D02*
X230725728Y-106543308D01*
X230725728Y-106543308D02*
X230773347Y-106448070D01*
X230773347Y-106448070D02*
X230773347Y-106305213D01*
X230773347Y-106305213D02*
X230725728Y-106209975D01*
X230725728Y-106209975D02*
X230678109Y-106162356D01*
X230678109Y-106162356D02*
X230582871Y-106114737D01*
X230582871Y-106114737D02*
X230297157Y-106114737D01*
X230297157Y-106114737D02*
X230201919Y-106162356D01*
X230201919Y-106162356D02*
X230154300Y-106209975D01*
X230154300Y-106209975D02*
X230106680Y-106305213D01*
X230106680Y-106305213D02*
X230106680Y-106448070D01*
X230773347Y-105781403D02*
X230106680Y-105590927D01*
X230106680Y-105590927D02*
X230582871Y-105400451D01*
X230582871Y-105400451D02*
X230106680Y-105209975D01*
X230106680Y-105209975D02*
X230773347Y-105019499D01*
X230201919Y-104638546D02*
X230154300Y-104590927D01*
X230154300Y-104590927D02*
X230106680Y-104638546D01*
X230106680Y-104638546D02*
X230154300Y-104686165D01*
X230154300Y-104686165D02*
X230201919Y-104638546D01*
X230201919Y-104638546D02*
X230106680Y-104638546D01*
X230106680Y-103400451D02*
X231106680Y-103400451D01*
X231106680Y-103400451D02*
X231106680Y-103019499D01*
X231106680Y-103019499D02*
X231059061Y-102924261D01*
X231059061Y-102924261D02*
X231011442Y-102876642D01*
X231011442Y-102876642D02*
X230916204Y-102829023D01*
X230916204Y-102829023D02*
X230773347Y-102829023D01*
X230773347Y-102829023D02*
X230678109Y-102876642D01*
X230678109Y-102876642D02*
X230630490Y-102924261D01*
X230630490Y-102924261D02*
X230582871Y-103019499D01*
X230582871Y-103019499D02*
X230582871Y-103400451D01*
X230201919Y-101829023D02*
X230154300Y-101876642D01*
X230154300Y-101876642D02*
X230106680Y-102019499D01*
X230106680Y-102019499D02*
X230106680Y-102114737D01*
X230106680Y-102114737D02*
X230154300Y-102257594D01*
X230154300Y-102257594D02*
X230249538Y-102352832D01*
X230249538Y-102352832D02*
X230344776Y-102400451D01*
X230344776Y-102400451D02*
X230535252Y-102448070D01*
X230535252Y-102448070D02*
X230678109Y-102448070D01*
X230678109Y-102448070D02*
X230868585Y-102400451D01*
X230868585Y-102400451D02*
X230963823Y-102352832D01*
X230963823Y-102352832D02*
X231059061Y-102257594D01*
X231059061Y-102257594D02*
X231106680Y-102114737D01*
X231106680Y-102114737D02*
X231106680Y-102019499D01*
X231106680Y-102019499D02*
X231059061Y-101876642D01*
X231059061Y-101876642D02*
X231011442Y-101829023D01*
X230630490Y-101067118D02*
X230582871Y-100924261D01*
X230582871Y-100924261D02*
X230535252Y-100876642D01*
X230535252Y-100876642D02*
X230440014Y-100829023D01*
X230440014Y-100829023D02*
X230297157Y-100829023D01*
X230297157Y-100829023D02*
X230201919Y-100876642D01*
X230201919Y-100876642D02*
X230154300Y-100924261D01*
X230154300Y-100924261D02*
X230106680Y-101019499D01*
X230106680Y-101019499D02*
X230106680Y-101400451D01*
X230106680Y-101400451D02*
X231106680Y-101400451D01*
X231106680Y-101400451D02*
X231106680Y-101067118D01*
X231106680Y-101067118D02*
X231059061Y-100971880D01*
X231059061Y-100971880D02*
X231011442Y-100924261D01*
X231011442Y-100924261D02*
X230916204Y-100876642D01*
X230916204Y-100876642D02*
X230820966Y-100876642D01*
X230820966Y-100876642D02*
X230725728Y-100924261D01*
X230725728Y-100924261D02*
X230678109Y-100971880D01*
X230678109Y-100971880D02*
X230630490Y-101067118D01*
X230630490Y-101067118D02*
X230630490Y-101400451D01*
X231386319Y-96685214D02*
X231386319Y-96113786D01*
X231386319Y-96399500D02*
X230386319Y-96399500D01*
X230386319Y-96399500D02*
X230529176Y-96304262D01*
X230529176Y-96304262D02*
X230624414Y-96209024D01*
X230624414Y-96209024D02*
X230672033Y-96113786D01*
X232506680Y-105281404D02*
X231697157Y-105281404D01*
X231697157Y-105281404D02*
X231601919Y-105233785D01*
X231601919Y-105233785D02*
X231554300Y-105186166D01*
X231554300Y-105186166D02*
X231506680Y-105090928D01*
X231506680Y-105090928D02*
X231506680Y-104900452D01*
X231506680Y-104900452D02*
X231554300Y-104805214D01*
X231554300Y-104805214D02*
X231601919Y-104757595D01*
X231601919Y-104757595D02*
X231697157Y-104709976D01*
X231697157Y-104709976D02*
X232506680Y-104709976D01*
X231554300Y-104281404D02*
X231506680Y-104138547D01*
X231506680Y-104138547D02*
X231506680Y-103900452D01*
X231506680Y-103900452D02*
X231554300Y-103805214D01*
X231554300Y-103805214D02*
X231601919Y-103757595D01*
X231601919Y-103757595D02*
X231697157Y-103709976D01*
X231697157Y-103709976D02*
X231792395Y-103709976D01*
X231792395Y-103709976D02*
X231887633Y-103757595D01*
X231887633Y-103757595D02*
X231935252Y-103805214D01*
X231935252Y-103805214D02*
X231982871Y-103900452D01*
X231982871Y-103900452D02*
X232030490Y-104090928D01*
X232030490Y-104090928D02*
X232078109Y-104186166D01*
X232078109Y-104186166D02*
X232125728Y-104233785D01*
X232125728Y-104233785D02*
X232220966Y-104281404D01*
X232220966Y-104281404D02*
X232316204Y-104281404D01*
X232316204Y-104281404D02*
X232411442Y-104233785D01*
X232411442Y-104233785D02*
X232459061Y-104186166D01*
X232459061Y-104186166D02*
X232506680Y-104090928D01*
X232506680Y-104090928D02*
X232506680Y-103852833D01*
X232506680Y-103852833D02*
X232459061Y-103709976D01*
X232030490Y-102948071D02*
X231982871Y-102805214D01*
X231982871Y-102805214D02*
X231935252Y-102757595D01*
X231935252Y-102757595D02*
X231840014Y-102709976D01*
X231840014Y-102709976D02*
X231697157Y-102709976D01*
X231697157Y-102709976D02*
X231601919Y-102757595D01*
X231601919Y-102757595D02*
X231554300Y-102805214D01*
X231554300Y-102805214D02*
X231506680Y-102900452D01*
X231506680Y-102900452D02*
X231506680Y-103281404D01*
X231506680Y-103281404D02*
X232506680Y-103281404D01*
X232506680Y-103281404D02*
X232506680Y-102948071D01*
X232506680Y-102948071D02*
X232459061Y-102852833D01*
X232459061Y-102852833D02*
X232411442Y-102805214D01*
X232411442Y-102805214D02*
X232316204Y-102757595D01*
X232316204Y-102757595D02*
X232220966Y-102757595D01*
X232220966Y-102757595D02*
X232125728Y-102805214D01*
X232125728Y-102805214D02*
X232078109Y-102852833D01*
X232078109Y-102852833D02*
X232030490Y-102948071D01*
X232030490Y-102948071D02*
X232030490Y-103281404D01*
X201781319Y-85702714D02*
X200781319Y-85702714D01*
X200781319Y-85702714D02*
X200781319Y-85940809D01*
X200781319Y-85940809D02*
X200828938Y-86083666D01*
X200828938Y-86083666D02*
X200924176Y-86178904D01*
X200924176Y-86178904D02*
X201019414Y-86226523D01*
X201019414Y-86226523D02*
X201209890Y-86274142D01*
X201209890Y-86274142D02*
X201352747Y-86274142D01*
X201352747Y-86274142D02*
X201543223Y-86226523D01*
X201543223Y-86226523D02*
X201638461Y-86178904D01*
X201638461Y-86178904D02*
X201733700Y-86083666D01*
X201733700Y-86083666D02*
X201781319Y-85940809D01*
X201781319Y-85940809D02*
X201781319Y-85702714D01*
X200876557Y-86655095D02*
X200828938Y-86702714D01*
X200828938Y-86702714D02*
X200781319Y-86797952D01*
X200781319Y-86797952D02*
X200781319Y-87036047D01*
X200781319Y-87036047D02*
X200828938Y-87131285D01*
X200828938Y-87131285D02*
X200876557Y-87178904D01*
X200876557Y-87178904D02*
X200971795Y-87226523D01*
X200971795Y-87226523D02*
X201067033Y-87226523D01*
X201067033Y-87226523D02*
X201209890Y-87178904D01*
X201209890Y-87178904D02*
X201781319Y-86607476D01*
X201781319Y-86607476D02*
X201781319Y-87226523D01*
X201209890Y-87797952D02*
X201162271Y-87702714D01*
X201162271Y-87702714D02*
X201114652Y-87655095D01*
X201114652Y-87655095D02*
X201019414Y-87607476D01*
X201019414Y-87607476D02*
X200971795Y-87607476D01*
X200971795Y-87607476D02*
X200876557Y-87655095D01*
X200876557Y-87655095D02*
X200828938Y-87702714D01*
X200828938Y-87702714D02*
X200781319Y-87797952D01*
X200781319Y-87797952D02*
X200781319Y-87988428D01*
X200781319Y-87988428D02*
X200828938Y-88083666D01*
X200828938Y-88083666D02*
X200876557Y-88131285D01*
X200876557Y-88131285D02*
X200971795Y-88178904D01*
X200971795Y-88178904D02*
X201019414Y-88178904D01*
X201019414Y-88178904D02*
X201114652Y-88131285D01*
X201114652Y-88131285D02*
X201162271Y-88083666D01*
X201162271Y-88083666D02*
X201209890Y-87988428D01*
X201209890Y-87988428D02*
X201209890Y-87797952D01*
X201209890Y-87797952D02*
X201257509Y-87702714D01*
X201257509Y-87702714D02*
X201305128Y-87655095D01*
X201305128Y-87655095D02*
X201400366Y-87607476D01*
X201400366Y-87607476D02*
X201590842Y-87607476D01*
X201590842Y-87607476D02*
X201686080Y-87655095D01*
X201686080Y-87655095D02*
X201733700Y-87702714D01*
X201733700Y-87702714D02*
X201781319Y-87797952D01*
X201781319Y-87797952D02*
X201781319Y-87988428D01*
X201781319Y-87988428D02*
X201733700Y-88083666D01*
X201733700Y-88083666D02*
X201686080Y-88131285D01*
X201686080Y-88131285D02*
X201590842Y-88178904D01*
X201590842Y-88178904D02*
X201400366Y-88178904D01*
X201400366Y-88178904D02*
X201305128Y-88131285D01*
X201305128Y-88131285D02*
X201257509Y-88083666D01*
X201257509Y-88083666D02*
X201209890Y-87988428D01*
X88873404Y-64604319D02*
X88873404Y-63604319D01*
X88873404Y-63604319D02*
X88540071Y-64318604D01*
X88540071Y-64318604D02*
X88206738Y-63604319D01*
X88206738Y-63604319D02*
X88206738Y-64604319D01*
X87825785Y-63604319D02*
X87159119Y-64604319D01*
X87159119Y-63604319D02*
X87825785Y-64604319D01*
X86254357Y-64604319D02*
X86825785Y-64604319D01*
X86540071Y-64604319D02*
X86540071Y-63604319D01*
X86540071Y-63604319D02*
X86635309Y-63747176D01*
X86635309Y-63747176D02*
X86730547Y-63842414D01*
X86730547Y-63842414D02*
X86825785Y-63890033D01*
X85873404Y-63699557D02*
X85825785Y-63651938D01*
X85825785Y-63651938D02*
X85730547Y-63604319D01*
X85730547Y-63604319D02*
X85492452Y-63604319D01*
X85492452Y-63604319D02*
X85397214Y-63651938D01*
X85397214Y-63651938D02*
X85349595Y-63699557D01*
X85349595Y-63699557D02*
X85301976Y-63794795D01*
X85301976Y-63794795D02*
X85301976Y-63890033D01*
X85301976Y-63890033D02*
X85349595Y-64032890D01*
X85349595Y-64032890D02*
X85921023Y-64604319D01*
X85921023Y-64604319D02*
X85301976Y-64604319D01*
X49381319Y-48078905D02*
X48381319Y-48078905D01*
X48381319Y-48078905D02*
X48381319Y-48317000D01*
X48381319Y-48317000D02*
X48428938Y-48459857D01*
X48428938Y-48459857D02*
X48524176Y-48555095D01*
X48524176Y-48555095D02*
X48619414Y-48602714D01*
X48619414Y-48602714D02*
X48809890Y-48650333D01*
X48809890Y-48650333D02*
X48952747Y-48650333D01*
X48952747Y-48650333D02*
X49143223Y-48602714D01*
X49143223Y-48602714D02*
X49238461Y-48555095D01*
X49238461Y-48555095D02*
X49333700Y-48459857D01*
X49333700Y-48459857D02*
X49381319Y-48317000D01*
X49381319Y-48317000D02*
X49381319Y-48078905D01*
X49381319Y-49602714D02*
X49381319Y-49031286D01*
X49381319Y-49317000D02*
X48381319Y-49317000D01*
X48381319Y-49317000D02*
X48524176Y-49221762D01*
X48524176Y-49221762D02*
X48619414Y-49126524D01*
X48619414Y-49126524D02*
X48667033Y-49031286D01*
X163681319Y-85702714D02*
X162681319Y-85702714D01*
X162681319Y-85702714D02*
X162681319Y-85940809D01*
X162681319Y-85940809D02*
X162728938Y-86083666D01*
X162728938Y-86083666D02*
X162824176Y-86178904D01*
X162824176Y-86178904D02*
X162919414Y-86226523D01*
X162919414Y-86226523D02*
X163109890Y-86274142D01*
X163109890Y-86274142D02*
X163252747Y-86274142D01*
X163252747Y-86274142D02*
X163443223Y-86226523D01*
X163443223Y-86226523D02*
X163538461Y-86178904D01*
X163538461Y-86178904D02*
X163633700Y-86083666D01*
X163633700Y-86083666D02*
X163681319Y-85940809D01*
X163681319Y-85940809D02*
X163681319Y-85702714D01*
X162776557Y-86655095D02*
X162728938Y-86702714D01*
X162728938Y-86702714D02*
X162681319Y-86797952D01*
X162681319Y-86797952D02*
X162681319Y-87036047D01*
X162681319Y-87036047D02*
X162728938Y-87131285D01*
X162728938Y-87131285D02*
X162776557Y-87178904D01*
X162776557Y-87178904D02*
X162871795Y-87226523D01*
X162871795Y-87226523D02*
X162967033Y-87226523D01*
X162967033Y-87226523D02*
X163109890Y-87178904D01*
X163109890Y-87178904D02*
X163681319Y-86607476D01*
X163681319Y-86607476D02*
X163681319Y-87226523D01*
X162681319Y-88083666D02*
X162681319Y-87893190D01*
X162681319Y-87893190D02*
X162728938Y-87797952D01*
X162728938Y-87797952D02*
X162776557Y-87750333D01*
X162776557Y-87750333D02*
X162919414Y-87655095D01*
X162919414Y-87655095D02*
X163109890Y-87607476D01*
X163109890Y-87607476D02*
X163490842Y-87607476D01*
X163490842Y-87607476D02*
X163586080Y-87655095D01*
X163586080Y-87655095D02*
X163633700Y-87702714D01*
X163633700Y-87702714D02*
X163681319Y-87797952D01*
X163681319Y-87797952D02*
X163681319Y-87988428D01*
X163681319Y-87988428D02*
X163633700Y-88083666D01*
X163633700Y-88083666D02*
X163586080Y-88131285D01*
X163586080Y-88131285D02*
X163490842Y-88178904D01*
X163490842Y-88178904D02*
X163252747Y-88178904D01*
X163252747Y-88178904D02*
X163157509Y-88131285D01*
X163157509Y-88131285D02*
X163109890Y-88083666D01*
X163109890Y-88083666D02*
X163062271Y-87988428D01*
X163062271Y-87988428D02*
X163062271Y-87797952D01*
X163062271Y-87797952D02*
X163109890Y-87702714D01*
X163109890Y-87702714D02*
X163157509Y-87655095D01*
X163157509Y-87655095D02*
X163252747Y-87607476D01*
X211306319Y-66652714D02*
X210306319Y-66652714D01*
X210306319Y-66652714D02*
X210306319Y-66890809D01*
X210306319Y-66890809D02*
X210353938Y-67033666D01*
X210353938Y-67033666D02*
X210449176Y-67128904D01*
X210449176Y-67128904D02*
X210544414Y-67176523D01*
X210544414Y-67176523D02*
X210734890Y-67224142D01*
X210734890Y-67224142D02*
X210877747Y-67224142D01*
X210877747Y-67224142D02*
X211068223Y-67176523D01*
X211068223Y-67176523D02*
X211163461Y-67128904D01*
X211163461Y-67128904D02*
X211258700Y-67033666D01*
X211258700Y-67033666D02*
X211306319Y-66890809D01*
X211306319Y-66890809D02*
X211306319Y-66652714D01*
X211306319Y-68176523D02*
X211306319Y-67605095D01*
X211306319Y-67890809D02*
X210306319Y-67890809D01*
X210306319Y-67890809D02*
X210449176Y-67795571D01*
X210449176Y-67795571D02*
X210544414Y-67700333D01*
X210544414Y-67700333D02*
X210592033Y-67605095D01*
X211306319Y-68652714D02*
X211306319Y-68843190D01*
X211306319Y-68843190D02*
X211258700Y-68938428D01*
X211258700Y-68938428D02*
X211211080Y-68986047D01*
X211211080Y-68986047D02*
X211068223Y-69081285D01*
X211068223Y-69081285D02*
X210877747Y-69128904D01*
X210877747Y-69128904D02*
X210496795Y-69128904D01*
X210496795Y-69128904D02*
X210401557Y-69081285D01*
X210401557Y-69081285D02*
X210353938Y-69033666D01*
X210353938Y-69033666D02*
X210306319Y-68938428D01*
X210306319Y-68938428D02*
X210306319Y-68747952D01*
X210306319Y-68747952D02*
X210353938Y-68652714D01*
X210353938Y-68652714D02*
X210401557Y-68605095D01*
X210401557Y-68605095D02*
X210496795Y-68557476D01*
X210496795Y-68557476D02*
X210734890Y-68557476D01*
X210734890Y-68557476D02*
X210830128Y-68605095D01*
X210830128Y-68605095D02*
X210877747Y-68652714D01*
X210877747Y-68652714D02*
X210925366Y-68747952D01*
X210925366Y-68747952D02*
X210925366Y-68938428D01*
X210925366Y-68938428D02*
X210877747Y-69033666D01*
X210877747Y-69033666D02*
X210830128Y-69081285D01*
X210830128Y-69081285D02*
X210734890Y-69128904D01*
X79348404Y-102704319D02*
X79348404Y-101704319D01*
X79348404Y-101704319D02*
X79015071Y-102418604D01*
X79015071Y-102418604D02*
X78681738Y-101704319D01*
X78681738Y-101704319D02*
X78681738Y-102704319D01*
X78300785Y-101704319D02*
X77634119Y-102704319D01*
X77634119Y-101704319D02*
X78300785Y-102704319D01*
X77348404Y-101704319D02*
X76729357Y-101704319D01*
X76729357Y-101704319D02*
X77062690Y-102085271D01*
X77062690Y-102085271D02*
X76919833Y-102085271D01*
X76919833Y-102085271D02*
X76824595Y-102132890D01*
X76824595Y-102132890D02*
X76776976Y-102180509D01*
X76776976Y-102180509D02*
X76729357Y-102275747D01*
X76729357Y-102275747D02*
X76729357Y-102513842D01*
X76729357Y-102513842D02*
X76776976Y-102609080D01*
X76776976Y-102609080D02*
X76824595Y-102656700D01*
X76824595Y-102656700D02*
X76919833Y-102704319D01*
X76919833Y-102704319D02*
X77205547Y-102704319D01*
X77205547Y-102704319D02*
X77300785Y-102656700D01*
X77300785Y-102656700D02*
X77348404Y-102609080D01*
X75776976Y-102704319D02*
X76348404Y-102704319D01*
X76062690Y-102704319D02*
X76062690Y-101704319D01*
X76062690Y-101704319D02*
X76157928Y-101847176D01*
X76157928Y-101847176D02*
X76253166Y-101942414D01*
X76253166Y-101942414D02*
X76348404Y-101990033D01*
X231748404Y-45554319D02*
X231748404Y-44554319D01*
X231748404Y-44554319D02*
X231415071Y-45268604D01*
X231415071Y-45268604D02*
X231081738Y-44554319D01*
X231081738Y-44554319D02*
X231081738Y-45554319D01*
X230700785Y-44554319D02*
X230034119Y-45554319D01*
X230034119Y-44554319D02*
X230700785Y-45554319D01*
X229129357Y-45554319D02*
X229700785Y-45554319D01*
X229415071Y-45554319D02*
X229415071Y-44554319D01*
X229415071Y-44554319D02*
X229510309Y-44697176D01*
X229510309Y-44697176D02*
X229605547Y-44792414D01*
X229605547Y-44792414D02*
X229700785Y-44840033D01*
X228510309Y-44554319D02*
X228415071Y-44554319D01*
X228415071Y-44554319D02*
X228319833Y-44601938D01*
X228319833Y-44601938D02*
X228272214Y-44649557D01*
X228272214Y-44649557D02*
X228224595Y-44744795D01*
X228224595Y-44744795D02*
X228176976Y-44935271D01*
X228176976Y-44935271D02*
X228176976Y-45173366D01*
X228176976Y-45173366D02*
X228224595Y-45363842D01*
X228224595Y-45363842D02*
X228272214Y-45459080D01*
X228272214Y-45459080D02*
X228319833Y-45506700D01*
X228319833Y-45506700D02*
X228415071Y-45554319D01*
X228415071Y-45554319D02*
X228510309Y-45554319D01*
X228510309Y-45554319D02*
X228605547Y-45506700D01*
X228605547Y-45506700D02*
X228653166Y-45459080D01*
X228653166Y-45459080D02*
X228700785Y-45363842D01*
X228700785Y-45363842D02*
X228748404Y-45173366D01*
X228748404Y-45173366D02*
X228748404Y-44935271D01*
X228748404Y-44935271D02*
X228700785Y-44744795D01*
X228700785Y-44744795D02*
X228653166Y-44649557D01*
X228653166Y-44649557D02*
X228605547Y-44601938D01*
X228605547Y-44601938D02*
X228510309Y-44554319D01*
X125581319Y-85702714D02*
X124581319Y-85702714D01*
X124581319Y-85702714D02*
X124581319Y-85940809D01*
X124581319Y-85940809D02*
X124628938Y-86083666D01*
X124628938Y-86083666D02*
X124724176Y-86178904D01*
X124724176Y-86178904D02*
X124819414Y-86226523D01*
X124819414Y-86226523D02*
X125009890Y-86274142D01*
X125009890Y-86274142D02*
X125152747Y-86274142D01*
X125152747Y-86274142D02*
X125343223Y-86226523D01*
X125343223Y-86226523D02*
X125438461Y-86178904D01*
X125438461Y-86178904D02*
X125533700Y-86083666D01*
X125533700Y-86083666D02*
X125581319Y-85940809D01*
X125581319Y-85940809D02*
X125581319Y-85702714D01*
X124676557Y-86655095D02*
X124628938Y-86702714D01*
X124628938Y-86702714D02*
X124581319Y-86797952D01*
X124581319Y-86797952D02*
X124581319Y-87036047D01*
X124581319Y-87036047D02*
X124628938Y-87131285D01*
X124628938Y-87131285D02*
X124676557Y-87178904D01*
X124676557Y-87178904D02*
X124771795Y-87226523D01*
X124771795Y-87226523D02*
X124867033Y-87226523D01*
X124867033Y-87226523D02*
X125009890Y-87178904D01*
X125009890Y-87178904D02*
X125581319Y-86607476D01*
X125581319Y-86607476D02*
X125581319Y-87226523D01*
X124914652Y-88083666D02*
X125581319Y-88083666D01*
X124533700Y-87845571D02*
X125247985Y-87607476D01*
X125247985Y-87607476D02*
X125247985Y-88226523D01*
X176718642Y-106204319D02*
X176718642Y-105204319D01*
X176718642Y-105204319D02*
X176385309Y-105918604D01*
X176385309Y-105918604D02*
X176051976Y-105204319D01*
X176051976Y-105204319D02*
X176051976Y-106204319D01*
X175671023Y-105204319D02*
X175004357Y-106204319D01*
X175004357Y-105204319D02*
X175671023Y-106204319D01*
X174718642Y-105204319D02*
X174099595Y-105204319D01*
X174099595Y-105204319D02*
X174432928Y-105585271D01*
X174432928Y-105585271D02*
X174290071Y-105585271D01*
X174290071Y-105585271D02*
X174194833Y-105632890D01*
X174194833Y-105632890D02*
X174147214Y-105680509D01*
X174147214Y-105680509D02*
X174099595Y-105775747D01*
X174099595Y-105775747D02*
X174099595Y-106013842D01*
X174099595Y-106013842D02*
X174147214Y-106109080D01*
X174147214Y-106109080D02*
X174194833Y-106156700D01*
X174194833Y-106156700D02*
X174290071Y-106204319D01*
X174290071Y-106204319D02*
X174575785Y-106204319D01*
X174575785Y-106204319D02*
X174671023Y-106156700D01*
X174671023Y-106156700D02*
X174718642Y-106109080D01*
X173242452Y-105537652D02*
X173242452Y-106204319D01*
X173480547Y-105156700D02*
X173718642Y-105870985D01*
X173718642Y-105870985D02*
X173099595Y-105870985D01*
X172718642Y-105823366D02*
X171956738Y-105823366D01*
X171528166Y-105299557D02*
X171480547Y-105251938D01*
X171480547Y-105251938D02*
X171385309Y-105204319D01*
X171385309Y-105204319D02*
X171147214Y-105204319D01*
X171147214Y-105204319D02*
X171051976Y-105251938D01*
X171051976Y-105251938D02*
X171004357Y-105299557D01*
X171004357Y-105299557D02*
X170956738Y-105394795D01*
X170956738Y-105394795D02*
X170956738Y-105490033D01*
X170956738Y-105490033D02*
X171004357Y-105632890D01*
X171004357Y-105632890D02*
X171575785Y-106204319D01*
X171575785Y-106204319D02*
X170956738Y-106204319D01*
X182731319Y-48078905D02*
X181731319Y-48078905D01*
X181731319Y-48078905D02*
X181731319Y-48317000D01*
X181731319Y-48317000D02*
X181778938Y-48459857D01*
X181778938Y-48459857D02*
X181874176Y-48555095D01*
X181874176Y-48555095D02*
X181969414Y-48602714D01*
X181969414Y-48602714D02*
X182159890Y-48650333D01*
X182159890Y-48650333D02*
X182302747Y-48650333D01*
X182302747Y-48650333D02*
X182493223Y-48602714D01*
X182493223Y-48602714D02*
X182588461Y-48555095D01*
X182588461Y-48555095D02*
X182683700Y-48459857D01*
X182683700Y-48459857D02*
X182731319Y-48317000D01*
X182731319Y-48317000D02*
X182731319Y-48078905D01*
X182159890Y-49221762D02*
X182112271Y-49126524D01*
X182112271Y-49126524D02*
X182064652Y-49078905D01*
X182064652Y-49078905D02*
X181969414Y-49031286D01*
X181969414Y-49031286D02*
X181921795Y-49031286D01*
X181921795Y-49031286D02*
X181826557Y-49078905D01*
X181826557Y-49078905D02*
X181778938Y-49126524D01*
X181778938Y-49126524D02*
X181731319Y-49221762D01*
X181731319Y-49221762D02*
X181731319Y-49412238D01*
X181731319Y-49412238D02*
X181778938Y-49507476D01*
X181778938Y-49507476D02*
X181826557Y-49555095D01*
X181826557Y-49555095D02*
X181921795Y-49602714D01*
X181921795Y-49602714D02*
X181969414Y-49602714D01*
X181969414Y-49602714D02*
X182064652Y-49555095D01*
X182064652Y-49555095D02*
X182112271Y-49507476D01*
X182112271Y-49507476D02*
X182159890Y-49412238D01*
X182159890Y-49412238D02*
X182159890Y-49221762D01*
X182159890Y-49221762D02*
X182207509Y-49126524D01*
X182207509Y-49126524D02*
X182255128Y-49078905D01*
X182255128Y-49078905D02*
X182350366Y-49031286D01*
X182350366Y-49031286D02*
X182540842Y-49031286D01*
X182540842Y-49031286D02*
X182636080Y-49078905D01*
X182636080Y-49078905D02*
X182683700Y-49126524D01*
X182683700Y-49126524D02*
X182731319Y-49221762D01*
X182731319Y-49221762D02*
X182731319Y-49412238D01*
X182731319Y-49412238D02*
X182683700Y-49507476D01*
X182683700Y-49507476D02*
X182636080Y-49555095D01*
X182636080Y-49555095D02*
X182540842Y-49602714D01*
X182540842Y-49602714D02*
X182350366Y-49602714D01*
X182350366Y-49602714D02*
X182255128Y-49555095D01*
X182255128Y-49555095D02*
X182207509Y-49507476D01*
X182207509Y-49507476D02*
X182159890Y-49412238D01*
X201781319Y-48078905D02*
X200781319Y-48078905D01*
X200781319Y-48078905D02*
X200781319Y-48317000D01*
X200781319Y-48317000D02*
X200828938Y-48459857D01*
X200828938Y-48459857D02*
X200924176Y-48555095D01*
X200924176Y-48555095D02*
X201019414Y-48602714D01*
X201019414Y-48602714D02*
X201209890Y-48650333D01*
X201209890Y-48650333D02*
X201352747Y-48650333D01*
X201352747Y-48650333D02*
X201543223Y-48602714D01*
X201543223Y-48602714D02*
X201638461Y-48555095D01*
X201638461Y-48555095D02*
X201733700Y-48459857D01*
X201733700Y-48459857D02*
X201781319Y-48317000D01*
X201781319Y-48317000D02*
X201781319Y-48078905D01*
X201781319Y-49126524D02*
X201781319Y-49317000D01*
X201781319Y-49317000D02*
X201733700Y-49412238D01*
X201733700Y-49412238D02*
X201686080Y-49459857D01*
X201686080Y-49459857D02*
X201543223Y-49555095D01*
X201543223Y-49555095D02*
X201352747Y-49602714D01*
X201352747Y-49602714D02*
X200971795Y-49602714D01*
X200971795Y-49602714D02*
X200876557Y-49555095D01*
X200876557Y-49555095D02*
X200828938Y-49507476D01*
X200828938Y-49507476D02*
X200781319Y-49412238D01*
X200781319Y-49412238D02*
X200781319Y-49221762D01*
X200781319Y-49221762D02*
X200828938Y-49126524D01*
X200828938Y-49126524D02*
X200876557Y-49078905D01*
X200876557Y-49078905D02*
X200971795Y-49031286D01*
X200971795Y-49031286D02*
X201209890Y-49031286D01*
X201209890Y-49031286D02*
X201305128Y-49078905D01*
X201305128Y-49078905D02*
X201352747Y-49126524D01*
X201352747Y-49126524D02*
X201400366Y-49221762D01*
X201400366Y-49221762D02*
X201400366Y-49412238D01*
X201400366Y-49412238D02*
X201352747Y-49507476D01*
X201352747Y-49507476D02*
X201305128Y-49555095D01*
X201305128Y-49555095D02*
X201209890Y-49602714D01*
X155072213Y-45554319D02*
X155072213Y-44554319D01*
X155072213Y-44554319D02*
X154738880Y-45268604D01*
X154738880Y-45268604D02*
X154405547Y-44554319D01*
X154405547Y-44554319D02*
X154405547Y-45554319D01*
X154024594Y-44554319D02*
X153357928Y-45554319D01*
X153357928Y-44554319D02*
X154024594Y-45554319D01*
X152548404Y-44554319D02*
X152738880Y-44554319D01*
X152738880Y-44554319D02*
X152834118Y-44601938D01*
X152834118Y-44601938D02*
X152881737Y-44649557D01*
X152881737Y-44649557D02*
X152976975Y-44792414D01*
X152976975Y-44792414D02*
X153024594Y-44982890D01*
X153024594Y-44982890D02*
X153024594Y-45363842D01*
X153024594Y-45363842D02*
X152976975Y-45459080D01*
X152976975Y-45459080D02*
X152929356Y-45506700D01*
X152929356Y-45506700D02*
X152834118Y-45554319D01*
X152834118Y-45554319D02*
X152643642Y-45554319D01*
X152643642Y-45554319D02*
X152548404Y-45506700D01*
X152548404Y-45506700D02*
X152500785Y-45459080D01*
X152500785Y-45459080D02*
X152453166Y-45363842D01*
X152453166Y-45363842D02*
X152453166Y-45125747D01*
X152453166Y-45125747D02*
X152500785Y-45030509D01*
X152500785Y-45030509D02*
X152548404Y-44982890D01*
X152548404Y-44982890D02*
X152643642Y-44935271D01*
X152643642Y-44935271D02*
X152834118Y-44935271D01*
X152834118Y-44935271D02*
X152929356Y-44982890D01*
X152929356Y-44982890D02*
X152976975Y-45030509D01*
X152976975Y-45030509D02*
X153024594Y-45125747D01*
X60298404Y-83654319D02*
X60298404Y-82654319D01*
X60298404Y-82654319D02*
X59965071Y-83368604D01*
X59965071Y-83368604D02*
X59631738Y-82654319D01*
X59631738Y-82654319D02*
X59631738Y-83654319D01*
X59250785Y-82654319D02*
X58584119Y-83654319D01*
X58584119Y-82654319D02*
X59250785Y-83654319D01*
X58250785Y-82749557D02*
X58203166Y-82701938D01*
X58203166Y-82701938D02*
X58107928Y-82654319D01*
X58107928Y-82654319D02*
X57869833Y-82654319D01*
X57869833Y-82654319D02*
X57774595Y-82701938D01*
X57774595Y-82701938D02*
X57726976Y-82749557D01*
X57726976Y-82749557D02*
X57679357Y-82844795D01*
X57679357Y-82844795D02*
X57679357Y-82940033D01*
X57679357Y-82940033D02*
X57726976Y-83082890D01*
X57726976Y-83082890D02*
X58298404Y-83654319D01*
X58298404Y-83654319D02*
X57679357Y-83654319D01*
X57060309Y-82654319D02*
X56965071Y-82654319D01*
X56965071Y-82654319D02*
X56869833Y-82701938D01*
X56869833Y-82701938D02*
X56822214Y-82749557D01*
X56822214Y-82749557D02*
X56774595Y-82844795D01*
X56774595Y-82844795D02*
X56726976Y-83035271D01*
X56726976Y-83035271D02*
X56726976Y-83273366D01*
X56726976Y-83273366D02*
X56774595Y-83463842D01*
X56774595Y-83463842D02*
X56822214Y-83559080D01*
X56822214Y-83559080D02*
X56869833Y-83606700D01*
X56869833Y-83606700D02*
X56965071Y-83654319D01*
X56965071Y-83654319D02*
X57060309Y-83654319D01*
X57060309Y-83654319D02*
X57155547Y-83606700D01*
X57155547Y-83606700D02*
X57203166Y-83559080D01*
X57203166Y-83559080D02*
X57250785Y-83463842D01*
X57250785Y-83463842D02*
X57298404Y-83273366D01*
X57298404Y-83273366D02*
X57298404Y-83035271D01*
X57298404Y-83035271D02*
X57250785Y-82844795D01*
X57250785Y-82844795D02*
X57203166Y-82749557D01*
X57203166Y-82749557D02*
X57155547Y-82701938D01*
X57155547Y-82701938D02*
X57060309Y-82654319D01*
X125581319Y-48078905D02*
X124581319Y-48078905D01*
X124581319Y-48078905D02*
X124581319Y-48317000D01*
X124581319Y-48317000D02*
X124628938Y-48459857D01*
X124628938Y-48459857D02*
X124724176Y-48555095D01*
X124724176Y-48555095D02*
X124819414Y-48602714D01*
X124819414Y-48602714D02*
X125009890Y-48650333D01*
X125009890Y-48650333D02*
X125152747Y-48650333D01*
X125152747Y-48650333D02*
X125343223Y-48602714D01*
X125343223Y-48602714D02*
X125438461Y-48555095D01*
X125438461Y-48555095D02*
X125533700Y-48459857D01*
X125533700Y-48459857D02*
X125581319Y-48317000D01*
X125581319Y-48317000D02*
X125581319Y-48078905D01*
X124581319Y-49555095D02*
X124581319Y-49078905D01*
X124581319Y-49078905D02*
X125057509Y-49031286D01*
X125057509Y-49031286D02*
X125009890Y-49078905D01*
X125009890Y-49078905D02*
X124962271Y-49174143D01*
X124962271Y-49174143D02*
X124962271Y-49412238D01*
X124962271Y-49412238D02*
X125009890Y-49507476D01*
X125009890Y-49507476D02*
X125057509Y-49555095D01*
X125057509Y-49555095D02*
X125152747Y-49602714D01*
X125152747Y-49602714D02*
X125390842Y-49602714D01*
X125390842Y-49602714D02*
X125486080Y-49555095D01*
X125486080Y-49555095D02*
X125533700Y-49507476D01*
X125533700Y-49507476D02*
X125581319Y-49412238D01*
X125581319Y-49412238D02*
X125581319Y-49174143D01*
X125581319Y-49174143D02*
X125533700Y-49078905D01*
X125533700Y-49078905D02*
X125486080Y-49031286D01*
X60298404Y-102704319D02*
X60298404Y-101704319D01*
X60298404Y-101704319D02*
X59965071Y-102418604D01*
X59965071Y-102418604D02*
X59631738Y-101704319D01*
X59631738Y-101704319D02*
X59631738Y-102704319D01*
X59250785Y-101704319D02*
X58584119Y-102704319D01*
X58584119Y-101704319D02*
X59250785Y-102704319D01*
X58298404Y-101704319D02*
X57679357Y-101704319D01*
X57679357Y-101704319D02*
X58012690Y-102085271D01*
X58012690Y-102085271D02*
X57869833Y-102085271D01*
X57869833Y-102085271D02*
X57774595Y-102132890D01*
X57774595Y-102132890D02*
X57726976Y-102180509D01*
X57726976Y-102180509D02*
X57679357Y-102275747D01*
X57679357Y-102275747D02*
X57679357Y-102513842D01*
X57679357Y-102513842D02*
X57726976Y-102609080D01*
X57726976Y-102609080D02*
X57774595Y-102656700D01*
X57774595Y-102656700D02*
X57869833Y-102704319D01*
X57869833Y-102704319D02*
X58155547Y-102704319D01*
X58155547Y-102704319D02*
X58250785Y-102656700D01*
X58250785Y-102656700D02*
X58298404Y-102609080D01*
X57060309Y-101704319D02*
X56965071Y-101704319D01*
X56965071Y-101704319D02*
X56869833Y-101751938D01*
X56869833Y-101751938D02*
X56822214Y-101799557D01*
X56822214Y-101799557D02*
X56774595Y-101894795D01*
X56774595Y-101894795D02*
X56726976Y-102085271D01*
X56726976Y-102085271D02*
X56726976Y-102323366D01*
X56726976Y-102323366D02*
X56774595Y-102513842D01*
X56774595Y-102513842D02*
X56822214Y-102609080D01*
X56822214Y-102609080D02*
X56869833Y-102656700D01*
X56869833Y-102656700D02*
X56965071Y-102704319D01*
X56965071Y-102704319D02*
X57060309Y-102704319D01*
X57060309Y-102704319D02*
X57155547Y-102656700D01*
X57155547Y-102656700D02*
X57203166Y-102609080D01*
X57203166Y-102609080D02*
X57250785Y-102513842D01*
X57250785Y-102513842D02*
X57298404Y-102323366D01*
X57298404Y-102323366D02*
X57298404Y-102085271D01*
X57298404Y-102085271D02*
X57250785Y-101894795D01*
X57250785Y-101894795D02*
X57203166Y-101799557D01*
X57203166Y-101799557D02*
X57155547Y-101751938D01*
X57155547Y-101751938D02*
X57060309Y-101704319D01*
X220831319Y-47602714D02*
X219831319Y-47602714D01*
X219831319Y-47602714D02*
X219831319Y-47840809D01*
X219831319Y-47840809D02*
X219878938Y-47983666D01*
X219878938Y-47983666D02*
X219974176Y-48078904D01*
X219974176Y-48078904D02*
X220069414Y-48126523D01*
X220069414Y-48126523D02*
X220259890Y-48174142D01*
X220259890Y-48174142D02*
X220402747Y-48174142D01*
X220402747Y-48174142D02*
X220593223Y-48126523D01*
X220593223Y-48126523D02*
X220688461Y-48078904D01*
X220688461Y-48078904D02*
X220783700Y-47983666D01*
X220783700Y-47983666D02*
X220831319Y-47840809D01*
X220831319Y-47840809D02*
X220831319Y-47602714D01*
X220831319Y-49126523D02*
X220831319Y-48555095D01*
X220831319Y-48840809D02*
X219831319Y-48840809D01*
X219831319Y-48840809D02*
X219974176Y-48745571D01*
X219974176Y-48745571D02*
X220069414Y-48650333D01*
X220069414Y-48650333D02*
X220117033Y-48555095D01*
X219831319Y-49745571D02*
X219831319Y-49840809D01*
X219831319Y-49840809D02*
X219878938Y-49936047D01*
X219878938Y-49936047D02*
X219926557Y-49983666D01*
X219926557Y-49983666D02*
X220021795Y-50031285D01*
X220021795Y-50031285D02*
X220212271Y-50078904D01*
X220212271Y-50078904D02*
X220450366Y-50078904D01*
X220450366Y-50078904D02*
X220640842Y-50031285D01*
X220640842Y-50031285D02*
X220736080Y-49983666D01*
X220736080Y-49983666D02*
X220783700Y-49936047D01*
X220783700Y-49936047D02*
X220831319Y-49840809D01*
X220831319Y-49840809D02*
X220831319Y-49745571D01*
X220831319Y-49745571D02*
X220783700Y-49650333D01*
X220783700Y-49650333D02*
X220736080Y-49602714D01*
X220736080Y-49602714D02*
X220640842Y-49555095D01*
X220640842Y-49555095D02*
X220450366Y-49507476D01*
X220450366Y-49507476D02*
X220212271Y-49507476D01*
X220212271Y-49507476D02*
X220021795Y-49555095D01*
X220021795Y-49555095D02*
X219926557Y-49602714D01*
X219926557Y-49602714D02*
X219878938Y-49650333D01*
X219878938Y-49650333D02*
X219831319Y-49745571D01*
X222223404Y-64604319D02*
X222223404Y-63604319D01*
X222223404Y-63604319D02*
X221890071Y-64318604D01*
X221890071Y-64318604D02*
X221556738Y-63604319D01*
X221556738Y-63604319D02*
X221556738Y-64604319D01*
X221175785Y-63604319D02*
X220509119Y-64604319D01*
X220509119Y-63604319D02*
X221175785Y-64604319D01*
X219604357Y-64604319D02*
X220175785Y-64604319D01*
X219890071Y-64604319D02*
X219890071Y-63604319D01*
X219890071Y-63604319D02*
X219985309Y-63747176D01*
X219985309Y-63747176D02*
X220080547Y-63842414D01*
X220080547Y-63842414D02*
X220175785Y-63890033D01*
X219128166Y-64604319D02*
X218937690Y-64604319D01*
X218937690Y-64604319D02*
X218842452Y-64556700D01*
X218842452Y-64556700D02*
X218794833Y-64509080D01*
X218794833Y-64509080D02*
X218699595Y-64366223D01*
X218699595Y-64366223D02*
X218651976Y-64175747D01*
X218651976Y-64175747D02*
X218651976Y-63794795D01*
X218651976Y-63794795D02*
X218699595Y-63699557D01*
X218699595Y-63699557D02*
X218747214Y-63651938D01*
X218747214Y-63651938D02*
X218842452Y-63604319D01*
X218842452Y-63604319D02*
X219032928Y-63604319D01*
X219032928Y-63604319D02*
X219128166Y-63651938D01*
X219128166Y-63651938D02*
X219175785Y-63699557D01*
X219175785Y-63699557D02*
X219223404Y-63794795D01*
X219223404Y-63794795D02*
X219223404Y-64032890D01*
X219223404Y-64032890D02*
X219175785Y-64128128D01*
X219175785Y-64128128D02*
X219128166Y-64175747D01*
X219128166Y-64175747D02*
X219032928Y-64223366D01*
X219032928Y-64223366D02*
X218842452Y-64223366D01*
X218842452Y-64223366D02*
X218747214Y-64175747D01*
X218747214Y-64175747D02*
X218699595Y-64128128D01*
X218699595Y-64128128D02*
X218651976Y-64032890D01*
X98398404Y-83654319D02*
X98398404Y-82654319D01*
X98398404Y-82654319D02*
X98065071Y-83368604D01*
X98065071Y-83368604D02*
X97731738Y-82654319D01*
X97731738Y-82654319D02*
X97731738Y-83654319D01*
X97350785Y-82654319D02*
X96684119Y-83654319D01*
X96684119Y-82654319D02*
X97350785Y-83654319D01*
X96350785Y-82749557D02*
X96303166Y-82701938D01*
X96303166Y-82701938D02*
X96207928Y-82654319D01*
X96207928Y-82654319D02*
X95969833Y-82654319D01*
X95969833Y-82654319D02*
X95874595Y-82701938D01*
X95874595Y-82701938D02*
X95826976Y-82749557D01*
X95826976Y-82749557D02*
X95779357Y-82844795D01*
X95779357Y-82844795D02*
X95779357Y-82940033D01*
X95779357Y-82940033D02*
X95826976Y-83082890D01*
X95826976Y-83082890D02*
X96398404Y-83654319D01*
X96398404Y-83654319D02*
X95779357Y-83654319D01*
X95398404Y-82749557D02*
X95350785Y-82701938D01*
X95350785Y-82701938D02*
X95255547Y-82654319D01*
X95255547Y-82654319D02*
X95017452Y-82654319D01*
X95017452Y-82654319D02*
X94922214Y-82701938D01*
X94922214Y-82701938D02*
X94874595Y-82749557D01*
X94874595Y-82749557D02*
X94826976Y-82844795D01*
X94826976Y-82844795D02*
X94826976Y-82940033D01*
X94826976Y-82940033D02*
X94874595Y-83082890D01*
X94874595Y-83082890D02*
X95446023Y-83654319D01*
X95446023Y-83654319D02*
X94826976Y-83654319D01*
X135106319Y-66652714D02*
X134106319Y-66652714D01*
X134106319Y-66652714D02*
X134106319Y-66890809D01*
X134106319Y-66890809D02*
X134153938Y-67033666D01*
X134153938Y-67033666D02*
X134249176Y-67128904D01*
X134249176Y-67128904D02*
X134344414Y-67176523D01*
X134344414Y-67176523D02*
X134534890Y-67224142D01*
X134534890Y-67224142D02*
X134677747Y-67224142D01*
X134677747Y-67224142D02*
X134868223Y-67176523D01*
X134868223Y-67176523D02*
X134963461Y-67128904D01*
X134963461Y-67128904D02*
X135058700Y-67033666D01*
X135058700Y-67033666D02*
X135106319Y-66890809D01*
X135106319Y-66890809D02*
X135106319Y-66652714D01*
X135106319Y-68176523D02*
X135106319Y-67605095D01*
X135106319Y-67890809D02*
X134106319Y-67890809D01*
X134106319Y-67890809D02*
X134249176Y-67795571D01*
X134249176Y-67795571D02*
X134344414Y-67700333D01*
X134344414Y-67700333D02*
X134392033Y-67605095D01*
X134106319Y-69081285D02*
X134106319Y-68605095D01*
X134106319Y-68605095D02*
X134582509Y-68557476D01*
X134582509Y-68557476D02*
X134534890Y-68605095D01*
X134534890Y-68605095D02*
X134487271Y-68700333D01*
X134487271Y-68700333D02*
X134487271Y-68938428D01*
X134487271Y-68938428D02*
X134534890Y-69033666D01*
X134534890Y-69033666D02*
X134582509Y-69081285D01*
X134582509Y-69081285D02*
X134677747Y-69128904D01*
X134677747Y-69128904D02*
X134915842Y-69128904D01*
X134915842Y-69128904D02*
X135011080Y-69081285D01*
X135011080Y-69081285D02*
X135058700Y-69033666D01*
X135058700Y-69033666D02*
X135106319Y-68938428D01*
X135106319Y-68938428D02*
X135106319Y-68700333D01*
X135106319Y-68700333D02*
X135058700Y-68605095D01*
X135058700Y-68605095D02*
X135011080Y-68557476D01*
X174598404Y-83654319D02*
X174598404Y-82654319D01*
X174598404Y-82654319D02*
X174265071Y-83368604D01*
X174265071Y-83368604D02*
X173931738Y-82654319D01*
X173931738Y-82654319D02*
X173931738Y-83654319D01*
X173550785Y-82654319D02*
X172884119Y-83654319D01*
X172884119Y-82654319D02*
X173550785Y-83654319D01*
X172550785Y-82749557D02*
X172503166Y-82701938D01*
X172503166Y-82701938D02*
X172407928Y-82654319D01*
X172407928Y-82654319D02*
X172169833Y-82654319D01*
X172169833Y-82654319D02*
X172074595Y-82701938D01*
X172074595Y-82701938D02*
X172026976Y-82749557D01*
X172026976Y-82749557D02*
X171979357Y-82844795D01*
X171979357Y-82844795D02*
X171979357Y-82940033D01*
X171979357Y-82940033D02*
X172026976Y-83082890D01*
X172026976Y-83082890D02*
X172598404Y-83654319D01*
X172598404Y-83654319D02*
X171979357Y-83654319D01*
X171122214Y-82654319D02*
X171312690Y-82654319D01*
X171312690Y-82654319D02*
X171407928Y-82701938D01*
X171407928Y-82701938D02*
X171455547Y-82749557D01*
X171455547Y-82749557D02*
X171550785Y-82892414D01*
X171550785Y-82892414D02*
X171598404Y-83082890D01*
X171598404Y-83082890D02*
X171598404Y-83463842D01*
X171598404Y-83463842D02*
X171550785Y-83559080D01*
X171550785Y-83559080D02*
X171503166Y-83606700D01*
X171503166Y-83606700D02*
X171407928Y-83654319D01*
X171407928Y-83654319D02*
X171217452Y-83654319D01*
X171217452Y-83654319D02*
X171122214Y-83606700D01*
X171122214Y-83606700D02*
X171074595Y-83559080D01*
X171074595Y-83559080D02*
X171026976Y-83463842D01*
X171026976Y-83463842D02*
X171026976Y-83225747D01*
X171026976Y-83225747D02*
X171074595Y-83130509D01*
X171074595Y-83130509D02*
X171122214Y-83082890D01*
X171122214Y-83082890D02*
X171217452Y-83035271D01*
X171217452Y-83035271D02*
X171407928Y-83035271D01*
X171407928Y-83035271D02*
X171503166Y-83082890D01*
X171503166Y-83082890D02*
X171550785Y-83130509D01*
X171550785Y-83130509D02*
X171598404Y-83225747D01*
X116056319Y-66652714D02*
X115056319Y-66652714D01*
X115056319Y-66652714D02*
X115056319Y-66890809D01*
X115056319Y-66890809D02*
X115103938Y-67033666D01*
X115103938Y-67033666D02*
X115199176Y-67128904D01*
X115199176Y-67128904D02*
X115294414Y-67176523D01*
X115294414Y-67176523D02*
X115484890Y-67224142D01*
X115484890Y-67224142D02*
X115627747Y-67224142D01*
X115627747Y-67224142D02*
X115818223Y-67176523D01*
X115818223Y-67176523D02*
X115913461Y-67128904D01*
X115913461Y-67128904D02*
X116008700Y-67033666D01*
X116008700Y-67033666D02*
X116056319Y-66890809D01*
X116056319Y-66890809D02*
X116056319Y-66652714D01*
X116056319Y-68176523D02*
X116056319Y-67605095D01*
X116056319Y-67890809D02*
X115056319Y-67890809D01*
X115056319Y-67890809D02*
X115199176Y-67795571D01*
X115199176Y-67795571D02*
X115294414Y-67700333D01*
X115294414Y-67700333D02*
X115342033Y-67605095D01*
X115389652Y-69033666D02*
X116056319Y-69033666D01*
X115008700Y-68795571D02*
X115722985Y-68557476D01*
X115722985Y-68557476D02*
X115722985Y-69176523D01*
X212222213Y-45554319D02*
X212222213Y-44554319D01*
X212222213Y-44554319D02*
X211888880Y-45268604D01*
X211888880Y-45268604D02*
X211555547Y-44554319D01*
X211555547Y-44554319D02*
X211555547Y-45554319D01*
X211174594Y-44554319D02*
X210507928Y-45554319D01*
X210507928Y-44554319D02*
X211174594Y-45554319D01*
X210079356Y-45554319D02*
X209888880Y-45554319D01*
X209888880Y-45554319D02*
X209793642Y-45506700D01*
X209793642Y-45506700D02*
X209746023Y-45459080D01*
X209746023Y-45459080D02*
X209650785Y-45316223D01*
X209650785Y-45316223D02*
X209603166Y-45125747D01*
X209603166Y-45125747D02*
X209603166Y-44744795D01*
X209603166Y-44744795D02*
X209650785Y-44649557D01*
X209650785Y-44649557D02*
X209698404Y-44601938D01*
X209698404Y-44601938D02*
X209793642Y-44554319D01*
X209793642Y-44554319D02*
X209984118Y-44554319D01*
X209984118Y-44554319D02*
X210079356Y-44601938D01*
X210079356Y-44601938D02*
X210126975Y-44649557D01*
X210126975Y-44649557D02*
X210174594Y-44744795D01*
X210174594Y-44744795D02*
X210174594Y-44982890D01*
X210174594Y-44982890D02*
X210126975Y-45078128D01*
X210126975Y-45078128D02*
X210079356Y-45125747D01*
X210079356Y-45125747D02*
X209984118Y-45173366D01*
X209984118Y-45173366D02*
X209793642Y-45173366D01*
X209793642Y-45173366D02*
X209698404Y-45125747D01*
X209698404Y-45125747D02*
X209650785Y-45078128D01*
X209650785Y-45078128D02*
X209603166Y-44982890D01*
D12*
%TO.C,D16*%
X150701500Y-66217000D02*
X150701500Y-70227000D01*
X150701500Y-70227000D02*
X152701500Y-70227000D01*
X152701500Y-66217000D02*
X152701500Y-70227000D01*
%TO.C,D20*%
X45926500Y-85267000D02*
X45926500Y-89277000D01*
X45926500Y-89277000D02*
X47926500Y-89277000D01*
X47926500Y-85267000D02*
X47926500Y-89277000D01*
%TO.C,D3*%
X84026500Y-47167000D02*
X84026500Y-51177000D01*
X84026500Y-51177000D02*
X86026500Y-51177000D01*
X86026500Y-47167000D02*
X86026500Y-51177000D01*
%TO.C,D25*%
X141176500Y-85267000D02*
X141176500Y-89277000D01*
X141176500Y-89277000D02*
X143176500Y-89277000D01*
X143176500Y-85267000D02*
X143176500Y-89277000D01*
%TO.C,D30*%
X45926500Y-104317000D02*
X45926500Y-108327000D01*
X45926500Y-108327000D02*
X47926500Y-108327000D01*
X47926500Y-104317000D02*
X47926500Y-108327000D01*
%TO.C,D34*%
X160226500Y-104317000D02*
X160226500Y-108327000D01*
X160226500Y-108327000D02*
X162226500Y-108327000D01*
X162226500Y-104317000D02*
X162226500Y-108327000D01*
D11*
%TO.C,MX4*%
X105351324Y-42099280D02*
X105351324Y-42899280D01*
X105351324Y-45989280D02*
X105351324Y-45749280D01*
X111236500Y-44149280D02*
X115801324Y-44149280D01*
X113251324Y-40099280D02*
X107351324Y-40099280D01*
X116301324Y-40099280D02*
X114751324Y-40099280D01*
X116301324Y-40329280D02*
X116301324Y-40099280D01*
X116301324Y-43649280D02*
X116301324Y-43179280D01*
X105351324Y-42099280D02*
G75*
G02*
X107351324Y-40099280I2000005J-5D01*
G01*
X108942178Y-45989280D02*
G75*
G02*
X111236500Y-44149280I2293456J-509332D01*
G01*
X116301324Y-43649280D02*
G75*
G02*
X115801324Y-44149280I-500001J1D01*
G01*
D12*
%TO.C,D7*%
X160226500Y-47167000D02*
X160226500Y-51177000D01*
X160226500Y-51177000D02*
X162226500Y-51177000D01*
X162226500Y-47167000D02*
X162226500Y-51177000D01*
D11*
%TO.C,MX2*%
X67251324Y-42099280D02*
X67251324Y-42899280D01*
X67251324Y-45989280D02*
X67251324Y-45749280D01*
X73136500Y-44149280D02*
X77701324Y-44149280D01*
X75151324Y-40099280D02*
X69251324Y-40099280D01*
X78201324Y-40099280D02*
X76651324Y-40099280D01*
X78201324Y-40329280D02*
X78201324Y-40099280D01*
X78201324Y-43649280D02*
X78201324Y-43179280D01*
X67251324Y-42099280D02*
G75*
G02*
X69251324Y-40099280I2000005J-5D01*
G01*
X70842178Y-45989280D02*
G75*
G02*
X73136500Y-44149280I2293456J-509332D01*
G01*
X78201324Y-43649280D02*
G75*
G02*
X77701324Y-44149280I-500001J1D01*
G01*
D12*
%TO.C,D12*%
X74501500Y-66217000D02*
X74501500Y-70227000D01*
X74501500Y-70227000D02*
X76501500Y-70227000D01*
X76501500Y-66217000D02*
X76501500Y-70227000D01*
%TO.C,D29*%
X217376500Y-85267000D02*
X217376500Y-89277000D01*
X217376500Y-89277000D02*
X219376500Y-89277000D01*
X219376500Y-85267000D02*
X219376500Y-89277000D01*
D11*
%TO.C,MX13*%
X95826324Y-61149280D02*
X95826324Y-61949280D01*
X95826324Y-65039280D02*
X95826324Y-64799280D01*
X101711500Y-63199280D02*
X106276324Y-63199280D01*
X103726324Y-59149280D02*
X97826324Y-59149280D01*
X106776324Y-59149280D02*
X105226324Y-59149280D01*
X106776324Y-59379280D02*
X106776324Y-59149280D01*
X106776324Y-62699280D02*
X106776324Y-62229280D01*
X95826324Y-61149280D02*
G75*
G02*
X97826324Y-59149280I2000005J-5D01*
G01*
X99417178Y-65039280D02*
G75*
G02*
X101711500Y-63199280I2293456J-509332D01*
G01*
X106776324Y-62699280D02*
G75*
G02*
X106276324Y-63199280I-500001J1D01*
G01*
D12*
%TO.C,D23*%
X103076500Y-85267000D02*
X103076500Y-89277000D01*
X103076500Y-89277000D02*
X105076500Y-89277000D01*
X105076500Y-85267000D02*
X105076500Y-89277000D01*
D11*
%TO.C,MX21*%
X67251324Y-80199280D02*
X67251324Y-80999280D01*
X67251324Y-84089280D02*
X67251324Y-83849280D01*
X73136500Y-82249280D02*
X77701324Y-82249280D01*
X75151324Y-78199280D02*
X69251324Y-78199280D01*
X78201324Y-78199280D02*
X76651324Y-78199280D01*
X78201324Y-78429280D02*
X78201324Y-78199280D01*
X78201324Y-81749280D02*
X78201324Y-81279280D01*
X67251324Y-80199280D02*
G75*
G02*
X69251324Y-78199280I2000005J-5D01*
G01*
X70842178Y-84089280D02*
G75*
G02*
X73136500Y-82249280I2293456J-509332D01*
G01*
X78201324Y-81749280D02*
G75*
G02*
X77701324Y-82249280I-500001J1D01*
G01*
D12*
%TO.C,D18*%
X188801500Y-66217000D02*
X188801500Y-70227000D01*
X188801500Y-70227000D02*
X190801500Y-70227000D01*
X190801500Y-66217000D02*
X190801500Y-70227000D01*
D11*
%TO.C,MX15*%
X133926324Y-61149280D02*
X133926324Y-61949280D01*
X133926324Y-65039280D02*
X133926324Y-64799280D01*
X139811500Y-63199280D02*
X144376324Y-63199280D01*
X141826324Y-59149280D02*
X135926324Y-59149280D01*
X144876324Y-59149280D02*
X143326324Y-59149280D01*
X144876324Y-59379280D02*
X144876324Y-59149280D01*
X144876324Y-62699280D02*
X144876324Y-62229280D01*
X133926324Y-61149280D02*
G75*
G02*
X135926324Y-59149280I2000005J-5D01*
G01*
X137517178Y-65039280D02*
G75*
G02*
X139811500Y-63199280I2293456J-509332D01*
G01*
X144876324Y-62699280D02*
G75*
G02*
X144376324Y-63199280I-500001J1D01*
G01*
%TO.C,MX11*%
X52963824Y-61149280D02*
X52963824Y-61949280D01*
X52963824Y-65039280D02*
X52963824Y-64799280D01*
X58849000Y-63199280D02*
X63413824Y-63199280D01*
X60863824Y-59149280D02*
X54963824Y-59149280D01*
X63913824Y-59149280D02*
X62363824Y-59149280D01*
X63913824Y-59379280D02*
X63913824Y-59149280D01*
X63913824Y-62699280D02*
X63913824Y-62229280D01*
X52963824Y-61149280D02*
G75*
G02*
X54963824Y-59149280I2000005J-5D01*
G01*
X56554678Y-65039280D02*
G75*
G02*
X58849000Y-63199280I2293456J-509332D01*
G01*
X63913824Y-62699280D02*
G75*
G02*
X63413824Y-63199280I-500001J1D01*
G01*
%TO.C,MX19-2*%
X216109176Y-69099720D02*
X216109176Y-69569720D01*
X216109176Y-72419720D02*
X216109176Y-72649720D01*
X216109176Y-72649720D02*
X217659176Y-72649720D01*
X219159176Y-72649720D02*
X225059176Y-72649720D01*
X221174000Y-68599720D02*
X216609176Y-68599720D01*
X227059176Y-66759720D02*
X227059176Y-66999720D01*
X227059176Y-70649720D02*
X227059176Y-69849720D01*
X216109176Y-69099720D02*
G75*
G02*
X216609176Y-68599720I500001J-1D01*
G01*
X223468322Y-66759720D02*
G75*
G02*
X221174000Y-68599720I-2293456J509332D01*
G01*
X227059176Y-70649720D02*
G75*
G02*
X225059176Y-72649720I-2000005J5D01*
G01*
%TO.C,MX24*%
X124401324Y-80199280D02*
X124401324Y-80999280D01*
X124401324Y-84089280D02*
X124401324Y-83849280D01*
X130286500Y-82249280D02*
X134851324Y-82249280D01*
X132301324Y-78199280D02*
X126401324Y-78199280D01*
X135351324Y-78199280D02*
X133801324Y-78199280D01*
X135351324Y-78429280D02*
X135351324Y-78199280D01*
X135351324Y-81749280D02*
X135351324Y-81279280D01*
X124401324Y-80199280D02*
G75*
G02*
X126401324Y-78199280I2000005J-5D01*
G01*
X127992178Y-84089280D02*
G75*
G02*
X130286500Y-82249280I2293456J-509332D01*
G01*
X135351324Y-81749280D02*
G75*
G02*
X134851324Y-82249280I-500001J1D01*
G01*
%TO.C,MX8*%
X181551324Y-42099280D02*
X181551324Y-42899280D01*
X181551324Y-45989280D02*
X181551324Y-45749280D01*
X187436500Y-44149280D02*
X192001324Y-44149280D01*
X189451324Y-40099280D02*
X183551324Y-40099280D01*
X192501324Y-40099280D02*
X190951324Y-40099280D01*
X192501324Y-40329280D02*
X192501324Y-40099280D01*
X192501324Y-43649280D02*
X192501324Y-43179280D01*
X181551324Y-42099280D02*
G75*
G02*
X183551324Y-40099280I2000005J-5D01*
G01*
X185142178Y-45989280D02*
G75*
G02*
X187436500Y-44149280I2293456J-509332D01*
G01*
X192501324Y-43649280D02*
G75*
G02*
X192001324Y-44149280I-500001J1D01*
G01*
%TO.C,MX3*%
X86301324Y-42099280D02*
X86301324Y-42899280D01*
X86301324Y-45989280D02*
X86301324Y-45749280D01*
X92186500Y-44149280D02*
X96751324Y-44149280D01*
X94201324Y-40099280D02*
X88301324Y-40099280D01*
X97251324Y-40099280D02*
X95701324Y-40099280D01*
X97251324Y-40329280D02*
X97251324Y-40099280D01*
X97251324Y-43649280D02*
X97251324Y-43179280D01*
X86301324Y-42099280D02*
G75*
G02*
X88301324Y-40099280I2000005J-5D01*
G01*
X89892178Y-45989280D02*
G75*
G02*
X92186500Y-44149280I2293456J-509332D01*
G01*
X97251324Y-43649280D02*
G75*
G02*
X96751324Y-44149280I-500001J1D01*
G01*
%TO.C,MX29*%
X219651324Y-80199280D02*
X219651324Y-80999280D01*
X219651324Y-84089280D02*
X219651324Y-83849280D01*
X225536500Y-82249280D02*
X230101324Y-82249280D01*
X227551324Y-78199280D02*
X221651324Y-78199280D01*
X230601324Y-78199280D02*
X229051324Y-78199280D01*
X230601324Y-78429280D02*
X230601324Y-78199280D01*
X230601324Y-81749280D02*
X230601324Y-81279280D01*
X219651324Y-80199280D02*
G75*
G02*
X221651324Y-78199280I2000005J-5D01*
G01*
X223242178Y-84089280D02*
G75*
G02*
X225536500Y-82249280I2293456J-509332D01*
G01*
X230601324Y-81749280D02*
G75*
G02*
X230101324Y-82249280I-500001J1D01*
G01*
%TO.C,MX17*%
X172026324Y-61149280D02*
X172026324Y-61949280D01*
X172026324Y-65039280D02*
X172026324Y-64799280D01*
X177911500Y-63199280D02*
X182476324Y-63199280D01*
X179926324Y-59149280D02*
X174026324Y-59149280D01*
X182976324Y-59149280D02*
X181426324Y-59149280D01*
X182976324Y-59379280D02*
X182976324Y-59149280D01*
X182976324Y-62699280D02*
X182976324Y-62229280D01*
X172026324Y-61149280D02*
G75*
G02*
X174026324Y-59149280I2000005J-5D01*
G01*
X175617178Y-65039280D02*
G75*
G02*
X177911500Y-63199280I2293456J-509332D01*
G01*
X182976324Y-62699280D02*
G75*
G02*
X182476324Y-63199280I-500001J1D01*
G01*
D12*
%TO.C,D4*%
X103076500Y-47167000D02*
X103076500Y-51177000D01*
X103076500Y-51177000D02*
X105076500Y-51177000D01*
X105076500Y-47167000D02*
X105076500Y-51177000D01*
%TO.C,D27*%
X179276500Y-85267000D02*
X179276500Y-89277000D01*
X179276500Y-89277000D02*
X181276500Y-89277000D01*
X181276500Y-85267000D02*
X181276500Y-89277000D01*
D11*
%TO.C,MX11-2*%
X58946676Y-69099720D02*
X58946676Y-69569720D01*
X58946676Y-72419720D02*
X58946676Y-72649720D01*
X58946676Y-72649720D02*
X60496676Y-72649720D01*
X61996676Y-72649720D02*
X67896676Y-72649720D01*
X64011500Y-68599720D02*
X59446676Y-68599720D01*
X69896676Y-66759720D02*
X69896676Y-66999720D01*
X69896676Y-70649720D02*
X69896676Y-69849720D01*
X58946676Y-69099720D02*
G75*
G02*
X59446676Y-68599720I500001J-1D01*
G01*
X66305822Y-66759720D02*
G75*
G02*
X64011500Y-68599720I-2293456J509332D01*
G01*
X69896676Y-70649720D02*
G75*
G02*
X67896676Y-72649720I-2000005J5D01*
G01*
%TO.C,MX32*%
X86301324Y-99249280D02*
X86301324Y-100049280D01*
X86301324Y-103139280D02*
X86301324Y-102899280D01*
X92186500Y-101299280D02*
X96751324Y-101299280D01*
X94201324Y-97249280D02*
X88301324Y-97249280D01*
X97251324Y-97249280D02*
X95701324Y-97249280D01*
X97251324Y-97479280D02*
X97251324Y-97249280D01*
X97251324Y-100799280D02*
X97251324Y-100329280D01*
X86301324Y-99249280D02*
G75*
G02*
X88301324Y-97249280I2000005J-5D01*
G01*
X89892178Y-103139280D02*
G75*
G02*
X92186500Y-101299280I2293456J-509332D01*
G01*
X97251324Y-100799280D02*
G75*
G02*
X96751324Y-101299280I-500001J1D01*
G01*
%TO.C,MX28*%
X200601324Y-80199280D02*
X200601324Y-80999280D01*
X200601324Y-84089280D02*
X200601324Y-83849280D01*
X206486500Y-82249280D02*
X211051324Y-82249280D01*
X208501324Y-78199280D02*
X202601324Y-78199280D01*
X211551324Y-78199280D02*
X210001324Y-78199280D01*
X211551324Y-78429280D02*
X211551324Y-78199280D01*
X211551324Y-81749280D02*
X211551324Y-81279280D01*
X200601324Y-80199280D02*
G75*
G02*
X202601324Y-78199280I2000005J-5D01*
G01*
X204192178Y-84089280D02*
G75*
G02*
X206486500Y-82249280I2293456J-509332D01*
G01*
X211551324Y-81749280D02*
G75*
G02*
X211051324Y-82249280I-500001J1D01*
G01*
D12*
%TO.C,D33*%
X103076500Y-104317000D02*
X103076500Y-108327000D01*
X103076500Y-108327000D02*
X105076500Y-108327000D01*
X105076500Y-104317000D02*
X105076500Y-108327000D01*
D11*
%TO.C,MX1*%
X48201324Y-42099280D02*
X48201324Y-42899280D01*
X48201324Y-45989280D02*
X48201324Y-45749280D01*
X54086500Y-44149280D02*
X58651324Y-44149280D01*
X56101324Y-40099280D02*
X50201324Y-40099280D01*
X59151324Y-40099280D02*
X57601324Y-40099280D01*
X59151324Y-40329280D02*
X59151324Y-40099280D01*
X59151324Y-43649280D02*
X59151324Y-43179280D01*
X48201324Y-42099280D02*
G75*
G02*
X50201324Y-40099280I2000005J-5D01*
G01*
X51792178Y-45989280D02*
G75*
G02*
X54086500Y-44149280I2293456J-509332D01*
G01*
X59151324Y-43649280D02*
G75*
G02*
X58651324Y-44149280I-500001J1D01*
G01*
%TO.C,MX27*%
X181551324Y-80199280D02*
X181551324Y-80999280D01*
X181551324Y-84089280D02*
X181551324Y-83849280D01*
X187436500Y-82249280D02*
X192001324Y-82249280D01*
X189451324Y-78199280D02*
X183551324Y-78199280D01*
X192501324Y-78199280D02*
X190951324Y-78199280D01*
X192501324Y-78429280D02*
X192501324Y-78199280D01*
X192501324Y-81749280D02*
X192501324Y-81279280D01*
X181551324Y-80199280D02*
G75*
G02*
X183551324Y-78199280I2000005J-5D01*
G01*
X185142178Y-84089280D02*
G75*
G02*
X187436500Y-82249280I2293456J-509332D01*
G01*
X192501324Y-81749280D02*
G75*
G02*
X192001324Y-82249280I-500001J1D01*
G01*
D12*
%TO.C,D6*%
X141176500Y-47167000D02*
X141176500Y-51177000D01*
X141176500Y-51177000D02*
X143176500Y-51177000D01*
X143176500Y-47167000D02*
X143176500Y-51177000D01*
D11*
%TO.C,MX14*%
X114876324Y-61149280D02*
X114876324Y-61949280D01*
X114876324Y-65039280D02*
X114876324Y-64799280D01*
X120761500Y-63199280D02*
X125326324Y-63199280D01*
X122776324Y-59149280D02*
X116876324Y-59149280D01*
X125826324Y-59149280D02*
X124276324Y-59149280D01*
X125826324Y-59379280D02*
X125826324Y-59149280D01*
X125826324Y-62699280D02*
X125826324Y-62229280D01*
X114876324Y-61149280D02*
G75*
G02*
X116876324Y-59149280I2000005J-5D01*
G01*
X118467178Y-65039280D02*
G75*
G02*
X120761500Y-63199280I2293456J-509332D01*
G01*
X125826324Y-62699280D02*
G75*
G02*
X125326324Y-63199280I-500001J1D01*
G01*
D12*
%TO.C,D2*%
X64976500Y-47167000D02*
X64976500Y-51177000D01*
X64976500Y-51177000D02*
X66976500Y-51177000D01*
X66976500Y-47167000D02*
X66976500Y-51177000D01*
%TO.C,D13*%
X93551500Y-66217000D02*
X93551500Y-70227000D01*
X93551500Y-70227000D02*
X95551500Y-70227000D01*
X95551500Y-66217000D02*
X95551500Y-70227000D01*
D11*
%TO.C,MX5*%
X124401324Y-42099280D02*
X124401324Y-42899280D01*
X124401324Y-45989280D02*
X124401324Y-45749280D01*
X130286500Y-44149280D02*
X134851324Y-44149280D01*
X132301324Y-40099280D02*
X126401324Y-40099280D01*
X135351324Y-40099280D02*
X133801324Y-40099280D01*
X135351324Y-40329280D02*
X135351324Y-40099280D01*
X135351324Y-43649280D02*
X135351324Y-43179280D01*
X124401324Y-42099280D02*
G75*
G02*
X126401324Y-40099280I2000005J-5D01*
G01*
X127992178Y-45989280D02*
G75*
G02*
X130286500Y-44149280I2293456J-509332D01*
G01*
X135351324Y-43649280D02*
G75*
G02*
X134851324Y-44149280I-500001J1D01*
G01*
%TO.C,MX18*%
X191076324Y-61149280D02*
X191076324Y-61949280D01*
X191076324Y-65039280D02*
X191076324Y-64799280D01*
X196961500Y-63199280D02*
X201526324Y-63199280D01*
X198976324Y-59149280D02*
X193076324Y-59149280D01*
X202026324Y-59149280D02*
X200476324Y-59149280D01*
X202026324Y-59379280D02*
X202026324Y-59149280D01*
X202026324Y-62699280D02*
X202026324Y-62229280D01*
X191076324Y-61149280D02*
G75*
G02*
X193076324Y-59149280I2000005J-5D01*
G01*
X194667178Y-65039280D02*
G75*
G02*
X196961500Y-63199280I2293456J-509332D01*
G01*
X202026324Y-62699280D02*
G75*
G02*
X201526324Y-63199280I-500001J1D01*
G01*
%TO.C,MX23*%
X105351324Y-80199280D02*
X105351324Y-80999280D01*
X105351324Y-84089280D02*
X105351324Y-83849280D01*
X111236500Y-82249280D02*
X115801324Y-82249280D01*
X113251324Y-78199280D02*
X107351324Y-78199280D01*
X116301324Y-78199280D02*
X114751324Y-78199280D01*
X116301324Y-78429280D02*
X116301324Y-78199280D01*
X116301324Y-81749280D02*
X116301324Y-81279280D01*
X105351324Y-80199280D02*
G75*
G02*
X107351324Y-78199280I2000005J-5D01*
G01*
X108942178Y-84089280D02*
G75*
G02*
X111236500Y-82249280I2293456J-509332D01*
G01*
X116301324Y-81749280D02*
G75*
G02*
X115801324Y-82249280I-500001J1D01*
G01*
%TO.C,MX34*%
X162501324Y-99249280D02*
X162501324Y-100049280D01*
X162501324Y-103139280D02*
X162501324Y-102899280D01*
X168386500Y-101299280D02*
X172951324Y-101299280D01*
X170401324Y-97249280D02*
X164501324Y-97249280D01*
X173451324Y-97249280D02*
X171901324Y-97249280D01*
X173451324Y-97479280D02*
X173451324Y-97249280D01*
X173451324Y-100799280D02*
X173451324Y-100329280D01*
X162501324Y-99249280D02*
G75*
G02*
X164501324Y-97249280I2000005J-5D01*
G01*
X166092178Y-103139280D02*
G75*
G02*
X168386500Y-101299280I2293456J-509332D01*
G01*
X173451324Y-100799280D02*
G75*
G02*
X172951324Y-101299280I-500001J1D01*
G01*
D12*
%TO.C,D17*%
X169751500Y-66217000D02*
X169751500Y-70227000D01*
X169751500Y-70227000D02*
X171751500Y-70227000D01*
X171751500Y-66217000D02*
X171751500Y-70227000D01*
%TO.C,D11*%
X50689000Y-66217000D02*
X50689000Y-70227000D01*
X50689000Y-70227000D02*
X52689000Y-70227000D01*
X52689000Y-66217000D02*
X52689000Y-70227000D01*
%TO.C,D31*%
X64976500Y-104317000D02*
X64976500Y-108327000D01*
X64976500Y-108327000D02*
X66976500Y-108327000D01*
X66976500Y-104317000D02*
X66976500Y-108327000D01*
D11*
%TO.C,MX33*%
X105351324Y-99249280D02*
X105351324Y-100049280D01*
X105351324Y-103139280D02*
X105351324Y-102899280D01*
X111236500Y-101299280D02*
X115801324Y-101299280D01*
X113251324Y-97249280D02*
X107351324Y-97249280D01*
X116301324Y-97249280D02*
X114751324Y-97249280D01*
X116301324Y-97479280D02*
X116301324Y-97249280D01*
X116301324Y-100799280D02*
X116301324Y-100329280D01*
X105351324Y-99249280D02*
G75*
G02*
X107351324Y-97249280I2000005J-5D01*
G01*
X108942178Y-103139280D02*
G75*
G02*
X111236500Y-101299280I2293456J-509332D01*
G01*
X116301324Y-100799280D02*
G75*
G02*
X115801324Y-101299280I-500001J1D01*
G01*
%TO.C,MX25*%
X143451324Y-80199280D02*
X143451324Y-80999280D01*
X143451324Y-84089280D02*
X143451324Y-83849280D01*
X149336500Y-82249280D02*
X153901324Y-82249280D01*
X151351324Y-78199280D02*
X145451324Y-78199280D01*
X154401324Y-78199280D02*
X152851324Y-78199280D01*
X154401324Y-78429280D02*
X154401324Y-78199280D01*
X154401324Y-81749280D02*
X154401324Y-81279280D01*
X143451324Y-80199280D02*
G75*
G02*
X145451324Y-78199280I2000005J-5D01*
G01*
X147042178Y-84089280D02*
G75*
G02*
X149336500Y-82249280I2293456J-509332D01*
G01*
X154401324Y-81749280D02*
G75*
G02*
X153901324Y-82249280I-500001J1D01*
G01*
D12*
%TO.C,D22*%
X84026500Y-85267000D02*
X84026500Y-89277000D01*
X84026500Y-89277000D02*
X86026500Y-89277000D01*
X86026500Y-85267000D02*
X86026500Y-89277000D01*
D11*
%TO.C,MX7*%
X162501324Y-42099280D02*
X162501324Y-42899280D01*
X162501324Y-45989280D02*
X162501324Y-45749280D01*
X168386500Y-44149280D02*
X172951324Y-44149280D01*
X170401324Y-40099280D02*
X164501324Y-40099280D01*
X173451324Y-40099280D02*
X171901324Y-40099280D01*
X173451324Y-40329280D02*
X173451324Y-40099280D01*
X173451324Y-43649280D02*
X173451324Y-43179280D01*
X162501324Y-42099280D02*
G75*
G02*
X164501324Y-40099280I2000005J-5D01*
G01*
X166092178Y-45989280D02*
G75*
G02*
X168386500Y-44149280I2293456J-509332D01*
G01*
X173451324Y-43649280D02*
G75*
G02*
X172951324Y-44149280I-500001J1D01*
G01*
D12*
%TO.C,D32*%
X84026500Y-104317000D02*
X84026500Y-108327000D01*
X84026500Y-108327000D02*
X86026500Y-108327000D01*
X86026500Y-104317000D02*
X86026500Y-108327000D01*
%TO.C,D21*%
X64976500Y-85267000D02*
X64976500Y-89277000D01*
X64976500Y-89277000D02*
X66976500Y-89277000D01*
X66976500Y-85267000D02*
X66976500Y-89277000D01*
D11*
%TO.C,MX16*%
X152976324Y-61149280D02*
X152976324Y-61949280D01*
X152976324Y-65039280D02*
X152976324Y-64799280D01*
X158861500Y-63199280D02*
X163426324Y-63199280D01*
X160876324Y-59149280D02*
X154976324Y-59149280D01*
X163926324Y-59149280D02*
X162376324Y-59149280D01*
X163926324Y-59379280D02*
X163926324Y-59149280D01*
X163926324Y-62699280D02*
X163926324Y-62229280D01*
X152976324Y-61149280D02*
G75*
G02*
X154976324Y-59149280I2000005J-5D01*
G01*
X156567178Y-65039280D02*
G75*
G02*
X158861500Y-63199280I2293456J-509332D01*
G01*
X163926324Y-62699280D02*
G75*
G02*
X163426324Y-63199280I-500001J1D01*
G01*
%TO.C,U1*%
X229376500Y-107569500D02*
X229376500Y-100469500D01*
X232956500Y-100469500D02*
X229376500Y-100469500D01*
X232956500Y-107569500D02*
X229376500Y-107569500D01*
X232956500Y-112909500D02*
X199936500Y-112909500D01*
X199936500Y-95129500D01*
X232956500Y-95129500D01*
X232956500Y-112909500D01*
D12*
%TO.C,D28*%
X198326500Y-85267000D02*
X198326500Y-89277000D01*
X198326500Y-89277000D02*
X200326500Y-89277000D01*
X200326500Y-85267000D02*
X200326500Y-89277000D01*
D11*
%TO.C,MX12*%
X76776324Y-61149280D02*
X76776324Y-61949280D01*
X76776324Y-65039280D02*
X76776324Y-64799280D01*
X82661500Y-63199280D02*
X87226324Y-63199280D01*
X84676324Y-59149280D02*
X78776324Y-59149280D01*
X87726324Y-59149280D02*
X86176324Y-59149280D01*
X87726324Y-59379280D02*
X87726324Y-59149280D01*
X87726324Y-62699280D02*
X87726324Y-62229280D01*
X76776324Y-61149280D02*
G75*
G02*
X78776324Y-59149280I2000005J-5D01*
G01*
X80367178Y-65039280D02*
G75*
G02*
X82661500Y-63199280I2293456J-509332D01*
G01*
X87726324Y-62699280D02*
G75*
G02*
X87226324Y-63199280I-500001J1D01*
G01*
D12*
%TO.C,D1*%
X45926500Y-47167000D02*
X45926500Y-51177000D01*
X45926500Y-51177000D02*
X47926500Y-51177000D01*
X47926500Y-47167000D02*
X47926500Y-51177000D01*
%TO.C,D26*%
X160226500Y-85267000D02*
X160226500Y-89277000D01*
X160226500Y-89277000D02*
X162226500Y-89277000D01*
X162226500Y-85267000D02*
X162226500Y-89277000D01*
%TO.C,D19*%
X207851500Y-66217000D02*
X207851500Y-70227000D01*
X207851500Y-70227000D02*
X209851500Y-70227000D01*
X209851500Y-66217000D02*
X209851500Y-70227000D01*
D11*
%TO.C,MX31*%
X67251324Y-99249280D02*
X67251324Y-100049280D01*
X67251324Y-103139280D02*
X67251324Y-102899280D01*
X73136500Y-101299280D02*
X77701324Y-101299280D01*
X75151324Y-97249280D02*
X69251324Y-97249280D01*
X78201324Y-97249280D02*
X76651324Y-97249280D01*
X78201324Y-97479280D02*
X78201324Y-97249280D01*
X78201324Y-100799280D02*
X78201324Y-100329280D01*
X67251324Y-99249280D02*
G75*
G02*
X69251324Y-97249280I2000005J-5D01*
G01*
X70842178Y-103139280D02*
G75*
G02*
X73136500Y-101299280I2293456J-509332D01*
G01*
X78201324Y-100799280D02*
G75*
G02*
X77701324Y-101299280I-500001J1D01*
G01*
%TO.C,MX10*%
X219651324Y-42099280D02*
X219651324Y-42899280D01*
X219651324Y-45989280D02*
X219651324Y-45749280D01*
X225536500Y-44149280D02*
X230101324Y-44149280D01*
X227551324Y-40099280D02*
X221651324Y-40099280D01*
X230601324Y-40099280D02*
X229051324Y-40099280D01*
X230601324Y-40329280D02*
X230601324Y-40099280D01*
X230601324Y-43649280D02*
X230601324Y-43179280D01*
X219651324Y-42099280D02*
G75*
G02*
X221651324Y-40099280I2000005J-5D01*
G01*
X223242178Y-45989280D02*
G75*
G02*
X225536500Y-44149280I2293456J-509332D01*
G01*
X230601324Y-43649280D02*
G75*
G02*
X230101324Y-44149280I-500001J1D01*
G01*
D12*
%TO.C,D24*%
X122126500Y-85267000D02*
X122126500Y-89277000D01*
X122126500Y-89277000D02*
X124126500Y-89277000D01*
X124126500Y-85267000D02*
X124126500Y-89277000D01*
D11*
%TO.C,MX34-2*%
X173246676Y-107199720D02*
X173246676Y-107669720D01*
X173246676Y-110519720D02*
X173246676Y-110749720D01*
X173246676Y-110749720D02*
X174796676Y-110749720D01*
X176296676Y-110749720D02*
X182196676Y-110749720D01*
X178311500Y-106699720D02*
X173746676Y-106699720D01*
X184196676Y-104859720D02*
X184196676Y-105099720D01*
X184196676Y-108749720D02*
X184196676Y-107949720D01*
X173246676Y-107199720D02*
G75*
G02*
X173746676Y-106699720I500001J-1D01*
G01*
X180605822Y-104859720D02*
G75*
G02*
X178311500Y-106699720I-2293456J509332D01*
G01*
X184196676Y-108749720D02*
G75*
G02*
X182196676Y-110749720I-2000005J5D01*
G01*
D12*
%TO.C,D8*%
X179276500Y-47167000D02*
X179276500Y-51177000D01*
X179276500Y-51177000D02*
X181276500Y-51177000D01*
X181276500Y-47167000D02*
X181276500Y-51177000D01*
%TO.C,D9*%
X198326500Y-47167000D02*
X198326500Y-51177000D01*
X198326500Y-51177000D02*
X200326500Y-51177000D01*
X200326500Y-47167000D02*
X200326500Y-51177000D01*
D11*
%TO.C,MX6*%
X143451324Y-42099280D02*
X143451324Y-42899280D01*
X143451324Y-45989280D02*
X143451324Y-45749280D01*
X149336500Y-44149280D02*
X153901324Y-44149280D01*
X151351324Y-40099280D02*
X145451324Y-40099280D01*
X154401324Y-40099280D02*
X152851324Y-40099280D01*
X154401324Y-40329280D02*
X154401324Y-40099280D01*
X154401324Y-43649280D02*
X154401324Y-43179280D01*
X143451324Y-42099280D02*
G75*
G02*
X145451324Y-40099280I2000005J-5D01*
G01*
X147042178Y-45989280D02*
G75*
G02*
X149336500Y-44149280I2293456J-509332D01*
G01*
X154401324Y-43649280D02*
G75*
G02*
X153901324Y-44149280I-500001J1D01*
G01*
%TO.C,MX20*%
X48201324Y-80199280D02*
X48201324Y-80999280D01*
X48201324Y-84089280D02*
X48201324Y-83849280D01*
X54086500Y-82249280D02*
X58651324Y-82249280D01*
X56101324Y-78199280D02*
X50201324Y-78199280D01*
X59151324Y-78199280D02*
X57601324Y-78199280D01*
X59151324Y-78429280D02*
X59151324Y-78199280D01*
X59151324Y-81749280D02*
X59151324Y-81279280D01*
X48201324Y-80199280D02*
G75*
G02*
X50201324Y-78199280I2000005J-5D01*
G01*
X51792178Y-84089280D02*
G75*
G02*
X54086500Y-82249280I2293456J-509332D01*
G01*
X59151324Y-81749280D02*
G75*
G02*
X58651324Y-82249280I-500001J1D01*
G01*
D12*
%TO.C,D5*%
X122126500Y-47167000D02*
X122126500Y-51177000D01*
X122126500Y-51177000D02*
X124126500Y-51177000D01*
X124126500Y-47167000D02*
X124126500Y-51177000D01*
D11*
%TO.C,MX30*%
X48201324Y-99249280D02*
X48201324Y-100049280D01*
X48201324Y-103139280D02*
X48201324Y-102899280D01*
X54086500Y-101299280D02*
X58651324Y-101299280D01*
X56101324Y-97249280D02*
X50201324Y-97249280D01*
X59151324Y-97249280D02*
X57601324Y-97249280D01*
X59151324Y-97479280D02*
X59151324Y-97249280D01*
X59151324Y-100799280D02*
X59151324Y-100329280D01*
X48201324Y-99249280D02*
G75*
G02*
X50201324Y-97249280I2000005J-5D01*
G01*
X51792178Y-103139280D02*
G75*
G02*
X54086500Y-101299280I2293456J-509332D01*
G01*
X59151324Y-100799280D02*
G75*
G02*
X58651324Y-101299280I-500001J1D01*
G01*
D12*
%TO.C,D10*%
X217376500Y-47167000D02*
X217376500Y-51177000D01*
X217376500Y-51177000D02*
X219376500Y-51177000D01*
X219376500Y-47167000D02*
X219376500Y-51177000D01*
D11*
%TO.C,MX19*%
X210126324Y-61149280D02*
X210126324Y-61949280D01*
X210126324Y-65039280D02*
X210126324Y-64799280D01*
X216011500Y-63199280D02*
X220576324Y-63199280D01*
X218026324Y-59149280D02*
X212126324Y-59149280D01*
X221076324Y-59149280D02*
X219526324Y-59149280D01*
X221076324Y-59379280D02*
X221076324Y-59149280D01*
X221076324Y-62699280D02*
X221076324Y-62229280D01*
X210126324Y-61149280D02*
G75*
G02*
X212126324Y-59149280I2000005J-5D01*
G01*
X213717178Y-65039280D02*
G75*
G02*
X216011500Y-63199280I2293456J-509332D01*
G01*
X221076324Y-62699280D02*
G75*
G02*
X220576324Y-63199280I-500001J1D01*
G01*
%TO.C,MX22*%
X86301324Y-80199280D02*
X86301324Y-80999280D01*
X86301324Y-84089280D02*
X86301324Y-83849280D01*
X92186500Y-82249280D02*
X96751324Y-82249280D01*
X94201324Y-78199280D02*
X88301324Y-78199280D01*
X97251324Y-78199280D02*
X95701324Y-78199280D01*
X97251324Y-78429280D02*
X97251324Y-78199280D01*
X97251324Y-81749280D02*
X97251324Y-81279280D01*
X86301324Y-80199280D02*
G75*
G02*
X88301324Y-78199280I2000005J-5D01*
G01*
X89892178Y-84089280D02*
G75*
G02*
X92186500Y-82249280I2293456J-509332D01*
G01*
X97251324Y-81749280D02*
G75*
G02*
X96751324Y-82249280I-500001J1D01*
G01*
D12*
%TO.C,D15*%
X131651500Y-66217000D02*
X131651500Y-70227000D01*
X131651500Y-70227000D02*
X133651500Y-70227000D01*
X133651500Y-66217000D02*
X133651500Y-70227000D01*
D11*
%TO.C,MX26*%
X162501324Y-80199280D02*
X162501324Y-80999280D01*
X162501324Y-84089280D02*
X162501324Y-83849280D01*
X168386500Y-82249280D02*
X172951324Y-82249280D01*
X170401324Y-78199280D02*
X164501324Y-78199280D01*
X173451324Y-78199280D02*
X171901324Y-78199280D01*
X173451324Y-78429280D02*
X173451324Y-78199280D01*
X173451324Y-81749280D02*
X173451324Y-81279280D01*
X162501324Y-80199280D02*
G75*
G02*
X164501324Y-78199280I2000005J-5D01*
G01*
X166092178Y-84089280D02*
G75*
G02*
X168386500Y-82249280I2293456J-509332D01*
G01*
X173451324Y-81749280D02*
G75*
G02*
X172951324Y-82249280I-500001J1D01*
G01*
D12*
%TO.C,D14*%
X112601500Y-66217000D02*
X112601500Y-70227000D01*
X112601500Y-70227000D02*
X114601500Y-70227000D01*
X114601500Y-66217000D02*
X114601500Y-70227000D01*
D11*
%TO.C,MX9*%
X200601324Y-42099280D02*
X200601324Y-42899280D01*
X200601324Y-45989280D02*
X200601324Y-45749280D01*
X206486500Y-44149280D02*
X211051324Y-44149280D01*
X208501324Y-40099280D02*
X202601324Y-40099280D01*
X211551324Y-40099280D02*
X210001324Y-40099280D01*
X211551324Y-40329280D02*
X211551324Y-40099280D01*
X211551324Y-43649280D02*
X211551324Y-43179280D01*
X200601324Y-42099280D02*
G75*
G02*
X202601324Y-40099280I2000005J-5D01*
G01*
X204192178Y-45989280D02*
G75*
G02*
X206486500Y-44149280I2293456J-509332D01*
G01*
X211551324Y-43649280D02*
G75*
G02*
X211051324Y-44149280I-500001J1D01*
G01*
%TD*%
M02*
