M48
; DRILL file {KiCad 8.0.6} date 2024-12-14T14:22:52-0700
; FORMAT={-:-/ absolute / inch / decimal}
; #@! TF.CreationDate,2024-12-14T14:22:52-07:00
; #@! TF.GenerationSoftware,Kicad,Pcbnew,8.0.6
; #@! TF.FileFunction,NonPlated,1,2,NPTH
FMAT,2
INCH
; #@! TA.AperFunction,NonPlated,NPTH,ComponentDrill
T1C0.0689
; #@! TA.AperFunction,NonPlated,NPTH,ComponentDrill
T2C0.1570
%
G90
G05
T1
X1.9373Y-1.8445
X1.9373Y-3.3445
X1.9373Y-4.0945
X2.1248Y-2.5945
X2.3123Y-2.5945
X2.3373Y-1.8445
X2.3373Y-3.3445
X2.3373Y-4.0945
X2.5248Y-2.5945
X2.6873Y-1.8445
X2.6873Y-3.3445
X2.6873Y-4.0945
X2.7123Y-2.5945
X3.0623Y-2.5945
X3.0873Y-1.8445
X3.0873Y-3.3445
X3.0873Y-4.0945
X3.4373Y-1.8445
X3.4373Y-3.3445
X3.4373Y-4.0945
X3.4623Y-2.5945
X3.8123Y-2.5945
X3.8373Y-1.8445
X3.8373Y-3.3445
X3.8373Y-4.0945
X4.1873Y-1.8445
X4.1873Y-3.3445
X4.1873Y-4.0945
X4.2123Y-2.5945
X4.5623Y-2.5945
X4.5873Y-1.8445
X4.5873Y-3.3445
X4.5873Y-4.0945
X4.9373Y-1.8445
X4.9373Y-3.3445
X4.9623Y-2.5945
X5.3123Y-2.5945
X5.3373Y-1.8445
X5.3373Y-3.3445
X5.6873Y-1.8445
X5.6873Y-3.3445
X5.7123Y-2.5945
X6.0623Y-2.5945
X6.0873Y-1.8445
X6.0873Y-3.3445
X6.4373Y-1.8445
X6.4373Y-3.3445
X6.4373Y-4.0945
X6.4623Y-2.5945
X6.8123Y-2.5945
X6.8123Y-4.0945
X6.8373Y-1.8445
X6.8373Y-3.3445
X6.8373Y-4.0945
X7.1873Y-1.8445
X7.1873Y-3.3445
X7.2123Y-2.5945
X7.2123Y-4.0945
X7.5623Y-2.5945
X7.5873Y-1.8445
X7.5873Y-3.3445
X7.9373Y-1.8445
X7.9373Y-3.3445
X7.9623Y-2.5945
X8.3123Y-2.5945
X8.3373Y-1.8445
X8.3373Y-3.3445
X8.4998Y-2.5945
X8.6873Y-1.8445
X8.6873Y-3.3445
X8.7123Y-2.5945
X8.8998Y-2.5945
X9.0873Y-1.8445
X9.0873Y-3.3445
T2
X2.1373Y-1.8445
X2.1373Y-3.3445
X2.1373Y-4.0945
X2.3248Y-2.5945
X2.5123Y-2.5945
X2.8873Y-1.8445
X2.8873Y-3.3445
X2.8873Y-4.0945
X3.2623Y-2.5945
X3.6373Y-1.8445
X3.6373Y-3.3445
X3.6373Y-4.0945
X4.0123Y-2.5945
X4.3873Y-1.8445
X4.3873Y-3.3445
X4.3873Y-4.0945
X4.7623Y-2.5945
X5.1373Y-1.8445
X5.1373Y-3.3445
X5.5123Y-2.5945
X5.8873Y-1.8445
X5.8873Y-3.3445
X6.2623Y-2.5945
X6.6373Y-1.8445
X6.6373Y-3.3445
X6.6373Y-4.0945
X7.0123Y-2.5945
X7.0123Y-4.0945
X7.3873Y-1.8445
X7.3873Y-3.3445
X7.7623Y-2.5945
X8.1373Y-1.8445
X8.1373Y-3.3445
X8.5123Y-2.5945
X8.6998Y-2.5945
X8.8873Y-1.8445
X8.8873Y-3.3445
M30
