%TF.GenerationSoftware,KiCad,Pcbnew,8.0.6*%
%TF.CreationDate,2024-12-20T15:26:13-07:00*%
%TF.ProjectId,tabesco-48,74616265-7363-46f2-9d34-382e6b696361,rev?*%
%TF.SameCoordinates,Original*%
%TF.FileFunction,Paste,Bot*%
%TF.FilePolarity,Positive*%
%FSLAX46Y46*%
G04 Gerber Fmt 4.6, Leading zero omitted, Abs format (unit mm)*
G04 Created by KiCad (PCBNEW 8.0.6) date 2024-12-20 15:26:13*
%MOMM*%
%LPD*%
G01*
G04 APERTURE LIST*
G04 Aperture macros list*
%AMRoundRect*
0 Rectangle with rounded corners*
0 $1 Rounding radius*
0 $2 $3 $4 $5 $6 $7 $8 $9 X,Y pos of 4 corners*
0 Add a 4 corners polygon primitive as box body*
4,1,4,$2,$3,$4,$5,$6,$7,$8,$9,$2,$3,0*
0 Add four circle primitives for the rounded corners*
1,1,$1+$1,$2,$3*
1,1,$1+$1,$4,$5*
1,1,$1+$1,$6,$7*
1,1,$1+$1,$8,$9*
0 Add four rect primitives between the rounded corners*
20,1,$1+$1,$2,$3,$4,$5,0*
20,1,$1+$1,$4,$5,$6,$7,0*
20,1,$1+$1,$6,$7,$8,$9,0*
20,1,$1+$1,$8,$9,$2,$3,0*%
G04 Aperture macros list end*
%ADD10RoundRect,0.225000X0.375000X-0.225000X0.375000X0.225000X-0.375000X0.225000X-0.375000X-0.225000X0*%
%ADD11RoundRect,0.250000X1.025000X1.000000X-1.025000X1.000000X-1.025000X-1.000000X1.025000X-1.000000X0*%
%ADD12RoundRect,0.250000X0.262500X0.450000X-0.262500X0.450000X-0.262500X-0.450000X0.262500X-0.450000X0*%
%ADD13RoundRect,0.250000X0.250000X0.475000X-0.250000X0.475000X-0.250000X-0.475000X0.250000X-0.475000X0*%
%ADD14RoundRect,0.250000X0.475000X-0.250000X0.475000X0.250000X-0.475000X0.250000X-0.475000X-0.250000X0*%
%ADD15R,1.500000X0.550000*%
%ADD16R,0.550000X1.500000*%
%ADD17R,1.400000X1.200000*%
%ADD18RoundRect,0.250000X-0.475000X0.250000X-0.475000X-0.250000X0.475000X-0.250000X0.475000X0.250000X0*%
%ADD19RoundRect,0.250000X-0.450000X0.262500X-0.450000X-0.262500X0.450000X-0.262500X0.450000X0.262500X0*%
%ADD20RoundRect,0.150000X-0.150000X-0.625000X0.150000X-0.625000X0.150000X0.625000X-0.150000X0.625000X0*%
%ADD21RoundRect,0.250000X-0.350000X-0.650000X0.350000X-0.650000X0.350000X0.650000X-0.350000X0.650000X0*%
%ADD22RoundRect,0.250000X0.450000X-0.262500X0.450000X0.262500X-0.450000X0.262500X-0.450000X-0.262500X0*%
G04 APERTURE END LIST*
D10*
%TO.C,D23*%
X316318998Y-134947623D03*
X316318998Y-131647623D03*
%TD*%
D11*
%TO.C,MX56*%
X217280873Y-183604498D03*
X230730873Y-181064498D03*
%TD*%
%TO.C,MX1*%
X123221498Y-107404498D03*
X136671498Y-104864498D03*
%TD*%
D10*
%TO.C,D0*%
X107959623Y-115897623D03*
X107959623Y-112597623D03*
%TD*%
D11*
%TO.C,MX59*%
X319674623Y-183604498D03*
X333124623Y-181064498D03*
%TD*%
D10*
%TO.C,D39*%
X371087748Y-153997623D03*
X371087748Y-150697623D03*
%TD*%
%TO.C,D56*%
X221068998Y-192097623D03*
X221068998Y-188797623D03*
%TD*%
%TO.C,D4*%
X204400248Y-115897623D03*
X204400248Y-112597623D03*
%TD*%
D12*
%TO.C,R3*%
X196182748Y-158170748D03*
X194357748Y-158170748D03*
%TD*%
D11*
%TO.C,MX46*%
X241093373Y-164554498D03*
X254543373Y-162014498D03*
%TD*%
D10*
%TO.C,D45*%
X225831498Y-173047623D03*
X225831498Y-169747623D03*
%TD*%
%TO.C,D36*%
X306793998Y-153997623D03*
X306793998Y-150697623D03*
%TD*%
D11*
%TO.C,MX2*%
X142271498Y-107404498D03*
X155721498Y-104864498D03*
%TD*%
D13*
%TO.C,C6*%
X182891500Y-148294500D03*
X180991500Y-148294500D03*
%TD*%
D11*
%TO.C,MX58*%
X272049623Y-183604498D03*
X285499623Y-181064498D03*
%TD*%
D10*
%TO.C,D52*%
X368706498Y-173047623D03*
X368706498Y-169747623D03*
%TD*%
%TO.C,D10*%
X325843998Y-115897623D03*
X325843998Y-112597623D03*
%TD*%
D11*
%TO.C,MX8*%
X283955873Y-107404498D03*
X297405873Y-104864498D03*
%TD*%
%TO.C,MX50*%
X317293373Y-164554498D03*
X330743373Y-162014498D03*
%TD*%
D10*
%TO.C,D30*%
X165109623Y-153997623D03*
X165109623Y-150697623D03*
%TD*%
%TO.C,D57*%
X242500248Y-192097623D03*
X242500248Y-188797623D03*
%TD*%
%TO.C,D34*%
X268693998Y-153997623D03*
X268693998Y-150697623D03*
%TD*%
%TO.C,D37*%
X325843998Y-153997623D03*
X325843998Y-150697623D03*
%TD*%
D11*
%TO.C,MX42*%
X142271498Y-164554498D03*
X155721498Y-162014498D03*
%TD*%
%TO.C,MX41*%
X123221498Y-164554498D03*
X136671498Y-162014498D03*
%TD*%
%TO.C,MX12*%
X367299623Y-107404498D03*
X380749623Y-104864498D03*
%TD*%
%TO.C,MX52*%
X364918373Y-164554498D03*
X378368373Y-162014498D03*
%TD*%
D10*
%TO.C,D44*%
X202018998Y-173047623D03*
X202018998Y-169747623D03*
%TD*%
%TO.C,D41*%
X127009623Y-173047623D03*
X127009623Y-169747623D03*
%TD*%
%TO.C,D33*%
X249643998Y-153997623D03*
X249643998Y-150697623D03*
%TD*%
%TO.C,D40*%
X107959623Y-173047623D03*
X107959623Y-169747623D03*
%TD*%
%TO.C,D24*%
X335368998Y-134947623D03*
X335368998Y-131647623D03*
%TD*%
D11*
%TO.C,MX40*%
X104171498Y-164554498D03*
X117621498Y-162014498D03*
%TD*%
D10*
%TO.C,D5*%
X230593998Y-115897623D03*
X230593998Y-112597623D03*
%TD*%
%TO.C,D59*%
X323462748Y-192097623D03*
X323462748Y-188797623D03*
%TD*%
D14*
%TO.C,C5*%
X185345248Y-139050748D03*
X185345248Y-137150748D03*
%TD*%
D11*
%TO.C,MX54*%
X151796498Y-183604498D03*
X165246498Y-181064498D03*
%TD*%
%TO.C,MX35*%
X283955873Y-145504498D03*
X297405873Y-142964498D03*
%TD*%
%TO.C,MX28*%
X123221498Y-145504498D03*
X136671498Y-142964498D03*
%TD*%
D10*
%TO.C,D6*%
X249643998Y-115897623D03*
X249643998Y-112597623D03*
%TD*%
D13*
%TO.C,C0*%
X198589000Y-139946375D03*
X196689000Y-139946375D03*
%TD*%
D15*
%TO.C,U1*%
X184990248Y-152320748D03*
X184990248Y-151520748D03*
X184990248Y-150720748D03*
X184990248Y-149920748D03*
X184990248Y-149120748D03*
X184990248Y-148320748D03*
X184990248Y-147520748D03*
X184990248Y-146720748D03*
X184990248Y-145920748D03*
X184990248Y-145120748D03*
X184990248Y-144320748D03*
D16*
X186690248Y-142620748D03*
X187490248Y-142620748D03*
X188290248Y-142620748D03*
X189090248Y-142620748D03*
X189890248Y-142620748D03*
X190690248Y-142620748D03*
X191490248Y-142620748D03*
X192290248Y-142620748D03*
X193090248Y-142620748D03*
X193890248Y-142620748D03*
X194690248Y-142620748D03*
D15*
X196390248Y-144320748D03*
X196390248Y-145120748D03*
X196390248Y-145920748D03*
X196390248Y-146720748D03*
X196390248Y-147520748D03*
X196390248Y-148320748D03*
X196390248Y-149120748D03*
X196390248Y-149920748D03*
X196390248Y-150720748D03*
X196390248Y-151520748D03*
X196390248Y-152320748D03*
D16*
X194690248Y-154020748D03*
X193890248Y-154020748D03*
X193090248Y-154020748D03*
X192290248Y-154020748D03*
X191490248Y-154020748D03*
X190690248Y-154020748D03*
X189890248Y-154020748D03*
X189090248Y-154020748D03*
X188290248Y-154020748D03*
X187490248Y-154020748D03*
X186690248Y-154020748D03*
%TD*%
D10*
%TO.C,D51*%
X340131498Y-173047623D03*
X340131498Y-169747623D03*
%TD*%
%TO.C,D1*%
X127009623Y-115897623D03*
X127009623Y-112597623D03*
%TD*%
%TO.C,D3*%
X165109623Y-115897623D03*
X165109623Y-112597623D03*
%TD*%
D17*
%TO.C,Y0*%
X189665248Y-138950748D03*
X187465248Y-138950748D03*
X187465248Y-137250748D03*
X189665248Y-137250748D03*
%TD*%
D11*
%TO.C,MX23*%
X312530873Y-126454498D03*
X325980873Y-123914498D03*
%TD*%
D10*
%TO.C,D43*%
X165109623Y-173047623D03*
X165109623Y-169747623D03*
%TD*%
%TO.C,D11*%
X344893998Y-115897623D03*
X344893998Y-112597623D03*
%TD*%
D11*
%TO.C,MX11*%
X341105873Y-107404498D03*
X354555873Y-104864498D03*
%TD*%
%TO.C,MX7*%
X264905873Y-107404498D03*
X278355873Y-104864498D03*
%TD*%
D10*
%TO.C,D17*%
X199637748Y-134947623D03*
X199637748Y-131647623D03*
%TD*%
D11*
%TO.C,MX47*%
X260143373Y-164554498D03*
X273593373Y-162014498D03*
%TD*%
%TO.C,MX16*%
X161321498Y-126454498D03*
X174771498Y-123914498D03*
%TD*%
%TO.C,MX18*%
X217280873Y-126454498D03*
X230730873Y-123914498D03*
%TD*%
D10*
%TO.C,D46*%
X244881498Y-173047623D03*
X244881498Y-169747623D03*
%TD*%
D11*
%TO.C,MX33*%
X245855873Y-145504498D03*
X259305873Y-142964498D03*
%TD*%
%TO.C,MX21*%
X274430873Y-126454498D03*
X287880873Y-123914498D03*
%TD*%
%TO.C,MX43*%
X161321498Y-164554498D03*
X174771498Y-162014498D03*
%TD*%
%TO.C,MX26*%
X372062123Y-126454498D03*
X385512123Y-123914498D03*
%TD*%
D18*
%TO.C,C3*%
X180650248Y-151770748D03*
X180650248Y-153670748D03*
%TD*%
D19*
%TO.C,R0*%
X180919258Y-140341738D03*
X180919258Y-142166738D03*
%TD*%
D11*
%TO.C,MX48*%
X279193373Y-164554498D03*
X292643373Y-162014498D03*
%TD*%
D10*
%TO.C,D18*%
X221068998Y-134947623D03*
X221068998Y-131647623D03*
%TD*%
D11*
%TO.C,MX20*%
X255380873Y-126454498D03*
X268830873Y-123914498D03*
%TD*%
D10*
%TO.C,D53*%
X117484623Y-192097623D03*
X117484623Y-188797623D03*
%TD*%
%TO.C,D12*%
X371087748Y-115897623D03*
X371087748Y-112597623D03*
%TD*%
D13*
%TO.C,C2*%
X195990248Y-156030748D03*
X194090248Y-156030748D03*
%TD*%
D10*
%TO.C,D14*%
X127009623Y-134947623D03*
X127009623Y-131647623D03*
%TD*%
D11*
%TO.C,MX51*%
X336343373Y-164554498D03*
X349793373Y-162014498D03*
%TD*%
%TO.C,MX53*%
X113696498Y-183604498D03*
X127146498Y-181064498D03*
%TD*%
%TO.C,MX0*%
X104171498Y-107404498D03*
X117621498Y-104864498D03*
%TD*%
%TO.C,MX38*%
X341105873Y-145504498D03*
X354555873Y-142964498D03*
%TD*%
D14*
%TO.C,C1*%
X182979258Y-141634238D03*
X182979258Y-139734238D03*
%TD*%
D11*
%TO.C,MX36*%
X303005873Y-145504498D03*
X316455873Y-142964498D03*
%TD*%
%TO.C,MX13*%
X104171498Y-126454498D03*
X117621498Y-123914498D03*
%TD*%
%TO.C,MX57*%
X238712123Y-183604498D03*
X252162123Y-181064498D03*
%TD*%
%TO.C,MX15*%
X142271498Y-126454498D03*
X155721498Y-123914498D03*
%TD*%
D10*
%TO.C,D27*%
X107959623Y-153997623D03*
X107959623Y-150697623D03*
%TD*%
D11*
%TO.C,MX24*%
X331580873Y-126454498D03*
X345030873Y-123914498D03*
%TD*%
D10*
%TO.C,D31*%
X204400248Y-153997623D03*
X204400248Y-150697623D03*
%TD*%
D11*
%TO.C,MX17*%
X195849623Y-126454498D03*
X209299623Y-123914498D03*
%TD*%
D18*
%TO.C,C4*%
X191795248Y-137150748D03*
X191795248Y-139050748D03*
%TD*%
D11*
%TO.C,MX19*%
X236330873Y-126454498D03*
X249780873Y-123914498D03*
%TD*%
D10*
%TO.C,D25*%
X354418998Y-134947623D03*
X354418998Y-131647623D03*
%TD*%
D11*
%TO.C,MX14*%
X123221498Y-126454498D03*
X136671498Y-123914498D03*
%TD*%
D10*
%TO.C,D16*%
X165109623Y-134947623D03*
X165109623Y-131647623D03*
%TD*%
D11*
%TO.C,MX39*%
X367299623Y-145504498D03*
X380749623Y-142964498D03*
%TD*%
D10*
%TO.C,D28*%
X127009623Y-153997623D03*
X127009623Y-150697623D03*
%TD*%
%TO.C,D9*%
X306793998Y-115897623D03*
X306793998Y-112597623D03*
%TD*%
%TO.C,D15*%
X146059623Y-134947623D03*
X146059623Y-131647623D03*
%TD*%
%TO.C,D61*%
X378231498Y-192097623D03*
X378231498Y-188797623D03*
%TD*%
D11*
%TO.C,MX9*%
X303005873Y-107404498D03*
X316455873Y-104864498D03*
%TD*%
%TO.C,MX27*%
X104171498Y-145504498D03*
X117621498Y-142964498D03*
%TD*%
D10*
%TO.C,D8*%
X287743998Y-115897623D03*
X287743998Y-112597623D03*
%TD*%
D11*
%TO.C,MX25*%
X350630873Y-126454498D03*
X364080873Y-123914498D03*
%TD*%
D10*
%TO.C,D50*%
X321081498Y-173047623D03*
X321081498Y-169747623D03*
%TD*%
D11*
%TO.C,MX32*%
X226805873Y-145504498D03*
X240255873Y-142964498D03*
%TD*%
%TO.C,MX29*%
X142271498Y-145504498D03*
X155721498Y-142964498D03*
%TD*%
D10*
%TO.C,D55*%
X199637748Y-192097623D03*
X199637748Y-188797623D03*
%TD*%
D11*
%TO.C,MX55*%
X195849623Y-183604498D03*
X209299623Y-181064498D03*
%TD*%
%TO.C,MX4*%
X200612123Y-107404498D03*
X214062123Y-104864498D03*
%TD*%
D10*
%TO.C,D47*%
X263931498Y-173047623D03*
X263931498Y-169747623D03*
%TD*%
D11*
%TO.C,MX31*%
X200612123Y-145504498D03*
X214062123Y-142964498D03*
%TD*%
%TO.C,MX60*%
X355393373Y-183604498D03*
X368843373Y-181064498D03*
%TD*%
D10*
%TO.C,D2*%
X145821498Y-115897623D03*
X145821498Y-112597623D03*
%TD*%
%TO.C,D22*%
X297268998Y-134947623D03*
X297268998Y-131647623D03*
%TD*%
D11*
%TO.C,MX34*%
X264905873Y-145504498D03*
X278355873Y-142964498D03*
%TD*%
D10*
%TO.C,D26*%
X375850248Y-134947623D03*
X375850248Y-131647623D03*
%TD*%
D11*
%TO.C,MX3*%
X161321498Y-107404498D03*
X174771498Y-104864498D03*
%TD*%
D10*
%TO.C,D35*%
X287743998Y-153997623D03*
X287743998Y-150697623D03*
%TD*%
%TO.C,D42*%
X146059623Y-173047623D03*
X146059623Y-169747623D03*
%TD*%
D11*
%TO.C,MX5*%
X226805873Y-107404498D03*
X240255873Y-104864498D03*
%TD*%
%TO.C,MX45*%
X222043373Y-164554498D03*
X235493373Y-162014498D03*
%TD*%
%TO.C,MX44*%
X198230873Y-164554498D03*
X211680873Y-162014498D03*
%TD*%
D10*
%TO.C,D20*%
X259168998Y-134947623D03*
X259168998Y-131647623D03*
%TD*%
D11*
%TO.C,MX37*%
X322055873Y-145504498D03*
X335505873Y-142964498D03*
%TD*%
%TO.C,MX61*%
X374443373Y-183604498D03*
X387893373Y-181064498D03*
%TD*%
D10*
%TO.C,D21*%
X278218998Y-134947623D03*
X278218998Y-131647623D03*
%TD*%
D11*
%TO.C,MX6*%
X245855873Y-107404498D03*
X259305873Y-104864498D03*
%TD*%
%TO.C,MX10*%
X322055873Y-107404498D03*
X335505873Y-104864498D03*
%TD*%
D10*
%TO.C,D48*%
X282981498Y-173047623D03*
X282981498Y-169747623D03*
%TD*%
%TO.C,D58*%
X275837748Y-192097623D03*
X275837748Y-188797623D03*
%TD*%
%TO.C,D19*%
X240118998Y-134947623D03*
X240118998Y-131647623D03*
%TD*%
%TO.C,D7*%
X268693998Y-115897623D03*
X268693998Y-112597623D03*
%TD*%
D19*
%TO.C,R1*%
X178521500Y-146372000D03*
X178521500Y-148197000D03*
%TD*%
D10*
%TO.C,D54*%
X155584623Y-192097623D03*
X155584623Y-188797623D03*
%TD*%
D11*
%TO.C,MX49*%
X298243373Y-164554498D03*
X311693373Y-162014498D03*
%TD*%
D10*
%TO.C,D38*%
X344893998Y-153997623D03*
X344893998Y-150697623D03*
%TD*%
D11*
%TO.C,MX30*%
X161321498Y-145504498D03*
X174771498Y-142964498D03*
%TD*%
D20*
%TO.C,J1*%
X180601500Y-121474500D03*
X181601500Y-121474500D03*
X182601500Y-121474500D03*
X183601500Y-121474500D03*
D21*
X179301500Y-117599500D03*
X184901500Y-117599500D03*
%TD*%
D10*
%TO.C,D32*%
X230593998Y-153997623D03*
X230593998Y-150697623D03*
%TD*%
D11*
%TO.C,MX22*%
X293480873Y-126454498D03*
X306930873Y-123914498D03*
%TD*%
D10*
%TO.C,D13*%
X107959623Y-134947623D03*
X107959623Y-131647623D03*
%TD*%
%TO.C,D29*%
X146059623Y-153997623D03*
X146059623Y-150697623D03*
%TD*%
%TO.C,D49*%
X302031498Y-173047623D03*
X302031498Y-169747623D03*
%TD*%
%TO.C,D60*%
X359181498Y-192097623D03*
X359181498Y-188797623D03*
%TD*%
D22*
%TO.C,R2*%
X176591500Y-148194500D03*
X176591500Y-146369500D03*
%TD*%
M02*
