%TF.GenerationSoftware,KiCad,Pcbnew,8.0.6*%
%TF.CreationDate,2024-12-20T15:26:13-07:00*%
%TF.ProjectId,tabesco-48,74616265-7363-46f2-9d34-382e6b696361,rev?*%
%TF.SameCoordinates,Original*%
%TF.FileFunction,Soldermask,Top*%
%TF.FilePolarity,Negative*%
%FSLAX46Y46*%
G04 Gerber Fmt 4.6, Leading zero omitted, Abs format (unit mm)*
G04 Created by KiCad (PCBNEW 8.0.6) date 2024-12-20 15:26:13*
%MOMM*%
%LPD*%
G01*
G04 APERTURE LIST*
%ADD10C,1.750000*%
%ADD11C,3.987800*%
%ADD12C,3.300000*%
%ADD13C,1.397000*%
%ADD14R,0.850000X0.850000*%
%ADD15O,0.850000X0.850000*%
G04 APERTURE END LIST*
D10*
%TO.C,MX56*%
X229720873Y-186144498D03*
D11*
X224640873Y-186144498D03*
D10*
X219560873Y-186144498D03*
D12*
X220830873Y-183604498D03*
X227180873Y-181064498D03*
%TD*%
D10*
%TO.C,MX1*%
X135661498Y-109944498D03*
D11*
X130581498Y-109944498D03*
D10*
X125501498Y-109944498D03*
D12*
X126771498Y-107404498D03*
X133121498Y-104864498D03*
%TD*%
D10*
%TO.C,MX59*%
X332114623Y-186144498D03*
D11*
X327034623Y-186144498D03*
D10*
X321954623Y-186144498D03*
D12*
X323224623Y-183604498D03*
X329574623Y-181064498D03*
%TD*%
D10*
%TO.C,MX46*%
X253533373Y-167094498D03*
D11*
X248453373Y-167094498D03*
D10*
X243373373Y-167094498D03*
D12*
X244643373Y-164554498D03*
X250993373Y-162014498D03*
%TD*%
D10*
%TO.C,MX2*%
X154711498Y-109944498D03*
D11*
X149631498Y-109944498D03*
D10*
X144551498Y-109944498D03*
D12*
X145821498Y-107404498D03*
X152171498Y-104864498D03*
%TD*%
D10*
%TO.C,MX58*%
X284489623Y-186144498D03*
D11*
X279409623Y-186144498D03*
D10*
X274329623Y-186144498D03*
D12*
X275599623Y-183604498D03*
X281949623Y-181064498D03*
%TD*%
D10*
%TO.C,MX8*%
X296395873Y-109944498D03*
D11*
X291315873Y-109944498D03*
D10*
X286235873Y-109944498D03*
D12*
X287505873Y-107404498D03*
X293855873Y-104864498D03*
%TD*%
D10*
%TO.C,MX50*%
X329733373Y-167094498D03*
D11*
X324653373Y-167094498D03*
D10*
X319573373Y-167094498D03*
D12*
X320843373Y-164554498D03*
X327193373Y-162014498D03*
%TD*%
D10*
%TO.C,MX42*%
X154711498Y-167094498D03*
D11*
X149631498Y-167094498D03*
D10*
X144551498Y-167094498D03*
D12*
X145821498Y-164554498D03*
X152171498Y-162014498D03*
%TD*%
D10*
%TO.C,MX41*%
X135661498Y-167094498D03*
D11*
X130581498Y-167094498D03*
D10*
X125501498Y-167094498D03*
D12*
X126771498Y-164554498D03*
X133121498Y-162014498D03*
%TD*%
D10*
%TO.C,MX12*%
X379739623Y-109944498D03*
D11*
X374659623Y-109944498D03*
D10*
X369579623Y-109944498D03*
D12*
X370849623Y-107404498D03*
X377199623Y-104864498D03*
%TD*%
D10*
%TO.C,MX52*%
X377358373Y-167094498D03*
D11*
X372278373Y-167094498D03*
D10*
X367198373Y-167094498D03*
D12*
X368468373Y-164554498D03*
X374818373Y-162014498D03*
%TD*%
D10*
%TO.C,MX40*%
X116611498Y-167094498D03*
D11*
X111531498Y-167094498D03*
D10*
X106451498Y-167094498D03*
D12*
X107721498Y-164554498D03*
X114071498Y-162014498D03*
%TD*%
D10*
%TO.C,MX54*%
X164236498Y-186144498D03*
D11*
X159156498Y-186144498D03*
D10*
X154076498Y-186144498D03*
D12*
X155346498Y-183604498D03*
X161696498Y-181064498D03*
%TD*%
D10*
%TO.C,MX35*%
X296395873Y-148044498D03*
D11*
X291315873Y-148044498D03*
D10*
X286235873Y-148044498D03*
D12*
X287505873Y-145504498D03*
X293855873Y-142964498D03*
%TD*%
D10*
%TO.C,MX28*%
X135661498Y-148044498D03*
D11*
X130581498Y-148044498D03*
D10*
X125501498Y-148044498D03*
D12*
X126771498Y-145504498D03*
X133121498Y-142964498D03*
%TD*%
D10*
%TO.C,MX23*%
X324970873Y-128994498D03*
D11*
X319890873Y-128994498D03*
D10*
X314810873Y-128994498D03*
D12*
X316080873Y-126454498D03*
X322430873Y-123914498D03*
%TD*%
D10*
%TO.C,MX11*%
X353545873Y-109944498D03*
D11*
X348465873Y-109944498D03*
D10*
X343385873Y-109944498D03*
D12*
X344655873Y-107404498D03*
X351005873Y-104864498D03*
%TD*%
D10*
%TO.C,MX7*%
X277345873Y-109944498D03*
D11*
X272265873Y-109944498D03*
D10*
X267185873Y-109944498D03*
D12*
X268455873Y-107404498D03*
X274805873Y-104864498D03*
%TD*%
D10*
%TO.C,MX47*%
X272583373Y-167094498D03*
D11*
X267503373Y-167094498D03*
D10*
X262423373Y-167094498D03*
D12*
X263693373Y-164554498D03*
X270043373Y-162014498D03*
%TD*%
D10*
%TO.C,MX16*%
X173761498Y-128994498D03*
D11*
X168681498Y-128994498D03*
D10*
X163601498Y-128994498D03*
D12*
X164871498Y-126454498D03*
X171221498Y-123914498D03*
%TD*%
D10*
%TO.C,MX18*%
X229720873Y-128994498D03*
D11*
X224640873Y-128994498D03*
D10*
X219560873Y-128994498D03*
D12*
X220830873Y-126454498D03*
X227180873Y-123914498D03*
%TD*%
D10*
%TO.C,MX33*%
X258295873Y-148044498D03*
D11*
X253215873Y-148044498D03*
D10*
X248135873Y-148044498D03*
D12*
X249405873Y-145504498D03*
X255755873Y-142964498D03*
%TD*%
D10*
%TO.C,MX21*%
X286870873Y-128994498D03*
D11*
X281790873Y-128994498D03*
D10*
X276710873Y-128994498D03*
D12*
X277980873Y-126454498D03*
X284330873Y-123914498D03*
%TD*%
D10*
%TO.C,MX43*%
X173761498Y-167094498D03*
D11*
X168681498Y-167094498D03*
D10*
X163601498Y-167094498D03*
D12*
X164871498Y-164554498D03*
X171221498Y-162014498D03*
%TD*%
D10*
%TO.C,MX26*%
X384502123Y-128994498D03*
D11*
X379422123Y-128994498D03*
D10*
X374342123Y-128994498D03*
D12*
X375612123Y-126454498D03*
X381962123Y-123914498D03*
%TD*%
D10*
%TO.C,MX48*%
X291633373Y-167094498D03*
D11*
X286553373Y-167094498D03*
D10*
X281473373Y-167094498D03*
D12*
X282743373Y-164554498D03*
X289093373Y-162014498D03*
%TD*%
D10*
%TO.C,MX20*%
X267820873Y-128994498D03*
D11*
X262740873Y-128994498D03*
D10*
X257660873Y-128994498D03*
D12*
X258930873Y-126454498D03*
X265280873Y-123914498D03*
%TD*%
D10*
%TO.C,MX51*%
X348783373Y-167094498D03*
D11*
X343703373Y-167094498D03*
D10*
X338623373Y-167094498D03*
D12*
X339893373Y-164554498D03*
X346243373Y-162014498D03*
%TD*%
D10*
%TO.C,MX53*%
X126136498Y-186144498D03*
D11*
X121056498Y-186144498D03*
D10*
X115976498Y-186144498D03*
D12*
X117246498Y-183604498D03*
X123596498Y-181064498D03*
%TD*%
D10*
%TO.C,MX0*%
X116611498Y-109944498D03*
D11*
X111531498Y-109944498D03*
D10*
X106451498Y-109944498D03*
D12*
X107721498Y-107404498D03*
X114071498Y-104864498D03*
%TD*%
D10*
%TO.C,MX38*%
X353545873Y-148044498D03*
D11*
X348465873Y-148044498D03*
D10*
X343385873Y-148044498D03*
D12*
X344655873Y-145504498D03*
X351005873Y-142964498D03*
%TD*%
D10*
%TO.C,MX36*%
X315445873Y-148044498D03*
D11*
X310365873Y-148044498D03*
D10*
X305285873Y-148044498D03*
D12*
X306555873Y-145504498D03*
X312905873Y-142964498D03*
%TD*%
D10*
%TO.C,MX13*%
X116611498Y-128994498D03*
D11*
X111531498Y-128994498D03*
D10*
X106451498Y-128994498D03*
D12*
X107721498Y-126454498D03*
X114071498Y-123914498D03*
%TD*%
D10*
%TO.C,MX57*%
X251152123Y-186144498D03*
D11*
X246072123Y-186144498D03*
D10*
X240992123Y-186144498D03*
D12*
X242262123Y-183604498D03*
X248612123Y-181064498D03*
%TD*%
D10*
%TO.C,MX15*%
X154711498Y-128994498D03*
D11*
X149631498Y-128994498D03*
D10*
X144551498Y-128994498D03*
D12*
X145821498Y-126454498D03*
X152171498Y-123914498D03*
%TD*%
D13*
%TO.C,SW0*%
X178890248Y-162250748D03*
X186510248Y-162250748D03*
X178890248Y-157170748D03*
X186510248Y-157170748D03*
%TD*%
D10*
%TO.C,MX24*%
X344020873Y-128994498D03*
D11*
X338940873Y-128994498D03*
D10*
X333860873Y-128994498D03*
D12*
X335130873Y-126454498D03*
X341480873Y-123914498D03*
%TD*%
D10*
%TO.C,MX17*%
X208289623Y-128994498D03*
D11*
X203209623Y-128994498D03*
D10*
X198129623Y-128994498D03*
D12*
X199399623Y-126454498D03*
X205749623Y-123914498D03*
%TD*%
D10*
%TO.C,MX19*%
X248770873Y-128994498D03*
D11*
X243690873Y-128994498D03*
D10*
X238610873Y-128994498D03*
D12*
X239880873Y-126454498D03*
X246230873Y-123914498D03*
%TD*%
D10*
%TO.C,MX14*%
X135661498Y-128994498D03*
D11*
X130581498Y-128994498D03*
D10*
X125501498Y-128994498D03*
D12*
X126771498Y-126454498D03*
X133121498Y-123914498D03*
%TD*%
D10*
%TO.C,MX39*%
X379739623Y-148044498D03*
D11*
X374659623Y-148044498D03*
D10*
X369579623Y-148044498D03*
D12*
X370849623Y-145504498D03*
X377199623Y-142964498D03*
%TD*%
D14*
%TO.C,J0*%
X181049258Y-136404238D03*
D15*
X182049258Y-136404238D03*
X181049258Y-135404238D03*
X182049258Y-135404238D03*
X181049258Y-134404238D03*
X182049258Y-134404238D03*
%TD*%
D10*
%TO.C,MX9*%
X315445873Y-109944498D03*
D11*
X310365873Y-109944498D03*
D10*
X305285873Y-109944498D03*
D12*
X306555873Y-107404498D03*
X312905873Y-104864498D03*
%TD*%
D10*
%TO.C,MX27*%
X116611498Y-148044498D03*
D11*
X111531498Y-148044498D03*
D10*
X106451498Y-148044498D03*
D12*
X107721498Y-145504498D03*
X114071498Y-142964498D03*
%TD*%
D10*
%TO.C,MX25*%
X363070873Y-128994498D03*
D11*
X357990873Y-128994498D03*
D10*
X352910873Y-128994498D03*
D12*
X354180873Y-126454498D03*
X360530873Y-123914498D03*
%TD*%
D10*
%TO.C,MX32*%
X239245873Y-148044498D03*
D11*
X234165873Y-148044498D03*
D10*
X229085873Y-148044498D03*
D12*
X230355873Y-145504498D03*
X236705873Y-142964498D03*
%TD*%
D10*
%TO.C,MX29*%
X154711498Y-148044498D03*
D11*
X149631498Y-148044498D03*
D10*
X144551498Y-148044498D03*
D12*
X145821498Y-145504498D03*
X152171498Y-142964498D03*
%TD*%
D10*
%TO.C,MX55*%
X208289623Y-186144498D03*
D11*
X203209623Y-186144498D03*
D10*
X198129623Y-186144498D03*
D12*
X199399623Y-183604498D03*
X205749623Y-181064498D03*
%TD*%
D10*
%TO.C,MX4*%
X213052123Y-109944498D03*
D11*
X207972123Y-109944498D03*
D10*
X202892123Y-109944498D03*
D12*
X204162123Y-107404498D03*
X210512123Y-104864498D03*
%TD*%
D10*
%TO.C,MX31*%
X213052123Y-148044498D03*
D11*
X207972123Y-148044498D03*
D10*
X202892123Y-148044498D03*
D12*
X204162123Y-145504498D03*
X210512123Y-142964498D03*
%TD*%
D10*
%TO.C,MX60*%
X367833373Y-186144498D03*
D11*
X362753373Y-186144498D03*
D10*
X357673373Y-186144498D03*
D12*
X358943373Y-183604498D03*
X365293373Y-181064498D03*
%TD*%
D10*
%TO.C,MX34*%
X277345873Y-148044498D03*
D11*
X272265873Y-148044498D03*
D10*
X267185873Y-148044498D03*
D12*
X268455873Y-145504498D03*
X274805873Y-142964498D03*
%TD*%
D10*
%TO.C,MX3*%
X173761498Y-109944498D03*
D11*
X168681498Y-109944498D03*
D10*
X163601498Y-109944498D03*
D12*
X164871498Y-107404498D03*
X171221498Y-104864498D03*
%TD*%
D10*
%TO.C,MX5*%
X239245873Y-109944498D03*
D11*
X234165873Y-109944498D03*
D10*
X229085873Y-109944498D03*
D12*
X230355873Y-107404498D03*
X236705873Y-104864498D03*
%TD*%
D10*
%TO.C,MX45*%
X234483373Y-167094498D03*
D11*
X229403373Y-167094498D03*
D10*
X224323373Y-167094498D03*
D12*
X225593373Y-164554498D03*
X231943373Y-162014498D03*
%TD*%
D10*
%TO.C,MX44*%
X210670873Y-167094498D03*
D11*
X205590873Y-167094498D03*
D10*
X200510873Y-167094498D03*
D12*
X201780873Y-164554498D03*
X208130873Y-162014498D03*
%TD*%
D10*
%TO.C,MX37*%
X334495873Y-148044498D03*
D11*
X329415873Y-148044498D03*
D10*
X324335873Y-148044498D03*
D12*
X325605873Y-145504498D03*
X331955873Y-142964498D03*
%TD*%
D10*
%TO.C,MX61*%
X386883373Y-186144498D03*
D11*
X381803373Y-186144498D03*
D10*
X376723373Y-186144498D03*
D12*
X377993373Y-183604498D03*
X384343373Y-181064498D03*
%TD*%
D10*
%TO.C,MX6*%
X258295873Y-109944498D03*
D11*
X253215873Y-109944498D03*
D10*
X248135873Y-109944498D03*
D12*
X249405873Y-107404498D03*
X255755873Y-104864498D03*
%TD*%
D10*
%TO.C,MX10*%
X334495873Y-109944498D03*
D11*
X329415873Y-109944498D03*
D10*
X324335873Y-109944498D03*
D12*
X325605873Y-107404498D03*
X331955873Y-104864498D03*
%TD*%
D10*
%TO.C,MX49*%
X310683373Y-167094498D03*
D11*
X305603373Y-167094498D03*
D10*
X300523373Y-167094498D03*
D12*
X301793373Y-164554498D03*
X308143373Y-162014498D03*
%TD*%
D10*
%TO.C,MX30*%
X173761498Y-148044498D03*
D11*
X168681498Y-148044498D03*
D10*
X163601498Y-148044498D03*
D12*
X164871498Y-145504498D03*
X171221498Y-142964498D03*
%TD*%
D10*
%TO.C,MX22*%
X305920873Y-128994498D03*
D11*
X300840873Y-128994498D03*
D10*
X295760873Y-128994498D03*
D12*
X297030873Y-126454498D03*
X303380873Y-123914498D03*
%TD*%
M02*
