%TF.GenerationSoftware,KiCad,Pcbnew,8.0.6*%
%TF.CreationDate,2024-12-20T15:26:13-07:00*%
%TF.ProjectId,tabesco-48,74616265-7363-46f2-9d34-382e6b696361,rev?*%
%TF.SameCoordinates,Original*%
%TF.FileFunction,Soldermask,Bot*%
%TF.FilePolarity,Negative*%
%FSLAX46Y46*%
G04 Gerber Fmt 4.6, Leading zero omitted, Abs format (unit mm)*
G04 Created by KiCad (PCBNEW 8.0.6) date 2024-12-20 15:26:13*
%MOMM*%
%LPD*%
G01*
G04 APERTURE LIST*
G04 Aperture macros list*
%AMRoundRect*
0 Rectangle with rounded corners*
0 $1 Rounding radius*
0 $2 $3 $4 $5 $6 $7 $8 $9 X,Y pos of 4 corners*
0 Add a 4 corners polygon primitive as box body*
4,1,4,$2,$3,$4,$5,$6,$7,$8,$9,$2,$3,0*
0 Add four circle primitives for the rounded corners*
1,1,$1+$1,$2,$3*
1,1,$1+$1,$4,$5*
1,1,$1+$1,$6,$7*
1,1,$1+$1,$8,$9*
0 Add four rect primitives between the rounded corners*
20,1,$1+$1,$2,$3,$4,$5,0*
20,1,$1+$1,$4,$5,$6,$7,0*
20,1,$1+$1,$6,$7,$8,$9,0*
20,1,$1+$1,$8,$9,$2,$3,0*%
G04 Aperture macros list end*
%ADD10RoundRect,0.225000X0.375000X-0.225000X0.375000X0.225000X-0.375000X0.225000X-0.375000X-0.225000X0*%
%ADD11C,1.750000*%
%ADD12C,3.987800*%
%ADD13C,3.300000*%
%ADD14RoundRect,0.250000X1.025000X1.000000X-1.025000X1.000000X-1.025000X-1.000000X1.025000X-1.000000X0*%
%ADD15RoundRect,0.250000X0.262500X0.450000X-0.262500X0.450000X-0.262500X-0.450000X0.262500X-0.450000X0*%
%ADD16RoundRect,0.250000X0.250000X0.475000X-0.250000X0.475000X-0.250000X-0.475000X0.250000X-0.475000X0*%
%ADD17RoundRect,0.250000X0.475000X-0.250000X0.475000X0.250000X-0.475000X0.250000X-0.475000X-0.250000X0*%
%ADD18R,1.500000X0.550000*%
%ADD19R,0.550000X1.500000*%
%ADD20R,1.400000X1.200000*%
%ADD21RoundRect,0.250000X-0.475000X0.250000X-0.475000X-0.250000X0.475000X-0.250000X0.475000X0.250000X0*%
%ADD22RoundRect,0.250000X-0.450000X0.262500X-0.450000X-0.262500X0.450000X-0.262500X0.450000X0.262500X0*%
%ADD23C,1.397000*%
%ADD24R,0.850000X0.850000*%
%ADD25O,0.850000X0.850000*%
%ADD26RoundRect,0.150000X-0.150000X-0.625000X0.150000X-0.625000X0.150000X0.625000X-0.150000X0.625000X0*%
%ADD27RoundRect,0.250000X-0.350000X-0.650000X0.350000X-0.650000X0.350000X0.650000X-0.350000X0.650000X0*%
%ADD28RoundRect,0.250000X0.450000X-0.262500X0.450000X0.262500X-0.450000X0.262500X-0.450000X-0.262500X0*%
G04 APERTURE END LIST*
D10*
%TO.C,D23*%
X316318998Y-134947623D03*
X316318998Y-131647623D03*
%TD*%
D11*
%TO.C,MX56*%
X229720873Y-186144498D03*
D12*
X224640873Y-186144498D03*
D11*
X219560873Y-186144498D03*
D13*
X220830873Y-183604498D03*
D14*
X217280873Y-183604498D03*
X230730873Y-181064498D03*
D13*
X227180873Y-181064498D03*
%TD*%
D11*
%TO.C,MX1*%
X135661498Y-109944498D03*
D12*
X130581498Y-109944498D03*
D11*
X125501498Y-109944498D03*
D13*
X126771498Y-107404498D03*
D14*
X123221498Y-107404498D03*
X136671498Y-104864498D03*
D13*
X133121498Y-104864498D03*
%TD*%
D10*
%TO.C,D0*%
X107959623Y-115897623D03*
X107959623Y-112597623D03*
%TD*%
D11*
%TO.C,MX59*%
X332114623Y-186144498D03*
D12*
X327034623Y-186144498D03*
D11*
X321954623Y-186144498D03*
D13*
X323224623Y-183604498D03*
D14*
X319674623Y-183604498D03*
X333124623Y-181064498D03*
D13*
X329574623Y-181064498D03*
%TD*%
D10*
%TO.C,D39*%
X371087748Y-153997623D03*
X371087748Y-150697623D03*
%TD*%
%TO.C,D56*%
X221068998Y-192097623D03*
X221068998Y-188797623D03*
%TD*%
%TO.C,D4*%
X204400248Y-115897623D03*
X204400248Y-112597623D03*
%TD*%
D15*
%TO.C,R3*%
X196182748Y-158170748D03*
X194357748Y-158170748D03*
%TD*%
D11*
%TO.C,MX46*%
X253533373Y-167094498D03*
D12*
X248453373Y-167094498D03*
D11*
X243373373Y-167094498D03*
D13*
X244643373Y-164554498D03*
D14*
X241093373Y-164554498D03*
X254543373Y-162014498D03*
D13*
X250993373Y-162014498D03*
%TD*%
D10*
%TO.C,D45*%
X225831498Y-173047623D03*
X225831498Y-169747623D03*
%TD*%
%TO.C,D36*%
X306793998Y-153997623D03*
X306793998Y-150697623D03*
%TD*%
D11*
%TO.C,MX2*%
X154711498Y-109944498D03*
D12*
X149631498Y-109944498D03*
D11*
X144551498Y-109944498D03*
D13*
X145821498Y-107404498D03*
D14*
X142271498Y-107404498D03*
X155721498Y-104864498D03*
D13*
X152171498Y-104864498D03*
%TD*%
D16*
%TO.C,C6*%
X182891500Y-148294500D03*
X180991500Y-148294500D03*
%TD*%
D11*
%TO.C,MX58*%
X284489623Y-186144498D03*
D12*
X279409623Y-186144498D03*
D11*
X274329623Y-186144498D03*
D13*
X275599623Y-183604498D03*
D14*
X272049623Y-183604498D03*
X285499623Y-181064498D03*
D13*
X281949623Y-181064498D03*
%TD*%
D10*
%TO.C,D52*%
X368706498Y-173047623D03*
X368706498Y-169747623D03*
%TD*%
%TO.C,D10*%
X325843998Y-115897623D03*
X325843998Y-112597623D03*
%TD*%
D11*
%TO.C,MX8*%
X296395873Y-109944498D03*
D12*
X291315873Y-109944498D03*
D11*
X286235873Y-109944498D03*
D13*
X287505873Y-107404498D03*
D14*
X283955873Y-107404498D03*
X297405873Y-104864498D03*
D13*
X293855873Y-104864498D03*
%TD*%
D11*
%TO.C,MX50*%
X329733373Y-167094498D03*
D12*
X324653373Y-167094498D03*
D11*
X319573373Y-167094498D03*
D13*
X320843373Y-164554498D03*
D14*
X317293373Y-164554498D03*
X330743373Y-162014498D03*
D13*
X327193373Y-162014498D03*
%TD*%
D10*
%TO.C,D30*%
X165109623Y-153997623D03*
X165109623Y-150697623D03*
%TD*%
%TO.C,D57*%
X242500248Y-192097623D03*
X242500248Y-188797623D03*
%TD*%
%TO.C,D34*%
X268693998Y-153997623D03*
X268693998Y-150697623D03*
%TD*%
%TO.C,D37*%
X325843998Y-153997623D03*
X325843998Y-150697623D03*
%TD*%
D11*
%TO.C,MX42*%
X154711498Y-167094498D03*
D12*
X149631498Y-167094498D03*
D11*
X144551498Y-167094498D03*
D13*
X145821498Y-164554498D03*
D14*
X142271498Y-164554498D03*
X155721498Y-162014498D03*
D13*
X152171498Y-162014498D03*
%TD*%
D11*
%TO.C,MX41*%
X135661498Y-167094498D03*
D12*
X130581498Y-167094498D03*
D11*
X125501498Y-167094498D03*
D13*
X126771498Y-164554498D03*
D14*
X123221498Y-164554498D03*
X136671498Y-162014498D03*
D13*
X133121498Y-162014498D03*
%TD*%
D11*
%TO.C,MX12*%
X379739623Y-109944498D03*
D12*
X374659623Y-109944498D03*
D11*
X369579623Y-109944498D03*
D13*
X370849623Y-107404498D03*
D14*
X367299623Y-107404498D03*
X380749623Y-104864498D03*
D13*
X377199623Y-104864498D03*
%TD*%
D11*
%TO.C,MX52*%
X377358373Y-167094498D03*
D12*
X372278373Y-167094498D03*
D11*
X367198373Y-167094498D03*
D13*
X368468373Y-164554498D03*
D14*
X364918373Y-164554498D03*
X378368373Y-162014498D03*
D13*
X374818373Y-162014498D03*
%TD*%
D10*
%TO.C,D44*%
X202018998Y-173047623D03*
X202018998Y-169747623D03*
%TD*%
%TO.C,D41*%
X127009623Y-173047623D03*
X127009623Y-169747623D03*
%TD*%
%TO.C,D33*%
X249643998Y-153997623D03*
X249643998Y-150697623D03*
%TD*%
%TO.C,D40*%
X107959623Y-173047623D03*
X107959623Y-169747623D03*
%TD*%
%TO.C,D24*%
X335368998Y-134947623D03*
X335368998Y-131647623D03*
%TD*%
D11*
%TO.C,MX40*%
X116611498Y-167094498D03*
D12*
X111531498Y-167094498D03*
D11*
X106451498Y-167094498D03*
D13*
X107721498Y-164554498D03*
D14*
X104171498Y-164554498D03*
X117621498Y-162014498D03*
D13*
X114071498Y-162014498D03*
%TD*%
D10*
%TO.C,D5*%
X230593998Y-115897623D03*
X230593998Y-112597623D03*
%TD*%
%TO.C,D59*%
X323462748Y-192097623D03*
X323462748Y-188797623D03*
%TD*%
D17*
%TO.C,C5*%
X185345248Y-139050748D03*
X185345248Y-137150748D03*
%TD*%
D11*
%TO.C,MX54*%
X164236498Y-186144498D03*
D12*
X159156498Y-186144498D03*
D11*
X154076498Y-186144498D03*
D13*
X155346498Y-183604498D03*
D14*
X151796498Y-183604498D03*
X165246498Y-181064498D03*
D13*
X161696498Y-181064498D03*
%TD*%
D11*
%TO.C,MX35*%
X296395873Y-148044498D03*
D12*
X291315873Y-148044498D03*
D11*
X286235873Y-148044498D03*
D13*
X287505873Y-145504498D03*
D14*
X283955873Y-145504498D03*
X297405873Y-142964498D03*
D13*
X293855873Y-142964498D03*
%TD*%
D11*
%TO.C,MX28*%
X135661498Y-148044498D03*
D12*
X130581498Y-148044498D03*
D11*
X125501498Y-148044498D03*
D13*
X126771498Y-145504498D03*
D14*
X123221498Y-145504498D03*
X136671498Y-142964498D03*
D13*
X133121498Y-142964498D03*
%TD*%
D10*
%TO.C,D6*%
X249643998Y-115897623D03*
X249643998Y-112597623D03*
%TD*%
D16*
%TO.C,C0*%
X198589000Y-139946375D03*
X196689000Y-139946375D03*
%TD*%
D18*
%TO.C,U1*%
X184990248Y-152320748D03*
X184990248Y-151520748D03*
X184990248Y-150720748D03*
X184990248Y-149920748D03*
X184990248Y-149120748D03*
X184990248Y-148320748D03*
X184990248Y-147520748D03*
X184990248Y-146720748D03*
X184990248Y-145920748D03*
X184990248Y-145120748D03*
X184990248Y-144320748D03*
D19*
X186690248Y-142620748D03*
X187490248Y-142620748D03*
X188290248Y-142620748D03*
X189090248Y-142620748D03*
X189890248Y-142620748D03*
X190690248Y-142620748D03*
X191490248Y-142620748D03*
X192290248Y-142620748D03*
X193090248Y-142620748D03*
X193890248Y-142620748D03*
X194690248Y-142620748D03*
D18*
X196390248Y-144320748D03*
X196390248Y-145120748D03*
X196390248Y-145920748D03*
X196390248Y-146720748D03*
X196390248Y-147520748D03*
X196390248Y-148320748D03*
X196390248Y-149120748D03*
X196390248Y-149920748D03*
X196390248Y-150720748D03*
X196390248Y-151520748D03*
X196390248Y-152320748D03*
D19*
X194690248Y-154020748D03*
X193890248Y-154020748D03*
X193090248Y-154020748D03*
X192290248Y-154020748D03*
X191490248Y-154020748D03*
X190690248Y-154020748D03*
X189890248Y-154020748D03*
X189090248Y-154020748D03*
X188290248Y-154020748D03*
X187490248Y-154020748D03*
X186690248Y-154020748D03*
%TD*%
D10*
%TO.C,D51*%
X340131498Y-173047623D03*
X340131498Y-169747623D03*
%TD*%
%TO.C,D1*%
X127009623Y-115897623D03*
X127009623Y-112597623D03*
%TD*%
%TO.C,D3*%
X165109623Y-115897623D03*
X165109623Y-112597623D03*
%TD*%
D20*
%TO.C,Y0*%
X189665248Y-138950748D03*
X187465248Y-138950748D03*
X187465248Y-137250748D03*
X189665248Y-137250748D03*
%TD*%
D11*
%TO.C,MX23*%
X324970873Y-128994498D03*
D12*
X319890873Y-128994498D03*
D11*
X314810873Y-128994498D03*
D13*
X316080873Y-126454498D03*
D14*
X312530873Y-126454498D03*
X325980873Y-123914498D03*
D13*
X322430873Y-123914498D03*
%TD*%
D10*
%TO.C,D43*%
X165109623Y-173047623D03*
X165109623Y-169747623D03*
%TD*%
%TO.C,D11*%
X344893998Y-115897623D03*
X344893998Y-112597623D03*
%TD*%
D11*
%TO.C,MX11*%
X353545873Y-109944498D03*
D12*
X348465873Y-109944498D03*
D11*
X343385873Y-109944498D03*
D13*
X344655873Y-107404498D03*
D14*
X341105873Y-107404498D03*
X354555873Y-104864498D03*
D13*
X351005873Y-104864498D03*
%TD*%
D11*
%TO.C,MX7*%
X277345873Y-109944498D03*
D12*
X272265873Y-109944498D03*
D11*
X267185873Y-109944498D03*
D13*
X268455873Y-107404498D03*
D14*
X264905873Y-107404498D03*
X278355873Y-104864498D03*
D13*
X274805873Y-104864498D03*
%TD*%
D10*
%TO.C,D17*%
X199637748Y-134947623D03*
X199637748Y-131647623D03*
%TD*%
D11*
%TO.C,MX47*%
X272583373Y-167094498D03*
D12*
X267503373Y-167094498D03*
D11*
X262423373Y-167094498D03*
D13*
X263693373Y-164554498D03*
D14*
X260143373Y-164554498D03*
X273593373Y-162014498D03*
D13*
X270043373Y-162014498D03*
%TD*%
D11*
%TO.C,MX16*%
X173761498Y-128994498D03*
D12*
X168681498Y-128994498D03*
D11*
X163601498Y-128994498D03*
D13*
X164871498Y-126454498D03*
D14*
X161321498Y-126454498D03*
X174771498Y-123914498D03*
D13*
X171221498Y-123914498D03*
%TD*%
D11*
%TO.C,MX18*%
X229720873Y-128994498D03*
D12*
X224640873Y-128994498D03*
D11*
X219560873Y-128994498D03*
D13*
X220830873Y-126454498D03*
D14*
X217280873Y-126454498D03*
X230730873Y-123914498D03*
D13*
X227180873Y-123914498D03*
%TD*%
D10*
%TO.C,D46*%
X244881498Y-173047623D03*
X244881498Y-169747623D03*
%TD*%
D11*
%TO.C,MX33*%
X258295873Y-148044498D03*
D12*
X253215873Y-148044498D03*
D11*
X248135873Y-148044498D03*
D13*
X249405873Y-145504498D03*
D14*
X245855873Y-145504498D03*
X259305873Y-142964498D03*
D13*
X255755873Y-142964498D03*
%TD*%
D11*
%TO.C,MX21*%
X286870873Y-128994498D03*
D12*
X281790873Y-128994498D03*
D11*
X276710873Y-128994498D03*
D13*
X277980873Y-126454498D03*
D14*
X274430873Y-126454498D03*
X287880873Y-123914498D03*
D13*
X284330873Y-123914498D03*
%TD*%
D11*
%TO.C,MX43*%
X173761498Y-167094498D03*
D12*
X168681498Y-167094498D03*
D11*
X163601498Y-167094498D03*
D13*
X164871498Y-164554498D03*
D14*
X161321498Y-164554498D03*
X174771498Y-162014498D03*
D13*
X171221498Y-162014498D03*
%TD*%
D11*
%TO.C,MX26*%
X384502123Y-128994498D03*
D12*
X379422123Y-128994498D03*
D11*
X374342123Y-128994498D03*
D13*
X375612123Y-126454498D03*
D14*
X372062123Y-126454498D03*
X385512123Y-123914498D03*
D13*
X381962123Y-123914498D03*
%TD*%
D21*
%TO.C,C3*%
X180650248Y-151770748D03*
X180650248Y-153670748D03*
%TD*%
D22*
%TO.C,R0*%
X180919258Y-140341738D03*
X180919258Y-142166738D03*
%TD*%
D11*
%TO.C,MX48*%
X291633373Y-167094498D03*
D12*
X286553373Y-167094498D03*
D11*
X281473373Y-167094498D03*
D13*
X282743373Y-164554498D03*
D14*
X279193373Y-164554498D03*
X292643373Y-162014498D03*
D13*
X289093373Y-162014498D03*
%TD*%
D10*
%TO.C,D18*%
X221068998Y-134947623D03*
X221068998Y-131647623D03*
%TD*%
D11*
%TO.C,MX20*%
X267820873Y-128994498D03*
D12*
X262740873Y-128994498D03*
D11*
X257660873Y-128994498D03*
D13*
X258930873Y-126454498D03*
D14*
X255380873Y-126454498D03*
X268830873Y-123914498D03*
D13*
X265280873Y-123914498D03*
%TD*%
D10*
%TO.C,D53*%
X117484623Y-192097623D03*
X117484623Y-188797623D03*
%TD*%
%TO.C,D12*%
X371087748Y-115897623D03*
X371087748Y-112597623D03*
%TD*%
D16*
%TO.C,C2*%
X195990248Y-156030748D03*
X194090248Y-156030748D03*
%TD*%
D10*
%TO.C,D14*%
X127009623Y-134947623D03*
X127009623Y-131647623D03*
%TD*%
D11*
%TO.C,MX51*%
X348783373Y-167094498D03*
D12*
X343703373Y-167094498D03*
D11*
X338623373Y-167094498D03*
D13*
X339893373Y-164554498D03*
D14*
X336343373Y-164554498D03*
X349793373Y-162014498D03*
D13*
X346243373Y-162014498D03*
%TD*%
D11*
%TO.C,MX53*%
X126136498Y-186144498D03*
D12*
X121056498Y-186144498D03*
D11*
X115976498Y-186144498D03*
D13*
X117246498Y-183604498D03*
D14*
X113696498Y-183604498D03*
X127146498Y-181064498D03*
D13*
X123596498Y-181064498D03*
%TD*%
D11*
%TO.C,MX0*%
X116611498Y-109944498D03*
D12*
X111531498Y-109944498D03*
D11*
X106451498Y-109944498D03*
D13*
X107721498Y-107404498D03*
D14*
X104171498Y-107404498D03*
X117621498Y-104864498D03*
D13*
X114071498Y-104864498D03*
%TD*%
D11*
%TO.C,MX38*%
X353545873Y-148044498D03*
D12*
X348465873Y-148044498D03*
D11*
X343385873Y-148044498D03*
D13*
X344655873Y-145504498D03*
D14*
X341105873Y-145504498D03*
X354555873Y-142964498D03*
D13*
X351005873Y-142964498D03*
%TD*%
D17*
%TO.C,C1*%
X182979258Y-141634238D03*
X182979258Y-139734238D03*
%TD*%
D11*
%TO.C,MX36*%
X315445873Y-148044498D03*
D12*
X310365873Y-148044498D03*
D11*
X305285873Y-148044498D03*
D13*
X306555873Y-145504498D03*
D14*
X303005873Y-145504498D03*
X316455873Y-142964498D03*
D13*
X312905873Y-142964498D03*
%TD*%
D11*
%TO.C,MX13*%
X116611498Y-128994498D03*
D12*
X111531498Y-128994498D03*
D11*
X106451498Y-128994498D03*
D13*
X107721498Y-126454498D03*
D14*
X104171498Y-126454498D03*
X117621498Y-123914498D03*
D13*
X114071498Y-123914498D03*
%TD*%
D11*
%TO.C,MX57*%
X251152123Y-186144498D03*
D12*
X246072123Y-186144498D03*
D11*
X240992123Y-186144498D03*
D13*
X242262123Y-183604498D03*
D14*
X238712123Y-183604498D03*
X252162123Y-181064498D03*
D13*
X248612123Y-181064498D03*
%TD*%
D11*
%TO.C,MX15*%
X154711498Y-128994498D03*
D12*
X149631498Y-128994498D03*
D11*
X144551498Y-128994498D03*
D13*
X145821498Y-126454498D03*
D14*
X142271498Y-126454498D03*
X155721498Y-123914498D03*
D13*
X152171498Y-123914498D03*
%TD*%
D10*
%TO.C,D27*%
X107959623Y-153997623D03*
X107959623Y-150697623D03*
%TD*%
D23*
%TO.C,SW0*%
X178890248Y-162250748D03*
X186510248Y-162250748D03*
X178890248Y-157170748D03*
X186510248Y-157170748D03*
%TD*%
D11*
%TO.C,MX24*%
X344020873Y-128994498D03*
D12*
X338940873Y-128994498D03*
D11*
X333860873Y-128994498D03*
D13*
X335130873Y-126454498D03*
D14*
X331580873Y-126454498D03*
X345030873Y-123914498D03*
D13*
X341480873Y-123914498D03*
%TD*%
D10*
%TO.C,D31*%
X204400248Y-153997623D03*
X204400248Y-150697623D03*
%TD*%
D11*
%TO.C,MX17*%
X208289623Y-128994498D03*
D12*
X203209623Y-128994498D03*
D11*
X198129623Y-128994498D03*
D13*
X199399623Y-126454498D03*
D14*
X195849623Y-126454498D03*
X209299623Y-123914498D03*
D13*
X205749623Y-123914498D03*
%TD*%
D21*
%TO.C,C4*%
X191795248Y-137150748D03*
X191795248Y-139050748D03*
%TD*%
D11*
%TO.C,MX19*%
X248770873Y-128994498D03*
D12*
X243690873Y-128994498D03*
D11*
X238610873Y-128994498D03*
D13*
X239880873Y-126454498D03*
D14*
X236330873Y-126454498D03*
X249780873Y-123914498D03*
D13*
X246230873Y-123914498D03*
%TD*%
D10*
%TO.C,D25*%
X354418998Y-134947623D03*
X354418998Y-131647623D03*
%TD*%
D11*
%TO.C,MX14*%
X135661498Y-128994498D03*
D12*
X130581498Y-128994498D03*
D11*
X125501498Y-128994498D03*
D13*
X126771498Y-126454498D03*
D14*
X123221498Y-126454498D03*
X136671498Y-123914498D03*
D13*
X133121498Y-123914498D03*
%TD*%
D10*
%TO.C,D16*%
X165109623Y-134947623D03*
X165109623Y-131647623D03*
%TD*%
D11*
%TO.C,MX39*%
X379739623Y-148044498D03*
D12*
X374659623Y-148044498D03*
D11*
X369579623Y-148044498D03*
D13*
X370849623Y-145504498D03*
D14*
X367299623Y-145504498D03*
X380749623Y-142964498D03*
D13*
X377199623Y-142964498D03*
%TD*%
D10*
%TO.C,D28*%
X127009623Y-153997623D03*
X127009623Y-150697623D03*
%TD*%
%TO.C,D9*%
X306793998Y-115897623D03*
X306793998Y-112597623D03*
%TD*%
D24*
%TO.C,J0*%
X181049258Y-136404238D03*
D25*
X182049258Y-136404238D03*
X181049258Y-135404238D03*
X182049258Y-135404238D03*
X181049258Y-134404238D03*
X182049258Y-134404238D03*
%TD*%
D10*
%TO.C,D15*%
X146059623Y-134947623D03*
X146059623Y-131647623D03*
%TD*%
%TO.C,D61*%
X378231498Y-192097623D03*
X378231498Y-188797623D03*
%TD*%
D11*
%TO.C,MX9*%
X315445873Y-109944498D03*
D12*
X310365873Y-109944498D03*
D11*
X305285873Y-109944498D03*
D13*
X306555873Y-107404498D03*
D14*
X303005873Y-107404498D03*
X316455873Y-104864498D03*
D13*
X312905873Y-104864498D03*
%TD*%
D11*
%TO.C,MX27*%
X116611498Y-148044498D03*
D12*
X111531498Y-148044498D03*
D11*
X106451498Y-148044498D03*
D13*
X107721498Y-145504498D03*
D14*
X104171498Y-145504498D03*
X117621498Y-142964498D03*
D13*
X114071498Y-142964498D03*
%TD*%
D10*
%TO.C,D8*%
X287743998Y-115897623D03*
X287743998Y-112597623D03*
%TD*%
D11*
%TO.C,MX25*%
X363070873Y-128994498D03*
D12*
X357990873Y-128994498D03*
D11*
X352910873Y-128994498D03*
D13*
X354180873Y-126454498D03*
D14*
X350630873Y-126454498D03*
X364080873Y-123914498D03*
D13*
X360530873Y-123914498D03*
%TD*%
D10*
%TO.C,D50*%
X321081498Y-173047623D03*
X321081498Y-169747623D03*
%TD*%
D11*
%TO.C,MX32*%
X239245873Y-148044498D03*
D12*
X234165873Y-148044498D03*
D11*
X229085873Y-148044498D03*
D13*
X230355873Y-145504498D03*
D14*
X226805873Y-145504498D03*
X240255873Y-142964498D03*
D13*
X236705873Y-142964498D03*
%TD*%
D11*
%TO.C,MX29*%
X154711498Y-148044498D03*
D12*
X149631498Y-148044498D03*
D11*
X144551498Y-148044498D03*
D13*
X145821498Y-145504498D03*
D14*
X142271498Y-145504498D03*
X155721498Y-142964498D03*
D13*
X152171498Y-142964498D03*
%TD*%
D10*
%TO.C,D55*%
X199637748Y-192097623D03*
X199637748Y-188797623D03*
%TD*%
D11*
%TO.C,MX55*%
X208289623Y-186144498D03*
D12*
X203209623Y-186144498D03*
D11*
X198129623Y-186144498D03*
D13*
X199399623Y-183604498D03*
D14*
X195849623Y-183604498D03*
X209299623Y-181064498D03*
D13*
X205749623Y-181064498D03*
%TD*%
D11*
%TO.C,MX4*%
X213052123Y-109944498D03*
D12*
X207972123Y-109944498D03*
D11*
X202892123Y-109944498D03*
D13*
X204162123Y-107404498D03*
D14*
X200612123Y-107404498D03*
X214062123Y-104864498D03*
D13*
X210512123Y-104864498D03*
%TD*%
D10*
%TO.C,D47*%
X263931498Y-173047623D03*
X263931498Y-169747623D03*
%TD*%
D11*
%TO.C,MX31*%
X213052123Y-148044498D03*
D12*
X207972123Y-148044498D03*
D11*
X202892123Y-148044498D03*
D13*
X204162123Y-145504498D03*
D14*
X200612123Y-145504498D03*
X214062123Y-142964498D03*
D13*
X210512123Y-142964498D03*
%TD*%
D11*
%TO.C,MX60*%
X367833373Y-186144498D03*
D12*
X362753373Y-186144498D03*
D11*
X357673373Y-186144498D03*
D13*
X358943373Y-183604498D03*
D14*
X355393373Y-183604498D03*
X368843373Y-181064498D03*
D13*
X365293373Y-181064498D03*
%TD*%
D10*
%TO.C,D2*%
X145821498Y-115897623D03*
X145821498Y-112597623D03*
%TD*%
%TO.C,D22*%
X297268998Y-134947623D03*
X297268998Y-131647623D03*
%TD*%
D11*
%TO.C,MX34*%
X277345873Y-148044498D03*
D12*
X272265873Y-148044498D03*
D11*
X267185873Y-148044498D03*
D13*
X268455873Y-145504498D03*
D14*
X264905873Y-145504498D03*
X278355873Y-142964498D03*
D13*
X274805873Y-142964498D03*
%TD*%
D10*
%TO.C,D26*%
X375850248Y-134947623D03*
X375850248Y-131647623D03*
%TD*%
D11*
%TO.C,MX3*%
X173761498Y-109944498D03*
D12*
X168681498Y-109944498D03*
D11*
X163601498Y-109944498D03*
D13*
X164871498Y-107404498D03*
D14*
X161321498Y-107404498D03*
X174771498Y-104864498D03*
D13*
X171221498Y-104864498D03*
%TD*%
D10*
%TO.C,D35*%
X287743998Y-153997623D03*
X287743998Y-150697623D03*
%TD*%
%TO.C,D42*%
X146059623Y-173047623D03*
X146059623Y-169747623D03*
%TD*%
D11*
%TO.C,MX5*%
X239245873Y-109944498D03*
D12*
X234165873Y-109944498D03*
D11*
X229085873Y-109944498D03*
D13*
X230355873Y-107404498D03*
D14*
X226805873Y-107404498D03*
X240255873Y-104864498D03*
D13*
X236705873Y-104864498D03*
%TD*%
D11*
%TO.C,MX45*%
X234483373Y-167094498D03*
D12*
X229403373Y-167094498D03*
D11*
X224323373Y-167094498D03*
D13*
X225593373Y-164554498D03*
D14*
X222043373Y-164554498D03*
X235493373Y-162014498D03*
D13*
X231943373Y-162014498D03*
%TD*%
D11*
%TO.C,MX44*%
X210670873Y-167094498D03*
D12*
X205590873Y-167094498D03*
D11*
X200510873Y-167094498D03*
D13*
X201780873Y-164554498D03*
D14*
X198230873Y-164554498D03*
X211680873Y-162014498D03*
D13*
X208130873Y-162014498D03*
%TD*%
D10*
%TO.C,D20*%
X259168998Y-134947623D03*
X259168998Y-131647623D03*
%TD*%
D11*
%TO.C,MX37*%
X334495873Y-148044498D03*
D12*
X329415873Y-148044498D03*
D11*
X324335873Y-148044498D03*
D13*
X325605873Y-145504498D03*
D14*
X322055873Y-145504498D03*
X335505873Y-142964498D03*
D13*
X331955873Y-142964498D03*
%TD*%
D11*
%TO.C,MX61*%
X386883373Y-186144498D03*
D12*
X381803373Y-186144498D03*
D11*
X376723373Y-186144498D03*
D13*
X377993373Y-183604498D03*
D14*
X374443373Y-183604498D03*
X387893373Y-181064498D03*
D13*
X384343373Y-181064498D03*
%TD*%
D10*
%TO.C,D21*%
X278218998Y-134947623D03*
X278218998Y-131647623D03*
%TD*%
D11*
%TO.C,MX6*%
X258295873Y-109944498D03*
D12*
X253215873Y-109944498D03*
D11*
X248135873Y-109944498D03*
D13*
X249405873Y-107404498D03*
D14*
X245855873Y-107404498D03*
X259305873Y-104864498D03*
D13*
X255755873Y-104864498D03*
%TD*%
D11*
%TO.C,MX10*%
X334495873Y-109944498D03*
D12*
X329415873Y-109944498D03*
D11*
X324335873Y-109944498D03*
D13*
X325605873Y-107404498D03*
D14*
X322055873Y-107404498D03*
X335505873Y-104864498D03*
D13*
X331955873Y-104864498D03*
%TD*%
D10*
%TO.C,D48*%
X282981498Y-173047623D03*
X282981498Y-169747623D03*
%TD*%
%TO.C,D58*%
X275837748Y-192097623D03*
X275837748Y-188797623D03*
%TD*%
%TO.C,D19*%
X240118998Y-134947623D03*
X240118998Y-131647623D03*
%TD*%
%TO.C,D7*%
X268693998Y-115897623D03*
X268693998Y-112597623D03*
%TD*%
D22*
%TO.C,R1*%
X178521500Y-146372000D03*
X178521500Y-148197000D03*
%TD*%
D10*
%TO.C,D54*%
X155584623Y-192097623D03*
X155584623Y-188797623D03*
%TD*%
D11*
%TO.C,MX49*%
X310683373Y-167094498D03*
D12*
X305603373Y-167094498D03*
D11*
X300523373Y-167094498D03*
D13*
X301793373Y-164554498D03*
D14*
X298243373Y-164554498D03*
X311693373Y-162014498D03*
D13*
X308143373Y-162014498D03*
%TD*%
D10*
%TO.C,D38*%
X344893998Y-153997623D03*
X344893998Y-150697623D03*
%TD*%
D11*
%TO.C,MX30*%
X173761498Y-148044498D03*
D12*
X168681498Y-148044498D03*
D11*
X163601498Y-148044498D03*
D13*
X164871498Y-145504498D03*
D14*
X161321498Y-145504498D03*
X174771498Y-142964498D03*
D13*
X171221498Y-142964498D03*
%TD*%
D26*
%TO.C,J1*%
X180601500Y-121474500D03*
X181601500Y-121474500D03*
X182601500Y-121474500D03*
X183601500Y-121474500D03*
D27*
X179301500Y-117599500D03*
X184901500Y-117599500D03*
%TD*%
D10*
%TO.C,D32*%
X230593998Y-153997623D03*
X230593998Y-150697623D03*
%TD*%
D11*
%TO.C,MX22*%
X305920873Y-128994498D03*
D12*
X300840873Y-128994498D03*
D11*
X295760873Y-128994498D03*
D13*
X297030873Y-126454498D03*
D14*
X293480873Y-126454498D03*
X306930873Y-123914498D03*
D13*
X303380873Y-123914498D03*
%TD*%
D10*
%TO.C,D13*%
X107959623Y-134947623D03*
X107959623Y-131647623D03*
%TD*%
%TO.C,D29*%
X146059623Y-153997623D03*
X146059623Y-150697623D03*
%TD*%
%TO.C,D49*%
X302031498Y-173047623D03*
X302031498Y-169747623D03*
%TD*%
%TO.C,D60*%
X359181498Y-192097623D03*
X359181498Y-188797623D03*
%TD*%
D28*
%TO.C,R2*%
X176591500Y-148194500D03*
X176591500Y-146369500D03*
%TD*%
M02*
