M48
; DRILL file {KiCad 8.0.6} date 2024-12-20T15:26:15-0700
; FORMAT={-:-/ absolute / inch / decimal}
; #@! TF.CreationDate,2024-12-20T15:26:15-07:00
; #@! TF.GenerationSoftware,Kicad,Pcbnew,8.0.6
; #@! TF.FileFunction,Plated,1,2,PTH
FMAT,2
INCH
; #@! TA.AperFunction,Plated,PTH,ViaDrill
T1C0.0118
; #@! TA.AperFunction,Plated,PTH,ComponentDrill
T2C0.0197
; #@! TA.AperFunction,Plated,PTH,ComponentDrill
T3C0.0320
; #@! TA.AperFunction,Plated,PTH,ComponentDrill
T4C0.1181
%
G90
G05
T1
X7.0237Y-5.4147
X7.0666Y-5.3695
X7.0808Y-5.6305
X7.0953Y-4.978
X7.17Y-5.5372
X7.1874Y-5.7784
X7.1874Y-5.9651
X7.1878Y-6.0987
X7.2308Y-4.978
X7.4188Y-4.1503
X7.4207Y-4.978
X7.4445Y-6.8521
X7.465Y-6.3581
X7.476Y-6.5217
X7.4875Y-6.3801
X7.5331Y-4.2644
X7.5339Y-5.0892
X7.6095Y-6.4018
X7.6402Y-6.3063
X7.7426Y-6.275
X7.7496Y-6.8329
X7.7551Y-6.1638
X7.7713Y-6.388
X7.7771Y-6.274
X7.7776Y-5.7039
X7.8004Y-5.6407
X7.8258Y-5.6216
X7.8567Y-5.831
X8.0473Y-6.1053
X8.263Y-5.4154
X8.3217Y-5.2226
T2
X7.1279Y-5.2915
X7.1279Y-5.3309
X7.1279Y-5.3702
X7.1673Y-5.2915
X7.1673Y-5.3309
X7.1673Y-5.3702
T3
X7.0429Y-6.1878
X7.0429Y-6.3878
X7.3429Y-6.1878
X7.3429Y-6.3878
T4
X4.241Y-4.2285
X4.241Y-4.9785
X4.241Y-5.7285
X4.241Y-6.4785
X4.491Y-4.1285
X4.491Y-4.8785
X4.491Y-5.6285
X4.491Y-6.3785
X4.616Y-7.2285
X4.866Y-7.1285
X4.991Y-4.2285
X4.991Y-4.9785
X4.991Y-5.7285
X4.991Y-6.4785
X5.241Y-4.1285
X5.241Y-4.8785
X5.241Y-5.6285
X5.241Y-6.3785
X5.741Y-4.2285
X5.741Y-4.9785
X5.741Y-5.7285
X5.741Y-6.4785
X5.991Y-4.1285
X5.991Y-4.8785
X5.991Y-5.6285
X5.991Y-6.3785
X6.116Y-7.2285
X6.366Y-7.1285
X6.491Y-4.2285
X6.491Y-4.9785
X6.491Y-5.7285
X6.491Y-6.4785
X6.741Y-4.1285
X6.741Y-4.8785
X6.741Y-5.6285
X6.741Y-6.3785
X7.8504Y-4.9785
X7.8504Y-7.2285
X7.9441Y-6.4785
X8.0379Y-4.2285
X8.0379Y-5.7285
X8.1004Y-4.8785
X8.1004Y-7.1285
X8.1941Y-6.3785
X8.2879Y-4.1285
X8.2879Y-5.6285
X8.6941Y-4.9785
X8.6941Y-7.2285
X8.8816Y-6.4785
X8.9441Y-4.8785
X8.9441Y-7.1285
X9.0691Y-4.2285
X9.0691Y-5.7285
X9.1316Y-6.3785
X9.3191Y-4.1285
X9.3191Y-5.6285
X9.4441Y-4.9785
X9.5379Y-7.2285
X9.6316Y-6.4785
X9.6941Y-4.8785
X9.7879Y-7.1285
X9.8191Y-4.2285
X9.8191Y-5.7285
X9.8816Y-6.3785
X10.0691Y-4.1285
X10.0691Y-5.6285
X10.1941Y-4.9785
X10.3816Y-6.4785
X10.4441Y-4.8785
X10.5691Y-4.2285
X10.5691Y-5.7285
X10.6316Y-6.3785
X10.8191Y-4.1285
X10.8191Y-5.6285
X10.8504Y-7.2285
X10.9441Y-4.9785
X11.1004Y-7.1285
X11.1316Y-6.4785
X11.1941Y-4.8785
X11.3191Y-4.2285
X11.3191Y-5.7285
X11.3816Y-6.3785
X11.5691Y-4.1285
X11.5691Y-5.6285
X11.6941Y-4.9785
X11.8816Y-6.4785
X11.9441Y-4.8785
X12.0691Y-4.2285
X12.0691Y-5.7285
X12.1316Y-6.3785
X12.3191Y-4.1285
X12.3191Y-5.6285
X12.4441Y-4.9785
X12.6316Y-6.4785
X12.6941Y-4.8785
X12.7254Y-7.2285
X12.8191Y-4.2285
X12.8191Y-5.7285
X12.8816Y-6.3785
X12.9754Y-7.1285
X13.0691Y-4.1285
X13.0691Y-5.6285
X13.1941Y-4.9785
X13.3816Y-6.4785
X13.4441Y-4.8785
X13.5691Y-4.2285
X13.5691Y-5.7285
X13.6316Y-6.3785
X13.8191Y-4.1285
X13.8191Y-5.6285
X13.9441Y-4.9785
X14.1316Y-7.2285
X14.1941Y-4.8785
X14.3816Y-7.1285
X14.5066Y-6.4785
X14.6004Y-4.2285
X14.6004Y-5.7285
X14.7566Y-6.3785
X14.7879Y-4.9785
X14.8504Y-4.1285
X14.8504Y-5.6285
X14.8816Y-7.2285
X15.0379Y-4.8785
X15.1316Y-7.1285
M30
