M48
; DRILL file {KiCad 8.0.6} date 2024-12-13T09:42:39-0700
; FORMAT={-:-/ absolute / inch / decimal}
; #@! TF.CreationDate,2024-12-13T09:42:39-07:00
; #@! TF.GenerationSoftware,Kicad,Pcbnew,8.0.6
; #@! TF.FileFunction,Plated,1,2,PTH
FMAT,2
INCH
; #@! TA.AperFunction,Plated,PTH,ViaDrill
T1C0.0118
; #@! TA.AperFunction,Plated,PTH,ComponentDrill
T2C0.0394
; #@! TA.AperFunction,Plated,PTH,ComponentDrill
T3C0.1181
%
G90
G05
T1
X7.4959Y-4.1138
X7.5688Y-4.0405
T2
X7.5873Y-3.7945
X7.5873Y-4.3945
X7.6873Y-3.7945
X7.6873Y-4.3945
X7.7873Y-3.7945
X7.7873Y-4.3945
X7.8873Y-3.7945
X7.8873Y-4.3945
X7.9873Y-3.7945
X7.9873Y-4.3945
X8.0873Y-3.7945
X8.0873Y-4.3945
X8.1873Y-3.7945
X8.1873Y-4.3945
X8.2873Y-3.7945
X8.2873Y-4.3945
X8.3873Y-3.7945
X8.3873Y-4.3945
X8.4873Y-3.7945
X8.4873Y-4.3945
X8.5873Y-3.7945
X8.5873Y-4.3945
X8.6873Y-3.7945
X8.6873Y-4.3945
T3
X1.9873Y-1.7445
X1.9873Y-3.2445
X1.9873Y-3.9945
X2.1748Y-2.4945
X2.2373Y-1.6445
X2.2373Y-3.1445
X2.2373Y-3.8945
X2.4123Y-2.7945
X2.4248Y-2.3945
X2.6623Y-2.6945
X2.7373Y-1.7445
X2.7373Y-3.2445
X2.7373Y-3.9945
X2.9873Y-1.6445
X2.9873Y-3.1445
X2.9873Y-3.8945
X3.1123Y-2.4945
X3.3623Y-2.3945
X3.4873Y-1.7445
X3.4873Y-3.2445
X3.4873Y-3.9945
X3.7373Y-1.6445
X3.7373Y-3.1445
X3.7373Y-3.8945
X3.8623Y-2.4945
X4.1123Y-2.3945
X4.2373Y-1.7445
X4.2373Y-3.2445
X4.2373Y-3.9945
X4.4873Y-1.6445
X4.4873Y-3.1445
X4.4873Y-3.8945
X4.6123Y-2.4945
X4.8623Y-2.3945
X4.9873Y-1.7445
X4.9873Y-3.2445
X5.2373Y-1.6445
X5.2373Y-3.1445
X5.3623Y-2.4945
X5.6123Y-2.3945
X5.7373Y-1.7445
X5.7373Y-3.2445
X5.9873Y-1.6445
X5.9873Y-3.1445
X6.1123Y-2.4945
X6.3623Y-2.3945
X6.4873Y-1.7445
X6.4873Y-3.2445
X6.4873Y-3.9945
X6.7373Y-1.6445
X6.7373Y-3.1445
X6.7373Y-3.8945
X6.8623Y-2.4945
X6.9123Y-4.2945
X7.1123Y-2.3945
X7.1623Y-4.1945
X7.2373Y-1.7445
X7.2373Y-3.2445
X7.4873Y-1.6445
X7.4873Y-3.1445
X7.6123Y-2.4945
X7.8623Y-2.3945
X7.9873Y-1.7445
X7.9873Y-3.2445
X8.2373Y-1.6445
X8.2373Y-3.1445
X8.3623Y-2.4945
X8.5998Y-2.7945
X8.6123Y-2.3945
X8.7373Y-1.7445
X8.7373Y-3.2445
X8.8498Y-2.6945
X8.9873Y-1.6445
X8.9873Y-3.1445
M30
