%TF.GenerationSoftware,KiCad,Pcbnew,8.0.6*%
%TF.CreationDate,2024-12-01T20:43:42-07:00*%
%TF.ProjectId,newk-tabesque48,6e65776b-2d74-4616-9265-737175653438,rev?*%
%TF.SameCoordinates,Original*%
%TF.FileFunction,Other,Comment*%
%FSLAX46Y46*%
G04 Gerber Fmt 4.6, Leading zero omitted, Abs format (unit mm)*
G04 Created by KiCad (PCBNEW 8.0.6) date 2024-12-01 20:43:42*
%MOMM*%
%LPD*%
G01*
G04 APERTURE LIST*
%ADD10C,0.150000*%
%ADD11C,0.200000*%
%ADD12C,0.100000*%
G04 APERTURE END LIST*
D10*
X247951319Y-37742654D02*
X248760842Y-37742654D01*
X248760842Y-37742654D02*
X248856080Y-37695035D01*
X248856080Y-37695035D02*
X248903700Y-37647416D01*
X248903700Y-37647416D02*
X248951319Y-37552178D01*
X248951319Y-37552178D02*
X248951319Y-37361702D01*
X248951319Y-37361702D02*
X248903700Y-37266464D01*
X248903700Y-37266464D02*
X248856080Y-37218845D01*
X248856080Y-37218845D02*
X248760842Y-37171226D01*
X248760842Y-37171226D02*
X247951319Y-37171226D01*
X248903700Y-36742654D02*
X248951319Y-36599797D01*
X248951319Y-36599797D02*
X248951319Y-36361702D01*
X248951319Y-36361702D02*
X248903700Y-36266464D01*
X248903700Y-36266464D02*
X248856080Y-36218845D01*
X248856080Y-36218845D02*
X248760842Y-36171226D01*
X248760842Y-36171226D02*
X248665604Y-36171226D01*
X248665604Y-36171226D02*
X248570366Y-36218845D01*
X248570366Y-36218845D02*
X248522747Y-36266464D01*
X248522747Y-36266464D02*
X248475128Y-36361702D01*
X248475128Y-36361702D02*
X248427509Y-36552178D01*
X248427509Y-36552178D02*
X248379890Y-36647416D01*
X248379890Y-36647416D02*
X248332271Y-36695035D01*
X248332271Y-36695035D02*
X248237033Y-36742654D01*
X248237033Y-36742654D02*
X248141795Y-36742654D01*
X248141795Y-36742654D02*
X248046557Y-36695035D01*
X248046557Y-36695035D02*
X247998938Y-36647416D01*
X247998938Y-36647416D02*
X247951319Y-36552178D01*
X247951319Y-36552178D02*
X247951319Y-36314083D01*
X247951319Y-36314083D02*
X247998938Y-36171226D01*
X248427509Y-35409321D02*
X248475128Y-35266464D01*
X248475128Y-35266464D02*
X248522747Y-35218845D01*
X248522747Y-35218845D02*
X248617985Y-35171226D01*
X248617985Y-35171226D02*
X248760842Y-35171226D01*
X248760842Y-35171226D02*
X248856080Y-35218845D01*
X248856080Y-35218845D02*
X248903700Y-35266464D01*
X248903700Y-35266464D02*
X248951319Y-35361702D01*
X248951319Y-35361702D02*
X248951319Y-35742654D01*
X248951319Y-35742654D02*
X247951319Y-35742654D01*
X247951319Y-35742654D02*
X247951319Y-35409321D01*
X247951319Y-35409321D02*
X247998938Y-35314083D01*
X247998938Y-35314083D02*
X248046557Y-35266464D01*
X248046557Y-35266464D02*
X248141795Y-35218845D01*
X248141795Y-35218845D02*
X248237033Y-35218845D01*
X248237033Y-35218845D02*
X248332271Y-35266464D01*
X248332271Y-35266464D02*
X248379890Y-35314083D01*
X248379890Y-35314083D02*
X248427509Y-35409321D01*
X248427509Y-35409321D02*
X248427509Y-35742654D01*
%TO.C,U1*%
D11*
X249491500Y-45370750D02*
X216471500Y-45370750D01*
X216471500Y-27590750D01*
X249491500Y-27590750D01*
X249491500Y-45370750D01*
D12*
X251011500Y-32930750D02*
X245911500Y-32930750D01*
X245911500Y-40030750D01*
X251011500Y-40030750D01*
X251011500Y-32930750D01*
%TD*%
M02*
