M48
; DRILL file {KiCad 8.0.6} date 2024-12-01T20:43:42-0700
; FORMAT={-:-/ absolute / inch / decimal}
; #@! TF.CreationDate,2024-12-01T20:43:42-07:00
; #@! TF.GenerationSoftware,Kicad,Pcbnew,8.0.6
; #@! TF.FileFunction,NonPlated,1,2,NPTH
FMAT,2
INCH
; #@! TA.AperFunction,NonPlated,NPTH,ComponentDrill
T1C0.0689
; #@! TA.AperFunction,NonPlated,NPTH,ComponentDrill
T2C0.1570
%
G90
G05
T1
X2.535Y-2.28
X2.535Y-3.03
X2.535Y-4.53
X2.535Y-5.28
X2.91Y-3.78
X2.935Y-2.28
X2.935Y-3.03
X2.935Y-4.53
X2.935Y-5.28
X3.285Y-2.28
X3.285Y-3.03
X3.285Y-4.53
X3.285Y-5.28
X3.31Y-3.78
X3.66Y-3.78
X3.685Y-2.28
X3.685Y-3.03
X3.685Y-4.53
X3.685Y-5.28
X4.035Y-2.28
X4.035Y-3.03
X4.035Y-4.53
X4.035Y-5.28
X4.06Y-3.78
X4.41Y-3.78
X4.435Y-2.28
X4.435Y-3.03
X4.435Y-4.53
X4.435Y-5.28
X4.785Y-2.28
X4.785Y-3.03
X4.785Y-4.53
X4.81Y-3.78
X4.9725Y-5.28
X5.16Y-3.78
X5.185Y-2.28
X5.185Y-3.03
X5.185Y-4.53
X5.3725Y-5.28
X5.535Y-2.28
X5.535Y-3.03
X5.535Y-4.53
X5.56Y-3.78
X5.91Y-3.78
X5.91Y-5.28
X5.935Y-2.28
X5.935Y-3.03
X5.935Y-4.53
X6.285Y-2.28
X6.285Y-3.03
X6.285Y-4.53
X6.31Y-3.78
X6.31Y-5.28
X6.66Y-3.78
X6.685Y-2.28
X6.685Y-3.03
X6.685Y-4.53
X6.8569Y-5.28
X7.035Y-2.28
X7.035Y-3.03
X7.035Y-4.53
X7.06Y-3.78
X7.2569Y-5.28
X7.41Y-3.78
X7.435Y-2.28
X7.435Y-3.03
X7.435Y-4.53
X7.785Y-2.28
X7.785Y-3.03
X7.785Y-4.53
X7.785Y-5.28
X7.81Y-3.78
X8.16Y-3.78
X8.185Y-2.28
X8.185Y-3.03
X8.185Y-4.53
X8.185Y-5.28
X8.535Y-2.28
X8.535Y-3.03
X8.535Y-4.53
X8.535Y-5.28
X8.56Y-3.78
X8.91Y-3.78
X8.935Y-2.28
X8.935Y-3.03
X8.935Y-4.53
X8.935Y-5.28
X9.285Y-2.28
X9.285Y-3.03
X9.285Y-4.53
X9.285Y-5.28
X9.31Y-3.78
X9.685Y-2.28
X9.685Y-3.03
X9.685Y-4.53
X9.685Y-5.28
T2
X2.735Y-2.28
X2.735Y-3.03
X2.735Y-4.53
X2.735Y-5.28
X3.11Y-3.78
X3.485Y-2.28
X3.485Y-3.03
X3.485Y-4.53
X3.485Y-5.28
X3.86Y-3.78
X4.235Y-2.28
X4.235Y-3.03
X4.235Y-4.53
X4.235Y-5.28
X4.61Y-3.78
X4.985Y-2.28
X4.985Y-3.03
X4.985Y-4.53
X5.1725Y-5.28
X5.36Y-3.78
X5.735Y-2.28
X5.735Y-3.03
X5.735Y-4.53
X6.11Y-3.78
X6.11Y-5.28
X6.485Y-2.28
X6.485Y-3.03
X6.485Y-4.53
X6.86Y-3.78
X7.0569Y-5.28
X7.235Y-2.28
X7.235Y-3.03
X7.235Y-4.53
X7.61Y-3.78
X7.985Y-2.28
X7.985Y-3.03
X7.985Y-4.53
X7.985Y-5.28
X8.36Y-3.78
X8.735Y-2.28
X8.735Y-3.03
X8.735Y-4.53
X8.735Y-5.28
X9.11Y-3.78
X9.485Y-2.28
X9.485Y-3.03
X9.485Y-4.53
X9.485Y-5.28
M30
