%TF.GenerationSoftware,KiCad,Pcbnew,8.0.6*%
%TF.CreationDate,2024-12-01T20:43:42-07:00*%
%TF.ProjectId,newk-tabesque48,6e65776b-2d74-4616-9265-737175653438,rev?*%
%TF.SameCoordinates,Original*%
%TF.FileFunction,Legend,Top*%
%TF.FilePolarity,Positive*%
%FSLAX46Y46*%
G04 Gerber Fmt 4.6, Leading zero omitted, Abs format (unit mm)*
G04 Created by KiCad (PCBNEW 8.0.6) date 2024-12-01 20:43:42*
%MOMM*%
%LPD*%
G01*
G04 APERTURE LIST*
%ADD10C,0.800000*%
%ADD11C,0.150000*%
%ADD12C,0.120000*%
%ADD13C,1.397000*%
%ADD14C,1.750000*%
%ADD15C,3.987800*%
%ADD16C,3.300000*%
G04 APERTURE END LIST*
D10*
G36*
X221159153Y-36118081D02*
G01*
X221039474Y-36108311D01*
X220920650Y-36098542D01*
X220747739Y-36131338D01*
X220692405Y-36152275D01*
X220700044Y-36642767D01*
X220709060Y-37245531D01*
X220716740Y-37789754D01*
X220724462Y-38387708D01*
X220730097Y-38894190D01*
X220734480Y-39449592D01*
X220735148Y-39686469D01*
X220737712Y-40011312D01*
X220740277Y-40397216D01*
X220728015Y-40920144D01*
X220682715Y-41393483D01*
X220575425Y-41785679D01*
X220391498Y-41935946D01*
X220220016Y-41817340D01*
X220163253Y-41706357D01*
X220065637Y-41295681D01*
X220057252Y-41100635D01*
X220061099Y-40599632D01*
X220064091Y-40372792D01*
X220070515Y-39881720D01*
X220071784Y-39644948D01*
X220069113Y-39120742D01*
X220063603Y-38574916D01*
X220056716Y-38020098D01*
X220049703Y-37510814D01*
X220041355Y-36943369D01*
X220031671Y-36317764D01*
X220029042Y-36152275D01*
X219855359Y-36115030D01*
X219668267Y-36061278D01*
X219577681Y-36032596D01*
X219405877Y-35877404D01*
X219294779Y-35467021D01*
X219275919Y-35092261D01*
X219315311Y-34612710D01*
X219367388Y-34403496D01*
X219518209Y-34147843D01*
X219603327Y-34120175D01*
X219776374Y-34169634D01*
X219954027Y-34248555D01*
X220011945Y-34276490D01*
X220004251Y-33774571D01*
X219999977Y-33533992D01*
X219991685Y-33034656D01*
X219990574Y-32842785D01*
X220037039Y-32365586D01*
X220088881Y-32190656D01*
X220244220Y-31957042D01*
X220327384Y-31931759D01*
X220499289Y-32071249D01*
X220614935Y-32489720D01*
X220665985Y-33008073D01*
X220682655Y-33586700D01*
X220683002Y-33695192D01*
X220677873Y-34276490D01*
X220849537Y-34276490D01*
X220920650Y-34276490D01*
X221103615Y-34290916D01*
X221278033Y-34360740D01*
X221298494Y-34379072D01*
X221442750Y-34682544D01*
X221490647Y-35172234D01*
X221490835Y-35211940D01*
X221446390Y-35684731D01*
X221396802Y-35859184D01*
X221244438Y-36092798D01*
X221159153Y-36118081D01*
G37*
G36*
X223292912Y-34327667D02*
G01*
X223459408Y-34448500D01*
X223621245Y-34618022D01*
X223639928Y-34640412D01*
X223798877Y-34869084D01*
X223933699Y-35179826D01*
X224003239Y-35661347D01*
X223947674Y-36088772D01*
X223917541Y-36571457D01*
X223910061Y-36767767D01*
X223899692Y-37270688D01*
X223897238Y-37722757D01*
X223900347Y-38253431D01*
X223911513Y-38775195D01*
X223936892Y-39300317D01*
X223962207Y-39583887D01*
X224031851Y-40031765D01*
X224072482Y-40284864D01*
X224143007Y-40741598D01*
X224166516Y-40949205D01*
X224111698Y-41416777D01*
X224069063Y-41542715D01*
X223913518Y-41760890D01*
X223844237Y-41779630D01*
X223679064Y-41585658D01*
X223537647Y-41276139D01*
X223493749Y-41166581D01*
X223335147Y-41372775D01*
X223168952Y-41560375D01*
X223103937Y-41623315D01*
X222930439Y-41749711D01*
X222817562Y-41779630D01*
X222643762Y-41758164D01*
X222453825Y-41675732D01*
X222284204Y-41531476D01*
X222111991Y-41285039D01*
X221967429Y-40954452D01*
X221949035Y-40900356D01*
X221836117Y-40472764D01*
X221750933Y-39961490D01*
X221699993Y-39456652D01*
X221669429Y-38890333D01*
X221659916Y-38391982D01*
X222325169Y-38391982D01*
X222336439Y-38915959D01*
X222379716Y-39428869D01*
X222440574Y-39759742D01*
X222574123Y-40087574D01*
X222744525Y-40212462D01*
X222786788Y-40216476D01*
X222957997Y-40167396D01*
X223068888Y-40077258D01*
X223229573Y-39851715D01*
X223320214Y-39666930D01*
X223295811Y-39090106D01*
X223276457Y-38570470D01*
X223260258Y-38036506D01*
X223250160Y-37521574D01*
X223248407Y-37251368D01*
X223258665Y-36753113D01*
X223283496Y-36252405D01*
X223291149Y-36125408D01*
X223205664Y-36027711D01*
X223142405Y-35995960D01*
X222964730Y-36053147D01*
X222800038Y-36224708D01*
X222648329Y-36510644D01*
X222569656Y-36718919D01*
X222451471Y-37143550D01*
X222371965Y-37604118D01*
X222331138Y-38100620D01*
X222325169Y-38391982D01*
X221659916Y-38391982D01*
X221659524Y-38371436D01*
X221659241Y-38262533D01*
X221669676Y-37760428D01*
X221709747Y-37188442D01*
X221779871Y-36649772D01*
X221880049Y-36144418D01*
X221986488Y-35748740D01*
X222086666Y-35448856D01*
X222224615Y-35111114D01*
X222370786Y-34830616D01*
X222525181Y-34607363D01*
X222687799Y-34441354D01*
X222858639Y-34332590D01*
X223037703Y-34281070D01*
X223111631Y-34276490D01*
X223292912Y-34327667D01*
G37*
G36*
X224994768Y-30668422D02*
G01*
X225076433Y-31098929D01*
X225085479Y-31394424D01*
X225076931Y-31707055D01*
X225068382Y-32017244D01*
X225068382Y-34838249D01*
X225231885Y-34606051D01*
X225399249Y-34426990D01*
X225409467Y-34418151D01*
X225580238Y-34307617D01*
X225724907Y-34276490D01*
X225896186Y-34304516D01*
X226087726Y-34412135D01*
X226263999Y-34600470D01*
X226425004Y-34869518D01*
X226570743Y-35219282D01*
X226637887Y-35424431D01*
X226748283Y-35843489D01*
X226835838Y-36294661D01*
X226900553Y-36777947D01*
X226942427Y-37293347D01*
X226961461Y-37840861D01*
X226962730Y-38030503D01*
X226949446Y-38598110D01*
X226909596Y-39132229D01*
X226843178Y-39632860D01*
X226750193Y-40100003D01*
X226630641Y-40533658D01*
X226584886Y-40670768D01*
X226434229Y-41047608D01*
X226270769Y-41346481D01*
X226094506Y-41567387D01*
X225905441Y-41710326D01*
X225703573Y-41775299D01*
X225633438Y-41779630D01*
X225446687Y-41747173D01*
X225265345Y-41649800D01*
X225089413Y-41487512D01*
X224994010Y-41369302D01*
X224839015Y-41607439D01*
X224777733Y-41623315D01*
X224609938Y-41494615D01*
X224554618Y-41374187D01*
X224468064Y-40930428D01*
X224462294Y-40751368D01*
X224469133Y-40243343D01*
X224476819Y-39745870D01*
X224476826Y-39735318D01*
X224476826Y-37936748D01*
X225067105Y-37936748D01*
X225067346Y-38500148D01*
X225067821Y-39047965D01*
X225068382Y-39537481D01*
X225246140Y-39714581D01*
X225426360Y-39843381D01*
X225603582Y-39902414D01*
X225633438Y-39903845D01*
X225813574Y-39852087D01*
X225987233Y-39675590D01*
X226135235Y-39373838D01*
X226247662Y-38975455D01*
X226313421Y-38512424D01*
X226332705Y-38035387D01*
X226313715Y-37512772D01*
X226249681Y-37018352D01*
X226171994Y-36699379D01*
X226030182Y-36365988D01*
X225857355Y-36186469D01*
X225724907Y-36152275D01*
X225553136Y-36225739D01*
X225435968Y-36340342D01*
X225273880Y-36555152D01*
X225118819Y-36807304D01*
X225068382Y-36897216D01*
X225067280Y-37409029D01*
X225067105Y-37936748D01*
X224476826Y-37936748D01*
X224476826Y-31900007D01*
X224498540Y-31403536D01*
X224553763Y-31015848D01*
X224670663Y-30647652D01*
X224828170Y-30524920D01*
X224994768Y-30668422D01*
G37*
G36*
X228720629Y-34296943D02*
G01*
X228905531Y-34370407D01*
X229072587Y-34497298D01*
X229239195Y-34703915D01*
X229380759Y-34980673D01*
X229499970Y-35370240D01*
X229573768Y-35837965D01*
X229602152Y-36383848D01*
X229602507Y-36457579D01*
X229567556Y-36954560D01*
X229475126Y-37371300D01*
X229342545Y-37717815D01*
X229306728Y-37791145D01*
X229152264Y-38049746D01*
X228992928Y-38276005D01*
X228815307Y-38509562D01*
X228765608Y-38572722D01*
X227955211Y-39591214D01*
X228118166Y-39756078D01*
X228233892Y-39825688D01*
X228409777Y-39884306D01*
X228582961Y-39903540D01*
X228609171Y-39903845D01*
X228782609Y-39871194D01*
X228956918Y-39758328D01*
X229126288Y-39541059D01*
X229154565Y-39491075D01*
X229303973Y-39252287D01*
X229475134Y-39122268D01*
X229645770Y-39270464D01*
X229720850Y-39715053D01*
X229724750Y-39896518D01*
X229685514Y-40410239D01*
X229583107Y-40819157D01*
X229438718Y-41140146D01*
X229322971Y-41320454D01*
X229152375Y-41521344D01*
X228976543Y-41664836D01*
X228795475Y-41750932D01*
X228609171Y-41779630D01*
X228434745Y-41760489D01*
X228238877Y-41686987D01*
X228057676Y-41558359D01*
X227891140Y-41374605D01*
X227739271Y-41135724D01*
X227668836Y-40995611D01*
X227531713Y-40645561D01*
X227422960Y-40245709D01*
X227342577Y-39796054D01*
X227290565Y-39296596D01*
X227266923Y-38747336D01*
X227265347Y-38553182D01*
X227273152Y-38022801D01*
X227280167Y-37871745D01*
X227907339Y-37871745D01*
X228076990Y-37660274D01*
X228246140Y-37450235D01*
X228414789Y-37241627D01*
X228448459Y-37200077D01*
X228620702Y-36967228D01*
X228787498Y-36719837D01*
X228941083Y-36461481D01*
X228965643Y-36416057D01*
X228805619Y-36235738D01*
X228623622Y-36158715D01*
X228545057Y-36152275D01*
X228373803Y-36223220D01*
X228213359Y-36458304D01*
X228162084Y-36582143D01*
X228052129Y-36964993D01*
X227966544Y-37422147D01*
X227907339Y-37871745D01*
X227280167Y-37871745D01*
X227296569Y-37518537D01*
X227335596Y-37040391D01*
X227403036Y-36501092D01*
X227492956Y-35999402D01*
X227585061Y-35610056D01*
X227702244Y-35225874D01*
X227858841Y-34850809D01*
X228032870Y-34569510D01*
X228224330Y-34381977D01*
X228397195Y-34297327D01*
X228544202Y-34276490D01*
X228720629Y-34296943D01*
G37*
G36*
X231829391Y-36621221D02*
G01*
X231657189Y-36538475D01*
X231543016Y-36188912D01*
X231370884Y-36152848D01*
X231345546Y-36152275D01*
X231148867Y-36166615D01*
X230970838Y-36219592D01*
X230802983Y-36381711D01*
X230766812Y-36560161D01*
X230903054Y-36920419D01*
X231073356Y-37146344D01*
X231115591Y-37195192D01*
X231283038Y-37390195D01*
X231451120Y-37596645D01*
X231607251Y-37804824D01*
X231759293Y-38042715D01*
X231911884Y-38375343D01*
X232031436Y-38794437D01*
X232095810Y-39261057D01*
X232108072Y-39598542D01*
X232089664Y-40100499D01*
X232023547Y-40605471D01*
X231909344Y-41037170D01*
X231769972Y-41354800D01*
X231723389Y-41435248D01*
X231559365Y-41654303D01*
X231377603Y-41810771D01*
X231204010Y-41896340D01*
X231016836Y-41933990D01*
X230960863Y-41935946D01*
X230785419Y-41911023D01*
X230600792Y-41824870D01*
X230427017Y-41677180D01*
X230377001Y-41620872D01*
X230219174Y-41381667D01*
X230085303Y-41010962D01*
X230019425Y-40511173D01*
X230016254Y-40358137D01*
X230063517Y-39861585D01*
X230220128Y-39609938D01*
X230302629Y-39591214D01*
X230479209Y-39682806D01*
X230622343Y-39825688D01*
X230787112Y-39985972D01*
X230944621Y-40060161D01*
X231134939Y-40035968D01*
X231311352Y-39933765D01*
X231434670Y-39585683D01*
X231435305Y-39554578D01*
X231315662Y-39162346D01*
X231156580Y-38941383D01*
X231095929Y-38873140D01*
X230922822Y-38682202D01*
X230752467Y-38486137D01*
X230583447Y-38276301D01*
X230461631Y-38098891D01*
X230313154Y-37780154D01*
X230196825Y-37357346D01*
X230134187Y-36866533D01*
X230122255Y-36501542D01*
X230140257Y-35996790D01*
X230206764Y-35491042D01*
X230322277Y-35074821D01*
X230486795Y-34748124D01*
X230634310Y-34569581D01*
X230804265Y-34441354D01*
X230984970Y-34359208D01*
X231163627Y-34311123D01*
X231364223Y-34283646D01*
X231548145Y-34276490D01*
X231722720Y-34306722D01*
X231888850Y-34437490D01*
X231903763Y-34459672D01*
X232027828Y-34835675D01*
X232062610Y-35320268D01*
X232062765Y-35360928D01*
X232051597Y-35852000D01*
X231996900Y-36344302D01*
X231843749Y-36619991D01*
X231829391Y-36621221D01*
G37*
G36*
X233625431Y-41935946D02*
G01*
X233433300Y-41906064D01*
X233253130Y-41816419D01*
X233084922Y-41667011D01*
X232928674Y-41457840D01*
X232784388Y-41188906D01*
X232738951Y-41085981D01*
X232610543Y-40728919D01*
X232508703Y-40331843D01*
X232423466Y-39818014D01*
X232379188Y-39334242D01*
X232361476Y-38810455D01*
X232361107Y-38719267D01*
X232373039Y-38207932D01*
X232408832Y-37690585D01*
X232468488Y-37167228D01*
X232552006Y-36637860D01*
X232639833Y-36192129D01*
X232700483Y-35922687D01*
X232823743Y-35448441D01*
X232953098Y-35054575D01*
X233088546Y-34741091D01*
X233259129Y-34471011D01*
X233438487Y-34316680D01*
X233594656Y-34276490D01*
X233776754Y-34324687D01*
X233959478Y-34452152D01*
X234137920Y-34634983D01*
X234179373Y-34684376D01*
X234337591Y-34911863D01*
X234483914Y-35225984D01*
X234575514Y-35642969D01*
X234585427Y-35844529D01*
X234539265Y-36335457D01*
X234503361Y-36479561D01*
X234353193Y-36753966D01*
X234280246Y-36777537D01*
X234109916Y-36616031D01*
X234031484Y-36464906D01*
X233876346Y-36251193D01*
X233698831Y-36163266D01*
X233594656Y-36152275D01*
X233427035Y-36333196D01*
X233299893Y-36683961D01*
X233193731Y-37097495D01*
X233103224Y-37537590D01*
X233032313Y-37995839D01*
X232990090Y-38502922D01*
X232986858Y-38672861D01*
X233017049Y-39158747D01*
X233117094Y-39579226D01*
X233169795Y-39703566D01*
X233328439Y-39934447D01*
X233507436Y-40043097D01*
X233626285Y-40060161D01*
X233805163Y-39982003D01*
X233977252Y-39803400D01*
X234020371Y-39747530D01*
X234181771Y-39545114D01*
X234316149Y-39434899D01*
X234483503Y-39577478D01*
X234538410Y-39710893D01*
X234623431Y-40148012D01*
X234630734Y-40341040D01*
X234563296Y-40791112D01*
X234419641Y-41136773D01*
X234247255Y-41412958D01*
X234222116Y-41447460D01*
X234047620Y-41661173D01*
X233871492Y-41828612D01*
X233700856Y-41924020D01*
X233625431Y-41935946D01*
G37*
G36*
X236376051Y-34315817D02*
G01*
X236560700Y-34461108D01*
X236726532Y-34713456D01*
X236873548Y-35072860D01*
X236967039Y-35395122D01*
X237066300Y-35858394D01*
X237141181Y-36367715D01*
X237185961Y-36840925D01*
X237212828Y-37347968D01*
X237221784Y-37888842D01*
X237214501Y-38384018D01*
X237186531Y-38947532D01*
X237137584Y-39477558D01*
X237067660Y-39974096D01*
X236976759Y-40437146D01*
X236923442Y-40656113D01*
X236790075Y-41091056D01*
X236640660Y-41436011D01*
X236475196Y-41690978D01*
X236293684Y-41855956D01*
X236096124Y-41930946D01*
X236026704Y-41935946D01*
X235838198Y-41893520D01*
X235661636Y-41766245D01*
X235497019Y-41554118D01*
X235344347Y-41257141D01*
X235262468Y-41049344D01*
X235142756Y-40661971D01*
X235046485Y-40228917D01*
X234973656Y-39750182D01*
X234924268Y-39225766D01*
X234898322Y-38655669D01*
X234894883Y-38455485D01*
X234894969Y-38445715D01*
X235560811Y-38445715D01*
X235580104Y-38967675D01*
X235645160Y-39433072D01*
X235724087Y-39710893D01*
X235874450Y-39983417D01*
X236027559Y-40060161D01*
X236200182Y-39982556D01*
X236351534Y-39749743D01*
X236390870Y-39654718D01*
X236499343Y-39251946D01*
X236561894Y-38754377D01*
X236578082Y-38370000D01*
X236578470Y-37851824D01*
X236558405Y-37300918D01*
X236504189Y-36781825D01*
X236399382Y-36371998D01*
X236224806Y-36161797D01*
X236172029Y-36152275D01*
X235999356Y-36224260D01*
X235837570Y-36480307D01*
X235716088Y-36873862D01*
X235705280Y-36921640D01*
X235623029Y-37395953D01*
X235577882Y-37872227D01*
X235560952Y-38391433D01*
X235560811Y-38445715D01*
X234894969Y-38445715D01*
X234899892Y-37888393D01*
X234927741Y-37344829D01*
X234978431Y-36824792D01*
X235051961Y-36328283D01*
X235148332Y-35855301D01*
X235185532Y-35702868D01*
X235306839Y-35291949D01*
X235442087Y-34950677D01*
X235591277Y-34679052D01*
X235754408Y-34477075D01*
X235931480Y-34344745D01*
X236122494Y-34282062D01*
X236202803Y-34276490D01*
X236376051Y-34315817D01*
G37*
G36*
X239467475Y-38497006D02*
G01*
X239269310Y-38497006D01*
X239078261Y-38497006D01*
X238891275Y-38497006D01*
X238679036Y-38497006D01*
X238491063Y-38497006D01*
X238286927Y-38497006D01*
X238115022Y-38418772D01*
X238025343Y-38296727D01*
X237911475Y-37926738D01*
X237892842Y-37639714D01*
X237949905Y-37171584D01*
X238025343Y-36985143D01*
X238188908Y-36802068D01*
X238286927Y-36777537D01*
X238472995Y-36777537D01*
X238658558Y-36777537D01*
X238833575Y-36777537D01*
X238857112Y-36777537D01*
X239035081Y-36777537D01*
X239207069Y-36777537D01*
X239389893Y-36777537D01*
X239427297Y-36777537D01*
X239599202Y-36847184D01*
X239688881Y-36955834D01*
X239809508Y-37306826D01*
X239833351Y-37637272D01*
X239781900Y-38124536D01*
X239627546Y-38413964D01*
X239467475Y-38497006D01*
G37*
G36*
X242571004Y-30924856D02*
G01*
X242646662Y-31040272D01*
X242754461Y-31441785D01*
X242768906Y-31719267D01*
X242771470Y-36777537D01*
X242947716Y-36808974D01*
X243126019Y-36897063D01*
X243192056Y-36970489D01*
X243296086Y-37380416D01*
X243310026Y-37722757D01*
X243265146Y-38219791D01*
X243127088Y-38533643D01*
X242950615Y-38644840D01*
X242771470Y-38653322D01*
X242773875Y-39150661D01*
X242774249Y-39668151D01*
X242772592Y-40205790D01*
X242768906Y-40763580D01*
X242719378Y-41251303D01*
X242682566Y-41381515D01*
X242522762Y-41608202D01*
X242454321Y-41623315D01*
X242278810Y-41516282D01*
X242154856Y-41146292D01*
X242109549Y-40660020D01*
X242105542Y-40270210D01*
X242105542Y-38653322D01*
X241146401Y-38653322D01*
X240965480Y-38639392D01*
X240773251Y-38582804D01*
X240592330Y-38457439D01*
X240435532Y-38192779D01*
X240374471Y-37761836D01*
X240422087Y-37284179D01*
X240509537Y-36921640D01*
X240554438Y-36777537D01*
X241386613Y-36777537D01*
X242105542Y-36777537D01*
X242105542Y-33807544D01*
X242009161Y-34220047D01*
X241895049Y-34699183D01*
X241786410Y-35149362D01*
X241665458Y-35645815D01*
X241559831Y-36076293D01*
X241446323Y-36536385D01*
X241386613Y-36777537D01*
X240554438Y-36777537D01*
X240627429Y-36543286D01*
X240732653Y-36206009D01*
X240835809Y-35790719D01*
X240951655Y-35327650D01*
X241080190Y-34816801D01*
X241184918Y-34402309D01*
X241296784Y-33960940D01*
X241415788Y-33492695D01*
X241541929Y-32997573D01*
X241675208Y-32475576D01*
X241815624Y-31926702D01*
X241913201Y-31545855D01*
X242041312Y-31172335D01*
X242191628Y-30937156D01*
X242364151Y-30840318D01*
X242401320Y-30837551D01*
X242571004Y-30924856D01*
G37*
G36*
X245020386Y-30854975D02*
G01*
X245208800Y-30933972D01*
X245376959Y-31076339D01*
X245547542Y-31322525D01*
X245690555Y-31654965D01*
X245708735Y-31709498D01*
X245816072Y-32129290D01*
X245892741Y-32619302D01*
X245934670Y-33105665D01*
X245953118Y-33645790D01*
X245954077Y-33809986D01*
X245940973Y-34328964D01*
X245892564Y-34829385D01*
X245860898Y-35009219D01*
X245748272Y-35395733D01*
X245603792Y-35702878D01*
X245579652Y-35744390D01*
X245731467Y-36030347D01*
X245869378Y-36377534D01*
X245983669Y-36795254D01*
X246000239Y-36875234D01*
X246077325Y-37366630D01*
X246122293Y-37884341D01*
X246142849Y-38404540D01*
X246146418Y-38758346D01*
X246132293Y-39309267D01*
X246089918Y-39813475D01*
X246019292Y-40270973D01*
X245920417Y-40681759D01*
X245793291Y-41045833D01*
X245744638Y-41156811D01*
X245576492Y-41460400D01*
X245417129Y-41661270D01*
X245243701Y-41807358D01*
X245056209Y-41898663D01*
X244854651Y-41935185D01*
X244819691Y-41935946D01*
X244626388Y-41912332D01*
X244446549Y-41841492D01*
X244280174Y-41723426D01*
X244103086Y-41525992D01*
X243944324Y-41264278D01*
X243809285Y-40944024D01*
X243686380Y-40506364D01*
X243600782Y-39999749D01*
X243557104Y-39510624D01*
X243540835Y-38970838D01*
X243542246Y-38816965D01*
X244196505Y-38816965D01*
X244237050Y-39295595D01*
X244358973Y-39692031D01*
X244422186Y-39803706D01*
X244582420Y-39979017D01*
X244763925Y-40056154D01*
X244819691Y-40060161D01*
X244993866Y-40032225D01*
X245170113Y-39918738D01*
X245320780Y-39667321D01*
X245339440Y-39613196D01*
X245422146Y-39158294D01*
X245448746Y-38633122D01*
X245449715Y-38492122D01*
X245422307Y-38008635D01*
X245330754Y-37567803D01*
X245254809Y-37366162D01*
X245096375Y-37093612D01*
X244930108Y-36895863D01*
X244805158Y-36777537D01*
X244646744Y-36983769D01*
X244490049Y-37223957D01*
X244347814Y-37527362D01*
X244245311Y-37958179D01*
X244200531Y-38468914D01*
X244196505Y-38816965D01*
X243542246Y-38816965D01*
X243545497Y-38462545D01*
X243572850Y-37879666D01*
X243624120Y-37355104D01*
X243699307Y-36888861D01*
X243798412Y-36480934D01*
X243921435Y-36131326D01*
X244006728Y-35949554D01*
X243870827Y-35583821D01*
X243768305Y-35179053D01*
X243692010Y-34668662D01*
X243661015Y-34180246D01*
X243658187Y-33976071D01*
X244319604Y-33976071D01*
X244395897Y-34434020D01*
X244555581Y-34710033D01*
X244719613Y-34863789D01*
X244774384Y-34901752D01*
X244941520Y-34772494D01*
X245102981Y-34604665D01*
X245122308Y-34576909D01*
X245255711Y-34242873D01*
X245293278Y-33858835D01*
X245274231Y-33372949D01*
X245184973Y-32937090D01*
X245177873Y-32920942D01*
X245012945Y-32747599D01*
X244841062Y-32713336D01*
X244662285Y-32757729D01*
X244500964Y-32921737D01*
X244368323Y-33310176D01*
X244321039Y-33823162D01*
X244319604Y-33976071D01*
X243658187Y-33976071D01*
X243657950Y-33958974D01*
X243670632Y-33465957D01*
X243717487Y-32931792D01*
X243798866Y-32441807D01*
X243914770Y-31995999D01*
X244018696Y-31704613D01*
X244175834Y-31371772D01*
X244346551Y-31119107D01*
X244530850Y-30946618D01*
X244699629Y-30862583D01*
X244847901Y-30837551D01*
X245020386Y-30854975D01*
G37*
D11*
X209105667Y-36173200D02*
X209248524Y-36220819D01*
X209248524Y-36220819D02*
X209486619Y-36220819D01*
X209486619Y-36220819D02*
X209581857Y-36173200D01*
X209581857Y-36173200D02*
X209629476Y-36125580D01*
X209629476Y-36125580D02*
X209677095Y-36030342D01*
X209677095Y-36030342D02*
X209677095Y-35935104D01*
X209677095Y-35935104D02*
X209629476Y-35839866D01*
X209629476Y-35839866D02*
X209581857Y-35792247D01*
X209581857Y-35792247D02*
X209486619Y-35744628D01*
X209486619Y-35744628D02*
X209296143Y-35697009D01*
X209296143Y-35697009D02*
X209200905Y-35649390D01*
X209200905Y-35649390D02*
X209153286Y-35601771D01*
X209153286Y-35601771D02*
X209105667Y-35506533D01*
X209105667Y-35506533D02*
X209105667Y-35411295D01*
X209105667Y-35411295D02*
X209153286Y-35316057D01*
X209153286Y-35316057D02*
X209200905Y-35268438D01*
X209200905Y-35268438D02*
X209296143Y-35220819D01*
X209296143Y-35220819D02*
X209534238Y-35220819D01*
X209534238Y-35220819D02*
X209677095Y-35268438D01*
X210010429Y-35220819D02*
X210248524Y-36220819D01*
X210248524Y-36220819D02*
X210439000Y-35506533D01*
X210439000Y-35506533D02*
X210629476Y-36220819D01*
X210629476Y-36220819D02*
X210867572Y-35220819D01*
X211772333Y-36220819D02*
X211200905Y-36220819D01*
X211486619Y-36220819D02*
X211486619Y-35220819D01*
X211486619Y-35220819D02*
X211391381Y-35363676D01*
X211391381Y-35363676D02*
X211296143Y-35458914D01*
X211296143Y-35458914D02*
X211200905Y-35506533D01*
X215856680Y-28718845D02*
X215047157Y-28718845D01*
X215047157Y-28718845D02*
X214951919Y-28766464D01*
X214951919Y-28766464D02*
X214904300Y-28814083D01*
X214904300Y-28814083D02*
X214856680Y-28909321D01*
X214856680Y-28909321D02*
X214856680Y-29099797D01*
X214856680Y-29099797D02*
X214904300Y-29195035D01*
X214904300Y-29195035D02*
X214951919Y-29242654D01*
X214951919Y-29242654D02*
X215047157Y-29290273D01*
X215047157Y-29290273D02*
X215856680Y-29290273D01*
X214856680Y-30290273D02*
X214856680Y-29718845D01*
X214856680Y-30004559D02*
X215856680Y-30004559D01*
X215856680Y-30004559D02*
X215713823Y-29909321D01*
X215713823Y-29909321D02*
X215618585Y-29814083D01*
X215618585Y-29814083D02*
X215570966Y-29718845D01*
X247921319Y-43815035D02*
X247921319Y-44386463D01*
X247921319Y-44100749D02*
X246921319Y-44100749D01*
X246921319Y-44100749D02*
X247064176Y-44195987D01*
X247064176Y-44195987D02*
X247159414Y-44291225D01*
X247159414Y-44291225D02*
X247207033Y-44386463D01*
X249041680Y-35218845D02*
X248232157Y-35218845D01*
X248232157Y-35218845D02*
X248136919Y-35266464D01*
X248136919Y-35266464D02*
X248089300Y-35314083D01*
X248089300Y-35314083D02*
X248041680Y-35409321D01*
X248041680Y-35409321D02*
X248041680Y-35599797D01*
X248041680Y-35599797D02*
X248089300Y-35695035D01*
X248089300Y-35695035D02*
X248136919Y-35742654D01*
X248136919Y-35742654D02*
X248232157Y-35790273D01*
X248232157Y-35790273D02*
X249041680Y-35790273D01*
X248089300Y-36218845D02*
X248041680Y-36361702D01*
X248041680Y-36361702D02*
X248041680Y-36599797D01*
X248041680Y-36599797D02*
X248089300Y-36695035D01*
X248089300Y-36695035D02*
X248136919Y-36742654D01*
X248136919Y-36742654D02*
X248232157Y-36790273D01*
X248232157Y-36790273D02*
X248327395Y-36790273D01*
X248327395Y-36790273D02*
X248422633Y-36742654D01*
X248422633Y-36742654D02*
X248470252Y-36695035D01*
X248470252Y-36695035D02*
X248517871Y-36599797D01*
X248517871Y-36599797D02*
X248565490Y-36409321D01*
X248565490Y-36409321D02*
X248613109Y-36314083D01*
X248613109Y-36314083D02*
X248660728Y-36266464D01*
X248660728Y-36266464D02*
X248755966Y-36218845D01*
X248755966Y-36218845D02*
X248851204Y-36218845D01*
X248851204Y-36218845D02*
X248946442Y-36266464D01*
X248946442Y-36266464D02*
X248994061Y-36314083D01*
X248994061Y-36314083D02*
X249041680Y-36409321D01*
X249041680Y-36409321D02*
X249041680Y-36647416D01*
X249041680Y-36647416D02*
X248994061Y-36790273D01*
X248565490Y-37552178D02*
X248517871Y-37695035D01*
X248517871Y-37695035D02*
X248470252Y-37742654D01*
X248470252Y-37742654D02*
X248375014Y-37790273D01*
X248375014Y-37790273D02*
X248232157Y-37790273D01*
X248232157Y-37790273D02*
X248136919Y-37742654D01*
X248136919Y-37742654D02*
X248089300Y-37695035D01*
X248089300Y-37695035D02*
X248041680Y-37599797D01*
X248041680Y-37599797D02*
X248041680Y-37218845D01*
X248041680Y-37218845D02*
X249041680Y-37218845D01*
X249041680Y-37218845D02*
X249041680Y-37552178D01*
X249041680Y-37552178D02*
X248994061Y-37647416D01*
X248994061Y-37647416D02*
X248946442Y-37695035D01*
X248946442Y-37695035D02*
X248851204Y-37742654D01*
X248851204Y-37742654D02*
X248755966Y-37742654D01*
X248755966Y-37742654D02*
X248660728Y-37695035D01*
X248660728Y-37695035D02*
X248613109Y-37647416D01*
X248613109Y-37647416D02*
X248565490Y-37552178D01*
X248565490Y-37552178D02*
X248565490Y-37218845D01*
X247308347Y-33195036D02*
X247308347Y-33575988D01*
X247641680Y-33337893D02*
X246784538Y-33337893D01*
X246784538Y-33337893D02*
X246689300Y-33385512D01*
X246689300Y-33385512D02*
X246641680Y-33480750D01*
X246641680Y-33480750D02*
X246641680Y-33575988D01*
X246641680Y-34052179D02*
X246689300Y-33956941D01*
X246689300Y-33956941D02*
X246736919Y-33909322D01*
X246736919Y-33909322D02*
X246832157Y-33861703D01*
X246832157Y-33861703D02*
X247117871Y-33861703D01*
X247117871Y-33861703D02*
X247213109Y-33909322D01*
X247213109Y-33909322D02*
X247260728Y-33956941D01*
X247260728Y-33956941D02*
X247308347Y-34052179D01*
X247308347Y-34052179D02*
X247308347Y-34195036D01*
X247308347Y-34195036D02*
X247260728Y-34290274D01*
X247260728Y-34290274D02*
X247213109Y-34337893D01*
X247213109Y-34337893D02*
X247117871Y-34385512D01*
X247117871Y-34385512D02*
X246832157Y-34385512D01*
X246832157Y-34385512D02*
X246736919Y-34337893D01*
X246736919Y-34337893D02*
X246689300Y-34290274D01*
X246689300Y-34290274D02*
X246641680Y-34195036D01*
X246641680Y-34195036D02*
X246641680Y-34052179D01*
X247308347Y-34718846D02*
X246641680Y-34909322D01*
X246641680Y-34909322D02*
X247117871Y-35099798D01*
X247117871Y-35099798D02*
X246641680Y-35290274D01*
X246641680Y-35290274D02*
X247308347Y-35480750D01*
X246736919Y-35861703D02*
X246689300Y-35909322D01*
X246689300Y-35909322D02*
X246641680Y-35861703D01*
X246641680Y-35861703D02*
X246689300Y-35814084D01*
X246689300Y-35814084D02*
X246736919Y-35861703D01*
X246736919Y-35861703D02*
X246641680Y-35861703D01*
X246641680Y-37099798D02*
X247641680Y-37099798D01*
X247641680Y-37099798D02*
X247641680Y-37480750D01*
X247641680Y-37480750D02*
X247594061Y-37575988D01*
X247594061Y-37575988D02*
X247546442Y-37623607D01*
X247546442Y-37623607D02*
X247451204Y-37671226D01*
X247451204Y-37671226D02*
X247308347Y-37671226D01*
X247308347Y-37671226D02*
X247213109Y-37623607D01*
X247213109Y-37623607D02*
X247165490Y-37575988D01*
X247165490Y-37575988D02*
X247117871Y-37480750D01*
X247117871Y-37480750D02*
X247117871Y-37099798D01*
X246736919Y-38671226D02*
X246689300Y-38623607D01*
X246689300Y-38623607D02*
X246641680Y-38480750D01*
X246641680Y-38480750D02*
X246641680Y-38385512D01*
X246641680Y-38385512D02*
X246689300Y-38242655D01*
X246689300Y-38242655D02*
X246784538Y-38147417D01*
X246784538Y-38147417D02*
X246879776Y-38099798D01*
X246879776Y-38099798D02*
X247070252Y-38052179D01*
X247070252Y-38052179D02*
X247213109Y-38052179D01*
X247213109Y-38052179D02*
X247403585Y-38099798D01*
X247403585Y-38099798D02*
X247498823Y-38147417D01*
X247498823Y-38147417D02*
X247594061Y-38242655D01*
X247594061Y-38242655D02*
X247641680Y-38385512D01*
X247641680Y-38385512D02*
X247641680Y-38480750D01*
X247641680Y-38480750D02*
X247594061Y-38623607D01*
X247594061Y-38623607D02*
X247546442Y-38671226D01*
X247165490Y-39433131D02*
X247117871Y-39575988D01*
X247117871Y-39575988D02*
X247070252Y-39623607D01*
X247070252Y-39623607D02*
X246975014Y-39671226D01*
X246975014Y-39671226D02*
X246832157Y-39671226D01*
X246832157Y-39671226D02*
X246736919Y-39623607D01*
X246736919Y-39623607D02*
X246689300Y-39575988D01*
X246689300Y-39575988D02*
X246641680Y-39480750D01*
X246641680Y-39480750D02*
X246641680Y-39099798D01*
X246641680Y-39099798D02*
X247641680Y-39099798D01*
X247641680Y-39099798D02*
X247641680Y-39433131D01*
X247641680Y-39433131D02*
X247594061Y-39528369D01*
X247594061Y-39528369D02*
X247546442Y-39575988D01*
X247546442Y-39575988D02*
X247451204Y-39623607D01*
X247451204Y-39623607D02*
X247355966Y-39623607D01*
X247355966Y-39623607D02*
X247260728Y-39575988D01*
X247260728Y-39575988D02*
X247213109Y-39528369D01*
X247213109Y-39528369D02*
X247165490Y-39433131D01*
X247165490Y-39433131D02*
X247165490Y-39099798D01*
D12*
%TO.C,SW1*%
X206629000Y-36576000D02*
X206629000Y-36876000D01*
X206629000Y-36576000D02*
X214249000Y-36576000D01*
X206629000Y-38816000D02*
X206629000Y-41956000D01*
X206629000Y-43896000D02*
X206629000Y-44196000D01*
X214249000Y-36576000D02*
X214249000Y-36876000D01*
X214249000Y-38816000D02*
X214249000Y-41956000D01*
X214249000Y-43896000D02*
X214249000Y-44196000D01*
X214249000Y-44196000D02*
X206629000Y-44196000D01*
X212979000Y-40386000D02*
G75*
G02*
X207899000Y-40386000I-2540000J0D01*
G01*
X207899000Y-40386000D02*
G75*
G02*
X212979000Y-40386000I2540000J0D01*
G01*
D11*
%TO.C,U1*%
X245911500Y-32930750D02*
X249491500Y-32930750D01*
X245911500Y-40030750D02*
X245911500Y-32930750D01*
X245911500Y-40030750D02*
X249491500Y-40030750D01*
X249491500Y-27590750D02*
X216471500Y-27590750D01*
X216471500Y-45370750D01*
X249491500Y-45370750D01*
X249491500Y-27590750D01*
%TD*%
%LPC*%
D13*
%TO.C,SW1*%
X206629000Y-37846000D03*
X214249000Y-37846000D03*
X206629000Y-42926000D03*
X214249000Y-42926000D03*
%TD*%
D14*
%TO.C,MX33*%
X188849000Y-115062000D03*
D15*
X183769000Y-115062000D03*
D14*
X178689000Y-115062000D03*
D16*
X179959000Y-112522000D03*
X186309000Y-109982000D03*
%TD*%
D14*
%TO.C,MX31*%
X226949000Y-115062000D03*
D15*
X221869000Y-115062000D03*
D14*
X216789000Y-115062000D03*
D16*
X218059000Y-112522000D03*
X224409000Y-109982000D03*
%TD*%
D14*
%TO.C,MX44*%
X160274000Y-134112000D03*
D15*
X155194000Y-134112000D03*
D14*
X150114000Y-134112000D03*
D16*
X151384000Y-131572000D03*
X157734000Y-129032000D03*
%TD*%
D14*
%TO.C,MX4*%
X188849000Y-57912000D03*
D15*
X183769000Y-57912000D03*
D14*
X178689000Y-57912000D03*
D16*
X179959000Y-55372000D03*
X186309000Y-52832000D03*
%TD*%
D14*
%TO.C,MX12*%
X226949000Y-76962000D03*
D15*
X221869000Y-76962000D03*
D14*
X216789000Y-76962000D03*
D16*
X218059000Y-74422000D03*
X224409000Y-71882000D03*
%TD*%
D14*
%TO.C,MX37*%
X112649000Y-115062000D03*
D15*
X107569000Y-115062000D03*
D14*
X102489000Y-115062000D03*
D16*
X103759000Y-112522000D03*
X110109000Y-109982000D03*
%TD*%
D14*
%TO.C,MX20*%
X74549000Y-76962000D03*
D15*
X69469000Y-76962000D03*
D14*
X64389000Y-76962000D03*
D16*
X65659000Y-74422000D03*
X72009000Y-71882000D03*
%TD*%
D14*
%TO.C,MX39*%
X74549000Y-115062000D03*
D15*
X69469000Y-115062000D03*
D14*
X64389000Y-115062000D03*
D16*
X65659000Y-112522000D03*
X72009000Y-109982000D03*
%TD*%
D14*
%TO.C,MX3*%
X207899000Y-57912000D03*
D15*
X202819000Y-57912000D03*
D14*
X197739000Y-57912000D03*
D16*
X199009000Y-55372000D03*
X205359000Y-52832000D03*
%TD*%
D14*
%TO.C,MX13*%
X207899000Y-76962000D03*
D15*
X202819000Y-76962000D03*
D14*
X197739000Y-76962000D03*
D16*
X199009000Y-74422000D03*
X205359000Y-71882000D03*
%TD*%
D14*
%TO.C,MX2*%
X226949000Y-57912000D03*
D15*
X221869000Y-57912000D03*
D14*
X216789000Y-57912000D03*
D16*
X218059000Y-55372000D03*
X224409000Y-52832000D03*
%TD*%
D14*
%TO.C,MX7*%
X131699000Y-57912000D03*
D15*
X126619000Y-57912000D03*
D14*
X121539000Y-57912000D03*
D16*
X122809000Y-55372000D03*
X129159000Y-52832000D03*
%TD*%
D14*
%TO.C,MX1*%
X245999000Y-57912000D03*
D15*
X240919000Y-57912000D03*
D14*
X235839000Y-57912000D03*
D16*
X237109000Y-55372000D03*
X243459000Y-52832000D03*
%TD*%
D14*
%TO.C,MX19*%
X93599000Y-76962000D03*
D15*
X88519000Y-76962000D03*
D14*
X83439000Y-76962000D03*
D16*
X84709000Y-74422000D03*
X91059000Y-71882000D03*
%TD*%
D14*
%TO.C,MX40*%
X245999000Y-134112000D03*
D15*
X240919000Y-134112000D03*
D14*
X235839000Y-134112000D03*
D16*
X237109000Y-131572000D03*
X243459000Y-129032000D03*
%TD*%
D14*
%TO.C,MX36*%
X131699000Y-115062000D03*
D15*
X126619000Y-115062000D03*
D14*
X121539000Y-115062000D03*
D16*
X122809000Y-112522000D03*
X129159000Y-109982000D03*
%TD*%
D14*
%TO.C,MX46*%
X112649000Y-134112000D03*
D15*
X107569000Y-134112000D03*
D14*
X102489000Y-134112000D03*
D16*
X103759000Y-131572000D03*
X110109000Y-129032000D03*
%TD*%
D14*
%TO.C,MX16*%
X150749000Y-76962000D03*
D15*
X145669000Y-76962000D03*
D14*
X140589000Y-76962000D03*
D16*
X141859000Y-74422000D03*
X148209000Y-71882000D03*
%TD*%
D14*
%TO.C,MX41*%
X226949000Y-134112000D03*
D15*
X221869000Y-134112000D03*
D14*
X216789000Y-134112000D03*
D16*
X218059000Y-131572000D03*
X224409000Y-129032000D03*
%TD*%
D14*
%TO.C,MX17*%
X131699000Y-76962000D03*
D15*
X126619000Y-76962000D03*
D14*
X121539000Y-76962000D03*
D16*
X122809000Y-74422000D03*
X129159000Y-71882000D03*
%TD*%
D14*
%TO.C,MX9*%
X93599000Y-57912000D03*
D15*
X88519000Y-57912000D03*
D14*
X83439000Y-57912000D03*
D16*
X84709000Y-55372000D03*
X91059000Y-52832000D03*
%TD*%
D14*
%TO.C,MX25*%
X160274000Y-96012000D03*
D15*
X155194000Y-96012000D03*
D14*
X150114000Y-96012000D03*
D16*
X151384000Y-93472000D03*
X157734000Y-90932000D03*
%TD*%
D14*
%TO.C,MX10*%
X74549000Y-57912000D03*
D15*
X69469000Y-57912000D03*
D14*
X64389000Y-57912000D03*
D16*
X65659000Y-55372000D03*
X72009000Y-52832000D03*
%TD*%
D14*
%TO.C,MX5*%
X169799000Y-57912000D03*
D15*
X164719000Y-57912000D03*
D14*
X159639000Y-57912000D03*
D16*
X160909000Y-55372000D03*
X167259000Y-52832000D03*
%TD*%
D14*
%TO.C,MX23*%
X198374000Y-96012000D03*
D15*
X193294000Y-96012000D03*
D14*
X188214000Y-96012000D03*
D16*
X189484000Y-93472000D03*
X195834000Y-90932000D03*
%TD*%
D14*
%TO.C,MX24*%
X179324000Y-96012000D03*
D15*
X174244000Y-96012000D03*
D14*
X169164000Y-96012000D03*
D16*
X170434000Y-93472000D03*
X176784000Y-90932000D03*
%TD*%
D14*
%TO.C,MX27*%
X122174000Y-96012000D03*
D15*
X117094000Y-96012000D03*
D14*
X112014000Y-96012000D03*
D16*
X113284000Y-93472000D03*
X119634000Y-90932000D03*
%TD*%
D14*
%TO.C,MX47*%
X93599000Y-134112000D03*
D15*
X88519000Y-134112000D03*
D14*
X83439000Y-134112000D03*
D16*
X84709000Y-131572000D03*
X91059000Y-129032000D03*
%TD*%
D14*
%TO.C,MX30*%
X245999000Y-115062000D03*
D15*
X240919000Y-115062000D03*
D14*
X235839000Y-115062000D03*
D16*
X237109000Y-112522000D03*
X243459000Y-109982000D03*
%TD*%
D14*
%TO.C,MX14*%
X188849000Y-76962000D03*
D15*
X183769000Y-76962000D03*
D14*
X178689000Y-76962000D03*
D16*
X179959000Y-74422000D03*
X186309000Y-71882000D03*
%TD*%
D14*
%TO.C,MX11*%
X245999000Y-76962000D03*
D15*
X240919000Y-76962000D03*
D14*
X235839000Y-76962000D03*
D16*
X237109000Y-74422000D03*
X243459000Y-71882000D03*
%TD*%
D14*
%TO.C,MX22*%
X217424000Y-96012000D03*
D15*
X212344000Y-96012000D03*
D14*
X207264000Y-96012000D03*
D16*
X208534000Y-93472000D03*
X214884000Y-90932000D03*
%TD*%
D14*
%TO.C,MX15*%
X169799000Y-76962000D03*
D15*
X164719000Y-76962000D03*
D14*
X159639000Y-76962000D03*
D16*
X160909000Y-74422000D03*
X167259000Y-71882000D03*
%TD*%
D14*
%TO.C,MX43*%
X184324000Y-134112000D03*
D15*
X179244000Y-134112000D03*
D14*
X174164000Y-134112000D03*
D16*
X175434000Y-131572000D03*
X181784000Y-129032000D03*
%TD*%
D14*
%TO.C,MX35*%
X150749000Y-115062000D03*
D15*
X145669000Y-115062000D03*
D14*
X140589000Y-115062000D03*
D16*
X141859000Y-112522000D03*
X148209000Y-109982000D03*
%TD*%
D14*
%TO.C,MX29*%
X84074000Y-96012000D03*
D15*
X78994000Y-96012000D03*
D14*
X73914000Y-96012000D03*
D16*
X75184000Y-93472000D03*
X81534000Y-90932000D03*
%TD*%
D14*
%TO.C,MX34*%
X169799000Y-115062000D03*
D15*
X164719000Y-115062000D03*
D14*
X159639000Y-115062000D03*
D16*
X160909000Y-112522000D03*
X167259000Y-109982000D03*
%TD*%
D14*
%TO.C,MX8*%
X112649000Y-57912000D03*
D15*
X107569000Y-57912000D03*
D14*
X102489000Y-57912000D03*
D16*
X103759000Y-55372000D03*
X110109000Y-52832000D03*
%TD*%
D14*
%TO.C,MX26*%
X141224000Y-96012000D03*
D15*
X136144000Y-96012000D03*
D14*
X131064000Y-96012000D03*
D16*
X132334000Y-93472000D03*
X138684000Y-90932000D03*
%TD*%
D14*
%TO.C,MX48*%
X74549000Y-134112000D03*
D15*
X69469000Y-134112000D03*
D14*
X64389000Y-134112000D03*
D16*
X65659000Y-131572000D03*
X72009000Y-129032000D03*
%TD*%
D14*
%TO.C,MX6*%
X150749000Y-57912000D03*
D15*
X145669000Y-57912000D03*
D14*
X140589000Y-57912000D03*
D16*
X141859000Y-55372000D03*
X148209000Y-52832000D03*
%TD*%
D14*
%TO.C,MX28*%
X103124000Y-96012000D03*
D15*
X98044000Y-96012000D03*
D14*
X92964000Y-96012000D03*
D16*
X94234000Y-93472000D03*
X100584000Y-90932000D03*
%TD*%
D14*
%TO.C,MX38*%
X93599000Y-115062000D03*
D15*
X88519000Y-115062000D03*
D14*
X83439000Y-115062000D03*
D16*
X84709000Y-112522000D03*
X91059000Y-109982000D03*
%TD*%
D14*
%TO.C,MX18*%
X112649000Y-76962000D03*
D15*
X107569000Y-76962000D03*
D14*
X102489000Y-76962000D03*
D16*
X103759000Y-74422000D03*
X110109000Y-71882000D03*
%TD*%
D14*
%TO.C,MX45*%
X136461500Y-134112000D03*
D15*
X131381500Y-134112000D03*
D14*
X126301500Y-134112000D03*
D16*
X127571500Y-131572000D03*
X133921500Y-129032000D03*
%TD*%
D14*
%TO.C,MX32*%
X207899000Y-115062000D03*
D15*
X202819000Y-115062000D03*
D14*
X197739000Y-115062000D03*
D16*
X199009000Y-112522000D03*
X205359000Y-109982000D03*
%TD*%
D14*
%TO.C,MX21*%
X236474000Y-96012000D03*
D15*
X231394000Y-96012000D03*
D14*
X226314000Y-96012000D03*
D16*
X227584000Y-93472000D03*
X233934000Y-90932000D03*
%TD*%
D14*
%TO.C,MX42*%
X207899000Y-134112000D03*
D15*
X202819000Y-134112000D03*
D14*
X197739000Y-134112000D03*
D16*
X199009000Y-131572000D03*
X205359000Y-129032000D03*
%TD*%
%LPD*%
M02*
