%TF.GenerationSoftware,KiCad,Pcbnew,8.0.6*%
%TF.CreationDate,2024-12-01T20:43:42-07:00*%
%TF.ProjectId,newk-tabesque48,6e65776b-2d74-4616-9265-737175653438,rev?*%
%TF.SameCoordinates,Original*%
%TF.FileFunction,Copper,L2,Bot*%
%TF.FilePolarity,Positive*%
%FSLAX46Y46*%
G04 Gerber Fmt 4.6, Leading zero omitted, Abs format (unit mm)*
G04 Created by KiCad (PCBNEW 8.0.6) date 2024-12-01 20:43:42*
%MOMM*%
%LPD*%
G01*
G04 APERTURE LIST*
G04 Aperture macros list*
%AMRoundRect*
0 Rectangle with rounded corners*
0 $1 Rounding radius*
0 $2 $3 $4 $5 $6 $7 $8 $9 X,Y pos of 4 corners*
0 Add a 4 corners polygon primitive as box body*
4,1,4,$2,$3,$4,$5,$6,$7,$8,$9,$2,$3,0*
0 Add four circle primitives for the rounded corners*
1,1,$1+$1,$2,$3*
1,1,$1+$1,$4,$5*
1,1,$1+$1,$6,$7*
1,1,$1+$1,$8,$9*
0 Add four rect primitives between the rounded corners*
20,1,$1+$1,$2,$3,$4,$5,0*
20,1,$1+$1,$4,$5,$6,$7,0*
20,1,$1+$1,$6,$7,$8,$9,0*
20,1,$1+$1,$8,$9,$2,$3,0*%
G04 Aperture macros list end*
%TA.AperFunction,ComponentPad*%
%ADD10C,1.397000*%
%TD*%
%TA.AperFunction,ComponentPad*%
%ADD11C,1.800000*%
%TD*%
%TA.AperFunction,ComponentPad*%
%ADD12RoundRect,0.450000X-0.450000X0.450000X-0.450000X-0.450000X0.450000X-0.450000X0.450000X0.450000X0*%
%TD*%
%TA.AperFunction,ComponentPad*%
%ADD13C,3.300000*%
%TD*%
%TA.AperFunction,SMDPad,CuDef*%
%ADD14R,1.650000X2.500000*%
%TD*%
%TA.AperFunction,SMDPad,CuDef*%
%ADD15RoundRect,0.250000X1.025000X1.000000X-1.025000X1.000000X-1.025000X-1.000000X1.025000X-1.000000X0*%
%TD*%
%TA.AperFunction,SMDPad,CuDef*%
%ADD16RoundRect,0.225000X0.375000X-0.225000X0.375000X0.225000X-0.375000X0.225000X-0.375000X-0.225000X0*%
%TD*%
%TA.AperFunction,Conductor*%
%ADD17C,0.300000*%
%TD*%
G04 APERTURE END LIST*
D10*
%TO.P,SW1,1,1*%
%TO.N,RST*%
X206629000Y-37846000D03*
X214249000Y-37846000D03*
%TO.P,SW1,2,2*%
%TO.N,GND*%
X206629000Y-42926000D03*
X214249000Y-42926000D03*
%TD*%
D11*
%TO.P,U1,1,D3-TX*%
%TO.N,unconnected-(U1-D3-TX-Pad1)*%
X245681500Y-44100750D03*
%TO.P,U1,2,D2-RX*%
%TO.N,unconnected-(U1-D2-RX-Pad2)*%
X243141500Y-44100750D03*
D12*
%TO.P,U1,3,GND*%
%TO.N,GND*%
X240601500Y-44100750D03*
%TO.P,U1,4,GND*%
X238061500Y-44100750D03*
D11*
%TO.P,U1,5,D1*%
%TO.N,/col_tmo*%
X235521500Y-44100750D03*
%TO.P,U1,6,D0*%
%TO.N,/row4*%
X232981500Y-44100750D03*
%TO.P,U1,7,D4*%
%TO.N,/row3*%
X230441500Y-44100750D03*
%TO.P,U1,8,C6*%
%TO.N,/row2*%
X227901500Y-44100750D03*
%TO.P,U1,9,D7*%
%TO.N,/row1*%
X225361500Y-44100750D03*
%TO.P,U1,10,E6*%
%TO.N,/row0*%
X222821500Y-44100750D03*
%TO.P,U1,11,B4*%
%TO.N,/col0*%
X220281500Y-44100750D03*
%TO.P,U1,12,B5*%
%TO.N,/col1*%
X217741500Y-44100750D03*
%TO.P,U1,13,B0*%
%TO.N,unconnected-(U1-B0-Pad13)*%
X245681500Y-28860750D03*
D12*
%TO.P,U1,14,GND*%
%TO.N,GND*%
X243141500Y-28860750D03*
D11*
%TO.P,U1,15,RST*%
%TO.N,RST*%
X240601500Y-28860750D03*
%TO.P,U1,16,VCC*%
%TO.N,VCC*%
X238061500Y-28860750D03*
%TO.P,U1,17,F4*%
%TO.N,/col2*%
X235521500Y-28860750D03*
%TO.P,U1,18,F5*%
%TO.N,/col3*%
X232981500Y-28860750D03*
%TO.P,U1,19,F6*%
%TO.N,/col4*%
X230441500Y-28860750D03*
%TO.P,U1,20,F7*%
%TO.N,/col5*%
X227901500Y-28860750D03*
%TO.P,U1,21,B1*%
%TO.N,/col6*%
X225361500Y-28860750D03*
%TO.P,U1,22,B3*%
%TO.N,/col7*%
X222821500Y-28860750D03*
%TO.P,U1,23,B2*%
%TO.N,/col8*%
X220281500Y-28860750D03*
%TO.P,U1,24,B6*%
%TO.N,/col9*%
X217741500Y-28860750D03*
%TD*%
D13*
%TO.P,MX33,1,1*%
%TO.N,Net-(D33-A)*%
X179959000Y-112522000D03*
D14*
X178134000Y-112522000D03*
D15*
X176409000Y-112522000D03*
%TO.P,MX33,2,2*%
%TO.N,/col3*%
X189859000Y-109982000D03*
D14*
X188109000Y-109982000D03*
D13*
X186309000Y-109982000D03*
%TD*%
%TO.P,MX31,1,1*%
%TO.N,Net-(D31-A)*%
X218059000Y-112522000D03*
D14*
X216234000Y-112522000D03*
D15*
X214509000Y-112522000D03*
%TO.P,MX31,2,2*%
%TO.N,/col1*%
X227959000Y-109982000D03*
D14*
X226209000Y-109982000D03*
D13*
X224409000Y-109982000D03*
%TD*%
%TO.P,MX44,1,1*%
%TO.N,Net-(D44-A)*%
X151384000Y-131572000D03*
D14*
X149559000Y-131572000D03*
D15*
X147834000Y-131572000D03*
%TO.P,MX44,2,2*%
%TO.N,/col4*%
X161284000Y-129032000D03*
D14*
X159534000Y-129032000D03*
D13*
X157734000Y-129032000D03*
%TD*%
%TO.P,MX4,1,1*%
%TO.N,Net-(D4-A)*%
X179959000Y-55372000D03*
D14*
X178134000Y-55372000D03*
D15*
X176409000Y-55372000D03*
%TO.P,MX4,2,2*%
%TO.N,/col3*%
X189859000Y-52832000D03*
D14*
X188109000Y-52832000D03*
D13*
X186309000Y-52832000D03*
%TD*%
%TO.P,MX12,1,1*%
%TO.N,Net-(D12-A)*%
X218059000Y-74422000D03*
D14*
X216234000Y-74422000D03*
D15*
X214509000Y-74422000D03*
%TO.P,MX12,2,2*%
%TO.N,/col1*%
X227959000Y-71882000D03*
D14*
X226209000Y-71882000D03*
D13*
X224409000Y-71882000D03*
%TD*%
%TO.P,MX37,1,1*%
%TO.N,Net-(D37-A)*%
X103759000Y-112522000D03*
D14*
X101934000Y-112522000D03*
D15*
X100209000Y-112522000D03*
%TO.P,MX37,2,2*%
%TO.N,/col7*%
X113659000Y-109982000D03*
D14*
X111909000Y-109982000D03*
D13*
X110109000Y-109982000D03*
%TD*%
%TO.P,MX20,1,1*%
%TO.N,Net-(D20-A)*%
X65659000Y-74422000D03*
D14*
X63834000Y-74422000D03*
D15*
X62109000Y-74422000D03*
%TO.P,MX20,2,2*%
%TO.N,/col9*%
X75559000Y-71882000D03*
D14*
X73809000Y-71882000D03*
D13*
X72009000Y-71882000D03*
%TD*%
%TO.P,MX39,1,1*%
%TO.N,Net-(D39-A)*%
X65659000Y-112522000D03*
D14*
X63834000Y-112522000D03*
D15*
X62109000Y-112522000D03*
%TO.P,MX39,2,2*%
%TO.N,/col9*%
X75559000Y-109982000D03*
D14*
X73809000Y-109982000D03*
D13*
X72009000Y-109982000D03*
%TD*%
%TO.P,MX3,1,1*%
%TO.N,Net-(D3-A)*%
X199009000Y-55372000D03*
D14*
X197184000Y-55372000D03*
D15*
X195459000Y-55372000D03*
%TO.P,MX3,2,2*%
%TO.N,/col2*%
X208909000Y-52832000D03*
D14*
X207159000Y-52832000D03*
D13*
X205359000Y-52832000D03*
%TD*%
%TO.P,MX13,1,1*%
%TO.N,Net-(D13-A)*%
X199009000Y-74422000D03*
D14*
X197184000Y-74422000D03*
D15*
X195459000Y-74422000D03*
%TO.P,MX13,2,2*%
%TO.N,/col2*%
X208909000Y-71882000D03*
D14*
X207159000Y-71882000D03*
D13*
X205359000Y-71882000D03*
%TD*%
D16*
%TO.P,D32,1,K*%
%TO.N,/row3*%
X202819000Y-123124500D03*
%TO.P,D32,2,A*%
%TO.N,Net-(D32-A)*%
X202819000Y-119824500D03*
%TD*%
%TO.P,D31,1,K*%
%TO.N,/row3*%
X221869000Y-123124500D03*
%TO.P,D31,2,A*%
%TO.N,Net-(D31-A)*%
X221869000Y-119824500D03*
%TD*%
D13*
%TO.P,MX2,1,1*%
%TO.N,Net-(D2-A)*%
X218059000Y-55372000D03*
D14*
X216234000Y-55372000D03*
D15*
X214509000Y-55372000D03*
%TO.P,MX2,2,2*%
%TO.N,/col1*%
X227959000Y-52832000D03*
D14*
X226209000Y-52832000D03*
D13*
X224409000Y-52832000D03*
%TD*%
%TO.P,MX7,1,1*%
%TO.N,Net-(D7-A)*%
X122809000Y-55372000D03*
D14*
X120984000Y-55372000D03*
D15*
X119259000Y-55372000D03*
%TO.P,MX7,2,2*%
%TO.N,/col6*%
X132709000Y-52832000D03*
D14*
X130959000Y-52832000D03*
D13*
X129159000Y-52832000D03*
%TD*%
D16*
%TO.P,D36,1,K*%
%TO.N,/row3*%
X126619000Y-123124500D03*
%TO.P,D36,2,A*%
%TO.N,Net-(D36-A)*%
X126619000Y-119824500D03*
%TD*%
%TO.P,D15,1,K*%
%TO.N,/row1*%
X164719000Y-85024500D03*
%TO.P,D15,2,A*%
%TO.N,Net-(D15-A)*%
X164719000Y-81724500D03*
%TD*%
D13*
%TO.P,MX1,1,1*%
%TO.N,Net-(D1-A)*%
X237109000Y-55372000D03*
D14*
X235284000Y-55372000D03*
D15*
X233559000Y-55372000D03*
%TO.P,MX1,2,2*%
%TO.N,/col0*%
X247009000Y-52832000D03*
D14*
X245259000Y-52832000D03*
D13*
X243459000Y-52832000D03*
%TD*%
%TO.P,MX19,1,1*%
%TO.N,Net-(D19-A)*%
X84709000Y-74422000D03*
D14*
X82884000Y-74422000D03*
D15*
X81159000Y-74422000D03*
%TO.P,MX19,2,2*%
%TO.N,/col8*%
X94609000Y-71882000D03*
D14*
X92859000Y-71882000D03*
D13*
X91059000Y-71882000D03*
%TD*%
D16*
%TO.P,D6,1,K*%
%TO.N,/row0*%
X145669000Y-65974500D03*
%TO.P,D6,2,A*%
%TO.N,Net-(D6-A)*%
X145669000Y-62674500D03*
%TD*%
%TO.P,D5,1,K*%
%TO.N,/row0*%
X164719000Y-65974500D03*
%TO.P,D5,2,A*%
%TO.N,Net-(D5-A)*%
X164719000Y-62674500D03*
%TD*%
D13*
%TO.P,MX40,1,1*%
%TO.N,Net-(D40-A)*%
X237109000Y-131572000D03*
D14*
X235284000Y-131572000D03*
D15*
X233559000Y-131572000D03*
%TO.P,MX40,2,2*%
%TO.N,/col0*%
X247009000Y-129032000D03*
D14*
X245259000Y-129032000D03*
D13*
X243459000Y-129032000D03*
%TD*%
%TO.P,MX36,1,1*%
%TO.N,Net-(D36-A)*%
X122809000Y-112522000D03*
D14*
X120984000Y-112522000D03*
D15*
X119259000Y-112522000D03*
%TO.P,MX36,2,2*%
%TO.N,/col6*%
X132709000Y-109982000D03*
D14*
X130959000Y-109982000D03*
D13*
X129159000Y-109982000D03*
%TD*%
%TO.P,MX46,1,1*%
%TO.N,Net-(D46-A)*%
X103759000Y-131572000D03*
D14*
X101934000Y-131572000D03*
D15*
X100209000Y-131572000D03*
%TO.P,MX46,2,2*%
%TO.N,/col6*%
X113659000Y-129032000D03*
D14*
X111909000Y-129032000D03*
D13*
X110109000Y-129032000D03*
%TD*%
D16*
%TO.P,D45,1,K*%
%TO.N,/row4*%
X131381500Y-142174500D03*
%TO.P,D45,2,A*%
%TO.N,Net-(D45-A)*%
X131381500Y-138874500D03*
%TD*%
D13*
%TO.P,MX16,1,1*%
%TO.N,Net-(D16-A)*%
X141859000Y-74422000D03*
D14*
X140034000Y-74422000D03*
D15*
X138309000Y-74422000D03*
%TO.P,MX16,2,2*%
%TO.N,/col5*%
X151759000Y-71882000D03*
D14*
X150009000Y-71882000D03*
D13*
X148209000Y-71882000D03*
%TD*%
%TO.P,MX41,1,1*%
%TO.N,Net-(D41-A)*%
X218059000Y-131572000D03*
D14*
X216234000Y-131572000D03*
D15*
X214509000Y-131572000D03*
%TO.P,MX41,2,2*%
%TO.N,/col1*%
X227959000Y-129032000D03*
D14*
X226209000Y-129032000D03*
D13*
X224409000Y-129032000D03*
%TD*%
%TO.P,MX17,1,1*%
%TO.N,Net-(D17-A)*%
X122809000Y-74422000D03*
D14*
X120984000Y-74422000D03*
D15*
X119259000Y-74422000D03*
%TO.P,MX17,2,2*%
%TO.N,/col6*%
X132709000Y-71882000D03*
D14*
X130959000Y-71882000D03*
D13*
X129159000Y-71882000D03*
%TD*%
D16*
%TO.P,D9,1,K*%
%TO.N,/row0*%
X88519000Y-65974500D03*
%TO.P,D9,2,A*%
%TO.N,Net-(D9-A)*%
X88519000Y-62674500D03*
%TD*%
D13*
%TO.P,MX9,1,1*%
%TO.N,Net-(D9-A)*%
X84709000Y-55372000D03*
D14*
X82884000Y-55372000D03*
D15*
X81159000Y-55372000D03*
%TO.P,MX9,2,2*%
%TO.N,/col8*%
X94609000Y-52832000D03*
D14*
X92859000Y-52832000D03*
D13*
X91059000Y-52832000D03*
%TD*%
%TO.P,MX25,1,1*%
%TO.N,Net-(D25-A)*%
X151384000Y-93472000D03*
D14*
X149559000Y-93472000D03*
D15*
X147834000Y-93472000D03*
%TO.P,MX25,2,2*%
%TO.N,/col4*%
X161284000Y-90932000D03*
D14*
X159534000Y-90932000D03*
D13*
X157734000Y-90932000D03*
%TD*%
D16*
%TO.P,D39,1,K*%
%TO.N,/row3*%
X69469000Y-123124500D03*
%TO.P,D39,2,A*%
%TO.N,Net-(D39-A)*%
X69469000Y-119824500D03*
%TD*%
%TO.P,D48,1,K*%
%TO.N,/row4*%
X69469000Y-142174500D03*
%TO.P,D48,2,A*%
%TO.N,Net-(D48-A)*%
X69469000Y-138874500D03*
%TD*%
D13*
%TO.P,MX10,1,1*%
%TO.N,Net-(D10-A)*%
X65659000Y-55372000D03*
D14*
X63834000Y-55372000D03*
D15*
X62109000Y-55372000D03*
%TO.P,MX10,2,2*%
%TO.N,/col9*%
X75559000Y-52832000D03*
D14*
X73809000Y-52832000D03*
D13*
X72009000Y-52832000D03*
%TD*%
D16*
%TO.P,D19,1,K*%
%TO.N,/row1*%
X88519000Y-85024500D03*
%TO.P,D19,2,A*%
%TO.N,Net-(D19-A)*%
X88519000Y-81724500D03*
%TD*%
%TO.P,D4,1,K*%
%TO.N,/row0*%
X183769000Y-65974500D03*
%TO.P,D4,2,A*%
%TO.N,Net-(D4-A)*%
X183769000Y-62674500D03*
%TD*%
D13*
%TO.P,MX5,1,1*%
%TO.N,Net-(D5-A)*%
X160909000Y-55372000D03*
D14*
X159084000Y-55372000D03*
D15*
X157359000Y-55372000D03*
%TO.P,MX5,2,2*%
%TO.N,/col4*%
X170809000Y-52832000D03*
D14*
X169059000Y-52832000D03*
D13*
X167259000Y-52832000D03*
%TD*%
%TO.P,MX23,1,1*%
%TO.N,Net-(D23-A)*%
X189484000Y-93472000D03*
D14*
X187659000Y-93472000D03*
D15*
X185934000Y-93472000D03*
%TO.P,MX23,2,2*%
%TO.N,/col2*%
X199384000Y-90932000D03*
D14*
X197634000Y-90932000D03*
D13*
X195834000Y-90932000D03*
%TD*%
D16*
%TO.P,D24,1,K*%
%TO.N,/row2*%
X174244000Y-104074500D03*
%TO.P,D24,2,A*%
%TO.N,Net-(D24-A)*%
X174244000Y-100774500D03*
%TD*%
%TO.P,D12,1,K*%
%TO.N,/row1*%
X221869000Y-85024500D03*
%TO.P,D12,2,A*%
%TO.N,Net-(D12-A)*%
X221869000Y-81724500D03*
%TD*%
%TO.P,D17,1,K*%
%TO.N,/row1*%
X126619000Y-85024500D03*
%TO.P,D17,2,A*%
%TO.N,Net-(D17-A)*%
X126619000Y-81724500D03*
%TD*%
%TO.P,D8,1,K*%
%TO.N,/row0*%
X107569000Y-65974500D03*
%TO.P,D8,2,A*%
%TO.N,Net-(D8-A)*%
X107569000Y-62674500D03*
%TD*%
D13*
%TO.P,MX24,1,1*%
%TO.N,Net-(D24-A)*%
X170434000Y-93472000D03*
D14*
X168609000Y-93472000D03*
D15*
X166884000Y-93472000D03*
%TO.P,MX24,2,2*%
%TO.N,/col3*%
X180334000Y-90932000D03*
D14*
X178584000Y-90932000D03*
D13*
X176784000Y-90932000D03*
%TD*%
%TO.P,MX27,1,1*%
%TO.N,Net-(D27-A)*%
X113284000Y-93472000D03*
D14*
X111459000Y-93472000D03*
D15*
X109734000Y-93472000D03*
%TO.P,MX27,2,2*%
%TO.N,/col6*%
X123184000Y-90932000D03*
D14*
X121434000Y-90932000D03*
D13*
X119634000Y-90932000D03*
%TD*%
D16*
%TO.P,D43,1,K*%
%TO.N,/row4*%
X179006500Y-142174500D03*
%TO.P,D43,2,A*%
%TO.N,Net-(D43-A)*%
X179006500Y-138874500D03*
%TD*%
%TO.P,D13,1,K*%
%TO.N,/row1*%
X202819000Y-85024500D03*
%TO.P,D13,2,A*%
%TO.N,Net-(D13-A)*%
X202819000Y-81724500D03*
%TD*%
%TO.P,D7,1,K*%
%TO.N,/row0*%
X126619000Y-65974500D03*
%TO.P,D7,2,A*%
%TO.N,Net-(D7-A)*%
X126619000Y-62674500D03*
%TD*%
%TO.P,D30,1,K*%
%TO.N,/row3*%
X240919000Y-123124500D03*
%TO.P,D30,2,A*%
%TO.N,Net-(D30-A)*%
X240919000Y-119824500D03*
%TD*%
%TO.P,D2,1,K*%
%TO.N,/row0*%
X221869000Y-65974500D03*
%TO.P,D2,2,A*%
%TO.N,Net-(D2-A)*%
X221869000Y-62674500D03*
%TD*%
%TO.P,D1,1,K*%
%TO.N,/row0*%
X240919000Y-65974500D03*
%TO.P,D1,2,A*%
%TO.N,Net-(D1-A)*%
X240919000Y-62674500D03*
%TD*%
D13*
%TO.P,MX47,1,1*%
%TO.N,Net-(D47-A)*%
X84709000Y-131572000D03*
D14*
X82884000Y-131572000D03*
D15*
X81159000Y-131572000D03*
%TO.P,MX47,2,2*%
%TO.N,/col7*%
X94609000Y-129032000D03*
D14*
X92859000Y-129032000D03*
D13*
X91059000Y-129032000D03*
%TD*%
D16*
%TO.P,D42,1,K*%
%TO.N,/row4*%
X202819000Y-142174500D03*
%TO.P,D42,2,A*%
%TO.N,Net-(D42-A)*%
X202819000Y-138874500D03*
%TD*%
D13*
%TO.P,MX30,1,1*%
%TO.N,Net-(D30-A)*%
X237109000Y-112522000D03*
D14*
X235284000Y-112522000D03*
D15*
X233559000Y-112522000D03*
%TO.P,MX30,2,2*%
%TO.N,/col0*%
X247009000Y-109982000D03*
D14*
X245259000Y-109982000D03*
D13*
X243459000Y-109982000D03*
%TD*%
%TO.P,MX14,1,1*%
%TO.N,Net-(D14-A)*%
X179959000Y-74422000D03*
D14*
X178134000Y-74422000D03*
D15*
X176409000Y-74422000D03*
%TO.P,MX14,2,2*%
%TO.N,/col3*%
X189859000Y-71882000D03*
D14*
X188109000Y-71882000D03*
D13*
X186309000Y-71882000D03*
%TD*%
D16*
%TO.P,D35,1,K*%
%TO.N,/row3*%
X145669000Y-123124500D03*
%TO.P,D35,2,A*%
%TO.N,Net-(D35-A)*%
X145669000Y-119824500D03*
%TD*%
D13*
%TO.P,MX11,1,1*%
%TO.N,Net-(D11-A)*%
X237109000Y-74422000D03*
D14*
X235284000Y-74422000D03*
D15*
X233559000Y-74422000D03*
%TO.P,MX11,2,2*%
%TO.N,/col0*%
X247009000Y-71882000D03*
D14*
X245259000Y-71882000D03*
D13*
X243459000Y-71882000D03*
%TD*%
%TO.P,MX22,1,1*%
%TO.N,Net-(D22-A)*%
X208534000Y-93472000D03*
D14*
X206709000Y-93472000D03*
D15*
X204984000Y-93472000D03*
%TO.P,MX22,2,2*%
%TO.N,/col1*%
X218434000Y-90932000D03*
D14*
X216684000Y-90932000D03*
D13*
X214884000Y-90932000D03*
%TD*%
D16*
%TO.P,D38,1,K*%
%TO.N,/row3*%
X88519000Y-123124500D03*
%TO.P,D38,2,A*%
%TO.N,Net-(D38-A)*%
X88519000Y-119824500D03*
%TD*%
D13*
%TO.P,MX15,1,1*%
%TO.N,Net-(D15-A)*%
X160909000Y-74422000D03*
D14*
X159084000Y-74422000D03*
D15*
X157359000Y-74422000D03*
%TO.P,MX15,2,2*%
%TO.N,/col4*%
X170809000Y-71882000D03*
D14*
X169059000Y-71882000D03*
D13*
X167259000Y-71882000D03*
%TD*%
%TO.P,MX43,1,1*%
%TO.N,Net-(D43-A)*%
X175434000Y-131572000D03*
D14*
X173609000Y-131572000D03*
D15*
X171884000Y-131572000D03*
%TO.P,MX43,2,2*%
%TO.N,/col3*%
X185334000Y-129032000D03*
D14*
X183584000Y-129032000D03*
D13*
X181784000Y-129032000D03*
%TD*%
%TO.P,MX35,1,1*%
%TO.N,Net-(D35-A)*%
X141859000Y-112522000D03*
D14*
X140034000Y-112522000D03*
D15*
X138309000Y-112522000D03*
%TO.P,MX35,2,2*%
%TO.N,/col5*%
X151759000Y-109982000D03*
D14*
X150009000Y-109982000D03*
D13*
X148209000Y-109982000D03*
%TD*%
D16*
%TO.P,D16,1,K*%
%TO.N,/row1*%
X145669000Y-85024500D03*
%TO.P,D16,2,A*%
%TO.N,Net-(D16-A)*%
X145669000Y-81724500D03*
%TD*%
%TO.P,D37,1,K*%
%TO.N,/row3*%
X107569000Y-123124500D03*
%TO.P,D37,2,A*%
%TO.N,Net-(D37-A)*%
X107569000Y-119824500D03*
%TD*%
%TO.P,D34,1,K*%
%TO.N,/row3*%
X164719000Y-123124500D03*
%TO.P,D34,2,A*%
%TO.N,Net-(D34-A)*%
X164719000Y-119824500D03*
%TD*%
%TO.P,D29,1,K*%
%TO.N,/row2*%
X78994000Y-104074500D03*
%TO.P,D29,2,A*%
%TO.N,Net-(D29-A)*%
X78994000Y-100774500D03*
%TD*%
%TO.P,D20,1,K*%
%TO.N,/row1*%
X69469000Y-85024500D03*
%TO.P,D20,2,A*%
%TO.N,Net-(D20-A)*%
X69469000Y-81724500D03*
%TD*%
D13*
%TO.P,MX29,1,1*%
%TO.N,Net-(D29-A)*%
X75184000Y-93472000D03*
D14*
X73359000Y-93472000D03*
D15*
X71634000Y-93472000D03*
%TO.P,MX29,2,2*%
%TO.N,/col8*%
X85084000Y-90932000D03*
D14*
X83334000Y-90932000D03*
D13*
X81534000Y-90932000D03*
%TD*%
D16*
%TO.P,D23,1,K*%
%TO.N,/row2*%
X193294000Y-104074500D03*
%TO.P,D23,2,A*%
%TO.N,Net-(D23-A)*%
X193294000Y-100774500D03*
%TD*%
%TO.P,D40,1,K*%
%TO.N,/row4*%
X240919000Y-142174500D03*
%TO.P,D40,2,A*%
%TO.N,Net-(D40-A)*%
X240919000Y-138874500D03*
%TD*%
D13*
%TO.P,MX34,1,1*%
%TO.N,Net-(D34-A)*%
X160909000Y-112522000D03*
D14*
X159084000Y-112522000D03*
D15*
X157359000Y-112522000D03*
%TO.P,MX34,2,2*%
%TO.N,/col4*%
X170809000Y-109982000D03*
D14*
X169059000Y-109982000D03*
D13*
X167259000Y-109982000D03*
%TD*%
D16*
%TO.P,D21,1,K*%
%TO.N,/row2*%
X231394000Y-104074500D03*
%TO.P,D21,2,A*%
%TO.N,Net-(D21-A)*%
X231394000Y-100774500D03*
%TD*%
D13*
%TO.P,MX8,1,1*%
%TO.N,Net-(D8-A)*%
X103759000Y-55372000D03*
D14*
X101934000Y-55372000D03*
D15*
X100209000Y-55372000D03*
%TO.P,MX8,2,2*%
%TO.N,/col7*%
X113659000Y-52832000D03*
D14*
X111909000Y-52832000D03*
D13*
X110109000Y-52832000D03*
%TD*%
D16*
%TO.P,D18,1,K*%
%TO.N,/row1*%
X107569000Y-85024500D03*
%TO.P,D18,2,A*%
%TO.N,Net-(D18-A)*%
X107569000Y-81724500D03*
%TD*%
%TO.P,D25,1,K*%
%TO.N,/row2*%
X155194000Y-104074500D03*
%TO.P,D25,2,A*%
%TO.N,Net-(D25-A)*%
X155194000Y-100774500D03*
%TD*%
%TO.P,D26,1,K*%
%TO.N,/row2*%
X136144000Y-104074500D03*
%TO.P,D26,2,A*%
%TO.N,Net-(D26-A)*%
X136144000Y-100774500D03*
%TD*%
D13*
%TO.P,MX26,1,1*%
%TO.N,Net-(D26-A)*%
X132334000Y-93472000D03*
D14*
X130509000Y-93472000D03*
D15*
X128784000Y-93472000D03*
%TO.P,MX26,2,2*%
%TO.N,/col5*%
X142234000Y-90932000D03*
D14*
X140484000Y-90932000D03*
D13*
X138684000Y-90932000D03*
%TD*%
D16*
%TO.P,D27,1,K*%
%TO.N,/row2*%
X117094000Y-104074500D03*
%TO.P,D27,2,A*%
%TO.N,Net-(D27-A)*%
X117094000Y-100774500D03*
%TD*%
D13*
%TO.P,MX48,1,1*%
%TO.N,Net-(D48-A)*%
X65659000Y-131572000D03*
D14*
X63834000Y-131572000D03*
D15*
X62109000Y-131572000D03*
%TO.P,MX48,2,2*%
%TO.N,/col8*%
X75559000Y-129032000D03*
D14*
X73809000Y-129032000D03*
D13*
X72009000Y-129032000D03*
%TD*%
%TO.P,MX6,1,1*%
%TO.N,Net-(D6-A)*%
X141859000Y-55372000D03*
D14*
X140034000Y-55372000D03*
D15*
X138309000Y-55372000D03*
%TO.P,MX6,2,2*%
%TO.N,/col5*%
X151759000Y-52832000D03*
D14*
X150009000Y-52832000D03*
D13*
X148209000Y-52832000D03*
%TD*%
%TO.P,MX28,1,1*%
%TO.N,Net-(D28-A)*%
X94234000Y-93472000D03*
D14*
X92409000Y-93472000D03*
D15*
X90684000Y-93472000D03*
%TO.P,MX28,2,2*%
%TO.N,/col7*%
X104134000Y-90932000D03*
D14*
X102384000Y-90932000D03*
D13*
X100584000Y-90932000D03*
%TD*%
%TO.P,MX38,1,1*%
%TO.N,Net-(D38-A)*%
X84709000Y-112522000D03*
D14*
X82884000Y-112522000D03*
D15*
X81159000Y-112522000D03*
%TO.P,MX38,2,2*%
%TO.N,/col8*%
X94609000Y-109982000D03*
D14*
X92859000Y-109982000D03*
D13*
X91059000Y-109982000D03*
%TD*%
D16*
%TO.P,D47,1,K*%
%TO.N,/row4*%
X88519000Y-142174500D03*
%TO.P,D47,2,A*%
%TO.N,Net-(D47-A)*%
X88519000Y-138874500D03*
%TD*%
%TO.P,D44,1,K*%
%TO.N,/row4*%
X155194000Y-142174500D03*
%TO.P,D44,2,A*%
%TO.N,Net-(D44-A)*%
X155194000Y-138874500D03*
%TD*%
%TO.P,D41,1,K*%
%TO.N,/row4*%
X221869000Y-142174500D03*
%TO.P,D41,2,A*%
%TO.N,Net-(D41-A)*%
X221869000Y-138874500D03*
%TD*%
%TO.P,D3,1,K*%
%TO.N,/row0*%
X202819000Y-65974500D03*
%TO.P,D3,2,A*%
%TO.N,Net-(D3-A)*%
X202819000Y-62674500D03*
%TD*%
D13*
%TO.P,MX18,1,1*%
%TO.N,Net-(D18-A)*%
X103759000Y-74422000D03*
D14*
X101934000Y-74422000D03*
D15*
X100209000Y-74422000D03*
%TO.P,MX18,2,2*%
%TO.N,/col7*%
X113659000Y-71882000D03*
D14*
X111909000Y-71882000D03*
D13*
X110109000Y-71882000D03*
%TD*%
D16*
%TO.P,D33,1,K*%
%TO.N,/row3*%
X183769000Y-123124500D03*
%TO.P,D33,2,A*%
%TO.N,Net-(D33-A)*%
X183769000Y-119824500D03*
%TD*%
%TO.P,D10,1,K*%
%TO.N,/row0*%
X69469000Y-65974500D03*
%TO.P,D10,2,A*%
%TO.N,Net-(D10-A)*%
X69469000Y-62674500D03*
%TD*%
%TO.P,D22,1,K*%
%TO.N,/row2*%
X212344000Y-104074500D03*
%TO.P,D22,2,A*%
%TO.N,Net-(D22-A)*%
X212344000Y-100774500D03*
%TD*%
D13*
%TO.P,MX45,1,1*%
%TO.N,Net-(D45-A)*%
X127571500Y-131572000D03*
D14*
X125746500Y-131572000D03*
D15*
X124021500Y-131572000D03*
%TO.P,MX45,2,2*%
%TO.N,/col5*%
X137471500Y-129032000D03*
D14*
X135721500Y-129032000D03*
D13*
X133921500Y-129032000D03*
%TD*%
D16*
%TO.P,D46,1,K*%
%TO.N,/row4*%
X107569000Y-142174500D03*
%TO.P,D46,2,A*%
%TO.N,Net-(D46-A)*%
X107569000Y-138874500D03*
%TD*%
%TO.P,D28,1,K*%
%TO.N,/row2*%
X98044000Y-104074500D03*
%TO.P,D28,2,A*%
%TO.N,Net-(D28-A)*%
X98044000Y-100774500D03*
%TD*%
D13*
%TO.P,MX32,1,1*%
%TO.N,Net-(D32-A)*%
X199009000Y-112522000D03*
D14*
X197184000Y-112522000D03*
D15*
X195459000Y-112522000D03*
%TO.P,MX32,2,2*%
%TO.N,/col2*%
X208909000Y-109982000D03*
D14*
X207159000Y-109982000D03*
D13*
X205359000Y-109982000D03*
%TD*%
%TO.P,MX21,1,1*%
%TO.N,Net-(D21-A)*%
X227584000Y-93472000D03*
D14*
X225759000Y-93472000D03*
D15*
X224034000Y-93472000D03*
%TO.P,MX21,2,2*%
%TO.N,/col0*%
X237484000Y-90932000D03*
D14*
X235734000Y-90932000D03*
D13*
X233934000Y-90932000D03*
%TD*%
D16*
%TO.P,D11,1,K*%
%TO.N,/row1*%
X240919000Y-85024500D03*
%TO.P,D11,2,A*%
%TO.N,Net-(D11-A)*%
X240919000Y-81724500D03*
%TD*%
D13*
%TO.P,MX42,1,1*%
%TO.N,Net-(D42-A)*%
X199009000Y-131572000D03*
D14*
X197184000Y-131572000D03*
D15*
X195459000Y-131572000D03*
%TO.P,MX42,2,2*%
%TO.N,/col2*%
X208909000Y-129032000D03*
D14*
X207159000Y-129032000D03*
D13*
X205359000Y-129032000D03*
%TD*%
D16*
%TO.P,D14,1,K*%
%TO.N,/row1*%
X183769000Y-85024500D03*
%TO.P,D14,2,A*%
%TO.N,Net-(D14-A)*%
X183769000Y-81724500D03*
%TD*%
D17*
%TO.N,/row0*%
X228377750Y-49657000D02*
X247064000Y-49657000D01*
X221869000Y-65974500D02*
X202819000Y-65974500D01*
X248644000Y-58249500D02*
X240919000Y-65974500D01*
X240919000Y-65974500D02*
X221869000Y-65974500D01*
X202819000Y-65974500D02*
X69469000Y-65974500D01*
X247064000Y-49657000D02*
X248644000Y-51237000D01*
X248644000Y-51237000D02*
X248644000Y-58249500D01*
X222821500Y-44100750D02*
X228377750Y-49657000D01*
%TO.N,Net-(D1-A)*%
X240919000Y-61515452D02*
X240919000Y-62674500D01*
X237109000Y-55372000D02*
X237109000Y-57705452D01*
X237109000Y-57705452D02*
X240919000Y-61515452D01*
%TO.N,Net-(D2-A)*%
X218059000Y-57705452D02*
X221869000Y-61515452D01*
X221869000Y-61515452D02*
X221869000Y-62674500D01*
X218059000Y-55372000D02*
X218059000Y-57705452D01*
%TO.N,Net-(D3-A)*%
X199009000Y-57705452D02*
X202819000Y-61515452D01*
X202819000Y-61515452D02*
X202819000Y-62674500D01*
X199009000Y-55372000D02*
X199009000Y-57705452D01*
%TO.N,Net-(D4-A)*%
X179959000Y-55372000D02*
X179959000Y-57705452D01*
X183769000Y-61515452D02*
X183769000Y-62674500D01*
X179959000Y-57705452D02*
X183769000Y-61515452D01*
%TO.N,Net-(D5-A)*%
X160909000Y-57705452D02*
X164719000Y-61515452D01*
X164719000Y-61515452D02*
X164719000Y-62674500D01*
X160909000Y-55372000D02*
X160909000Y-57705452D01*
%TO.N,Net-(D6-A)*%
X145669000Y-61515452D02*
X145669000Y-62674500D01*
X141859000Y-57705452D02*
X145669000Y-61515452D01*
X141859000Y-55372000D02*
X141859000Y-57705452D01*
%TO.N,Net-(D7-A)*%
X122809000Y-57705452D02*
X126619000Y-61515452D01*
X126619000Y-61515452D02*
X126619000Y-62674500D01*
X122809000Y-55372000D02*
X122809000Y-57705452D01*
%TO.N,Net-(D8-A)*%
X103759000Y-57705452D02*
X107569000Y-61515452D01*
X107569000Y-61515452D02*
X107569000Y-62674500D01*
X103759000Y-55372000D02*
X103759000Y-57705452D01*
%TO.N,Net-(D9-A)*%
X84709000Y-55372000D02*
X84709000Y-57705452D01*
X88519000Y-61515452D02*
X88519000Y-62674500D01*
X84709000Y-57705452D02*
X88519000Y-61515452D01*
%TO.N,Net-(D10-A)*%
X69469000Y-61515452D02*
X69469000Y-62674500D01*
X65659000Y-55372000D02*
X65659000Y-57705452D01*
X65659000Y-57705452D02*
X69469000Y-61515452D01*
%TO.N,Net-(D11-A)*%
X237109000Y-74422000D02*
X237109000Y-76755452D01*
X237109000Y-76755452D02*
X240919000Y-80565452D01*
X240919000Y-80565452D02*
X240919000Y-81724500D01*
%TO.N,/row1*%
X249144000Y-50991000D02*
X249144000Y-76799500D01*
X247310000Y-49157000D02*
X249144000Y-50991000D01*
X249144000Y-76799500D02*
X240919000Y-85024500D01*
X225361500Y-44100750D02*
X230417750Y-49157000D01*
X230417750Y-49157000D02*
X247310000Y-49157000D01*
X69469000Y-85024500D02*
X240919000Y-85024500D01*
%TO.N,Net-(D12-A)*%
X221869000Y-80565452D02*
X221869000Y-81724500D01*
X218059000Y-74422000D02*
X218059000Y-76755452D01*
X218059000Y-76755452D02*
X221869000Y-80565452D01*
%TO.N,Net-(D13-A)*%
X199009000Y-76755452D02*
X202819000Y-80565452D01*
X202819000Y-80565452D02*
X202819000Y-81724500D01*
X199009000Y-74422000D02*
X199009000Y-76755452D01*
%TO.N,Net-(D14-A)*%
X179959000Y-74422000D02*
X179959000Y-76755452D01*
X183769000Y-80565452D02*
X183769000Y-81724500D01*
X179959000Y-76755452D02*
X183769000Y-80565452D01*
%TO.N,Net-(D15-A)*%
X160909000Y-74422000D02*
X160909000Y-76755452D01*
X164719000Y-80565452D02*
X164719000Y-81724500D01*
X160909000Y-76755452D02*
X164719000Y-80565452D01*
%TO.N,Net-(D16-A)*%
X141859000Y-76755452D02*
X145669000Y-80565452D01*
X145669000Y-80565452D02*
X145669000Y-81724500D01*
X141859000Y-74422000D02*
X141859000Y-76755452D01*
%TO.N,Net-(D17-A)*%
X122809000Y-74422000D02*
X122809000Y-76537486D01*
X126619000Y-80347486D02*
X126619000Y-81724500D01*
X122809000Y-76537486D02*
X126619000Y-80347486D01*
%TO.N,Net-(D18-A)*%
X103759000Y-76755452D02*
X107569000Y-80565452D01*
X103759000Y-74422000D02*
X103759000Y-76755452D01*
X107569000Y-80565452D02*
X107569000Y-81724500D01*
%TO.N,Net-(D19-A)*%
X84709000Y-76755452D02*
X88519000Y-80565452D01*
X88519000Y-80565452D02*
X88519000Y-81724500D01*
X84709000Y-74422000D02*
X84709000Y-76755452D01*
%TO.N,Net-(D20-A)*%
X69469000Y-80565452D02*
X69469000Y-81724500D01*
X65659000Y-74422000D02*
X65659000Y-76755452D01*
X65659000Y-76755452D02*
X69469000Y-80565452D01*
%TO.N,Net-(D21-A)*%
X231394000Y-99615452D02*
X231394000Y-100774500D01*
X227584000Y-93472000D02*
X227584000Y-95805452D01*
X227584000Y-95805452D02*
X231394000Y-99615452D01*
%TO.N,/row2*%
X247517107Y-48657000D02*
X249644000Y-50783893D01*
X231394000Y-104074500D02*
X78994000Y-104074500D01*
X249644000Y-85824500D02*
X231394000Y-104074500D01*
X227901500Y-44100750D02*
X232457750Y-48657000D01*
X232457750Y-48657000D02*
X247517107Y-48657000D01*
X249644000Y-50783893D02*
X249644000Y-85824500D01*
%TO.N,Net-(D22-A)*%
X208534000Y-95805452D02*
X212344000Y-99615452D01*
X208534000Y-93472000D02*
X208534000Y-95805452D01*
X212344000Y-99615452D02*
X212344000Y-100774500D01*
%TO.N,Net-(D23-A)*%
X189484000Y-93472000D02*
X189484000Y-95587486D01*
X189484000Y-95587486D02*
X193294000Y-99397486D01*
X193294000Y-99397486D02*
X193294000Y-100774500D01*
%TO.N,Net-(D24-A)*%
X170434000Y-93472000D02*
X170434000Y-95805452D01*
X170434000Y-95805452D02*
X174244000Y-99615452D01*
X174244000Y-99615452D02*
X174244000Y-100774500D01*
%TO.N,Net-(D25-A)*%
X151384000Y-95805452D02*
X155194000Y-99615452D01*
X155194000Y-99615452D02*
X155194000Y-100774500D01*
X151384000Y-93472000D02*
X151384000Y-95805452D01*
%TO.N,Net-(D26-A)*%
X136144000Y-99615452D02*
X136144000Y-100774500D01*
X132334000Y-95805452D02*
X136144000Y-99615452D01*
X132334000Y-93472000D02*
X132334000Y-95805452D01*
%TO.N,Net-(D27-A)*%
X117094000Y-99397486D02*
X117094000Y-100774500D01*
X113284000Y-93472000D02*
X113284000Y-95587486D01*
X113284000Y-95587486D02*
X117094000Y-99397486D01*
%TO.N,Net-(D28-A)*%
X98044000Y-99615452D02*
X98044000Y-100774500D01*
X94234000Y-93472000D02*
X94234000Y-95805452D01*
X94234000Y-95805452D02*
X98044000Y-99615452D01*
%TO.N,Net-(D29-A)*%
X78994000Y-99615452D02*
X78994000Y-100774500D01*
X75184000Y-93472000D02*
X75184000Y-95805452D01*
X75184000Y-95805452D02*
X78994000Y-99615452D01*
%TO.N,Net-(D30-A)*%
X237109000Y-112522000D02*
X237109000Y-114855452D01*
X240919000Y-118665452D02*
X240919000Y-119824500D01*
X237109000Y-114855452D02*
X240919000Y-118665452D01*
%TO.N,/row3*%
X247724214Y-48157000D02*
X250144000Y-50576786D01*
X250144000Y-113899500D02*
X240919000Y-123124500D01*
X234497750Y-48157000D02*
X247724214Y-48157000D01*
X230441500Y-44100750D02*
X234497750Y-48157000D01*
X250144000Y-50576786D02*
X250144000Y-113899500D01*
X69469000Y-123124500D02*
X240919000Y-123124500D01*
%TO.N,Net-(D31-A)*%
X218059000Y-114855452D02*
X221869000Y-118665452D01*
X218059000Y-112522000D02*
X218059000Y-114855452D01*
X221869000Y-118665452D02*
X221869000Y-119824500D01*
%TO.N,Net-(D32-A)*%
X202819000Y-118665452D02*
X202819000Y-119824500D01*
X199009000Y-112522000D02*
X199009000Y-114855452D01*
X199009000Y-114855452D02*
X202819000Y-118665452D01*
%TO.N,Net-(D33-A)*%
X183769000Y-118665452D02*
X183769000Y-119824500D01*
X179959000Y-114855452D02*
X183769000Y-118665452D01*
X179959000Y-112522000D02*
X179959000Y-114855452D01*
%TO.N,Net-(D34-A)*%
X160909000Y-112522000D02*
X160909000Y-114855452D01*
X160909000Y-114855452D02*
X164719000Y-118665452D01*
X164719000Y-118665452D02*
X164719000Y-119824500D01*
%TO.N,Net-(D35-A)*%
X141859000Y-112522000D02*
X141859000Y-114855452D01*
X141859000Y-114855452D02*
X145669000Y-118665452D01*
X145669000Y-118665452D02*
X145669000Y-119824500D01*
%TO.N,Net-(D36-A)*%
X126619000Y-118665452D02*
X126619000Y-119824500D01*
X122809000Y-114855452D02*
X126619000Y-118665452D01*
X122809000Y-112522000D02*
X122809000Y-114855452D01*
%TO.N,Net-(D37-A)*%
X103759000Y-114855452D02*
X107569000Y-118665452D01*
X103759000Y-112522000D02*
X103759000Y-114855452D01*
X107569000Y-118665452D02*
X107569000Y-119824500D01*
%TO.N,Net-(D38-A)*%
X88519000Y-118665452D02*
X88519000Y-119824500D01*
X84709000Y-114855452D02*
X88519000Y-118665452D01*
X84709000Y-112522000D02*
X84709000Y-114855452D01*
%TO.N,Net-(D39-A)*%
X69469000Y-118665452D02*
X69469000Y-119824500D01*
X65659000Y-112522000D02*
X65659000Y-114855452D01*
X65659000Y-114855452D02*
X69469000Y-118665452D01*
%TO.N,/row4*%
X247931321Y-47657000D02*
X250694000Y-50419679D01*
X236537750Y-47657000D02*
X247931321Y-47657000D01*
X232981500Y-44100750D02*
X236537750Y-47657000D01*
X250694000Y-50419679D02*
X250694000Y-132399500D01*
X250694000Y-132399500D02*
X240919000Y-142174500D01*
X240919000Y-142174500D02*
X69469000Y-142174500D01*
%TO.N,Net-(D40-A)*%
X237109000Y-133905452D02*
X240919000Y-137715452D01*
X237109000Y-131572000D02*
X237109000Y-133905452D01*
X240919000Y-137715452D02*
X240919000Y-138874500D01*
%TO.N,Net-(D41-A)*%
X218059000Y-133905452D02*
X221869000Y-137715452D01*
X221869000Y-137715452D02*
X221869000Y-138874500D01*
X218059000Y-131572000D02*
X218059000Y-133905452D01*
%TO.N,Net-(D42-A)*%
X199009000Y-131572000D02*
X199009000Y-133905452D01*
X199009000Y-133905452D02*
X202819000Y-137715452D01*
X202819000Y-137715452D02*
X202819000Y-138874500D01*
%TO.N,Net-(D43-A)*%
X179006500Y-137477952D02*
X179006500Y-138874500D01*
X175434000Y-131572000D02*
X175434000Y-133905452D01*
X175434000Y-133905452D02*
X179006500Y-137477952D01*
%TO.N,Net-(D44-A)*%
X155194000Y-137715452D02*
X155194000Y-138874500D01*
X151384000Y-133905452D02*
X155194000Y-137715452D01*
X151384000Y-131572000D02*
X151384000Y-133905452D01*
%TO.N,Net-(D45-A)*%
X131381500Y-137497486D02*
X131381500Y-138874500D01*
X127571500Y-131572000D02*
X127571500Y-133687486D01*
X127571500Y-133687486D02*
X131381500Y-137497486D01*
%TO.N,Net-(D46-A)*%
X103759000Y-133687486D02*
X107569000Y-137497486D01*
X107569000Y-137497486D02*
X107569000Y-138874500D01*
X103759000Y-131572000D02*
X103759000Y-133687486D01*
%TO.N,Net-(D47-A)*%
X88519000Y-137715452D02*
X88519000Y-138874500D01*
X84709000Y-131572000D02*
X84709000Y-133905452D01*
X84709000Y-133905452D02*
X88519000Y-137715452D01*
%TO.N,Net-(D48-A)*%
X69469000Y-137715452D02*
X69469000Y-138874500D01*
X65659000Y-133905452D02*
X69469000Y-137715452D01*
X65659000Y-131572000D02*
X65659000Y-133905452D01*
%TO.N,/col0*%
X226354000Y-50157000D02*
X244334000Y-50157000D01*
X244334000Y-50157000D02*
X247009000Y-52832000D01*
X220281500Y-44100750D02*
X220297750Y-44100750D01*
X220297750Y-44100750D02*
X226354000Y-50157000D01*
%TO.N,/col1*%
X227184000Y-50657000D02*
X227959000Y-51432000D01*
X217741500Y-44100750D02*
X217741500Y-44144500D01*
X217741500Y-44100750D02*
X218447749Y-44807000D01*
X224297749Y-50657000D02*
X227184000Y-50657000D01*
X227959000Y-51432000D02*
X227959000Y-52832000D01*
X218447749Y-44807000D02*
X224297749Y-50657000D01*
%TO.N,/col2*%
X208909000Y-50552000D02*
X208909000Y-52832000D01*
X202274000Y-38286203D02*
X202274000Y-43917000D01*
X235521500Y-28860750D02*
X231195250Y-33187000D01*
X231195250Y-33187000D02*
X207373203Y-33187000D01*
X207373203Y-33187000D02*
X202274000Y-38286203D01*
X202274000Y-43917000D02*
X208909000Y-50552000D01*
%TO.N,/col3*%
X232981500Y-28860750D02*
X229155250Y-32687000D01*
X229155250Y-32687000D02*
X207166097Y-32687000D01*
X189194000Y-52167000D02*
X189859000Y-52832000D01*
X189194000Y-50659097D02*
X189194000Y-52167000D01*
X207166097Y-32687000D02*
X189194000Y-50659097D01*
%TO.N,/col4*%
X230441500Y-28860750D02*
X227115250Y-32187000D01*
X188625460Y-50520531D02*
X173120469Y-50520531D01*
X170809000Y-52832000D02*
X167259000Y-52832000D01*
X173120469Y-50520531D02*
X170809000Y-52832000D01*
X206958991Y-32187000D02*
X188625460Y-50520531D01*
X227115250Y-32187000D02*
X206958991Y-32187000D01*
%TO.N,/col5*%
X225075250Y-31687000D02*
X206751885Y-31687000D01*
X151759000Y-52832000D02*
X148209000Y-52832000D01*
X154570469Y-50020531D02*
X151759000Y-52832000D01*
X206751885Y-31687000D02*
X188418354Y-50020531D01*
X188418354Y-50020531D02*
X154570469Y-50020531D01*
X227901500Y-28860750D02*
X225075250Y-31687000D01*
%TO.N,/col6*%
X188504140Y-49227637D02*
X206544777Y-31187000D01*
X206544777Y-31187000D02*
X223035250Y-31187000D01*
X223035250Y-31187000D02*
X225361500Y-28860750D01*
X129159000Y-52832000D02*
X132709000Y-52832000D01*
X188504140Y-49227638D02*
X188504140Y-49227637D01*
X136020469Y-49520531D02*
X188211247Y-49520531D01*
X188211247Y-49520531D02*
X188504140Y-49227638D01*
X132709000Y-52832000D02*
X136020469Y-49520531D01*
%TO.N,/col7*%
X222821500Y-28860750D02*
X220995250Y-30687000D01*
X206337671Y-30687000D02*
X188004140Y-49020531D01*
X188004140Y-49020531D02*
X117470469Y-49020531D01*
X220995250Y-30687000D02*
X206337671Y-30687000D01*
X113659000Y-52832000D02*
X110109000Y-52832000D01*
X117470469Y-49020531D02*
X113659000Y-52832000D01*
%TO.N,/col8*%
X206130565Y-30187000D02*
X187797034Y-48520531D01*
X187797034Y-48520531D02*
X98920469Y-48520531D01*
X98920469Y-48520531D02*
X94609000Y-52832000D01*
X94609000Y-52832000D02*
X91059000Y-52832000D01*
X220281500Y-28860750D02*
X218955250Y-30187000D01*
X218955250Y-30187000D02*
X206130565Y-30187000D01*
%TO.N,/col9*%
X80370469Y-48020531D02*
X75559000Y-52832000D01*
X75559000Y-52832000D02*
X72009000Y-52832000D01*
X217741500Y-28860750D02*
X216915250Y-29687000D01*
X205923242Y-29687000D02*
X187589711Y-48020531D01*
X216915250Y-29687000D02*
X205923242Y-29687000D01*
X187589711Y-48020531D02*
X80370469Y-48020531D01*
%TD*%
M02*
