%TF.GenerationSoftware,KiCad,Pcbnew,8.0.6*%
%TF.CreationDate,2024-12-01T20:43:42-07:00*%
%TF.ProjectId,newk-tabesque48,6e65776b-2d74-4616-9265-737175653438,rev?*%
%TF.SameCoordinates,Original*%
%TF.FileFunction,Soldermask,Top*%
%TF.FilePolarity,Negative*%
%FSLAX46Y46*%
G04 Gerber Fmt 4.6, Leading zero omitted, Abs format (unit mm)*
G04 Created by KiCad (PCBNEW 8.0.6) date 2024-12-01 20:43:42*
%MOMM*%
%LPD*%
G01*
G04 APERTURE LIST*
%ADD10C,1.397000*%
%ADD11C,1.750000*%
%ADD12C,3.987800*%
%ADD13C,3.300000*%
G04 APERTURE END LIST*
D10*
%TO.C,SW1*%
X206629000Y-37846000D03*
X214249000Y-37846000D03*
X206629000Y-42926000D03*
X214249000Y-42926000D03*
%TD*%
D11*
%TO.C,MX33*%
X188849000Y-115062000D03*
D12*
X183769000Y-115062000D03*
D11*
X178689000Y-115062000D03*
D13*
X179959000Y-112522000D03*
X186309000Y-109982000D03*
%TD*%
D11*
%TO.C,MX31*%
X226949000Y-115062000D03*
D12*
X221869000Y-115062000D03*
D11*
X216789000Y-115062000D03*
D13*
X218059000Y-112522000D03*
X224409000Y-109982000D03*
%TD*%
D11*
%TO.C,MX44*%
X160274000Y-134112000D03*
D12*
X155194000Y-134112000D03*
D11*
X150114000Y-134112000D03*
D13*
X151384000Y-131572000D03*
X157734000Y-129032000D03*
%TD*%
D11*
%TO.C,MX4*%
X188849000Y-57912000D03*
D12*
X183769000Y-57912000D03*
D11*
X178689000Y-57912000D03*
D13*
X179959000Y-55372000D03*
X186309000Y-52832000D03*
%TD*%
D11*
%TO.C,MX12*%
X226949000Y-76962000D03*
D12*
X221869000Y-76962000D03*
D11*
X216789000Y-76962000D03*
D13*
X218059000Y-74422000D03*
X224409000Y-71882000D03*
%TD*%
D11*
%TO.C,MX37*%
X112649000Y-115062000D03*
D12*
X107569000Y-115062000D03*
D11*
X102489000Y-115062000D03*
D13*
X103759000Y-112522000D03*
X110109000Y-109982000D03*
%TD*%
D11*
%TO.C,MX20*%
X74549000Y-76962000D03*
D12*
X69469000Y-76962000D03*
D11*
X64389000Y-76962000D03*
D13*
X65659000Y-74422000D03*
X72009000Y-71882000D03*
%TD*%
D11*
%TO.C,MX39*%
X74549000Y-115062000D03*
D12*
X69469000Y-115062000D03*
D11*
X64389000Y-115062000D03*
D13*
X65659000Y-112522000D03*
X72009000Y-109982000D03*
%TD*%
D11*
%TO.C,MX3*%
X207899000Y-57912000D03*
D12*
X202819000Y-57912000D03*
D11*
X197739000Y-57912000D03*
D13*
X199009000Y-55372000D03*
X205359000Y-52832000D03*
%TD*%
D11*
%TO.C,MX13*%
X207899000Y-76962000D03*
D12*
X202819000Y-76962000D03*
D11*
X197739000Y-76962000D03*
D13*
X199009000Y-74422000D03*
X205359000Y-71882000D03*
%TD*%
D11*
%TO.C,MX2*%
X226949000Y-57912000D03*
D12*
X221869000Y-57912000D03*
D11*
X216789000Y-57912000D03*
D13*
X218059000Y-55372000D03*
X224409000Y-52832000D03*
%TD*%
D11*
%TO.C,MX7*%
X131699000Y-57912000D03*
D12*
X126619000Y-57912000D03*
D11*
X121539000Y-57912000D03*
D13*
X122809000Y-55372000D03*
X129159000Y-52832000D03*
%TD*%
D11*
%TO.C,MX1*%
X245999000Y-57912000D03*
D12*
X240919000Y-57912000D03*
D11*
X235839000Y-57912000D03*
D13*
X237109000Y-55372000D03*
X243459000Y-52832000D03*
%TD*%
D11*
%TO.C,MX19*%
X93599000Y-76962000D03*
D12*
X88519000Y-76962000D03*
D11*
X83439000Y-76962000D03*
D13*
X84709000Y-74422000D03*
X91059000Y-71882000D03*
%TD*%
D11*
%TO.C,MX40*%
X245999000Y-134112000D03*
D12*
X240919000Y-134112000D03*
D11*
X235839000Y-134112000D03*
D13*
X237109000Y-131572000D03*
X243459000Y-129032000D03*
%TD*%
D11*
%TO.C,MX36*%
X131699000Y-115062000D03*
D12*
X126619000Y-115062000D03*
D11*
X121539000Y-115062000D03*
D13*
X122809000Y-112522000D03*
X129159000Y-109982000D03*
%TD*%
D11*
%TO.C,MX46*%
X112649000Y-134112000D03*
D12*
X107569000Y-134112000D03*
D11*
X102489000Y-134112000D03*
D13*
X103759000Y-131572000D03*
X110109000Y-129032000D03*
%TD*%
D11*
%TO.C,MX16*%
X150749000Y-76962000D03*
D12*
X145669000Y-76962000D03*
D11*
X140589000Y-76962000D03*
D13*
X141859000Y-74422000D03*
X148209000Y-71882000D03*
%TD*%
D11*
%TO.C,MX41*%
X226949000Y-134112000D03*
D12*
X221869000Y-134112000D03*
D11*
X216789000Y-134112000D03*
D13*
X218059000Y-131572000D03*
X224409000Y-129032000D03*
%TD*%
D11*
%TO.C,MX17*%
X131699000Y-76962000D03*
D12*
X126619000Y-76962000D03*
D11*
X121539000Y-76962000D03*
D13*
X122809000Y-74422000D03*
X129159000Y-71882000D03*
%TD*%
D11*
%TO.C,MX9*%
X93599000Y-57912000D03*
D12*
X88519000Y-57912000D03*
D11*
X83439000Y-57912000D03*
D13*
X84709000Y-55372000D03*
X91059000Y-52832000D03*
%TD*%
D11*
%TO.C,MX25*%
X160274000Y-96012000D03*
D12*
X155194000Y-96012000D03*
D11*
X150114000Y-96012000D03*
D13*
X151384000Y-93472000D03*
X157734000Y-90932000D03*
%TD*%
D11*
%TO.C,MX10*%
X74549000Y-57912000D03*
D12*
X69469000Y-57912000D03*
D11*
X64389000Y-57912000D03*
D13*
X65659000Y-55372000D03*
X72009000Y-52832000D03*
%TD*%
D11*
%TO.C,MX5*%
X169799000Y-57912000D03*
D12*
X164719000Y-57912000D03*
D11*
X159639000Y-57912000D03*
D13*
X160909000Y-55372000D03*
X167259000Y-52832000D03*
%TD*%
D11*
%TO.C,MX23*%
X198374000Y-96012000D03*
D12*
X193294000Y-96012000D03*
D11*
X188214000Y-96012000D03*
D13*
X189484000Y-93472000D03*
X195834000Y-90932000D03*
%TD*%
D11*
%TO.C,MX24*%
X179324000Y-96012000D03*
D12*
X174244000Y-96012000D03*
D11*
X169164000Y-96012000D03*
D13*
X170434000Y-93472000D03*
X176784000Y-90932000D03*
%TD*%
D11*
%TO.C,MX27*%
X122174000Y-96012000D03*
D12*
X117094000Y-96012000D03*
D11*
X112014000Y-96012000D03*
D13*
X113284000Y-93472000D03*
X119634000Y-90932000D03*
%TD*%
D11*
%TO.C,MX47*%
X93599000Y-134112000D03*
D12*
X88519000Y-134112000D03*
D11*
X83439000Y-134112000D03*
D13*
X84709000Y-131572000D03*
X91059000Y-129032000D03*
%TD*%
D11*
%TO.C,MX30*%
X245999000Y-115062000D03*
D12*
X240919000Y-115062000D03*
D11*
X235839000Y-115062000D03*
D13*
X237109000Y-112522000D03*
X243459000Y-109982000D03*
%TD*%
D11*
%TO.C,MX14*%
X188849000Y-76962000D03*
D12*
X183769000Y-76962000D03*
D11*
X178689000Y-76962000D03*
D13*
X179959000Y-74422000D03*
X186309000Y-71882000D03*
%TD*%
D11*
%TO.C,MX11*%
X245999000Y-76962000D03*
D12*
X240919000Y-76962000D03*
D11*
X235839000Y-76962000D03*
D13*
X237109000Y-74422000D03*
X243459000Y-71882000D03*
%TD*%
D11*
%TO.C,MX22*%
X217424000Y-96012000D03*
D12*
X212344000Y-96012000D03*
D11*
X207264000Y-96012000D03*
D13*
X208534000Y-93472000D03*
X214884000Y-90932000D03*
%TD*%
D11*
%TO.C,MX15*%
X169799000Y-76962000D03*
D12*
X164719000Y-76962000D03*
D11*
X159639000Y-76962000D03*
D13*
X160909000Y-74422000D03*
X167259000Y-71882000D03*
%TD*%
D11*
%TO.C,MX43*%
X184324000Y-134112000D03*
D12*
X179244000Y-134112000D03*
D11*
X174164000Y-134112000D03*
D13*
X175434000Y-131572000D03*
X181784000Y-129032000D03*
%TD*%
D11*
%TO.C,MX35*%
X150749000Y-115062000D03*
D12*
X145669000Y-115062000D03*
D11*
X140589000Y-115062000D03*
D13*
X141859000Y-112522000D03*
X148209000Y-109982000D03*
%TD*%
D11*
%TO.C,MX29*%
X84074000Y-96012000D03*
D12*
X78994000Y-96012000D03*
D11*
X73914000Y-96012000D03*
D13*
X75184000Y-93472000D03*
X81534000Y-90932000D03*
%TD*%
D11*
%TO.C,MX34*%
X169799000Y-115062000D03*
D12*
X164719000Y-115062000D03*
D11*
X159639000Y-115062000D03*
D13*
X160909000Y-112522000D03*
X167259000Y-109982000D03*
%TD*%
D11*
%TO.C,MX8*%
X112649000Y-57912000D03*
D12*
X107569000Y-57912000D03*
D11*
X102489000Y-57912000D03*
D13*
X103759000Y-55372000D03*
X110109000Y-52832000D03*
%TD*%
D11*
%TO.C,MX26*%
X141224000Y-96012000D03*
D12*
X136144000Y-96012000D03*
D11*
X131064000Y-96012000D03*
D13*
X132334000Y-93472000D03*
X138684000Y-90932000D03*
%TD*%
D11*
%TO.C,MX48*%
X74549000Y-134112000D03*
D12*
X69469000Y-134112000D03*
D11*
X64389000Y-134112000D03*
D13*
X65659000Y-131572000D03*
X72009000Y-129032000D03*
%TD*%
D11*
%TO.C,MX6*%
X150749000Y-57912000D03*
D12*
X145669000Y-57912000D03*
D11*
X140589000Y-57912000D03*
D13*
X141859000Y-55372000D03*
X148209000Y-52832000D03*
%TD*%
D11*
%TO.C,MX28*%
X103124000Y-96012000D03*
D12*
X98044000Y-96012000D03*
D11*
X92964000Y-96012000D03*
D13*
X94234000Y-93472000D03*
X100584000Y-90932000D03*
%TD*%
D11*
%TO.C,MX38*%
X93599000Y-115062000D03*
D12*
X88519000Y-115062000D03*
D11*
X83439000Y-115062000D03*
D13*
X84709000Y-112522000D03*
X91059000Y-109982000D03*
%TD*%
D11*
%TO.C,MX18*%
X112649000Y-76962000D03*
D12*
X107569000Y-76962000D03*
D11*
X102489000Y-76962000D03*
D13*
X103759000Y-74422000D03*
X110109000Y-71882000D03*
%TD*%
D11*
%TO.C,MX45*%
X136461500Y-134112000D03*
D12*
X131381500Y-134112000D03*
D11*
X126301500Y-134112000D03*
D13*
X127571500Y-131572000D03*
X133921500Y-129032000D03*
%TD*%
D11*
%TO.C,MX32*%
X207899000Y-115062000D03*
D12*
X202819000Y-115062000D03*
D11*
X197739000Y-115062000D03*
D13*
X199009000Y-112522000D03*
X205359000Y-109982000D03*
%TD*%
D11*
%TO.C,MX21*%
X236474000Y-96012000D03*
D12*
X231394000Y-96012000D03*
D11*
X226314000Y-96012000D03*
D13*
X227584000Y-93472000D03*
X233934000Y-90932000D03*
%TD*%
D11*
%TO.C,MX42*%
X207899000Y-134112000D03*
D12*
X202819000Y-134112000D03*
D11*
X197739000Y-134112000D03*
D13*
X199009000Y-131572000D03*
X205359000Y-129032000D03*
%TD*%
M02*
