M48
; DRILL file {KiCad 8.0.6} date 2024-12-20T15:57:00-0700
; FORMAT={-:-/ absolute / inch / decimal}
; #@! TF.CreationDate,2024-12-20T15:57:00-07:00
; #@! TF.GenerationSoftware,Kicad,Pcbnew,8.0.6
; #@! TF.FileFunction,NonPlated,1,2,NPTH
FMAT,2
INCH
; #@! TA.AperFunction,NonPlated,NPTH,ComponentDrill
T1C0.0689
; #@! TA.AperFunction,NonPlated,NPTH,ComponentDrill
T2C0.1570
%
G90
G05
T1
X4.191Y-4.3285
X4.191Y-5.0785
X4.191Y-5.8285
X4.191Y-6.5785
X4.566Y-7.3285
X4.591Y-4.3285
X4.591Y-5.0785
X4.591Y-5.8285
X4.591Y-6.5785
X4.941Y-4.3285
X4.941Y-5.0785
X4.941Y-5.8285
X4.941Y-6.5785
X4.966Y-7.3285
X5.341Y-4.3285
X5.341Y-5.0785
X5.341Y-5.8285
X5.341Y-6.5785
X5.691Y-4.3285
X5.691Y-5.0785
X5.691Y-5.8285
X5.691Y-6.5785
X6.066Y-7.3285
X6.091Y-4.3285
X6.091Y-5.0785
X6.091Y-5.8285
X6.091Y-6.5785
X6.441Y-4.3285
X6.441Y-5.0785
X6.441Y-5.8285
X6.441Y-6.5785
X6.466Y-7.3285
X6.841Y-4.3285
X6.841Y-5.0785
X6.841Y-5.8285
X6.841Y-6.5785
X7.8004Y-5.0785
X7.8004Y-7.3285
X7.8941Y-6.5785
X7.9879Y-4.3285
X7.9879Y-5.8285
X8.2004Y-5.0785
X8.2004Y-7.3285
X8.2941Y-6.5785
X8.3879Y-4.3285
X8.3879Y-5.8285
X8.6441Y-5.0785
X8.6441Y-7.3285
X8.8316Y-6.5785
X9.0191Y-4.3285
X9.0191Y-5.8285
X9.0441Y-5.0785
X9.0441Y-7.3285
X9.2316Y-6.5785
X9.3941Y-5.0785
X9.4191Y-4.3285
X9.4191Y-5.8285
X9.4879Y-7.3285
X9.5816Y-6.5785
X9.7691Y-4.3285
X9.7691Y-5.8285
X9.7941Y-5.0785
X9.8879Y-7.3285
X9.9816Y-6.5785
X10.1441Y-5.0785
X10.1691Y-4.3285
X10.1691Y-5.8285
X10.3316Y-6.5785
X10.5191Y-4.3285
X10.5191Y-5.8285
X10.5441Y-5.0785
X10.7316Y-6.5785
X10.8004Y-7.3285
X10.8941Y-5.0785
X10.9191Y-4.3285
X10.9191Y-5.8285
X11.0816Y-6.5785
X11.2004Y-7.3285
X11.2691Y-4.3285
X11.2691Y-5.8285
X11.2941Y-5.0785
X11.4816Y-6.5785
X11.6441Y-5.0785
X11.6691Y-4.3285
X11.6691Y-5.8285
X11.8316Y-6.5785
X12.0191Y-4.3285
X12.0191Y-5.8285
X12.0441Y-5.0785
X12.2316Y-6.5785
X12.3941Y-5.0785
X12.4191Y-4.3285
X12.4191Y-5.8285
X12.5816Y-6.5785
X12.6754Y-7.3285
X12.7691Y-4.3285
X12.7691Y-5.8285
X12.7941Y-5.0785
X12.9816Y-6.5785
X13.0754Y-7.3285
X13.1441Y-5.0785
X13.1691Y-4.3285
X13.1691Y-5.8285
X13.3316Y-6.5785
X13.5191Y-4.3285
X13.5191Y-5.8285
X13.5441Y-5.0785
X13.7316Y-6.5785
X13.8941Y-5.0785
X13.9191Y-4.3285
X13.9191Y-5.8285
X14.0816Y-7.3285
X14.2941Y-5.0785
X14.4566Y-6.5785
X14.4816Y-7.3285
X14.5504Y-4.3285
X14.5504Y-5.8285
X14.7379Y-5.0785
X14.8316Y-7.3285
X14.8566Y-6.5785
X14.9504Y-4.3285
X14.9504Y-5.8285
X15.1379Y-5.0785
X15.2316Y-7.3285
T2
X4.391Y-4.3285
X4.391Y-5.0785
X4.391Y-5.8285
X4.391Y-6.5785
X4.766Y-7.3285
X5.141Y-4.3285
X5.141Y-5.0785
X5.141Y-5.8285
X5.141Y-6.5785
X5.891Y-4.3285
X5.891Y-5.0785
X5.891Y-5.8285
X5.891Y-6.5785
X6.266Y-7.3285
X6.641Y-4.3285
X6.641Y-5.0785
X6.641Y-5.8285
X6.641Y-6.5785
X8.0004Y-5.0785
X8.0004Y-7.3285
X8.0941Y-6.5785
X8.1879Y-4.3285
X8.1879Y-5.8285
X8.8441Y-5.0785
X8.8441Y-7.3285
X9.0316Y-6.5785
X9.2191Y-4.3285
X9.2191Y-5.8285
X9.5941Y-5.0785
X9.6879Y-7.3285
X9.7816Y-6.5785
X9.9691Y-4.3285
X9.9691Y-5.8285
X10.3441Y-5.0785
X10.5316Y-6.5785
X10.7191Y-4.3285
X10.7191Y-5.8285
X11.0004Y-7.3285
X11.0941Y-5.0785
X11.2816Y-6.5785
X11.4691Y-4.3285
X11.4691Y-5.8285
X11.8441Y-5.0785
X12.0316Y-6.5785
X12.2191Y-4.3285
X12.2191Y-5.8285
X12.5941Y-5.0785
X12.7816Y-6.5785
X12.8754Y-7.3285
X12.9691Y-4.3285
X12.9691Y-5.8285
X13.3441Y-5.0785
X13.5316Y-6.5785
X13.7191Y-4.3285
X13.7191Y-5.8285
X14.0941Y-5.0785
X14.2816Y-7.3285
X14.6566Y-6.5785
X14.7504Y-4.3285
X14.7504Y-5.8285
X14.9379Y-5.0785
X15.0316Y-7.3285
M30
