%TF.GenerationSoftware,KiCad,Pcbnew,8.0.6*%
%TF.CreationDate,2024-12-13T09:52:16-07:00*%
%TF.ProjectId,tabesco-48,74616265-7363-46f2-9d34-382e6b696361,rev?*%
%TF.SameCoordinates,Original*%
%TF.FileFunction,Copper,L2,Bot*%
%TF.FilePolarity,Positive*%
%FSLAX46Y46*%
G04 Gerber Fmt 4.6, Leading zero omitted, Abs format (unit mm)*
G04 Created by KiCad (PCBNEW 8.0.6) date 2024-12-13 09:52:16*
%MOMM*%
%LPD*%
G01*
G04 APERTURE LIST*
G04 Aperture macros list*
%AMRoundRect*
0 Rectangle with rounded corners*
0 $1 Rounding radius*
0 $2 $3 $4 $5 $6 $7 $8 $9 X,Y pos of 4 corners*
0 Add a 4 corners polygon primitive as box body*
4,1,4,$2,$3,$4,$5,$6,$7,$8,$9,$2,$3,0*
0 Add four circle primitives for the rounded corners*
1,1,$1+$1,$2,$3*
1,1,$1+$1,$4,$5*
1,1,$1+$1,$6,$7*
1,1,$1+$1,$8,$9*
0 Add four rect primitives between the rounded corners*
20,1,$1+$1,$2,$3,$4,$5,0*
20,1,$1+$1,$4,$5,$6,$7,0*
20,1,$1+$1,$6,$7,$8,$9,0*
20,1,$1+$1,$8,$9,$2,$3,0*%
G04 Aperture macros list end*
%TA.AperFunction,ComponentPad*%
%ADD10C,3.300000*%
%TD*%
%TA.AperFunction,SMDPad,CuDef*%
%ADD11R,1.650000X2.500000*%
%TD*%
%TA.AperFunction,SMDPad,CuDef*%
%ADD12RoundRect,0.250000X-1.025000X-1.000000X1.025000X-1.000000X1.025000X1.000000X-1.025000X1.000000X0*%
%TD*%
%TA.AperFunction,SMDPad,CuDef*%
%ADD13RoundRect,0.250000X1.025000X1.000000X-1.025000X1.000000X-1.025000X-1.000000X1.025000X-1.000000X0*%
%TD*%
%TA.AperFunction,SMDPad,CuDef*%
%ADD14RoundRect,0.225000X0.375000X-0.225000X0.375000X0.225000X-0.375000X0.225000X-0.375000X-0.225000X0*%
%TD*%
%TA.AperFunction,ComponentPad*%
%ADD15C,1.800000*%
%TD*%
%TA.AperFunction,ComponentPad*%
%ADD16RoundRect,0.450000X0.450000X-0.450000X0.450000X0.450000X-0.450000X0.450000X-0.450000X-0.450000X0*%
%TD*%
%TA.AperFunction,ViaPad*%
%ADD17C,0.600000*%
%TD*%
%TA.AperFunction,Conductor*%
%ADD18C,0.200000*%
%TD*%
G04 APERTURE END LIST*
D10*
%TO.P,MX34-2,1,1*%
%TO.N,Net-(D34-A)*%
X181921500Y-106539500D03*
D11*
X183746500Y-106539500D03*
D12*
X185471500Y-106539500D03*
%TO.P,MX34-2,2,2*%
%TO.N,/col6*%
X172021500Y-109079500D03*
D11*
X173771500Y-109079500D03*
D10*
X175571500Y-109079500D03*
%TD*%
%TO.P,MX33,1,1*%
%TO.N,Net-(D33-A)*%
X107626500Y-101459500D03*
D11*
X105801500Y-101459500D03*
D13*
X104076500Y-101459500D03*
%TO.P,MX33,2,2*%
%TO.N,/col3*%
X117526500Y-98919500D03*
D11*
X115776500Y-98919500D03*
D10*
X113976500Y-98919500D03*
%TD*%
D14*
%TO.P,D33,1,K*%
%TO.N,/row3*%
X104076500Y-107617000D03*
%TO.P,D33,2,A*%
%TO.N,Net-(D33-A)*%
X104076500Y-104317000D03*
%TD*%
D15*
%TO.P,U1,1,D3-TX*%
%TO.N,unconnected-(U1-D3-TX-Pad1)*%
X220656500Y-96379500D03*
%TO.P,U1,2,D2-RX*%
%TO.N,unconnected-(U1-D2-RX-Pad2)*%
X218116500Y-96379500D03*
D16*
%TO.P,U1,3,GND*%
%TO.N,GND*%
X215576500Y-96379500D03*
%TO.P,U1,4,GND*%
X213036500Y-96379500D03*
D15*
%TO.P,U1,5,D1*%
%TO.N,unconnected-(U1-D1-Pad5)*%
X210496500Y-96379500D03*
%TO.P,U1,6,D0*%
%TO.N,unconnected-(U1-D0-Pad6)*%
X207956500Y-96379500D03*
%TO.P,U1,7,D4*%
%TO.N,/row0*%
X205416500Y-96379500D03*
%TO.P,U1,8,C6*%
%TO.N,/row1*%
X202876500Y-96379500D03*
%TO.P,U1,9,D7*%
%TO.N,/col9*%
X200336500Y-96379500D03*
%TO.P,U1,10,E6*%
%TO.N,/row2*%
X197796500Y-96379500D03*
%TO.P,U1,11,B4*%
%TO.N,/col8*%
X195256500Y-96379500D03*
%TO.P,U1,12,B5*%
%TO.N,/row3*%
X192716500Y-96379500D03*
%TO.P,U1,13,B0*%
%TO.N,unconnected-(U1-B0-Pad13)*%
X220656500Y-111619500D03*
D16*
%TO.P,U1,14,GND*%
%TO.N,GND*%
X218116500Y-111619500D03*
D15*
%TO.P,U1,15,RST*%
%TO.N,RST*%
X215576500Y-111619500D03*
%TO.P,U1,16,VCC*%
%TO.N,VCC*%
X213036500Y-111619500D03*
%TO.P,U1,17,F4*%
%TO.N,/col0*%
X210496500Y-111619500D03*
%TO.P,U1,18,F5*%
%TO.N,/col1*%
X207956500Y-111619500D03*
%TO.P,U1,19,F6*%
%TO.N,/col2*%
X205416500Y-111619500D03*
%TO.P,U1,20,F7*%
%TO.N,/col3*%
X202876500Y-111619500D03*
%TO.P,U1,21,B1*%
%TO.N,/col7*%
X200336500Y-111619500D03*
%TO.P,U1,22,B3*%
%TO.N,/col6*%
X197796500Y-111619500D03*
%TO.P,U1,23,B2*%
%TO.N,/col5*%
X195256500Y-111619500D03*
%TO.P,U1,24,B6*%
%TO.N,/col4*%
X192716500Y-111619500D03*
%TD*%
D10*
%TO.P,MX34,1,1*%
%TO.N,Net-(D34-A)*%
X164776500Y-101459500D03*
D11*
X162951500Y-101459500D03*
D13*
X161226500Y-101459500D03*
%TO.P,MX34,2,2*%
%TO.N,/col6*%
X174676500Y-98919500D03*
D11*
X172926500Y-98919500D03*
D10*
X171126500Y-98919500D03*
%TD*%
%TO.P,MX32,1,1*%
%TO.N,Net-(D32-A)*%
X88576500Y-101459500D03*
D11*
X86751500Y-101459500D03*
D13*
X85026500Y-101459500D03*
%TO.P,MX32,2,2*%
%TO.N,/col2*%
X98476500Y-98919500D03*
D11*
X96726500Y-98919500D03*
D10*
X94926500Y-98919500D03*
%TD*%
%TO.P,MX31,1,1*%
%TO.N,Net-(D31-A)*%
X69526500Y-101459500D03*
D11*
X67701500Y-101459500D03*
D13*
X65976500Y-101459500D03*
%TO.P,MX31,2,2*%
%TO.N,/col1*%
X79426500Y-98919500D03*
D11*
X77676500Y-98919500D03*
D10*
X75876500Y-98919500D03*
%TD*%
%TO.P,MX30,1,1*%
%TO.N,Net-(D30-A)*%
X50476500Y-101459500D03*
D11*
X48651500Y-101459500D03*
D13*
X46926500Y-101459500D03*
%TO.P,MX30,2,2*%
%TO.N,/col0*%
X60376500Y-98919500D03*
D11*
X58626500Y-98919500D03*
D10*
X56826500Y-98919500D03*
%TD*%
%TO.P,MX29,1,1*%
%TO.N,Net-(D29-A)*%
X221926500Y-82409500D03*
D11*
X220101500Y-82409500D03*
D13*
X218376500Y-82409500D03*
%TO.P,MX29,2,2*%
%TO.N,/col9*%
X231826500Y-79869500D03*
D11*
X230076500Y-79869500D03*
D10*
X228276500Y-79869500D03*
%TD*%
%TO.P,MX28,1,1*%
%TO.N,Net-(D28-A)*%
X202876500Y-82409500D03*
D11*
X201051500Y-82409500D03*
D13*
X199326500Y-82409500D03*
%TO.P,MX28,2,2*%
%TO.N,/col8*%
X212776500Y-79869500D03*
D11*
X211026500Y-79869500D03*
D10*
X209226500Y-79869500D03*
%TD*%
%TO.P,MX27,1,1*%
%TO.N,Net-(D27-A)*%
X183826500Y-82409500D03*
D11*
X182001500Y-82409500D03*
D13*
X180276500Y-82409500D03*
%TO.P,MX27,2,2*%
%TO.N,/col7*%
X193726500Y-79869500D03*
D11*
X191976500Y-79869500D03*
D10*
X190176500Y-79869500D03*
%TD*%
%TO.P,MX26,1,1*%
%TO.N,Net-(D26-A)*%
X164776500Y-82409500D03*
D11*
X162951500Y-82409500D03*
D13*
X161226500Y-82409500D03*
%TO.P,MX26,2,2*%
%TO.N,/col6*%
X174676500Y-79869500D03*
D11*
X172926500Y-79869500D03*
D10*
X171126500Y-79869500D03*
%TD*%
%TO.P,MX25,1,1*%
%TO.N,Net-(D25-A)*%
X145726500Y-82409500D03*
D11*
X143901500Y-82409500D03*
D13*
X142176500Y-82409500D03*
%TO.P,MX25,2,2*%
%TO.N,/col5*%
X155626500Y-79869500D03*
D11*
X153876500Y-79869500D03*
D10*
X152076500Y-79869500D03*
%TD*%
%TO.P,MX24,1,1*%
%TO.N,Net-(D24-A)*%
X126676500Y-82409500D03*
D11*
X124851500Y-82409500D03*
D13*
X123126500Y-82409500D03*
%TO.P,MX24,2,2*%
%TO.N,/col4*%
X136576500Y-79869500D03*
D11*
X134826500Y-79869500D03*
D10*
X133026500Y-79869500D03*
%TD*%
%TO.P,MX23,1,1*%
%TO.N,Net-(D23-A)*%
X107626500Y-82409500D03*
D11*
X105801500Y-82409500D03*
D13*
X104076500Y-82409500D03*
%TO.P,MX23,2,2*%
%TO.N,/col3*%
X117526500Y-79869500D03*
D11*
X115776500Y-79869500D03*
D10*
X113976500Y-79869500D03*
%TD*%
%TO.P,MX22,1,1*%
%TO.N,Net-(D22-A)*%
X88576500Y-82409500D03*
D11*
X86751500Y-82409500D03*
D13*
X85026500Y-82409500D03*
%TO.P,MX22,2,2*%
%TO.N,/col2*%
X98476500Y-79869500D03*
D11*
X96726500Y-79869500D03*
D10*
X94926500Y-79869500D03*
%TD*%
%TO.P,MX21,1,1*%
%TO.N,Net-(D21-A)*%
X69526500Y-82409500D03*
D11*
X67701500Y-82409500D03*
D13*
X65976500Y-82409500D03*
%TO.P,MX21,2,2*%
%TO.N,/col1*%
X79426500Y-79869500D03*
D11*
X77676500Y-79869500D03*
D10*
X75876500Y-79869500D03*
%TD*%
%TO.P,MX20,1,1*%
%TO.N,Net-(D20-A)*%
X50476500Y-82409500D03*
D11*
X48651500Y-82409500D03*
D13*
X46926500Y-82409500D03*
%TO.P,MX20,2,2*%
%TO.N,/col0*%
X60376500Y-79869500D03*
D11*
X58626500Y-79869500D03*
D10*
X56826500Y-79869500D03*
%TD*%
%TO.P,MX19-2,1,1*%
%TO.N,Net-(D19-A)*%
X224784000Y-68439500D03*
D11*
X226609000Y-68439500D03*
D12*
X228334000Y-68439500D03*
%TO.P,MX19-2,2,2*%
%TO.N,/col8*%
X214884000Y-70979500D03*
D11*
X216634000Y-70979500D03*
D10*
X218434000Y-70979500D03*
%TD*%
%TO.P,MX19,1,1*%
%TO.N,Net-(D19-A)*%
X212401500Y-63359500D03*
D11*
X210576500Y-63359500D03*
D13*
X208851500Y-63359500D03*
%TO.P,MX19,2,2*%
%TO.N,/col8*%
X222301500Y-60819500D03*
D11*
X220551500Y-60819500D03*
D10*
X218751500Y-60819500D03*
%TD*%
%TO.P,MX18,1,1*%
%TO.N,Net-(D18-A)*%
X193351500Y-63359500D03*
D11*
X191526500Y-63359500D03*
D13*
X189801500Y-63359500D03*
%TO.P,MX18,2,2*%
%TO.N,/col7*%
X203251500Y-60819500D03*
D11*
X201501500Y-60819500D03*
D10*
X199701500Y-60819500D03*
%TD*%
%TO.P,MX17,1,1*%
%TO.N,Net-(D17-A)*%
X174301500Y-63359500D03*
D11*
X172476500Y-63359500D03*
D13*
X170751500Y-63359500D03*
%TO.P,MX17,2,2*%
%TO.N,/col6*%
X184201500Y-60819500D03*
D11*
X182451500Y-60819500D03*
D10*
X180651500Y-60819500D03*
%TD*%
%TO.P,MX16,1,1*%
%TO.N,Net-(D16-A)*%
X155251500Y-63359500D03*
D11*
X153426500Y-63359500D03*
D13*
X151701500Y-63359500D03*
%TO.P,MX16,2,2*%
%TO.N,/col5*%
X165151500Y-60819500D03*
D11*
X163401500Y-60819500D03*
D10*
X161601500Y-60819500D03*
%TD*%
%TO.P,MX15,1,1*%
%TO.N,Net-(D15-A)*%
X136201500Y-63359500D03*
D11*
X134376500Y-63359500D03*
D13*
X132651500Y-63359500D03*
%TO.P,MX15,2,2*%
%TO.N,/col4*%
X146101500Y-60819500D03*
D11*
X144351500Y-60819500D03*
D10*
X142551500Y-60819500D03*
%TD*%
%TO.P,MX14,1,1*%
%TO.N,Net-(D14-A)*%
X117151500Y-63359500D03*
D11*
X115326500Y-63359500D03*
D13*
X113601500Y-63359500D03*
%TO.P,MX14,2,2*%
%TO.N,/col3*%
X127051500Y-60819500D03*
D11*
X125301500Y-60819500D03*
D10*
X123501500Y-60819500D03*
%TD*%
%TO.P,MX13,1,1*%
%TO.N,Net-(D13-A)*%
X98101500Y-63359500D03*
D11*
X96276500Y-63359500D03*
D13*
X94551500Y-63359500D03*
%TO.P,MX13,2,2*%
%TO.N,/col2*%
X108001500Y-60819500D03*
D11*
X106251500Y-60819500D03*
D10*
X104451500Y-60819500D03*
%TD*%
%TO.P,MX12,1,1*%
%TO.N,Net-(D12-A)*%
X79051500Y-63359500D03*
D11*
X77226500Y-63359500D03*
D13*
X75501500Y-63359500D03*
%TO.P,MX12,2,2*%
%TO.N,/col1*%
X88951500Y-60819500D03*
D11*
X87201500Y-60819500D03*
D10*
X85401500Y-60819500D03*
%TD*%
%TO.P,MX11-2,1,1*%
%TO.N,Net-(D11-A)*%
X67621500Y-68439500D03*
D11*
X69446500Y-68439500D03*
D12*
X71171500Y-68439500D03*
%TO.P,MX11-2,2,2*%
%TO.N,/col0*%
X57721500Y-70979500D03*
D11*
X59471500Y-70979500D03*
D10*
X61271500Y-70979500D03*
%TD*%
%TO.P,MX11,1,1*%
%TO.N,Net-(D11-A)*%
X55239000Y-63359500D03*
D11*
X53414000Y-63359500D03*
D13*
X51689000Y-63359500D03*
%TO.P,MX11,2,2*%
%TO.N,/col0*%
X65139000Y-60819500D03*
D11*
X63389000Y-60819500D03*
D10*
X61589000Y-60819500D03*
%TD*%
%TO.P,MX10,1,1*%
%TO.N,Net-(D10-A)*%
X221926500Y-44309500D03*
D11*
X220101500Y-44309500D03*
D13*
X218376500Y-44309500D03*
%TO.P,MX10,2,2*%
%TO.N,/col9*%
X231826500Y-41769500D03*
D11*
X230076500Y-41769500D03*
D10*
X228276500Y-41769500D03*
%TD*%
%TO.P,MX9,1,1*%
%TO.N,Net-(D9-A)*%
X202876500Y-44309500D03*
D11*
X201051500Y-44309500D03*
D13*
X199326500Y-44309500D03*
%TO.P,MX9,2,2*%
%TO.N,/col8*%
X212776500Y-41769500D03*
D11*
X211026500Y-41769500D03*
D10*
X209226500Y-41769500D03*
%TD*%
%TO.P,MX8,1,1*%
%TO.N,Net-(D8-A)*%
X183826500Y-44309500D03*
D11*
X182001500Y-44309500D03*
D13*
X180276500Y-44309500D03*
%TO.P,MX8,2,2*%
%TO.N,/col7*%
X193726500Y-41769500D03*
D11*
X191976500Y-41769500D03*
D10*
X190176500Y-41769500D03*
%TD*%
%TO.P,MX7,1,1*%
%TO.N,Net-(D7-A)*%
X164776500Y-44309500D03*
D11*
X162951500Y-44309500D03*
D13*
X161226500Y-44309500D03*
%TO.P,MX7,2,2*%
%TO.N,/col6*%
X174676500Y-41769500D03*
D11*
X172926500Y-41769500D03*
D10*
X171126500Y-41769500D03*
%TD*%
%TO.P,MX6,1,1*%
%TO.N,Net-(D6-A)*%
X145726500Y-44309500D03*
D11*
X143901500Y-44309500D03*
D13*
X142176500Y-44309500D03*
%TO.P,MX6,2,2*%
%TO.N,/col5*%
X155626500Y-41769500D03*
D11*
X153876500Y-41769500D03*
D10*
X152076500Y-41769500D03*
%TD*%
%TO.P,MX5,1,1*%
%TO.N,Net-(D5-A)*%
X126676500Y-44309500D03*
D11*
X124851500Y-44309500D03*
D13*
X123126500Y-44309500D03*
%TO.P,MX5,2,2*%
%TO.N,/col4*%
X136576500Y-41769500D03*
D11*
X134826500Y-41769500D03*
D10*
X133026500Y-41769500D03*
%TD*%
%TO.P,MX4,1,1*%
%TO.N,Net-(D4-A)*%
X107626500Y-44309500D03*
D11*
X105801500Y-44309500D03*
D13*
X104076500Y-44309500D03*
%TO.P,MX4,2,2*%
%TO.N,/col3*%
X117526500Y-41769500D03*
D11*
X115776500Y-41769500D03*
D10*
X113976500Y-41769500D03*
%TD*%
%TO.P,MX3,1,1*%
%TO.N,Net-(D3-A)*%
X88576500Y-44309500D03*
D11*
X86751500Y-44309500D03*
D13*
X85026500Y-44309500D03*
%TO.P,MX3,2,2*%
%TO.N,/col2*%
X98476500Y-41769500D03*
D11*
X96726500Y-41769500D03*
D10*
X94926500Y-41769500D03*
%TD*%
%TO.P,MX2,1,1*%
%TO.N,Net-(D2-A)*%
X69526500Y-44309500D03*
D11*
X67701500Y-44309500D03*
D13*
X65976500Y-44309500D03*
%TO.P,MX2,2,2*%
%TO.N,/col1*%
X79426500Y-41769500D03*
D11*
X77676500Y-41769500D03*
D10*
X75876500Y-41769500D03*
%TD*%
%TO.P,MX1,2,2*%
%TO.N,/col0*%
X56826500Y-41769500D03*
D11*
X58626500Y-41769500D03*
D13*
X60376500Y-41769500D03*
%TO.P,MX1,1,1*%
%TO.N,Net-(D1-A)*%
X46926500Y-44309500D03*
D11*
X48651500Y-44309500D03*
D10*
X50476500Y-44309500D03*
%TD*%
D14*
%TO.P,D34,1,K*%
%TO.N,/row3*%
X161226500Y-107617000D03*
%TO.P,D34,2,A*%
%TO.N,Net-(D34-A)*%
X161226500Y-104317000D03*
%TD*%
%TO.P,D32,1,K*%
%TO.N,/row3*%
X85026500Y-107617000D03*
%TO.P,D32,2,A*%
%TO.N,Net-(D32-A)*%
X85026500Y-104317000D03*
%TD*%
%TO.P,D31,1,K*%
%TO.N,/row3*%
X65976500Y-107617000D03*
%TO.P,D31,2,A*%
%TO.N,Net-(D31-A)*%
X65976500Y-104317000D03*
%TD*%
%TO.P,D30,1,K*%
%TO.N,/row3*%
X46926500Y-107617000D03*
%TO.P,D30,2,A*%
%TO.N,Net-(D30-A)*%
X46926500Y-104317000D03*
%TD*%
%TO.P,D29,1,K*%
%TO.N,/row2*%
X218376500Y-88567000D03*
%TO.P,D29,2,A*%
%TO.N,Net-(D29-A)*%
X218376500Y-85267000D03*
%TD*%
%TO.P,D28,1,K*%
%TO.N,/row2*%
X199326500Y-88567000D03*
%TO.P,D28,2,A*%
%TO.N,Net-(D28-A)*%
X199326500Y-85267000D03*
%TD*%
%TO.P,D27,1,K*%
%TO.N,/row2*%
X180276500Y-88567000D03*
%TO.P,D27,2,A*%
%TO.N,Net-(D27-A)*%
X180276500Y-85267000D03*
%TD*%
%TO.P,D26,1,K*%
%TO.N,/row2*%
X161226500Y-88567000D03*
%TO.P,D26,2,A*%
%TO.N,Net-(D26-A)*%
X161226500Y-85267000D03*
%TD*%
%TO.P,D25,1,K*%
%TO.N,/row2*%
X142176500Y-88567000D03*
%TO.P,D25,2,A*%
%TO.N,Net-(D25-A)*%
X142176500Y-85267000D03*
%TD*%
%TO.P,D24,1,K*%
%TO.N,/row2*%
X123126500Y-88567000D03*
%TO.P,D24,2,A*%
%TO.N,Net-(D24-A)*%
X123126500Y-85267000D03*
%TD*%
%TO.P,D23,1,K*%
%TO.N,/row2*%
X104076500Y-88567000D03*
%TO.P,D23,2,A*%
%TO.N,Net-(D23-A)*%
X104076500Y-85267000D03*
%TD*%
%TO.P,D22,1,K*%
%TO.N,/row2*%
X85026500Y-88567000D03*
%TO.P,D22,2,A*%
%TO.N,Net-(D22-A)*%
X85026500Y-85267000D03*
%TD*%
%TO.P,D21,1,K*%
%TO.N,/row2*%
X65976500Y-88567000D03*
%TO.P,D21,2,A*%
%TO.N,Net-(D21-A)*%
X65976500Y-85267000D03*
%TD*%
%TO.P,D20,1,K*%
%TO.N,/row2*%
X46926500Y-88567000D03*
%TO.P,D20,2,A*%
%TO.N,Net-(D20-A)*%
X46926500Y-85267000D03*
%TD*%
%TO.P,D19,1,K*%
%TO.N,/row1*%
X208851500Y-69517000D03*
%TO.P,D19,2,A*%
%TO.N,Net-(D19-A)*%
X208851500Y-66217000D03*
%TD*%
%TO.P,D18,1,K*%
%TO.N,/row1*%
X189801500Y-69517000D03*
%TO.P,D18,2,A*%
%TO.N,Net-(D18-A)*%
X189801500Y-66217000D03*
%TD*%
%TO.P,D17,1,K*%
%TO.N,/row1*%
X170751500Y-69517000D03*
%TO.P,D17,2,A*%
%TO.N,Net-(D17-A)*%
X170751500Y-66217000D03*
%TD*%
%TO.P,D16,1,K*%
%TO.N,/row1*%
X151701500Y-69517000D03*
%TO.P,D16,2,A*%
%TO.N,Net-(D16-A)*%
X151701500Y-66217000D03*
%TD*%
%TO.P,D15,1,K*%
%TO.N,/row1*%
X132651500Y-69517000D03*
%TO.P,D15,2,A*%
%TO.N,Net-(D15-A)*%
X132651500Y-66217000D03*
%TD*%
%TO.P,D14,1,K*%
%TO.N,/row1*%
X113601500Y-69517000D03*
%TO.P,D14,2,A*%
%TO.N,Net-(D14-A)*%
X113601500Y-66217000D03*
%TD*%
%TO.P,D13,1,K*%
%TO.N,/row1*%
X94551500Y-69517000D03*
%TO.P,D13,2,A*%
%TO.N,Net-(D13-A)*%
X94551500Y-66217000D03*
%TD*%
%TO.P,D12,1,K*%
%TO.N,/row1*%
X75501500Y-69517000D03*
%TO.P,D12,2,A*%
%TO.N,Net-(D12-A)*%
X75501500Y-66217000D03*
%TD*%
%TO.P,D11,1,K*%
%TO.N,/row1*%
X51689000Y-69517000D03*
%TO.P,D11,2,A*%
%TO.N,Net-(D11-A)*%
X51689000Y-66217000D03*
%TD*%
%TO.P,D10,1,K*%
%TO.N,/row0*%
X218376500Y-50467000D03*
%TO.P,D10,2,A*%
%TO.N,Net-(D10-A)*%
X218376500Y-47167000D03*
%TD*%
%TO.P,D9,1,K*%
%TO.N,/row0*%
X199326500Y-50467000D03*
%TO.P,D9,2,A*%
%TO.N,Net-(D9-A)*%
X199326500Y-47167000D03*
%TD*%
%TO.P,D8,1,K*%
%TO.N,/row0*%
X180276500Y-50467000D03*
%TO.P,D8,2,A*%
%TO.N,Net-(D8-A)*%
X180276500Y-47167000D03*
%TD*%
%TO.P,D7,1,K*%
%TO.N,/row0*%
X161226500Y-50467000D03*
%TO.P,D7,2,A*%
%TO.N,Net-(D7-A)*%
X161226500Y-47167000D03*
%TD*%
%TO.P,D6,1,K*%
%TO.N,/row0*%
X142176500Y-50467000D03*
%TO.P,D6,2,A*%
%TO.N,Net-(D6-A)*%
X142176500Y-47167000D03*
%TD*%
%TO.P,D5,1,K*%
%TO.N,/row0*%
X123126500Y-50467000D03*
%TO.P,D5,2,A*%
%TO.N,Net-(D5-A)*%
X123126500Y-47167000D03*
%TD*%
%TO.P,D4,1,K*%
%TO.N,/row0*%
X104076500Y-50467000D03*
%TO.P,D4,2,A*%
%TO.N,Net-(D4-A)*%
X104076500Y-47167000D03*
%TD*%
%TO.P,D3,1,K*%
%TO.N,/row0*%
X85026500Y-50467000D03*
%TO.P,D3,2,A*%
%TO.N,Net-(D3-A)*%
X85026500Y-47167000D03*
%TD*%
%TO.P,D2,1,K*%
%TO.N,/row0*%
X65976500Y-50467000D03*
%TO.P,D2,2,A*%
%TO.N,Net-(D2-A)*%
X65976500Y-47167000D03*
%TD*%
%TO.P,D1,1,K*%
%TO.N,/row0*%
X46926500Y-50467000D03*
%TO.P,D1,2,A*%
%TO.N,Net-(D1-A)*%
X46926500Y-47167000D03*
%TD*%
D17*
%TO.N,/row3*%
X190396500Y-104489500D03*
X192246500Y-102629500D03*
%TD*%
D18*
%TO.N,/row3*%
X169309000Y-107617000D02*
X161226500Y-107617000D01*
X178156500Y-106839500D02*
X170086500Y-106839500D01*
X180236500Y-108919500D02*
X178156500Y-106839500D01*
X189976500Y-104899500D02*
X185956500Y-108919500D01*
X189996500Y-104899500D02*
X189976500Y-104899500D01*
X185956500Y-108919500D02*
X180236500Y-108919500D01*
X170086500Y-106839500D02*
X169309000Y-107617000D01*
X190396500Y-104489500D02*
X190396500Y-104499500D01*
X190396500Y-104499500D02*
X189996500Y-104899500D01*
X192246500Y-102629500D02*
X192716500Y-102159500D01*
X192716500Y-102159500D02*
X192716500Y-96379500D01*
%TO.N,/row2*%
X216726500Y-86917000D02*
X218376500Y-88567000D01*
X213456244Y-77739500D02*
X216726500Y-81009756D01*
X216726500Y-81009756D02*
X216726500Y-86917000D01*
X207276500Y-78799500D02*
X208336500Y-77739500D01*
X208336500Y-77739500D02*
X213456244Y-77739500D01*
X207276500Y-81011912D02*
X207276500Y-78799500D01*
X199721412Y-88567000D02*
X207276500Y-81011912D01*
X199326500Y-88567000D02*
X199721412Y-88567000D01*
X197556500Y-80859500D02*
X197556500Y-86797000D01*
X197556500Y-86797000D02*
X199326500Y-88567000D01*
X194516500Y-77819500D02*
X197556500Y-80859500D01*
X188226500Y-79049500D02*
X189456500Y-77819500D01*
X189456500Y-77819500D02*
X194516500Y-77819500D01*
X188226500Y-81011912D02*
X188226500Y-79049500D01*
X180671412Y-88567000D02*
X188226500Y-81011912D01*
X180276500Y-88567000D02*
X180671412Y-88567000D01*
X178701500Y-80914500D02*
X178701500Y-86992000D01*
X175706500Y-77919500D02*
X178701500Y-80914500D01*
X178701500Y-86992000D02*
X180276500Y-88567000D01*
X169176500Y-81044725D02*
X169176500Y-78889500D01*
X161654225Y-88567000D02*
X169176500Y-81044725D01*
X169176500Y-78889500D02*
X170146500Y-77919500D01*
X170146500Y-77919500D02*
X175706500Y-77919500D01*
X161226500Y-88567000D02*
X161654225Y-88567000D01*
X156456244Y-77889500D02*
X159626500Y-81059756D01*
X151006500Y-77889500D02*
X156456244Y-77889500D01*
X150126500Y-78769500D02*
X151006500Y-77889500D01*
X142604225Y-88567000D02*
X150126500Y-81044725D01*
X159626500Y-81059756D02*
X159626500Y-86967000D01*
X142176500Y-88567000D02*
X142604225Y-88567000D01*
X150126500Y-81044725D02*
X150126500Y-78769500D01*
X159626500Y-86967000D02*
X161226500Y-88567000D01*
X132066500Y-77919500D02*
X137436244Y-77919500D01*
X140566500Y-86957000D02*
X142176500Y-88567000D01*
X131076500Y-78909500D02*
X132066500Y-77919500D01*
X137436244Y-77919500D02*
X140566500Y-81049756D01*
X140566500Y-81049756D02*
X140566500Y-86957000D01*
X131076500Y-81011912D02*
X131076500Y-78909500D01*
X123521412Y-88567000D02*
X131076500Y-81011912D01*
X123126500Y-88567000D02*
X123521412Y-88567000D01*
%TO.N,/row3*%
X132614000Y-107617000D02*
X161226500Y-107617000D01*
X113326500Y-96809500D02*
X121806500Y-96809500D01*
X112026500Y-98109500D02*
X113326500Y-96809500D01*
X121806500Y-96809500D02*
X132614000Y-107617000D01*
X112026500Y-100094725D02*
X112026500Y-98109500D01*
X104076500Y-107617000D02*
X104504225Y-107617000D01*
X104504225Y-107617000D02*
X112026500Y-100094725D01*
X102501500Y-106042000D02*
X104076500Y-107617000D01*
X102501500Y-100024500D02*
X102501500Y-106042000D01*
X99436500Y-96959500D02*
X102501500Y-100024500D01*
X93856500Y-96959500D02*
X99436500Y-96959500D01*
X85421412Y-107617000D02*
X92976500Y-100061912D01*
X92976500Y-97839500D02*
X93856500Y-96959500D01*
X85026500Y-107617000D02*
X85421412Y-107617000D01*
X92976500Y-100061912D02*
X92976500Y-97839500D01*
X83346500Y-105937000D02*
X85026500Y-107617000D01*
X80186500Y-96729500D02*
X83346500Y-99889500D01*
X73926500Y-98059500D02*
X75256500Y-96729500D01*
X83346500Y-99889500D02*
X83346500Y-105937000D01*
X73926500Y-100094725D02*
X73926500Y-98059500D01*
X66404225Y-107617000D02*
X73926500Y-100094725D01*
X65976500Y-107617000D02*
X66404225Y-107617000D01*
X75256500Y-96729500D02*
X80186500Y-96729500D01*
X64136500Y-99779500D02*
X64136500Y-105777000D01*
X56046500Y-96879500D02*
X61236500Y-96879500D01*
X61236500Y-96879500D02*
X64136500Y-99779500D01*
X54876500Y-98049500D02*
X56046500Y-96879500D01*
X47354225Y-107617000D02*
X54876500Y-100094725D01*
X54876500Y-100094725D02*
X54876500Y-98049500D01*
X64136500Y-105777000D02*
X65976500Y-107617000D01*
X46926500Y-107617000D02*
X47354225Y-107617000D01*
%TO.N,/col6*%
X197796500Y-109645186D02*
X197796500Y-111619500D01*
X182900814Y-94749500D02*
X197796500Y-109645186D01*
X181016500Y-94749500D02*
X182900814Y-94749500D01*
X171126500Y-84859500D02*
X181016500Y-94749500D01*
X171126500Y-79869500D02*
X171126500Y-84859500D01*
%TO.N,/col8*%
X209226500Y-86749500D02*
X209226500Y-79869500D01*
X202854000Y-88782000D02*
X207194000Y-88782000D01*
X195256500Y-96379500D02*
X202854000Y-88782000D01*
X207194000Y-88782000D02*
X209226500Y-86749500D01*
%TO.N,/row2*%
X217761500Y-89182000D02*
X218376500Y-88567000D01*
X204994000Y-89182000D02*
X217761500Y-89182000D01*
X197796500Y-96379500D02*
X204994000Y-89182000D01*
%TO.N,/col0*%
X206306500Y-115809500D02*
X210496500Y-111619500D01*
X68546500Y-115809500D02*
X206306500Y-115809500D01*
X56826500Y-104089500D02*
X68546500Y-115809500D01*
X56826500Y-98919500D02*
X56826500Y-104089500D01*
%TO.N,/col1*%
X204166500Y-115409500D02*
X207956500Y-111619500D01*
X87156500Y-115409500D02*
X204166500Y-115409500D01*
X75856500Y-104109500D02*
X87156500Y-115409500D01*
X75856500Y-98939500D02*
X75856500Y-104109500D01*
X75876500Y-98919500D02*
X75856500Y-98939500D01*
%TO.N,/col2*%
X202026500Y-115009500D02*
X205416500Y-111619500D01*
X94856500Y-103539500D02*
X106326500Y-115009500D01*
X106326500Y-115009500D02*
X202026500Y-115009500D01*
X94926500Y-103469500D02*
X94856500Y-103539500D01*
X94926500Y-98919500D02*
X94926500Y-103469500D01*
%TO.N,/col3*%
X199886500Y-114609500D02*
X202876500Y-111619500D01*
X124976500Y-114609500D02*
X199886500Y-114609500D01*
X113976500Y-103609500D02*
X124976500Y-114609500D01*
X113976500Y-98919500D02*
X113976500Y-103609500D01*
%TO.N,/row0*%
X225026500Y-50467000D02*
X218376500Y-50467000D01*
X234311500Y-59752000D02*
X225026500Y-50467000D01*
X234311500Y-85092000D02*
X234311500Y-59752000D01*
X229021500Y-90382000D02*
X234311500Y-85092000D01*
X211414000Y-90382000D02*
X229021500Y-90382000D01*
X205416500Y-96379500D02*
X211414000Y-90382000D01*
%TO.N,/row1*%
X230411500Y-74052000D02*
X213386500Y-74052000D01*
X233911500Y-77552000D02*
X230411500Y-74052000D01*
X233911500Y-84926314D02*
X233911500Y-77552000D01*
X228855814Y-89982000D02*
X233911500Y-84926314D01*
X209274000Y-89982000D02*
X228855814Y-89982000D01*
X213386500Y-74052000D02*
X208851500Y-69517000D01*
X202876500Y-96379500D02*
X209274000Y-89982000D01*
%TO.N,/col9*%
X224539000Y-89582000D02*
X228276500Y-85844500D01*
X207134000Y-89582000D02*
X224539000Y-89582000D01*
X228276500Y-85844500D02*
X228276500Y-79869500D01*
X200336500Y-96379500D02*
X207134000Y-89582000D01*
%TO.N,/row2*%
X46926500Y-88567000D02*
X123126500Y-88567000D01*
%TO.N,Net-(D33-A)*%
X104076500Y-101459500D02*
X104076500Y-104317000D01*
%TO.N,Net-(D32-A)*%
X85026500Y-101459500D02*
X85026500Y-104317000D01*
%TO.N,Net-(D31-A)*%
X65976500Y-101459500D02*
X65976500Y-104317000D01*
%TO.N,Net-(D30-A)*%
X46926500Y-101459500D02*
X46926500Y-104317000D01*
%TO.N,Net-(D20-A)*%
X46926500Y-82409500D02*
X46926500Y-85267000D01*
%TO.N,Net-(D21-A)*%
X65976500Y-82409500D02*
X65976500Y-85267000D01*
%TO.N,Net-(D22-A)*%
X85026500Y-82409500D02*
X85026500Y-85267000D01*
%TO.N,Net-(D23-A)*%
X104076500Y-82409500D02*
X104076500Y-85267000D01*
%TO.N,Net-(D24-A)*%
X123126500Y-82409500D02*
X123126500Y-85267000D01*
%TO.N,Net-(D25-A)*%
X142176500Y-82409500D02*
X142176500Y-85267000D01*
%TO.N,Net-(D34-A)*%
X181921500Y-104494725D02*
X181921500Y-106539500D01*
X178886275Y-101459500D02*
X181921500Y-104494725D01*
X164776500Y-101459500D02*
X178886275Y-101459500D01*
X161226500Y-101459500D02*
X161226500Y-104317000D01*
%TO.N,Net-(D26-A)*%
X161226500Y-82409500D02*
X161226500Y-85267000D01*
%TO.N,Net-(D27-A)*%
X180276500Y-82409500D02*
X180276500Y-85267000D01*
%TO.N,Net-(D28-A)*%
X199326500Y-82409500D02*
X199326500Y-85267000D01*
%TO.N,Net-(D29-A)*%
X218376500Y-82409500D02*
X218376500Y-85267000D01*
%TO.N,Net-(D19-A)*%
X208851500Y-63359500D02*
X208851500Y-66217000D01*
%TO.N,Net-(D18-A)*%
X189801500Y-63359500D02*
X189801500Y-66217000D01*
%TO.N,Net-(D17-A)*%
X170751500Y-63359500D02*
X170751500Y-66217000D01*
%TO.N,Net-(D16-A)*%
X151701500Y-63359500D02*
X151701500Y-66217000D01*
%TO.N,Net-(D15-A)*%
X132651500Y-63359500D02*
X132651500Y-66217000D01*
%TO.N,Net-(D14-A)*%
X113601500Y-63359500D02*
X113601500Y-66217000D01*
%TO.N,Net-(D13-A)*%
X94551500Y-63359500D02*
X94551500Y-66217000D01*
%TO.N,Net-(D12-A)*%
X75501500Y-63359500D02*
X75501500Y-66217000D01*
%TO.N,/row1*%
X74169000Y-70849500D02*
X75501500Y-69517000D01*
X65986500Y-70849500D02*
X74169000Y-70849500D01*
X63826500Y-68689500D02*
X65986500Y-70849500D01*
X52516500Y-68689500D02*
X63826500Y-68689500D01*
X51689000Y-69517000D02*
X52516500Y-68689500D01*
X75501500Y-69517000D02*
X208851500Y-69517000D01*
%TO.N,Net-(D19-A)*%
X222037452Y-63359500D02*
X212401500Y-63359500D01*
X224784000Y-66106048D02*
X222037452Y-63359500D01*
X224784000Y-68439500D02*
X224784000Y-66106048D01*
%TO.N,Net-(D11-A)*%
X67621500Y-66106048D02*
X64874952Y-63359500D01*
X67621500Y-68439500D02*
X67621500Y-66106048D01*
X64874952Y-63359500D02*
X55239000Y-63359500D01*
X51689000Y-63359500D02*
X51689000Y-66217000D01*
%TO.N,/row0*%
X218376500Y-50467000D02*
X46926500Y-50467000D01*
%TO.N,Net-(D10-A)*%
X218376500Y-44309500D02*
X218376500Y-47167000D01*
%TO.N,Net-(D9-A)*%
X199326500Y-44309500D02*
X199326500Y-47167000D01*
%TO.N,Net-(D8-A)*%
X180276500Y-44309500D02*
X180276500Y-47167000D01*
%TO.N,Net-(D7-A)*%
X161226500Y-44309500D02*
X161226500Y-47167000D01*
%TO.N,Net-(D6-A)*%
X142176500Y-44309500D02*
X142176500Y-47167000D01*
%TO.N,Net-(D5-A)*%
X123126500Y-44309500D02*
X123126500Y-47167000D01*
%TO.N,Net-(D4-A)*%
X104076500Y-44309500D02*
X104076500Y-47167000D01*
%TO.N,Net-(D3-A)*%
X85026500Y-44309500D02*
X85026500Y-47167000D01*
%TO.N,Net-(D2-A)*%
X65976500Y-44309500D02*
X65976500Y-47167000D01*
%TO.N,Net-(D1-A)*%
X46926500Y-44309500D02*
X46926500Y-47167000D01*
%TO.N,/col7*%
X190176500Y-101459500D02*
X200336500Y-111619500D01*
X190176500Y-79869500D02*
X190176500Y-101459500D01*
%TO.N,/col5*%
X195256500Y-107670872D02*
X195256500Y-111619500D01*
X182735128Y-95149500D02*
X195256500Y-107670872D01*
X162216500Y-95149500D02*
X182735128Y-95149500D01*
X152076500Y-85009500D02*
X162216500Y-95149500D01*
X152076500Y-79869500D02*
X152076500Y-85009500D01*
%TO.N,/col4*%
X192716500Y-105696558D02*
X192716500Y-111619500D01*
X182569442Y-95549500D02*
X192716500Y-105696558D01*
X133026500Y-84859500D02*
X143716500Y-95549500D01*
X143716500Y-95549500D02*
X182569442Y-95549500D01*
X133026500Y-79869500D02*
X133026500Y-84859500D01*
%TD*%
M02*
