%TF.GenerationSoftware,KiCad,Pcbnew,8.0.6*%
%TF.CreationDate,2024-12-20T15:57:00-07:00*%
%TF.ProjectId,tabesco-48,74616265-7363-46f2-9d34-382e6b696361,rev?*%
%TF.SameCoordinates,Original*%
%TF.FileFunction,Legend,Top*%
%TF.FilePolarity,Positive*%
%FSLAX46Y46*%
G04 Gerber Fmt 4.6, Leading zero omitted, Abs format (unit mm)*
G04 Created by KiCad (PCBNEW 8.0.6) date 2024-12-20 15:57:00*
%MOMM*%
%LPD*%
G01*
G04 APERTURE LIST*
%ADD10C,0.000000*%
%ADD11C,1.750000*%
%ADD12C,3.987800*%
%ADD13C,3.300000*%
%ADD14C,1.397000*%
%ADD15R,0.850000X0.850000*%
%ADD16O,0.850000X0.850000*%
G04 APERTURE END LIST*
D10*
G36*
X148529994Y-119904919D02*
G01*
X148576054Y-119914733D01*
X148621495Y-119930929D01*
X148666109Y-119953482D01*
X148709690Y-119982364D01*
X148752030Y-120017552D01*
X148792923Y-120059018D01*
X148832163Y-120106737D01*
X148869542Y-120160683D01*
X148904854Y-120220830D01*
X148937892Y-120287152D01*
X148968450Y-120359624D01*
X148996320Y-120438220D01*
X149021297Y-120522914D01*
X149043173Y-120613679D01*
X149061741Y-120710491D01*
X149076796Y-120813323D01*
X149091695Y-120913623D01*
X149103384Y-121015860D01*
X149111959Y-121119700D01*
X149117518Y-121224805D01*
X149119972Y-121437471D01*
X149111523Y-121651170D01*
X149092945Y-121863216D01*
X149065014Y-122070921D01*
X149028504Y-122271598D01*
X148984191Y-122462560D01*
X148932851Y-122641120D01*
X148875257Y-122804590D01*
X148844357Y-122879826D01*
X148812185Y-122950283D01*
X148778838Y-123015624D01*
X148744411Y-123075512D01*
X148709003Y-123129614D01*
X148672710Y-123177591D01*
X148635629Y-123219109D01*
X148597857Y-123253831D01*
X148559490Y-123281422D01*
X148520626Y-123301546D01*
X148481362Y-123313866D01*
X148441794Y-123318048D01*
X148396020Y-123313360D01*
X148351352Y-123299565D01*
X148307858Y-123277062D01*
X148265612Y-123246252D01*
X148224683Y-123207535D01*
X148185143Y-123161313D01*
X148110514Y-123047952D01*
X148042293Y-122909373D01*
X147981048Y-122748779D01*
X147927348Y-122569376D01*
X147881761Y-122374366D01*
X147844856Y-122166954D01*
X147817201Y-121950343D01*
X147799365Y-121727738D01*
X147791915Y-121502342D01*
X147795421Y-121277360D01*
X147810451Y-121055995D01*
X147837573Y-120841452D01*
X147877356Y-120636933D01*
X147905227Y-120541121D01*
X147935784Y-120452104D01*
X147968823Y-120369857D01*
X148004135Y-120294353D01*
X148041514Y-120225568D01*
X148080753Y-120163474D01*
X148121647Y-120108047D01*
X148163987Y-120059260D01*
X148207567Y-120017087D01*
X148252181Y-119981504D01*
X148297622Y-119952483D01*
X148343683Y-119929999D01*
X148390157Y-119914027D01*
X148436838Y-119904540D01*
X148483519Y-119901513D01*
X148529994Y-119904919D01*
G37*
G36*
X139917080Y-111717516D02*
G01*
X140881604Y-111761819D01*
X141811815Y-111844983D01*
X142709159Y-111967421D01*
X143575084Y-112129547D01*
X144411036Y-112331774D01*
X145218463Y-112574515D01*
X145998812Y-112858184D01*
X146753529Y-113183194D01*
X147484061Y-113549959D01*
X148191855Y-113958893D01*
X148878359Y-114410407D01*
X149545019Y-114904917D01*
X150193282Y-115442835D01*
X150824595Y-116024575D01*
X151440405Y-116650550D01*
X151958797Y-117245759D01*
X152429079Y-117853576D01*
X152851094Y-118473383D01*
X153224689Y-119104559D01*
X153549709Y-119746483D01*
X153825997Y-120398536D01*
X154053400Y-121060097D01*
X154231761Y-121730547D01*
X154360927Y-122409265D01*
X154440742Y-123095631D01*
X154471051Y-123789025D01*
X154451699Y-124488827D01*
X154382531Y-125194417D01*
X154263391Y-125905174D01*
X154094126Y-126620479D01*
X153874579Y-127339711D01*
X153719713Y-127739678D01*
X153522007Y-128156543D01*
X153284923Y-128586533D01*
X153011925Y-129025877D01*
X152706473Y-129470802D01*
X152372032Y-129917536D01*
X152012062Y-130362307D01*
X151630026Y-130801341D01*
X151229387Y-131230867D01*
X150813607Y-131647112D01*
X150386148Y-132046304D01*
X149950473Y-132424670D01*
X149510043Y-132778439D01*
X149068322Y-133103837D01*
X148628771Y-133397093D01*
X148194853Y-133654433D01*
X147267697Y-134117586D01*
X146320626Y-134515802D01*
X145356877Y-134850493D01*
X144379685Y-135123077D01*
X143392287Y-135334966D01*
X142397920Y-135487576D01*
X141399818Y-135582321D01*
X140401219Y-135620617D01*
X139405360Y-135603877D01*
X138415475Y-135533516D01*
X137434801Y-135410949D01*
X136466575Y-135237591D01*
X135514033Y-135014855D01*
X134580411Y-134744158D01*
X133668945Y-134426913D01*
X132782872Y-134064535D01*
X131925428Y-133658439D01*
X131099848Y-133210040D01*
X130309370Y-132720751D01*
X129557229Y-132191988D01*
X128846662Y-131625166D01*
X128180905Y-131021698D01*
X127563194Y-130383000D01*
X126996765Y-129710486D01*
X126484855Y-129005572D01*
X126030700Y-128269670D01*
X125637536Y-127504197D01*
X125308599Y-126710567D01*
X125047126Y-125890194D01*
X124856353Y-125044494D01*
X124739515Y-124174880D01*
X124699851Y-123282767D01*
X124706758Y-122987867D01*
X125925203Y-122987867D01*
X125941239Y-123704986D01*
X126018454Y-124417383D01*
X126155238Y-125122765D01*
X126349984Y-125818839D01*
X126601083Y-126503312D01*
X126906927Y-127173890D01*
X127265907Y-127828280D01*
X127676414Y-128464190D01*
X128136842Y-129079326D01*
X128645580Y-129671395D01*
X129201021Y-130238103D01*
X129801556Y-130777159D01*
X130445577Y-131286268D01*
X131131475Y-131763137D01*
X131857642Y-132205473D01*
X132622469Y-132610984D01*
X133424348Y-132977375D01*
X134261671Y-133302354D01*
X135132830Y-133583628D01*
X136036214Y-133818904D01*
X136970217Y-134005887D01*
X137933230Y-134142286D01*
X138923645Y-134225807D01*
X139939852Y-134254157D01*
X140801781Y-134236389D01*
X141641178Y-134183119D01*
X142457838Y-134094399D01*
X143251554Y-133970281D01*
X144022118Y-133810815D01*
X144769325Y-133616055D01*
X145492967Y-133386052D01*
X146192839Y-133120856D01*
X146868732Y-132820521D01*
X147520441Y-132485097D01*
X148147758Y-132114637D01*
X148750477Y-131709192D01*
X149328391Y-131268813D01*
X149881294Y-130793553D01*
X150408979Y-130283463D01*
X150911238Y-129738595D01*
X151341275Y-129219570D01*
X151725547Y-128688634D01*
X152064588Y-128147104D01*
X152358936Y-127596298D01*
X152609126Y-127037533D01*
X152815695Y-126472129D01*
X152979179Y-125901402D01*
X153100114Y-125326669D01*
X153179036Y-124749250D01*
X153216481Y-124170461D01*
X153212985Y-123591621D01*
X153169085Y-123014046D01*
X153085317Y-122439056D01*
X152962216Y-121867967D01*
X152800319Y-121302097D01*
X152600162Y-120742764D01*
X152362282Y-120191286D01*
X152087214Y-119648981D01*
X151775494Y-119117166D01*
X151427659Y-118597159D01*
X151044245Y-118090278D01*
X150625787Y-117597841D01*
X150172823Y-117121165D01*
X149685888Y-116661568D01*
X149165518Y-116220367D01*
X148612249Y-115798882D01*
X148026618Y-115398428D01*
X147409161Y-115020325D01*
X146760414Y-114665889D01*
X146080913Y-114336439D01*
X145371193Y-114033293D01*
X144631793Y-113757767D01*
X144076309Y-113576454D01*
X143515056Y-113416031D01*
X142378632Y-113157082D01*
X141229288Y-112979367D01*
X140073794Y-112881337D01*
X138918921Y-112861442D01*
X137771438Y-112918131D01*
X136638113Y-113049854D01*
X135525718Y-113255062D01*
X134441022Y-113532202D01*
X133390793Y-113879727D01*
X132381802Y-114296084D01*
X131420819Y-114779724D01*
X130960445Y-115046290D01*
X130514612Y-115329096D01*
X130084166Y-115627947D01*
X129669952Y-115942650D01*
X129272818Y-116273012D01*
X128893609Y-116618837D01*
X128533171Y-116979933D01*
X128192351Y-117356105D01*
X127661056Y-118028446D01*
X127203807Y-118714410D01*
X126818995Y-119411704D01*
X126505013Y-120118035D01*
X126260251Y-120831110D01*
X126083101Y-121548636D01*
X125971954Y-122268319D01*
X125925203Y-122987867D01*
X124706758Y-122987867D01*
X124710958Y-122808546D01*
X124744060Y-122338639D01*
X124798827Y-121873435D01*
X124874930Y-121413321D01*
X124972040Y-120958685D01*
X125089827Y-120509914D01*
X125227961Y-120067396D01*
X125386114Y-119631519D01*
X125563955Y-119202669D01*
X125761156Y-118781235D01*
X125977386Y-118367604D01*
X126212317Y-117962163D01*
X126465618Y-117565301D01*
X126736962Y-117177405D01*
X127026017Y-116798862D01*
X127332455Y-116430061D01*
X127655946Y-116071387D01*
X127996161Y-115723230D01*
X128725445Y-115060015D01*
X129517671Y-114443515D01*
X130370202Y-113876831D01*
X131280405Y-113363064D01*
X132245643Y-112905314D01*
X133263281Y-112506681D01*
X134330683Y-112170267D01*
X134712952Y-112079660D01*
X135186171Y-111994428D01*
X135732150Y-111916639D01*
X136332699Y-111848358D01*
X136969629Y-111791653D01*
X137624748Y-111748591D01*
X138279867Y-111721238D01*
X138916796Y-111711661D01*
X139917080Y-111717516D01*
G37*
G36*
X144902820Y-126912820D02*
G01*
X144922425Y-126914378D01*
X144941875Y-126917254D01*
X144961131Y-126921415D01*
X144980154Y-126926830D01*
X144998906Y-126933465D01*
X145017348Y-126941289D01*
X145035442Y-126950269D01*
X145053147Y-126960373D01*
X145070426Y-126971568D01*
X145087241Y-126983823D01*
X145103551Y-126997105D01*
X145119319Y-127011382D01*
X145134505Y-127026621D01*
X145149071Y-127042790D01*
X145162978Y-127059858D01*
X145176188Y-127077790D01*
X145188661Y-127096556D01*
X145200359Y-127116123D01*
X145211243Y-127136459D01*
X145221275Y-127157531D01*
X145230415Y-127179308D01*
X145238625Y-127201756D01*
X145245866Y-127224844D01*
X145252099Y-127248538D01*
X145257286Y-127272808D01*
X145261388Y-127297621D01*
X145264366Y-127322944D01*
X145266181Y-127348745D01*
X145266795Y-127374992D01*
X145253731Y-127462307D01*
X145215618Y-127545592D01*
X145154069Y-127624742D01*
X145070700Y-127699656D01*
X144967125Y-127770228D01*
X144844960Y-127836356D01*
X144705819Y-127897937D01*
X144551318Y-127954867D01*
X144202691Y-128054361D01*
X143812001Y-128134012D01*
X143392164Y-128192992D01*
X142956101Y-128230475D01*
X142516731Y-128245633D01*
X142086973Y-128237641D01*
X141679746Y-128205670D01*
X141307968Y-128148895D01*
X141139411Y-128110947D01*
X140984560Y-128066488D01*
X140845032Y-128015414D01*
X140722440Y-127957622D01*
X140618400Y-127893009D01*
X140534527Y-127821472D01*
X140472436Y-127742906D01*
X140433741Y-127657209D01*
X140422191Y-127605524D01*
X140422666Y-127580596D01*
X140427333Y-127556269D01*
X140436211Y-127532536D01*
X140449321Y-127509390D01*
X140488310Y-127464837D01*
X140544456Y-127422558D01*
X140617914Y-127382500D01*
X140708839Y-127344613D01*
X140817385Y-127308844D01*
X140943708Y-127275142D01*
X141087962Y-127243456D01*
X141250304Y-127213733D01*
X141430887Y-127185922D01*
X141847400Y-127135829D01*
X142338740Y-127092763D01*
X143921831Y-126991342D01*
X144506670Y-126948897D01*
X144711240Y-126931188D01*
X144843462Y-126916373D01*
X144863300Y-126913785D01*
X144883099Y-126912611D01*
X144902820Y-126912820D01*
G37*
G36*
X123133577Y-102584620D02*
G01*
X123364016Y-102600155D01*
X123591612Y-102628841D01*
X123815978Y-102670486D01*
X124036727Y-102724894D01*
X124253471Y-102791873D01*
X124465822Y-102871228D01*
X124673393Y-102962766D01*
X124875797Y-103066293D01*
X125072645Y-103181615D01*
X125263551Y-103308539D01*
X125448126Y-103446870D01*
X125625984Y-103596415D01*
X125796736Y-103756979D01*
X125959995Y-103928370D01*
X126115373Y-104110394D01*
X126262483Y-104302856D01*
X126400937Y-104505563D01*
X126530347Y-104718321D01*
X126650327Y-104940937D01*
X126760488Y-105173216D01*
X126860444Y-105414965D01*
X126949805Y-105665989D01*
X127028185Y-105926096D01*
X127416239Y-107443047D01*
X135953463Y-107443047D01*
X139413441Y-107461236D01*
X142572456Y-107509191D01*
X145076627Y-107576991D01*
X145972558Y-107615233D01*
X146572073Y-107654716D01*
X148688742Y-107901654D01*
X148935690Y-106737491D01*
X148968729Y-106581881D01*
X149008175Y-106426097D01*
X149053822Y-106270377D01*
X149105464Y-106114961D01*
X149225904Y-105805996D01*
X149367841Y-105501113D01*
X149529623Y-105202225D01*
X149709594Y-104911244D01*
X149906102Y-104630081D01*
X150117493Y-104360649D01*
X150342113Y-104104859D01*
X150578309Y-103864624D01*
X150824426Y-103641856D01*
X151078812Y-103438466D01*
X151339812Y-103256368D01*
X151605773Y-103097471D01*
X151740098Y-103027322D01*
X151875042Y-102963690D01*
X152010400Y-102906815D01*
X152145964Y-102856936D01*
X152300275Y-102807637D01*
X152452344Y-102765580D01*
X152602204Y-102730770D01*
X152749888Y-102703215D01*
X152895427Y-102682920D01*
X153038854Y-102669892D01*
X153180200Y-102664137D01*
X153319499Y-102665662D01*
X153456783Y-102674474D01*
X153592084Y-102690579D01*
X153725434Y-102713983D01*
X153856865Y-102744692D01*
X153986410Y-102782714D01*
X154114102Y-102828055D01*
X154239972Y-102880720D01*
X154364052Y-102940718D01*
X154486376Y-103008053D01*
X154606975Y-103082733D01*
X154725881Y-103164764D01*
X154843128Y-103254152D01*
X154958746Y-103350904D01*
X155072770Y-103455027D01*
X155185230Y-103566526D01*
X155296159Y-103685408D01*
X155405589Y-103811681D01*
X155513553Y-103945349D01*
X155620083Y-104086421D01*
X155725211Y-104234901D01*
X155931392Y-104554115D01*
X156132353Y-104903042D01*
X156391373Y-105398853D01*
X156626931Y-105927685D01*
X156840372Y-106500235D01*
X157033038Y-107127200D01*
X157206275Y-107819277D01*
X157361424Y-108587164D01*
X157622838Y-110393152D01*
X157828027Y-112630742D01*
X157987740Y-115385509D01*
X158112727Y-118743030D01*
X158213736Y-122788880D01*
X158425406Y-133724990D01*
X159413184Y-134853873D01*
X159657476Y-135158447D01*
X159887506Y-135489634D01*
X160103066Y-135846762D01*
X160303950Y-136229159D01*
X160489951Y-136636155D01*
X160660862Y-137067076D01*
X160816477Y-137521252D01*
X160956589Y-137998010D01*
X161080992Y-138496679D01*
X161189477Y-139016587D01*
X161281840Y-139557062D01*
X161357873Y-140117433D01*
X161417370Y-140697027D01*
X161460123Y-141295174D01*
X161485927Y-141911201D01*
X161494574Y-142544437D01*
X161508423Y-143426657D01*
X161559066Y-144237770D01*
X161602448Y-144636816D01*
X161660144Y-145042269D01*
X161733860Y-145462192D01*
X161825302Y-145904645D01*
X162068180Y-146889391D01*
X162402423Y-148060998D01*
X162841673Y-149483959D01*
X163399573Y-151222766D01*
X164542449Y-154974200D01*
X165689873Y-159247360D01*
X166793475Y-163809908D01*
X167804886Y-168429507D01*
X168675738Y-172873818D01*
X169357660Y-176910506D01*
X169802284Y-180307233D01*
X169920494Y-181693005D01*
X169961241Y-182831660D01*
X169954274Y-183417094D01*
X169931958Y-183944908D01*
X169892176Y-184417842D01*
X169865072Y-184634584D01*
X169832808Y-184838634D01*
X169795117Y-185030333D01*
X169751736Y-185210024D01*
X169702399Y-185378049D01*
X169646841Y-185534750D01*
X169584798Y-185680470D01*
X169516005Y-185815551D01*
X169440197Y-185940336D01*
X169357109Y-186055166D01*
X169266476Y-186160385D01*
X169168033Y-186256334D01*
X169061516Y-186343356D01*
X168946660Y-186421794D01*
X168823199Y-186491989D01*
X168690870Y-186554284D01*
X168549406Y-186609021D01*
X168398544Y-186656543D01*
X168238019Y-186697192D01*
X168067565Y-186731310D01*
X167886918Y-186759241D01*
X167695813Y-186781325D01*
X167281170Y-186809325D01*
X166821516Y-186818050D01*
X165898301Y-186800342D01*
X165520124Y-186762006D01*
X165190472Y-186689616D01*
X165042179Y-186637275D01*
X164904021Y-186572371D01*
X164775333Y-186493552D01*
X164655449Y-186399470D01*
X164543704Y-186288774D01*
X164439433Y-186160113D01*
X164341971Y-186012139D01*
X164250651Y-185843500D01*
X164083779Y-185438831D01*
X163933496Y-184935304D01*
X163794478Y-184322120D01*
X163661402Y-183588478D01*
X163528947Y-182723578D01*
X163391789Y-181716619D01*
X163082076Y-179233325D01*
X162751485Y-176828373D01*
X162329118Y-174181988D01*
X161835643Y-171400005D01*
X161291731Y-168588256D01*
X160718054Y-165852574D01*
X160135281Y-163298793D01*
X159564082Y-161032746D01*
X159025130Y-159160266D01*
X158802783Y-158448372D01*
X158589117Y-157777819D01*
X158389508Y-157163490D01*
X158209329Y-156620267D01*
X158053955Y-156163034D01*
X157941928Y-155844157D01*
X159377905Y-155844157D01*
X159398783Y-155988783D01*
X159458934Y-156253712D01*
X159554639Y-156623647D01*
X159682176Y-157083291D01*
X160017867Y-158210526D01*
X160218578Y-158847523D01*
X160436240Y-159513046D01*
X161068484Y-161659133D01*
X161690807Y-164127268D01*
X162296592Y-166875696D01*
X162879226Y-169862663D01*
X163432095Y-173046414D01*
X163948583Y-176385194D01*
X164422076Y-179837250D01*
X164845961Y-183360828D01*
X164873626Y-183569841D01*
X164903564Y-183772860D01*
X164935569Y-183968851D01*
X164969435Y-184156780D01*
X165004954Y-184335615D01*
X165041921Y-184504322D01*
X165080127Y-184661866D01*
X165119367Y-184807215D01*
X165159434Y-184939335D01*
X165200121Y-185057192D01*
X165241220Y-185159753D01*
X165261861Y-185204974D01*
X165282527Y-185245984D01*
X165303193Y-185282653D01*
X165323834Y-185314852D01*
X165344422Y-185342451D01*
X165364933Y-185365323D01*
X165385341Y-185383336D01*
X165405619Y-185396363D01*
X165425743Y-185404274D01*
X165445685Y-185406940D01*
X165465012Y-185405706D01*
X165483306Y-185402030D01*
X165500566Y-185395952D01*
X165516793Y-185387509D01*
X165531986Y-185376741D01*
X165546146Y-185363687D01*
X165559271Y-185348384D01*
X165571364Y-185330872D01*
X165592448Y-185289376D01*
X165609398Y-185239508D01*
X165622214Y-185181579D01*
X165630896Y-185115898D01*
X165635444Y-185042776D01*
X165635857Y-184962523D01*
X165632136Y-184875448D01*
X165624281Y-184781862D01*
X165612292Y-184682074D01*
X165596169Y-184576396D01*
X165575911Y-184465136D01*
X165551520Y-184348605D01*
X165521366Y-184203006D01*
X165497155Y-184070171D01*
X165487327Y-184008395D01*
X165479043Y-183949636D01*
X165472321Y-183893835D01*
X165467183Y-183840934D01*
X165463646Y-183790875D01*
X165461730Y-183743601D01*
X165461456Y-183699053D01*
X165462841Y-183657172D01*
X165465906Y-183617901D01*
X165470670Y-183581182D01*
X165477152Y-183546956D01*
X165485372Y-183515165D01*
X165495349Y-183485752D01*
X165507102Y-183458658D01*
X165520651Y-183433824D01*
X165536015Y-183411193D01*
X165553213Y-183390706D01*
X165572266Y-183372307D01*
X165593192Y-183355935D01*
X165616010Y-183341533D01*
X165640740Y-183329044D01*
X165667402Y-183318408D01*
X165696015Y-183309569D01*
X165726597Y-183302466D01*
X165759169Y-183297044D01*
X165793751Y-183293242D01*
X165830360Y-183291004D01*
X165869017Y-183290271D01*
X165945119Y-183294448D01*
X166014813Y-183307152D01*
X166047322Y-183316782D01*
X166078306Y-183328641D01*
X166107792Y-183342760D01*
X166135805Y-183359172D01*
X166162371Y-183377911D01*
X166187516Y-183399006D01*
X166211266Y-183422492D01*
X166233646Y-183448400D01*
X166254683Y-183476763D01*
X166274402Y-183507612D01*
X166309989Y-183576902D01*
X166340617Y-183656526D01*
X166366489Y-183746744D01*
X166387815Y-183847814D01*
X166404799Y-183959995D01*
X166417649Y-184083544D01*
X166426572Y-184218721D01*
X166431774Y-184365783D01*
X166433463Y-184524989D01*
X166435495Y-184649315D01*
X166441455Y-184770488D01*
X166451136Y-184887837D01*
X166464331Y-185000690D01*
X166480833Y-185108375D01*
X166500436Y-185210221D01*
X166522933Y-185305556D01*
X166535201Y-185350572D01*
X166548116Y-185393707D01*
X166561651Y-185434880D01*
X166575780Y-185474004D01*
X166590478Y-185510997D01*
X166605718Y-185545774D01*
X166621475Y-185578252D01*
X166637723Y-185608346D01*
X166654436Y-185635973D01*
X166671588Y-185661047D01*
X166689154Y-185683487D01*
X166707107Y-185703207D01*
X166725421Y-185720123D01*
X166744072Y-185734153D01*
X166763033Y-185745210D01*
X166782278Y-185753213D01*
X166801781Y-185758076D01*
X166821516Y-185759715D01*
X166841049Y-185757968D01*
X166859956Y-185752765D01*
X166878229Y-185744164D01*
X166895863Y-185732223D01*
X166929186Y-185698556D01*
X166959874Y-185652228D01*
X166987874Y-185593704D01*
X167013136Y-185523450D01*
X167035607Y-185441931D01*
X167055235Y-185349610D01*
X167071970Y-185246955D01*
X167085759Y-185134430D01*
X167096551Y-185012499D01*
X167104294Y-184881629D01*
X167108937Y-184742283D01*
X167110427Y-184594928D01*
X167108713Y-184440028D01*
X167103743Y-184278049D01*
X167092581Y-184109833D01*
X167085553Y-183949318D01*
X167082659Y-183796761D01*
X167083899Y-183652420D01*
X167089273Y-183516554D01*
X167098782Y-183389421D01*
X167112424Y-183271280D01*
X167130201Y-183162389D01*
X167140640Y-183111493D01*
X167152112Y-183063006D01*
X167164617Y-183016961D01*
X167178156Y-182973391D01*
X167192729Y-182932326D01*
X167208335Y-182893800D01*
X167224975Y-182857845D01*
X167242648Y-182824493D01*
X167261355Y-182793777D01*
X167281095Y-182765728D01*
X167301869Y-182740380D01*
X167323676Y-182717763D01*
X167346517Y-182697912D01*
X167370391Y-182680858D01*
X167395299Y-182666632D01*
X167421240Y-182655269D01*
X167472504Y-182647448D01*
X167496896Y-182647633D01*
X167520460Y-182650583D01*
X167543198Y-182656323D01*
X167565109Y-182664880D01*
X167586193Y-182676279D01*
X167606450Y-182690546D01*
X167644484Y-182727787D01*
X167679211Y-182776810D01*
X167710630Y-182837823D01*
X167738741Y-182911031D01*
X167763546Y-182996641D01*
X167785043Y-183094861D01*
X167803233Y-183205896D01*
X167818115Y-183329954D01*
X167829690Y-183467241D01*
X167837958Y-183617964D01*
X167842919Y-183782329D01*
X167844573Y-183960544D01*
X167846203Y-184108844D01*
X167850998Y-184249424D01*
X167858816Y-184382214D01*
X167869515Y-184507143D01*
X167882953Y-184624140D01*
X167898988Y-184733133D01*
X167917477Y-184834052D01*
X167938279Y-184926825D01*
X167961252Y-185011382D01*
X167986253Y-185087651D01*
X168013139Y-185155561D01*
X168041770Y-185215042D01*
X168072003Y-185266022D01*
X168103696Y-185308429D01*
X168136707Y-185342195D01*
X168170893Y-185367246D01*
X168206113Y-185383512D01*
X168242224Y-185390922D01*
X168279085Y-185389405D01*
X168316553Y-185378890D01*
X168354486Y-185359306D01*
X168392741Y-185330581D01*
X168431178Y-185292645D01*
X168469654Y-185245427D01*
X168508026Y-185188855D01*
X168546153Y-185122859D01*
X168583892Y-185047368D01*
X168621102Y-184962309D01*
X168657639Y-184867613D01*
X168693363Y-184763209D01*
X168728131Y-184649024D01*
X168761801Y-184524989D01*
X168818446Y-184010525D01*
X168806516Y-183213855D01*
X168596984Y-180888623D01*
X168173306Y-177778736D01*
X167575581Y-174113637D01*
X166843911Y-170122769D01*
X166018397Y-166035577D01*
X165139139Y-162081502D01*
X164246237Y-158489989D01*
X164133093Y-158071575D01*
X164019070Y-157664477D01*
X163904943Y-157270918D01*
X163791488Y-156893120D01*
X163679480Y-156533306D01*
X163569693Y-156193697D01*
X163462904Y-155876516D01*
X163359888Y-155583984D01*
X163261418Y-155318324D01*
X163168272Y-155081758D01*
X163081223Y-154876507D01*
X163001048Y-154704794D01*
X162928520Y-154568842D01*
X162864416Y-154470871D01*
X162835765Y-154436824D01*
X162809510Y-154413105D01*
X162785749Y-154399993D01*
X162764578Y-154397765D01*
X162569577Y-154422149D01*
X162345586Y-154467151D01*
X162098340Y-154530240D01*
X161833575Y-154608884D01*
X161557028Y-154700550D01*
X161274435Y-154802706D01*
X160991532Y-154912820D01*
X160714055Y-155028360D01*
X160447739Y-155146794D01*
X160198323Y-155265589D01*
X159971540Y-155382215D01*
X159773128Y-155494137D01*
X159608822Y-155598825D01*
X159484359Y-155693745D01*
X159438861Y-155736752D01*
X159405475Y-155776367D01*
X159384917Y-155812274D01*
X159377905Y-155844157D01*
X157941928Y-155844157D01*
X157928760Y-155806673D01*
X157839118Y-155566068D01*
X157809309Y-155493824D01*
X157790404Y-155456100D01*
X157770982Y-155485598D01*
X157752439Y-155597831D01*
X157718195Y-156054168D01*
X157662524Y-157780023D01*
X157626697Y-160372389D01*
X157614020Y-163569987D01*
X157606027Y-165263321D01*
X157583151Y-166903738D01*
X157547047Y-168451551D01*
X157499366Y-169867072D01*
X157441764Y-171110615D01*
X157375894Y-172142491D01*
X157303410Y-172923013D01*
X157265205Y-173206614D01*
X157225966Y-173412494D01*
X157156994Y-173978316D01*
X157084301Y-175002197D01*
X156939330Y-178192630D01*
X156814202Y-182520771D01*
X156732070Y-187523601D01*
X156661240Y-191844507D01*
X156535841Y-196373360D01*
X156367446Y-200881543D01*
X156167632Y-205140439D01*
X155947973Y-208921433D01*
X155720046Y-211995906D01*
X155495426Y-214135243D01*
X155387974Y-214782793D01*
X155285689Y-215110828D01*
X155276384Y-215124053D01*
X155268299Y-215137252D01*
X155261417Y-215150399D01*
X155255716Y-215163469D01*
X155251178Y-215176436D01*
X155247784Y-215189273D01*
X155245513Y-215201955D01*
X155244347Y-215214457D01*
X155244266Y-215226751D01*
X155245251Y-215238813D01*
X155247283Y-215250617D01*
X155250341Y-215262136D01*
X155254407Y-215273345D01*
X155259462Y-215284219D01*
X155265486Y-215294731D01*
X155272459Y-215304855D01*
X155280362Y-215314565D01*
X155289176Y-215323837D01*
X155298881Y-215332643D01*
X155309459Y-215340958D01*
X155320889Y-215348757D01*
X155333152Y-215356013D01*
X155346229Y-215362701D01*
X155360101Y-215368794D01*
X155374748Y-215374267D01*
X155390150Y-215379094D01*
X155406289Y-215383250D01*
X155423145Y-215386708D01*
X155440699Y-215389442D01*
X155458931Y-215391427D01*
X155477821Y-215392637D01*
X155497351Y-215393046D01*
X155541061Y-215397525D01*
X155592368Y-215410686D01*
X155650599Y-215432114D01*
X155715082Y-215461398D01*
X155785147Y-215498123D01*
X155860120Y-215541876D01*
X155939331Y-215592244D01*
X156022108Y-215648812D01*
X156107778Y-215711169D01*
X156195671Y-215778899D01*
X156285113Y-215851591D01*
X156375435Y-215928830D01*
X156465963Y-216010202D01*
X156556026Y-216095295D01*
X156644952Y-216183696D01*
X156732070Y-216274989D01*
X156874207Y-216423412D01*
X157003070Y-216577254D01*
X157118820Y-216735940D01*
X157221618Y-216898897D01*
X157311627Y-217065548D01*
X157389007Y-217235320D01*
X157453921Y-217407636D01*
X157506529Y-217581923D01*
X157546992Y-217757604D01*
X157575474Y-217934107D01*
X157592134Y-218110854D01*
X157597135Y-218287273D01*
X157590638Y-218462787D01*
X157572805Y-218636821D01*
X157543796Y-218808802D01*
X157503774Y-218978153D01*
X157452900Y-219144301D01*
X157391335Y-219306670D01*
X157319241Y-219464684D01*
X157236780Y-219617771D01*
X157144112Y-219765353D01*
X157041400Y-219906857D01*
X156928805Y-220041708D01*
X156806488Y-220169330D01*
X156674611Y-220289150D01*
X156533335Y-220400591D01*
X156382822Y-220503079D01*
X156223233Y-220596039D01*
X156054730Y-220678896D01*
X155877475Y-220751076D01*
X155691628Y-220812003D01*
X155497351Y-220861102D01*
X155334312Y-220900601D01*
X155188533Y-220940616D01*
X155059084Y-220982492D01*
X154945034Y-221027571D01*
X154893493Y-221051733D01*
X154845453Y-221077199D01*
X154800798Y-221104137D01*
X154759412Y-221132717D01*
X154721178Y-221163105D01*
X154685980Y-221195469D01*
X154653701Y-221229978D01*
X154624226Y-221266800D01*
X154597438Y-221306102D01*
X154573221Y-221348053D01*
X154551459Y-221392820D01*
X154532035Y-221440571D01*
X154514833Y-221491474D01*
X154499737Y-221545698D01*
X154486631Y-221603409D01*
X154475397Y-221664777D01*
X154458086Y-221799152D01*
X154446872Y-221950167D01*
X154440826Y-222119165D01*
X154439017Y-222307490D01*
X154440894Y-222507736D01*
X154449077Y-222687414D01*
X154467387Y-222849936D01*
X154499651Y-222998713D01*
X154549691Y-223137154D01*
X154621332Y-223268671D01*
X154718397Y-223396674D01*
X154844712Y-223524573D01*
X155004099Y-223655781D01*
X155200383Y-223793705D01*
X155437389Y-223941759D01*
X155718939Y-224103352D01*
X156048858Y-224281894D01*
X156430971Y-224480797D01*
X157367072Y-224953326D01*
X157664418Y-225101525D01*
X157959904Y-225254220D01*
X158251670Y-225410119D01*
X158537854Y-225567931D01*
X158816597Y-225726362D01*
X159086038Y-225884122D01*
X159344317Y-226039918D01*
X159589573Y-226192458D01*
X159819947Y-226340451D01*
X160033577Y-226482604D01*
X160228604Y-226617626D01*
X160403167Y-226744224D01*
X160555406Y-226861107D01*
X160683459Y-226966983D01*
X160785468Y-227060559D01*
X160859572Y-227140544D01*
X160978565Y-227300357D01*
X161084330Y-227461990D01*
X161177072Y-227624994D01*
X161256998Y-227788914D01*
X161324315Y-227953299D01*
X161379230Y-228117697D01*
X161421949Y-228281656D01*
X161452680Y-228444724D01*
X161471628Y-228606447D01*
X161479000Y-228766375D01*
X161475004Y-228924055D01*
X161459846Y-229079034D01*
X161433733Y-229230862D01*
X161396870Y-229379084D01*
X161349466Y-229523250D01*
X161291727Y-229662908D01*
X161223858Y-229797604D01*
X161146068Y-229926887D01*
X161058563Y-230050305D01*
X160961550Y-230167406D01*
X160855234Y-230277737D01*
X160739824Y-230380846D01*
X160615525Y-230476281D01*
X160482545Y-230563590D01*
X160341089Y-230642321D01*
X160191365Y-230712021D01*
X160033580Y-230772239D01*
X159867940Y-230822522D01*
X159694652Y-230862418D01*
X159513922Y-230891475D01*
X159325957Y-230909241D01*
X159130965Y-230915263D01*
X158749128Y-230903438D01*
X158333494Y-230868617D01*
X157887475Y-230811783D01*
X157414481Y-230733916D01*
X156917922Y-230635999D01*
X156401209Y-230519013D01*
X155867753Y-230383940D01*
X155320965Y-230231763D01*
X154201034Y-229880021D01*
X153068700Y-229471641D01*
X152506409Y-229248666D01*
X151951250Y-229014477D01*
X151406632Y-228770055D01*
X150875967Y-228516383D01*
X148265410Y-227211101D01*
X148265410Y-226576106D01*
X149500128Y-226576106D01*
X151616797Y-227528606D01*
X152089531Y-227735861D01*
X152647016Y-227956346D01*
X153268166Y-228183447D01*
X153931899Y-228410548D01*
X154617129Y-228631035D01*
X155302772Y-228838292D01*
X155967745Y-229025704D01*
X156590964Y-229186656D01*
X157054175Y-229304908D01*
X157467259Y-229408382D01*
X157833834Y-229497179D01*
X158157518Y-229571404D01*
X158441928Y-229631160D01*
X158570536Y-229655644D01*
X158690681Y-229676550D01*
X158802817Y-229693890D01*
X158907395Y-229707677D01*
X159004867Y-229717924D01*
X159095686Y-229724645D01*
X159180304Y-229727851D01*
X159259173Y-229727557D01*
X159332745Y-229723774D01*
X159401473Y-229716516D01*
X159465808Y-229705796D01*
X159526202Y-229691626D01*
X159583109Y-229674019D01*
X159636979Y-229652989D01*
X159688266Y-229628549D01*
X159737421Y-229600710D01*
X159784896Y-229569487D01*
X159831144Y-229534891D01*
X159876617Y-229496937D01*
X159921768Y-229455636D01*
X159967047Y-229411002D01*
X160012908Y-229363048D01*
X160099689Y-229274751D01*
X160174689Y-229194102D01*
X160237700Y-229119654D01*
X160264645Y-229084303D01*
X160288515Y-229049959D01*
X160309285Y-229016443D01*
X160326928Y-228983572D01*
X160341419Y-228951166D01*
X160352732Y-228919044D01*
X160360841Y-228887026D01*
X160365720Y-228854930D01*
X160367344Y-228822576D01*
X160365686Y-228789783D01*
X160360721Y-228756369D01*
X160352423Y-228722154D01*
X160340765Y-228686958D01*
X160325723Y-228650599D01*
X160307271Y-228612896D01*
X160285382Y-228573669D01*
X160260030Y-228532736D01*
X160231191Y-228489918D01*
X160162944Y-228397899D01*
X160080435Y-228296165D01*
X159983456Y-228183269D01*
X159871802Y-228057765D01*
X159793520Y-227973181D01*
X159692035Y-227878830D01*
X159568950Y-227775693D01*
X159425866Y-227664754D01*
X159086109Y-227423392D01*
X158685582Y-227162599D01*
X158237098Y-226890229D01*
X157753475Y-226614138D01*
X157247527Y-226342180D01*
X156732070Y-226082210D01*
X156161433Y-225791057D01*
X155651207Y-225524037D01*
X155198134Y-225277997D01*
X154798960Y-225049786D01*
X154450429Y-224836250D01*
X154294137Y-224734001D01*
X154149284Y-224634238D01*
X154015465Y-224536568D01*
X153892272Y-224440598D01*
X153779298Y-224345932D01*
X153676136Y-224252176D01*
X153582378Y-224158938D01*
X153497619Y-224065822D01*
X153421452Y-223972435D01*
X153353468Y-223878383D01*
X153293262Y-223783271D01*
X153240426Y-223686706D01*
X153194554Y-223588293D01*
X153155238Y-223487639D01*
X153122071Y-223384350D01*
X153094647Y-223278031D01*
X153072559Y-223168288D01*
X153055399Y-223054728D01*
X153042761Y-222936956D01*
X153034237Y-222814579D01*
X153027907Y-222554431D01*
X153026512Y-222372763D01*
X153021706Y-222210680D01*
X153012559Y-222067097D01*
X152998141Y-221940929D01*
X152988665Y-221884037D01*
X152977522Y-221831091D01*
X152964597Y-221781957D01*
X152949772Y-221736498D01*
X152932932Y-221694579D01*
X152913960Y-221656064D01*
X152892740Y-221620818D01*
X152869156Y-221588704D01*
X152843092Y-221559588D01*
X152814431Y-221533333D01*
X152783057Y-221509805D01*
X152748854Y-221488866D01*
X152711705Y-221470383D01*
X152671494Y-221454218D01*
X152628105Y-221440236D01*
X152581422Y-221428302D01*
X152531328Y-221418281D01*
X152477708Y-221410035D01*
X152359421Y-221398331D01*
X152225631Y-221392104D01*
X152075407Y-221390269D01*
X151854921Y-221385515D01*
X151621206Y-221372080D01*
X151380877Y-221351204D01*
X151140547Y-221324125D01*
X150906833Y-221292086D01*
X150686347Y-221256325D01*
X150485706Y-221218083D01*
X150311522Y-221178600D01*
X150174510Y-221142796D01*
X150053827Y-221117069D01*
X149948441Y-221104882D01*
X149857318Y-221109697D01*
X149816782Y-221119562D01*
X149779424Y-221134976D01*
X149745115Y-221156371D01*
X149713726Y-221184181D01*
X149685127Y-221218838D01*
X149659189Y-221260775D01*
X149614782Y-221368220D01*
X149579469Y-221509977D01*
X149552219Y-221689511D01*
X149531996Y-221910282D01*
X149517767Y-222175754D01*
X149503160Y-222854646D01*
X149500128Y-223753886D01*
X149500128Y-226576106D01*
X148265410Y-226576106D01*
X148265410Y-223930270D01*
X148265083Y-223753886D01*
X148264480Y-223428295D01*
X148261276Y-222978667D01*
X148255178Y-222578338D01*
X148245566Y-222224259D01*
X148239249Y-222063611D01*
X148231820Y-221913382D01*
X148223203Y-221773192D01*
X148213320Y-221642658D01*
X148202093Y-221521400D01*
X148189445Y-221409037D01*
X148175299Y-221305188D01*
X148159576Y-221209471D01*
X148142200Y-221121506D01*
X148123092Y-221040911D01*
X148102176Y-220967305D01*
X148079374Y-220900308D01*
X148054608Y-220839537D01*
X148027800Y-220784612D01*
X147998875Y-220735153D01*
X147967752Y-220690777D01*
X147934356Y-220651103D01*
X147898609Y-220615751D01*
X147860433Y-220584340D01*
X147819751Y-220556487D01*
X147776485Y-220531813D01*
X147730557Y-220509936D01*
X147681891Y-220490475D01*
X147630408Y-220473048D01*
X147553252Y-220445018D01*
X147474113Y-220407549D01*
X147393281Y-220361128D01*
X147311048Y-220306238D01*
X147143539Y-220172991D01*
X146973912Y-220011683D01*
X146804490Y-219826191D01*
X146637601Y-219620390D01*
X146475570Y-219398155D01*
X146320721Y-219163364D01*
X146175381Y-218919890D01*
X146041875Y-218671610D01*
X145922528Y-218422400D01*
X145819666Y-218176135D01*
X145735614Y-217936692D01*
X145672698Y-217707945D01*
X145633243Y-217493771D01*
X145623040Y-217393360D01*
X145620651Y-217327674D01*
X147071241Y-217327674D01*
X147074711Y-217443015D01*
X147084693Y-217562490D01*
X147101237Y-217686099D01*
X147119210Y-217823038D01*
X147146627Y-217956024D01*
X147183423Y-218085030D01*
X147229534Y-218210032D01*
X147284895Y-218331002D01*
X147349441Y-218447916D01*
X147423108Y-218560748D01*
X147505832Y-218669471D01*
X147698189Y-218874489D01*
X147925996Y-219062764D01*
X148188736Y-219234089D01*
X148485893Y-219388257D01*
X148816950Y-219525062D01*
X149181389Y-219644297D01*
X149578695Y-219745755D01*
X150008350Y-219829229D01*
X150469837Y-219894514D01*
X150962641Y-219941401D01*
X151486244Y-219969686D01*
X152040129Y-219979160D01*
X152380668Y-219976272D01*
X152707719Y-219967636D01*
X153021231Y-219953289D01*
X153321152Y-219933271D01*
X153607431Y-219907620D01*
X153880015Y-219876375D01*
X154138853Y-219839575D01*
X154383894Y-219797258D01*
X154615086Y-219749464D01*
X154832376Y-219696231D01*
X155035714Y-219637598D01*
X155225048Y-219573603D01*
X155400326Y-219504286D01*
X155561496Y-219429684D01*
X155708506Y-219349838D01*
X155841306Y-219264785D01*
X155959843Y-219174565D01*
X156064066Y-219079215D01*
X156153923Y-218978776D01*
X156229362Y-218873285D01*
X156290332Y-218762781D01*
X156336780Y-218647304D01*
X156368656Y-218526892D01*
X156385908Y-218401583D01*
X156388483Y-218271417D01*
X156376331Y-218136431D01*
X156349399Y-217996666D01*
X156307636Y-217852160D01*
X156250990Y-217702951D01*
X156179410Y-217549078D01*
X156092844Y-217390580D01*
X155991240Y-217227496D01*
X155391516Y-216345554D01*
X154897627Y-217262767D01*
X154784749Y-217459542D01*
X154657711Y-217639730D01*
X154516410Y-217803277D01*
X154360744Y-217950133D01*
X154190608Y-218080246D01*
X154005899Y-218193564D01*
X153806515Y-218290035D01*
X153592351Y-218369608D01*
X153363303Y-218432231D01*
X153119270Y-218477853D01*
X152860147Y-218506422D01*
X152585831Y-218517885D01*
X152296219Y-218512192D01*
X151991207Y-218489291D01*
X151670692Y-218449130D01*
X151334570Y-218391658D01*
X151036769Y-218330758D01*
X150764546Y-218266602D01*
X150517026Y-218198415D01*
X150402254Y-218162567D01*
X150293328Y-218125422D01*
X150190137Y-218086881D01*
X150092574Y-218046847D01*
X150000526Y-218005225D01*
X149913886Y-217961917D01*
X149832542Y-217916826D01*
X149756385Y-217869855D01*
X149685305Y-217820907D01*
X149619193Y-217769886D01*
X149557938Y-217716695D01*
X149501431Y-217661236D01*
X149449562Y-217603413D01*
X149402221Y-217543129D01*
X149359298Y-217480287D01*
X149320684Y-217414790D01*
X149286269Y-217346541D01*
X149255942Y-217275444D01*
X149229595Y-217201401D01*
X149207116Y-217124316D01*
X149188398Y-217044091D01*
X149173329Y-216960630D01*
X149161800Y-216873836D01*
X149153700Y-216783612D01*
X149148921Y-216689861D01*
X149147353Y-216592487D01*
X149145603Y-216505569D01*
X149140385Y-216423411D01*
X149131743Y-216346021D01*
X149119723Y-216273404D01*
X149104370Y-216205567D01*
X149085728Y-216142517D01*
X149063844Y-216084259D01*
X149038763Y-216030801D01*
X149010529Y-215982149D01*
X148979189Y-215938309D01*
X148944786Y-215899288D01*
X148907367Y-215865092D01*
X148866976Y-215835728D01*
X148823660Y-215811202D01*
X148777462Y-215791521D01*
X148728428Y-215776691D01*
X148676604Y-215766718D01*
X148622035Y-215761609D01*
X148564766Y-215761371D01*
X148504841Y-215766010D01*
X148442308Y-215775532D01*
X148377209Y-215789944D01*
X148309592Y-215809253D01*
X148239500Y-215833464D01*
X148166980Y-215862585D01*
X148092076Y-215896621D01*
X148014833Y-215935580D01*
X147935298Y-215979467D01*
X147769529Y-216082054D01*
X147595129Y-216204433D01*
X147518657Y-216266032D01*
X147448024Y-216331765D01*
X147383283Y-216401632D01*
X147324484Y-216475633D01*
X147271679Y-216553768D01*
X147224920Y-216636038D01*
X147184260Y-216722441D01*
X147149748Y-216812978D01*
X147121438Y-216907649D01*
X147099381Y-217006454D01*
X147083628Y-217109393D01*
X147074231Y-217216467D01*
X147071241Y-217327674D01*
X145620651Y-217327674D01*
X145619574Y-217298045D01*
X145623455Y-217181923D01*
X145634913Y-217065251D01*
X145653671Y-216948308D01*
X145679450Y-216831372D01*
X145711973Y-216714720D01*
X145750962Y-216598630D01*
X145796139Y-216483380D01*
X145847226Y-216369247D01*
X145903947Y-216256509D01*
X145966022Y-216145445D01*
X146033174Y-216036332D01*
X146105126Y-215929447D01*
X146181600Y-215825068D01*
X146262317Y-215723474D01*
X146435373Y-215529748D01*
X146622072Y-215350492D01*
X146719842Y-215266984D01*
X146820191Y-215187927D01*
X146922838Y-215113599D01*
X147027508Y-215044276D01*
X147133922Y-214980237D01*
X147241801Y-214921761D01*
X147350222Y-214869436D01*
X150372859Y-214869436D01*
X150377818Y-215175691D01*
X150388552Y-215453337D01*
X150405435Y-215703775D01*
X150428842Y-215928407D01*
X150459148Y-216128635D01*
X150496727Y-216305861D01*
X150541955Y-216461486D01*
X150595205Y-216596911D01*
X150656853Y-216713540D01*
X150727273Y-216812773D01*
X150806839Y-216896012D01*
X150895927Y-216964659D01*
X150994911Y-217020116D01*
X151104166Y-217063783D01*
X151224065Y-217097064D01*
X151354985Y-217121360D01*
X151497300Y-217138072D01*
X151651384Y-217148602D01*
X151996358Y-217156724D01*
X152392905Y-217156940D01*
X152588216Y-217155200D01*
X152764769Y-217149636D01*
X152923649Y-217139731D01*
X152996800Y-217132989D01*
X153065940Y-217124969D01*
X153131204Y-217115604D01*
X153192729Y-217104832D01*
X153250649Y-217092587D01*
X153305100Y-217078804D01*
X153356218Y-217063419D01*
X153404138Y-217046368D01*
X153448997Y-217027586D01*
X153490929Y-217007008D01*
X153530071Y-216984569D01*
X153566558Y-216960206D01*
X153600526Y-216933853D01*
X153632110Y-216905446D01*
X153661447Y-216874920D01*
X153688671Y-216842211D01*
X153713918Y-216807254D01*
X153737325Y-216769984D01*
X153759026Y-216730337D01*
X153779157Y-216688249D01*
X153797855Y-216643654D01*
X153815253Y-216596488D01*
X153831490Y-216546687D01*
X153846699Y-216494186D01*
X153874579Y-216380824D01*
X154016034Y-215540154D01*
X154172784Y-214272428D01*
X154513984Y-210679056D01*
X154861800Y-206047195D01*
X155179854Y-200823329D01*
X155323168Y-197974093D01*
X155426795Y-195624261D01*
X155459593Y-194714136D01*
X155477507Y-194021880D01*
X155478885Y-193578498D01*
X155472856Y-193459824D01*
X155462073Y-193414996D01*
X155437879Y-193404213D01*
X155392550Y-193398184D01*
X155243240Y-193399561D01*
X155023649Y-193417474D01*
X154743288Y-193450271D01*
X154411663Y-193496297D01*
X154038284Y-193553898D01*
X153204299Y-193697215D01*
X151087630Y-194049991D01*
X150981795Y-198636104D01*
X150809817Y-203830757D01*
X150558463Y-209924991D01*
X150443397Y-212352612D01*
X150403279Y-213330287D01*
X150378768Y-214165490D01*
X150373301Y-214533169D01*
X150372859Y-214869436D01*
X147350222Y-214869436D01*
X147350870Y-214869123D01*
X147460849Y-214822603D01*
X147571462Y-214782477D01*
X147682429Y-214749024D01*
X147793474Y-214722522D01*
X147904319Y-214703248D01*
X148014686Y-214691480D01*
X148124297Y-214687495D01*
X148286940Y-214686049D01*
X148431599Y-214680881D01*
X148559308Y-214670752D01*
X148671102Y-214654422D01*
X148721353Y-214643544D01*
X148768012Y-214630651D01*
X148811210Y-214615587D01*
X148851074Y-214598198D01*
X148887734Y-214578328D01*
X148921319Y-214555823D01*
X148951959Y-214530527D01*
X148979783Y-214502286D01*
X149004919Y-214470944D01*
X149027497Y-214436347D01*
X149047647Y-214398339D01*
X149065497Y-214356765D01*
X149081176Y-214311470D01*
X149094815Y-214262300D01*
X149106541Y-214209099D01*
X149116484Y-214151712D01*
X149131540Y-214023761D01*
X149141014Y-213877207D01*
X149145940Y-213710808D01*
X149147353Y-213523326D01*
X149266413Y-210017596D01*
X149570685Y-203151652D01*
X149958739Y-193873599D01*
X149076796Y-193062221D01*
X148895033Y-192882386D01*
X148732286Y-192693456D01*
X148586903Y-192485509D01*
X148457230Y-192248623D01*
X148341612Y-191972877D01*
X148238397Y-191648348D01*
X148145930Y-191265116D01*
X148062559Y-190813256D01*
X147916487Y-189663972D01*
X147786952Y-188121120D01*
X147660725Y-186105325D01*
X147524577Y-183537212D01*
X147486396Y-182830002D01*
X147450644Y-182200515D01*
X147416442Y-181644614D01*
X147382913Y-181158166D01*
X147366126Y-180939696D01*
X147349177Y-180737038D01*
X147331957Y-180549676D01*
X147314355Y-180377094D01*
X147296263Y-180218775D01*
X147277570Y-180074202D01*
X147258167Y-179942857D01*
X147237943Y-179824226D01*
X147216789Y-179717789D01*
X147194595Y-179623032D01*
X147171252Y-179539437D01*
X147146648Y-179466487D01*
X147133840Y-179433843D01*
X147120676Y-179403666D01*
X147107141Y-179375892D01*
X147093224Y-179350457D01*
X147078909Y-179327295D01*
X147064183Y-179306342D01*
X147049032Y-179287534D01*
X147033443Y-179270806D01*
X147017401Y-179256094D01*
X147000894Y-179243332D01*
X146983907Y-179232456D01*
X146966427Y-179223402D01*
X146948440Y-179216105D01*
X146929932Y-179210500D01*
X146910889Y-179206523D01*
X146891298Y-179204110D01*
X146871145Y-179203195D01*
X146850417Y-179203714D01*
X146829099Y-179205602D01*
X146807178Y-179208796D01*
X146761471Y-179218838D01*
X146713187Y-179233325D01*
X145957470Y-179411574D01*
X144927248Y-179574527D01*
X143652286Y-179720116D01*
X142162351Y-179846276D01*
X140487208Y-179950937D01*
X138656623Y-180032034D01*
X136700361Y-180087500D01*
X134648188Y-180115268D01*
X128404021Y-180115268D01*
X128262908Y-186606380D01*
X128221015Y-188381636D01*
X128197795Y-189148781D01*
X128172508Y-189841461D01*
X128144740Y-190464067D01*
X128114079Y-191020993D01*
X128080110Y-191516631D01*
X128042421Y-191955373D01*
X128000597Y-192341612D01*
X127954227Y-192679740D01*
X127902895Y-192974150D01*
X127846189Y-193229234D01*
X127783695Y-193449385D01*
X127715000Y-193638996D01*
X127639690Y-193802457D01*
X127557353Y-193944163D01*
X127473740Y-194096169D01*
X127394468Y-194292048D01*
X127246466Y-194842091D01*
X127108386Y-195647624D01*
X126975268Y-196761975D01*
X126842149Y-198238474D01*
X126704070Y-200130452D01*
X126393183Y-205374164D01*
X126172699Y-209562296D01*
X125952213Y-213188189D01*
X125758186Y-215861583D01*
X125679362Y-216719137D01*
X125617075Y-217192218D01*
X125593183Y-217393359D01*
X125574769Y-217574346D01*
X125562349Y-217736523D01*
X125558549Y-217810977D01*
X125556441Y-217881233D01*
X125556090Y-217947458D01*
X125557560Y-218009821D01*
X125560917Y-218068488D01*
X125566224Y-218123629D01*
X125573547Y-218175410D01*
X125582950Y-218224001D01*
X125594498Y-218269568D01*
X125608254Y-218312281D01*
X125624285Y-218352306D01*
X125642654Y-218389812D01*
X125663425Y-218424967D01*
X125686665Y-218457939D01*
X125712436Y-218488895D01*
X125740804Y-218518004D01*
X125771834Y-218545433D01*
X125805589Y-218571351D01*
X125842135Y-218595925D01*
X125881536Y-218619324D01*
X125923857Y-218641715D01*
X125969162Y-218663266D01*
X126017516Y-218684146D01*
X126068983Y-218704522D01*
X126181517Y-218744434D01*
X126262847Y-218776568D01*
X126347639Y-218819606D01*
X126435222Y-218872877D01*
X126524924Y-218935707D01*
X126616072Y-219007426D01*
X126707996Y-219087361D01*
X126800024Y-219174841D01*
X126891482Y-219269194D01*
X126981701Y-219369748D01*
X127070008Y-219475832D01*
X127155730Y-219586773D01*
X127238197Y-219701900D01*
X127316737Y-219820540D01*
X127390678Y-219942024D01*
X127459347Y-220065677D01*
X127522074Y-220190829D01*
X127621267Y-220391350D01*
X127707076Y-220571304D01*
X127779346Y-220733275D01*
X127837921Y-220879846D01*
X127862025Y-220948164D01*
X127882647Y-221013601D01*
X127899768Y-221076480D01*
X127913369Y-221137124D01*
X127923430Y-221195857D01*
X127929931Y-221253000D01*
X127932854Y-221308877D01*
X127932179Y-221363811D01*
X127927886Y-221418125D01*
X127919957Y-221472141D01*
X127908372Y-221526184D01*
X127893111Y-221580575D01*
X127874156Y-221635638D01*
X127851486Y-221691696D01*
X127825082Y-221749072D01*
X127794926Y-221808088D01*
X127760997Y-221869068D01*
X127723276Y-221932334D01*
X127636382Y-222067019D01*
X127534088Y-222214726D01*
X127416239Y-222378040D01*
X127331645Y-222479601D01*
X127237233Y-222585297D01*
X127133932Y-222694300D01*
X127022672Y-222805784D01*
X126904385Y-222918921D01*
X126780001Y-223032885D01*
X126650448Y-223146849D01*
X126516658Y-223259987D01*
X126379561Y-223371471D01*
X126240086Y-223480475D01*
X126099165Y-223586171D01*
X125957726Y-223687733D01*
X125816702Y-223784335D01*
X125677020Y-223875148D01*
X125539613Y-223959347D01*
X125405409Y-224036105D01*
X125198901Y-224150576D01*
X125015079Y-224257348D01*
X124852651Y-224358642D01*
X124710325Y-224456680D01*
X124586809Y-224553685D01*
X124531702Y-224602494D01*
X124480812Y-224651879D01*
X124433979Y-224702116D01*
X124391041Y-224753483D01*
X124351837Y-224806259D01*
X124316205Y-224860721D01*
X124283983Y-224917146D01*
X124255011Y-224975813D01*
X124229126Y-225036999D01*
X124206168Y-225100982D01*
X124185974Y-225168041D01*
X124168383Y-225238451D01*
X124140366Y-225390441D01*
X124120823Y-225559173D01*
X124108464Y-225746872D01*
X124101996Y-225955757D01*
X124100127Y-226188052D01*
X124105846Y-226670296D01*
X124119428Y-226873048D01*
X124145878Y-227056214D01*
X124189484Y-227224290D01*
X124219061Y-227304075D01*
X124254536Y-227381773D01*
X124296445Y-227457947D01*
X124345323Y-227533158D01*
X124401708Y-227607969D01*
X124466134Y-227682942D01*
X124621258Y-227835619D01*
X124814985Y-227995686D01*
X125051603Y-228167639D01*
X125335401Y-228355974D01*
X125670670Y-228565186D01*
X126061697Y-228799772D01*
X127028185Y-229363048D01*
X127409130Y-229594117D01*
X127771387Y-229824192D01*
X128114873Y-230053104D01*
X128439503Y-230280685D01*
X128745194Y-230506768D01*
X129031862Y-230731184D01*
X129299422Y-230953765D01*
X129547790Y-231174344D01*
X129776884Y-231392752D01*
X129986618Y-231608822D01*
X130176909Y-231822386D01*
X130347673Y-232033275D01*
X130498826Y-232241322D01*
X130630283Y-232446359D01*
X130741961Y-232648218D01*
X130833777Y-232846730D01*
X130905644Y-233041729D01*
X130957481Y-233233046D01*
X130989203Y-233420513D01*
X131000726Y-233603962D01*
X130991966Y-233783225D01*
X130962839Y-233958134D01*
X130913261Y-234128522D01*
X130843148Y-234294220D01*
X130752416Y-234455061D01*
X130640981Y-234610876D01*
X130508759Y-234761498D01*
X130355666Y-234906758D01*
X130181619Y-235046489D01*
X129986533Y-235180523D01*
X129770324Y-235308692D01*
X129532908Y-235430827D01*
X129250815Y-235550423D01*
X128969497Y-235643457D01*
X128683115Y-235708172D01*
X128385829Y-235742812D01*
X128071800Y-235745619D01*
X127735188Y-235714836D01*
X127370154Y-235648707D01*
X126970859Y-235545474D01*
X126531462Y-235403381D01*
X126046126Y-235220670D01*
X125509009Y-234995585D01*
X124914273Y-234726368D01*
X124256079Y-234411262D01*
X123528586Y-234048511D01*
X121842349Y-233173045D01*
X121057651Y-232746251D01*
X120366953Y-232359868D01*
X119765035Y-232005523D01*
X119246678Y-231674847D01*
X119017203Y-231515767D01*
X118806662Y-231359466D01*
X118614401Y-231204895D01*
X118439768Y-231051010D01*
X118282111Y-230896762D01*
X118140777Y-230741106D01*
X118015114Y-230582996D01*
X117904469Y-230421384D01*
X117808190Y-230255225D01*
X117725626Y-230083472D01*
X117656122Y-229905078D01*
X117599027Y-229718998D01*
X117553688Y-229524184D01*
X117519454Y-229319590D01*
X117495671Y-229104171D01*
X117481687Y-228876878D01*
X117480507Y-228382490D01*
X117482821Y-228339992D01*
X118808463Y-228339992D01*
X118813604Y-228654247D01*
X118833060Y-228939097D01*
X118872877Y-229199866D01*
X118939100Y-229441876D01*
X119037776Y-229670450D01*
X119174951Y-229890910D01*
X119356671Y-230108579D01*
X119588983Y-230328780D01*
X119877931Y-230556836D01*
X120229563Y-230798069D01*
X120649925Y-231057802D01*
X121145063Y-231341358D01*
X121721023Y-231654059D01*
X122383851Y-232001228D01*
X123994296Y-232820262D01*
X124584725Y-233108928D01*
X125127663Y-233366795D01*
X125626057Y-233594482D01*
X126082851Y-233792610D01*
X126500991Y-233961799D01*
X126883423Y-234102669D01*
X127233091Y-234215840D01*
X127396560Y-234262232D01*
X127552943Y-234301933D01*
X127702607Y-234335018D01*
X127845922Y-234361567D01*
X127983256Y-234381656D01*
X128114976Y-234395363D01*
X128241450Y-234402765D01*
X128363048Y-234403941D01*
X128480137Y-234398967D01*
X128593086Y-234387921D01*
X128702262Y-234370881D01*
X128808034Y-234347924D01*
X128910769Y-234319127D01*
X129010837Y-234284568D01*
X129108606Y-234244326D01*
X129204442Y-234198476D01*
X129298716Y-234147097D01*
X129391795Y-234090266D01*
X129474605Y-234031485D01*
X129544542Y-233967691D01*
X129601753Y-233899039D01*
X129646387Y-233825685D01*
X129678593Y-233747783D01*
X129698520Y-233665488D01*
X129706316Y-233578956D01*
X129702129Y-233488342D01*
X129686108Y-233393800D01*
X129658402Y-233295485D01*
X129619160Y-233193554D01*
X129568528Y-233088160D01*
X129433696Y-232867605D01*
X129255094Y-232635060D01*
X129033910Y-232391768D01*
X128771334Y-232138967D01*
X128468553Y-231877897D01*
X128126757Y-231609800D01*
X127747133Y-231335916D01*
X127330870Y-231057484D01*
X126879158Y-230775745D01*
X126393183Y-230491939D01*
X125892612Y-230200415D01*
X125404855Y-229912612D01*
X124942730Y-229635556D01*
X124519053Y-229376277D01*
X124146638Y-229141803D01*
X123838301Y-228939163D01*
X123712168Y-228851977D01*
X123606860Y-228775385D01*
X123523979Y-228710265D01*
X123465128Y-228657497D01*
X123418887Y-228602297D01*
X123373007Y-228530096D01*
X123327850Y-228442082D01*
X123283779Y-228339443D01*
X123241154Y-228223369D01*
X123200338Y-228095047D01*
X123161693Y-227955667D01*
X123125580Y-227806417D01*
X123092361Y-227648485D01*
X123062397Y-227483060D01*
X123036050Y-227311330D01*
X123013683Y-227134485D01*
X122995657Y-226953712D01*
X122982333Y-226770200D01*
X122974073Y-226585138D01*
X122971240Y-226399715D01*
X122935965Y-224565272D01*
X121595408Y-224565272D01*
X121325588Y-224561965D01*
X121050807Y-224552042D01*
X120779334Y-224535504D01*
X120519435Y-224512352D01*
X120396411Y-224498296D01*
X120279381Y-224482586D01*
X120169379Y-224465222D01*
X120067438Y-224446205D01*
X119974593Y-224425534D01*
X119891876Y-224403211D01*
X119820321Y-224379233D01*
X119760962Y-224353603D01*
X119708568Y-224339006D01*
X119657247Y-224334809D01*
X119607037Y-224340870D01*
X119557977Y-224357047D01*
X119510105Y-224383197D01*
X119463460Y-224419179D01*
X119374009Y-224520068D01*
X119289931Y-224658578D01*
X119211538Y-224833571D01*
X119139139Y-225043912D01*
X119073045Y-225288462D01*
X119013566Y-225566085D01*
X118961011Y-225875644D01*
X118915691Y-226216003D01*
X118877916Y-226586023D01*
X118847995Y-226984570D01*
X118826239Y-227410504D01*
X118812958Y-227862691D01*
X118808463Y-228339992D01*
X117482821Y-228339992D01*
X117510695Y-227828053D01*
X117567032Y-227205197D01*
X117644297Y-226505550D01*
X117961794Y-223789157D01*
X116797629Y-222624995D01*
X116674097Y-222497380D01*
X116555163Y-222366406D01*
X116441295Y-222232848D01*
X116332955Y-222097481D01*
X116230610Y-221961081D01*
X116134724Y-221824422D01*
X116045764Y-221688281D01*
X115964192Y-221553431D01*
X115890476Y-221420648D01*
X115825080Y-221290707D01*
X115768468Y-221164384D01*
X115721107Y-221042452D01*
X115683460Y-220925689D01*
X115655994Y-220814868D01*
X115639174Y-220710764D01*
X115634901Y-220661474D01*
X115633863Y-220627318D01*
X117119745Y-220627318D01*
X117120974Y-220711388D01*
X117128694Y-220795258D01*
X117142912Y-220878960D01*
X117163636Y-220962527D01*
X117190870Y-221045989D01*
X117224623Y-221129381D01*
X117264899Y-221212734D01*
X117311706Y-221296081D01*
X117365050Y-221379453D01*
X117424938Y-221462883D01*
X117491376Y-221546404D01*
X117564370Y-221630048D01*
X117643927Y-221713846D01*
X117730053Y-221797832D01*
X117822755Y-221882038D01*
X117922040Y-221966495D01*
X118027913Y-222051237D01*
X118140382Y-222136295D01*
X118385130Y-222307490D01*
X118594418Y-222441953D01*
X118811754Y-222567526D01*
X119036505Y-222684212D01*
X119268039Y-222792009D01*
X119748923Y-222980938D01*
X120249340Y-223134314D01*
X120764227Y-223252137D01*
X121288519Y-223334406D01*
X121817151Y-223381122D01*
X122345060Y-223392285D01*
X122867182Y-223367893D01*
X123378451Y-223307949D01*
X123873805Y-223212451D01*
X124348177Y-223081399D01*
X124575913Y-223002541D01*
X124796505Y-222914794D01*
X125009320Y-222818158D01*
X125213724Y-222712635D01*
X125409085Y-222598223D01*
X125594769Y-222474922D01*
X125770144Y-222342733D01*
X125934576Y-222201656D01*
X126071036Y-222077907D01*
X126189512Y-221957467D01*
X126242071Y-221898228D01*
X126290212Y-221839507D01*
X126333960Y-221781198D01*
X126373342Y-221723200D01*
X126408383Y-221665409D01*
X126439108Y-221607721D01*
X126465545Y-221550033D01*
X126487718Y-221492242D01*
X126505654Y-221434244D01*
X126519379Y-221375936D01*
X126528917Y-221317215D01*
X126534296Y-221257977D01*
X126535540Y-221198118D01*
X126532676Y-221137537D01*
X126525730Y-221076128D01*
X126514727Y-221013790D01*
X126499693Y-220950418D01*
X126480655Y-220885909D01*
X126457637Y-220820159D01*
X126430666Y-220753066D01*
X126399768Y-220684527D01*
X126364968Y-220614436D01*
X126283767Y-220469192D01*
X126187269Y-220316506D01*
X126075682Y-220155551D01*
X125988134Y-220037797D01*
X125909423Y-219936167D01*
X125837636Y-219851072D01*
X125803742Y-219814855D01*
X125770862Y-219782928D01*
X125738757Y-219755341D01*
X125707189Y-219732147D01*
X125675917Y-219713397D01*
X125644703Y-219699142D01*
X125613309Y-219689436D01*
X125581495Y-219684328D01*
X125549021Y-219683871D01*
X125515650Y-219688117D01*
X125481142Y-219697117D01*
X125445258Y-219710923D01*
X125407760Y-219729587D01*
X125368407Y-219753159D01*
X125326961Y-219781693D01*
X125283184Y-219815239D01*
X125236835Y-219853850D01*
X125187677Y-219897576D01*
X125079974Y-220000584D01*
X124958164Y-220124675D01*
X124820334Y-220270263D01*
X124664572Y-220437762D01*
X124540377Y-220570546D01*
X124418455Y-220691392D01*
X124297773Y-220800766D01*
X124177299Y-220899132D01*
X124055997Y-220986957D01*
X123932835Y-221064705D01*
X123806779Y-221132841D01*
X123676795Y-221191830D01*
X123541850Y-221242137D01*
X123400912Y-221284228D01*
X123252945Y-221318567D01*
X123096916Y-221345620D01*
X122931792Y-221365852D01*
X122756540Y-221379727D01*
X122570126Y-221387711D01*
X122371516Y-221390269D01*
X122201107Y-221388521D01*
X122033914Y-221383310D01*
X121870055Y-221374689D01*
X121709645Y-221362709D01*
X121552801Y-221347421D01*
X121399638Y-221328878D01*
X121250274Y-221307131D01*
X121104825Y-221282231D01*
X120963406Y-221254231D01*
X120826134Y-221223182D01*
X120693126Y-221189136D01*
X120564497Y-221152144D01*
X120440364Y-221112259D01*
X120320843Y-221069531D01*
X120206050Y-221024013D01*
X120096102Y-220975756D01*
X119991115Y-220924812D01*
X119891205Y-220871232D01*
X119796489Y-220815069D01*
X119707083Y-220756373D01*
X119623102Y-220695197D01*
X119544664Y-220631592D01*
X119471884Y-220565610D01*
X119404879Y-220497303D01*
X119343765Y-220426722D01*
X119288658Y-220353919D01*
X119239676Y-220278946D01*
X119196933Y-220201854D01*
X119160546Y-220122695D01*
X119130632Y-220041520D01*
X119107306Y-219958382D01*
X119090685Y-219873332D01*
X119076122Y-219783312D01*
X119058930Y-219698466D01*
X119039167Y-219618801D01*
X119030881Y-219591098D01*
X120113741Y-219591098D01*
X120995684Y-219943881D01*
X121077774Y-219972207D01*
X121164993Y-219997685D01*
X121353009Y-220040274D01*
X121556114Y-220072011D01*
X121770692Y-220093259D01*
X121993125Y-220104377D01*
X122219795Y-220105729D01*
X122447086Y-220097676D01*
X122671379Y-220080580D01*
X122889057Y-220054802D01*
X123096504Y-220020704D01*
X123290101Y-219978649D01*
X123466232Y-219928997D01*
X123621278Y-219872111D01*
X123689764Y-219841068D01*
X123751623Y-219808352D01*
X123806402Y-219774008D01*
X123853649Y-219738082D01*
X123892912Y-219700618D01*
X123923739Y-219661662D01*
X124041906Y-219175835D01*
X124181157Y-218136449D01*
X124501413Y-214683084D01*
X124841513Y-209873728D01*
X125158461Y-204280544D01*
X125320519Y-201205315D01*
X125475962Y-198569956D01*
X125604947Y-196655584D01*
X125653316Y-196056619D01*
X125687628Y-195743320D01*
X125716222Y-195618694D01*
X125734481Y-195508642D01*
X125740338Y-195412025D01*
X125731725Y-195327707D01*
X125721347Y-195289805D01*
X125706576Y-195254551D01*
X125687154Y-195221804D01*
X125662823Y-195191420D01*
X125633325Y-195163259D01*
X125598400Y-195137178D01*
X125557791Y-195113035D01*
X125511239Y-195090687D01*
X125399273Y-195050810D01*
X125260436Y-195016411D01*
X125092660Y-194986353D01*
X124893878Y-194959498D01*
X124662024Y-194934710D01*
X124395029Y-194910851D01*
X123747351Y-194861377D01*
X123514290Y-194850199D01*
X123291771Y-194843051D01*
X123080415Y-194839830D01*
X122880840Y-194840434D01*
X122693668Y-194844757D01*
X122519518Y-194852698D01*
X122359011Y-194864153D01*
X122212767Y-194879019D01*
X122081405Y-194897192D01*
X121965546Y-194918568D01*
X121913624Y-194930426D01*
X121865811Y-194943046D01*
X121822183Y-194956415D01*
X121782818Y-194970520D01*
X121747794Y-194985349D01*
X121717189Y-195000889D01*
X121691079Y-195017126D01*
X121669543Y-195034048D01*
X121652658Y-195051642D01*
X121640501Y-195069895D01*
X121633150Y-195088793D01*
X121630682Y-195108325D01*
X121101519Y-203222217D01*
X120325408Y-215287219D01*
X120113741Y-219591098D01*
X119030881Y-219591098D01*
X119016891Y-219544323D01*
X118992160Y-219475039D01*
X118965033Y-219410954D01*
X118935568Y-219352076D01*
X118903822Y-219298411D01*
X118869855Y-219249965D01*
X118833723Y-219206745D01*
X118795486Y-219168758D01*
X118755201Y-219136008D01*
X118712926Y-219108505D01*
X118668721Y-219086252D01*
X118622641Y-219069258D01*
X118574747Y-219057529D01*
X118525096Y-219051070D01*
X118473746Y-219049889D01*
X118420755Y-219053992D01*
X118366181Y-219063385D01*
X118310083Y-219078074D01*
X118252519Y-219098068D01*
X118193547Y-219123370D01*
X118133224Y-219153989D01*
X118071610Y-219189931D01*
X118008762Y-219231202D01*
X117944738Y-219277808D01*
X117879596Y-219329756D01*
X117813396Y-219387053D01*
X117746194Y-219449704D01*
X117678049Y-219517717D01*
X117609019Y-219591098D01*
X117532849Y-219680091D01*
X117463093Y-219768496D01*
X117399758Y-219856345D01*
X117342850Y-219943671D01*
X117292376Y-220030506D01*
X117248342Y-220116883D01*
X117210755Y-220202833D01*
X117179621Y-220288389D01*
X117154947Y-220373583D01*
X117136738Y-220458448D01*
X117125002Y-220543016D01*
X117119745Y-220627318D01*
X115633863Y-220627318D01*
X115633463Y-220614154D01*
X115636843Y-220517350D01*
X115646856Y-220418912D01*
X115663316Y-220319066D01*
X115686035Y-220218037D01*
X115714827Y-220116053D01*
X115749503Y-220013339D01*
X115789876Y-219910121D01*
X115835759Y-219806625D01*
X115943306Y-219599704D01*
X116070646Y-219394386D01*
X116216278Y-219192478D01*
X116378706Y-218995790D01*
X116556430Y-218806129D01*
X116747951Y-218625305D01*
X116951772Y-218455126D01*
X117166393Y-218297401D01*
X117390315Y-218153939D01*
X117622041Y-218026547D01*
X117860071Y-217917036D01*
X117980982Y-217869550D01*
X118102908Y-217827212D01*
X119055407Y-217474437D01*
X119267073Y-212994167D01*
X119531656Y-207799509D01*
X119902071Y-201599437D01*
X120040359Y-199313752D01*
X120093456Y-198384204D01*
X120135237Y-197581626D01*
X120165236Y-196894596D01*
X120175671Y-196590843D01*
X120182987Y-196311695D01*
X120187124Y-196055723D01*
X120188025Y-195821501D01*
X120185632Y-195607600D01*
X120179886Y-195412594D01*
X120170730Y-195235054D01*
X120158105Y-195073554D01*
X120141953Y-194926665D01*
X120122216Y-194792960D01*
X120098835Y-194671011D01*
X120071754Y-194559392D01*
X120040913Y-194456673D01*
X120006254Y-194361428D01*
X119967719Y-194272230D01*
X119925251Y-194187650D01*
X119878791Y-194106260D01*
X119828280Y-194026635D01*
X119773662Y-193947345D01*
X119714876Y-193866964D01*
X119584574Y-193697215D01*
X119459578Y-193535003D01*
X119348585Y-193375168D01*
X119250719Y-193211819D01*
X119165100Y-193039065D01*
X119090849Y-192851015D01*
X119027089Y-192641777D01*
X118972941Y-192405460D01*
X118927525Y-192136174D01*
X118889965Y-191828028D01*
X118859381Y-191475129D01*
X118815628Y-190611512D01*
X118789239Y-189498194D01*
X118773184Y-188088046D01*
X118763503Y-186729171D01*
X118747001Y-185491890D01*
X118722644Y-184368815D01*
X118689399Y-183352554D01*
X118646232Y-182435719D01*
X118592110Y-181610920D01*
X118525998Y-180870767D01*
X118446864Y-180207870D01*
X118353674Y-179614839D01*
X118245395Y-179084286D01*
X118120992Y-178608819D01*
X118052422Y-178389434D01*
X117979433Y-178181050D01*
X117901897Y-177982742D01*
X117819684Y-177793588D01*
X117732665Y-177612663D01*
X117640712Y-177439044D01*
X117441482Y-177110029D01*
X117220961Y-176799152D01*
X116162627Y-175423328D01*
X115704020Y-180150546D01*
X115565251Y-181565586D01*
X115511007Y-182162441D01*
X115466996Y-182693305D01*
X115433320Y-183164017D01*
X115410082Y-183580417D01*
X115397387Y-183948345D01*
X115395337Y-184273640D01*
X115404036Y-184562141D01*
X115423587Y-184819687D01*
X115437464Y-184938678D01*
X115454093Y-185052119D01*
X115473487Y-185160742D01*
X115495658Y-185265275D01*
X115548385Y-185464995D01*
X115612378Y-185657119D01*
X115687739Y-185847486D01*
X115774573Y-186041934D01*
X115872056Y-186252909D01*
X115959540Y-186462211D01*
X116037154Y-186669407D01*
X116105027Y-186874064D01*
X116163288Y-187075750D01*
X116212066Y-187274032D01*
X116251491Y-187468476D01*
X116281692Y-187658651D01*
X116302798Y-187844123D01*
X116314938Y-188024460D01*
X116318240Y-188199229D01*
X116312836Y-188367997D01*
X116298854Y-188530331D01*
X116276422Y-188685799D01*
X116245670Y-188833967D01*
X116206727Y-188974404D01*
X116159724Y-189106675D01*
X116104787Y-189230349D01*
X116042048Y-189344992D01*
X115971634Y-189450172D01*
X115893676Y-189545455D01*
X115808302Y-189630411D01*
X115715642Y-189704604D01*
X115615825Y-189767603D01*
X115508979Y-189818975D01*
X115395235Y-189858287D01*
X115274721Y-189885106D01*
X115147567Y-189898999D01*
X115013901Y-189899534D01*
X114873854Y-189886278D01*
X114727553Y-189858798D01*
X114575129Y-189816661D01*
X114493799Y-189784120D01*
X114409007Y-189739901D01*
X114321424Y-189684727D01*
X114231722Y-189619321D01*
X114140574Y-189544407D01*
X114048650Y-189460708D01*
X113956623Y-189368948D01*
X113865164Y-189269850D01*
X113774946Y-189164138D01*
X113686639Y-189052534D01*
X113600916Y-188935763D01*
X113518449Y-188814548D01*
X113439910Y-188689612D01*
X113365970Y-188561680D01*
X113297300Y-188431473D01*
X113234574Y-188299716D01*
X112919273Y-187613472D01*
X114277518Y-187613472D01*
X114277818Y-187643492D01*
X114279488Y-187674236D01*
X114282547Y-187705677D01*
X114287014Y-187737790D01*
X114292908Y-187770549D01*
X114311261Y-187850952D01*
X114333069Y-187926775D01*
X114358069Y-187997986D01*
X114385994Y-188064553D01*
X114416581Y-188126443D01*
X114449565Y-188183624D01*
X114484680Y-188236064D01*
X114521662Y-188283730D01*
X114560246Y-188326590D01*
X114600167Y-188364612D01*
X114641160Y-188397763D01*
X114682961Y-188426012D01*
X114725304Y-188449325D01*
X114767925Y-188467672D01*
X114810559Y-188481018D01*
X114852942Y-188489332D01*
X114894807Y-188492582D01*
X114935891Y-188490736D01*
X114975928Y-188483761D01*
X115014654Y-188471624D01*
X115051804Y-188454294D01*
X115087113Y-188431738D01*
X115120316Y-188403924D01*
X115151148Y-188370820D01*
X115179346Y-188332393D01*
X115204642Y-188288611D01*
X115226774Y-188239441D01*
X115245475Y-188184852D01*
X115260482Y-188124812D01*
X115271529Y-188059287D01*
X115278351Y-187988245D01*
X115280684Y-187911655D01*
X115280066Y-187872284D01*
X115278221Y-187833572D01*
X115275161Y-187795557D01*
X115270900Y-187758280D01*
X115265450Y-187721777D01*
X115258825Y-187686088D01*
X115251037Y-187651252D01*
X115242099Y-187617307D01*
X115232024Y-187584292D01*
X115220826Y-187552246D01*
X115208516Y-187521208D01*
X115195108Y-187491217D01*
X115180615Y-187462310D01*
X115165050Y-187434528D01*
X115148425Y-187407909D01*
X115130754Y-187382490D01*
X115112049Y-187358312D01*
X115092324Y-187335413D01*
X115071591Y-187313832D01*
X115049863Y-187293607D01*
X115027153Y-187274778D01*
X115003475Y-187257382D01*
X114978840Y-187241460D01*
X114953263Y-187227049D01*
X114926755Y-187214188D01*
X114899330Y-187202916D01*
X114871000Y-187193272D01*
X114841780Y-187185294D01*
X114811680Y-187179022D01*
X114780715Y-187174494D01*
X114748898Y-187171749D01*
X114716240Y-187170825D01*
X114686891Y-187171544D01*
X114658389Y-187173685D01*
X114630751Y-187177220D01*
X114603999Y-187182125D01*
X114578151Y-187188373D01*
X114553227Y-187195940D01*
X114529246Y-187204798D01*
X114506227Y-187214922D01*
X114484190Y-187226286D01*
X114463155Y-187238865D01*
X114443140Y-187252632D01*
X114424165Y-187267563D01*
X114406249Y-187283629D01*
X114389412Y-187300808D01*
X114373674Y-187319071D01*
X114359053Y-187338393D01*
X114345568Y-187358749D01*
X114333240Y-187380113D01*
X114322088Y-187402459D01*
X114312131Y-187425761D01*
X114303388Y-187449993D01*
X114295879Y-187475129D01*
X114289623Y-187501144D01*
X114284639Y-187528012D01*
X114280948Y-187555706D01*
X114278567Y-187584202D01*
X114277518Y-187613472D01*
X112919273Y-187613472D01*
X112634850Y-186994434D01*
X112529019Y-188828876D01*
X112514093Y-189083280D01*
X112495601Y-189317944D01*
X112473285Y-189533797D01*
X112446887Y-189731770D01*
X112432077Y-189824342D01*
X112416148Y-189912793D01*
X112399070Y-189997239D01*
X112380810Y-190077797D01*
X112361336Y-190154581D01*
X112340615Y-190227710D01*
X112318614Y-190297299D01*
X112295303Y-190363465D01*
X112270648Y-190426323D01*
X112244617Y-190485989D01*
X112217178Y-190542582D01*
X112188298Y-190596215D01*
X112157946Y-190647007D01*
X112126088Y-190695072D01*
X112092694Y-190740528D01*
X112057729Y-190783490D01*
X112021163Y-190824076D01*
X111982962Y-190862400D01*
X111943094Y-190898580D01*
X111901528Y-190932731D01*
X111858231Y-190964971D01*
X111813170Y-190995414D01*
X111766314Y-191024179D01*
X111717629Y-191051379D01*
X111643723Y-191089395D01*
X111567905Y-191124001D01*
X111490743Y-191155092D01*
X111412807Y-191182566D01*
X111334663Y-191206320D01*
X111256882Y-191226250D01*
X111180030Y-191242252D01*
X111104677Y-191254224D01*
X111031392Y-191262062D01*
X110960741Y-191265662D01*
X110893295Y-191264922D01*
X110829621Y-191259738D01*
X110770288Y-191250006D01*
X110742427Y-191243403D01*
X110715864Y-191235623D01*
X110690671Y-191226656D01*
X110666918Y-191216487D01*
X110644677Y-191205103D01*
X110624018Y-191192493D01*
X110572471Y-191166473D01*
X110510950Y-191141436D01*
X110440230Y-191117535D01*
X110361088Y-191094927D01*
X110274297Y-191073766D01*
X110180633Y-191054206D01*
X110080872Y-191036404D01*
X109975788Y-191020514D01*
X109752753Y-190995089D01*
X109517728Y-190979172D01*
X109397659Y-190975167D01*
X109276917Y-190974004D01*
X109156278Y-190975837D01*
X109036519Y-190980823D01*
X108656576Y-191002707D01*
X108322006Y-190993844D01*
X108030224Y-190941676D01*
X107778646Y-190833645D01*
X107564688Y-190657196D01*
X107385767Y-190399769D01*
X107239299Y-190048808D01*
X107122699Y-189591756D01*
X107033385Y-189016055D01*
X106999801Y-188648622D01*
X108052327Y-188648622D01*
X108053332Y-188701971D01*
X108058638Y-188758329D01*
X108068033Y-188817304D01*
X108081304Y-188878501D01*
X108098238Y-188941526D01*
X108118621Y-189005985D01*
X108142240Y-189071483D01*
X108168883Y-189137628D01*
X108198335Y-189204025D01*
X108264816Y-189335998D01*
X108339980Y-189464250D01*
X108422119Y-189585629D01*
X108465272Y-189642756D01*
X108509530Y-189696983D01*
X108554679Y-189747915D01*
X108600507Y-189795159D01*
X108646799Y-189838321D01*
X108693343Y-189877006D01*
X108739926Y-189910821D01*
X108786335Y-189939371D01*
X108832356Y-189962262D01*
X108877776Y-189979101D01*
X108922383Y-189989493D01*
X108965962Y-189993045D01*
X108985494Y-189992020D01*
X109004392Y-189988980D01*
X109022645Y-189983976D01*
X109040239Y-189977060D01*
X109057160Y-189968284D01*
X109073398Y-189957698D01*
X109088937Y-189945357D01*
X109103766Y-189931309D01*
X109117872Y-189915608D01*
X109131241Y-189898305D01*
X109155718Y-189859100D01*
X109177095Y-189814108D01*
X109195268Y-189763741D01*
X109210133Y-189708413D01*
X109221589Y-189648537D01*
X109229529Y-189584528D01*
X109233853Y-189516797D01*
X109234456Y-189445760D01*
X109231235Y-189371828D01*
X109224087Y-189295416D01*
X109212908Y-189216937D01*
X109201661Y-189145225D01*
X109187836Y-189075670D01*
X109171544Y-189008364D01*
X109152894Y-188943395D01*
X109131996Y-188880856D01*
X109108960Y-188820835D01*
X109083896Y-188763425D01*
X109070935Y-188737144D01*
X110394988Y-188737144D01*
X110395815Y-188819990D01*
X110401603Y-188909347D01*
X110412352Y-189005267D01*
X110430705Y-189108098D01*
X110452513Y-189204902D01*
X110477513Y-189295647D01*
X110505439Y-189380301D01*
X110536026Y-189458831D01*
X110569009Y-189531205D01*
X110604124Y-189597391D01*
X110641107Y-189657356D01*
X110679690Y-189711069D01*
X110719611Y-189758496D01*
X110760605Y-189799606D01*
X110802405Y-189834366D01*
X110844749Y-189862744D01*
X110887370Y-189884708D01*
X110930004Y-189900225D01*
X110972386Y-189909263D01*
X111014251Y-189911790D01*
X111055335Y-189907773D01*
X111095373Y-189897180D01*
X111134098Y-189879980D01*
X111171248Y-189856139D01*
X111206557Y-189825625D01*
X111239760Y-189788406D01*
X111270593Y-189744450D01*
X111298790Y-189693724D01*
X111324086Y-189636196D01*
X111346218Y-189571834D01*
X111364919Y-189500606D01*
X111379926Y-189422478D01*
X111390973Y-189337420D01*
X111397795Y-189245398D01*
X111400128Y-189146381D01*
X111398052Y-189037248D01*
X111395448Y-188985179D01*
X111391791Y-188934782D01*
X111387074Y-188886065D01*
X111381292Y-188839034D01*
X111374437Y-188793696D01*
X111366504Y-188750056D01*
X111357485Y-188708122D01*
X111347375Y-188667899D01*
X111336167Y-188629395D01*
X111323854Y-188592616D01*
X111310430Y-188557567D01*
X111295888Y-188524256D01*
X111280223Y-188492690D01*
X111263427Y-188462874D01*
X111245494Y-188434814D01*
X111226418Y-188408519D01*
X111206192Y-188383993D01*
X111184810Y-188361244D01*
X111162265Y-188340277D01*
X111138551Y-188321100D01*
X111113661Y-188303718D01*
X111087590Y-188288139D01*
X111060329Y-188274369D01*
X111031874Y-188262413D01*
X111002217Y-188252279D01*
X110971352Y-188243973D01*
X110939273Y-188237502D01*
X110905973Y-188232872D01*
X110871446Y-188230089D01*
X110835684Y-188229159D01*
X110772019Y-188232062D01*
X110742047Y-188235700D01*
X110713315Y-188240804D01*
X110685823Y-188247381D01*
X110659571Y-188255437D01*
X110634560Y-188264978D01*
X110610789Y-188276012D01*
X110588258Y-188288545D01*
X110566967Y-188302582D01*
X110546917Y-188318131D01*
X110528106Y-188335198D01*
X110510536Y-188353790D01*
X110494207Y-188373912D01*
X110479117Y-188395572D01*
X110465268Y-188418776D01*
X110452659Y-188443530D01*
X110441290Y-188469840D01*
X110431162Y-188497714D01*
X110422273Y-188527158D01*
X110414625Y-188558177D01*
X110408217Y-188590780D01*
X110399122Y-188660758D01*
X110394988Y-188737144D01*
X109070935Y-188737144D01*
X109056914Y-188708714D01*
X109028122Y-188656795D01*
X108997632Y-188607756D01*
X108965553Y-188561688D01*
X108931994Y-188518682D01*
X108897066Y-188478829D01*
X108860879Y-188442218D01*
X108823542Y-188408941D01*
X108785164Y-188379087D01*
X108745857Y-188352747D01*
X108705729Y-188330011D01*
X108664891Y-188310970D01*
X108623452Y-188295715D01*
X108581522Y-188284336D01*
X108539211Y-188276922D01*
X108496628Y-188273565D01*
X108453884Y-188274355D01*
X108411089Y-188279383D01*
X108368352Y-188288739D01*
X108325782Y-188302512D01*
X108283490Y-188320795D01*
X108241586Y-188343677D01*
X108200179Y-188371248D01*
X108159380Y-188403600D01*
X108119297Y-188440822D01*
X108095594Y-188473209D01*
X108077258Y-188510577D01*
X108064077Y-188552531D01*
X108055838Y-188598677D01*
X108052327Y-188648622D01*
X106999801Y-188648622D01*
X106968772Y-188309147D01*
X106926277Y-187458476D01*
X106903315Y-186451484D01*
X106903576Y-186168966D01*
X110026679Y-186168966D01*
X110026785Y-186212744D01*
X110031669Y-186308724D01*
X110042650Y-186416279D01*
X110059575Y-186535823D01*
X110066906Y-186575500D01*
X110075646Y-186615112D01*
X110097195Y-186693884D01*
X110123911Y-186771622D01*
X110155486Y-186847810D01*
X110191608Y-186921931D01*
X110231967Y-186993469D01*
X110276254Y-187061906D01*
X110324158Y-187126725D01*
X110375369Y-187187411D01*
X110402118Y-187216042D01*
X110429578Y-187243446D01*
X110457709Y-187269558D01*
X110486474Y-187294313D01*
X110515832Y-187317648D01*
X110545747Y-187339496D01*
X110576177Y-187359795D01*
X110607086Y-187378479D01*
X110638435Y-187395483D01*
X110670183Y-187410743D01*
X110702294Y-187424195D01*
X110734727Y-187435773D01*
X110767445Y-187445414D01*
X110800408Y-187453052D01*
X110888904Y-187469932D01*
X110969286Y-187480610D01*
X111041711Y-187484675D01*
X111074987Y-187484097D01*
X111106332Y-187481711D01*
X111135765Y-187477465D01*
X111163305Y-187471306D01*
X111188972Y-187463184D01*
X111212785Y-187453047D01*
X111234764Y-187440842D01*
X111254927Y-187426519D01*
X111273295Y-187410026D01*
X111289886Y-187391310D01*
X111304720Y-187370321D01*
X111317817Y-187347006D01*
X111329196Y-187321314D01*
X111338875Y-187293193D01*
X111346875Y-187262592D01*
X111353215Y-187229459D01*
X111357915Y-187193742D01*
X111360993Y-187155390D01*
X111362468Y-187114350D01*
X111362362Y-187070572D01*
X111357478Y-186974592D01*
X111346497Y-186867037D01*
X111329573Y-186747493D01*
X111322241Y-186707816D01*
X111313502Y-186668203D01*
X111291953Y-186589430D01*
X111265236Y-186511691D01*
X111233662Y-186435502D01*
X111197540Y-186361380D01*
X111157181Y-186289842D01*
X111112894Y-186221405D01*
X111064990Y-186156586D01*
X111013779Y-186095901D01*
X110987030Y-186067270D01*
X110959571Y-186039867D01*
X110931440Y-186013755D01*
X110902675Y-185989000D01*
X110873317Y-185965666D01*
X110843403Y-185943818D01*
X110812972Y-185923521D01*
X110782063Y-185904838D01*
X110750715Y-185887835D01*
X110718966Y-185872575D01*
X110686856Y-185859125D01*
X110654422Y-185847548D01*
X110621705Y-185837909D01*
X110588742Y-185830272D01*
X110500246Y-185813391D01*
X110419863Y-185802711D01*
X110347438Y-185798645D01*
X110314161Y-185799222D01*
X110282816Y-185801608D01*
X110253383Y-185805854D01*
X110225843Y-185812012D01*
X110200176Y-185820134D01*
X110176362Y-185830271D01*
X110154384Y-185842475D01*
X110134220Y-185856798D01*
X110115852Y-185873292D01*
X110099261Y-185892007D01*
X110084427Y-185912996D01*
X110071330Y-185936311D01*
X110059951Y-185962003D01*
X110050272Y-185990123D01*
X110042272Y-186020724D01*
X110035932Y-186053857D01*
X110031232Y-186089574D01*
X110028155Y-186127926D01*
X110026679Y-186168966D01*
X106903576Y-186168966D01*
X106905657Y-183918306D01*
X106938408Y-181727569D01*
X107953931Y-181727569D01*
X107959202Y-181841111D01*
X107971295Y-181968243D01*
X107989588Y-182109948D01*
X108013463Y-182267207D01*
X108109375Y-182746218D01*
X108225130Y-183294680D01*
X108340885Y-183849755D01*
X108392560Y-184110135D01*
X108436795Y-184348605D01*
X108520511Y-184754712D01*
X108558726Y-184916166D01*
X108597200Y-185050851D01*
X108617163Y-185108382D01*
X108637947Y-185159492D01*
X108659802Y-185204271D01*
X108682983Y-185242811D01*
X108707739Y-185275201D01*
X108734323Y-185301532D01*
X108762988Y-185321895D01*
X108793984Y-185336379D01*
X108827564Y-185345076D01*
X108863979Y-185348075D01*
X108903483Y-185345467D01*
X108946326Y-185337343D01*
X108992760Y-185323793D01*
X109043038Y-185304907D01*
X109097411Y-185280776D01*
X109156132Y-185251491D01*
X109287622Y-185177817D01*
X109439525Y-185084609D01*
X109812628Y-184842487D01*
X109957228Y-184749469D01*
X110088030Y-184668854D01*
X110206946Y-184600641D01*
X110315888Y-184544830D01*
X110367217Y-184521576D01*
X110416770Y-184501422D01*
X110464784Y-184484369D01*
X110511501Y-184470416D01*
X110557158Y-184459564D01*
X110601995Y-184451812D01*
X110646251Y-184447161D01*
X110690164Y-184445611D01*
X110733974Y-184447161D01*
X110777919Y-184451812D01*
X110822239Y-184459564D01*
X110867173Y-184470416D01*
X110912959Y-184484369D01*
X110959837Y-184501422D01*
X111008046Y-184521576D01*
X111057824Y-184544830D01*
X111163046Y-184600641D01*
X111277414Y-184668854D01*
X111402841Y-184749469D01*
X111541239Y-184842487D01*
X111684909Y-184935091D01*
X111812507Y-185014466D01*
X111925326Y-185080612D01*
X111976596Y-185108725D01*
X112024656Y-185133529D01*
X112069668Y-185155027D01*
X112111792Y-185173217D01*
X112151189Y-185188100D01*
X112188023Y-185199676D01*
X112222453Y-185207945D01*
X112254642Y-185212906D01*
X112284751Y-185214560D01*
X112312942Y-185212906D01*
X112339375Y-185207945D01*
X112364213Y-185199677D01*
X112387617Y-185188102D01*
X112409749Y-185173219D01*
X112430769Y-185155029D01*
X112450840Y-185133531D01*
X112470122Y-185108726D01*
X112488779Y-185080614D01*
X112506970Y-185049195D01*
X112524857Y-185014468D01*
X112542603Y-184976433D01*
X112560367Y-184935092D01*
X112596601Y-184842486D01*
X112634850Y-184736652D01*
X112645690Y-184703485D01*
X112658320Y-184670170D01*
X112688663Y-184603327D01*
X112725310Y-184536587D01*
X112767694Y-184470416D01*
X112815245Y-184405278D01*
X112867395Y-184341639D01*
X112923576Y-184279963D01*
X112983219Y-184220717D01*
X113045756Y-184164364D01*
X113110618Y-184111370D01*
X113177238Y-184062200D01*
X113245046Y-184017318D01*
X113313474Y-183977192D01*
X113381954Y-183942284D01*
X113449917Y-183913061D01*
X113516795Y-183889987D01*
X113600402Y-183860965D01*
X113679222Y-183820690D01*
X113753224Y-183769899D01*
X113822375Y-183709328D01*
X113886642Y-183639713D01*
X113945994Y-183561792D01*
X114000397Y-183476300D01*
X114049820Y-183383974D01*
X114094231Y-183285550D01*
X114133596Y-183181765D01*
X114167885Y-183073354D01*
X114197064Y-182961055D01*
X114221101Y-182845604D01*
X114239964Y-182727736D01*
X114253620Y-182608190D01*
X114262038Y-182487700D01*
X114265185Y-182367003D01*
X114263029Y-182246836D01*
X114255537Y-182127935D01*
X114242677Y-182011036D01*
X114224417Y-181896877D01*
X114200724Y-181786192D01*
X114171567Y-181679719D01*
X114136912Y-181578194D01*
X114096728Y-181482354D01*
X114050983Y-181392934D01*
X113999644Y-181310671D01*
X113942678Y-181236302D01*
X113880053Y-181170563D01*
X113811738Y-181114190D01*
X113737700Y-181067920D01*
X113657906Y-181032489D01*
X113517157Y-180989478D01*
X113324008Y-180952977D01*
X113084764Y-180922885D01*
X112805728Y-180899097D01*
X112153503Y-180870021D01*
X111417768Y-180864923D01*
X110648961Y-180882975D01*
X109897516Y-180923351D01*
X109213872Y-180985224D01*
X108913235Y-181023964D01*
X108648463Y-181067767D01*
X108523509Y-181094803D01*
X108412818Y-181123647D01*
X108315770Y-181155282D01*
X108272168Y-181172452D01*
X108231744Y-181190689D01*
X108194421Y-181210114D01*
X108160121Y-181230850D01*
X108128766Y-181253020D01*
X108100279Y-181276747D01*
X108074583Y-181302153D01*
X108051600Y-181329362D01*
X108031252Y-181358495D01*
X108013463Y-181389676D01*
X107998154Y-181423028D01*
X107985247Y-181458673D01*
X107974667Y-181496733D01*
X107966334Y-181537332D01*
X107960171Y-181580593D01*
X107956102Y-181626637D01*
X107953931Y-181727569D01*
X106938408Y-181727569D01*
X106955128Y-180609157D01*
X106966698Y-180009433D01*
X107872351Y-180009433D01*
X111223740Y-179974155D01*
X114575129Y-179938884D01*
X114610405Y-178527766D01*
X114647337Y-177466127D01*
X114747108Y-175617352D01*
X115069018Y-170590266D01*
X115073953Y-170519717D01*
X116339018Y-170519717D01*
X116346873Y-171498880D01*
X116361808Y-171912574D01*
X116388628Y-172287460D01*
X116430744Y-172632374D01*
X116491568Y-172956152D01*
X116574508Y-173267631D01*
X116682977Y-173575649D01*
X116820385Y-173889040D01*
X116990142Y-174216643D01*
X117195659Y-174567293D01*
X117440347Y-174949828D01*
X117727617Y-175373083D01*
X118060878Y-175845897D01*
X118879019Y-176975543D01*
X119126997Y-177337485D01*
X119230393Y-177526750D01*
X119321645Y-177734567D01*
X119401941Y-177970702D01*
X119472471Y-178244923D01*
X119534422Y-178566997D01*
X119588983Y-178946690D01*
X119680691Y-179918001D01*
X119757103Y-181236991D01*
X119827727Y-182981795D01*
X119902071Y-185230548D01*
X119958365Y-187006631D01*
X120021686Y-188531774D01*
X120092449Y-189816312D01*
X120130750Y-190371584D01*
X120171066Y-190870580D01*
X120213450Y-191314592D01*
X120257952Y-191704913D01*
X120304624Y-192042834D01*
X120353519Y-192329647D01*
X120404687Y-192566644D01*
X120458181Y-192755117D01*
X120514052Y-192896357D01*
X120542895Y-192949668D01*
X120572352Y-192991656D01*
X120637852Y-193061550D01*
X120716013Y-193125810D01*
X120807920Y-193184593D01*
X120914657Y-193238052D01*
X121037312Y-193286344D01*
X121176967Y-193329623D01*
X121334710Y-193368045D01*
X121511624Y-193401763D01*
X121708795Y-193430934D01*
X121927309Y-193455713D01*
X122168250Y-193476254D01*
X122432704Y-193492712D01*
X123036491Y-193514003D01*
X123747351Y-193520824D01*
X124196885Y-193519850D01*
X124595258Y-193516345D01*
X124945883Y-193509429D01*
X125252169Y-193498224D01*
X125389751Y-193490738D01*
X125517528Y-193481851D01*
X125635925Y-193471452D01*
X125745369Y-193459432D01*
X125846287Y-193445681D01*
X125939104Y-193430088D01*
X126024248Y-193412545D01*
X126102143Y-193392942D01*
X126173218Y-193371168D01*
X126237897Y-193347113D01*
X126296608Y-193320669D01*
X126349777Y-193291725D01*
X126397829Y-193260171D01*
X126441192Y-193225898D01*
X126480292Y-193188796D01*
X126515555Y-193148754D01*
X126547406Y-193105664D01*
X126576274Y-193059414D01*
X126602584Y-193009897D01*
X126626762Y-192957001D01*
X126649235Y-192900617D01*
X126670429Y-192840635D01*
X126710684Y-192709437D01*
X126750166Y-192426595D01*
X126788406Y-191915137D01*
X126856205Y-190323777D01*
X126904161Y-188170179D01*
X126922350Y-185689159D01*
X126927587Y-184100693D01*
X126944399Y-182764409D01*
X126957663Y-182185925D01*
X126974441Y-181664596D01*
X126994939Y-181198457D01*
X127019365Y-180785545D01*
X127047925Y-180423895D01*
X127080826Y-180111546D01*
X127118275Y-179846532D01*
X127160477Y-179626890D01*
X127183426Y-179533470D01*
X127207641Y-179450656D01*
X127233148Y-179378204D01*
X127259972Y-179315867D01*
X127288141Y-179263401D01*
X127317678Y-179220559D01*
X127348611Y-179187097D01*
X127380965Y-179162769D01*
X127457205Y-179136336D01*
X127603931Y-179110058D01*
X128093134Y-179058588D01*
X128817155Y-179009599D01*
X129744575Y-178964331D01*
X132083931Y-178889916D01*
X134859850Y-178845264D01*
X136345926Y-178824044D01*
X137865076Y-178787941D01*
X139374303Y-178738608D01*
X140830615Y-178677699D01*
X142191014Y-178606868D01*
X143412507Y-178527770D01*
X144452099Y-178442056D01*
X145266795Y-178351382D01*
X146620028Y-178170030D01*
X147837664Y-178011829D01*
X148784101Y-177899930D01*
X149113244Y-177868579D01*
X149323737Y-177857486D01*
X149413752Y-177856211D01*
X149498568Y-177858857D01*
X149578151Y-177865210D01*
X149652470Y-177875058D01*
X149721492Y-177888188D01*
X149785184Y-177904385D01*
X149843516Y-177923438D01*
X149896453Y-177945132D01*
X149943964Y-177969256D01*
X149986017Y-177995595D01*
X150022579Y-178023936D01*
X150053619Y-178054067D01*
X150079103Y-178085774D01*
X150099000Y-178118844D01*
X150113276Y-178153063D01*
X150121901Y-178188219D01*
X150124841Y-178224099D01*
X150122065Y-178260489D01*
X150113539Y-178297176D01*
X150099233Y-178333947D01*
X150079112Y-178370589D01*
X150053146Y-178406888D01*
X150021302Y-178442632D01*
X149983547Y-178477607D01*
X149939850Y-178511601D01*
X149890177Y-178544399D01*
X149834497Y-178575789D01*
X149772778Y-178605559D01*
X149704986Y-178633493D01*
X149631091Y-178659380D01*
X149551059Y-178683006D01*
X149464858Y-178704158D01*
X149327871Y-178737593D01*
X149207370Y-178774852D01*
X149102475Y-178820586D01*
X149012307Y-178879445D01*
X148935989Y-178956081D01*
X148872642Y-179055145D01*
X148821388Y-179181287D01*
X148781347Y-179339158D01*
X148751641Y-179533410D01*
X148731393Y-179768693D01*
X148719722Y-180049657D01*
X148715752Y-180380955D01*
X148727397Y-181213153D01*
X148759299Y-182302493D01*
X148789417Y-183345142D01*
X148826614Y-184341644D01*
X148870531Y-185289673D01*
X148920803Y-186186905D01*
X148977070Y-187031013D01*
X149038970Y-187819672D01*
X149106141Y-188550557D01*
X149178221Y-189221342D01*
X149254849Y-189829703D01*
X149335663Y-190373312D01*
X149420301Y-190849846D01*
X149508401Y-191256978D01*
X149599602Y-191592384D01*
X149693541Y-191853737D01*
X149741425Y-191955917D01*
X149789858Y-192038712D01*
X149838795Y-192101832D01*
X149888190Y-192144984D01*
X150022298Y-192207797D01*
X150208651Y-192263840D01*
X150440789Y-192312958D01*
X150712253Y-192354997D01*
X151016584Y-192389802D01*
X151347321Y-192417217D01*
X152062177Y-192449257D01*
X152805146Y-192449878D01*
X153171023Y-192438019D01*
X153524550Y-192417839D01*
X153859266Y-192389185D01*
X154168712Y-192351900D01*
X154446429Y-192305830D01*
X154685957Y-192250819D01*
X154892371Y-192176027D01*
X155075530Y-192065888D01*
X155236158Y-191913167D01*
X155374978Y-191710631D01*
X155492715Y-191451044D01*
X155590091Y-191127171D01*
X155667830Y-190731778D01*
X155726656Y-190257630D01*
X155767291Y-189697493D01*
X155790459Y-189044131D01*
X155787291Y-187428795D01*
X155722937Y-185353746D01*
X155603186Y-182761104D01*
X155523812Y-181012580D01*
X155470896Y-179508382D01*
X155444437Y-178224945D01*
X155444437Y-177138706D01*
X155454358Y-176662172D01*
X155470894Y-176226100D01*
X155494045Y-175827546D01*
X155523811Y-175463563D01*
X155560191Y-175131206D01*
X155603186Y-174827530D01*
X155652796Y-174549589D01*
X155709021Y-174294437D01*
X155801348Y-173890189D01*
X155892023Y-173428477D01*
X155979390Y-172924597D01*
X156061797Y-172393845D01*
X156137588Y-171851517D01*
X156205112Y-171312911D01*
X156262713Y-170793322D01*
X156308737Y-170308047D01*
X156338874Y-169957578D01*
X156362964Y-169645762D01*
X156380749Y-169370740D01*
X156387197Y-169246445D01*
X156391972Y-169130651D01*
X156395042Y-169023125D01*
X156396374Y-168923635D01*
X156395935Y-168831948D01*
X156393695Y-168747832D01*
X156389620Y-168671053D01*
X156383679Y-168601381D01*
X156375838Y-168538581D01*
X156366065Y-168482421D01*
X156354330Y-168432670D01*
X156340598Y-168389093D01*
X156324837Y-168351460D01*
X156316187Y-168334799D01*
X156307017Y-168319537D01*
X156297323Y-168305644D01*
X156287103Y-168293091D01*
X156276351Y-168281850D01*
X156265064Y-168271891D01*
X156253237Y-168263185D01*
X156240867Y-168255703D01*
X156227950Y-168249417D01*
X156214481Y-168244296D01*
X156200457Y-168240312D01*
X156185873Y-168237436D01*
X156155010Y-168234891D01*
X156121861Y-168236428D01*
X156086393Y-168241816D01*
X156048573Y-168250820D01*
X156008370Y-168263210D01*
X155965751Y-168278752D01*
X155920683Y-168297214D01*
X155488608Y-168453630D01*
X154952818Y-168617540D01*
X153608335Y-168961430D01*
X151963716Y-169316069D01*
X150095441Y-169668639D01*
X148079992Y-170006327D01*
X145993849Y-170316316D01*
X143913494Y-170585791D01*
X141915408Y-170801936D01*
X140258618Y-170944511D01*
X138659034Y-171054530D01*
X137112677Y-171131683D01*
X135615568Y-171175659D01*
X134163727Y-171186149D01*
X132753176Y-171162843D01*
X131379935Y-171105430D01*
X130040025Y-171013601D01*
X128729468Y-170887046D01*
X127444284Y-170725454D01*
X126180493Y-170528516D01*
X124934118Y-170295920D01*
X123701179Y-170027359D01*
X122477696Y-169722520D01*
X121259691Y-169381095D01*
X120043185Y-169002772D01*
X119539443Y-168841542D01*
X119042730Y-168678658D01*
X118124956Y-168367770D01*
X117731181Y-168229690D01*
X117399005Y-168109801D01*
X117142069Y-168013063D01*
X116974017Y-167944438D01*
X116873868Y-167910572D01*
X116784675Y-167890142D01*
X116705817Y-167885835D01*
X116636674Y-167900339D01*
X116605552Y-167915484D01*
X116576626Y-167936339D01*
X116549819Y-167963241D01*
X116525054Y-167996525D01*
X116481335Y-168083582D01*
X116444852Y-168200198D01*
X116414983Y-168349061D01*
X116391108Y-168532857D01*
X116372608Y-168754273D01*
X116358862Y-169015998D01*
X116343153Y-169671119D01*
X116339018Y-170519717D01*
X115073953Y-170519717D01*
X115136835Y-169620774D01*
X115194833Y-168746107D01*
X115243116Y-167961048D01*
X115281787Y-167260376D01*
X115310950Y-166638872D01*
X115330707Y-166091318D01*
X115341163Y-165612493D01*
X115342421Y-165197179D01*
X115334583Y-164840156D01*
X115333092Y-164813223D01*
X116738941Y-164813223D01*
X116742920Y-164981378D01*
X116762351Y-165369159D01*
X116868186Y-166850825D01*
X119831519Y-167838603D01*
X121466630Y-168350751D01*
X123010377Y-168780630D01*
X124500381Y-169135268D01*
X125974262Y-169421693D01*
X127469640Y-169646933D01*
X129024136Y-169818015D01*
X130675370Y-169941969D01*
X132460963Y-170025821D01*
X135266235Y-170055932D01*
X138108714Y-169988891D01*
X140962769Y-169826764D01*
X143802767Y-169571620D01*
X146603079Y-169225526D01*
X149338071Y-168790548D01*
X151982113Y-168268754D01*
X154509573Y-167662212D01*
X156202910Y-167238879D01*
X156379294Y-155244437D01*
X156430001Y-152496424D01*
X158193591Y-152496424D01*
X158196343Y-152564254D01*
X158202350Y-152633479D01*
X158211535Y-152704435D01*
X158239130Y-152852884D01*
X158278507Y-153012289D01*
X158329047Y-153185336D01*
X158390128Y-153374713D01*
X158667942Y-154216969D01*
X158719825Y-154370689D01*
X158762201Y-154490922D01*
X158793828Y-154572296D01*
X158805224Y-154596731D01*
X158813468Y-154609435D01*
X158829839Y-154612390D01*
X158865073Y-154608264D01*
X158988198Y-154580221D01*
X159174990Y-154528200D01*
X159417592Y-154455095D01*
X160038811Y-154257210D01*
X160789015Y-154009715D01*
X161002241Y-153930375D01*
X161204977Y-153851241D01*
X161396654Y-153772520D01*
X161576704Y-153694420D01*
X161744558Y-153617146D01*
X161899648Y-153540906D01*
X162041405Y-153465906D01*
X162169261Y-153392352D01*
X162227799Y-153356183D01*
X162282648Y-153320453D01*
X162333738Y-153285188D01*
X162380997Y-153250414D01*
X162424354Y-153216156D01*
X162463739Y-153182442D01*
X162499080Y-153149295D01*
X162530307Y-153116744D01*
X162557347Y-153084812D01*
X162580130Y-153053526D01*
X162598586Y-153022912D01*
X162612642Y-152992996D01*
X162622229Y-152963803D01*
X162627274Y-152935360D01*
X162627708Y-152907691D01*
X162623457Y-152880824D01*
X161776793Y-150129157D01*
X161612092Y-149622926D01*
X161461292Y-149174934D01*
X161323411Y-148783890D01*
X161197467Y-148448501D01*
X161082478Y-148167476D01*
X161028786Y-148046946D01*
X160977464Y-147939523D01*
X160928389Y-147845044D01*
X160881440Y-147763350D01*
X160836494Y-147694277D01*
X160793427Y-147637664D01*
X160752117Y-147593351D01*
X160712441Y-147561174D01*
X160674277Y-147540975D01*
X160655724Y-147535315D01*
X160637502Y-147532589D01*
X160619597Y-147532776D01*
X160601993Y-147535857D01*
X160584675Y-147541810D01*
X160567627Y-147550616D01*
X160534281Y-147576705D01*
X160501834Y-147613963D01*
X160470161Y-147662228D01*
X160439141Y-147721338D01*
X160408651Y-147791133D01*
X160378568Y-147871450D01*
X160348768Y-147962128D01*
X160319130Y-148063006D01*
X160259848Y-148294715D01*
X160234742Y-148413148D01*
X160199559Y-148542692D01*
X160154971Y-148682055D01*
X160101649Y-148829944D01*
X160040267Y-148985067D01*
X159971494Y-149146134D01*
X159896004Y-149311851D01*
X159814468Y-149480928D01*
X159727557Y-149652071D01*
X159635944Y-149823990D01*
X159540300Y-149995392D01*
X159441297Y-150164985D01*
X159339607Y-150331478D01*
X159235901Y-150493578D01*
X159130851Y-150649994D01*
X159025130Y-150799434D01*
X158862969Y-151026018D01*
X158720032Y-151231311D01*
X158595699Y-151418001D01*
X158489349Y-151588774D01*
X158400362Y-151746319D01*
X158362186Y-151820970D01*
X158328119Y-151893321D01*
X158298082Y-151963709D01*
X158271998Y-152032469D01*
X158249790Y-152099936D01*
X158231380Y-152166448D01*
X158216691Y-152232340D01*
X158205645Y-152297948D01*
X158198165Y-152363607D01*
X158194173Y-152429654D01*
X158193591Y-152496424D01*
X156430001Y-152496424D01*
X156469695Y-150345237D01*
X156484279Y-149715330D01*
X157775942Y-149715330D01*
X157793633Y-150230182D01*
X157825690Y-150446654D01*
X157856097Y-150463500D01*
X157894074Y-150455328D01*
X157939132Y-150423372D01*
X157990778Y-150368866D01*
X158111873Y-150197137D01*
X158253431Y-149950012D01*
X158411527Y-149637361D01*
X158582231Y-149269055D01*
X158945757Y-148404957D01*
X159312591Y-147436678D01*
X159651313Y-146443182D01*
X159930503Y-145503430D01*
X160037955Y-145078384D01*
X160118742Y-144696384D01*
X160199892Y-144250235D01*
X160258613Y-143774682D01*
X160295631Y-143274222D01*
X160311668Y-142753349D01*
X160307448Y-142216559D01*
X160283694Y-141668349D01*
X160241129Y-141113215D01*
X160180479Y-140555652D01*
X160102464Y-140000156D01*
X160007810Y-139451222D01*
X159897240Y-138913348D01*
X159771477Y-138391028D01*
X159631244Y-137888759D01*
X159477266Y-137411037D01*
X159310265Y-136962356D01*
X159130965Y-136547214D01*
X159070685Y-136422889D01*
X159009216Y-136301717D01*
X158947023Y-136184368D01*
X158884572Y-136071515D01*
X158822328Y-135963830D01*
X158760755Y-135861985D01*
X158700319Y-135766650D01*
X158641486Y-135678499D01*
X158584719Y-135598202D01*
X158530484Y-135526432D01*
X158479247Y-135463861D01*
X158431473Y-135411159D01*
X158409029Y-135388720D01*
X158387625Y-135369000D01*
X158367320Y-135352083D01*
X158348171Y-135338054D01*
X158330236Y-135326997D01*
X158313574Y-135318994D01*
X158298243Y-135314131D01*
X158284300Y-135312492D01*
X158241942Y-135479355D01*
X158195140Y-135951212D01*
X158093578Y-137637517D01*
X157896243Y-142773739D01*
X157778283Y-147962879D01*
X157775942Y-149715330D01*
X156484279Y-149715330D01*
X156573325Y-145869368D01*
X156676955Y-142306310D01*
X156767355Y-140145541D01*
X156785546Y-139832030D01*
X156800429Y-139527562D01*
X156812004Y-139233739D01*
X156820272Y-138952163D01*
X156825232Y-138684437D01*
X156826886Y-138432162D01*
X156825231Y-138196939D01*
X156820270Y-137980373D01*
X156812001Y-137784063D01*
X156800426Y-137609612D01*
X156785542Y-137458622D01*
X156767352Y-137332696D01*
X156745855Y-137233434D01*
X156733866Y-137194303D01*
X156721050Y-137162440D01*
X156707408Y-137138043D01*
X156692939Y-137121314D01*
X156677643Y-137112453D01*
X156661520Y-137111659D01*
X156004470Y-137283634D01*
X155436166Y-137444040D01*
X155119561Y-137538506D01*
X154791792Y-137640826D01*
X154358400Y-137758992D01*
X153738973Y-137898242D01*
X152962449Y-138053202D01*
X152057768Y-138218498D01*
X149979688Y-138558598D01*
X148864167Y-138722654D01*
X147736243Y-138875549D01*
X146087282Y-139087834D01*
X144625184Y-139250924D01*
X143258996Y-139368539D01*
X141897770Y-139444401D01*
X140450554Y-139482228D01*
X138826398Y-139485743D01*
X136934351Y-139458665D01*
X134683463Y-139404716D01*
X131624768Y-139293916D01*
X128893496Y-139179813D01*
X126790611Y-139072327D01*
X126068864Y-139024166D01*
X125617075Y-138981380D01*
X124100127Y-138769710D01*
X124382353Y-139933883D01*
X124433409Y-140232365D01*
X124479917Y-140615184D01*
X124520638Y-141067455D01*
X124554330Y-141574296D01*
X124579755Y-142120825D01*
X124595672Y-142692158D01*
X124600840Y-143273413D01*
X124594019Y-143849708D01*
X124591797Y-144262146D01*
X124584511Y-144642287D01*
X124571230Y-144994212D01*
X124551024Y-145322004D01*
X124522964Y-145629746D01*
X124486118Y-145921520D01*
X124439557Y-146201409D01*
X124382351Y-146473494D01*
X124313570Y-146741858D01*
X124232283Y-147010585D01*
X124137559Y-147283755D01*
X124028470Y-147565452D01*
X123904085Y-147859759D01*
X123763473Y-148170757D01*
X123605705Y-148502529D01*
X123429850Y-148859157D01*
X123213722Y-149269519D01*
X122977441Y-149678125D01*
X122724003Y-150081563D01*
X122456405Y-150476422D01*
X122177645Y-150859293D01*
X121890721Y-151226764D01*
X121598628Y-151575425D01*
X121304366Y-151901865D01*
X121010930Y-152202673D01*
X120721318Y-152474440D01*
X120438528Y-152713753D01*
X120165556Y-152917203D01*
X120033688Y-153004414D01*
X119905400Y-153081379D01*
X119781064Y-153147674D01*
X119661057Y-153202871D01*
X119545752Y-153246544D01*
X119435524Y-153278267D01*
X119330748Y-153297613D01*
X119231799Y-153304156D01*
X119136553Y-153318159D01*
X119042818Y-153359123D01*
X118950866Y-153425486D01*
X118860968Y-153515685D01*
X118773396Y-153628157D01*
X118688421Y-153761338D01*
X118527345Y-154083575D01*
X118379912Y-154469891D01*
X118248292Y-154907780D01*
X118134655Y-155384737D01*
X118041173Y-155888255D01*
X117970014Y-156405829D01*
X117923350Y-156924953D01*
X117903351Y-157433122D01*
X117912187Y-157917830D01*
X117952029Y-158366571D01*
X118025048Y-158766840D01*
X118074677Y-158944889D01*
X118133413Y-159106130D01*
X118201529Y-159249000D01*
X118279295Y-159371936D01*
X118370174Y-159518354D01*
X118451111Y-159672633D01*
X118522294Y-159833953D01*
X118583911Y-160001493D01*
X118636148Y-160174434D01*
X118679194Y-160351954D01*
X118713235Y-160533234D01*
X118738458Y-160717453D01*
X118755052Y-160903791D01*
X118763203Y-161091427D01*
X118763098Y-161279541D01*
X118754926Y-161467312D01*
X118738873Y-161653921D01*
X118715126Y-161838547D01*
X118683874Y-162020370D01*
X118645303Y-162198569D01*
X118599600Y-162372323D01*
X118546954Y-162540813D01*
X118487551Y-162703218D01*
X118421578Y-162858718D01*
X118349223Y-163006492D01*
X118270674Y-163145720D01*
X118186117Y-163275582D01*
X118095741Y-163395257D01*
X117999731Y-163503925D01*
X117898276Y-163600766D01*
X117791563Y-163684958D01*
X117679779Y-163755683D01*
X117563112Y-163812119D01*
X117441749Y-163853446D01*
X117315876Y-163878844D01*
X117185683Y-163887492D01*
X117110390Y-163891730D01*
X117043056Y-163904855D01*
X116983370Y-163927490D01*
X116956298Y-163942566D01*
X116931022Y-163960252D01*
X116907503Y-163980626D01*
X116885702Y-164003764D01*
X116865580Y-164029744D01*
X116847099Y-164058644D01*
X116814905Y-164125513D01*
X116788808Y-164204991D01*
X116768500Y-164297699D01*
X116753668Y-164404256D01*
X116744005Y-164525282D01*
X116739199Y-164661398D01*
X116738941Y-164813223D01*
X115333092Y-164813223D01*
X115317754Y-164536204D01*
X115306000Y-164402499D01*
X115292036Y-164280105D01*
X115275877Y-164168369D01*
X115257534Y-164066638D01*
X115237021Y-163974262D01*
X115214350Y-163890586D01*
X115189535Y-163814959D01*
X115162587Y-163746728D01*
X115133522Y-163685240D01*
X115102350Y-163629844D01*
X115069086Y-163579887D01*
X115033741Y-163534717D01*
X114962585Y-163469827D01*
X114869221Y-163407515D01*
X114755211Y-163347877D01*
X114622121Y-163291010D01*
X114304948Y-163185977D01*
X113930208Y-163093191D01*
X113510405Y-163013428D01*
X113058047Y-162947463D01*
X112585638Y-162896071D01*
X112105685Y-162860026D01*
X111630692Y-162840105D01*
X111173166Y-162837081D01*
X110745612Y-162851731D01*
X110360537Y-162884830D01*
X110030445Y-162937152D01*
X109889926Y-162970764D01*
X109767842Y-163009473D01*
X109665757Y-163053375D01*
X109585234Y-163102568D01*
X109527837Y-163157148D01*
X109495127Y-163217212D01*
X109397494Y-163696494D01*
X109269681Y-164597457D01*
X108961552Y-167300617D01*
X108646809Y-170599090D01*
X108401518Y-173765269D01*
X108311670Y-175062831D01*
X108211901Y-176367005D01*
X108048739Y-178386653D01*
X107872351Y-180009433D01*
X106966698Y-180009433D01*
X106992680Y-178662679D01*
X107050488Y-176712067D01*
X107125660Y-174796181D01*
X107215302Y-172953881D01*
X107316519Y-171224030D01*
X107426418Y-169645486D01*
X107542104Y-168257111D01*
X107660685Y-167097766D01*
X108260405Y-162370547D01*
X107060963Y-161100543D01*
X106352582Y-160303883D01*
X106337101Y-160283769D01*
X108989301Y-160283769D01*
X109001242Y-160465549D01*
X109107073Y-161559158D01*
X111117907Y-161453323D01*
X111384325Y-161443418D01*
X111641906Y-161440231D01*
X111891736Y-161443866D01*
X112134900Y-161454425D01*
X112372483Y-161472012D01*
X112605569Y-161496731D01*
X112835245Y-161528684D01*
X113062596Y-161567976D01*
X113288706Y-161614709D01*
X113514661Y-161668986D01*
X113741546Y-161730912D01*
X113970447Y-161800589D01*
X114202448Y-161878121D01*
X114438635Y-161963610D01*
X114680093Y-162057162D01*
X114927907Y-162158878D01*
X115245510Y-162295339D01*
X115525699Y-162413816D01*
X115771576Y-162514517D01*
X115882615Y-162558265D01*
X115986239Y-162597647D01*
X116082836Y-162632689D01*
X116172791Y-162663415D01*
X116256494Y-162689852D01*
X116334332Y-162712025D01*
X116406692Y-162729961D01*
X116473962Y-162743686D01*
X116536529Y-162753225D01*
X116594781Y-162758603D01*
X116649106Y-162759848D01*
X116699891Y-162756984D01*
X116747524Y-162750038D01*
X116792392Y-162739035D01*
X116834883Y-162724002D01*
X116875384Y-162704963D01*
X116914284Y-162681945D01*
X116951969Y-162654975D01*
X116988827Y-162624076D01*
X117025246Y-162589276D01*
X117061613Y-162550601D01*
X117098316Y-162508075D01*
X117135743Y-162461726D01*
X117174281Y-162411578D01*
X117256239Y-162299991D01*
X117308295Y-162231890D01*
X117358490Y-162160327D01*
X117406618Y-162085974D01*
X117452472Y-162009502D01*
X117495846Y-161931582D01*
X117536533Y-161852888D01*
X117574325Y-161774090D01*
X117609017Y-161695861D01*
X117640402Y-161618871D01*
X117668273Y-161543794D01*
X117692423Y-161471301D01*
X117712646Y-161402063D01*
X117728734Y-161336753D01*
X117740482Y-161276041D01*
X117747682Y-161220601D01*
X117750128Y-161171104D01*
X117745530Y-161093531D01*
X117731947Y-161013129D01*
X117709695Y-160930168D01*
X117679090Y-160844922D01*
X117640450Y-160757659D01*
X117594091Y-160668653D01*
X117479481Y-160486493D01*
X117337793Y-160300613D01*
X117171559Y-160113182D01*
X116983310Y-159926372D01*
X116775579Y-159742352D01*
X116550899Y-159563293D01*
X116311800Y-159391365D01*
X116060817Y-159228739D01*
X115800480Y-159077585D01*
X115533321Y-158940073D01*
X115261874Y-158818375D01*
X114988670Y-158714660D01*
X114716240Y-158631099D01*
X114398175Y-158546952D01*
X114085814Y-158473029D01*
X113779486Y-158409223D01*
X113479520Y-158355423D01*
X113186247Y-158311518D01*
X112899995Y-158277400D01*
X112621094Y-158252958D01*
X112349873Y-158238083D01*
X112086663Y-158232665D01*
X111831791Y-158236593D01*
X111585589Y-158249759D01*
X111348384Y-158272052D01*
X111120507Y-158303363D01*
X110902287Y-158343581D01*
X110694054Y-158392597D01*
X110496136Y-158450302D01*
X110308864Y-158516585D01*
X110132567Y-158591336D01*
X109967574Y-158674446D01*
X109814214Y-158765804D01*
X109672818Y-158865302D01*
X109543714Y-158972829D01*
X109427232Y-159088276D01*
X109323702Y-159211532D01*
X109233452Y-159342487D01*
X109156813Y-159481033D01*
X109094113Y-159627059D01*
X109045683Y-159780456D01*
X109011851Y-159941113D01*
X108992948Y-160108920D01*
X108989301Y-160283769D01*
X106337101Y-160283769D01*
X105696705Y-159451722D01*
X105094571Y-158548918D01*
X104547421Y-157600329D01*
X104056495Y-156610812D01*
X103623033Y-155585224D01*
X103248275Y-154528424D01*
X102933462Y-153445268D01*
X102679835Y-152340615D01*
X102488632Y-151219323D01*
X102361094Y-150086247D01*
X102298463Y-148946248D01*
X102301965Y-147807988D01*
X103680909Y-147807988D01*
X103696343Y-148780951D01*
X103744851Y-149741100D01*
X103785830Y-150360623D01*
X103842829Y-150963351D01*
X103916158Y-151550680D01*
X104006126Y-152124004D01*
X104113045Y-152684720D01*
X104237223Y-153234222D01*
X104378972Y-153773905D01*
X104538600Y-154305165D01*
X104716419Y-154829396D01*
X104912738Y-155347995D01*
X105127867Y-155862357D01*
X105362117Y-156373876D01*
X105615796Y-156883949D01*
X105889216Y-157393969D01*
X106182687Y-157905334D01*
X106496518Y-158419437D01*
X107590130Y-160148044D01*
X108048739Y-159054439D01*
X108097427Y-158941706D01*
X108150508Y-158828921D01*
X108207412Y-158716860D01*
X108267572Y-158606298D01*
X108330420Y-158498010D01*
X108395386Y-158392771D01*
X108461902Y-158291356D01*
X108529400Y-158194540D01*
X108597312Y-158103099D01*
X108665068Y-158017807D01*
X108732101Y-157939439D01*
X108797842Y-157868771D01*
X108861723Y-157806579D01*
X108923175Y-157753635D01*
X108952812Y-157730875D01*
X108981630Y-157710717D01*
X109009555Y-157693260D01*
X109036519Y-157678600D01*
X109093888Y-157616399D01*
X109159784Y-157510067D01*
X109314882Y-157170381D01*
X109361118Y-157043601D01*
X110976796Y-157043601D01*
X112952351Y-157114158D01*
X113365694Y-157133794D01*
X113778623Y-157165419D01*
X114180803Y-157207794D01*
X114561900Y-157259677D01*
X114741312Y-157288797D01*
X114911577Y-157319829D01*
X115071403Y-157352618D01*
X115219499Y-157387008D01*
X115354572Y-157422846D01*
X115475331Y-157459976D01*
X115580484Y-157498242D01*
X115668738Y-157537490D01*
X115960400Y-157697343D01*
X116079489Y-157755771D01*
X116183023Y-157797664D01*
X116229490Y-157811892D01*
X116272708Y-157821366D01*
X116312889Y-157825879D01*
X116350248Y-157825224D01*
X116384998Y-157819196D01*
X116417350Y-157807586D01*
X116447520Y-157790188D01*
X116475719Y-157766796D01*
X116502161Y-157737203D01*
X116527060Y-157701201D01*
X116550627Y-157658586D01*
X116573078Y-157609148D01*
X116615478Y-157488984D01*
X116655967Y-157339053D01*
X116696249Y-157157704D01*
X116738029Y-156943281D01*
X116832907Y-156408603D01*
X116868814Y-156207004D01*
X116896917Y-156024474D01*
X116907929Y-155939859D01*
X116916855Y-155859411D01*
X116923650Y-155782928D01*
X116928267Y-155710212D01*
X116930663Y-155641061D01*
X116930791Y-155575276D01*
X116928607Y-155512656D01*
X116924065Y-155453001D01*
X116917120Y-155396110D01*
X116907726Y-155341784D01*
X116895840Y-155289822D01*
X116881414Y-155240024D01*
X116864405Y-155192190D01*
X116844767Y-155146119D01*
X116822455Y-155101612D01*
X116797423Y-155058467D01*
X116769627Y-155016485D01*
X116739020Y-154975466D01*
X116705558Y-154935209D01*
X116669196Y-154895514D01*
X116629889Y-154856180D01*
X116587591Y-154817008D01*
X116542256Y-154777797D01*
X116493841Y-154738347D01*
X116387585Y-154657930D01*
X116268462Y-154574153D01*
X116173196Y-154520480D01*
X116060309Y-154465566D01*
X115931196Y-154409825D01*
X115787251Y-154353671D01*
X115460449Y-154241775D01*
X115091066Y-154133186D01*
X114690264Y-154031211D01*
X114269205Y-153939158D01*
X113839051Y-153860333D01*
X113410964Y-153798045D01*
X113080260Y-153761339D01*
X112787745Y-153730936D01*
X112531094Y-153707355D01*
X112307981Y-153691111D01*
X112208274Y-153685903D01*
X112116080Y-153682723D01*
X112031108Y-153681636D01*
X111953066Y-153682706D01*
X111881666Y-153685998D01*
X111816615Y-153691577D01*
X111757623Y-153699507D01*
X111704399Y-153709853D01*
X111656653Y-153722679D01*
X111614094Y-153738051D01*
X111576432Y-153756032D01*
X111543375Y-153776687D01*
X111514633Y-153800081D01*
X111489916Y-153826279D01*
X111468932Y-153855345D01*
X111451391Y-153887343D01*
X111437002Y-153922339D01*
X111425475Y-153960396D01*
X111416519Y-154001580D01*
X111409843Y-154045955D01*
X111405157Y-154093585D01*
X111402169Y-154144536D01*
X111400128Y-154256656D01*
X111395374Y-154420712D01*
X111381938Y-154616600D01*
X111361061Y-154836466D01*
X111333983Y-155072455D01*
X111301944Y-155316712D01*
X111266184Y-155561383D01*
X111227943Y-155798612D01*
X111188462Y-156020545D01*
X110976796Y-157043601D01*
X109361118Y-157043601D01*
X109497265Y-156670291D01*
X109702386Y-156020547D01*
X109925697Y-155231895D01*
X110162651Y-154315086D01*
X110408700Y-153280869D01*
X110659296Y-152139991D01*
X110664190Y-152117792D01*
X111892452Y-152117792D01*
X111895120Y-152159283D01*
X111901611Y-152198449D01*
X111912121Y-152235411D01*
X111926842Y-152270294D01*
X111945969Y-152303220D01*
X111969695Y-152334311D01*
X111998214Y-152363690D01*
X112031720Y-152391480D01*
X112070406Y-152417804D01*
X112114467Y-152442784D01*
X112164095Y-152466543D01*
X112280832Y-152510890D01*
X112422167Y-152551827D01*
X112589651Y-152590334D01*
X112784833Y-152627394D01*
X113009264Y-152663989D01*
X113552073Y-152739711D01*
X113943849Y-152800483D01*
X114344721Y-152875311D01*
X114743939Y-152961715D01*
X115130754Y-153057213D01*
X115494418Y-153159327D01*
X115664210Y-153212088D01*
X115824183Y-153265574D01*
X115972994Y-153319472D01*
X116109299Y-153373474D01*
X116231755Y-153427270D01*
X116339018Y-153480548D01*
X116655278Y-153641088D01*
X116785037Y-153701153D01*
X116897950Y-153746232D01*
X116948574Y-153762796D01*
X116995567Y-153775187D01*
X117039124Y-153783264D01*
X117079438Y-153786883D01*
X117116703Y-153785903D01*
X117151113Y-153780182D01*
X117182862Y-153769578D01*
X117212143Y-153753948D01*
X117239150Y-153733150D01*
X117264078Y-153707043D01*
X117287119Y-153675484D01*
X117308468Y-153638331D01*
X117328318Y-153595441D01*
X117346863Y-153546674D01*
X117364298Y-153491886D01*
X117380815Y-153430936D01*
X117411872Y-153289981D01*
X117441586Y-153122670D01*
X117503184Y-152704436D01*
X117548082Y-152425142D01*
X117576289Y-152168379D01*
X117583826Y-152047995D01*
X117586823Y-151932700D01*
X117585155Y-151822315D01*
X117578701Y-151716658D01*
X117567337Y-151615549D01*
X117550942Y-151518806D01*
X117529392Y-151426249D01*
X117502564Y-151337697D01*
X117470337Y-151252969D01*
X117432586Y-151171885D01*
X117389190Y-151094262D01*
X117340025Y-151019921D01*
X117284969Y-150948681D01*
X117223899Y-150880361D01*
X117156693Y-150814779D01*
X117083227Y-150751755D01*
X117003380Y-150691108D01*
X116917027Y-150632658D01*
X116824047Y-150576223D01*
X116724317Y-150521623D01*
X116617714Y-150468676D01*
X116504115Y-150417202D01*
X116255439Y-150317949D01*
X115977307Y-150222416D01*
X115668738Y-150129157D01*
X115313678Y-150036975D01*
X114976343Y-149958900D01*
X114657095Y-149894985D01*
X114356295Y-149845281D01*
X114212926Y-149825774D01*
X114074306Y-149809840D01*
X113940478Y-149797484D01*
X113811488Y-149788713D01*
X113687382Y-149783533D01*
X113568204Y-149781952D01*
X113454001Y-149783975D01*
X113344816Y-149789609D01*
X113240696Y-149798860D01*
X113141685Y-149811735D01*
X113047829Y-149828240D01*
X112959172Y-149848382D01*
X112875761Y-149872167D01*
X112797641Y-149899602D01*
X112724855Y-149930693D01*
X112657451Y-149965447D01*
X112595473Y-150003869D01*
X112538966Y-150045967D01*
X112487975Y-150091747D01*
X112442546Y-150141215D01*
X112402724Y-150194378D01*
X112368554Y-150251243D01*
X112340081Y-150311815D01*
X112317351Y-150376102D01*
X112286276Y-150520589D01*
X112247347Y-150685334D01*
X112154191Y-151050789D01*
X111964573Y-151751933D01*
X111929692Y-151871160D01*
X111905455Y-151978139D01*
X111893414Y-152073853D01*
X111892452Y-152117792D01*
X110664190Y-152117792D01*
X111116254Y-150066870D01*
X111481718Y-148435825D01*
X112811240Y-148435825D01*
X112812368Y-148452153D01*
X112815718Y-148468062D01*
X112821239Y-148483544D01*
X112828879Y-148498594D01*
X112838585Y-148513204D01*
X112850307Y-148527369D01*
X112879591Y-148554336D01*
X112916315Y-148579442D01*
X112960068Y-148602636D01*
X113010435Y-148623866D01*
X113067004Y-148643081D01*
X113129360Y-148660229D01*
X113197091Y-148675259D01*
X113269782Y-148688118D01*
X113347021Y-148698755D01*
X113428394Y-148707118D01*
X113513488Y-148713155D01*
X113601889Y-148716816D01*
X113693184Y-148718047D01*
X113786814Y-148720898D01*
X113894861Y-148729278D01*
X114149040Y-148761593D01*
X114445387Y-148812925D01*
X114773567Y-148881207D01*
X115123243Y-148964371D01*
X115484082Y-149060351D01*
X115845748Y-149167079D01*
X116197905Y-149282489D01*
X116524018Y-149384602D01*
X116835662Y-149477620D01*
X117124982Y-149559063D01*
X117384122Y-149626449D01*
X117499921Y-149654096D01*
X117605229Y-149677299D01*
X117699064Y-149695748D01*
X117780446Y-149709132D01*
X117848392Y-149717142D01*
X117901920Y-149719468D01*
X117922970Y-149718402D01*
X117940048Y-149715799D01*
X117953030Y-149711619D01*
X117961794Y-149705825D01*
X117976221Y-149670943D01*
X117992870Y-149607019D01*
X118031800Y-149398246D01*
X118076518Y-149091908D01*
X118124956Y-148700407D01*
X118175048Y-148236146D01*
X118224727Y-147711526D01*
X118271924Y-147138951D01*
X118314574Y-146530822D01*
X118350885Y-146047260D01*
X118380168Y-145612430D01*
X118402010Y-145222143D01*
X118415997Y-144872216D01*
X118421716Y-144558463D01*
X118418753Y-144276697D01*
X118406695Y-144022733D01*
X118385129Y-143792385D01*
X118370650Y-143684759D01*
X118353640Y-143581467D01*
X118334046Y-143481987D01*
X118311817Y-143385794D01*
X118286900Y-143292366D01*
X118259245Y-143201180D01*
X118228799Y-143111712D01*
X118195511Y-143023438D01*
X118120201Y-142848384D01*
X118032902Y-142671832D01*
X117933201Y-142489595D01*
X117820685Y-142297488D01*
X117734986Y-142165666D01*
X117643590Y-142035006D01*
X117547000Y-141905845D01*
X117445721Y-141778518D01*
X117340256Y-141653362D01*
X117231109Y-141530712D01*
X117003785Y-141294275D01*
X116767778Y-141071894D01*
X116527121Y-140866256D01*
X116285844Y-140680048D01*
X116047977Y-140515958D01*
X115817552Y-140376673D01*
X115706389Y-140317171D01*
X115598599Y-140264879D01*
X115494684Y-140220132D01*
X115395148Y-140183265D01*
X115300496Y-140154614D01*
X115211232Y-140134516D01*
X115127858Y-140123307D01*
X115050879Y-140121322D01*
X114980799Y-140128896D01*
X114918122Y-140146367D01*
X114863352Y-140174070D01*
X114816991Y-140212341D01*
X114779545Y-140261515D01*
X114751517Y-140321929D01*
X114607374Y-140839867D01*
X114359052Y-141812970D01*
X113702003Y-144497943D01*
X113084643Y-147123382D01*
X112885929Y-148022069D01*
X112811240Y-148435825D01*
X111481718Y-148435825D01*
X111510373Y-148307942D01*
X111805273Y-147045109D01*
X111904147Y-146656572D01*
X111964573Y-146460273D01*
X111982686Y-146396151D01*
X111983797Y-146335905D01*
X111977832Y-146307154D01*
X111967441Y-146279276D01*
X111933154Y-146226006D01*
X111880470Y-146175836D01*
X111808924Y-146128509D01*
X111718051Y-146083766D01*
X111607386Y-146041348D01*
X111476463Y-146000997D01*
X111324819Y-145962455D01*
X111151987Y-145925463D01*
X110957503Y-145889763D01*
X110501716Y-145821205D01*
X109953740Y-145754714D01*
X109478592Y-145689187D01*
X108963757Y-145600922D01*
X108425771Y-145493642D01*
X107881171Y-145371065D01*
X107346492Y-145236914D01*
X106838271Y-145094907D01*
X106373046Y-144948766D01*
X105967352Y-144802211D01*
X105263450Y-144548653D01*
X104675302Y-144334782D01*
X104265749Y-144187056D01*
X104147582Y-144146266D01*
X104113588Y-144135586D01*
X104097628Y-144131934D01*
X104068181Y-144140916D01*
X104039406Y-144167410D01*
X103984078Y-144270220D01*
X103932057Y-144434939D01*
X103883757Y-144656140D01*
X103799972Y-145246284D01*
X103736031Y-145997246D01*
X103695241Y-146865616D01*
X103680909Y-147807988D01*
X102301965Y-147807988D01*
X102301977Y-147804181D01*
X102372877Y-146664904D01*
X102512403Y-145533276D01*
X102721797Y-144414153D01*
X103035886Y-143159985D01*
X103141028Y-142819245D01*
X104500304Y-142819245D01*
X104503195Y-142915762D01*
X104521601Y-142989257D01*
X104556241Y-143038322D01*
X104713018Y-143159658D01*
X104915840Y-143284715D01*
X105160312Y-143412252D01*
X105442043Y-143541030D01*
X105756641Y-143669807D01*
X106099712Y-143797345D01*
X106853706Y-144043739D01*
X107668885Y-144270288D01*
X108510108Y-144467071D01*
X109342236Y-144624166D01*
X109743908Y-144684730D01*
X110130129Y-144731650D01*
X112317351Y-144908042D01*
X112917075Y-142438598D01*
X113029178Y-141923212D01*
X113125985Y-141417748D01*
X113205429Y-140935434D01*
X113237994Y-140707093D01*
X113265442Y-140489501D01*
X113287517Y-140284311D01*
X113303959Y-140093177D01*
X113314509Y-139917753D01*
X113318910Y-139759692D01*
X113316904Y-139620648D01*
X113308231Y-139502275D01*
X113292633Y-139406226D01*
X113282157Y-139367090D01*
X113269852Y-139334155D01*
X113240715Y-139240655D01*
X113220311Y-139158317D01*
X113209933Y-139086728D01*
X113208907Y-139054835D01*
X113210872Y-139025474D01*
X113215989Y-138998594D01*
X113224420Y-138974142D01*
X113236326Y-138952068D01*
X113251868Y-138932319D01*
X113271209Y-138914843D01*
X113294510Y-138899590D01*
X113321932Y-138886507D01*
X113353636Y-138875543D01*
X113430539Y-138859765D01*
X113526511Y-138851841D01*
X113642843Y-138851358D01*
X113780828Y-138857904D01*
X113941757Y-138871064D01*
X114126922Y-138890425D01*
X114575129Y-138946098D01*
X114747485Y-138972840D01*
X114920448Y-139006663D01*
X115267318Y-139094927D01*
X115613981Y-139209649D01*
X115958680Y-139349589D01*
X116299659Y-139513507D01*
X116635159Y-139700162D01*
X116963425Y-139908315D01*
X117282700Y-140136725D01*
X117591225Y-140384152D01*
X117887245Y-140649355D01*
X118169002Y-140931095D01*
X118434739Y-141228132D01*
X118682700Y-141539224D01*
X118911127Y-141863133D01*
X119118263Y-142198617D01*
X119302351Y-142544437D01*
X119522493Y-143002150D01*
X119609387Y-143208037D01*
X119681036Y-143408188D01*
X119737596Y-143609786D01*
X119779221Y-143820014D01*
X119806067Y-144046055D01*
X119818288Y-144295092D01*
X119816040Y-144574309D01*
X119799478Y-144890887D01*
X119768757Y-145252011D01*
X119724031Y-145664862D01*
X119593187Y-146674482D01*
X119408186Y-147977210D01*
X119294429Y-148791287D01*
X119192661Y-149555341D01*
X119104948Y-150252423D01*
X119033359Y-150865581D01*
X118979960Y-151377867D01*
X118946818Y-151772330D01*
X118938489Y-151920082D01*
X118935999Y-152032021D01*
X118939608Y-152106031D01*
X118943779Y-152128149D01*
X118949572Y-152139991D01*
X118987719Y-152165313D01*
X119035639Y-152175553D01*
X119092771Y-152171335D01*
X119158552Y-152153288D01*
X119232420Y-152122038D01*
X119313814Y-152078211D01*
X119496930Y-151955332D01*
X119703403Y-151789666D01*
X119928738Y-151586224D01*
X120168439Y-151350020D01*
X120418010Y-151086065D01*
X120672956Y-150799373D01*
X120928780Y-150494955D01*
X121180987Y-150177826D01*
X121425080Y-149852996D01*
X121656565Y-149525480D01*
X121870945Y-149200289D01*
X122063724Y-148882436D01*
X122230406Y-148576934D01*
X122451099Y-148103784D01*
X122649881Y-147588053D01*
X122826339Y-147035942D01*
X122980059Y-146453652D01*
X123110628Y-145847385D01*
X123217633Y-145223341D01*
X123300660Y-144587721D01*
X123359295Y-143946727D01*
X123393126Y-143306560D01*
X123401739Y-142673421D01*
X123384720Y-142053511D01*
X123341656Y-141453031D01*
X123272134Y-140878183D01*
X123175740Y-140335167D01*
X123052061Y-139830185D01*
X122900683Y-139369437D01*
X122674108Y-138850864D01*
X122406037Y-138354512D01*
X122098795Y-137881931D01*
X121754708Y-137434671D01*
X121376100Y-137014283D01*
X120965299Y-136622317D01*
X120524628Y-136260324D01*
X120056414Y-135929853D01*
X119562982Y-135632455D01*
X119046657Y-135369681D01*
X118509765Y-135143079D01*
X117954630Y-134954202D01*
X117383580Y-134804599D01*
X116798939Y-134695820D01*
X116203032Y-134629416D01*
X115598185Y-134606937D01*
X115405442Y-134604604D01*
X115224125Y-134597781D01*
X115054294Y-134586734D01*
X114896006Y-134571727D01*
X114749319Y-134553026D01*
X114614292Y-134530894D01*
X114490982Y-134505597D01*
X114379448Y-134477400D01*
X114279748Y-134446567D01*
X114191940Y-134413363D01*
X114116082Y-134378054D01*
X114052233Y-134340904D01*
X114000450Y-134302177D01*
X113960791Y-134262139D01*
X113933315Y-134221055D01*
X113918081Y-134179189D01*
X113915145Y-134136807D01*
X113924566Y-134094172D01*
X113946402Y-134051551D01*
X113980712Y-134009207D01*
X114027554Y-133967406D01*
X114086985Y-133926412D01*
X114159064Y-133886491D01*
X114243849Y-133847906D01*
X114341398Y-133810924D01*
X114451769Y-133775809D01*
X114575021Y-133742825D01*
X114711211Y-133712238D01*
X114860398Y-133684312D01*
X115022639Y-133659312D01*
X115197994Y-133637504D01*
X115386519Y-133619151D01*
X115610467Y-133599791D01*
X115807234Y-133580017D01*
X115978576Y-133557762D01*
X116126250Y-133530960D01*
X116191760Y-133515207D01*
X116252013Y-133497543D01*
X116307227Y-133477707D01*
X116357622Y-133455444D01*
X116403418Y-133430493D01*
X116444834Y-133402596D01*
X116482090Y-133371495D01*
X116515407Y-133336932D01*
X116545002Y-133298649D01*
X116571096Y-133256386D01*
X116593909Y-133209886D01*
X116613660Y-133158890D01*
X116630569Y-133103139D01*
X116644855Y-133042376D01*
X116656739Y-132976343D01*
X116666439Y-132904779D01*
X116680167Y-132744031D01*
X116687798Y-132558065D01*
X116691088Y-132344814D01*
X116691794Y-132102210D01*
X116690571Y-131964673D01*
X116686971Y-131830392D01*
X116681097Y-131700142D01*
X116673053Y-131574698D01*
X116662942Y-131454835D01*
X116650867Y-131341328D01*
X116636932Y-131234952D01*
X116621240Y-131136483D01*
X116603894Y-131046695D01*
X116584998Y-130966365D01*
X116564655Y-130896266D01*
X116553973Y-130865296D01*
X116542968Y-130837174D01*
X116531654Y-130811998D01*
X116520042Y-130789865D01*
X116508145Y-130770870D01*
X116495978Y-130755112D01*
X116483552Y-130742688D01*
X116470881Y-130733693D01*
X116457977Y-130728225D01*
X116444853Y-130726380D01*
X116402452Y-130731255D01*
X116342120Y-130745535D01*
X116172000Y-130800242D01*
X115943177Y-130886369D01*
X115664330Y-130999781D01*
X115344143Y-131136344D01*
X114991296Y-131291925D01*
X114222352Y-131643603D01*
X113828982Y-131831946D01*
X113430186Y-132039099D01*
X113027153Y-132264029D01*
X112621071Y-132505702D01*
X112213128Y-132763085D01*
X111804514Y-133035143D01*
X111396417Y-133320845D01*
X110990025Y-133619156D01*
X110586527Y-133929042D01*
X110187111Y-134249470D01*
X109792966Y-134579407D01*
X109405281Y-134917818D01*
X109025244Y-135263671D01*
X108654044Y-135615932D01*
X108292869Y-135973568D01*
X107942908Y-136335544D01*
X107667291Y-136656540D01*
X107373433Y-137043165D01*
X107067069Y-137484154D01*
X106753936Y-137968242D01*
X106439769Y-138484162D01*
X106130304Y-139020649D01*
X105831279Y-139566438D01*
X105548428Y-140110264D01*
X105287487Y-140640860D01*
X105054194Y-141146962D01*
X104854284Y-141617304D01*
X104693493Y-142040621D01*
X104577557Y-142405646D01*
X104512212Y-142701115D01*
X104500304Y-142819245D01*
X103141028Y-142819245D01*
X103408886Y-141951188D01*
X103840177Y-140788486D01*
X104329140Y-139672603D01*
X104875153Y-138604262D01*
X105477597Y-137584187D01*
X106135851Y-136613101D01*
X106849296Y-135691728D01*
X107617311Y-134820791D01*
X108439276Y-134001013D01*
X109314572Y-133233119D01*
X110242577Y-132517831D01*
X111222673Y-131855873D01*
X112254238Y-131247968D01*
X113324785Y-130700905D01*
X117736686Y-130700905D01*
X117736901Y-131095348D01*
X117739184Y-131456382D01*
X117743585Y-131785461D01*
X117750156Y-132084038D01*
X117758950Y-132353567D01*
X117770017Y-132595500D01*
X117783410Y-132811291D01*
X117799180Y-133002394D01*
X117817378Y-133170262D01*
X117838058Y-133316348D01*
X117849343Y-133381678D01*
X117861269Y-133442106D01*
X117873840Y-133497817D01*
X117887064Y-133548990D01*
X117900946Y-133595807D01*
X117915494Y-133638451D01*
X117930714Y-133677103D01*
X117946612Y-133711945D01*
X117963195Y-133743158D01*
X117980468Y-133770924D01*
X117998440Y-133795425D01*
X118017116Y-133816842D01*
X118036502Y-133835357D01*
X118056605Y-133851152D01*
X118077431Y-133864408D01*
X118098988Y-133875308D01*
X118121281Y-133884032D01*
X118144317Y-133890762D01*
X118168102Y-133895681D01*
X118192642Y-133898969D01*
X118244017Y-133901382D01*
X118340264Y-133905162D01*
X118443480Y-133916325D01*
X118668936Y-133959741D01*
X118916613Y-134029513D01*
X119182738Y-134123520D01*
X119463540Y-134239646D01*
X119755244Y-134375770D01*
X120054081Y-134529773D01*
X120356276Y-134699539D01*
X120658057Y-134882947D01*
X120955653Y-135077879D01*
X121245290Y-135282216D01*
X121523197Y-135493840D01*
X121785601Y-135710631D01*
X122028730Y-135930472D01*
X122248811Y-136151243D01*
X122442072Y-136370826D01*
X122595500Y-136545983D01*
X122741796Y-136702174D01*
X122886232Y-136841106D01*
X123034078Y-136964483D01*
X123190606Y-137074011D01*
X123361087Y-137171396D01*
X123550791Y-137258341D01*
X123764989Y-137336553D01*
X124008954Y-137407737D01*
X124287955Y-137473599D01*
X124607263Y-137535843D01*
X124972151Y-137596174D01*
X125859746Y-137717922D01*
X126992907Y-137852485D01*
X130243837Y-138130505D01*
X133639461Y-138277473D01*
X137129343Y-138294630D01*
X140663047Y-138183216D01*
X144190136Y-137944471D01*
X147660175Y-137579636D01*
X151022726Y-137089949D01*
X152647933Y-136798675D01*
X154227355Y-136476653D01*
X156979018Y-135912208D01*
X156837904Y-123529716D01*
X156784301Y-120087376D01*
X156726562Y-117250270D01*
X156660554Y-114942330D01*
X156582144Y-113087490D01*
X156536996Y-112306211D01*
X156487197Y-111609681D01*
X156432231Y-110988392D01*
X156371580Y-110432836D01*
X156304728Y-109933504D01*
X156231158Y-109480888D01*
X156150353Y-109065479D01*
X156061797Y-108677769D01*
X155866184Y-107905843D01*
X155765458Y-107546073D01*
X155662717Y-107203680D01*
X155557908Y-106878599D01*
X155450981Y-106570764D01*
X155341884Y-106280112D01*
X155230564Y-106006578D01*
X155116971Y-105750097D01*
X155001052Y-105510605D01*
X154882756Y-105288037D01*
X154762031Y-105082328D01*
X154638826Y-104893414D01*
X154513089Y-104721231D01*
X154384768Y-104565713D01*
X154253811Y-104426796D01*
X154120168Y-104304415D01*
X153983785Y-104198507D01*
X153844612Y-104109005D01*
X153702596Y-104035847D01*
X153557687Y-103978966D01*
X153409833Y-103938299D01*
X153258981Y-103913781D01*
X153105080Y-103905347D01*
X152948078Y-103912932D01*
X152787924Y-103936473D01*
X152624567Y-103975904D01*
X152457953Y-104031161D01*
X152288033Y-104102179D01*
X152114753Y-104188895D01*
X151938063Y-104291242D01*
X151757910Y-104409156D01*
X151664646Y-104481156D01*
X151570316Y-104564306D01*
X151475301Y-104657765D01*
X151379983Y-104760693D01*
X151189960Y-104991601D01*
X151003296Y-105250310D01*
X150823040Y-105530103D01*
X150652240Y-105824262D01*
X150493947Y-106126069D01*
X150351207Y-106428807D01*
X150227072Y-106725757D01*
X150124588Y-107010201D01*
X150046807Y-107275421D01*
X149996775Y-107514700D01*
X149983118Y-107622512D01*
X149977543Y-107721320D01*
X149980429Y-107810283D01*
X149992159Y-107888562D01*
X150013112Y-107955317D01*
X150043672Y-108009709D01*
X150084217Y-108050897D01*
X150135130Y-108078042D01*
X150154968Y-108085372D01*
X150174767Y-108094097D01*
X150214093Y-108115526D01*
X150252799Y-108141916D01*
X150290574Y-108172854D01*
X150327110Y-108207925D01*
X150362094Y-108246717D01*
X150395219Y-108288816D01*
X150426173Y-108333809D01*
X150454646Y-108381282D01*
X150480329Y-108430822D01*
X150502911Y-108482015D01*
X150522083Y-108534449D01*
X150537534Y-108587710D01*
X150548954Y-108641384D01*
X150556034Y-108695057D01*
X150558463Y-108748318D01*
X150555948Y-108817771D01*
X150548265Y-108880611D01*
X150542422Y-108909550D01*
X150535209Y-108936835D01*
X150526600Y-108962467D01*
X150516571Y-108986445D01*
X150505095Y-109008770D01*
X150492145Y-109029441D01*
X150477698Y-109048458D01*
X150461726Y-109065821D01*
X150444203Y-109081532D01*
X150425105Y-109095588D01*
X150404404Y-109107991D01*
X150382076Y-109118740D01*
X150358094Y-109127835D01*
X150332432Y-109135277D01*
X150305065Y-109141065D01*
X150275968Y-109145199D01*
X150245113Y-109147680D01*
X150212475Y-109148507D01*
X150178028Y-109147681D01*
X150141747Y-109145200D01*
X150063578Y-109135279D01*
X149977761Y-109118743D01*
X149884089Y-109095592D01*
X149782355Y-109065827D01*
X149383824Y-109009945D01*
X148565268Y-108949517D01*
X145866517Y-108823288D01*
X142082976Y-108703675D01*
X137611517Y-108607209D01*
X126216795Y-108395540D01*
X126005129Y-107125549D01*
X125975837Y-106990122D01*
X125941119Y-106849114D01*
X125901336Y-106703559D01*
X125856851Y-106554489D01*
X125808026Y-106402939D01*
X125755221Y-106249941D01*
X125698799Y-106096531D01*
X125639122Y-105943740D01*
X125576550Y-105792603D01*
X125511447Y-105644153D01*
X125444173Y-105499424D01*
X125375090Y-105359449D01*
X125304561Y-105225262D01*
X125232946Y-105097896D01*
X125160608Y-104978385D01*
X125087908Y-104867763D01*
X124989740Y-104734982D01*
X124892916Y-104614138D01*
X124796298Y-104504765D01*
X124698750Y-104406400D01*
X124599135Y-104318577D01*
X124496315Y-104240830D01*
X124389155Y-104172695D01*
X124276518Y-104113707D01*
X124157266Y-104063400D01*
X124030262Y-104021309D01*
X123894370Y-103986970D01*
X123748453Y-103959918D01*
X123591374Y-103939686D01*
X123421996Y-103925811D01*
X123239183Y-103917827D01*
X123041796Y-103915269D01*
X122843927Y-103917896D01*
X122659390Y-103926362D01*
X122486636Y-103941547D01*
X122324113Y-103964327D01*
X122170272Y-103995583D01*
X122096123Y-104014664D01*
X122023563Y-104036192D01*
X121952398Y-104060279D01*
X121882434Y-104087034D01*
X121813478Y-104116566D01*
X121745337Y-104148985D01*
X121677815Y-104184402D01*
X121610719Y-104222926D01*
X121543856Y-104264666D01*
X121477032Y-104309733D01*
X121342725Y-104410287D01*
X121206247Y-104525465D01*
X121066049Y-104656146D01*
X120920580Y-104803209D01*
X120768289Y-104967531D01*
X120607626Y-105149991D01*
X120254264Y-105591713D01*
X119933767Y-106066042D01*
X119644276Y-106586570D01*
X119383930Y-107166887D01*
X119150870Y-107820585D01*
X118943234Y-108561255D01*
X118759162Y-109402486D01*
X118596795Y-110357871D01*
X118454272Y-111441000D01*
X118329731Y-112665464D01*
X118127160Y-115592761D01*
X117974198Y-119248488D01*
X117855963Y-123741374D01*
X117819239Y-125407707D01*
X117788715Y-126882269D01*
X117764806Y-128176687D01*
X117747925Y-129302588D01*
X117742250Y-129805978D01*
X117738486Y-130271599D01*
X117736686Y-130700905D01*
X113324785Y-130700905D01*
X113336652Y-130694841D01*
X114469296Y-130197213D01*
X116515406Y-129350549D01*
X116409575Y-127128043D01*
X116385804Y-125502578D01*
X116437687Y-123278907D01*
X116551582Y-120665803D01*
X116713845Y-117872037D01*
X116910835Y-115106384D01*
X117128910Y-112577616D01*
X117354425Y-110494506D01*
X117573740Y-109065827D01*
X117700150Y-108518658D01*
X117840874Y-107989163D01*
X117995343Y-107478478D01*
X118162990Y-106987741D01*
X118343246Y-106518087D01*
X118535543Y-106070655D01*
X118739311Y-105646581D01*
X118953984Y-105247002D01*
X119178991Y-104873054D01*
X119413766Y-104525875D01*
X119534638Y-104362679D01*
X119657739Y-104206601D01*
X119782997Y-104057784D01*
X119910341Y-103916370D01*
X120039702Y-103782500D01*
X120171006Y-103656317D01*
X120304184Y-103537964D01*
X120439163Y-103427581D01*
X120575874Y-103325312D01*
X120714246Y-103231298D01*
X120854206Y-103145682D01*
X120995684Y-103068605D01*
X121234261Y-102957054D01*
X121473485Y-102860400D01*
X121712966Y-102778447D01*
X121952319Y-102711003D01*
X122191154Y-102657873D01*
X122429085Y-102618863D01*
X122665725Y-102593780D01*
X122900685Y-102582431D01*
X123133577Y-102584620D01*
G37*
G36*
X133910066Y-119812029D02*
G01*
X133950592Y-119818436D01*
X133991138Y-119829952D01*
X134031580Y-119846533D01*
X134071796Y-119868133D01*
X134111663Y-119894706D01*
X134151059Y-119926209D01*
X134189860Y-119962594D01*
X134227945Y-120003819D01*
X134265190Y-120049836D01*
X134301472Y-120100600D01*
X134336669Y-120156068D01*
X134370658Y-120216193D01*
X134403317Y-120280930D01*
X134434522Y-120350233D01*
X134464151Y-120424059D01*
X134492081Y-120502361D01*
X134518189Y-120585094D01*
X134542353Y-120672214D01*
X134566863Y-120782426D01*
X134587536Y-120894525D01*
X134604462Y-121008122D01*
X134617732Y-121122831D01*
X134627436Y-121238262D01*
X134633665Y-121354030D01*
X134636510Y-121469746D01*
X134636060Y-121585023D01*
X134632406Y-121699473D01*
X134625638Y-121812709D01*
X134615848Y-121924343D01*
X134603124Y-122033987D01*
X134587559Y-122141254D01*
X134569242Y-122245757D01*
X134548263Y-122347107D01*
X134524714Y-122444917D01*
X134498684Y-122538800D01*
X134470264Y-122628368D01*
X134439544Y-122713234D01*
X134406615Y-122793009D01*
X134371568Y-122867307D01*
X134334492Y-122935739D01*
X134295478Y-122997919D01*
X134254617Y-123053458D01*
X134211999Y-123101969D01*
X134167714Y-123143064D01*
X134121853Y-123176357D01*
X134074507Y-123201459D01*
X134025765Y-123217982D01*
X133975719Y-123225540D01*
X133924458Y-123223744D01*
X133872073Y-123212207D01*
X133829507Y-123193695D01*
X133787858Y-123164984D01*
X133747217Y-123126622D01*
X133707674Y-123079158D01*
X133632244Y-122959122D01*
X133562292Y-122809269D01*
X133498540Y-122633992D01*
X133441713Y-122437682D01*
X133392535Y-122224732D01*
X133351727Y-121999535D01*
X133320015Y-121766483D01*
X133298122Y-121529968D01*
X133286770Y-121294384D01*
X133286684Y-121064123D01*
X133298587Y-120843577D01*
X133323203Y-120637139D01*
X133361255Y-120449201D01*
X133413466Y-120284156D01*
X133440834Y-120214282D01*
X133469939Y-120150150D01*
X133500659Y-120091715D01*
X133532872Y-120038933D01*
X133566454Y-119991757D01*
X133601283Y-119950144D01*
X133637235Y-119914046D01*
X133674189Y-119883420D01*
X133712022Y-119858220D01*
X133750610Y-119838401D01*
X133789831Y-119823918D01*
X133829563Y-119814725D01*
X133869682Y-119810777D01*
X133910066Y-119812029D01*
G37*
%LPC*%
D11*
%TO.C,MX56*%
X229720873Y-186144498D03*
D12*
X224640873Y-186144498D03*
D11*
X219560873Y-186144498D03*
D13*
X220830873Y-183604498D03*
X227180873Y-181064498D03*
%TD*%
D11*
%TO.C,MX1*%
X135661498Y-109944498D03*
D12*
X130581498Y-109944498D03*
D11*
X125501498Y-109944498D03*
D13*
X126771498Y-107404498D03*
X133121498Y-104864498D03*
%TD*%
D11*
%TO.C,MX59*%
X332114623Y-186144498D03*
D12*
X327034623Y-186144498D03*
D11*
X321954623Y-186144498D03*
D13*
X323224623Y-183604498D03*
X329574623Y-181064498D03*
%TD*%
D11*
%TO.C,MX46*%
X253533373Y-167094498D03*
D12*
X248453373Y-167094498D03*
D11*
X243373373Y-167094498D03*
D13*
X244643373Y-164554498D03*
X250993373Y-162014498D03*
%TD*%
D11*
%TO.C,MX2*%
X154711498Y-109944498D03*
D12*
X149631498Y-109944498D03*
D11*
X144551498Y-109944498D03*
D13*
X145821498Y-107404498D03*
X152171498Y-104864498D03*
%TD*%
D11*
%TO.C,MX58*%
X284489623Y-186144498D03*
D12*
X279409623Y-186144498D03*
D11*
X274329623Y-186144498D03*
D13*
X275599623Y-183604498D03*
X281949623Y-181064498D03*
%TD*%
D11*
%TO.C,MX8*%
X296395873Y-109944498D03*
D12*
X291315873Y-109944498D03*
D11*
X286235873Y-109944498D03*
D13*
X287505873Y-107404498D03*
X293855873Y-104864498D03*
%TD*%
D11*
%TO.C,MX50*%
X329733373Y-167094498D03*
D12*
X324653373Y-167094498D03*
D11*
X319573373Y-167094498D03*
D13*
X320843373Y-164554498D03*
X327193373Y-162014498D03*
%TD*%
D11*
%TO.C,MX42*%
X154711498Y-167094498D03*
D12*
X149631498Y-167094498D03*
D11*
X144551498Y-167094498D03*
D13*
X145821498Y-164554498D03*
X152171498Y-162014498D03*
%TD*%
D11*
%TO.C,MX41*%
X135661498Y-167094498D03*
D12*
X130581498Y-167094498D03*
D11*
X125501498Y-167094498D03*
D13*
X126771498Y-164554498D03*
X133121498Y-162014498D03*
%TD*%
D11*
%TO.C,MX12*%
X379739623Y-109944498D03*
D12*
X374659623Y-109944498D03*
D11*
X369579623Y-109944498D03*
D13*
X370849623Y-107404498D03*
X377199623Y-104864498D03*
%TD*%
D11*
%TO.C,MX52*%
X377358373Y-167094498D03*
D12*
X372278373Y-167094498D03*
D11*
X367198373Y-167094498D03*
D13*
X368468373Y-164554498D03*
X374818373Y-162014498D03*
%TD*%
D11*
%TO.C,MX40*%
X116611498Y-167094498D03*
D12*
X111531498Y-167094498D03*
D11*
X106451498Y-167094498D03*
D13*
X107721498Y-164554498D03*
X114071498Y-162014498D03*
%TD*%
D11*
%TO.C,MX54*%
X164236498Y-186144498D03*
D12*
X159156498Y-186144498D03*
D11*
X154076498Y-186144498D03*
D13*
X155346498Y-183604498D03*
X161696498Y-181064498D03*
%TD*%
D11*
%TO.C,MX35*%
X296395873Y-148044498D03*
D12*
X291315873Y-148044498D03*
D11*
X286235873Y-148044498D03*
D13*
X287505873Y-145504498D03*
X293855873Y-142964498D03*
%TD*%
D11*
%TO.C,MX28*%
X135661498Y-148044498D03*
D12*
X130581498Y-148044498D03*
D11*
X125501498Y-148044498D03*
D13*
X126771498Y-145504498D03*
X133121498Y-142964498D03*
%TD*%
D11*
%TO.C,MX23*%
X324970873Y-128994498D03*
D12*
X319890873Y-128994498D03*
D11*
X314810873Y-128994498D03*
D13*
X316080873Y-126454498D03*
X322430873Y-123914498D03*
%TD*%
D11*
%TO.C,MX11*%
X353545873Y-109944498D03*
D12*
X348465873Y-109944498D03*
D11*
X343385873Y-109944498D03*
D13*
X344655873Y-107404498D03*
X351005873Y-104864498D03*
%TD*%
D11*
%TO.C,MX7*%
X277345873Y-109944498D03*
D12*
X272265873Y-109944498D03*
D11*
X267185873Y-109944498D03*
D13*
X268455873Y-107404498D03*
X274805873Y-104864498D03*
%TD*%
D11*
%TO.C,MX47*%
X272583373Y-167094498D03*
D12*
X267503373Y-167094498D03*
D11*
X262423373Y-167094498D03*
D13*
X263693373Y-164554498D03*
X270043373Y-162014498D03*
%TD*%
D11*
%TO.C,MX16*%
X173761498Y-128994498D03*
D12*
X168681498Y-128994498D03*
D11*
X163601498Y-128994498D03*
D13*
X164871498Y-126454498D03*
X171221498Y-123914498D03*
%TD*%
D11*
%TO.C,MX18*%
X229720873Y-128994498D03*
D12*
X224640873Y-128994498D03*
D11*
X219560873Y-128994498D03*
D13*
X220830873Y-126454498D03*
X227180873Y-123914498D03*
%TD*%
D11*
%TO.C,MX33*%
X258295873Y-148044498D03*
D12*
X253215873Y-148044498D03*
D11*
X248135873Y-148044498D03*
D13*
X249405873Y-145504498D03*
X255755873Y-142964498D03*
%TD*%
D11*
%TO.C,MX21*%
X286870873Y-128994498D03*
D12*
X281790873Y-128994498D03*
D11*
X276710873Y-128994498D03*
D13*
X277980873Y-126454498D03*
X284330873Y-123914498D03*
%TD*%
D11*
%TO.C,MX43*%
X173761498Y-167094498D03*
D12*
X168681498Y-167094498D03*
D11*
X163601498Y-167094498D03*
D13*
X164871498Y-164554498D03*
X171221498Y-162014498D03*
%TD*%
D11*
%TO.C,MX26*%
X384502123Y-128994498D03*
D12*
X379422123Y-128994498D03*
D11*
X374342123Y-128994498D03*
D13*
X375612123Y-126454498D03*
X381962123Y-123914498D03*
%TD*%
D11*
%TO.C,MX48*%
X291633373Y-167094498D03*
D12*
X286553373Y-167094498D03*
D11*
X281473373Y-167094498D03*
D13*
X282743373Y-164554498D03*
X289093373Y-162014498D03*
%TD*%
D11*
%TO.C,MX20*%
X267820873Y-128994498D03*
D12*
X262740873Y-128994498D03*
D11*
X257660873Y-128994498D03*
D13*
X258930873Y-126454498D03*
X265280873Y-123914498D03*
%TD*%
D11*
%TO.C,MX51*%
X348783373Y-167094498D03*
D12*
X343703373Y-167094498D03*
D11*
X338623373Y-167094498D03*
D13*
X339893373Y-164554498D03*
X346243373Y-162014498D03*
%TD*%
D11*
%TO.C,MX53*%
X126136498Y-186144498D03*
D12*
X121056498Y-186144498D03*
D11*
X115976498Y-186144498D03*
D13*
X117246498Y-183604498D03*
X123596498Y-181064498D03*
%TD*%
D11*
%TO.C,MX0*%
X116611498Y-109944498D03*
D12*
X111531498Y-109944498D03*
D11*
X106451498Y-109944498D03*
D13*
X107721498Y-107404498D03*
X114071498Y-104864498D03*
%TD*%
D11*
%TO.C,MX38*%
X353545873Y-148044498D03*
D12*
X348465873Y-148044498D03*
D11*
X343385873Y-148044498D03*
D13*
X344655873Y-145504498D03*
X351005873Y-142964498D03*
%TD*%
D11*
%TO.C,MX36*%
X315445873Y-148044498D03*
D12*
X310365873Y-148044498D03*
D11*
X305285873Y-148044498D03*
D13*
X306555873Y-145504498D03*
X312905873Y-142964498D03*
%TD*%
D11*
%TO.C,MX13*%
X116611498Y-128994498D03*
D12*
X111531498Y-128994498D03*
D11*
X106451498Y-128994498D03*
D13*
X107721498Y-126454498D03*
X114071498Y-123914498D03*
%TD*%
D11*
%TO.C,MX57*%
X251152123Y-186144498D03*
D12*
X246072123Y-186144498D03*
D11*
X240992123Y-186144498D03*
D13*
X242262123Y-183604498D03*
X248612123Y-181064498D03*
%TD*%
D11*
%TO.C,MX15*%
X154711498Y-128994498D03*
D12*
X149631498Y-128994498D03*
D11*
X144551498Y-128994498D03*
D13*
X145821498Y-126454498D03*
X152171498Y-123914498D03*
%TD*%
D14*
%TO.C,SW0*%
X178890248Y-162250748D03*
X186510248Y-162250748D03*
X178890248Y-157170748D03*
X186510248Y-157170748D03*
%TD*%
D11*
%TO.C,MX24*%
X344020873Y-128994498D03*
D12*
X338940873Y-128994498D03*
D11*
X333860873Y-128994498D03*
D13*
X335130873Y-126454498D03*
X341480873Y-123914498D03*
%TD*%
D11*
%TO.C,MX17*%
X208289623Y-128994498D03*
D12*
X203209623Y-128994498D03*
D11*
X198129623Y-128994498D03*
D13*
X199399623Y-126454498D03*
X205749623Y-123914498D03*
%TD*%
D11*
%TO.C,MX19*%
X248770873Y-128994498D03*
D12*
X243690873Y-128994498D03*
D11*
X238610873Y-128994498D03*
D13*
X239880873Y-126454498D03*
X246230873Y-123914498D03*
%TD*%
D11*
%TO.C,MX14*%
X135661498Y-128994498D03*
D12*
X130581498Y-128994498D03*
D11*
X125501498Y-128994498D03*
D13*
X126771498Y-126454498D03*
X133121498Y-123914498D03*
%TD*%
D11*
%TO.C,MX39*%
X379739623Y-148044498D03*
D12*
X374659623Y-148044498D03*
D11*
X369579623Y-148044498D03*
D13*
X370849623Y-145504498D03*
X377199623Y-142964498D03*
%TD*%
D15*
%TO.C,J0*%
X181049258Y-136404238D03*
D16*
X182049258Y-136404238D03*
X181049258Y-135404238D03*
X182049258Y-135404238D03*
X181049258Y-134404238D03*
X182049258Y-134404238D03*
%TD*%
D11*
%TO.C,MX9*%
X315445873Y-109944498D03*
D12*
X310365873Y-109944498D03*
D11*
X305285873Y-109944498D03*
D13*
X306555873Y-107404498D03*
X312905873Y-104864498D03*
%TD*%
D11*
%TO.C,MX27*%
X116611498Y-148044498D03*
D12*
X111531498Y-148044498D03*
D11*
X106451498Y-148044498D03*
D13*
X107721498Y-145504498D03*
X114071498Y-142964498D03*
%TD*%
D11*
%TO.C,MX25*%
X363070873Y-128994498D03*
D12*
X357990873Y-128994498D03*
D11*
X352910873Y-128994498D03*
D13*
X354180873Y-126454498D03*
X360530873Y-123914498D03*
%TD*%
D11*
%TO.C,MX32*%
X239245873Y-148044498D03*
D12*
X234165873Y-148044498D03*
D11*
X229085873Y-148044498D03*
D13*
X230355873Y-145504498D03*
X236705873Y-142964498D03*
%TD*%
D11*
%TO.C,MX29*%
X154711498Y-148044498D03*
D12*
X149631498Y-148044498D03*
D11*
X144551498Y-148044498D03*
D13*
X145821498Y-145504498D03*
X152171498Y-142964498D03*
%TD*%
D11*
%TO.C,MX55*%
X208289623Y-186144498D03*
D12*
X203209623Y-186144498D03*
D11*
X198129623Y-186144498D03*
D13*
X199399623Y-183604498D03*
X205749623Y-181064498D03*
%TD*%
D11*
%TO.C,MX4*%
X213052123Y-109944498D03*
D12*
X207972123Y-109944498D03*
D11*
X202892123Y-109944498D03*
D13*
X204162123Y-107404498D03*
X210512123Y-104864498D03*
%TD*%
D11*
%TO.C,MX31*%
X213052123Y-148044498D03*
D12*
X207972123Y-148044498D03*
D11*
X202892123Y-148044498D03*
D13*
X204162123Y-145504498D03*
X210512123Y-142964498D03*
%TD*%
D11*
%TO.C,MX60*%
X367833373Y-186144498D03*
D12*
X362753373Y-186144498D03*
D11*
X357673373Y-186144498D03*
D13*
X358943373Y-183604498D03*
X365293373Y-181064498D03*
%TD*%
D11*
%TO.C,MX34*%
X277345873Y-148044498D03*
D12*
X272265873Y-148044498D03*
D11*
X267185873Y-148044498D03*
D13*
X268455873Y-145504498D03*
X274805873Y-142964498D03*
%TD*%
D11*
%TO.C,MX3*%
X173761498Y-109944498D03*
D12*
X168681498Y-109944498D03*
D11*
X163601498Y-109944498D03*
D13*
X164871498Y-107404498D03*
X171221498Y-104864498D03*
%TD*%
D11*
%TO.C,MX5*%
X239245873Y-109944498D03*
D12*
X234165873Y-109944498D03*
D11*
X229085873Y-109944498D03*
D13*
X230355873Y-107404498D03*
X236705873Y-104864498D03*
%TD*%
D11*
%TO.C,MX45*%
X234483373Y-167094498D03*
D12*
X229403373Y-167094498D03*
D11*
X224323373Y-167094498D03*
D13*
X225593373Y-164554498D03*
X231943373Y-162014498D03*
%TD*%
D11*
%TO.C,MX44*%
X210670873Y-167094498D03*
D12*
X205590873Y-167094498D03*
D11*
X200510873Y-167094498D03*
D13*
X201780873Y-164554498D03*
X208130873Y-162014498D03*
%TD*%
D11*
%TO.C,MX37*%
X334495873Y-148044498D03*
D12*
X329415873Y-148044498D03*
D11*
X324335873Y-148044498D03*
D13*
X325605873Y-145504498D03*
X331955873Y-142964498D03*
%TD*%
D11*
%TO.C,MX61*%
X386883373Y-186144498D03*
D12*
X381803373Y-186144498D03*
D11*
X376723373Y-186144498D03*
D13*
X377993373Y-183604498D03*
X384343373Y-181064498D03*
%TD*%
D11*
%TO.C,MX6*%
X258295873Y-109944498D03*
D12*
X253215873Y-109944498D03*
D11*
X248135873Y-109944498D03*
D13*
X249405873Y-107404498D03*
X255755873Y-104864498D03*
%TD*%
D11*
%TO.C,MX10*%
X334495873Y-109944498D03*
D12*
X329415873Y-109944498D03*
D11*
X324335873Y-109944498D03*
D13*
X325605873Y-107404498D03*
X331955873Y-104864498D03*
%TD*%
D11*
%TO.C,MX49*%
X310683373Y-167094498D03*
D12*
X305603373Y-167094498D03*
D11*
X300523373Y-167094498D03*
D13*
X301793373Y-164554498D03*
X308143373Y-162014498D03*
%TD*%
D11*
%TO.C,MX30*%
X173761498Y-148044498D03*
D12*
X168681498Y-148044498D03*
D11*
X163601498Y-148044498D03*
D13*
X164871498Y-145504498D03*
X171221498Y-142964498D03*
%TD*%
D11*
%TO.C,MX22*%
X305920873Y-128994498D03*
D12*
X300840873Y-128994498D03*
D11*
X295760873Y-128994498D03*
D13*
X297030873Y-126454498D03*
X303380873Y-123914498D03*
%TD*%
%LPD*%
M02*
